<?xml version="1.0" encoding="utf-8"?>
<!-- Generator: Adobe Illustrator 16.0.0, SVG Export Plug-In . SVG Version: 6.00 Build 0)  -->
<!DOCTYPE svg PUBLIC "-//W3C//DTD SVG 1.1//EN" "http://www.w3.org/Graphics/SVG/1.1/DTD/svg11.dtd">
<svg version="1.1" id="Layer_1" xmlns="http://www.w3.org/2000/svg" xmlns:xlink="http://www.w3.org/1999/xlink" x="0px" y="0px" viewBox="0 0 1920 1080" enable-background="new 0 0 1920 1080" xml:space="preserve" preserveAspectRatio="none">
<g id="guides">
</g>
<g id="page_x5F_fills_x5F_blue">
	<rect id="fill_x5F_4" fill="#CCD9ED" width="1920" height="1080"/>
</g>
<g id="windows_x5F_light">
	<rect x="278.2" y="426.3" fill="#AACCC2" width="365" height="333.9"/>
	<rect x="1243.8" y="426.7" fill="#AACCC2" width="365" height="333.9"/>
</g>
<g id="doors_x5F_light_x5F_inside">
</g>
<g id="characters_x5F_indoor_x5F_fills">
	<g id="art">
		<path id="plane_x5F_rope_x5F_2" d="M1367.9,515.3c0.1,12.1,1.3,24.2,1,36.3c0,1,1.5,1,1.5,0c0.3-12.1-0.9-24.2-1-36.3
			C1369.4,514.4,1367.9,514.4,1367.9,515.3L1367.9,515.3z"/>
		<path id="planes_x5F_rope_x5F_3" d="M1367.6,569.2c1.2,8.1,3,37,5.3,43.3c0.3,0.9,1.8,0.5,1.4-0.4c-2.4-6.6-4.2-35.7-5.3-43.3
			C1368.9,567.8,1367.5,568.3,1367.6,569.2L1367.6,569.2z"/>
		<g id="sid_x5F_4">
			<g>
				<path fill="#C1A868" d="M1443.8,515.6c2.4-3.1,7.6-3.5,10.9-4.8c1.5-0.5,3.4-1.4,4.2-2.8c0.5-0.8,0.5-1.7,1.1-2.6
					c0.5-0.9,1-1.2,1.2-2.4c0.3-1.4,0.3-3.2,0.1-4.7c-0.1-1-0.7-3.6-1.4-4.5c-1.3-1.9-3.3,1.5-3.6,2.8c-0.5,1.6,0,4.1-1.7,5.1
					c-1.7-0.6-2.6-2.7-3.9-3.6c-1.3-0.9-2.3-4.2-3.2-2.6c-1.3,2.4-3.6,11.5-3.6,14.1c0,2.2-0.4,3.7,0.4,5.7"/>
			</g>
			<g>
				<path fill="#29301E" d="M1479.9,712.5c-3.7,6.7-11.9,33.1-3.1,37.7c6.8,3.2,19.3,1.1,26.7,1.1c8.2,0,16.2,0,24.5,0
					c10,0,22.5,1.9,32.1-1.9c6.5-2.7,6.8-10.8,6.5-16.7c-0.3-5.4-3.1-5.9-6.3-9.7c-2.6-3.5-2.6-7.5-6.8-9.4
					c-10.2-3.8-24.7-0.3-35,0.8c-12.8,1.1-24.7-2.4-37.2-1.9C1480.8,712.5,1480.5,712.5,1479.9,712.5"/>
			</g>
			<path fill="#5D6326" d="M1538.7,715.9l2.9-0.4c0,0,5.1,19,9.8,23c4.7,4,5.9,6.4,11.8,6.3v3.3c0,0-6.3-0.9-10.3-4.5
				C1548.9,740.1,1542.1,732.6,1538.7,715.9z"/>
			<g id="brush">
				
					<rect x="1438.3" y="478.5" transform="matrix(-0.7589 0.6512 -0.6512 -0.7589 2910.7324 -119.3894)" fill="#7F3A14" width="78.3" height="1.3"/>
				<polygon fill="#D16586" points="1506.4,453.3 1507.5,451.1 1508.1,450.5 1510.4,449.6 1517.5,451.5 1513.1,452.7 1511.5,454 
					1509,454.5 1506.8,454.5 				"/>
			</g>
			<g>
				<path fill="#C1A868" d="M1463.9,601.4c-8.1,2.7-19.9,1.6-28.5,0.8c-4-0.3-14.8-0.3-16.9-3.5c-2.7-4.3-2.7-14.8-2.7-19.6
					c0-7.5,2.2-14.5,4-21.5c3.5-12.1,6.7-25,11.6-36.6c0.8-2.4,2.2-4.8,2.7-7c0.5-4,1.1-4.8,3-8.6c1.9-3.8,2.2-8.3,4.3-12.4
					c3-5.4,7.3-5.9,13.2-7.3c2.2-0.5,8.7,1.7,10.9,2.5c2.5,1.6-4.2,6.6-8.2,8.5c-4.8,2.2-9.1-1-11.2,4.4c-1.6,4.3,1.3,6.7,1.1,10.8
					c-0.3,3.8-3.8,5.9-4.6,10c-1.3,5.9-1.3,12.1-2.4,17.8c-1.1,7-1.1,14-1.6,21c-0.5,6.7-0.5,16.7-4,22.6c6.7-1.3,19-3.1,26-1.5
					C1467.8,583.2,1469.5,593.6,1463.9,601.4"/>
			</g>
			<g>
				<path fill="#FFFFFF" d="M1504,564.5c-7-0.3-13.2,4.6-20.2,5.6c-6.2,1.1-11.3,4-17.5,4.8c-3.2,0.5-6.5,1.1-9.7,1.6
					c-4.6,1.1-4.6,1.1-2.7,5.4c2.4,5.6,4.3,12.4,3,18.3c-0.3,1.6-0.8,3.2-1.9,4.3c-0.5-0.3-1.1-1.1-1.3-1.3
					c-0.5,5.1,12.4,3,15.3,2.4c4.8-1.1,9.4,0.5,14.3-0.5c2.4,7.8,0,16.7,1.6,24.7c1.1,6.7,1.3,12.4,1.3,19.1
					c0.3,12.1-7.6,26.8-9.8,38.6c-1.3,8.3-7,19.6-8.1,27.9c-0.3,1.9,9.9,3.2,10.4,5.1c5.9,1.1,12.8-4.9,19-3
					c7.5,2.2,13.7,5.6,21.8,5.1c8.6-0.5,13.7-7.3,22.6-6.7c7,0.3,24.5,16.9,30.9,18.8c1.1-5.9,3.5-10.5,2.2-16.1
					c-1.9-8.1-5.9-17.3-5.4-25.1c0.3-3.2-1.2-26.4-1.4-29.4c-0.3-7.3-2.6-11.4-3.4-18.6c-0.3-3-2.2-12.2-2.2-14.9
					c0-3.2-0.6-7.3-1.1-10.6c4,3,4.4,3.4,7,7.5c3,4.6,3,3,7.5,0.3c3-1.6,20.7-7.8,20.7-11.3c0.3-1.6-3-3-4-4
					c-1.3-1.9-2.4-4.3-3.5-6.5c-1.3-2.7-3-5.1-4.6-7.5c-3.8-6.2-6.7-13.7-12.4-18.3c-8.6-7.3-21.3-12.4-31.5-16.1
					c-5.9-2.2-3.8,1.3-8.6,3c-2.2,0.8-6.2,0-8.9,0c-3.8,0-7.8,0.3-11.8-0.5C1509.1,565.9,1506.9,564.5,1504,564.5"/>
			</g>
			<g>
				<path fill="#0057B6" d="M1533.8,604.5c-6,21.8-11.2,46.6-7.2,69.1c0.7,4.1,7,2.4,6.2-1.7c-3.8-21.3,1.5-45.1,7.2-65.7
					C1541.1,602.2,1534.9,600.5,1533.8,604.5L1533.8,604.5z"/>
			</g>
			<g>
				<path fill="#DB2A00" d="M1509.3,602.5c-0.1,27.5-3.5,55.4,2.3,82.6c0.9,4.1,7.1,2.3,6.2-1.7c-5.7-26.6-2.1-54-2-80.9
					C1515.7,598.3,1509.3,598.3,1509.3,602.5L1509.3,602.5z"/>
			</g>
			<g>
				<path fill="#EEFF2F" d="M1492.8,613.9c0,17.7,0,35.4,0,53.1c0,4.2,6.5,4.2,6.5,0c0-17.7,0-35.4,0-53.1
					C1499.2,609.8,1492.8,609.8,1492.8,613.9L1492.8,613.9z"/>
			</g>
			<g>
				<path fill="#C1A868" d="M1590.9,615.6c5.9,4,23.7,33.6,14,38.2c-2.4,1.1-7.2,1-10.2,1c-5.4-0.3-10.7,0.5-16.3,1
					c-10.5,1.1-14.2,1.5-32,0.8c-11.6-0.5-22.3-3.5-38.7-7.2c-6.5,0.8-9,2.7-14.9,4.9c-5.1,1.6-17.2,3.8-21.2,0.8
					c4.6-3.2,10.2-3.2,15.1-5.4c5.1-1.9,9.4-5.1,14.5-6.5c5.4-1.6,9.7-4.8,14.5-7.8c1.6-0.8,4-3.5,6.2-3.2c2.1,0.6-2.9,7.8-3.9,8.2
					c9.1,3.5,29.1,0.9,38.3-1.4c7.6-1.9,16.4-3.1,23.6-4.4c-3-3.8-9.6-9-5.6-13.1C1577.9,617.5,1585.7,616.4,1590.9,615.6"/>
			</g>
			<g id="palette">
				
					<ellipse transform="matrix(0.3404 0.9403 -0.9403 0.3404 1584.7029 -979.9232)" fill="#54562F" cx="1490.8" cy="639.6" rx="11.1" ry="70.7"/>
				<circle fill="#D16586" cx="1463.2" cy="640.3" r="7"/>
				<circle fill="#BAFFFA" cx="1447.6" cy="646.6" r="7"/>
				<circle fill="#FFD64B" cx="1486.6" cy="630.6" r="7"/>
				<circle cx="1511.3" cy="623.6" r="7"/>
			</g>
			<g>
				<path fill="#C1A868" d="M1507.3,547.6c0,3.6,0.4,8.2,0.5,12.1c0,1.7-1.6,4.1-3.3,5.2c-2.2,3.7-5.4,4.5-4.7,9.3
					c0.5,4.4,4.3,9.3,8.6,10.6c6.5,2.2,16.4,1.1,20-5.2c1.9-3.4,3.1-5.1,6.3-7.4c1.6-1.2,3.6-2.2,4.2-4.2c1.1-4.2-4.3-6.5-6.5-9.1
					c-3.9-4.8-0.9-22.9-0.8-25.4c0-1.3,1.7-7.3,0.5-8.1c-1.1-0.5-5.2,2-6.1,2.7c-2.6,1.7-3.8,4-5.1,6.7c-3,5.8-7,7.3-12.9,9
					c-0.8,0.1-8.2,2.3-5.1,3.6"/>
			</g>
			<g>
				<path fill="#C1A868" d="M1495.4,503.3c-0.4,3.1-2.4,5.5-2.4,8.7s-0.8,5.9-1.3,9c-0.8,3.9-0.3,6.3,1.2,10
					c1.1,2.7,1.9,5.8,2.2,8.6c0.1,2.4-0.5,6.1,1.6,7.7c2.2,1.7,6.7,0.9,9.3,0.5c6.5-1.2,14.3-1.9,19-7c2.2-2.3,2.3-5.8,3.1-8.6
					c0.8-3.1,1.5-5.8,1.2-9c-0.5-6.3-1.7-13.6-6.5-18.2c-4.7-4.6-10.4-7.3-17.1-7.8c-2.3-0.3-4.4-0.1-6.7,0.7
					c-3,1.1-3.5,2.2-3.8,5.2"/>
			</g>
			<g>
				<path fill="#3A3A3A" d="M1497.3,503.1c-1.7-1.3-1.1,0.5-1.1,0.5c-2,1.6-1.6,2-4,1.1c-1.6-0.5-0.8-0.9-2.3,0
					c-0.9,0.5-0.9,1.6-2.4,1.3c-1.3-0.3-2-2.3-2.7-3.1c-0.5-0.8-2.2-0.7-1.2-2c0.4-0.8,1.9-0.3,2.4-0.7c1.7-1.2,0.5-2.8,0.3-4.4
					c-0.3-3,0.5-1.5,2.4-2.4c1.2-0.4,0.9-1.1,1.6-1.7c0.1-0.1-0.1-0.7,0.1-0.8c0.5-0.5,1.2,0.1,1.6,0c0.9-0.7,0.1-1.2,1.3-1.2
					s1.2,2.2,2.3,0.4c0.8-1.2-0.9-3.6-1.6-4.4c2.3-1.7,3.6,0.1,5.6,0.4c0.8-1.3-0.4-3.8,1.3-4.6c0.7-0.4,1.5,0,2.2,0.3
					c0.4,0.3,0.3,1.2,0.7,1.5c0.5,0.3,1.1,0.1,1.5,0.3c0.5,0.3,1.2,0.1,1.9,0.4c0.8,0.3,1.6,1.6,2.7,1.5c1.7,0,1.7-1.7,3-2.6
					c0.7-0.4,1.6,0,2-0.3c1.2-0.8,0.5-2,2.3-1.9c1.7,0,2.3,2.2,4.4,2.3c2,0.1,3-1.9,4.8-1.5c1.2,0.4,1.1,1.6,1.9,2
					c0.5,0.4,1.6,0.3,2.3,0.3c2.2-0.1,4.3-2.3,6.2-1.5c1.9,0.8,1.6,2.4,1.2,3.9c-0.1,0.8-0.8,0.9-0.8,1.9c0,1.5,1.5,1.7,2,3
					c0.5,1.2,0,2.6,0.3,3.6c0.3,1.2,0.8,3.1,1.6,3.8c2,1.5,2.4,0.1,2.4,3.2c0.1,2.8,3.6,5.4,1.7,8.2c-0.5,0.8-2,0.9-2.6,2
					c-0.4,0.8,0.1,1.2-0.1,2c-0.4,1.3-1.7,3.1-2.6,4.2c-0.9,1.3-1.9,2.2-2.4,3.8c-0.5,1.9-3.9,6.7-5.8,7.9c-0.4-1.6,3.8-6,4-7.5
					c0.1-1.5-0.3-3.1-0.7-4.4c-0.5-1.9-0.9-3.2-2.8-4c-2.2-0.8-2.5,2.2-4.1,3.4c-0.9,0.8-1.4,2.6-1.7,4.1c0,0.5-0.2,1.7-2.8-0.5
					c-1.5-1.2,0.7-3.5,0.9-4.7c0.3-1.7-0.9-3.8-1.7-5.1c-0.9-1.7-1.5-1.5-3.5-2.2c-2.2-0.5-2.3-1.1-3.2-2.8
					c-0.9-1.6-1.3-1.7-2.8-2.6c-1.1-0.5-2.8-2.6-3.9-2.6c-0.8,0-0.9,0.8-1.5,1.1c-0.9,0.3-1.5-0.1-2.3,0c-1.2,0.1-0.8,0.4-1.7,0.7
					c-0.4,0.1-1.6,0.3-2,0.4c-1.2,0.7-2,3.5-3.5,3.5S1496.8,504.3,1497.3,503.1"/>
			</g>
			<g>
				<path fill="#C1A868" d="M1527.9,517.6c-0.3-3,4-5.2,6.6-3.9c2.2,1.1,1.5,5.6,1.3,7.8s-2.3,9-5.5,7.3c-2.2-1.1-2.6-7.8-2.7-10
					c0-0.8-0.3-1.3,0.3-2.2"/>
			</g>
			<g>
				<path d="M1502.6,514.2c0.4,0.5,1.9,0.4,2.6,0.4c1.2,0,2.4-0.3,3.7-0.1c0.9,0.1,1.4,0.4,2.1,0.8c0.5,0.3,1.5,0.4,1,1
					c-0.2,0.2-0.4,0.5-0.5,0.8c-0.1,0.3,0,0.3-0.4,0.4c-0.7,0.1-1.4-0.3-2-0.5c-0.5-0.2-1.1-0.5-1.7-0.6c-0.4-0.1-0.8-0.1-1.3-0.1
					c-0.6,0-1.3,0-1.9-0.1c-0.5-0.1-1.3-0.4-1.7-0.7C1502.5,515.2,1502.4,514.4,1502.6,514.2"/>
			</g>
			<g>
				<path d="M1495.6,545.2c-0.5,0.3-0.4,0.8-0.3,1.4c0.1,0.7,0.6,0.6,0.7,1.1c0.2,0.5,0.6,2.9,1,1.1c1,0.6,1.3,0.6,2.5,0.8
					c0.5,0.1,2.1,1.2,1.4-0.5c2.2,0.9,0.8-0.3,1.9-1.4c0.3-0.4,1.1-0.3,1.6-0.7c0.3-0.3,0.4-1.2,0.6-1.6
					C1502,546.1,1498.6,546.6,1495.6,545.2"/>
			</g>
			<g>
				<path fill="#3A3A3A" d="M1511.8,545.2c2.9-1.5,6.3-1.6,9.2-3.2c4.2-2.4,4.9-7.5,5.1-13c-1.5,1.4-1.9,5.3-3.2,7.5
					c-1.3,1.8-2.8,3-4.3,4.1c-1.4,1-7.9,2.9-7.7,4.6H1511.8z"/>
			</g>
			<path d="M1491.9,513.1c0,0,2.3,1.1,3.9,0.8l1.2,0.7l-0.5,0.8h-2l-2.6-0.4l-0.4-1.2L1491.9,513.1z"/>
			<g>
				<path fill="#FFFFFF" d="M1505,517.8c-1.3,0.7-3.1,1.4-1,3.6c0.6,0.6,5.7,1.2,6.5,1C1514.2,521.4,1508.2,515.7,1505,517.8"/>
			</g>
			<g>
				<path fill="#FFFFFF" d="M1496.4,516.8c0.7,0.8,1.7,1.7,0,2.9c-0.5,0.3-3.8-0.4-4.2-0.7C1490.1,517.3,1494.8,514.6,1496.4,516.8"
					/>
			</g>
			<path d="M1507.6,519.6c0,1.3-0.9,2.3-2,2.3c-1.1,0-2-1-2-2.3c0-1.3,0.9-2.3,2-2.3C1506.7,517.3,1507.6,518.4,1507.6,519.6z"/>
			<ellipse cx="1493.9" cy="517.8" rx="1.4" ry="1.9"/>
			<polygon fill="#FFFFFF" points="1495.1,534.7 1499.8,534 1508.4,531.2 1504.7,536.5 1495.9,536.6 			"/>
		</g>
		<g id="plane_x5F_3">
			<polygon fill="#D16586" points="1322.1,623.8 1400.3,626.8 1413.4,637.6 			"/>
			<polygon fill="#BEEF8F" points="1322.1,623.8 1400.3,626.8 1390.8,644.4 			"/>
			<polygon fill="#ED9FB5" points="1322.1,623.8 1397.8,622.9 1390.8,644.4 			"/>
			<polygon fill="#D16586" points="1322.1,623.8 1397.8,622.9 1380.7,606.2 			"/>
		</g>
		<g id="plane_x5F_1">
			<polygon fill="#D6FF9E" points="1413.4,514.7 1347,490.9 1341.6,476.1 			"/>
			<polygon fill="#BAD394" points="1413.4,514.7 1337.4,505.6 1347,490.9 			"/>
			<polygon fill="#FFD64B" points="1413.4,514.7 1347.5,493.5 1337.4,505.6 			"/>
			<polygon fill="#D6FF9E" points="1347.5,493.5 1351.7,516.1 1413.4,514.7 			"/>
		</g>
		<path id="plane_x5F_rope_x5F_1" d="M1369.6,441.7c-1.3,19.4-0.7,38.9-0.7,58.3c0,1,1.5,1,1.5,0c0-19.5-0.6-38.9,0.7-58.3
			C1371.1,440.7,1369.6,440.7,1369.6,441.7L1369.6,441.7z"/>
		<g id="plane_x5F_2">
			<polygon fill="#9991CE" points="1444,560.8 1339.9,549.3 1327,563.2 			"/>
			<polygon fill="#BAFFFA" points="1444,560.8 1339.9,549.3 1342.7,571.4 			"/>
			<polygon fill="#9991CE" points="1444,560.8 1345.1,545.7 1342.7,571.5 			"/>
			<polygon fill="#BAFFFA" points="1345.1,545.7 1444,560.8 1361.2,563 			"/>
		</g>
		<g id="bonsai">
			<polygon fill="#443415" points="1306.6,734.8 1308.3,723.4 1306.6,716.1 1301.8,703 1292.2,695.4 1285.6,688.4 1282.3,689.5 
				1282.3,689 1285.5,687.7 1289.2,690.9 1290.4,687.7 1290,680.2 1291.5,677.6 1291.9,677.6 1290.5,680.3 1290.9,687.7 
				1290.3,689.5 1289.7,691.4 1290.6,692.6 1293.7,695.6 1296.4,697.5 1299,698.9 1302.2,700.8 1303.6,700.8 1306,699.5 1307.2,698 
				1306.5,693.7 1305.7,690.9 1303.1,687.7 1300.5,685.3 1300.2,682.9 1300.4,682.8 1300.8,685.1 1303.3,687.4 1305.8,690.5 
				1306.6,691.8 1307.2,691.2 1309.3,690.4 1312.2,689.5 1313.6,688.6 1313.6,688.8 1312.3,689.8 1309.4,690.9 1307.4,691.8 
				1307,692.4 1307.1,693.9 1307.7,695.4 1308,697 1308.7,698.1 1308.1,700.2 1305.5,701.4 1305.2,702.2 1304.1,704.1 1305.7,708 
				1306.8,709.6 1308.6,709.4 1311.4,708.2 1316.1,706.2 1318.5,704.7 1319.9,700.8 1320.6,696.2 1320.6,693 1323.2,690.9 
				1324.8,690.4 1324.1,688.7 1324.4,688.5 1325.2,690.2 1325.5,690.5 1326.6,690.4 1327.1,690.5 1327.8,690.9 1327.8,691.1 
				1327.1,690.8 1326.2,690.9 1325.5,691 1324.3,691.1 1322.8,692 1321.9,692.8 1321.3,693.7 1321.4,695.2 1321.4,696.3 
				1321.2,698.1 1320.9,700.1 1320.9,702.1 1320.2,704.7 1318.6,708 1314.8,709.5 1310.6,712.3 1310.1,714.3 1311,717.9 
				1312.3,720.1 1313.1,723.6 1313.4,725.9 1314,727.5 1313.9,735.3 			"/>
			<g>
				<path fill="#B75925" d="M1344.3,744h-65c-1.6-3.1-5.8-14.5-5.8-14.5h75.9C1349.4,729.5,1345.5,741.1,1344.3,744z"/>
			</g>
			<circle fill="#009E01" cx="1283.5" cy="689.8" r="1.2"/>
			<circle fill="#009E01" cx="1286" cy="687.7" r="1.3"/>
			<circle fill="#009E01" cx="1290.8" cy="686.9" r="1.3"/>
			<circle fill="#009E01" cx="1290" cy="680.2" r="1.1"/>
			<circle fill="#009E01" cx="1292.1" cy="696.4" r="1.3"/>
			<circle fill="#009E01" cx="1300.5" cy="685.8" r="1.2"/>
			<circle fill="#009E01" cx="1313.1" cy="690" r="1"/>
			<circle fill="#009E01" cx="1303.2" cy="686.9" r="1.3"/>
			<circle fill="#009E01" cx="1310.7" cy="690.3" r="0.9"/>
			<circle fill="#009E01" cx="1309.6" cy="698.8" r="1.2"/>
			<circle fill="#009E01" cx="1306.1" cy="699.5" r="1.1"/>
			<circle fill="#009E01" cx="1301.3" cy="703.6" r="1.3"/>
			<circle fill="#009E01" cx="1317.9" cy="708.9" r="1.6"/>
			<circle fill="#009E01" cx="1318" cy="704.4" r="1.2"/>
			<circle fill="#009E01" cx="1321.6" cy="702.6" r="1.4"/>
			<circle fill="#009E01" cx="1322.5" cy="690.9" r="0.9"/>
			<circle fill="#009E01" cx="1326.8" cy="691.2" r="1"/>
			<circle fill="#009E01" cx="1325.1" cy="689.5" r="0.8"/>
		</g>
	</g>
	<g id="strategy_x5F_in">
		<g>
			<path fill="#E5D295" d="M407.7,695.5c-0.5-2.1-0.7-4.5-1.1-6.8c-2.1-15.8,0-28.5,2.9-43.5c1.4-7.2,1.4-14.8,2.1-22.4
				c0.7-4.5,3.4-8.4,6.6-11.8c4.2-4.5,7.4-3.1,13.3-3.1l5.3,2.1c-3.5,18.8-7,37.3-10.2,55.8c-2.1,12.3-0.3,24-1.1,36
				C425.5,701.6,409.2,702.2,407.7,695.5z"/>
		</g>
		<g>
			<path fill="#E5D295" d="M395.5,713.3c0.5,6-1,13.3,0.8,19c1.8,6.3,10.5,5.8,16,6.5s11,1.5,16.3,3c3.8,1,6.3,1.8,7.3,5.8
				c0.8,2.8-0.5,5.3,2,8c6.3,6.3,20.3-3,27-4.8l2.9-2.1c0-3-0.3-6-0.7-9c-1-7.3-3.7-14.7-4.7-22C460.7,706,456.7,704,446,701
				c-14.7-4-29.2-10.2-44.8-9.5L395.5,713.3z"/>
		</g>
		<g>
			<path fill="#40001E" d="M352.7,605.9c0,0-6,1.3-13.7,8c-7.3,6-15.2,17.3-18.7,26.3c-4.8,12-13,21.8-16.3,34.3
				c-2.5,9-5.8,19-4.3,28.8c1.5-2.5,2.8-3.8,5-5.8c2-1.8,3.5-4.5,5.8-6.5c4-3.5,10.3-3.5,15.3-3.8c12.3-0.8,22.8,6,34.8,6
				c4.3,0,5.8,0,7-4c1.8-5.3-1.5-5.3-2-9.8c-0.8-6.5,5.3-13.3,8.8-18c4-5.5,10.3-9,15.3-13.3c6.8-5.5,10-10.8,13.3-18.8L352.7,605.9
				z"/>
		</g>
		<g>
			<path fill="#E5D295" d="M352,700.7c-6.8-17.1-48.6-17.1-56.7-1.3c-10,19,10.9,43.5,28.1,46.3c14.5,2.8,28.1,2.8,32.6-12.5
				c2.7-8.8,5-21.8-2.3-29.2L352,700.7z"/>
		</g>
		<g>
			<path d="M297,686c7.5-8.3,22.3-10.3,32.8-9c11,1.5,19,11.5,30.8,11.8c4.5,0,3.5-1.9,7.2-3.9c6.5,0.9,18.2,3,23.4,3.4
				c6.5,0.5,14.2,3.4,15.7,3.4c-1.4,0.9-4.8,7.4-4.1,13.4c0.8,4.8,3,11,2,14.3c-1,2.5-1,6-3,8.3c-4.3,5-13.3,4-19,6
				c-3.3,1-7.5,2.3-10.5,3.5c-4,1.5-15.5,4.8-10.3-4.3c3.5-5.8,2.8-11.5,2.8-18.3c0-2.3-6.6-2.3-8-4.4c-1.7-2.5-0.6-2.8-2.6-5.5
				c-4-6.5-5.6-10.4-12.8-12.9c-9.3-3-21.1-5.4-30.3-2.6c-8.1,2.5-12.5,4.8-16.2,12.9c-0.5,5.8-1.4,12.9,0.9,18.1
				c2.5,5.8,6.6,10.8,10.9,15.3c2.3,2.8,7,5.5,10,7.3c3,2,3.8,1.9,6.8,1.2c-10.4,6.5-27.9-18.2-30.7-24.2c-2.5-6-3.4-27.4,3.1-32.2
				L297,686z"/>
		</g>
		<g>
			<path fill="#E5D295" d="M343.7,705.6c39.8,3.3,42.9,20.5,61.1,23.9c7,1.3,10.7-2,17.3,0.6c9.7,4.2,16.3,10.9,22.5,19.3
				c3.9,5,4.3,6.3-1.9,8.8c-4.3,1.7-8.1,1.7-12-0.8c-9.3-5.4-14.6-9.6-25.8-11.7c-11.6-2.1-24.9-0.2-36.9-0.2
				c-9.7,0-24-0.7-32.9-4.4L343.7,705.6z"/>
		</g>
		<g>
			<path fill="#E5D295" d="M331.7,592.3c-3.3,2-5,8.3-7.3,11.7c-3.3,4.3-6.7,9-10.3,12.7c-5.7,6.7-9.3,12.3-11.3,20.7
				c-2,7-7.3,15,0.3,19.3c7.3,4,16.3,5.3,24.3,6.3c15.7,2,32,3.7,47.3,6.7c11.3,2.3,7.3,13.3,15,19.3c3.3,2.7,10,6.3,13.3,3
				c2.3-2.3-1.5-9.5-2.5-12.2c-3.3-6.7-8.8-16.5-15.5-19.5c-7.3-3.7-15.3-4.3-22.7-7.7c-7.3-3-13.7-7-21.3-9.3
				c-4-1.3-8.6-2.7-11.8-2.7c1-5.9,4.1-10.6,5.8-13c6.3-8.3,17-13.7,18.7-24.7c1.7-13.3-11.1-12.3-19.4-10.7L331.7,592.3
				L331.7,592.3z"/>
		</g>
		<g>
			<path fill="#40001E" d="M390.3,567c-9.3,3-20.3,0.4-30.3,2c-6.3,1.3-12.7,5.3-17.7,9.7c-6,5-10.3,12-15,18.3
				c-4,6-5.4,6.9-8.1,13.2c6.3,1.7,19.8,4.1,22.1,11.1c4.7-3.3,4-6.9,10.3-3.3c6,4,6,12.7,12,17c8.3,5.7,13.7-1.8,21.7-0.1
				c3.3,7.5,6.3,9.1,10.6,9.1c4.8,0.1,11.8,0.3,18-4.8c8.4-6.7,5.7-11.3,6.7-19.9c0.5-4.2,0.4-3,1.1-5.1c4.6-1,13.2,3.1,14,3.2
				c6-21.5,1.4-31.1-1-36.2c-2.5-5.3-5.6-5.4-9.1-4.6c2.5,10-7.5,12.2-19,13.6c-6.7-1.7-3.3-1.6-7-6.6c-2.3-3-4.7-4-6-8
				c-1-2.3-1.3-6.7-2-9.4L390.3,567z"/>
		</g>
		<g>
			<path fill="#E5D295" d="M400.7,689.8c0.1,2.5-1,5.8-2.1,8c-1.6,3.6-4.9,4.1-8.5,4c-3-0.1-5.6-0.6-8-2.5c-2-1.6-4.9-5.5-4.5-8.3
				c1.5-0.3,2.9,0.1,4.3-0.5c2.1-1,3.4-3.5,5.4-4.6c4.1-2.3,8.3-0.4,12,1.5L400.7,689.8z"/>
		</g>
		<g id="chess_x5F_board">
			<rect x="389.2" y="716.8" fill="#353229" width="163" height="28.2"/>
			<g>
				<path d="M416,714.3v2.4h-9.2V701h2.9v13.3H416z"/>
				<path d="M431.7,708.9c0,1.2-0.2,2.2-0.6,3.2c-0.4,1-0.9,1.8-1.6,2.5c-0.7,0.7-1.5,1.3-2.5,1.7c-1,0.4-2.1,0.6-3.3,0.6
					s-2.3-0.2-3.3-0.6c-1-0.4-1.8-1-2.5-1.7c-0.7-0.7-1.2-1.6-1.6-2.5c-0.4-1-0.6-2-0.6-3.2c0-1.2,0.2-2.2,0.6-3.2
					c0.4-1,0.9-1.8,1.6-2.5c0.7-0.7,1.5-1.3,2.5-1.7s2.1-0.6,3.3-0.6c0.8,0,1.5,0.1,2.3,0.3s1.3,0.4,1.9,0.8
					c0.6,0.3,1.1,0.7,1.6,1.2s0.9,1,1.2,1.6c0.3,0.6,0.6,1.2,0.7,1.9C431.6,707.4,431.7,708.1,431.7,708.9z M428.7,708.9
					c0-0.9-0.1-1.6-0.3-2.3c-0.2-0.7-0.6-1.3-1-1.7c-0.4-0.4-0.9-0.8-1.6-1.1s-1.3-0.4-2.1-0.4s-1.5,0.1-2.1,0.4
					c-0.6,0.3-1.1,0.6-1.6,1.1c-0.4,0.5-0.8,1.1-1,1.7c-0.2,0.7-0.3,1.5-0.3,2.3c0,0.9,0.1,1.6,0.3,2.3s0.6,1.3,1,1.7
					c0.4,0.5,1,0.8,1.6,1.1c0.6,0.3,1.3,0.4,2.1,0.4s1.5-0.1,2.1-0.4c0.6-0.3,1.1-0.6,1.6-1.1s0.8-1.1,1-1.7
					C428.6,710.5,428.7,709.8,428.7,708.9z"/>
				<path d="M451.8,716.8h-2.6c-0.5,0-0.9-0.2-1.1-0.6l-3.3-5c-0.1-0.2-0.3-0.3-0.4-0.4c-0.1-0.1-0.4-0.1-0.7-0.1h-1.3v6.1h-2.9V701
					h4.8c1.1,0,2,0.1,2.7,0.3c0.8,0.2,1.4,0.5,1.9,0.9c0.5,0.4,0.8,0.9,1.1,1.4c0.2,0.6,0.3,1.2,0.3,1.8c0,0.5-0.1,1-0.2,1.5
					c-0.2,0.5-0.4,0.9-0.7,1.3c-0.3,0.4-0.7,0.7-1.1,1c-0.4,0.3-0.9,0.5-1.5,0.7c0.2,0.1,0.4,0.2,0.5,0.4c0.2,0.1,0.3,0.3,0.4,0.5
					L451.8,716.8z M444.2,708.5c0.5,0,1-0.1,1.4-0.2c0.4-0.1,0.8-0.3,1-0.6c0.3-0.2,0.5-0.5,0.6-0.9c0.1-0.3,0.2-0.7,0.2-1.1
					c0-0.8-0.3-1.4-0.8-1.8c-0.5-0.4-1.3-0.6-2.4-0.6h-1.9v5.2H444.2L444.2,708.5z"/>
			</g>
			<g>
				<path fill="#FFFFFF" d="M521.5,714.2c0.6,0,1.1-0.1,1.5-0.3c0.4-0.2,0.8-0.5,1.1-0.8c0.3-0.3,0.5-0.8,0.7-1.2
					c0.2-0.5,0.2-1,0.2-1.6v-9.4h2.9v9.4c0,0.9-0.2,1.8-0.5,2.6c-0.3,0.8-0.7,1.5-1.3,2.1c-0.6,0.6-1.2,1-2,1.3
					c-0.8,0.3-1.7,0.5-2.7,0.5s-1.9-0.2-2.7-0.5s-1.5-0.8-2-1.3c-0.6-0.6-1-1.3-1.3-2.1c-0.3-0.8-0.5-1.7-0.5-2.6v-9.4h2.9v9.4
					c0,0.6,0.1,1.1,0.2,1.6c0.2,0.5,0.4,0.9,0.7,1.2c0.3,0.3,0.7,0.6,1.1,0.8C520.4,714.1,520.9,714.2,521.5,714.2z"/>
				<path fill="#FFFFFF" d="M550.7,700.9v15.7h-2.6v-10.2c0-0.4,0-0.8,0.1-1.3l-4.8,8.9c-0.2,0.4-0.6,0.6-1,0.6H542
					c-0.5,0-0.8-0.2-1-0.6l-4.8-9c0,0.2,0,0.5,0.1,0.7c0,0.2,0,0.4,0,0.6v10.2h-2.6v-15.7h2.2c0.1,0,0.2,0,0.3,0
					c0.1,0,0.2,0,0.3,0.1c0.1,0,0.1,0.1,0.2,0.1c0.1,0.1,0.1,0.2,0.2,0.3l4.7,8.7c0.1,0.2,0.2,0.5,0.3,0.7c0.1,0.2,0.2,0.5,0.3,0.8
					c0.1-0.3,0.2-0.5,0.3-0.8s0.2-0.5,0.3-0.7l4.6-8.7c0.1-0.1,0.1-0.2,0.2-0.3c0.1-0.1,0.1-0.1,0.2-0.1c0.1,0,0.2,0,0.3-0.1
					c0.1,0,0.2,0,0.3,0h2.3V700.9z"/>
			</g>
			<g>
				<path d="M456.7,709.2v2.5h3.1v1.3h-3.1v2.5h3.9v1.3H455V708h5.6v1.3L456.7,709.2L456.7,709.2z"/>
				<path fill="#FFFFFF" d="M477.6,707.9v8.8h-1.4V711c0-0.2,0-0.5,0-0.7l-2.7,5c-0.1,0.2-0.3,0.4-0.6,0.4h-0.2
					c-0.3,0-0.5-0.1-0.6-0.4l-2.7-5c0,0.1,0,0.3,0,0.4c0,0.1,0,0.3,0,0.4v5.7H468V708h1.2c0.1,0,0.1,0,0.2,0c0.1,0,0.1,0,0.1,0
					s0.1,0,0.1,0.1l0.1,0.1l2.6,4.9c0.1,0.1,0.1,0.3,0.2,0.4s0.1,0.3,0.2,0.4c0.1-0.2,0.1-0.3,0.2-0.4c0.1-0.1,0.1-0.3,0.2-0.4
					l2.6-4.9c0-0.1,0.1-0.1,0.1-0.1l0.1-0.1h0.1c0.1,0,0.1,0,0.2,0L477.6,707.9L477.6,707.9z"/>
			</g>
			<g>
				<path fill="#FFFFFF" d="M491.3,716.6h-1.7v-8.8h1.7V716.6z"/>
				<path d="M497,707.9c0.6,0,1.1,0.1,1.5,0.2c0.4,0.1,0.8,0.3,1.1,0.6c0.3,0.3,0.5,0.5,0.6,0.9c0.1,0.3,0.2,0.7,0.2,1.1
					c0,0.4-0.1,0.8-0.2,1.2c-0.1,0.4-0.4,0.7-0.6,0.9c-0.3,0.3-0.6,0.5-1.1,0.6c-0.4,0.1-0.9,0.2-1.5,0.2h-1.2v3.1h-1.6v-8.8H497z
					 M497,712.4c0.3,0,0.6,0,0.8-0.1c0.2-0.1,0.4-0.2,0.6-0.3c0.1-0.1,0.3-0.3,0.3-0.5s0.1-0.4,0.1-0.7c0-0.2,0-0.5-0.1-0.6
					c-0.1-0.1-0.2-0.4-0.3-0.5c-0.1-0.1-0.3-0.2-0.6-0.3c-0.3-0.1-0.5-0.1-0.8-0.1h-1.2v3.2L497,712.4L497,712.4z"/>
				<path fill="#FFFFFF" d="M511.1,709.4c0,0.1-0.1,0.1-0.2,0.2c-0.1,0-0.1,0.1-0.2,0.1c-0.1,0-0.2,0-0.3-0.1
					c-0.1-0.1-0.2-0.1-0.4-0.2c-0.1-0.1-0.3-0.1-0.5-0.2c-0.2-0.1-0.4-0.1-0.7-0.1c-0.2,0-0.4,0-0.6,0.1c-0.2,0.1-0.3,0.1-0.4,0.2
					c-0.1,0.1-0.2,0.2-0.3,0.4c-0.1,0.1-0.1,0.3-0.1,0.4c0,0.2,0.1,0.4,0.2,0.5c0.1,0.1,0.3,0.3,0.5,0.4c0.2,0.1,0.4,0.2,0.7,0.3
					c0.3,0.1,0.5,0.2,0.8,0.2c0.3,0.1,0.5,0.2,0.8,0.3c0.2,0.1,0.5,0.3,0.7,0.4c0.2,0.2,0.3,0.4,0.5,0.7c0.1,0.3,0.2,0.6,0.2,0.9
					c0,0.4-0.1,0.8-0.2,1.1c-0.1,0.3-0.3,0.7-0.6,0.9c-0.3,0.3-0.6,0.5-1,0.6s-0.8,0.2-1.3,0.2c-0.3,0-0.6,0-0.8-0.1
					c-0.3-0.1-0.5-0.1-0.8-0.2c-0.3-0.1-0.5-0.2-0.7-0.4c-0.2-0.1-0.4-0.3-0.6-0.5l0.5-0.8c0-0.1,0.1-0.1,0.2-0.1s0.1-0.1,0.2-0.1
					c0.1,0,0.2,0,0.3,0.1c0.1,0.1,0.3,0.2,0.4,0.3c0.2,0.1,0.4,0.2,0.6,0.3s0.5,0.1,0.8,0.1c0.5,0,0.8-0.1,1.1-0.3
					c0.3-0.2,0.4-0.5,0.4-1c0-0.2-0.1-0.4-0.2-0.6c-0.1-0.1-0.3-0.3-0.5-0.4c-0.2-0.1-0.4-0.2-0.7-0.3c-0.2-0.1-0.5-0.1-0.7-0.2
					c-0.3-0.1-0.5-0.2-0.7-0.3s-0.5-0.3-0.7-0.4c-0.2-0.2-0.3-0.4-0.5-0.7c-0.2-0.3-0.2-0.6-0.2-1c0-0.3,0.1-0.6,0.2-0.9
					c0.1-0.3,0.3-0.6,0.6-0.8c0.2-0.2,0.5-0.4,0.9-0.6c0.4-0.1,0.8-0.2,1.2-0.2c0.5,0,1,0.1,1.4,0.2c0.4,0.2,0.8,0.4,1.1,0.7
					L511.1,709.4z"/>
			</g>
		</g>
		<g>
			<path fill="#E5D295" d="M401,687.8c-2.5,2.7,1.5,6,1,9.2c-0.6,3.4-3,5.7-2.5,9.4c0.2,1.2,0.6,3.2,1.7,1.6
				c0.6-0.7,0.6-1.9,0.8-2.7c0.3-1.1,0.7-2.1,1.4-3c0.7-0.9,1.8-1.6,2.3-2.7c1.6-4-2.3-7.7-2.1-11.5L401,687.8z"/>
		</g>
		<path fill="none" stroke="#000000" stroke-width="0.5" stroke-miterlimit="10" d="M406.1,688.5"/>
		<g id="anam_x5F_face">
			<g>
				<path fill="#3A3A3A" d="M464.3,535.6c2.6,6.2,3.2,16.5,1.5,22.4c-1,3.1-3.4,5.9-5.8,8c-1.3,1.1-2.8,2-3.5,3.5
					c-1,2-0.6,2.9-2.6,4.1c-2.6,1.6-4.8,2.4-6.4,5.1c-1.4,2.3-1.6,4.4-2.5,6.8c-1.6-2-3-4.6-2.9-7.4c0.1-2.6,1.6-5,1.5-7.8
					c-0.1-4-1.3-6.5,2.4-9.6c1.9-1.6,4.6-2.3,6.1-4.3c1.1-1.5,1.3-3.6,1.9-5.4c1.5-4,2.9-7.5,6.5-10L464.3,535.6z"/>
			</g>
			<path fill="#3A3A3A" d="M421.6,531.9c0,0-4.8,19.2-6.9,18.6c-2.1-0.6-4.7,3.2-4.7,3.2l-2.5-7.4l2.5-13L421.6,531.9z"/>
			<g>
				<path fill="#E5D295" d="M429.3,567.5c-1,2.7-2.3,5.2-3.2,7.8c-0.2,0.7-0.7,1.5-0.7,2.3c-0.2,1.5,1.2,2.5,1.2,3.8
					c-0.2,5.3-8.8,8.8-13,9.2c-7.3,0.7-15.5-2.3-22.2-5.8c-4.8-2.5-9.8-6.3-11-12c-0.2-0.8-0.7-3.8-0.2-4.5c0.7-0.7,5.2-0.2,6.2-0.3
					c3.7-0.3,7-1,10.3-2.5c8.8-4.2,13.3-12,18.7-19.7c1.5-2,2.5-5.3,5-3.5s4,7.5,5,10.5c1.5,3.8,2.5,8,3.7,11.8L429.3,567.5z"/>
			</g>
			<g>
				<path fill="#E5D295" d="M418.8,531.7c0.2,4-2,7.8-2.5,11.8c-0.7,5-0.7,9.7,1,14.7c1.5,4.5,3.3,10.7,8.5,11.7
					c4.5,0.7,8,0.8,12.5-0.7c6.8-2.2,13.7-4.7,17.9-12c1.5-3.5,2.6-7,3.9-10.7c1.3-4,4.3-7.3,4.8-11.5c1-9.5-6-17.5-15.5-18.2
					c-7-0.5-16,1.8-22,5.8C424.7,524.5,418.8,531.7,418.8,531.7z"/>
			</g>
			<g>
				<path fill="#3A3A3A" d="M462.3,525.5c-1.5-5.3-15.3,0.5-19.8-0.3c-3.3-0.5-7.5-1.8-10.5,1c-2.8,2.5-1.5,7.3-5.5,9
					c-4.3,1.5-11.8-3.3-13.8,3.3c-0.8,2.8,1.5,5.8,0.3,8.8c-1.3,3.5-4.3,3.8-7.5,4.3c-2.5,0.5-5.5,0.3-7,3c-1,1.8,0,5-1,7
					c-1.8,4-3,5.8-6.3,8c-2.5,2.3-1.2,6.9-3.9,8.2c2.3-1.5-0.9-5.8-0.9-7.8c0.3-5.8,2.6-8.7,1.8-14.7c-0.5-2.5-3-5.8-2-8.3
					c1.8-4.3,7.8-2,7-8.3c-0.5-4-2.5-4.8-1.5-9c0.5-2.8,0.5-5.3,1-8.5c1-7,8.5-7.3,14.5-7.3c1.8,0,5.5,0.8,7.3-0.3
					c3-1.8,2.3-5.5,6.5-6.8s10.6-1.3,15.1-0.5c11.8,1.8,31.9,3,28.7,22.9L462.3,525.5z"/>
			</g>
			<path d="M461,545.3c0,0-0.2,1.7-1.1,1c0,0-1.6-3.9-4.8-3.1c0,0-0.9-0.9,0.3-1.8C456.6,540.5,460.1,543.3,461,545.3z"/>
			<path d="M448.4,536.3c0,0-0.1,1.6-1.7,1.1c0,0-3.8-4-8.9-2.4c0,0-3.2-0.3-1.3-1.4C441,530.8,447,534.3,448.4,536.3z"/>
			<g>
				<path d="M445.3,543.9c-0.8-6.1-7.5-9.2-13.1-8.1c-0.2,0-0.3,0.3-0.3,0.5c0.6,1.7,2.7,2.5,4.1,3.4c2.8,1.7,5.6,3.1,8.6,4.4
					c0.4,0.2,0.8-0.4,0.4-0.6c-4-1.8-8.5-3.7-11.9-6.6c-0.6-0.5,3.7-0.2,3.5-0.2c0.9,0.2,1.8,0.5,2.7,0.8c2.8,1,4.9,3.5,5.3,6.5
					C444.6,544.4,445.3,544.4,445.3,543.9L445.3,543.9z"/>
			</g>
			<g>
				<path d="M452.1,547.1c1.1,1.6,2.8,2.8,4.3,4c0.3,0.2,1.1,0.8,1.6,0.6c0.5-0.1,0.8-1,1-1.4c2.1-3.6-4.5-4.3-6.7-4
					c-0.1,0-0.2,0.1-0.3,0.3c0,0.1,0,0.2-0.1,0.3c-0.1,0.5,0.6,0.7,0.7,0.2c0.1-0.3,7.5-0.4,5.4,3.2c-0.1,0.2-0.2,0.4-0.3,0.6
					c-0.2,0.3,0,0.1-0.4,0c-0.7-0.3-1.3-0.8-1.9-1.3c-1.1-0.9-2.1-1.6-2.9-2.7C452.5,546.4,451.8,546.7,452.1,547.1z"/>
			</g>
			<path d="M437.9,540.2c0,0,2.5-1.5,3.6-0.8c1.1,0.7,1.5,1.1,2,2.1s0.2,1.7,0.2,1.7L437.9,540.2z"/>
			<path d="M455,549c0,0,3.4-0.6,3.6,0.5c0.2,1.1-0.7,1.7-0.7,1.7S454.9,550.2,455,549z"/>
			<g>
				<path fill="#FFFFFF" d="M442.4,561.9c0.4,0.9-1.3,1-1.6,1.8c-3.9-4.8-16.8-5-13.9-14.1c1.1,3.8,3.1,4.9,6.8,6.1
					c3.9,1.3,5.6,1.1,7.8,4.6L442.4,561.9z"/>
			</g>
		</g>
	</g>
	<g id="test">
	</g>
</g>
<g id="Plane_x5F_to_x5F_animate_1_">
</g>
<g id="plane_x5F_path_x5F_indoor_x28_start_x29_">
</g>
<g id="plane_x5F_path_x5F_indoor_x5F_2">
</g>
<g id="plane_x5F_path_x5F_indoor_x5F_3">
</g>
<g id="wall_x5F_fill">
	<path id="wall_x5F_fill_x5F_3" fill="#E5E5B5" d="M1920,257H0v704h1920.1L1920,257z M645,760.6H280V426.7h365V760.6z M1608.7,760.6
		h-365V426.7h365V760.6z"/>
</g>
<g id="wall_x5F_frames">
	<rect x="630.1" y="257" fill="#CCD9ED" width="38.1" height="525.1"/>
	<rect x="256.8" y="257" fill="#CCD9ED" width="38.1" height="704"/>
	<rect x="1593.9" y="257" fill="#CCD9ED" width="38.1" height="525.1"/>
	<rect x="1220.5" y="257" fill="#CCD9ED" width="38.1" height="704"/>
	<polyline fill="#CCD9ED" points="1920,406 0,406 0,444.1 1920.1,444.1 	"/>
	<rect y="744" fill="#CCD9ED" width="1920" height="38.1"/>
</g>
<g id="Plane_x5F_path_x5F_outdoor">
</g>
<g id="ground_x5F_roof">
	<rect id="ground_x5F_fill_2_" y="941" fill="#353229" width="1920" height="139"/>
	<polygon id="roof_x5F_3" fill="#353229" points="1920.1,257 0,257 0,137.8 1920,137.8 	"/>
</g>
<g id="doors">
</g>
<g id="Bicycle_x5F_delivery">
</g>
<g id="characters_x5F_outdoor_x5F_fills">
	<g id="cat_x5F_content">
		<g>
			<path fill="#B86700" d="M621.4,740.7c-0.3,4.2,2.7,8.8,4.3,12.5c1.7,4,3.5,7.8,4.5,12c1.8,8.5,1.5,17.2,2.8,25.7
				c0.2,0.8,1,4.7,0.3,5.3c-1.7,1.8-3.3-2.3-3.8-3.5c-0.8-3-1-6-1.2-9c-0.5-7.2-2.2-14-4.3-20.7c-1.7-5.2-5.2-9.3-6.7-14.3
				c-0.8-2.2-1.7-4.7-1.5-7c0.2-1.7,3.2-6.5,4.3-3.2L621.4,740.7z"/>
		</g>
		<g>
			<path fill="#B86700" d="M575.3,669c-6,1.8-11.3,10.3-16.3,14c-4.3,3-12.3,4.8-10,12c5.3,2.9,6.1-1.6,8.8-3.8c2-1.8,4-2.7,6.5-3.5
				c2.8-0.8,13.9-5,14.2-0.2c0.3,2-5.3,7.5-6.3,9.5c-1.3,2.3-4.8,6-4.8,8.5c-0.3,6.8,8.6,3.9,8.9-2.1c2,5.5,4.6,8.1,2.1,13.8
				c-1.3,3-2,5.5-2,8.8s0.3,6,2,9c1.5,2.8,3.3,2.8,1.5,5c-1,1-3.7,3-5,4c2.5,0.8,7.6,0,10.6,0l30.4,0.1c1.8,0.3,3.5,2.1,5,0.8
				c1.8-1.3,0.5-1,0.8-3c0.3-1.8,0.5-4.3,0.8-6.3c0.5-4.8-0.8-12.3-4.3-15.8c-2.5-3-7-4.3-7.8-8.3c-0.5-2,0.8-5.3,0.8-7.5
				c0-4.8,0-9.3,0-14c0-9.3-1.5-18.3-2.3-27.5c-1-11,7.1-22.3,5.3-34c0.3-2.5,1.4-8.6-1.5-10c-2.5,0.3-3,3.3-4.5,4.5
				c-2.3,2-1.8,1.8-4.8,1.8c-2,0-4.8,0.3-6.8-0.3c-2.8-0.8-5.3-5.8-7.5-5.8c0.8,6.3,4.7,4.9,0.2,11.2c-4,5.8-1.8,7.1,0.3,12.3
				c0.8,6.5-2,9.3-6,13.3c-3.5,3.5-4.5,7.5-7,11.3L575.3,669z"/>
		</g>
		<g>
			<path fill="#FFFFFF" d="M598.2,631.8c0.8-1.9,3.1-2.7,4.7-1.2c1.1,1.1-0.6,1.9-1.7,2.2c-0.9,0.1-1.8,0-2.4-0.5L598.2,631.8z"/>
		</g>
		<g>
			<path fill="#FFFFFF" d="M590.7,632.1c1.1,1.1,2.9-1.2,2.2-2.1c-0.3-0.3-1.5-0.4-1.9-0.3c-0.7,0.4-0.9,1.1-0.5,1.7L590.7,632.1z"
				/>
		</g>
		<path fill="#493C2E" d="M591.1,640.3c0.2-0.3,0.5-0.6,0.8-0.9c0.3-0.3,1.3,0.3,1.5,0.5c0.7,0.5,1.7,0.6,2.6,0.5
			c0.5,0,0.7-0.6,0.2-0.6c-1.5,0.1-2.6-0.9-3.9-1.3c-0.8-0.2-1.4,0.8-1.8,1.3S590.8,640.7,591.1,640.3L591.1,640.3z"/>
		<path fill="#493C2E" d="M592.3,638.9c0.1-0.7,0-1.5-0.3-2.2c-0.1-0.2-0.2-0.4-0.3-0.6c-0.1-0.1-0.9-0.9-0.5-1
			c0.2-0.1,1.4,0.1,1.4,0.1c-0.2,0.4-0.8,0.7-1,1.1c-0.3,0.4,0.4,0.8,0.6,0.4c0.3-0.5,1.4-0.9,1.1-1.7c-0.2-0.7-1.2-0.6-1.8-0.6
			c-0.5,0-1.5,0.4-1.3,1.1c0.1,0.4,0.5,0.7,0.8,1.1c0.5,0.6,0.5,1.7,0.5,2.4C591.5,639.4,592.3,639.4,592.3,638.9L592.3,638.9z"/>
	</g>
	<g id="Proto-type">
	</g>
</g>
</svg>
