<?xml version="1.0" encoding="utf-8"?>
<!-- Generator: Adobe Illustrator 16.0.0, SVG Export Plug-In . SVG Version: 6.00 Build 0)  -->
<!DOCTYPE svg PUBLIC "-//W3C//DTD SVG 1.1//EN" "http://www.w3.org/Graphics/SVG/1.1/DTD/svg11.dtd">
<svg version="1.1" id="Layer_1" xmlns="http://www.w3.org/2000/svg" xmlns:xlink="http://www.w3.org/1999/xlink" x="0px" y="0px" viewBox="0 0 1920 1080" enable-background="new 0 0 1920 1080" xml:space="preserve" preserveAspectRatio="none">
<g id="guides">
</g>
<g id="page_x5F_fills_x5F_blue">
	<rect id="fill_x5F_5" x="0.1" fill="#CCD9ED" width="1920" height="1080"/>
</g>
<g id="windows_x5F_light">
	<rect x="287.7" y="426.7" fill="#1A262D" width="365" height="333.9"/>
	<rect x="1251.7" y="426.7" fill="#1A262D" width="365" height="333.9"/>
</g>
<g id="doors_x5F_light_x5F_inside">
</g>
<g id="characters_x5F_indoor_x5F_fills">
	<g id="code">
		
			<linearGradient id="laptop_x5F_light_1_" gradientUnits="userSpaceOnUse" x1="726.2646" y1="20.5308" x2="887.499" y2="299.7969" gradientTransform="matrix(1 0 0 -1 -256 735)">
			<stop  offset="0" style="stop-color:#F4EFBE"/>
			<stop  offset="6.292021e-002" style="stop-color:#DBD8AE"/>
			<stop  offset="0.2256" style="stop-color:#A1A387"/>
			<stop  offset="0.3828" style="stop-color:#717667"/>
			<stop  offset="0.5308" style="stop-color:#4B534E"/>
			<stop  offset="0.6672" style="stop-color:#303A3C"/>
			<stop  offset="0.7879" style="stop-color:#202B31"/>
			<stop  offset="0.8803" style="stop-color:#1A262D"/>
		</linearGradient>
		<polygon id="laptop_x5F_light" opacity="0.5" fill="url(#laptop_x5F_light_1_)" enable-background="new    " points="387.5,615.8 
			411.6,680.6 640,662.5 640.5,440.4 527.4,440.7 		"/>
		<g id="runway_x5F_plane">
			<path fill="#515151" d="M294.4,561.2c54.2-7.4,110.1-17.5,162.7-32.8l-0.2-6.5c-52.6,15.3-108.5,25.4-162.7,32.8L294.4,561.2z"/>
		</g>
		<path id="wire2" d="M321.6,496.2c7.4,16.6-4.2,42.4,8.4,55.4c4.2,4.3,10.5,4.4,15.7,2.1c1.6-0.7,2.9-2,4.3-3
			c1.5-1.2,3.9-0.5,5.5-1.4c2.1-1.1,3.4-2.5,3.2-5c-0.1-1-1.6-1-1.5,0c0.3,4.5-5.5,3.7-8,5.1c-3.3,1.8-5.1,3.9-9.2,4.4
			c-9.5,1.1-13.8-9.1-14.1-16.8c-0.3-11.2,3.3-33.7-4-43.7C321.4,492.4,321.6,496.2,321.6,496.2z"/>
		<path id="wire_x5F_1" d="M329.1,512.8c0.2,4.1,0.5,9.3,0.5,13.3s-0.6,9.6,2.1,13c2.6,3.2,7.9,4.1,11.6,2.4c4.5-2,7.4-6.9,12-8.7
			c0.9-0.4,0.5-1.8-0.4-1.4c-3.7,1.5-6.9,5.2-10.1,7.6c-3,2.3-8.5,2.5-11.4-0.1c-2.4-2.2-2.3-6.6-2.3-9.6
			c-0.1-6.7,0.5-13.7-0.6-20.4c-0.7-4.4-4.3-31.6-9.1-31.6c-0.9,0-0.3,1.8-0.3,1.8C321.1,479.5,327.3,491,329.1,512.8z"/>
		<rect id="table_x5F_joe" x="293" y="690.3" fill="#2D2D2D" width="228" height="71.7"/>
		<rect id="laptop_x5F_base_x5F_joe" x="407" y="681.7" width="84.3" height="8.6"/>
		<g id="joe_x5F_4">
			<path fill="#FFFFFF" d="M563.4,574.6l1.9,6c0,0,12.5-3.8,14.2-5.7c1.7-1.9,0.9-3.6,0.9-3.6L563.4,574.6z"/>
			<g>
				<path fill="#333333" d="M590.2,625.5c1.6-4-1.6-7.6-1.1-11.6c0.9-5,4.7-8.5,9.2-10.8c6.9-3.8,15-7.1,23.4-6.3
					c9.2,0.9,20.5,8.5,26.8,14.8c2.9,2.8,4.5,8.5,1.5,11.6c-5.8,5.9-15.6-5.6-19.9-8.7c-8.2-5.9-20.3-6.4-29.5-2.6
					c-3.1,1.2-5.4,3-6.7,6.1C592.8,620.8,592.8,623.1,590.2,625.5"/>
			</g>
			<path fill="#CEC361" d="M560.1,540c0,0,39.7-7,34,11.8c0,0,2.8,0.5,2.3,3.1c-0.5,2.6-0.6,3.1-0.6,3.1s0.8,6.9-1.2,14.2
				c0,0,5.1-3.5,6.7-3.2c-1.8,7.4,11.4,29.9,19.9,36c0,0-18.5-3.9-25.4,6.3c0,0-5.8-26.9-18.4-25.5c0,0-8.3,5.4-10.9,1.7
				c-1-1.4,1.9-3.7-2.8-6.4c-1.8-1.3,14.1-5.6,14.5-8.8c-1,0.4-14,4-17.3,2.6c-1.5-3.3,2.6-1.6,0.1-4.7c-2.4,0.8-2.2,1.6-8.6,0.7
				c-1-1.2,0.3-3.8,0.8-5.9c0.9-3.2,4.8-4.7,5.7-8.4c0,0,0.3-2.9-0.5-4.7C557.8,550,556.2,541,560.1,540z"/>
			<path fill="#1C1C1C" d="M542.2,532.1c6.5-7.3,21.2-9.6,26.3-8.8c8-5.2,18.7,0,24.1-3.5c7.1-3.2,9.6,2.9,12.5,4.5
				c4.1,2.4,8.8,6.8,7.7,11.1c-1,3.8,2.1,8.7,0.8,10.7c-1.3,1.9,0,6.8-4.2,12.5c0.5,1.8-9.7,14.1-9.7,14.1s-4.4,2.5-5.8,1.7
				c-1.5-0.8,3.3-11.2,0.7-13.2c0,0,4.2-10-1.8-8.6c0,0,2.8-2.7-1.9-2.7c-4.7,0-3.9,7-3.9,7s-4-0.8-2.9-8.4c1-7.6-6.2-8.9-7.4-8
				c-1.1,0.8-4.7,2.4-7.3,0.2c-2.6-2.2-4.1,1.9-6,0.3C561.3,539.3,538.3,540.9,542.2,532.1z"/>
			<g>
				<path fill="#3A3A3A" d="M558.7,551.6c-0.5,2.4,0.3,4.6,1,6.9c0.2,0.8,1.5,0.5,1.3-0.3c-0.6-2-1.4-4.1-1-6.2
					C560.2,551.1,558.9,550.8,558.7,551.6L558.7,551.6z"/>
			</g>
			<g>
				<path fill="#3A3A3A" d="M560,553.7c8.5,0.2,17.1,0.4,25.6,0.6c0.8,0,0.8-1.3,0-1.3c-8.5-0.2-17.1-0.4-25.6-0.6
					C559.2,552.4,559.2,553.7,560,553.7L560,553.7z"/>
			</g>
			<polygon fill="#3A3A3A" points="566.3,587.1 567.9,586.9 569.9,587.7 572.3,587.9 575.1,586.7 576.2,586.4 576.3,587.4 
				575.5,589 574.6,588.7 574.2,589.7 573.4,590.7 571.8,590.1 570.4,591.5 568.9,591.5 567.3,590.6 566.4,589.4 565.9,587.5 			"/>
			<g>
				<path fill="#CEC361" d="M497.7,665.3c-1.7-0.5-3.3-1.6-5.2-1.6c-2.3,0-2.8,1.4-4.7,2.3c-2.4,1.2-6.8,0.9-9.7,0.9
					c-2.3,0-4.2-0.9-6.3-1c-2.3-0.2-3.5,0.7-5.6,1.6c-4.3,1.6-8.5,1.4-11.3,5.4c-1.2,1.4-3.3,3.5-4,5.4c-0.7,2.3,0.2,4,2.6,2.8
					c3.5-1.9,4.2-6.4,8.5-7.1c2.4-0.3,6.3-0.7,8.5-0.3c3.1,0.5,7,0.7,10.1,1.4c-0.3,2.8-12.9,5.7-3.3,6.8c3.8,0.3,7.3-0.7,10.8-2.3
					c2.4-1.2,4.7-3.3,7.1-4.2c1.7-0.5,3.8-0.2,5.6-0.5c6.8-1.2,3-6.4-0.7-8.9C499.1,665.3,498.6,665.8,497.7,665.3"/>
			</g>
			<polygon fill="#3A3A3A" points="561.9,572 572.2,570.3 579.8,571.5 572,571.6 562.4,573.5 			"/>
			<polygon fill="#3A3A3A" points="560.6,546.8 566.6,548 567.3,550 560.1,548.7 			"/>
			<g>
				<path fill="#005A99" d="M594.8,638.5c-13.4,12.5-21.9,23.2-41.4,23c-19.6-0.8-40.1-0.4-60,0.4l0.1,0.3c2.4,5.4,5,12.9,3.8,19.2
					c6.2,0.9,14.1-0.8,20.5-0.4c7.4,0.5,14.9,1,22.2,2.3c6.4,0.6,13.1,1.5,19.4,1.1c7-0.5,14.5-2.6,20.7-5.6c7.6-4,18.7-8.1,24-14.9
					c5.2-6,9.6-22.2,4-28.5C603,629.6,598.7,634.2,594.8,638.5"/>
			</g>
			<g>
				<path fill="#004B83" d="M581.7,748.5c6.6-14,7.6-28.3,8-43.8c0.3-14.7,1.4-30.2,0.7-44.9c-0.7-17.4-4.2-34.7,4.5-50.6
					c4.2-7.5,12.9-7.5,20.5-7.5c7.6,0,12.5,4.1,18.8,7.9c8,4.2,16.7-1.1,19.8,9.4c1.7,6.4,2.1,19.2-1.7,24.5
					c-1.7,2.6-7.7,12.3-11.2,11.5c-4.2-0.8-2.2-4.6-6.7-5.6c-3,16.2-2.3,26.9,1.2,40.9c3.1,14.3,4.5,30.8,4.9,45.1
					c0,5.3,3.4,9.7-3.4,11.2c-7.3,1.3-13.6,1.8-20.2,3C606.7,751.6,593.1,755.3,581.7,748.5"/>
			</g>
			<g>
				<path fill="#A9A24F" d="M503.6,681.5c-4.7-0.1-7.3-8.5-12.5-8.8c-5-0.3-9.2,0.1-13.2-3.4c-4.5-4.2-7.1-5-12.7-2.3
					c-1.3,0.6-4.3,1.5-6.3,1.7c-2.8,0.1-7.2-0.8-8.1-3.4c-1-2.4,12-5.6,14.7-7c3.6-2.1,7.5-5.4,11.8-5.6c5.6-0.3,6.3,4.3,9.9,7.3
					c1.2,1,6.1,4.1,10.4,6.8c3.4,2.1,6.4,3.9,6.7,4.3C510.6,678,504.6,681.5,503.6,681.5z"/>
			</g>
			<g>
				<path fill="#004B83" d="M600.9,626.6c-5.2,7.3-5,23.9-9.1,31.9c-2.8,5.9-6.6,20.5-10.4,26.1c-2.1,3.1-1.4,2.4-5.2,3.8
					c-3.8,1.4-9.6-1.9-13-3.3c-9-3.5-21-3.1-29.4-8c-7.6-4.2-17-6.8-25.4-10.3c-2.1-0.7-4.9-1.4-7.3-1.7c1.4,4.9,1,27.5-5.9,25
					c16,4.2,31,13.3,46.9,18.5c8,3.1,15.5,6.2,23.5,9c7.3,2.8,11.9,6.6,19.6,4.5c8.7-1.7,9-10.4,12.2-17c4.2-8.7,9-17,13.6-25.4
					c3.5-7.3,13.9-25.8,14.6-33.8C626.2,637.9,600.9,626.6,600.9,626.6z"/>
			</g>
		</g>
		<polygon id="laptop_x5F_screen_x5F_2" fill="#FFFFFF" points="411.4,680.6 387.5,615.8 389.1,615.2 413.1,680.4 		"/>
		<path id="wire_x5F_to_x5F_controller" d="M310,505c-0.2,5.5-1.7,10.5-3.5,15.7c-1.6,4.8-2.8,9.7-4.1,14.6
			c-2.7,10.1-10.8,16.9-13.6,26.8c-0.5,1.9,2.4,2.7,2.9,0.8c1.4-5,4.2-9.1,7.2-13.3c3.1-4.2,4.9-8.5,6.4-13.5
			c1.6-5.4,2.8-10.8,4.6-16.2c1.7-4.9,2.9-9.7,3.1-14.9C313.1,503.1,310.1,503.1,310,505L310,505z"/>
		
			<rect id="laptop_x5F_screen_x5F_1" x="362.6" y="649.1" transform="matrix(-0.346 -0.9382 0.9382 -0.346 -73.1814 1249.6943)" width="72.7" height="2.5"/>
		<rect x="295.3" y="469.7" fill="#3A5066" width="26.7" height="35.3"/>
		<g id="mug_x5F_6">
			<g>
				<path fill="#7C3A16" d="M384.7,667.5c4-3.5,8.3-4.3,10.1,1.8c1.3,4.1,1.5,9-1.5,12.3c-1.3,1.4-4.4,3.3-6.4,2.3
					c-4-2.5,0.6-3,2.1-4.2c6-6.3,1.7-12.5-2.9-10.1c-1.3,0-2.6,2.5-2.6-0.8C383.6,667.7,383.6,667.9,384.7,667.5"/>
			</g>
			<g>
				<path fill="#7C3A16" d="M386.4,676.9c0,2.5,1.2,11.4,0,13.3l-23.4-0.1c-1.7-2.3-1.7-4-2.2-6.7c-1.1-6.3-0.8-13-0.6-19.4
					c0.2-4.1,2.6-4.3,6.2-4.5c6.4-0.4,14-0.2,20,2.7V676.9z"/>
			</g>
		</g>
		<path id="wire_x5F_to_x5F_laptop" d="M412.3,687.6c-9,2.2-14.1,10.9-19.2,17.9c-3.6,5-8.1,8.5-14,10.2c-5.1,1.4-10.5,1.3-15.7,2.2
			c-10.7,1.8-20.5,7.3-30.9,10.2c-14.3,4-25.6-1.3-33.7-13.4c-1.1-1.6-3.7-0.1-2.6,1.5c6.6,9.8,15.1,16.6,27.4,16.4
			c11.9-0.2,23-6.6,34-10.1c10.4-3.3,22.1-1.4,31.3-8.1c9.1-6.6,12.5-20.9,24.3-23.8C414.9,690,414.1,687.1,412.3,687.6L412.3,687.6
			z"/>
		<g id="sound_x5F_system">
			<path fill="#565656" d="M332.5,615.8c0,0,18.2,18.5,0,35.5V615.8z"/>
			<rect x="297" y="582.6" fill="#191919" width="26.7" height="24.2"/>
			<rect x="295.3" y="609.9" fill="#191919" width="39" height="80.4"/>
			<g>
				<path d="M344,621.8c1.2,3,2.7,5.9,3,9.2c0.3,3.2-0.7,6.4-1.7,9.4c-0.3,0.9,1.1,1.3,1.4,0.4c1.1-3.3,1.8-6.4,1.8-9.8
					s-1.8-6.5-3-9.6C345.1,620.5,343.7,620.9,344,621.8L344,621.8z"/>
			</g>
			<g>
				<path d="M348.2,618.5c5.8,7,6.4,17.7,1.3,25.2c-0.6,0.8,0.7,1.5,1.3,0.8c5.6-8.1,4.7-19.6-1.5-27
					C348.7,616.7,347.6,617.8,348.2,618.5L348.2,618.5z"/>
			</g>
		</g>
	</g>
	<g id="test">
	</g>
</g>
<g id="Plane_x5F_to_x5F_animate_1_">
	<g id="Plane_x5F_to_x5F_animate_2_">
		<polygon fill="#ED9FB5" points="431.8,526.5 335.8,519.6 351.2,527.3 		"/>
		<polygon fill="#D16586" points="431.8,526.5 352.3,545.7 351.2,527.3 		"/>
		<polygon fill="#BEEF8F" points="431.8,526.5 353,528.2 352.3,545.7 		"/>
		<polygon fill="#ED9FB5" points="431.8,526.5 353,528.2 365.1,538.3 		"/>
	</g>
	<g id="Plane_x5F_to_x5F_animate_3_">
		<polygon fill="#ED9FB5" points="1482.2,549 1386.2,542.1 1401.6,549.8 		"/>
		<polygon fill="#D16586" points="1482.2,549 1402.6,568.1 1401.6,549.8 		"/>
		<polygon fill="#BEEF8F" points="1482.2,549 1403.4,550.6 1402.6,568.1 		"/>
		<polygon fill="#ED9FB5" points="1482.2,549 1403.4,550.6 1415.5,560.8 		"/>
	</g>
</g>
<g id="plane_x5F_path_x5F_indoor_x28_start_x29_">
	<polyline fill="none" stroke="#000000" stroke-miterlimit="10" stroke-opacity="0" points="431.8,526.5 643.5,483.5 779,483.5 
		960.1,566.8 1455,566.8 	"/>
</g>
<g id="plane_x5F_path_x5F_indoor_x5F_2">
	<line fill="none" stroke="#000000" stroke-miterlimit="10" stroke-opacity="0" x1="1455" y1="566.8" x2="1918.6" y2="566.8"/>
</g>
<g id="plane_x5F_path_x5F_indoor_x5F_3">
</g>
<g id="wall_x5F_fill">
	<path id="wall_x5F_fill_x5F_4" fill="#E5E5B5" d="M0,257l0.1,704H1920V257H0z M652.7,760.6h-365V426.7h365V760.6z M1616.7,760.6
		h-365V426.7h365V760.6z"/>
</g>
<g id="wall_x5F_frames">
	<rect x="637.8" y="256.9" fill="#CCD9ED" width="38.1" height="525.3"/>
	<rect x="264.5" y="257" fill="#CCD9ED" width="38.1" height="704"/>
	<rect x="1601.8" y="257" fill="#CCD9ED" width="38.1" height="525.1"/>
	<rect x="1228.5" y="256.9" fill="#CCD9ED" width="38.1" height="704.1"/>
	<polygon fill="#CCD9ED" points="1920,444.1 0.1,444.1 0,406 1920,406 	"/>
	<rect y="744" fill="#CCD9ED" width="1920" height="38.1"/>
</g>
<g id="Plane_x5F_path_x5F_outdoor">
</g>
<g id="ground_x5F_roof">
	<rect id="ground_x5F_fill_4_" y="941" fill="#353229" width="1920.1" height="139"/>
	<polygon id="roof_x5F_4" fill="#353229" points="1920.1,257 0.1,257 0,137.8 1920.1,137.8 	"/>
</g>
<g id="doors">
</g>
<g id="Bicycle_x5F_delivery">
</g>
<g id="characters_x5F_outdoor_x5F_fills">
	<g id="Proto-type">
	</g>
</g>
</svg>
