<?xml version="1.0" encoding="utf-8"?>
<!-- Generator: Adobe Illustrator 16.0.0, SVG Export Plug-In . SVG Version: 6.00 Build 0)  -->
<!DOCTYPE svg PUBLIC "-//W3C//DTD SVG 1.1//EN" "http://www.w3.org/Graphics/SVG/1.1/DTD/svg11.dtd">
<svg version="1.1" id="Layer_1" xmlns="http://www.w3.org/2000/svg" xmlns:xlink="http://www.w3.org/1999/xlink" x="0px" y="0px" viewBox="0 0 1920 1080" enable-background="new 0 0 1920 1080" xml:space="preserve" preserveAspectRatio="none">
<g id="guides">
</g>
<g id="page_x5F_fills_x5F_blue">
	<rect id="fill_x5F_6" fill="#CCD9ED" width="1920" height="1080"/>
</g>
<g id="windows_x5F_light">
</g>
<g id="doors_x5F_light_x5F_inside">
	<rect id="light_x5F_door_x5F_2" x="174.8" y="321.1" fill="#9EAEB7" width="274.2" height="639.9"/>
</g>
<g id="characters_x5F_indoor_x5F_fills">
	<g id="test">
	</g>
</g>
<g id="Plane_x5F_to_x5F_animate_1_">
</g>
<g id="plane_x5F_path_x5F_indoor_x28_start_x29_">
</g>
<g id="plane_x5F_path_x5F_indoor_x5F_2">
</g>
<g id="plane_x5F_path_x5F_indoor_x5F_3">
	<polyline fill="none" stroke="#000000" stroke-miterlimit="10" stroke-opacity="0" points="7.8,566 251.8,483.5 367.3,483.5 	"/>
</g>
<g id="wall_x5F_fill">
	<polygon id="wall_x5F_fill_x5F_5" fill="#E5E5B5" points="0,961 174.8,961 174.8,321.1 449,321.1 449,961 1307,961 1307,257 0,257 
			"/>
</g>
<g id="wall_x5F_frames">
	<rect x="1151.5" y="257" fill="#CCD9ED" width="38.1" height="704"/>
	<rect x="449" y="406" fill="#CCD9ED" width="858" height="38.1"/>
	<rect y="406" fill="#CCD9ED" width="174.8" height="38.1"/>
	<rect y="744" fill="#CCD9ED" width="174.8" height="38.1"/>
	<rect x="449" y="744" fill="#CCD9ED" width="858" height="38.1"/>
</g>
<g id="Plane_x5F_path_x5F_outdoor">
	<polyline fill="none" stroke="#000000" stroke-miterlimit="10" stroke-opacity="0" points="367.3,483.5 515,483.5 704,532 
		836.3,616.3 	"/>
</g>
<g id="ground_x5F_roof">
	<rect id="ground_x5F_fill_5_" y="941" fill="#353229" width="1919.9" height="139"/>
	<polygon id="roof_x5F_5" fill="#353229" points="0,257 1539.3,257 1307.2,137.8 0,137.8 	"/>
</g>
<g id="doors">
	<g id="door_x5F_2">
		<polygon fill="#26241E" points="174.8,321.1 311.9,283 311.9,961 174.8,941.3 		"/>
		<polygon fill="#B59D26" points="297.8,661.6 267.5,660.5 267.5,654.3 297.8,652.2 		"/>
	</g>
</g>
<g id="Bicycle_x5F_delivery">
	<g>
		<path fill="#0B4C2A" d="M942.2,785.2c1,5.3-7.7,13.5-9.9,18.3c-1.4,2.9-3.6,10.1-2.2,13c2.2,4.3,15.2,2.8,19.5,3.8
			c5.5,1.2,16.3-0.5,21.8,0c11.3,1,16.3,4,27.7,5.4c5.1,0.7,11.6,1.8,16.4-1c7.7-4.1-2.5-8.2-7.1-10.6c-11.6-6.7-28.9-3.4-37.6-14.9
			c0,0-3.2-3.9-0.2-8.9L942.2,785.2z"/>
	</g>
	<path fill="#FFFFFF" d="M930,810.9c0,0,10.3,8.4,24.9,6.5c14.6-1.9,21.5,1.7,21.5,1.7s28.5,4.2,31.3,4c2.8-0.2,8.8-0.8,9.8-2.7
		c1-2,1.7,6.4,0,6.1s-6.9,3.7-26.4-0.6c-19.5-4.3-16.4-3.9-24.9-4.3c-8.5-0.4-29,1.7-36.7-4.1C928.6,812.4,928.9,811.4,930,810.9z"
		/>
	<g>
		<path fill="#C1A868" d="M1021.8,573.3c-2.1,0-4-0.3-5.8,1c-10.9,8.8,6.6,18.2,12.9,21c4,1.9,8.5,2.9,12.7,4.7
			c4,1.9,8,4.8,11.4,7.7c2.1,1.8,2.9,2.6,3.4,5.1c0.5,1.9,0.6,3.2,2.2,4.7c1.9,1.9,3.4,2.6,4.7,5s1.4,3.2,4.2,3.1
			c3.7-0.3,7.9-2.6,8.8-5.9c1.4-5.3-0.3-7.9-4.8-10.4c-4.3-2.6-7.1-6.4-10.8-9.8c-3.5-3.4-7.5-6.4-11.6-9.3c-4-2.9-8.5-5.1-12.2-8.4
			c-3.4-2.9-7.1-6.6-10.8-8.8L1021.8,573.3z"/>
	</g>
	<g>
		<path fill="#15346B" d="M950.6,597.5c9.2,47.7,106.5,61.2,78.1,117.1c-11.6,22.6-30.4,40-44.8,60.2c-1.9,2.4-4.3,4.8-5.3,7.7
			c-1,1.4-1.9,6.7-2.9,7.7c-3.4,4.3-8.2,2.9-14.5,1.4c-5.3-1-11.1-1.4-15.9-3.4c-9.6-3.9-7.7-8.2-2.9-14.9
			c14.5-21.2,26.5-41.9,42.4-61.2c3.4-3.9,12-12,10.1-17.8c-1.4-3.9-10.6-4.8-14.9-6.3c-11.1-3.9-21.2-8.7-32.3-13
			c-13.5-6.3-22.2-14.9-33.7-24.1c-10.1-8.7-20.2-16.9-20.7-31.3c-0.5-15.4,12-19.3,25.1-22.6c4.3-1,9.6-2.9,14-2.4
			C937.6,595.1,950.6,597.5,950.6,597.5z"/>
	</g>
	<g id="bike">
		<path d="M1209.9,838.9c-5.7-0.9-12.3,0.1-18,0.4c-13.6,0.6-27.2,1.3-40.9,2c-21.6,1.1-43.3,2.6-65,3.4c-0.9,0-0.9,1.4,0,1.3
			c21-0.8,42-2.2,63.1-3.3c13.3-0.7,26.6-1.4,39.9-2c6.5-0.3,14-1.6,20.5-0.6C1210.4,840.4,1210.8,839.1,1209.9,838.9L1209.9,838.9z
			"/>
		<path d="M705.5,770.3c18.4,9.4,36,20.6,53.9,30.9c18.9,10.9,38,21.5,56.6,32.8c0.7,0.5,1.4-0.7,0.7-1.2
			c-18.6-11.4-37.7-21.9-56.6-32.8c-17.9-10.3-35.5-21.5-53.9-30.9C705.5,768.7,704.8,769.9,705.5,770.3L705.5,770.3z"/>
		<path d="M1082.6,621.4c3.2,0.1,6.1,1.2,9.1,2.2c2.6,0.9,5.5,1.3,8,2.4c1.6,0.7,2.9-1.6,1.4-2.3c-2.8-1.2-5.8-1.7-8.7-2.7
			c-3.3-1.1-6.3-2.2-9.8-2.3C1080.9,618.7,1080.9,621.3,1082.6,621.4L1082.6,621.4z"/>
		<path d="M906,662.4c-4.8,7.9-20.1-1.1-23.3,7c-1.1,2.8,0.9,4.2,3.2,4.8c5.2,1.3,17.6-5.2,20,1c0.2,0.6,0.6,1,1.3,1
			c7.7,0,17.4-5.3,24.6-8.1c1.6-0.6,0.9-3.2-0.7-2.6c-3.8,1.5-7.6,2.8-11.4,4c-3,1-10.9,5.7-12.4,1.8c-1.3-3.5-7.3-1.6-9.5-1.1
			c-2.8,0.6-5.7,1.1-8.6,1.4c-0.5-0.9-1-1.7-1.5-2.6c0.8-0.1,1.7-0.1,2.5-0.2c3-0.1,6-0.3,9.1-0.7c3.5-0.4,7.1-1.3,9-4.5
			C909.2,662.3,906.9,661,906,662.4L906,662.4z"/>
		<path d="M886.8,656.9c0,3.2,0.4,6.3,0.8,9.4c0.2,1.7,2.8,1,2.6-0.7c-0.4-2.9-0.7-5.8-0.7-8.7C889.5,655.2,886.8,655.2,886.8,656.9
			L886.8,656.9z"/>
		<path d="M891.3,660c0.1,2.3,0.2,4.6,0.6,6.9c0.3,1.7,2.9,1,2.6-0.7c-0.4-2-0.4-4.1-0.5-6.2C893.9,658.3,891.2,658.3,891.3,660
			L891.3,660z"/>
		<path fill="#063F34" d="M906.2,674.5c9.3,25.6,21.7,50.3,32.7,75.1c10.5,23.6,20.4,47.6,31.7,70.8c3,6.2,12.2,0.8,9.2-5.4
			c-11-22.6-20.7-46-30.9-69c-10.9-24.5-23.2-49-32.4-74.3C914.2,665.2,903.8,668,906.2,674.5L906.2,674.5z"/>
		<path d="M1116.5,678.3c5.6,13.3,10.7,26.8,16.6,40c2.8,6.3,12,0.8,9.2-5.4c-5.5-12.4-10.3-25-15.5-37.5
			C1124.2,669.2,1113.9,672,1116.5,678.3L1116.5,678.3z"/>
		<path d="M1022.6,834.3c20.4-20.8,41.2-41.2,61.9-61.7c17.7-17.6,34.9-36.1,53.5-52.7c5.1-4.6-2.4-12.1-7.6-7.6
			c-18.1,16.2-34.8,34.2-52.1,51.4c-21.1,21-42.4,41.9-63.3,63.1C1010.2,831.7,1017.8,839.3,1022.6,834.3L1022.6,834.3z"/>
		<path d="M909,681.4c-28.6,51-58.9,101.2-89.2,151.2c-3.6,5.9,5.7,11.3,9.2,5.4c30.3-50,60.6-100.2,89.2-151.2
			C921.6,680.7,912.4,675.3,909,681.4L909,681.4z"/>
		<path d="M1228.1,841.3c-32.2-7.6-53.1-38.5-61.6-68.7c-1.9-6.6-12.2-3.8-10.3,2.8c9.5,33.7,33.3,67.7,69,76.2
			C1231.9,853.2,1234.8,842.9,1228.1,841.3L1228.1,841.3z"/>
		<path d="M874.9,651.6c3.2,2.4,12.3,5.2,15.6,7.3c4.1,2.6,9.6,2.7,14.3,3.4c11.9,1.5,23.3,5,35.2,6.4c9.9,1.2,33.5-8.7,25.5-22.1
			c-3-5-12-3.9-16.8-3.9c-12,0-17.1-2.8-29-4.1c-9-1-31.5-11.5-40-7.6C873.9,633.7,869.5,647.6,874.9,651.6z"/>
		<path d="M1060.1,629c9.5-5.6,20.1-8.2,30.5-11.6c6.5-2.2,3.7-12.5-2.8-10.3c-11.2,3.8-22.8,6.6-33,12.7
			C1048.8,623.3,1054.2,632.5,1060.1,629L1060.1,629z"/>
		<path fill="#063F34" d="M815.9,843.9c7.1-13.1,25.1-13.3,37.9-14c21-1.1,42-4.4,63-3.9c10.8,0.2,51.9,2.9,61.6,3.2
			c10.3,0.2,23,2.6,31.5,8.1c7.1,4.6,14.3,12.3,15.1,20.7c0.7,7.6,11,1.4,7.2-4.6c-4.7-7.4-8.9-15-14.9-21.5
			c-6.8-7.4-16.5-10.7-26-12.5c-11-2-22.4-1.3-33.6-0.9c-12.6,0.5-25-0.4-37.6-0.8c-24.2-0.7-48.5,0-72.7,1.6
			c-15.3,1-32.9,4.1-40.9,19.1C803.3,844.6,812.6,850.1,815.9,843.9L815.9,843.9z"/>
		<path d="M1003.1,829.5c-18.5-5.6-46.6-2.8-65.7-3.1c-21.6-0.4-43.1-1.1-64.6-0.1c-19,0.9-38.6,2.8-55.9,11.1c-1.9,0.9-3.3,4-2.5,6
			c5,11.9,16.4,10.3,27.4,9.7c20.2-1.2,40.6-0.2,60.7,1.4c15.3,1.2,30.9,4.2,46.2,4.1c5.9,0,11.9-1.3,16.7-4.8
			c7.3-5.4,18.4-18.6,37-10.3c4.1,1.8,7.4,4.5,9.5,8.4c1.2,2.2,2.1,5.7,4,7.5c3.2,3.2,8.7,2.5,12.7,1.7
			C1035.3,859.8,1011.6,832.1,1003.1,829.5z"/>
		<g>
			<path d="M821.3,955.4c-66.1,0-119.9-52.3-119.9-116.5c0-64.2,53.8-116.5,119.9-116.5c66.1,0,119.9,52.3,119.9,116.5
				C941.2,903.2,887.4,955.4,821.3,955.4z M821.3,734.9c-59.2,0-107.4,46.7-107.4,104c0,57.4,48.2,104,107.4,104
				s107.4-46.7,107.4-104C928.7,781.6,880.5,734.9,821.3,734.9z"/>
		</g>
		<path fill="#063F34" d="M696.5,820.3l-12.3-1.9c5-31.6,21.4-60.5,46.4-81.5c25.2-21.2,57.4-32.8,90.8-32.8
			c33.3,0,65.5,11.6,90.6,32.7c24.9,20.9,41.5,49.8,46.5,81.3l-12.3,2c-9.4-59-63.1-103.5-124.8-103.5
			C759.4,716.5,705.8,761.2,696.5,820.3z"/>
		<path fill="#005D4B" d="M1088.5,893.3c-18.3-48.3-7.7-102.7,27.6-142c27.4-30.4,66.2-47.5,106.4-46.9l-0.2,12.5
			c-36.6-0.6-72,15-96.9,42.8c-32.2,35.8-41.8,85.3-25.2,129.3L1088.5,893.3z"/>
		<path d="M1220.4,956.7c-66.1,0-119.9-52.3-119.9-116.5s53.8-116.5,119.9-116.5c66.1,0,119.9,52.3,119.9,116.5
			C1340.3,904.5,1286.5,956.7,1220.4,956.7z M1220.4,736.2c-59.2,0-107.4,46.7-107.4,104s48.2,104,107.4,104
			c59.2,0,107.4-46.7,107.4-104S1279.6,736.2,1220.4,736.2z"/>
		<ellipse fill="none" stroke="#000000" stroke-width="3" stroke-miterlimit="10" cx="991" cy="859.2" rx="29.6" ry="28.7"/>
		<path d="M1063.3,623.7c3.4,0,0.6-8.1-2.8-7.3c-6.8,1.5-12.6,5.2-19,7.7c-3.2,1.2-4.1,6.1-0.8,7.1
			C1047.9,633.4,1056.8,623.7,1063.3,623.7z"/>
		<path d="M1119.8,622.8c-4-11.4-17.9-10.8-27.8-12.3c-3.4-0.5-4.8,4.7-1.4,5.2c7.2,1,21.1,0.1,24.1,8.5
			C1115.8,627.4,1121,626,1119.8,622.8L1119.8,622.8z"/>
		<path d="M1099.9,629.4c3.2,6.2,5,13.2,7.8,19.7c3.5,8.4,7.2,16.7,10.7,25.1c1.3,3.1,6.5,1.8,5.2-1.4c-3.3-7.9-6.6-15.8-10-23.7
			c-3.2-7.3-5.3-15.3-8.9-22.4C1103,623.7,1098.4,626.4,1099.9,629.4L1099.9,629.4z"/>
		<path d="M1136.1,718.6c2,4.3,3.3,8.9,5.8,12.9c1.8,2.9,6.4,0.2,4.6-2.7c-2.5-4-3.8-8.6-5.8-12.9
			C1139.3,712.8,1134.7,715.5,1136.1,718.6L1136.1,718.6z"/>
		<path d="M1144,736.2c0.4,3.1,1.5,5.7,2.9,8.5c1.5,3.1,2.1,6.7,3.9,9.6c1.9,2.9,6.5,0.2,4.6-2.7c-1.4-2.1-1.9-4.7-2.8-7
			c-1.1-2.8-2.9-5.4-3.3-8.4C1148.9,732.8,1143.5,732.7,1144,736.2L1144,736.2z"/>
		<path d="M1152.4,770.1c5.5-5.9,12.9-10.8,20.1-14.5c3.1-1.6,0.4-6.2-2.7-4.6c-7.5,3.9-15.3,9.1-21.1,15.3
			C1146.3,768.9,1150.1,772.6,1152.4,770.1L1152.4,770.1z"/>
		<path d="M1151.9,756.2c1.3,2,2.2,4.2,3.3,6.2c1.6,3,6.3,0.3,4.6-2.7c-1.1-2.1-2.1-4.3-3.3-6.2
			C1154.7,750.6,1150,753.3,1151.9,756.2L1151.9,756.2z"/>
		<path d="M1157.5,753.3c1.3,1.7,2.2,3.7,3.1,5.6c0.6,1.3,2.5,1.7,3.7,1c1.3-0.8,1.6-2.4,1-3.7c-0.9-1.9-1.9-3.8-3.1-5.6
			c-0.9-1.2-2.3-1.8-3.7-1C1157.3,750.3,1156.6,752.1,1157.5,753.3L1157.5,753.3z"/>
		<path d="M994.2,873.4c3.9,3.8,6.2,9.5,9.2,13.9c5,7.6,9,15.5,15.3,22.1c2.4,2.5,6.1-1.3,3.8-3.8c-6.2-6.6-10.2-14.6-15.2-22.1
			c-3-4.6-5.3-10.1-9.3-14C995.5,867.3,991.7,871,994.2,873.4L994.2,873.4z"/>
		<path d="M954.6,808.8c2.9,4.2,6.1,8.3,9.1,12.5c2,2.8,6.6,0.1,4.6-2.7c-3-4.2-6.2-8.2-9.1-12.5
			C957.3,803.2,952.6,805.9,954.6,808.8L954.6,808.8z"/>
		<path d="M957,802.5c0.7-1.3,1.4-2.6,2.2-3.8s0.2-3-1-3.7c-1.3-0.8-2.9-0.3-3.7,1c-0.8,1.2-1.6,2.5-2.2,3.8c-0.7,1.3-0.4,2.9,1,3.7
			C954.5,804.2,956.3,803.8,957,802.5L957,802.5z"/>
		<path d="M958.6,805.4c1-1.3,1.7-2.9,2.3-4.4c0.5-1.4-0.6-2.9-1.9-3.3c-1.5-0.4-2.7,0.5-3.3,1.9c0,0-0.3,0.8-0.1,0.3
			c-0.1,0.3-0.3,0.7-0.5,1c-0.3,0.7-0.7,1.3-1.2,1.9c-0.9,1.2-0.2,3,1,3.7C956.3,807.2,957.7,806.6,958.6,805.4L958.6,805.4z"/>
		<path d="M959.9,807c0.6-1.1,1.4-2.1,2-3.1c0.8-1.2,0.3-2.9-1-3.7c-1.3-0.7-2.9-0.3-3.7,1c-0.6,1.1-1.4,2.1-2,3.1
			c-0.8,1.2-0.3,2.9,1,3.7C957.5,808.7,959.1,808.2,959.9,807L959.9,807z"/>
		<path d="M960.8,808.6c4.1-4.1,0.2-9.3-0.9-13.7c-1.3,1-2.6,2-3.9,3c1.6,0.8,2.4,4.8,3.3,6.4c1.6,3.1,6.2,0.4,4.6-2.7
			c-1.4-2.7-2.2-6.8-5.2-8.3c-2.1-1.1-4.5,0.7-3.9,3c0.4,1.6,1,3,1.6,4.5c0.4,0.9,1.5,3.1,0.6,4
			C954.6,807.3,958.4,811.1,960.8,808.6L960.8,808.6z"/>
		<path d="M1061.2,649.1c11.7-11.6,27.4-16.4,41.9-22.9c1.6-0.7,0.2-3-1.4-2.3c-14.8,6.6-30.6,11.6-42.4,23.4
			C1058.1,648.4,1060,650.3,1061.2,649.1L1061.2,649.1z"/>
		<path d="M1075.6,653.5c6.5-7.8,16.9-13.4,25.8-18.2c6.2-3.4,18-3.4,21.4-10.6c0.3-0.7,0.2-4.5-2.1-2.6c-1.8,1.5-11.4,6.8-14.6,8.1
			c-4.1,1.5-7.9,3.7-11.6,5.9c-7.3,4.3-15.3,8.8-20.8,15.4C1072.6,652.9,1074.5,654.8,1075.6,653.5L1075.6,653.5z"/>
		<path d="M1103.3,627.2c5.7-0.3,11.2-2.4,16.9-2.5c1.7,0,1.7-2.7,0-2.7c-5.7,0.2-11.2,2.2-16.9,2.5
			C1101.6,624.6,1101.6,627.3,1103.3,627.2L1103.3,627.2z"/>
		<path d="M1124.9,672.4c4.2-2.4,10-2.1,13.6-5.6c4.1-3.9,0.3-9.9,0.4-14.6c0-1.7-2.6-1.7-2.7,0c-0.1,4.6,3.9,10.9-1.2,13.7
			c-3.6,1.9-7.9,2.1-11.5,4.2C1122.1,671,1123.4,673.3,1124.9,672.4L1124.9,672.4z"/>
		<path d="M881.4,677.3c4.9-0.9,9.8-0.7,14.8-0.1c1.7,0.2,1.7-2.5,0-2.7c-5.2-0.6-10.3-0.8-15.5,0.2
			C879,675.1,879.7,677.6,881.4,677.3L881.4,677.3z"/>
		<path d="M881.6,681c5.3-1,10.8-1.3,16.1-0.1c1.7,0.4,2.4-2.2,0.7-2.6c-5.8-1.3-11.7-1-17.5,0.1C879.2,678.8,879.9,681.4,881.6,681
			L881.6,681z"/>
		<path d="M881.2,684.9c5.5-0.7,10.9-1.3,16.3,0.4c1.6,0.5,2.3-2.1,0.7-2.6c-5.6-1.8-11.2-1.2-17-0.5
			C879.5,682.5,879.5,685.2,881.2,684.9L881.2,684.9z"/>
		<path d="M881.4,688.8c5.2-0.4,10.3-1.7,15.4,0c1.6,0.5,2.4-2.1,0.7-2.6c-5.4-1.7-10.6-0.5-16.1,0
			C879.6,686.3,879.6,688.9,881.4,688.8L881.4,688.8z"/>
		<path d="M1226.6,845.8c-48.7,1.7-97.3,3.1-146,5.2c-0.9,0-0.9,1.4,0,1.3c48.7-2.1,97.3-3.5,146-5.2
			C1227.5,847.1,1227.5,845.8,1226.6,845.8L1226.6,845.8z"/>
		<path d="M700.7,773.5c19.3,9.8,37.5,22.9,55.8,34.4c19.1,12,37.9,24.6,57.4,35.9c0.8,0.4,1.5-0.7,0.7-1.2
			c-18.9-11-37.2-23.2-55.7-34.9c-18.9-11.9-37.6-25.4-57.5-35.5C700.6,771.9,699.9,773.1,700.7,773.5L700.7,773.5z"/>
		<path d="M809.2,858.3c2.6,0,2.6-4,0-4C806.6,854.3,806.6,858.3,809.2,858.3L809.2,858.3z"/>
		<path d="M814,860.9c2.6,0,2.6-4,0-4C811.4,856.8,811.4,860.9,814,860.9L814,860.9z"/>
		<path d="M818.9,861.6c2.6,0,2.6-4,0-4C816.3,857.6,816.3,861.6,818.9,861.6L818.9,861.6z"/>
		<path d="M822.5,862.6c2.6,0,2.6-4,0-4S819.9,862.6,822.5,862.6L822.5,862.6z"/>
		<path d="M825.8,863.6c2.6,0,2.6-4,0-4C823.2,859.6,823.2,863.6,825.8,863.6L825.8,863.6z"/>
		<path d="M830.9,864.6c2.6,0,2.6-4,0-4C828.3,860.6,828.3,864.6,830.9,864.6L830.9,864.6z"/>
		<path d="M834.6,864.6c2.6,0,2.6-4,0-4C832,860.6,832,864.6,834.6,864.6L834.6,864.6z"/>
		<path d="M838.8,866c2.6,0,2.6-4,0-4C836.2,862,836.2,866,838.8,866L838.8,866z"/>
		<path d="M843.7,867c2.6,0,2.6-4,0-4C841.1,863,841.1,867,843.7,867L843.7,867z"/>
		<path d="M848.3,868.2c2.6,0,2.6-4,0-4C845.7,864.2,845.7,868.2,848.3,868.2L848.3,868.2z"/>
		<path d="M852.6,869.5c2.6,0,2.6-4,0-4C850,865.5,850,869.5,852.6,869.5L852.6,869.5z"/>
		<path d="M857.2,870.1c2.6,0,2.6-4,0-4C854.6,866.1,854.6,870.1,857.2,870.1L857.2,870.1z"/>
		<path d="M861.2,871.5c2.6,0,2.6-4,0-4C858.6,867.5,858.6,871.5,861.2,871.5L861.2,871.5z"/>
		<path d="M865.7,872.4c2.6,0,2.6-4,0-4C863.1,868.4,863.1,872.4,865.7,872.4L865.7,872.4z"/>
		<path d="M870.2,872.5c2.6,0,2.6-4,0-4C867.6,868.5,867.6,872.5,870.2,872.5L870.2,872.5z"/>
		<path d="M874,873.1c2.6,0,2.6-4,0-4S871.4,873.1,874,873.1L874,873.1z"/>
		<path d="M877.6,873.8c2.6,0,2.6-4,0-4C875,869.8,875.1,873.8,877.6,873.8L877.6,873.8z"/>
		<path d="M882.4,874.3c2.6,0,2.6-4,0-4C879.8,870.3,879.8,874.3,882.4,874.3L882.4,874.3z"/>
		<path d="M886.6,875.4c2.6,0,2.6-4,0-4C884,871.4,884,875.4,886.6,875.4L886.6,875.4z"/>
		<path d="M891.3,876.2c2.6,0,2.6-4,0-4C888.7,872.2,888.8,876.2,891.3,876.2L891.3,876.2z"/>
		<path d="M895.9,877.6c2.6,0,2.6-4,0-4C893.3,873.5,893.3,877.6,895.9,877.6L895.9,877.6z"/>
		<path d="M900,878.1c2.6,0,2.6-4,0-4S897.4,878.1,900,878.1L900,878.1z"/>
		<path d="M903.9,879.2c2.6,0,2.6-4,0-4C901.3,875.2,901.3,879.2,903.9,879.2L903.9,879.2z"/>
		<path d="M907.9,879.9c2.6,0,2.6-4,0-4C905.3,875.9,905.3,879.9,907.9,879.9L907.9,879.9z"/>
		<path d="M912.7,880.6c2.6,0,2.6-4,0-4C910.1,876.6,910.1,880.6,912.7,880.6L912.7,880.6z"/>
		<path d="M916.8,880.9c2.6,0,2.6-4,0-4C914.2,876.9,914.3,880.9,916.8,880.9L916.8,880.9z"/>
		<path d="M1022.8,865.3c2.6,0,2.6-4,0-4C1020.2,861.3,1020.2,865.3,1022.8,865.3L1022.8,865.3z"/>
		<path d="M1021.8,869.3c2.6,0,2.6-4,0-4C1019.2,865.3,1019.2,869.3,1021.8,869.3L1021.8,869.3z"/>
		<path d="M1020.3,873.1c2.6,0,2.6-4,0-4C1017.7,869.1,1017.7,873.1,1020.3,873.1L1020.3,873.1z"/>
		<path d="M1018.9,876.7c2.6,0,2.6-4,0-4C1016.3,872.7,1016.3,876.7,1018.9,876.7L1018.9,876.7z"/>
		<path d="M1016.6,879.8c2.6,0,2.6-4,0-4C1014,875.8,1014,879.8,1016.6,879.8L1016.6,879.8z"/>
		<path d="M1013.9,883.3c2.6,0,2.6-4,0-4C1011.3,879.3,1011.3,883.3,1013.9,883.3L1013.9,883.3z"/>
		<path d="M1010.5,886.7c2.6,0,2.6-4,0-4S1007.9,886.7,1010.5,886.7L1010.5,886.7z"/>
		<path d="M1001.8,891.9c2.6,0,2.6-4,0-4C999.2,887.9,999.3,891.9,1001.8,891.9L1001.8,891.9z"/>
		<path d="M998,893.3c2.6,0,2.6-4,0-4C995.4,889.2,995.4,893.3,998,893.3L998,893.3z"/>
		<path d="M993.8,893.9c2.6,0,2.6-4,0-4C991.2,889.9,991.2,893.9,993.8,893.9L993.8,893.9z"/>
		<path d="M989.6,894.1c2.6,0,2.6-4,0-4C987,890.1,987,894.1,989.6,894.1L989.6,894.1z"/>
		<path d="M985.7,893.6c2.6,0,2.6-4,0-4C983.2,889.6,983.2,893.6,985.7,893.6L985.7,893.6z"/>
		<path d="M981.9,893.1c2.6,0,2.6-4,0-4C979.3,889.1,979.3,893.1,981.9,893.1L981.9,893.1z"/>
		<path d="M972.8,891.3c2.6,0,2.6-4,0-4C970.3,887.2,970.3,891.3,972.8,891.3L972.8,891.3z"/>
		<path d="M977.3,892.1c2.6,0,2.6-4,0-4C974.7,888.1,974.7,892.1,977.3,892.1L977.3,892.1z"/>
		<path d="M968.6,890.9c2.6,0,2.6-4,0-4C966,886.9,966,890.9,968.6,890.9L968.6,890.9z"/>
		<path d="M964,890.4c2.6,0,2.6-4,0-4C961.5,886.4,961.5,890.4,964,890.4L964,890.4z"/>
		<path d="M959.6,889.1c2.6,0,2.6-4,0-4C957,885.1,957,889.1,959.6,889.1L959.6,889.1z"/>
		<path d="M959.6,864.6c2.6,0,2.6-4,0-4C957,860.6,957,864.6,959.6,864.6L959.6,864.6z"/>
		<path d="M958.9,860.6c2.6,0,2.6-4,0-4C956.3,856.6,956.3,860.6,958.9,860.6L958.9,860.6z"/>
		<path d="M960,868.5c2.6,0,2.6-4,0-4C957.5,864.5,957.5,868.5,960,868.5L960,868.5z"/>
		<path d="M961.2,871.5c2.6,0,2.6-4,0-4C958.6,867.5,958.6,871.5,961.2,871.5L961.2,871.5z"/>
		<path d="M962.4,874.4c2.6,0,2.6-4,0-4C959.8,870.4,959.8,874.4,962.4,874.4L962.4,874.4z"/>
		<path d="M964,878c2.6,0,2.6-4,0-4C961.5,874,961.5,878,964,878L964,878z"/>
		<path d="M965.8,880.5c2.6,0,2.6-4,0-4C963.2,876.5,963.2,880.5,965.8,880.5L965.8,880.5z"/>
		<path d="M968.2,883.3c2.6,0,2.6-4,0-4C965.6,879.3,965.6,883.3,968.2,883.3L968.2,883.3z"/>
		<path d="M970.8,885.3c2.6,0,2.6-4,0-4C968.3,881.3,968.3,885.3,970.8,885.3L970.8,885.3z"/>
		<path d="M973.8,887.8c2.6,0,2.6-4,0-4C971.2,883.8,971.3,887.8,973.8,887.8L973.8,887.8z"/>
		<path d="M977.3,889.1c2.6,0,2.6-4,0-4C974.7,885.1,974.7,889.1,977.3,889.1L977.3,889.1z"/>
		<path d="M980,890.9c2.6,0,2.6-4,0-4S977.4,890.9,980,890.9L980,890.9z"/>
		<path d="M955.5,888.1c2.6,0,2.6-4,0-4S952.9,888.1,955.5,888.1L955.5,888.1z"/>
		<path d="M951.1,887.8c2.6,0,2.6-4,0-4C948.5,883.8,948.5,887.8,951.1,887.8L951.1,887.8z"/>
		<path d="M947.2,887.2c2.6,0,2.6-4,0-4C944.6,883.2,944.6,887.2,947.2,887.2L947.2,887.2z"/>
		<path d="M942.8,886.7c2.6,0,2.6-4,0-4C940.2,882.7,940.2,886.7,942.8,886.7L942.8,886.7z"/>
		<path d="M938.3,886.1c2.6,0,2.6-4,0-4C935.7,882.1,935.7,886.1,938.3,886.1L938.3,886.1z"/>
		<path d="M934,885.3c2.6,0,2.6-4,0-4S931.4,885.3,934,885.3L934,885.3z"/>
		<path d="M806.2,855c2.6,0,2.6-4,0-4C803.6,850.9,803.6,855,806.2,855L806.2,855z"/>
		<path d="M804,850.9c2.6,0,2.6-4,0-4C801.5,846.9,801.5,850.9,804,850.9L804,850.9z"/>
		<path d="M804.7,847c2.6,0,2.6-4,0-4C802.1,843,802.1,847,804.7,847L804.7,847z"/>
		<path d="M1011.5,921.2l0.1,6.8c0,0,2.3,4.5,5.2,0c0,0,9,5.8,18.8-1.8c0,0,2.7,4.7,5.5-0.1c0,0,0.6-2.2-1.8-7.4
			c0,0-2.5-9.1-7.2-8.5c0,0-4.1-3.3-8.7-2.3c-4.6,1.1-5.9,3.1-6.7,3.9c-0.4,0.4-1.9,1.5-2.7,2.4c0,0-1.8-0.1-2.4,1.7L1011.5,921.2z"
			/>
		<path fill="#005D4B" d="M915.1,688.9c33.3,0,66.6,1.4,99.8,2.1c36.3,0.8,73.1,2.8,109.5,1c6.9-0.3,6.9-11,0-10.7
			c-35.7,1.8-71.7-0.2-107.4-1c-33.9-0.7-67.9-2.2-101.9-2.1C908.2,678.3,908.2,689,915.1,688.9L915.1,688.9z"/>
		<rect x="678.9" y="574.4" fill="#26241E" width="191.1" height="131.1"/>
		<path d="M674.8,711l222.7,0.7c7.3-0.4,7.2-11.1-0.1-10.7l-222.7-0.7C667.4,700.4,667.5,711.1,674.8,711L674.8,711z"/>
		<path d="M995.2,870.8c0,0,6.6-3.1,3.1-9.3c-3.6-6.2-9.2-2.7-9.8-2.2c-0.6,0.6-4.9,4.1-3.3,8.7
			C986.7,872.6,995.2,870.8,995.2,870.8z"/>
	</g>
	<g>
		<path fill="#C1A868" d="M998.6,833.9c-5.8-1.4-11.8-2.7-17.8-0.7c-4.8,1.4-4.1,8.7-4.3,13.5c-1,13.7,16.1,15.2,23.9,21.9
			c1.4-2.6-0.5-6-0.5-9.2c0.2-2.6,1-5.3,1.2-8.2c0.2-5.5,0.5-11.1,0.5-16.4L998.6,833.9z"/>
	</g>
	<g>
		<path fill="#15346B" d="M941.5,604.8c-6.3-1.4-14,1.4-19.8,2.9c-7.2,1.9-14.9,4.3-21.2,8.7c-8.7,6.3-11.3,16.4-6,23.6
			c9.2,12.5,18.3,28.2,30.3,38.3c11.1,9.2,20.7,16.6,30.4,27.2c9.6,11.1,23.4,12.5,21.4,27c-1.4,13.5-4.8,26.5-5.8,40
			c-1,12-1.9,24.1-1.4,36.6c0.5,7.2-1,17.3,1.9,24.6c2.9,8.2,16.9,6.3,25.1,5.3c8.2-1,7.2-1.9,7.7-9.2c0.5-4.8,1.4-9.6,1.9-14.5
			c3.9-25.5,11.1-50.1,15.4-75.6c4.3-23.6-6.3-45.3-17.3-66c-5.8-11.1-14-23.1-22.2-32.8c-9.6-10.1-23.6-17.8-27.5-32.3
			C954.5,608.6,946.8,605.7,941.5,604.8z"/>
	</g>
	<g id="pj_x5F_face">
		<g>
			<path fill="#C1A868" d="M1013.2,388.3c2.6,1.6,5.7,1.1,4.7,10.3c0.5,5.3-1.9,5.6-4.2,9.8c-1.6,3.2-1,5.8-0.3,9.3
				c5.1,8.8,5.3,9-1.5,11.3c-0.6,0.6-0.9,2.1-1.9,3c-0.3,0.6,0.3,1.9,0,2.6c-1.6,2.9-1.6,2.6-2.2,6.1c-0.6,3.2-1.3,7.7-4.8,9
				c-5.8,1.9-14.5-5.5-19.3-1.9c-6.1,4.8-1.6,15.7-4.2,21.8c-3.2,8.4-15.1,2.2-20.9-0.6c-2.9-1-11.2-3.2-12.5-5.1
				c-2.9-4.5,4.5-10.3,7.1-12.5c6.1-6.1,6.1-15.7,6.4-23.8c0.6-12.8-1.3-24.4,5.8-36c9-14.8,34.7-19.6,46.6-5.5L1013.2,388.3z"/>
		</g>
		<ellipse fill="#3A3A3A" cx="1000.7" cy="415.1" rx="1.1" ry="1"/>
		<g>
			<path fill="#3A3A3A" d="M970.1,418.4c0.5,0,0.5,0.2,1,0c-0.2-0.3-0.8-1.8-0.8-2.1c0.2-0.8,1.1-1,1.3-1.8c0.2-1.4-0.8-2.1-1-3.5
				c-0.5-4.5,2.6-2.6,4.7-1.1c1.4,1-0.1-1.4,1.5-1.2c1.3,0,2.5,1.2,3.5,2.3c0-0.2,0.5,2.6,0.5,2.7c0.2,0.3,1.4,2.9,1.6,3.1
				c1.8,1,5-2.2,5.3-3.9c0.8-3.2-1.4-2.7,1.4-5c1.3-0.8,1.8-0.8,2.2-2.4c0.2-0.6-0.3-1.9,0-2.7c1.1-1.6,3.4,0,5.3-1.1
				c2.2-1.3,1.4-4,3.7-5.3c2.7-1.6,5.1,0.5,6.6-3.2c0.3-1.3-0.5-3.1,1.3-3.1c0.8-0.2,2.9,2.4,3.9,2.9c0.8,0.3,1.8-0.2,2.6,0.6
				c0.6,0.6,0,2.1,1.4,2.6c1.8,0.6,2.6-2.1,3.9-2.6c2.4-0.8,3.9,1.8,5.9,1.3c1.9-0.5,2.9-3.2,3.7-4.8c0.3-0.6,0.2-1,0.6-1.8
				c0.3-0.3,1.1-0.2,1.3-0.3c0.5-0.8-0.3-1.6-0.2-2.1c0.6-1.4,3.7-1.8,4-3.7c0.2-1.3-1.3-4.3-2.1-5.5c-0.8-1.1-1.9-1.3-1.6-2.9
				c0-0.8,1.6-1.1,1.6-1.9c-0.2-1.9-3.7-1.4-5.3-1.9c-2.7-1-2.7-1.4-3.5-3.5c-0.5-1.4,0-2.1-1.4-3.1c-1-0.6-2.4,0.2-3.5-1.1
				c-1.4-1.4-0.8-3.9-2.2-5.3c-0.8-0.8-1.1-1.4-2.4-1.1c-1.6,0.5-0.6,1.8-1.6,2.2c-2.4,1.4-3.9-1.4-4-3.5c-0.3-1.4-0.3-1.3,0.3-2.9
				c0.6-1,1.6-0.8,1.4-2.1c-0.3-2.2-1.3-0.6-2.4-0.8c-1.8-0.2-2.7-1.6-4.7-1.9c-3.9-1-1.8,5.5-5.8,5.8c-0.6,0-4.5-0.6-5.1-1
				c-0.8-0.3-1.4-0.5-1.8-1.6c-0.5,0.6-1.9,3.1-2.7,3.4c-1.1,0.6-3-0.5-4,0c-2.1,1,0.2,1.3-0.3,2.9c-0.8,2.7-2.6,1.1-4,0.6
				c-1.8-0.5-2.7-0.5-4.2-1.8c-0.6-0.5-0.8-1.8-1.9-1.9c-1.3-0.2-0.8,1.3-1.8,1.6c-1,0.2-4.2-0.8-5.1,0.2c-1.1,1.3,0.6,2.6,0.5,4
				c0-0.3-1.3,2.7-1.3,2.6c-0.8,1-1,1.6-2.4,0.6s-1-5-2.7-1.4c-0.5,0.8,0.3,2.2-0.8,3.1c-1.1,1-1.8-0.5-2.7-0.5
				c-3.1,0-1.4,1.4-1.6,3.7c-0.2,1.4-0.5,2.2-1.6,3.1c-0.5,0.3-1.4-0.2-1.8,0.2c-0.3,0.3-0.3,1.1-0.6,1.3c-0.3,0.2,0,1-0.5,1.3
				c-0.3,0.2-1.1-0.3-1.4,0c-1,0.8-1.1-0.3-1.4,1.3c-0.3,2.2,2.3,3.1,1.1,5.9c-0.8,2.4-2.9,1.9-3.4,4.2c-0.3-0.2-0.5-0.3-0.6-0.5
				c-3.4,2.7,0.3,2.7,2.1,4.8c3.1,3.7-1.6,3.2-3.4,5c-1,1-1.9,3.9-1.9,5.3c0,2.1,1,3.5,0.8,5.8c-0.3,2.9,0,3.4,1.9,5.6
				c1.4,1.8,1.3,4,2.6,5.6c1.8,2.1,2.4-0.2,4.7-0.2c2.1,0.2,3.7,3.1,5.1,4.2c1.3,1,2.1,1.3,2.7,2.7c0.5,0.8,0.2,1.8,1,2.4
				c1.8-2.7,2.7,0.2,3.7,1.6c0.6,1,0.2,1.9,1.8,1.6c1.3-0.2,1.4-1.6,1.3-2.6c-0.5-2.4-2.9-2.9-2.1-5.9c0.8-2.4,0.9-2.2,3.4-2.2
				L970.1,418.4z"/>
		</g>
		<polygon fill="#3A3A3A" points="1006.6,445.8 1007.5,446.4 1007.5,448.5 1008.6,450.3 1007.6,452.1 1005.2,453.6 1001.4,453.6 
			998.7,452.5 998.7,451.7 994.2,452.3 994.2,451.2 991.7,449.7 990.4,449.7 988.2,448.6 986.1,446.9 985.5,445.8 983.9,443.7 
			982.9,442.6 982.9,440.9 983.9,440.1 984.9,441.4 986.8,443.5 988,442.6 988.9,444.1 988.9,445 991.1,445.5 992.8,445.2 
			994.1,445.6 995.8,446.8 997.3,446.8 997.6,445.4 998.8,445.3 999.8,446.2 1001.2,446.8 1003.6,446.8 1004.8,445.6 		"/>
		<polygon fill="#565656" points="983.8,420.7 981.9,420.9 981.6,424.9 981.4,432.3 982.6,436.7 984.5,436.5 984.5,428.6 
			984.2,424.7 		"/>
		<path fill="#3A3A3A" d="M1015.2,406.5l-4.6-1.3l-5.3,0.6l-1.3,1.8l4.7-1.2l1.7,0.8l2.8,0.4l0.7,0.8
			C1013.8,408.4,1015.6,408.3,1015.2,406.5z"/>
		<path fill="#FFFFFF" d="M1004.5,408.8h7.4c0,0,0.1,2.6-1.3,3.1C1009.3,412.2,1004.5,408.8,1004.5,408.8z"/>
		<path fill="#FFFFFF" d="M1008.8,432.4c0,0,0.9,1.5,0.8,2c0,0.2-0.8,0.5-0.8,0.5s-3.1-0.6-5.8-0.2c-2.6,0.4-5,3.6-8.6,2.5
			c-3.6-1.1-3.3-6.6-1.9-7.4s2.8-2.1,5.7-1.5c2.9,0.6,6.1,3.9,8.9,3.8C1007.3,432.1,1006.9,432.2,1008.8,432.4z"/>
		<path d="M1008.8,408.8c0,0,0.8-0.1,1,1.3c0,0.3-0.1,1.1-0.9,1.3c-1.4-0.3-4.3-2.6-4.3-2.6H1008.8L1008.8,408.8z"/>
	</g>
	<g>
		<path fill="#BACAD1" d="M947.3,450.9c-1.4,0.2-1.6,1.4-1.8,2.7c-0.5,3.9,5.3,4.8,8.2,6.1c4,1.8,7.9,3.2,11.6,5.5
			c3.9,2.4,6.6,5.6,9.2,9.3c2.2,3.1,5.9,9,10.3,8.5c-0.8-3.1-1-6.4-1.3-9.6c-0.2-1.4,0.2-3.5-0.5-4.8c-0.8-1.9-3.7-3.4-5.3-4.7
			c-3.4-2.2-6.4-5-10.1-6.7C961.7,454.3,953.7,450.9,947.3,450.9L947.3,450.9z"/>
	</g>
	<g>
		<path fill="#BACAD1" d="M947.4,454.9c-7.1,8.6-18.6,9.3-25,17.8c-5.7,7.1-6.4,17.1-7.1,25c-2.1,18.6-9.3,30.7-17.1,46.4
			c-13.6,27.8-17.8,59.2-20,89.2c-0.7,5.7-2.1,18.6,1.4,23.5c6.4,10,25.7,0,30-9.3c5-10,3.6-17.1,17.8-15.7c5,0.7,9.3,5,14.3,5
			c7.1,0,11.4-8.6,18.6-2.1c3.6-16.4,9.3-30.7,8.6-48.5c-0.7-17.8,1.4-29.3,8.6-45.7c15-36.4,16.4-69.9-27.1-82.8L947.4,454.9z"/>
	</g>
	<g>
		<path fill="#C1A868" d="M1012.1,579.8c-5.8,1.4-15.5,8.3-10,15.8c3.8,5.8,18.2,7.6,24.4,8.6c7.2,1.8,14.4,3.2,21.3,5.8
			c9.3,3.6,9.6,13,20.3,14.7c-1.7,2.5-5.2,2.9-7.2,4.7c2.1,0.7,5.5,0,7.6-0.4c2.7-0.7,8.2-1.4,10.6-3.2c4.1-3.2,2.7-7.9,1.4-13.3
			c-2.7-8.6-10.6-10.4-18.9-11.5c-5.2-1.1-6.5-2.9-11-4.7c-3.4-1.8-7.9-1.8-11.7-4c-7.9-4-15.1-9-22.7-13.7L1012.1,579.8z"/>
	</g>
	<g>
		<path fill="#BACAD1" d="M942.9,507.7c7.4,20,15.5,40,24.1,59.2c4.4,10.7,8.5,18.5,18.9,24.8c4.4,2.6,10.4,3,14.4,5.6
			c4.8,3.3-0.4,5.6,6.3,8.5c6.7,2.6,7.8-0.7,10-6.3c2.2-5.2,5.9-8.9,8.5-14.1c2.2-4.4,0.4-10.7-5.9-11.1c-2.6-0.4-2.6,2.6-5.2,2.2
			c-2.2,0-4.8-3.3-6.3-4.8c-8.1-7.8-15.5-15.2-20.4-25.5c-3-7-6.3-14.4-8.9-21.5c-4.1-10.4-5.2-21.5-8.1-32.2
			c-5.2-17.4-23.7-3.7-27,7.8L942.9,507.7z"/>
	</g>
	<g>
		<path fill="#BACAD1" d="M977.3,490.6c-0.6,8.9,5.5,20.8,9.2,29.4c3.2,6.8,7,13.4,11.2,19.8c2.4,3.6,4.4,7.5,7.5,10.6
			c4,4.3,9.8,7,14.1,11.1c1.2,1.2,3.9,5.2,5.9,5.3c3.3,0.5,3.2-2.4,5.8-2.2c1,0.1,4.1,2.6,4.7,3.2c2.8,2.8,2.8,2.5,0.9,5.2
			c-2.6,3.5-8,5.5-11.5,8.1c-2.8,2.7-5.1,6.5-7,9.3c-2.3-0.5-5.1-2.4-6.7-3.9c-2.4-3.3,0.5-2.8-0.3-5.5c-0.8-3.2-8.8-7.2-11.9-9.5
			c-7.9-5.2-12.2-10.9-17-17.9c-10.2-15.1-19.3-31-26.8-46.8c-2.6-5.1-3.3-9.7,2-13.6c2.8-2.1,6.1-1.6,9.2-2.8
			c3.4-1.5,4.6-4.5,8-5.7L977.3,490.6z"/>
	</g>
	<g>
		<path fill="#0B4C2A" d="M976.3,851.3c-3.9,6.1-16.1,12.5-11.2,22.2c3.2,6.7,15.1,10.6,20.9,15.1c12.5,10,25.4,24.7,42.4,26.7
			c8.4,1,4.2-8.4,1-12.8c-4.8-7.4-13.8-10.9-19.3-18.3c-2.3-3.2-4.2-6.4-5.5-10.3c-1-2.9-0.9-10.6-3.1-13.2
			c-2.2-2.6-8.1-0.7-11.3-2.6c-3.5-1.9-9.7-6.4-13.5-7.7L976.3,851.3z"/>
	</g>
	<path fill="#FFFFFF" d="M963.9,866.9c0,0,0.5,9.3,16.3,16.3c10.8,5.8,12.3,7.5,14.1,10.4c2.3,3.7,16,13.7,17,14.3
		c0.9,0.6,19.4,10.3,21.8,5.6c0,0,0.4,2.4-1.8,4.6c-2.3,2.2-19.2-4.3-20.7-6.9c0,0-11.3-5-17.1-13.3c-3.4-3.9-4.1-5.2-15.5-12.2
		c-8.9-4.2-15.8-9.3-15.8-12.3c0-2.9,0.3-2.5,0.3-2.5L963.9,866.9z"/>
	<g id="fuel_x5F_cylinder" display="none">
		
			<rect x="661.3" y="822.6" transform="matrix(-0.9876 -0.1573 0.1573 -0.9876 1207.1086 1747.1897)" display="inline" width="22.7" height="6.4"/>
		<path display="inline" fill="#891919" d="M841.1,875.2l-154.6-24.6c-14.1-6.4-11-41.4,7.2-45l154.6,24.6
			C860.8,832.7,853.7,876.8,841.1,875.2z"/>
		
			<linearGradient id="flame_x5F_2_1_" gradientUnits="userSpaceOnUse" x1="778.9888" y1="-73.7236" x2="911.5" y2="-73.7236" gradientTransform="matrix(1 0 0 -1 -256 735)">
			<stop  offset="0" style="stop-color:#F7931E"/>
			<stop  offset="7.339609e-002" style="stop-color:#F9AE16"/>
			<stop  offset="0.2306" style="stop-color:#FEF403"/>
			<stop  offset="0.2548" style="stop-color:#FFFF00"/>
			<stop  offset="0.3138" style="stop-color:#FFFF2F"/>
			<stop  offset="0.401" style="stop-color:#FFFF6D"/>
			<stop  offset="0.4846" style="stop-color:#FFFFA1"/>
			<stop  offset="0.5622" style="stop-color:#FFFFCA"/>
			<stop  offset="0.6326" style="stop-color:#FFFFE7"/>
			<stop  offset="0.6933" style="stop-color:#FFFFF9"/>
			<stop  offset="0.7375" style="stop-color:#FFFFFF"/>
			<stop  offset="0.7941" style="stop-color:#FCFDFF"/>
			<stop  offset="0.8394" style="stop-color:#F2F8FF"/>
			<stop  offset="0.8807" style="stop-color:#E1EEFF"/>
			<stop  offset="0.9197" style="stop-color:#C9E1FF"/>
			<stop  offset="0.957" style="stop-color:#ABD0FF"/>
			<stop  offset="0.9927" style="stop-color:#86BBFF"/>
			<stop  offset="1" style="stop-color:#7DB6FF"/>
		</linearGradient>
		<path id="flame_x5F_2" display="inline" fill="url(#flame_x5F_2_1_)" d="M654.2,826.6c0,0-106.5,5.3-129.4-15.6
			c-3.6-3.3-1.4-14.9,2.8-17.3c26.3-15.4,127.9,25.7,127.9,25.7L654.2,826.6z"/>
		
			<linearGradient id="flame_x5F_1_2_" gradientUnits="userSpaceOnUse" x1="111.3691" y1="32.8071" x2="243.8091" y2="32.8071" gradientTransform="matrix(0.5095 -7.810000e-002 7.810000e-002 -0.9876 529.5502 860.3091)">
			<stop  offset="0" style="stop-color:#FFFF16"/>
			<stop  offset="0.3282" style="stop-color:#FFFF18"/>
			<stop  offset="0.4464" style="stop-color:#FFFF1F"/>
			<stop  offset="0.5307" style="stop-color:#FFFF2A"/>
			<stop  offset="0.5988" style="stop-color:#FFFF3B"/>
			<stop  offset="0.6572" style="stop-color:#FFFF51"/>
			<stop  offset="0.709" style="stop-color:#FFFF6D"/>
			<stop  offset="0.7557" style="stop-color:#FFFF8D"/>
			<stop  offset="0.7987" style="stop-color:#FFFFB3"/>
			<stop  offset="0.837" style="stop-color:#FFFFDC"/>
			<stop  offset="0.8649" style="stop-color:#FFFFFF"/>
			<stop  offset="0.8851" style="stop-color:#F3F8FF"/>
			<stop  offset="0.9217" style="stop-color:#D3E6FF"/>
			<stop  offset="0.97" style="stop-color:#A0CAFF"/>
			<stop  offset="1" style="stop-color:#7DB6FF"/>
		</linearGradient>
		<path id="flame_x5F_1_1_" display="inline" fill="url(#flame_x5F_1_2_)" d="M654.3,826.6c0,0-54.7,13.6-64.7-5.3
			c-1.6-3,0.5-14.6,2.8-17.3c14.6-17.2,63.1,15.4,63.1,15.4L654.3,826.6z"/>
	</g>
</g>
<g id="characters_x5F_outdoor_x5F_fills">
	<g id="Proto-type">
	</g>
</g>
</svg>
