<?xml version="1.0" encoding="utf-8"?>
<!-- Generator: Adobe Illustrator 16.0.0, SVG Export Plug-In . SVG Version: 6.00 Build 0)  -->
<!DOCTYPE svg PUBLIC "-//W3C//DTD SVG 1.1//EN" "http://www.w3.org/Graphics/SVG/1.1/DTD/svg11.dtd">
<svg version="1.1" id="Layer_1" xmlns="http://www.w3.org/2000/svg" xmlns:xlink="http://www.w3.org/1999/xlink" x="0px" y="0px"
	 width="750px" height="1334px" viewBox="0 0 750 1334" enable-background="new 0 0 750 1334" xml:space="preserve">
<g id="page_x5F_fills_x5F_blue">
	<rect id="fill_x5F_2" x="-604.4" y="254" display="none" fill="#CCD9ED" width="1920" height="1080"/>
	<rect fill="#CCD9ED" width="750" height="1334"/>
</g>
<g id="wall_x5F_fill">
	<rect id="wall_x5F_fill_x5F_1_3_" x="606.7" fill="#E5E5B5" width="142.8" height="1215"/>
</g>
<g id="wall_x5F_frames">
	<rect x="665.8" y="511" fill="#CCD9ED" width="38.1" height="688"/>
	<rect x="606.7" y="486" fill="#CCD9ED" width="143.3" height="38.1"/>
	<rect x="607.6" y="893" fill="#CCD9ED" width="142.4" height="38.1"/>
</g>
<g id="ground_x5F_roof">
	<rect id="ground_x5F_fill_1_" x="0.2" y="1195" fill="#353229" width="749.8" height="139"/>
	<polygon id="roof_x5F_1" display="none" fill="#353229" points="775.6,510.9 336.1,511 568.1,391.8 775.6,391.7 	"/>
</g>
<g id="characters_x5F_outdoor_x5F_fills">
	<g id="discovery">
		<g id="joe">
			<path fill="#333333" d="M577.9,582.8c0,0,24.4,10.1,17.3,28.5l-18.2-6.1L577.9,582.8z"/>
			<path fill="#333333" d="M555.2,584.9l-1.7,22.3c0,0-13,2.4-18.9,4.6c-0.2,3.3-0.2,2.8-0.9,6.4
				C528.7,618.5,518.6,591.9,555.2,584.9z"/>
			<path fill="#B5A84E" d="M498.8,1168.3l9.6-3.2l11.5,2.8l6.9,2.7l4.7-0.7l-3.1,9.9l2.4,12.5c0,0-5.5-1.4-7.8,5.6
				c-5.1-3.6-7.1-3.2-7.1-3.2s-4.2-0.2-4.6,3.5c-2.1-3.5-5.1-1.9-5.1-1.9l-3.6,0.2l-2.8,2.4l-3.5-0.9l-3,1.1l-2.7-2.5l-2.1-1.1
				l9.9-11.4l2.3-7.8L498.8,1168.3z"/>
			<path fill="#B5A84E" d="M562.1,1158.7l-2.1,6.4l2.1,9.5l-0.8,6.1l-1.2,1.8l6.9,8.8l6.9,0.2l2.9,2.4l6.4-1.1c0,0,2.8,0.1,3.4,2.9
				c3.1-0.8,4.8,0.2,4.8,0.2l2.4,1.3c0,0,2.8-5.1,3.9-3.5c1.1,1.6-11.6-10.7-9.5-25.9c-1.8-2-9.3-2.8-9.3-2.8l-11.6,0.6
				L562.1,1158.7z"/>
			<path fill="#CEC361" d="M487.7,1196.1c0,0-7.2,5.3,1,6.6C492.2,1203.2,492.2,1196.6,487.7,1196.1z"/>
			<path fill="#CEC361" d="M522.4,1199.1c0,0,2.8,4.9,6.4,4.9c1.9,0,3.6-0.6,5.9-5.6c2-4.2-3-7.5-7.3-6
				C525.2,1193.2,523.5,1196.3,522.4,1199.1z"/>
			<path fill="#CEC361" d="M559,1199.1c0,0,5.5,0.2,6.9-2.8c0.7-1.5,0.9-3.2-2.6-7.7c-2.9-3.8-7.8-1.4-8.2,2.9
				C554.9,1193.8,557,1196.8,559,1199.1z"/>
			<path fill="#CEC361" d="M496.4,1197.2c0,0-7.2,5.3,1,6.6C501,1204.4,500.9,1197.7,496.4,1197.2z"/>
			<path fill="#CEC361" d="M589.4,1194.7c0,0-7.2,5.3,1,6.6C593.9,1201.8,593.9,1195.1,589.4,1194.7z"/>
			<path fill="#CEC361" d="M597.5,1194c0,0-7.2,5.3,1,6.6C602,1201.2,602,1194.5,597.5,1194z"/>
			<path fill="#CEC361" d="M505.2,1195.4c0,0-10,5.5,1.3,6.9C511.5,1202.9,511.5,1195.9,505.2,1195.4z"/>
			<path fill="#CEC361" d="M580.9,1192.5c0,0-10,5.5,1.3,6.9C587.2,1200,587.1,1193,580.9,1192.5z"/>
			<path fill="#CEC361" d="M511.7,1197.5c0,0,4.6,10.9,9.9,2.6C524,1196.4,514.3,1192.7,511.7,1197.5z"/>
			<path fill="#CEC361" d="M566.3,1193.4c0,0,4.6,10.9,9.9,2.6C578.6,1192.3,568.9,1188.6,566.3,1193.4z"/>
			<path fill="#005A99" d="M665.2,734.5c-3.3-27.8-17.8-78.7-27.5-90.5c-8.1-12.9-25.7-22.5-25.7-22.5c1.7,0.4-2.4-18.7-2.4-18.7
				c-5.7-20.5-32.6-22.1-32.6-22.1v5.6c0,0,9.7-1.3,15.8,10.2c6.1,11.5-4.9,27.5-4.9,27.5l-10.8,13.9l-7.5,30.9
				c-2.4,3.2-2.6,22.3-0.8,25.7s1.8,41.6,1.8,41.6c2.3,45.4-9.8,74-9.8,74c-9,23.3-2,28.3-2,28.3c11,10.2,33.2,10.1,33.2,10.1
				c23.4,2.1,20.7,19.1,20.7,19.1c5-5,5.2-46,5.2-46s30.8-20.2,42.4-38C665,772.6,669.2,768.6,665.2,734.5z M618.8,781.6l1.5-95.8
				c0,0,10.9,37.5,12.4,74.3C628.6,769.5,618.8,781.6,618.8,781.6z"/>
			<g>
				<path fill="#005A99" d="M551.9,584.1l-3-3.5c0,0-26,3.1-36.8,30.8l0.1,5.3c0,0-17.8,10.1-24.5,14.9c-10.4,7.5-21.2,31-30.5,51.5
					c-12.3,27.1-17.5,71-17.5,82.5c6,15.9,8.7,22.7,24.5,34c9.1,6.6,21,9.2,21,9.2l-8.1,25.7c-4.7,33,11.9,25.6,11.9,25.6l-0.7-0.9
					c-7.4-17.5,23.5-11.5,31.1-16.5c7.6-5,11.8-27.1,11.8-27.1c4.9-17.3-4.1-42.9-4.3-43.6c-0.1-0.7-3.3-15.6-3.6-20.8
					c-0.8-17.2-0.5-7.1,0.6-29.5c0.6-13.4,2-31.6,11.9-52.1c9.9-20.5,14.3-26.1,9.5-36.8s-12-11.3-15.8-22.4c-3.8-11,9-21.1,20.6-23
					c0.1,0,0.2,0,0.2,0c-0.1,0,2.4-0.6,2.4-0.6L551.9,584.1z M474.4,748.8c4-21.2,24-73.3,24-73.3c2.3,6.3-8.3,98.8-8.3,98.8
					C471.3,766.2,474.4,748.8,474.4,748.8z"/>
			</g>
			<g>
				<path fill="#3A3A3A" d="M591.3,527c5.7-0.6,7.3,8.7,7.4,12.6c0.3,5.7-1.7,10.7-3.9,15.8c-2.1,4.4-4.9,7.9-7.1,12
					c-1.1,1.7-1.1,4.3-2.5,5.8c-0.6,0.8-5.5,4.3-6.5,4.3c-0.2,0.2-0.7,0.2-0.9,0.3c-0.3-3.2-0.4-6.6,0.4-9.8
					c0.9-3.9,2.2-7.1,2.4-11.2c0.3-6.5-0.8-14.8,0.6-21.2c0.6-3.2,4.1-4.1,6.8-5.8L591.3,527z"/>
			</g>
			<path fill="#CEC361" d="M543.6,610.3c-4,5,4.7,14.6,20.5,14c17.6-0.7,20.3-9.9,21.2-14.6c0.5-2.8-5.7-2.9-7-4.6
				c-1.7-2.1-1-7.8-0.9-10.5c0.1-2.5,2.4-25.3,2.4-25.3l-27.6,15.6c0,0,3.5,15.5-0.6,20.8C550,607.7,545.1,608.4,543.6,610.3z"/>
			<path fill="#2D2D2D" d="M485.5,1203c0,0,5.7,12.4,44.9,2.4c0,0,4,4.4-4.6,8.9c-8.6,4.5-38,4.7-42.7-3.5
				C478.4,1202.5,485.2,1201.7,485.5,1203z"/>
			<path fill="#2D2D2D" d="M600.9,1201c0,0-5.7,11.4-42,0.9c0,0-3.8,4,4,8.4c7.8,4.4,35.4,5.5,40-2
				C607.5,1200.8,601.2,1199.8,600.9,1201z"/>
			<g>
				<path fill="#382947" d="M524,837.3c0,0,14.1-6.3,34.9,1.1c0,0,4.5,9.4,24.3,8.4c19.9-1,31.1,13.4,29,14.7l-2.1,9.6L609.8,984
					l-3.3,73.9c0,0-5.6,72.8-6.9,71.1c0,0-5.6,38.6-10.7,37.8c-5.1-0.8-6.9-2.7-17.7-1.2s-10.6-8.6-10-24.7l-9.6-137.7l-9.8-106.3
					l-1.2-0.5l-0.7,91.2l-1.6,74l-0.7,63.2l1.6,25.4c0,0,2.3,12.8-7.6,19.3c0,0-1.9,4.4-19.4-4.1c0,0-6.2-0.6-13.6,2.3
					c0,0-13.5-38.6-13.8-66.9c0,0-4.3-73.1-5.9-116.2c0,0-3.2-79.9,7.3-128.7c0,0,0.3-2.9,3.1-6.1c0,0,3.3-3.6,26-5.4
					C515.2,844.4,520.3,844.6,524,837.3z"/>
				<g>
					<path d="M501.9,873.9c-2.8,3.5-6.3,6.3-9.1,9.8c-1.4,1.8,1.1,4.3,2.5,2.5c2.8-3.5,6.3-6.3,9.1-9.8
						C505.8,874.6,503.3,872.1,501.9,873.9L501.9,873.9z"/>
				</g>
				<g>
					<path d="M492.2,879.2c1.8,3.1,3.5,6.2,6.2,8.6c1.7,1.5,4.2-1,2.5-2.5c-2.5-2.2-4-5.1-5.6-7.9
						C494.1,875.4,491.1,877.2,492.2,879.2L492.2,879.2z"/>
				</g>
				<g>
					<path d="M523.3,851.8c-1.4,2.1-2.9,4-4.4,5.9c-0.6,0.8-0.7,1.8,0,2.5c0.6,0.6,1.9,0.8,2.5,0c1.7-2.2,3.4-4.3,5-6.7
						C527.6,851.7,524.6,849.9,523.3,851.8L523.3,851.8z"/>
				</g>
				<g>
					<path d="M516.8,851.6c1,3.5,2.9,6.6,5.2,9.4c1.4,1.8,3.9-0.8,2.5-2.5c-1.9-2.3-3.5-5-4.3-7.9
						C519.6,848.4,516.2,849.4,516.8,851.6L516.8,851.6z"/>
				</g>
				<g>
					<path d="M587.7,867.6c-2.3,2.7-5.2,4.8-7.9,7.1c-1.7,1.5,0.8,4,2.5,2.5c2.7-2.3,5.5-4.4,7.9-7.1
						C591.7,868.4,589.2,865.9,587.7,867.6L587.7,867.6z"/>
				</g>
				<g>
					<path d="M578,868.5c2.1,2.9,4.2,5.8,6.3,8.7c1.3,1.8,4.4,0.1,3.1-1.8c-2.1-2.9-4.2-5.8-6.3-8.7
						C579.7,864.9,576.7,866.7,578,868.5L578,868.5z"/>
				</g>
				<g>
					<path d="M591.4,902.6c-1.7,3.9-4.8,6.7-8,9.5c-1.7,1.5,0.8,4,2.5,2.5c3.3-2.9,6.8-6,8.5-10.2
						C595.3,902.3,592.3,900.5,591.4,902.6L591.4,902.6z"/>
				</g>
				<g>
					<path d="M583,903.5c3.4,2.8,5.1,6.9,7.9,10.2c1.5,1.8,4-0.8,2.5-2.5c-2.8-3.3-4.4-7.4-7.9-10.2
						C583.7,899.6,581.2,902.1,583,903.5L583,903.5z"/>
				</g>
				<g>
					<path d="M564.8,922.3c-2.4,4.1-4.7,8.3-6.1,12.8c-0.7,2.2,2.8,3.1,3.4,0.9c1.3-4.3,3.5-8.1,5.7-12
						C569,922.1,565.9,920.3,564.8,922.3L564.8,922.3z"/>
				</g>
				<g>
					<path d="M558.4,930.6c2.3,1.8,4.6,3.6,6.7,5.6c1.6,1.6,4.1-0.9,2.5-2.5c-2.3-2.3-4.9-4.2-7.4-6.2
						C558.3,926.1,556.6,929.2,558.4,930.6L558.4,930.6z"/>
				</g>
				<g>
					<path d="M551.3,868.5c-2.7,2.1-5.1,4.4-7.1,7.1c-0.6,0.8-0.1,2,0.6,2.4c0.9,0.5,1.8,0.1,2.4-0.6c1.7-2.2,3.7-4.2,5.9-5.9
						c0.8-0.6,1.2-1.5,0.6-2.4C553.3,868.4,552,867.9,551.3,868.5L551.3,868.5z"/>
				</g>
				<g>
					<path d="M541.8,873.9c3.2,1.6,6.3,3.5,9.4,5.3c2,1.2,3.7-1.9,1.8-3.1c-3.1-1.9-6.2-3.7-9.4-5.3
						C541.6,869.8,539.8,872.9,541.8,873.9L541.8,873.9z"/>
				</g>
				<g>
					<path d="M521.7,946.5c-1.7,2.8-3.6,5.4-5.6,7.9c-1.4,1.8,1.1,4.3,2.5,2.5c2.2-2.8,4.3-5.6,6.2-8.6
						C526,946.3,522.9,944.5,521.7,946.5L521.7,946.5z"/>
				</g>
				<g>
					<path d="M514.9,948.6c3,3.1,5.6,6.6,8.9,9.4c1.7,1.5,4.2-1,2.5-2.5c-3.3-2.8-5.8-6.4-8.9-9.4
						C515.8,944.5,513.3,947,514.9,948.6L514.9,948.6z"/>
				</g>
				<g>
					<path d="M490.8,929.2c-1.2,3.1-2.3,6.3-3.5,9.4c-0.8,2.1,2.6,3,3.4,0.9c1.2-3.1,2.3-6.3,3.5-9.4
						C495.1,928,491.7,927.1,490.8,929.2L490.8,929.2z"/>
				</g>
				<g>
					<path d="M486.3,932.9c2.7,1.6,5.2,3.4,7.7,5.3c1.8,1.4,3.6-1.7,1.8-3.1c-2.5-1.9-5-3.7-7.7-5.3
						C486.2,928.7,484.4,931.8,486.3,932.9L486.3,932.9z"/>
				</g>
				<g>
					<path d="M531,1007.7c-1.2,3.4-2.7,6.5-4.5,9.6c-1.2,2,1.9,3.8,3.1,1.8c2-3.3,3.6-6.8,4.9-10.5
						C535.1,1006.5,531.7,1005.5,531,1007.7L531,1007.7z"/>
				</g>
				<g>
					<path d="M523.8,1008.8c3.5,3,5.9,7.1,8.9,10.6c1.4,1.8,3.9-0.8,2.5-2.5c-2.9-3.6-5.3-7.6-8.9-10.6
						C524.5,1004.8,522,1007.3,523.8,1008.8L523.8,1008.8z"/>
				</g>
				<g>
					<path d="M573.1,991.9c-1.9,4.4-4.7,8.3-7.1,12.4c-1.1,2,1.9,3.8,3.1,1.8c2.4-4.1,5.1-8,7.1-12.4
						C577.1,991.6,574,989.8,573.1,991.9L573.1,991.9z"/>
				</g>
				<g>
					<path d="M564.3,999.7c2.8,1.7,5.6,3.4,8.3,5.3c1.8,1.4,3.6-1.7,1.8-3.1c-2.6-1.9-5.5-3.6-8.3-5.3
						C564.1,995.4,562.3,998.5,564.3,999.7L564.3,999.7z"/>
				</g>
				<g>
					<path d="M590.8,953.5c-2.5,3.7-4.9,7.4-7.1,11.2c-1.1,2,1.9,3.8,3.1,1.8c2.2-3.8,4.6-7.5,7.1-11.2
						C595.1,953.4,592,951.7,590.8,953.5L590.8,953.5z"/>
				</g>
				<g>
					<path d="M582.2,962.8c1.9,1.8,4.1,3,6.3,4.4c1.9,1.3,3.7-1.8,1.8-3.1c-1.9-1.2-3.9-2.3-5.5-3.9
						C583.1,958.7,580.6,961.2,582.2,962.8L582.2,962.8z"/>
				</g>
				<g>
					<path d="M601.2,1028.8c0,4.8,0,9.6-1.1,14.3c-0.5,2.2,2.9,3.2,3.4,0.9c1.2-5,1.2-10.1,1.2-15.2
						C604.7,1026.5,601.2,1026.5,601.2,1028.8L601.2,1028.8z"/>
				</g>
				<g>
					<path d="M600,1039.4c2,0,3.9,0,5.9,0c2.3,0,2.3-3.5,0-3.5c-2,0-3.9,0-5.9,0C597.7,1035.9,597.7,1039.4,600,1039.4L600,1039.4z"
						/>
				</g>
				<g>
					<path d="M576,1048.6c-2.4,4.1-5.3,7.7-7.7,11.8c-1.2,2,1.9,3.8,3.1,1.8c2.4-4.1,5.3-7.7,7.7-11.8
						C580.2,1048.4,577.2,1046.6,576,1048.6L576,1048.6z"/>
				</g>
				<g>
					<path d="M567.8,1053.4c3.7,2.7,6.8,6.2,10.3,9.2c1.7,1.5,4.2-1,2.5-2.5c-3.7-3.2-7-6.8-11-9.7
						C567.7,1049,566,1052,567.8,1053.4L567.8,1053.4z"/>
				</g>
				<g>
					<path d="M599.3,1098.4c-2.4,2.4-4.8,4.9-6.2,8c-0.9,2.1,2.2,3.9,3.1,1.8c1.2-2.9,3.4-5.1,5.6-7.3
						C603.4,1099.3,600.9,1096.8,599.3,1098.4L599.3,1098.4z"/>
				</g>
				<g>
					<path d="M590.5,1096.8c3,3.7,5.9,8,6.6,12.8c0.4,2.3,3.8,1.3,3.4-0.9c-0.9-5.4-4.1-10.2-7.5-14.4
						C591.5,1092.5,589,1095,590.5,1096.8L590.5,1096.8z"/>
				</g>
				<g>
					<path d="M571.6,1129.8c0,4.7,0,9.4,0,14.2c0,2.3,3.5,2.3,3.5,0c0-4.7,0-9.4,0-14.2C575.2,1127.5,571.6,1127.5,571.6,1129.8
						L571.6,1129.8z"/>
				</g>
				<g>
					<path d="M571,1135.2c2.3,2.3,4.2,4.8,6.5,7.1c1.6,1.6,4.1-0.9,2.5-2.5c-2.3-2.3-4.2-4.8-6.5-7.1
						C571.9,1131,569.4,1133.5,571,1135.2L571,1135.2z"/>
				</g>
				<g>
					<path d="M569.9,1088.4c0,3.1,0,6.3,0,9.4c0,2.3,3.5,2.3,3.5,0c0-3.1,0-6.3,0-9.4C573.4,1086.2,569.9,1086.2,569.9,1088.4
						L569.9,1088.4z"/>
				</g>
				<g>
					<path d="M566.9,1094.3c3.4,0,6.8,0,10.2,0.5c2.2,0.3,3.2-3.1,0.9-3.4c-3.7-0.6-7.4-0.7-11.1-0.7
						C564.6,1090.8,564.6,1094.3,566.9,1094.3L566.9,1094.3z"/>
				</g>
				<g>
					<path d="M591.1,999.4c2.2,1.8,3.7,4.1,4.3,6.9c0.5,2.2,3.9,1.3,3.4-0.9c-0.7-3.3-2.5-6.4-5.2-8.5
						C591.8,995.5,589.3,998,591.1,999.4L591.1,999.4z"/>
				</g>
				<g>
					<path d="M594.6,1006.9c1.1-2.7,2.2-5.4,4.3-7.5c1.6-1.6-0.9-4.2-2.5-2.5c-2.5,2.6-3.9,5.8-5.2,9
						C590.3,1008,593.8,1009,594.6,1006.9L594.6,1006.9z"/>
				</g>
				<g>
					<path d="M517.9,975.7c0,3.6-0.6,7.1-2.1,10.3c-1,2.1,2.1,3.9,3.1,1.8c1.8-3.8,2.6-7.9,2.6-12.1
						C521.5,973.4,517.9,973.4,517.9,975.7L517.9,975.7z"/>
				</g>
				<g>
					<path d="M514.4,981.6c3.1,0.1,5.9,1.2,8.6,2.7c2,1.1,3.8-1.9,1.8-3.1c-3.2-1.8-6.7-3.1-10.3-3.2
						C512.1,978,512.1,981.5,514.4,981.6L514.4,981.6z"/>
				</g>
				<g>
					<path d="M485.5,961.6c-0.6,3.6-1.2,7.2-2.4,10.6c-0.7,2.2,2.7,3.1,3.4,0.9c1.1-3.5,1.8-7,2.4-10.6
						C489.3,960.3,485.9,959.4,485.5,961.6L485.5,961.6z"/>
				</g>
				<g>
					<path d="M481.9,969.2c2.5,0,5.1,0.4,7.4,1.5c2.1,1,3.8-2.1,1.8-3.1c-2.9-1.4-6-2-9.2-2C479.6,965.6,479.6,969.2,481.9,969.2
						L481.9,969.2z"/>
				</g>
				<g>
					<path d="M487.8,999.3c0,2.6,0,5.1,0,7.7c0,2.3,3.5,2.3,3.5,0c0-2.6,0-5.1,0-7.7C491.4,997,487.8,997,487.8,999.3L487.8,999.3z"
						/>
				</g>
				<g>
					<path d="M486.6,1006.4c2,0,3.9,0,5.9,0c2.3,0,2.3-3.5,0-3.5c-2,0-3.9,0-5.9,0C484.4,1002.8,484.4,1006.4,486.6,1006.4
						L486.6,1006.4z"/>
				</g>
				<g>
					<path d="M528.2,1075.7c-3,1.9-5.8,4.1-8.9,5.9c-1.9,1.2-0.2,4.3,1.8,3.1c3-1.9,5.8-4.1,8.9-5.9
						C532,1077.6,530.2,1074.5,528.2,1075.7L528.2,1075.7z"/>
				</g>
				<g>
					<path d="M519,1079.1c3,2.4,5.6,5.1,7.4,8.5c1.1,2,4.1,0.2,3.1-1.8c-1.9-3.7-4.8-6.6-8-9.2
						C519.8,1075.1,517.3,1077.6,519,1079.1L519,1079.1z"/>
				</g>
				<g>
					<path d="M506.7,1025.3c0,3-0.5,6-1.1,9c-0.4,2.2,3,3.2,3.4,0.9c0.6-3.3,1.2-6.6,1.2-9.9C510.3,1023,506.7,1023,506.7,1025.3
						L506.7,1025.3z"/>
				</g>
				<g>
					<path d="M502,1033.5c4.1,0,8.3,0,12.4,0c2.3,0,2.3-3.5,0-3.5c-4.1,0-8.3,0-12.4,0C499.7,1030,499.7,1033.5,502,1033.5
						L502,1033.5z"/>
				</g>
				<g>
					<path d="M501.7,1053.9c-3,1.6-4.8,4.9-5.5,8.1c-0.5,2.2,2.9,3.2,3.4,0.9c0.5-2.4,1.7-4.8,3.9-6
						C505.5,1055.8,503.7,1052.8,501.7,1053.9L501.7,1053.9z"/>
				</g>
				<g>
					<path d="M495,1055.3c1.4,3.9,3.8,7.1,7,9.6c1.8,1.4,4.3-1.1,2.5-2.5c-2.7-2.2-4.9-4.8-6-8.1
						C497.6,1052.2,494.2,1053.1,495,1055.3L495,1055.3z"/>
				</g>
				<g>
					<path d="M496.5,1097c-2.5,5-4.8,10.1-6.5,15.4c-0.7,2.2,2.7,3.1,3.4,0.9c1.6-5,3.8-9.8,6.1-14.5
						C500.6,1096.7,497.5,1095,496.5,1097L496.5,1097z"/>
				</g>
				<g>
					<path d="M489.7,1103.5c4.3,0.9,6.6,5.2,9.8,7.8c1.8,1.4,4.3-1.1,2.5-2.5c-3.8-3.1-6.3-7.7-11.4-8.7
						C488.4,1099.7,487.5,1103.1,489.7,1103.5L489.7,1103.5z"/>
				</g>
				<g>
					<path d="M525.5,1121.4c-0.9,3.4-2.9,6.3-4.5,9.4c-1,2,2,3.8,3.1,1.8c1.7-3.4,4-6.5,4.9-10.3
						C529.4,1120.2,526,1119.2,525.5,1121.4L525.5,1121.4z"/>
				</g>
				<g>
					<path d="M519.2,1125.4c3.2,2.4,6.3,5.1,9.8,7.1c2,1.1,3.8-1.9,1.8-3.1c-3.5-2-6.6-4.6-9.8-7.1
						C519.2,1121,517.4,1124,519.2,1125.4L519.2,1125.4z"/>
				</g>
			</g>
			<path d="M522.7,1201.2c0,0-0.3-6.4,7.3-13.4l-1.1-2.4c0,0-3.4,1.9-6.5,8.6v2.1c0,0-16.6-16.4-25-10l-5.2,5.9
				c0,0,18.7-7.9,29.6,5.2l-0.1,4H522.7L522.7,1201.2z"/>
			<path d="M567.6,1195.4l0.6-4.3c0,0,10.3-9.5,27.2-1.1l-4.5-6.9c0,0-6.2-5.8-22.8,5.8l-1.5-0.4c0,0-3.1-8-5.4-7.8l-0.6,2.8
				c0,0,1.6,0.4,5.9,7.5l0.1,4.9L567.6,1195.4z"/>
			<g>
				<path fill="#CEC361" d="M537.7,525.3c-3.8,6.6-6.2,13.1-6.8,20.8c-0.2,2.5,1.4,6.9,1.8,10.4c0.2,1.9,0.1,5,0.3,6.4
					c1.6,9.6,5.7,14.8,9.9,23.7c2.1,4.7,3.2,10.6,9,11.2c4.9,0.5,8.9-1.5,12.5-4.4c15.2-15.5,16.1-25,18.7-38.6
					c1.9-10.3,0.2-16.8-7.9-23.8c-5-4.6-10.9-7.5-17.7-8.5c-3.9-0.6-12.6-2.5-16,0.1L537.7,525.3z"/>
			</g>
			<path fill="#FFFFFF" d="M528,553.7c0,0,7.5-5.6,21.1-1.4c0,0-1.2,7.5-2.3,7.1c0,0-6.6,3.3-15.8,1.1
				C530.9,560.6,527.8,558.6,528,553.7z"/>
			<path fill="#FFFFFF" d="M554.7,552.8c0,0,11.6-5.2,19.9,1.7c0,0,0.5,8.4-2.3,7.8c0,0-12.8,0.7-15.6-2.7
				C556.7,559.5,555.2,558,554.7,552.8z"/>
			<path d="M571.4,562.8c-5,0-13.4-0.3-15-2.5c-1.4-1.3-1.5-1.9-1.5-3.3c0-0.7-0.1-1.6-0.4-3c-0.2-0.3-1.1-1.5-2.5-1.5
				c-0.7,0-1.6,0.3-2.4,1c0,0.9-0.2,3.7-2.2,6c-1.2,1.4-8.1,2.4-12.2,2.4c-4.1,0-4.8-0.8-5.1-1.1c-2.5-2.9-2.7-7.1-2.7-7.3v-0.4
				l0.3-0.2c0.2-0.1,5.7-2.9,13-2.9c2.7,0,5.4,0.4,7.9,1.1c0.5-0.2,1.9-0.6,3.3-0.6c1.9,0,2.9,0.7,3.4,1.4c1.2-0.4,4.9-1.5,9.1-1.5
				c4.3,0,7.9,1.1,10.6,3.3l0.2,0.1v0.2c0.8,6.5-2.4,8.4-2.5,8.5l-0.1,0.1h-0.1C572.4,562.8,572,562.8,571.4,562.8z M555.3,553.2
				c0.1,0.1,0.1,0.2,0.1,0.2l0.1,0.2c0.3,1.6,0.4,2.6,0.5,3.3c0.1,1.2,0.1,1.5,1.3,2.6l0.1,0.1c0.8,1.3,6.4,2.1,14.1,2.1
				c0.3,0,0.6,0,0.7,0c0.5-0.4,2.5-2.2,1.9-7.1c-2.5-2-5.8-3-9.7-3C559.9,551.7,556,553,555.3,553.2z M528.5,553.7
				c0.1,1,0.5,4.1,2.4,6.2c0.3,0.4,1.6,0.7,4.2,0.7c4.8,0,10.7-1.2,11.4-2c2.1-2.5,1.9-5.5,1.9-5.5v-0.3l0.2-0.2
				c0.3-0.2,0.6-0.5,0.9-0.6c-0.5,0.1-0.8,0.2-0.8,0.2l-0.2,0.1l-0.2-0.1c-2.4-0.8-5-1.2-7.7-1.2
				C534.6,551.2,529.8,553.2,528.5,553.7z"/>
			<polyline points="546.8,595.1 552.6,596.1 560.3,594.2 560.3,595.8 558.1,597.5 554.3,598.8 553,599.9 549.2,598.9 548.2,597.5 
							"/>
			<polygon points="539.1,580.1 550.9,576.9 561.9,579.8 551.1,578.8 548.6,579 			"/>
			<path d="M536,546.2c0,0,7.6-1.7,9.9-0.5l-0.2,2c0,0-8.2,0.1-10.2,1.3l-0.6-1.4L536,546.2z"/>
			<path d="M560.6,545.4c0,0,10.2,0.1,12.4,2.8c0,0,0.4,2.4-2.2,1.7c-2.6-0.7-6-2.3-9.7-1.9l-0.5-1.1V545.4z"/>
			<g>
				<path fill="#CEC361" d="M580.9,552.9c9.4-4.9,9,6.6,4.8,12.5c-2.2,3.2-5.2,4.5-6.8,1.1c1.4-4,1.3-6.1,1.8-9L580.9,552.9z"/>
			</g>
			<g>
				<path fill="#3A3A3A" d="M564.8,530.1c-6.6-1.8-11.6,2.6-17.5,4.7c-4.3,1.3-6.4-0.3-10.2-0.5c-3.8-0.5-5.4,2.9-5.7,7.3
					c-7.8-4.2-4.5-21.5,0.9-26.5c3.8-3.4,9-4.7,13.5-6.3c4-1.6,7.8-5,12.3-5.5c6.4-1.3,12.3,2.1,18.2,4.7
					c5.2,2.4,13.5,4.5,16.6,10.5c1.9,3.7,1.4,6.3-0.9,8.9c-2.4,2.4-4,6-6.4,8.1c-2.4,2.1-5.7,2.4-8.8,1.8c-4-1-6.2-5.5-10-6.6
					L564.8,530.1z"/>
			</g>
			<g>
				<path fill="#3A3A3A" d="M582.1,537.3c-1.9,3-1.5,6.5-0.9,9.8c0.4,1.7,0.6,3.7,0.2,5.3c-0.2,1.2-2.7,5.4,0.1,5.4
					c0.8-3.7,3.8-6.3,4.4-10.1c0.5-3.4-0.9-6.4-2.1-9.6L582.1,537.3z"/>
			</g>
			<g>
				<path d="M546.1,582.5c5.8,0.1,12.4,2,17.7-1.2c0.4-0.2,0-0.9-0.4-0.6c-5.1,3.1-11.7,1.2-17.4,1.1
					C545.6,581.8,545.6,582.5,546.1,582.5L546.1,582.5z"/>
			</g>
		</g>
		<polygon fill="#5E523A" points="695.1,1198.9 590.4,1198.9 611,1126.9 590.4,1055.1 693.9,1055.1 674.2,1126.9 		"/>
		<polygon fill="#5E523A" points="473.4,1198.9 368.7,1198.9 389.4,1126.9 368.7,1055.1 473.4,1055.1 453.8,1126.9 		"/>
		<path fill="#605B1F" d="M521.5,1212.8c0,0-19.9,5.6-28.9,3.6c-8.9-2-25.3-0.1-29.5-2.8c-4.2-2.7,1.6-16,8.4-15.5
			s12.4-15,13.4-16.5s2.8-3.3,2.8-3.3l7.9-1.5c0,0-2.3,10-5.4,16.3c0,0,0.5-1,6.7,2.1c0,0,11.4-19.7,11.8-17.1
			c0.4,2.6,13.6,0.7,13.6,0.7s1.2,16.7,4.9,21c0.6,7.7-1.5,22.2-6.5,17.6L521.5,1212.8z"/>
		<path d="M491.2,1180l18.7,0.4l-8.1,18.6c0,0-6.4-6.6-12.8-4.4C482.6,1196.7,491.2,1180,491.2,1180z"/>
		<path fill="#353535" d="M464.2,1214.8l5.4,0.4l-4.6,2.9C464.9,1218.1,463.5,1215.9,464.2,1214.8z"/>
		<path fill="#353535" d="M493.8,1216.7c0,0,21.7-0.7,27.7-4c0,0,1.8,3.1,1.5,5.7c-0.3,2.6-9,5-21.4,6.5
			C489.2,1226.4,492.9,1219.3,493.8,1216.7z"/>
		<path fill="#FFFFFF" d="M400.3,831.4c0,0,17.6,35.8,53.8,3.3c0,0,0.8,4.2,21.9,8.3c13.4,4.4,16.1,23.8,18.3,24.2
			c9.9,10.6,28.6,24.2,30,32.6l-27.6,9.1L472,888.7c0,0-17.4,97.4-5.1,104.1c12.3,6.8-16.1,4.7-27.5,8.4c-8.9,2.9-14.5,8.7-14.5,8.7
			s-8.8,13.3-69.2-19.6c0,0,20.3-67.7,14.2-80.8s-24.4-1.2-24.4-1.2s5.3-50.8,18.3-60.8C379.4,836.9,400.3,831.4,400.3,831.4z"/>
		<path fill="#EEFF2F" d="M377.1,876.6c0,27,0.9,54.1,0.9,81.1c0,7.1,11,7.1,11,0c0-27-0.9-54.1-0.9-81.1
			C388.1,869.6,377.1,869.6,377.1,876.6L377.1,876.6z"/>
		<path fill="#DB2A00" d="M413.9,878.1c1.1,7.3-0.4,14.8-1,22.1c-0.7,8.2-0.7,16.5-1.5,24.7c-0.8,8.4-3,16.7-4.2,25.1
			c-1.1,8-1.7,16-1.7,24c0,7.1,10.9,7.1,11,0c0.1-16.7,4-32.6,5.9-49.1c1-8.2,1-16.5,1.5-24.7c0.5-8.5,1.9-16.5,0.6-25
			C423.5,868.2,412.9,871.2,413.9,878.1L413.9,878.1z"/>
		<path fill="#0057B6" d="M447.3,877.9c-2,26.1-12,50.5-17.2,76c-1.4,6.9,9.2,9.9,10.6,2.9c5.4-26.5,15.5-51.8,17.6-78.9
			C458.8,870.8,447.8,870.9,447.3,877.9L447.3,877.9z"/>
		<path fill="#C1A868" d="M366.8,882.6c0,0,6-0.4,10.2,6.8c4.2,7.2,0.2,0.3,0.2,0.3s6.6,1.7,6.7,2.6c0.1,0.9,1.7,8.9-4.2,9.2
			c-5.9,0.3-3.9,0.9-3.9,0.9s-3.5,9.6-12.5,10.1s-14.8,0.7-18.5-0.5c-3.7-1.2,4.3,22,7.7,26.1c3.4,4.1,13.1,29.3,13,32.2
			c-0.1,2.9-4.4,23-17,22.7s-16.4-12.8-17.6-27.1c0,0-4.2-24.3-3.2-45.8c0,0,2.1-14.7,5.2-18.1s8.1-6.9,10.1-7.3
			C345,894.2,358.9,881.6,366.8,882.6z"/>
		<path d="M588,997.1c0,0,98.6,10.2,103.7,0.6c0,0,12.3,19.4,9.1,27.9c0,0,3,6-3.2,18c-6.1,12-3.3,8.9-3.3,8.9s-28.9,11.2-43.8,4.9
			c0,0-1.6-3.2-15.2-2.3c-13.1,0.9-16.9,1.1-16.9,1.1l-42.7-8.4c0,0-7-8.7-6.6-14.5c0.4-5.8,6.9-19,7.8-19.2
			C578,1014,588,997.1,588,997.1z"/>
		<path fill="#29301E" d="M356.4,991.6c0,0,51.6,23.5,56.7,20c15.4,1,15.7-7.7,26.2-10.3c0,0,22.7,2.2,24.2-4.2
			c1.4-6.4,38.7,9.8,39.5,30.1c0,0,2.6,4.9,0,13.9c0,0,6.3,27.9,4.3,27.9s4.6,19.6,4.6,19.6s27.1,55.1,11.7,89.4
			c0,0-25.7,7.9-37.6-0.8c0,0-4.4-37.3-23.4-73.9c0,0-19.6-39-18.1-46.9l-30.9-1.4c0,0-17.7,4.6-30.2,1.1
			c-12.5-3.5-23.3,5.2-23.3,5.2s3,103.7-5,107.6c-12.4,22.8-36.6,11.8-46,18.5c0,0-24-57.3,1.5-147.9c0,0-10-10.9,20.2-36.8
			C330.8,1002.7,345.8,985.7,356.4,991.6z"/>
		<path fill="#5D6326" d="M494.1,1047.4l16.8,3.5c0,0,21.8,45.6,11.4,45.9c-10.4,0.3-9.8-5.4-9.8-5.4L494.1,1047.4z"/>
		<path fill="#353535" d="M332.3,1208.1c0,0,20.3-0.8,21.6-3c1.3-2.2,3.6,11.9-13.5,11.9C340.5,1217,329.7,1214.6,332.3,1208.1z"/>
		<path fill="#353535" d="M295.9,1207.5c0,0,9.3,5.2,20.5,2.4c-7.2,9.4-10.2,7.4-10.2,7.4S297.4,1215.9,295.9,1207.5z"/>
		<path fill="#605B1F" d="M306.7,1182.3l2.4,5.2l13.1-2.7l1.9,7.7c0,0,2.1-3.4,8.2-0.9c6.1,2.4,0,0.1,0,0.1s2.7-5.4,3.6-8.3
			c0,0,12.8-3.2,14.3-7.3c0,0,7.3,3.1,1.3,14.2c2.3,12.1,3.7,17.7,3.7,17.7s-53.4,8.7-59.5-1.5c4.3-7.1,6.4-6.7,6.4-6.7
			L306.7,1182.3z"/>
		<path d="M322.1,1184.8c0,0,7-2.1,12.7-1.1l-2.5,8.1l-8.2,0.8C324.1,1192.5,321.8,1190.2,322.1,1184.8z"/>
		<path d="M308.2,1217.2c0,0,10.6,4.6,31.5-0.1c-6.2,0.1-9.8-18.5-14.3-14.6C318.7,1200.9,315.3,1216.4,308.2,1217.2z"/>
		<path d="M464.9,1218.1c0,0,2.8,10.8,38.1,6.4c-8.8-4.5-19.7-21.5-23.1-19.1C470.5,1203.9,472.6,1216.6,464.9,1218.1z"/>
		<rect x="413.8" y="929.5" fill="#26241E" width="28" height="296"/>
		<path fill="#40001E" d="M625.1,849.1c0,0,6.6,12,22.1,11s21.8-8,21.8-11.8c0,0,6.2,6,18.4,8.2c12.2,2.2,24.2,10.9,22.2,21.9
			c-2.1,11,5.2,26.9,3.2,35.5c-2,8.5-3,9.5-3,9.5s-19.2,2.6-22.2-0.5c-3-3.1-7.9,11.4-7.9,11.4s-0.4,24.5,2.1,35.1
			c2.5,10.7,11.4,18.1,10.9,31.9c-0.4,13.9-87.4,12.8-105.3,0c1.6-16.4,17.1-32.9,19.2-45.4c0,0,1-16.6-3.3-19.6
			s-15.9-19.1-15.9-19.1H580l-7.5-18.1c0,0-2.4-29.1,9.5-35.6c0,0,7.1-4.9,20-7.2S624.8,851.3,625.1,849.1z"/>
		<path fill="#E5D295" d="M578.9,1048.5c0,0-11-6.9-6.9-18.8c1.6-4.6,5.7-9.9,15.8-10.9c16.4-2.2,25.3,0.3,27.7,2.6
			c1.2,1.1,11.7,0.5,12.7,12.6s-0.6,12.7-2.6,14.5s-8.3,7.7-8.3,7.7L578.9,1048.5z"/>
		<path fill="#E5D295" d="M690,1056.9c0,0,9.3-14,8.5-26s-26.1-13.3-25.3-11.6c0,0-25.4,2.9-26.8,18.5c-1.5,15.7,2.7,15.6,2.7,15.6
			l4,4.4L690,1056.9z"/>
		<g>
			<path fill="#C4C4C4" d="M579.1,1016.9l-2,2.8c0,0,45.8,1.8,52.3,3.7c0,0,0.2,1.3,2.7,0c2.6-1.3,47.4-6.8,47.5-5.8
				c0,0-0.3-3.3-1.9-3.1l-46.5,6.9l-2.5,0.1C628.8,1021.5,582.9,1015.4,579.1,1016.9z"/>
			<path fill="#FFFFFF" d="M606.5,995.3l23.4,3.7l30.9-7.6c0,0,16.5,16.7,16.5,20.7c0.1,4-47.2,8.8-47.2,8.8s-50.8-8.5-51.1-4.3
				C579.1,1016.6,590.8,1001.1,606.5,995.3z"/>
		</g>
		<path fill="#E5D295" d="M577.1,1035.7c0,0,9.5-18.5,20.9-12.4c11.4,6.1,19,11.5,19.7,15.3c0.7,3.9,1.7,16.5,0.8,20.5
			s-3,12.3-3,12.3s2.7,14.9,1.6,25.3c-1,10.4-7.4,44.5-7.4,44.5s-6.2,38.8-4.3,39.5c0,0-7.2,8.8-15.1,6c0,0-2.3-30.1-7.7-44.1
			c-5.4-14-12.4-76-5.5-92.5C577.1,1050.4,575.5,1041.4,577.1,1035.7z"/>
		<path fill="#E5D295" d="M656.4,1038.4c0,0,9-16.2,19.1-14.3c10.1,1.9,19.5,13,19.5,13s2,7.2,0,11.9s-1.3,11.1-1.3,11.1
			s9.5,13.7-0.8,58c-10.3,44.3-18.6,53-15,60c0,0-13.5,3.4-14.9-1.3c0,0,3.1-17.4-2.4-45.5c-5.5-28.1-5.1-51.1-1.4-64.8
			C659.3,1066.5,653,1054.4,656.4,1038.4z"/>
		<path fill="#E5D295" d="M688,933.5c0,0,22.7-2.6,22.6-0.8c-0.2,1.8,4.7,28.1,3.2,35c0,0,0.2,8.2-0.7,8.2c-0.9,0-5,11-18.5,15.6
			c-13.5,4.7-21.6,13-21.8,12l-2.9,1.1c0,0-1.1,6.3-3,9.5c-1.9,3.1,0,4.7-4.3,7.9c-4.3,3.2-19.8,6.1-19.8,6.1s-7.6,2.6-9.1-5.2
			c-1.5-7.8,0.6-9.5,0.6-9.5s-3.8,4.4-10.6,3.9s-1.4-3.7,0-4.7c1.4-0.9,5.7-3.1,7.5-5.8s5.1-4.7,5.1-4.7l5.6-3.4
			c0,0,9.4-7.6,17.1-7.4c0,0,18.4-6,31.6-23.7c0,0,2.5-3.6,4.1-5.5C694.5,962.3,689.3,934,688,933.5z"/>
		<ellipse id="table" fill="#26241E" cx="429.1" cy="929.5" rx="310.7" ry="14.6"/>
		<rect x="171.3" y="912.9" width="121.3" height="14.3"/>
		<rect x="299.2" y="819.5" transform="matrix(-0.9185 -0.3954 0.3954 -0.9185 235.4144 1788.6851)" width="5.7" height="101.1"/>
		<g>
			<path fill="#B75925" d="M237.3,890.5c0,0,14.5-8.3,30.1,0l1.6,38.4c0,0-15.6,7.3-31.6,0.8L237.3,890.5z"/>
			<path fill="#B75925" d="M237.3,896.6c0,0-12.3-4-13.2,7.6c-0.9,11.6-4.4,25.2,13.2,20.6v-4c0,0-10.4,4.1-10.5-3.5
				c0,0,1.1-14.7,1.8-15.8c0.9-1.3,2.3-2.8,8.7-0.4V896.6z"/>
		</g>
		<g>
			<path fill="#B75925" d="M386.1,883.5c0,0,11.6-7.7,30.1-1.4l0.2,38c0,0-18.5,0.5-30.5,0L386.1,883.5z"/>
			<path fill="#B75925" d="M385.7,885.5c0,0-6.2-1.5-9.1,4.7l4.3,0.7c0,0,0.9-3.9,4.9-2.2L385.7,885.5L385.7,885.5z"/>
			<path fill="#B75925" d="M385.4,908.4v3.6c0,0-10.6,4.1-9.7-9.5l2.9-0.2C378.6,902.3,376.9,911.2,385.4,908.4z"/>
		</g>
		<path fill="#C1A868" d="M520.8,899.1c0,0,18.9,14.4-1.4,18.1c-20.3,3.7-53.5-1.5-58.3-1.2c-5.4,0.3-44.9-1.3-44.9-1.3v-9.2
			c0,0,4.9-3.2,14.5-3.1c9.6,0.1,40.6-14.3,45.6-13.9C481.3,888.8,497,879,520.8,899.1z"/>
		<path fill="#5D6326" d="M310.6,1039.6l-24,13c0,0-4.9,39.7,2.1,44.3c7,4.5,11.7-5.3,11.7-5.3L310.6,1039.6z"/>
		<path fill="#29301E" d="M310.6,1039.6l-24,13l-0.7,7.3l21-1.2C306.8,1058.7,314.7,1040,310.6,1039.6z"/>
		<path fill="#29301E" d="M494.1,1047.4l16.8,3.5l4,8.8c0,0-13.1,3.2-18.2,2.8C491.6,1062.1,494.1,1047.4,494.1,1047.4z"/>
		<polygon fill="#C70011" points="618.6,810.2 592.8,747.5 596.2,746 620.7,810.3 		"/>
		<path fill="#E5D295" d="M578.4,919.6c0,0-16.9-13.4-7.7-56.1s7.7-51,7.7-51s4.9-21.7,20-26.4c15.1-4.7,21.1,1.2,21.6,1.4
			c0,0,5.2,11.5,3.9,16.6c-1.3,5-2.8,14.1-2.8,14.1s-5.3,5.1-6.6,4.7c-1.3-0.4,2.9-13.6,2.9-13.6s-1.3-4.6-6.7-7
			c-5.4-2.4-5.1,2-11.6-1.2H597c0,0-4.4,8.1-4.1,15.4c0.3,7.3-0.5,19.9,5.6,40.7c6,20.9-3.1,36.5-3.1,36.5L584.7,916l-2.2,3.7h-4.1
			V919.6z"/>
		<path fill="#B75925" d="M500.6,883.1c0,0,18.8-9.6,35.1-1.2l-2.2,39.6c0,0-27.5,7.7-33.8-0.6L500.6,883.1z"/>
		<g>
			<path fill="#B75925" d="M542.7,880.6c0,0,27.3-5.1,29.6,0l-0.3,40.2c0,0-10.4,6.7-29,1.1L542.7,880.6z"/>
			<path fill="#B75925" d="M572.9,885.6c0,0,12.6,0.6-0.3,27v-8.3c0,0,4.4-12.9,0-12.8L572.9,885.6z"/>
		</g>
		<path d="M589.1,1176l1.7,11.9c0,0,6-11.1,15.4-4.2l0.1,3.1c0,0,1.8-7.9,0-10.3s-0.5-5.3-0.5-5.3s5.7-0.2,9.8,10.1
			c4.1,10.3,1.4,7.9,8.5,12.7c7.2,4.9-3.3,11.1-3.9,11.4c-0.6,0.3-13.3,5.5-25.9,2c0,0-10.3-0.6-11.7-5.2
			C580.1,1194.1,586.5,1187.5,589.1,1176z"/>
		<path d="M663.1,1162.6c0,0,0.6,11.5,0,15.2c0,0,7.9-12.9,14.3,0.7c0,0-1-11.3,2.4-13.5c3.4-2.2,4.6,16.8,4.6,16.8
			s3.6,13.3-7.9,22.4c-11.5,9-15.9,9.9-23.2-4.3c0,0-3.8-10.2,2-16.2c5.6-5.8,3.7-8.5,3.8-12
			C659.4,1163.7,663.1,1162.6,663.1,1162.6z"/>
		<path fill="#353535" d="M582.1,1203.4c0,0,32.6,17.3,44.5-5.5c0,0,4.1-2,3.4,8.6c-0.7,10.5-35.6,15-45.1,5.4
			C584.9,1211.8,579.3,1210,582.1,1203.4z"/>
		<path fill="#353535" d="M651.7,1189.6c0,0-1.8,19.9,11.3,21.7s17.2-9.8,17.2-9.8s5.2-8.1,4.7-9.5c0,0-2.7,13.1-7.3,17.8
			c-2.2,2.2-4.8,6.6-10.7,7.3C659.3,1217.5,641.2,1207.4,651.7,1189.6z"/>
		<path fill="#353535" d="M587.7,1164.3c0,0,10.8-8.2,19.4-4.7c0,0-3.2,20.8-1.3,22.3c1.9,1.5-14.9,4.8-14.9,4.8L587.7,1164.3z"/>
		<path fill="#353535" d="M663.8,1155.8c0,0,17.9-5.6,18.5,0.3c0.6,5.9-4.3,22-4.3,22l-13.7,0.1l-1.2-1.4
			C663.1,1176.8,664.6,1158.7,663.8,1155.8z"/>
		<g id="sid_x5F_face">
			<path fill="#3A3A3A" d="M412.3,732.7c-3.6-0.1-3.3,1.9-6.9-2.5c-3.6-4.4-3.6,8.9-3.4,7.4c0,0,5.2,5-8.2,5.5c0,0,4.3,7.2-0.1,7.4
				c0,0-2-3.4-5.5-0.8c0,0-2.2,2.8,7.8,12.1c0,0-5.6,8.2,0.2,10.1c5.9,1.9-0.8-2.6,8.9-2.6c0,0-0.8-8.5,1.3-7.5c0,0,7.7-6.5,3.1-7.3
				c0,0,1.4-4.1,6-5c0,0,0-3.1,1.1-7"/>
			<path fill="#C1A868" d="M419.1,747l-6.6,1.3l-5.5,6.3l-4.3,6.1l0.6,13l-3.4,17.1l4.7,12.2l7.4,9.2l14.8,1.4l11.1-2.5l10.4-5.4
				c0,0,6.2-4.1,6.8-12.8c0.6-8.7-0.7-11.9-0.7-11.9l3.1-9.2L419.1,747z"/>
			<path fill="#C1A868" d="M400.9,831.8c0,0,1.3,13.9,24,14.3c7.7,0.1,21,1,28.5-11.9c0,0-8.7-4.6-9.4-9l0.7-18.8l-14.6,6.2
				l-14.2-0.4l0.1,11.7L400.9,831.8z"/>
			<path fill="#3A3A3A" d="M411.9,746.3c0,0,0.6-2.3,4.1,2.7c0,0,1.8,0.9,4.7,0c0,0,1.4,7.5,8.6,8.9c0,0,3.8,1.1,3.7-5.9l-2.1,6.5
				c0,0,0.4,2.5,2.1,2.5s3.2-0.2,4.4-0.5c1.3-0.3-1.5,7.1,0,5.6c0,0,3.7,2.1,4.4-0.5l2.1,1.4l8.3,5.4c0,0-0.7,2,4,1.8l-1,2.6
				l5.7-2.6l3.4,0.3c0,0-1.3-2.6,4-5.1c5.2-2.5,2.2-5.1,2.3-4.8c0.1,0.3-2.5-5,0.8-7c3.3-2-0.5-9.2-0.5-9.2l-0.5-3.8
				c0,0-6.6,1.9-3.9-3.5c2.7-5.5,0.8-6.3-5.6-11.2c-6.4-4.9-6.3,3.1-6.9,1.5c-0.6-1.7-5.9-4.4-5.9-4.4s-4.3,2.7-8.3,3
				c0,0-1.2-4.1-5.3-4.8s-3-4.2-3-4.2s-2.5-0.4-4,3s-4.5,5.6-4.9,5c-0.4-0.6-2.7-4.6-4.5-3.7c-1.8,1-4.1,4.2-3.5,5.1
				c0.6,1-2.5,7.7-5.1,7.2"/>
			<path fill="#C1A868" d="M457.3,774c0,0,5.1-2.8,5.9-2.2c0.8,0.5,4.7,2.3,0,11.1c0,0-6.2,7.2-7.8,6
				C455.4,788.8,455.5,775.7,457.3,774z"/>
			<polygon points="412.3,811.3 418.2,812.9 423.5,811.3 428.7,809.9 428.7,811.4 422.4,814.3 416.5,815.2 413.8,814.3 412.3,812.6 
							"/>
			<polygon fill="#3A3A3A" points="454.1,793.6 446.4,803.4 438.2,809.1 445.1,806.2 451.5,802.1 453.5,796.9 			"/>
			<polygon fill="#3A3A3A" points="453.6,771.6 457.3,772.3 455.4,784.6 453,784.6 			"/>
			<path fill="#FFFFFF" d="M407,797.2l14.2,1l7.8,0.2l7.8-0.6c0,0-8.1,3.1-16.1,3.5C409.5,801.9,407,797.2,407,797.2z"/>
			<path d="M425.4,767.8l6.1-0.2l6.5,0.9c0,0,2,1-0.3,2.2l-5.9-0.7l-4.6-0.2l-2.1,0.9l-1.2-1.3L425.4,767.8z"/>
			<path d="M412.5,768.6l-6-1L403,767c0,0-2,1.3,0.1,2.8h2.7l4.6,0.4l2,1.2l1.4-1.1L412.5,768.6z"/>
			<path fill="#FFFFFF" d="M402.9,775.3c-0.2,0.8,0,1.7,1,2.1c2.6,1.2,5.4,1.5,8.3,0.9c1.1-0.2,1.8-1.6,1.5-2.6
				c-1.2-4.4-5.6-4.7-9-3.2C403.3,773.4,403.2,774.1,402.9,775.3z"/>
			<path fill="#FFFFFF" d="M424.6,774.6c-1.2,1.7,0.2,4.1,2,4.7c1.3,0.4,2.9,0,4.2-0.2c1.3-0.2,2.5-0.5,3.8-1.1
				c1.3-0.6,2.7-1.4,2.8-3c0-1.5-1.2-2.3-2.4-2.7c-2.3-0.8-5.1-0.7-7.4-0.3C426.5,772.1,425.1,774,424.6,774.6z"/>
			<path d="M403.8,773.8c0,0.7-0.1,4.3,2.9,4.6c1,0,1.7-0.8,1.8-1.7c0.1-1.3-0.1-2.6-0.7-3.8c-0.6-1.1-1.2-0.8-2.2-0.8
				C404.6,772,403.8,772.8,403.8,773.8L403.8,773.8z"/>
			<path d="M424.9,774.6c0,1.1,0.1,2.1,0.3,3.2c0.2,0.8,1.7,1.3,2.1,1.4c0,0,0.9,0.4,2.4-1.2c1.7-1.7,2.2-4.5-0.4-5.6
				C428.2,771.9,424.9,772.5,424.9,774.6L424.9,774.6z"/>
		</g>
		<g id="anam_x5F_face_1_">
			<path fill="#E5D295" d="M625.4,848.8c-5.6,0.8,5.5,10.6,20.1,10.7c21,0.1,23.6-11.2,23.6-11.2s-12.8-9.8-9.6-31.9l-12.3,4.9
				l-10.5-5C636.7,816.3,639.2,846.9,625.4,848.8z"/>
			<path fill="#3A3A3A" d="M676.6,764.8l-3.5-12.7l-1.9-2.2l-5.5,0.3l-8.9-5.6l-3.4,2c0,0-8.4-1.6-21.7,8.1l-8.1,10.1v3.6l-2.5,2.3
				c0,0-5.2,3.8-2.7,14.3c0,0,4.2,1.4,1.5,7.9c0,0,3.4,9.1,4.3,10.4c0,0,4.3,5.1,6.9,1.3l-2.3-4.9c0,0-2-6.2,3-27
				c0,0-2.2-1.6,7.5-6.9c0,0,3.5-3.7,15.6-1.9c0,0,4.3-8.1,15.4-1.8L676.6,764.8z"/>
			<path fill="#E5D295" d="M654.6,761.2l6.5,6l6.4,6l5.5,9l2.2,9.5V807l-2.7,4.9l-4.6,7.1l-20.2,7.9l-8.1-0.2l-4.2-4.1l-5.2-5.8
				l-4.4-10.3l-2-8.9c0,0,1-19.6,4.1-25.3C634.3,760,654.6,761.2,654.6,761.2z"/>
			<path fill="#3A3A3A" d="M659.4,761.8c0,0,5.1-4.6,11.3-5.6c6.2-0.9,7.9,4.2,11,9.8c0,0,9.7,1.1,6.7,10.5c-1.1,3.6,5.5,4,2.5,10.1
				c0,0,1.6,3.3,1.1,4.1c0,0,0.7,4.1-4.1,10.1c0,0,1.1,2.7-6.1,7.6c0,0,6.4,2-8.6,7.6c0,0-4.2,1.4-8,8.5l-0.9-5.9
				c0,0,0.2-7.7,6.5-11.8c0,0,1.6-1,1.4-5.6l0.9-4.5c0,0-8.6,14.6-6.8,9.3c3.5-10.4,1.1-18.6,4.1-21.8c0,0-4.2-8.1-7.3-11.7
				c-3-3.5-4.2-8.9-4.2-8.9l-0.9-1.4L659.4,761.8z"/>
			<path d="M628.6,781c0,0-0.7,2,1,1.8c0,0,4.6-2.9,8.7,0.3c0,0,1.8-0.3,0.7-2.1C637.9,779.1,631.1,779.4,628.6,781z"/>
			<path d="M649.1,781.2c0,0-0.6,1.9,1.1,1.8c0,0,4.9-3.5,8.9-0.1c0,0,2.9,0.6,1.7-1.3C657.9,777.2,651.1,779.4,649.1,781.2z"/>
			<path d="M629.4,784.1c-1.4,0.5-4.4,4.5,0.2,6.9c2.5,1.3,4.5-1.3,4.9-2.7c0.3-1.2,0.1-4.1-2.4-4.5
				C631.4,783.7,630.1,783.8,629.4,784.1z"/>
			<path d="M651,784.6c-1.5,0.5-4.7,4.4,0.2,6.8c2.6,1.3,4.9-1.3,5.2-2.7c0.3-1.2,0.1-4.1-2.6-4.4
				C653.1,784.2,651.8,784.3,651,784.6z"/>
			<path d="M641.1,786.3c0,0-4.2-3.7-7.2-3.9c-3-0.2-7.2,4.7-7.7,5.7c-0.5,0.9-0.4,2.5-0.4,2.5s10.8,2.9,15-0.4
				C640.9,790.2,641.7,786.8,641.1,786.3z M639.8,789.7c-0.4,0.5-12.5,1.2-12.5,0c0.1-1.2,1.2-2.7,1.2-2.7c1.3-3.3,5.3-3.4,5.3-3.4
				c1.6,0.4,6,2.6,6.1,3.4C640.2,787.7,640.2,789.2,639.8,789.7z"/>
			<path d="M647.7,790c4,3.5,14.9,1.5,14.9,1.5s0.2-1.6-0.2-2.5c-0.4-1-4.3-6.2-7.3-6.2s-7.4,3.4-7.4,3.4
				C647.1,786.6,647.7,790,647.7,790z M648.8,786.8c0.2-0.8,4.8-2.7,6.3-3c0,0,4,0.4,5.1,3.8c0,0,1.1,1.6,1.1,2.8
				c0,1.2-12.1-0.3-12.4-0.9C648.4,789,648.6,787.6,648.8,786.8z"/>
			<path fill="#FFFFFF" d="M634.9,809.7c0,0,15.6,2.2,18.8,0.1c0,0-0.3,3.5-2.9,4.1c-2.5,0.6-14.8,0-15.8-1.8
				C634.1,810.3,634.9,809.7,634.9,809.7z"/>
		</g>
		<g>
			<polygon fill="#5E523A" points="131.8,1218.5 12.9,1218.5 36.4,1136.6 12.9,1055.1 131.8,1055.1 109.6,1136.6 			"/>
			<g id="dali_x5F_face">
				<path fill="#CEA64A" d="M117.9,711.1l3.6-1.6c0,0,19.5,7.6,25.2,13.8c5.7,6.2,3.9,23.1,3.7,23.3c-0.2,0.2,3.1,46-43.9,38.5
					c-16-9.4-14.9-34.9-14.9-34.9s0.4-16.7,5-22.8C101.1,721.2,105.1,713.9,117.9,711.1z"/>
				<path fill="#1D1100" d="M105.5,705.6c0,0,8.9-5.3,13.2,5.1c0,0-5.5,4.9-6.9,5.8c0,0-6,6-15.2,18.4c-3.4,2.4-4.6,22.3-4.6,22.3
					s-8.9-0.3-11.3-1.8c-7.9-4.9,6.8-22.7,9-37.5C89.7,718,93.5,708.7,105.5,705.6z"/>
				<path fill="#1D1100" d="M117.8,711.5c0,0,4.8-1.5,14.3,2.7s15.4,10.1,15.7,10.7c0.3,0.6,3,8.2,2.1,8.5
					c-0.9,0.3,3.5-8.6-2.1-14.7c0,0-6.4-20.8-17.3-18.1c-10.9,2.7-10.1-3.5-20.6,3.9"/>
				<path fill="#CEA64A" d="M94.6,736.1c0,0-6.8-6.2-10.3,1.4s1.9,15.2,4.8,15.2s3.6-1.6,3.6-1.6L94.6,736.1z"/>
				<path d="M113.2,735.8c2.9-0.5,5.8-0.6,8.8-0.5c2.9,0,5.8-0.3,8.4,1.2c2.1,1.2,3.9-2,1.8-3.2c-2.5-1.4-5-1.7-7.8-1.7
					c-4.1,0-8.1,0-12.2,0.7C109.9,732.7,110.9,736.2,113.2,735.8L113.2,735.8z"/>
				<path d="M138.5,739.1c2.2,0,8.1-1.7,9.4,0.6c1.2,2,4.3,0.2,3.2-1.8c-2.5-4.3-8.6-2.5-12.6-2.4
					C136.1,735.5,136.1,739.2,138.5,739.1L138.5,739.1z"/>
				<path d="M124.9,763.8c-2.7,0-5.5-0.1-7.4-2.2c-1.6-1.8-4.2,0.8-2.6,2.6c2.6,2.9,6.3,3.3,10,3.3
					C127.3,767.5,127.3,763.8,124.9,763.8L124.9,763.8z"/>
				<path d="M130.1,768.7c2.8,0,5.5-0.1,8.1-1.1c2.2-0.8,1.2-4.4-1-3.5c-2.3,0.9-4.7,1-7.1,1C127.7,765,127.7,768.7,130.1,768.7
					L130.1,768.7z"/>
				<path d="M117,762.7c-1.9-5.1-4.3-9.9-4.4-15.5c0-1.2-1.9-1.2-1.8,0c0.1,5.7,2.5,10.7,4.5,15.9
					C115.6,764.3,117.4,763.8,117,762.7L117,762.7z"/>
				<path d="M138.7,766.3c4.3-4.6,6.9-10.2,8.5-16.3c0.3-1.1-1.5-1.6-1.8-0.5c-1.5,5.8-3.9,11.1-8,15.5
					C136.6,765.9,137.9,767.2,138.7,766.3L138.7,766.3z"/>
				<path fill="#FFFFFF" d="M115.3,768.5c0,0,17,3.1,19.8,2.5C135.1,770.9,121.9,782.4,115.3,768.5z"/>
				<ellipse fill="#FFFFFF" cx="121.5" cy="741.6" rx="4.7" ry="3"/>
				
					<ellipse transform="matrix(0.1551 -0.9879 0.9879 0.1551 -613.3371 771.0515)" fill="#FFFFFF" cx="144.1" cy="744.1" rx="2.3" ry="3.2"/>
				<path fill="#CEA64A" d="M93.9,764.3c0,0-5.8,21.4-9.8,22.4c0,0,22.2,20,17,34.4h3.3c0,0-0.3-7.5,8.8-13.9c0,0,0-14.8,3.5-22.1
					C116.7,785.1,99.8,789.1,93.9,764.3z"/>
			</g>
			<path fill="#CEA64A" d="M152.7,809.4c0,0-7.2,16.5-5.2,34.2c8.9,7.7,33.9-22.2,55.3-30.1c0,0,8.4,2.6,39.4-21.2
				c31-23.9,31.7-34.8,42.3-37c10.5,0,10.9,6.2,19.9,3.6c3.3,1.3-4.7,4-4.7,4s5.2,2.9,13.2-3c8-5.9,3.7-3,3.7-3s15.7-7.9-5.5-16.9
				c0,0,7.7-7.5,20.8-7.3c0,0,6.1-0.7,6.3-4c0.2-3.3-19.8-0.8-21.1,1.2c-1.3,2-28.8,11.6-33.3,10.2c-4.4-1.4-28.5,11.7-37,20.1
				c-6.8,7.2-25.6,20.5-25.6,20.5S172.7,803.4,152.7,809.4z"/>
			<path fill="#001221" d="M22.3,1011.5c0,0,5.7-47.6,221.2,0.4c0,0,15.7,2.4,12.8,77c0,0,16.1,104.7,7.8,104.9
				c0,0-15.1,11.3-57.5,0.6l1-72.7c0,0-2.8-67.1,2.4-71.6c0,0-68-7-89.6,2.7c0,0-68.3,11.9-90.5,1.2
				C16.6,1034.6,21.1,1025.7,22.3,1011.5z"/>
			<path fill="#001221" d="M254.1,1038c0,0,60.4,147,48.8,148.8s-36.4-1.2-36.4-1.2S248.6,1038.2,254.1,1038z"/>
			<path fill="#AB9AFF" d="M84.1,941.2c0,0-6.1,5.9-20.3,4.8c-14.2-1.1-28.2-56.2-28.2-56.2c9.3-9.7,26.5-15.3,26.5-15.3
				c0.6,6.1,10.8,22.4,10.6,31.8c6.2-1.4,30.4-7.9,43.4-11.4c-0.1-18.7-0.3-33.4,0.2-35.7c1.4-6.6,32.7-3.1,36.1-4.3
				c3.4-1.1,5.1-12,5.1-12c-4,2.3-10,0.6-10,0.6c-1.3-6.3,7.6-39.5,5.2-34.9c-2.4,4.6-21.2,3.8-21.9,4.2c-0.7,0.4-15.6-2-14.9-2.6
				c0.7-0.6,0.8-6.4,0.8-6.4c-11.6,6.2-12.3,17.2-12.3,17.2h-3.3c6.5-12.3-17-34.4-17-34.4c-15.6,6.7-38.5,6-46.9,14.6
				c-22.2,8.7-7.5,82.9-7.5,82.9C13.1,929.4,16,1005,18.5,995.3c2.4-9.8,83.5,2.4,92.1-8.1c4.3-5.4,5.4-36.4,5.6-66.7
				C100,930.4,84.1,941.2,84.1,941.2z"/>
			<path fill="#A08A00" d="M100.2,824.1h3.4l1,4c0,0-5.6,107.4,4.2,114.1c1.6,21.9-8.6,24.8-8.6,24.8s-13.9-47-7.7-81.1
				c6.2-34.2,6.2-58.5,6.2-58.5L100.2,824.1z"/>
			<path fill="#CEA64A" d="M62.2,874.5c0,0-17.2,5.6-26.5,15.3c0,0,14.1,55.1,28.2,56.2c14.2,1.1,20.3-4.8,20.3-4.8
				s49.2-30.4,60.8-34.5c5.8-2.1,23.2-6.1,24.3-4.3c1,1.8,9.4,7.9,25.1,1.8c14.8-2.6,14.2,6.1,14.2,6.1l4.1,1l0.5-2
				c0,0-7.5-14.7-12.8-16.2c0,0-9.1-10-29.4-6.4c-20.3,3.6-70.4,7.2-98.1,19.7C72.9,896.9,62.8,880.6,62.2,874.5z"/>
			<g id="briefcase_x5F_client">
				<path d="M196.7,1212.4c0,8.1-6.6,14.6-14.6,14.6H27.2c-8.1,0-14.6-6.6-14.6-14.6V1116c0-8.1,6.6-14.6,14.6-14.6h154.9
					c8.1,0,14.6,6.6,14.6,14.6V1212.4z"/>
				<path d="M71.4,1090.4c0,4.7,0,9.4,0,14c0,2.4,3.7,2.4,3.7,0c0-4.7,0-9.4,0-14C75.1,1088,71.4,1088,71.4,1090.4L71.4,1090.4z"/>
				<path d="M134.2,1090.1c0,4.8-0.5,9.5,0.4,14.2c0.4,2.3,4,1.3,3.5-1c-0.8-4.4-0.3-8.8-0.2-13.2
					C137.9,1087.7,134.2,1087.7,134.2,1090.1L134.2,1090.1z"/>
				<path d="M73.1,1091.3c21,0,42.1-0.3,63.1-0.3c2.4,0,2.4-3.7,0-3.7c-21,0-42.1,0.3-63.1,0.3C70.7,1087.6,70.7,1091.3,73.1,1091.3
					L73.1,1091.3z"/>
			</g>
			<path d="M213.8,1197.7c0,0,45.7,10.7,51.8-1.8c0,0,35.7,20.6,50.9,18.1c6.5-1.8,7.7,6.2,4.6,8.1c-20.7,11.2-44.5-5.2-63.5-2.1
				c-19.1,3-41.9,3.8-43.8-4.6C212,1207,212.3,1201.5,213.8,1197.7z"/>
			<path d="M215.2,1219.3c0,0,14.4,8.6,41.2,1.6c0,0-0.3,2.5-2.3,3s-25.2,7.1-38-1.1C213.5,1220.2,215.2,1219.3,215.2,1219.3z"/>
			<path d="M268.4,1195c0,0,20.7-0.4,22.9-7.2c2.1-6.8,19.7,6.7,31.5,3.5c11.8-3.2,20.7-7.2,24-3.6c3.3,3.6-5.5,12.7-21.3,17.7
				s-22.5,1.1-31.2,5.2C285.6,1214.7,255.7,1201.1,268.4,1195z"/>
			<g id="client">
				<path fill="#FFFFFF" d="M73,1164.3c0.2,0.2,0.4,0.5,0.6,0.7c0.2,0.2,0.4,0.5,0.6,0.7c-0.9,0.6-1.7,1.1-2.7,1.5
					c-1,0.4-2,0.5-3,0.5c-1.2,0-2.4-0.2-3.5-0.7s-2.1-1.1-2.9-2c-0.9-0.9-1.5-1.7-2-2.8c-0.5-1.1-0.7-2.3-0.7-3.5s0.2-2.4,0.7-3.5
					c0.5-1.1,1.1-2.1,2-2.9c0.9-0.9,1.8-1.5,2.9-2s2.3-0.7,3.5-0.7c1.1,0,2.2,0.1,3.2,0.5c1,0.4,1.8,0.9,2.7,1.5
					c-0.2,0.2-0.4,0.5-0.6,0.7c-0.2,0.2-0.4,0.5-0.6,0.7c-0.6-0.5-1.3-0.9-2.1-1.2c-0.7-0.2-1.6-0.4-2.4-0.4c-1,0-2,0.2-2.8,0.6
					c-0.9,0.4-1.6,0.9-2.2,1.6c-0.6,0.6-1.1,1.5-1.5,2.3c-0.4,0.9-0.6,1.8-0.6,2.8s0.2,2,0.6,2.8c0.4,0.9,0.9,1.6,1.5,2.3
					c0.6,0.6,1.3,1.2,2.2,1.6c0.9,0.4,1.8,0.6,2.8,0.6C70.2,1165.8,71.8,1165.3,73,1164.3z"/>
				<path fill="#FFFFFF" d="M81,1167.4h-2v-34.8h2V1167.4z"/>
				<path fill="#FFFFFF" d="M87.3,1143.9c0-0.5,0.1-0.9,0.5-1.1c0.4-0.2,0.6-0.5,1.1-0.5c0.4,0,0.7,0.1,1.1,0.5
					c0.4,0.2,0.5,0.6,0.5,1.1s-0.1,0.9-0.5,1.1s-0.6,0.5-1.1,0.5c-0.4,0-0.7-0.1-1.1-0.5C87.5,1144.6,87.3,1144.2,87.3,1143.9z
					 M89.7,1167.4h-1.8V1150h2v17.4H89.7z"/>
				<path fill="#FFFFFF" d="M111.8,1156.2c-2.4,1-4.8,2-7.2,2.8c-2.4,1-4.8,2-7.2,2.8c0.5,1.2,1.3,2.1,2.6,2.9
					c1.1,0.7,2.4,1.1,3.9,1.1c1,0,1.8-0.1,2.7-0.5c0.9-0.4,1.6-0.9,2.2-1.5c0.2,0.2,0.4,0.5,0.6,0.7c0.2,0.2,0.4,0.5,0.6,0.7
					c-0.9,0.7-1.7,1.3-2.7,1.7c-1,0.5-2.1,0.6-3.3,0.6s-2.4-0.2-3.5-0.7s-2.1-1.1-2.9-2c-0.9-0.9-1.5-1.7-2-2.8
					c-0.5-1.1-0.7-2.3-0.7-3.5s0.2-2.4,0.7-3.5s1.1-2.1,2-2.9c0.9-0.9,1.8-1.5,2.9-2s2.3-0.7,3.5-0.7c1,0,1.8,0.1,2.7,0.5
					c0.9,0.4,1.6,0.7,2.3,1.3c0.7,0.6,1.3,1.2,1.8,2.1C111,1154.4,111.5,1155.2,111.8,1156.2z M103.9,1151.6c-1,0-1.8,0.1-2.7,0.5
					c-0.9,0.4-1.6,0.7-2.2,1.3c-0.6,0.6-1.1,1.2-1.5,2.1c-0.4,0.7-0.6,1.6-0.7,2.6c0,0.4,0,0.7,0,1.1c0,0.4,0,0.7,0.1,1.1
					c2.1-0.9,4.1-1.7,6.2-2.4c2.1-0.9,4.1-1.6,6.2-2.4c-0.5-1.1-1.3-2-2.3-2.6C106,1151.8,105,1151.6,103.9,1151.6z"/>
				<path fill="#FFFFFF" d="M118.7,1150h1.7v1.6c0,0.5,0,1,0,1.5s0,0.9,0,1.5c0.6-1.5,1.6-2.7,2.9-3.5c1.3-0.9,2.9-1.3,4.6-1.3
					c1.7,0,3,0.5,4,1.5s1.5,2.2,1.6,3.8v12.6h-1.8v-12.1c-0.1-1-0.4-1.8-1.1-2.6c-0.6-0.7-1.6-1.1-2.9-1.2c-1,0-1.8,0.1-2.7,0.5
					c-0.9,0.4-1.6,0.7-2.3,1.3c-0.6,0.6-1.2,1.2-1.6,2c-0.4,0.7-0.6,1.6-0.6,2.6v9.5h-2L118.7,1150L118.7,1150z"/>
				<path fill="#FFFFFF" d="M142.6,1138.8h2v11.3h5.4v2h-5.4v15.5h-2v-15.5h-4v-2h4V1138.8z"/>
			</g>
		</g>
	</g>
	<g id="Proto-type">
	</g>
</g>
</svg>
