<?xml version="1.0" encoding="utf-8"?>
<!-- Generator: Adobe Illustrator 16.0.0, SVG Export Plug-In . SVG Version: 6.00 Build 0)  -->
<!DOCTYPE svg PUBLIC "-//W3C//DTD SVG 1.1//EN" "http://www.w3.org/Graphics/SVG/1.1/DTD/svg11.dtd">
<svg version="1.1" id="Layer_1" xmlns="http://www.w3.org/2000/svg" xmlns:xlink="http://www.w3.org/1999/xlink" x="0px" y="0px"
	 width="750px" height="1334px" viewBox="0 0 750 1334" enable-background="new 0 0 750 1334" xml:space="preserve">
<g id="windows_x5F_light">
	<rect x="171.3" y="505.3" fill="#9EAEB7" width="445.2" height="407.3"/>
	<rect x="554.5" y="587.8" display="none" width="599" height="333.9"/>
</g>
<g id="characters_x5F_indoor_x5F_fills">
	<g id="brainstorming_x5F_in_2_">
		<g>
			<path fill="#40001E" d="M253.5,871.6c-12.2-9.1,26.8-20.7,32.9-21.3c14-0.6,29.3,7.9,42.1,12.2c18.3,6.1,28.7-1.2,47-3
				c12.8-1.8,25.6-2.4,38.4-4.9c5.5-1.2,14-3,18.9-0.6c6.1,3,13.4,15.9,8.5,21.3c-5.5,5.5-30.5,4.3-38.4,5.5
				c-17.1,3-32.9,6.7-50.6,4.9c-15.2-1.8-30.5-4.3-45.7-6.1C288.3,877.7,253.5,872.8,253.5,871.6"/>
		</g>
		<g>
			<path fill="#E5D295" d="M257.5,890.8c-5.6-2.2-15.6-8.3-12.8-16.1c1.7-6.1,12.2-7.2,17.2-10c13.4-7.8,19.5-16.1,36.2-10
				c14.5,5,26.1,13.4,41.2,16.7c13.4,3.3,26.7,6.7,40.6,7.2c7.8,0,16.1-1.1,23.4,0c12.2,1.7,18.9,13.4,30.6,17.2
				c-12.2,1.1-24.5-2.2-37.3-2.8c-10-0.6-20,0.6-30.6,1.7c-20.6,1.7-41.2,2.2-61.8,2.2c-16.7,0-38.4-1.1-52.3-9.5"/>
		</g>
		<g>
			<path fill="#E5D295" d="M312.8,866.7c31.9,0,66.8,0.4,96.8-9.6c8.2-2.6,14.8-3.3,21.5,2.6c5.6,4.5,15.9,11.9,19.7,17.8
				c6.3,9.6-10.4,12.6-17.1,14.1c-9.3,1.9-18.5,3.7-27.8,3.3c-14.1-0.4-28.6-4.1-42.7-6.3c-12.6-1.5-25.6-0.7-37.8-5.6
				c-4.1-1.5-14.5-5.6-15.2-10.4c-0.7-5.6,6.3-7.8,10.8-5.9"/>
		</g>
		<g>
			<path fill="#B75925" d="M489.6,858.3c9-4.1,20.2-4.4,29.8-3.8c5.5,0.3,9,0.5,9.3,6.3c0.3,9-2.2,18.6-3.8,27.3
				c-0.8,3.8-1.1,5.7-4.4,7.1c-2.7,1.1-6.3,1.4-9,1.9c-4.4,0.8-19.4,3.8-22.1-0.3c-1.9-2.7,0.3-14.5,0.3-18
				c-0.3-7.9-0.5-15.8,0.3-23.5"/>
		</g>
		<g>
			<path fill="#E5D295" d="M337.5,840.9c0,11-0.8,13-7.3,20.7c9.4,7.7,26,4.1,36.2,0c-3.7-6.5-1.2-17.5-7.3-20.3
				C352.5,838.5,343.6,837.7,337.5,840.9"/>
		</g>
		<polygon fill="#E5D295" points="355.9,772 366.5,773.1 375.2,777.6 379.5,788.3 380.8,805.7 380.8,822.7 377.5,828.1 369.5,836.3 
			357.3,845.4 346.4,848.4 336.8,841.6 326.3,833.6 321,822.2 320.7,816.3 327,789.7 		"/>
		<g>
			<path fill="#B75925" d="M490.2,866c-6-4.9-12.3-6-15,2.5c-1.9,5.7-2.2,12.6,2.2,17.2c1.9,1.9,6.6,4.6,9.6,3.3
				c6-3.6-0.5-5.7-2.7-7.4c-6.6-4.4-3.6-12.6,3.8-12.6c1.9,0,3.8,3.6,3.8-1.1c0-1.6-0.8-3-2.5-3.6"/>
		</g>
		<g>
			<path fill="#3A3A3A" d="M358.8,763.5c-4.8,15.9,15.4,11.6,17.9,22.8c0.4,1.8-1.1,3.6-0.7,5.8c0.4,2.5,2.6,3.6,2.9,5.8
				c1.5,5.4-4.8,8.3,3.3,10.1c-1.8,2.9-7.7,5.4-2.9,9.4c-4,2.9-4,4.7-1.8,8c2.9,3.6,6.2-0.7,2.2,5.1c-3.3,4.7-4.8,3.6-3.3,9
				c1.1,3.6,2.2,5.4,1.8,9c1.5-1.4,1.8-4,3.7-5.4c2.2-1.4,6.2-1.1,8-3.3c2.9-3.3,1.1-6.9,4.8-9.8c2.9-2.9,8.8-2.2,11-6.5
				c2.6-4.7-1.1-6.9-2.9-10.5c-1.1-2.2-1.8-3.6-1.5-6.1c0.4-3.3,4.4-5.1,4.8-7.6c0.7-6.1-5.5-3.6-8.8-5.4c-6.2-3.3-1.1-6.9-1.5-11.6
				c-0.4-6.5-4.8-4.3-9.5-6.1c-5.1-1.8-2.9-3.3-5.1-5.8c-2.6-2.9-2.2-1.8-6.2-2.9c-4.8-1.4-10.6-9.8-15.7-5.8"/>
		</g>
		<path d="M327.5,796.6c0,0-0.8,2.1,1,2c0,0,5-3.2,9.5,0.3c0,0,2-0.3,0.7-2.3C337.5,794.6,330.2,795,327.5,796.6z"/>
		<path d="M359.5,793.5c0,0-0.2,2.1,1.5,1.6c0,0,4.5-4.7,9.4-1.9c0,0,3.2,0,1.6-1.7C368,787.4,361.2,791.2,359.5,793.5z"/>
		<path d="M333.9,801.4c-1.6,0.6-4.8,4.9,0.2,7.5c2.7,1.4,4.9-1.4,5.3-2.9c0.3-1.3,0.1-4.5-2.6-4.9
			C336,800.9,334.6,801.1,333.9,801.4z"/>
		<path d="M363.5,801.8c-1.8,0.6-5.5,5.2,0.3,7.9c3.1,1.5,5.7-1.5,6.1-3.1c0.3-1.3,0.1-4.7-3-5.2
			C365.9,801.4,364.3,801.6,363.5,801.8z"/>
		<path d="M353.9,807.9c5.1,3.8,19.2,1.6,19.2,1.6s0.3-1.7-0.2-2.8c-0.5-1.1-5.5-6.7-9.4-6.7c-3.8,0-9.5,3.7-9.5,3.7
			C353.1,804.3,353.9,807.9,353.9,807.9z M355.3,804.5c0.2-0.8,6.1-2.9,8.1-3.2c0,0,5.1,0.5,6.5,4.1c0,0,1.4,1.8,1.4,3
			c0,1.3-15.5-0.4-16-1C354.9,806.9,355,805.4,355.3,804.5z"/>
		<g>
			<path fill="#3A3A3A" d="M343.4,783.8c-6.2,3.6-16.1,5.7-18.8,12.7c-2.5,6.3-2,12.3-3.1,19c-0.3,2.3,0.5,14.8-0.3,14.6
				c-0.3,0-3.3-4.4-3.4-6.6c-0.5-9.8-8.2-10.6-5.7-16.5s-0.9-7.3,0.6-12.7c2.6-8,10.8-11.6,15.8-17.8c2.6-3.1,3.9-5.7,7.2-7.7
				c2.8-1.8,9.2-6.1,12.3-6.9c5.7-1.8,10.1,0.7,9.1,10L343.4,783.8z"/>
		</g>
		<g>
			<path fill="#E5D295" d="M324.9,804.4c-2.9-0.7-6.1-0.7-7,2.8c-0.7,2.8,1.2,5,1.8,7.5c0.4,2.4-0.4,5.6,2,7.2
				c3.4,2.3,4.3-3.5,4.5-5.7C326.4,812.5,325.8,807.8,324.9,804.4"/>
		</g>
		<path d="M342.7,803.3c0,0-5.4-4-9.2-4.3c-3.8-0.2-9.3,5.1-9.9,6.1s-0.5,2.7-0.5,2.7s13.9,3.1,19.3-0.4
			C342.4,807.5,343.5,803.9,342.7,803.3z M341,807c-0.5,0.6-16.1,1.3-16.1,0c0.1-1.3,1.6-3,1.6-3c1.7-3.6,6.9-3.7,6.9-3.7
			c2,0.4,7.7,2.8,7.9,3.7C341.5,804.9,341.5,806.4,341,807z"/>
		<g>
			<path fill="#FFFFFF" d="M333.6,827.3c10.1-1.3,18.8-3.3,28.7-0.8c-0.2,6.4-8.6,10.6-14,10.9c-6.6,0.3-10.7-5.6-15-9.7"/>
		</g>
		<rect x="443" y="551.7" fill="#FFFFFF" width="213.7" height="238"/>
		<path fill="#76A8A8" d="M470.7,585.5c2.1,9.8,0.5,19.8,0.9,29.7c0.3,8.7,3.1,16.9,6.6,24.8c0.4,0.8,1.3,0.9,2.1,0.8
			c9-1.2,17.5-3.8,26.7-2.9c4.3,0.4,9.4,0.3,11.1-4.6c2.3-6.8,1.2-14.2,0.1-21.1c-1.2-7.7-2.1-15.4-3.1-23.1
			c-1.3-10-9.9-9.8-18.2-10c-6.9-0.2-22-1.3-26.9,5.1c-1.4,1.8,1.1,4.4,2.6,2.6c3.9-5,16.2-4,21.8-4c4,0,8.1,0.2,12.1,0.9
			c5.1,0.9,5.2,5.2,5.5,9.8c0.8,11.9,5.2,23.8,3.5,35.8c-1.1,7.8-9.3,4.7-14.8,4.8c-7.1,0.1-14.2,2.4-21.2,3.3
			c0.7,0.3,1.4,0.6,2.1,0.8c-4-8.8-6.1-17.4-6.3-27.1c-0.1-8.9,1-17.7-0.9-26.5C473.7,582.2,470.2,583.2,470.7,585.5L470.7,585.5z"
			/>
		<path fill="#76A8A8" d="M534.7,607.1c4.8,0.1,9.5,1.4,14.3,0.7c1-0.1,1.5-1.4,1.3-2.3c-0.4-1.9-0.7-3.6-1.8-5.3
			c-1.1,0.6-2.1,1.2-3.2,1.8c1.3,1.8,3.3,4.1,0.7,5.6c-2,1.2-0.2,4.3,1.8,3.2c4.7-2.7,3.3-6.9,0.7-10.6c-1.3-1.9-4.4-0.2-3.2,1.8
			c0.9,1.4,1.1,2.9,1.4,4.4c0.4-0.8,0.9-1.5,1.3-2.3c-4.4,0.6-8.9-0.8-13.3-0.9C532.3,603.4,532.3,607.1,534.7,607.1L534.7,607.1z"
			/>
		<path fill="#76A8A8" d="M558.5,602.5c1.7,4.8,3.8,9.5,5.8,14.2c0.9,2.2,2,4,4.4,5c9.6,3.8,20.6,1.8,30.7,1.3
			c7.9-0.4,17,2.3,24.1-2.2c6.5-4.2,9.1-15.8,9.9-22.8c0.1-0.8-0.6-1.5-1.3-1.8c-9.8-3.1-19.5,2.4-29.1,3.4
			c-14.2,1.4-28.3,1.4-42.5,1.4c-2.4,0-2.4,3.7,0,3.7c12.7,0,25.4,0.2,38.2-1c5.2-0.5,10.1-1.3,15.1-2.6c5.6-1.5,11.6-3.2,17.4-1.4
			c-0.4-0.6-0.9-1.2-1.3-1.8c-0.7,7.2-3.7,18.8-11.4,21.3c-6.2,2-14.3-0.1-20.7,0.2c-8,0.4-16.1,1.5-24.1-0.1
			c-7.2-1.5-9.2-11.8-11.3-17.8C561.3,599.3,557.7,600.3,558.5,602.5L558.5,602.5z"/>
		<path fill="#76A8A8" d="M604.4,602c-0.5-7.3-5.6-14.7-10.7-19.6c-0.8-0.8-1.8-0.6-2.6,0c-6.5,5.1-10.2,12.5-14.9,19.1
			c-1.4,1.9,1.8,3.7,3.2,1.8c4.5-6.3,8.1-13.4,14.3-18.3c-0.9,0-1.7,0-2.6,0c4.3,4.1,9.2,10.8,9.6,17
			C600.9,604.4,604.6,604.4,604.4,602L604.4,602z"/>
		<path fill="#76A8A8" d="M551.1,627.4c0.2-4.7,4.1-3.8,7.1-2c3.4,2.1,4.5,5.8,2.7,9.4c-2.9,5.7-7.6,8.8-5.2,15.9
			c0.8,2.2,4.3,1.3,3.5-1c-3-8.9,11.7-15.1,4.3-24.3c-4.8-5.9-15.5-7.9-16,2C547.3,629.8,550.9,629.8,551.1,627.4L551.1,627.4z"/>
		<path fill="#76A8A8" d="M462.2,671.2c2.3,2.3,5,4.6,8.5,3.9c2.3-0.5,4.5-1.4,6.7-2.2c3.7-1.3,6.2,0.8,9.6,1.6
			c4.5,1.1,9.3-3.1,13.4-0.9c1.8,1,5.5,2,7.2,0.3c4.2-4.2,12.9-2.9,18.4-2.7c6.4,0.3,12.6,0.1,18.9,0.7c3,0.3,6.3-2,8.9-1.2
			c3.2,0.9,4.5,0.3,6.5-2.4c-1,0.1-1.9,0.2-2.9,0.4c6.8,6.1,16.9,2,24.9,1.8c2.4-0.1,2.4-3.7,0-3.7c-6.6,0.2-16.8,4.3-22.3-0.7
			c-0.9-0.8-2.2-0.6-2.9,0.4c-1,1.4-4.9,0.3-6.9,1c-4.1,1.5-8.1,0.4-12.3,0.1c-5.3-0.4-10.8,0-16.2-0.2c-4.4-0.2-9.4-0.1-13.6,1.7
			c-3.5,1.5-2.8,3.1-6.9,0.8c-2.5-1.4-5.5-0.5-8,0.3c-2.9,0.9-5.2,0.9-8-0.2c-1.5-0.6-3.3-1.5-4.9-1.4c-5.8,0.5-10.5,5-15.5-0.1
			C463.2,667,460.6,669.6,462.2,671.2L462.2,671.2z"/>
		<path fill="#76A8A8" d="M494.7,680c-1.9,6.1-7.7,10-11.7,14.6c-1.5,1.8,1,4.4,2.6,2.6c4.5-5.2,10.6-9.4,12.7-16.3
			C498.9,678.7,495.4,677.8,494.7,680L494.7,680z"/>
		<path fill="#76A8A8" d="M481.7,684.5c6.5,5.1,11.8,11.6,19.5,15c2.1,1,4-2.2,1.8-3.2c-7.6-3.4-13-10-19.5-15
			C481.7,679.9,479.9,683.1,481.7,684.5L481.7,684.5z"/>
		<path fill="#76A8A8" d="M478.9,728.9c32.5,0,65.1-1.2,97.6,0c-0.3-1.1-0.6-2.3-0.9-3.4c-16.6,7.1-33.6,13.3-51.2,17.3
			c-4.6,1-9.2,1.9-13.8,2.4c-4.1,0.5-8.1,1.8-12.2,1.1c-3.4-0.6-7.2-6.9-9.3-9.3c-3.2-3.8-6.2-7.6-8.8-11.8c-0.7-1.1-2.6-1.3-3.2,0
			c-3.4,7.6-3.9,15.8-3.6,24.1c0,1,0.8,1.8,1.8,1.8c6.7,0.2,13.2-3.6,19.6-5c8.6-1.9,17.3-3,26-4.5c19.2-3.4,38.5-7.7,57.3-12.8
			c2.3-0.6,1.3-4.1-1-3.5c-17.4,4.7-35.1,8.3-52.7,11.9c-8.7,1.8-17.5,3-26.3,4.6c-3.9,0.7-7.9,1.5-11.7,2.8
			c-3.8,1.2-7.2,3.1-11.3,3c0.6,0.6,1.2,1.2,1.8,1.8c-0.3-7.6,0-15.2,3.1-22.3c-1.1,0-2.1,0-3.2,0c2.4,3.9,5.1,7.4,7.9,10.9
			c2.8,3.4,5.7,8,9.4,10.4c6.2,4.1,15.8,0.7,22.5-0.4c20.9-3.4,41.1-11,60.6-19.3c1.8-0.8,0.7-3.3-0.9-3.4c-32.5-1.2-65,0-97.6,0
			C476.5,725.2,476.5,728.9,478.9,728.9L478.9,728.9z"/>
		<circle fill="#76A8A8" cx="560.2" cy="656.8" r="2.8"/>
		<path fill="#76A8A8" d="M567.3,748.1c0.1,8-1.5,15.8,0.4,23.7c0.5,2.3,4.1,1.3,3.5-1c-1.8-7.5-0.1-15.1-0.2-22.7
			C570.9,745.7,567.3,745.7,567.3,748.1L567.3,748.1z"/>
		<path fill="#76A8A8" d="M568.8,746.5c-2.9,3.7-4.1,9-7.9,11.9c-1.8,1.4,0,4.6,1.8,3.2c4.3-3.3,5.3-8.4,8.6-12.5
			C572.8,747.3,570.2,744.7,568.8,746.5L568.8,746.5z"/>
		<path fill="#76A8A8" d="M569.5,749.5c0.7,4.5,3.3,7.9,6.3,11.2c1.6,1.8,4.2-0.8,2.6-2.6c-2.6-2.9-4.7-5.6-5.3-9.6
			C572.7,746.2,569.1,747.2,569.5,749.5L569.5,749.5z"/>
		<path fill="#76A8A8" d="M535.6,751.8c0.1,6,1.4,12.1,0.4,18.1c-0.4,2.3,3.1,3.3,3.5,1c1.1-6.4-0.1-12.7-0.2-19.1
			C539.2,749.4,535.6,749.4,535.6,751.8L535.6,751.8z"/>
		<path fill="#76A8A8" d="M534.9,750.2c-1.9,3.4-4.3,6.3-7,9.1c-1.7,1.7,0.9,4.3,2.6,2.6c2.9-3,5.6-6.2,7.6-9.8
			C539.2,750,536.1,748.2,534.9,750.2L534.9,750.2z"/>
		<path fill="#76A8A8" d="M535.9,752.4c4.2,2.3,6.9,6.5,11.3,8.5c2.1,1,4-2.2,1.8-3.2c-4.3-2-7.1-6.3-11.3-8.5
			C535.7,748.2,533.8,751.3,535.9,752.4L535.9,752.4z"/>
	</g>
</g>
<g id="wall_x5F_fill">
	<path id="wall_x5F_fill_x5F_2" fill="#E5E5B5" d="M750,0H0v1215h750V0z M616.4,911.6H171.3V505.1h445.2L616.4,911.6L616.4,911.6z"
		/>
</g>
<g id="wall_x5F_frames">
	<rect x="598.7" y="511" fill="#CCD9ED" width="38.1" height="420.1"/>
	<rect x="152.5" y="511" fill="#CCD9ED" width="38.1" height="704"/>
	<rect y="486" fill="#CCD9ED" width="750" height="38.1"/>
	<rect y="893" fill="#CCD9ED" width="750" height="38.1"/>
</g>
<g id="ground_x5F_roof">
	<rect id="ground_x5F_fill_7_" y="1195" fill="#353229" width="750" height="139"/>
	<rect id="roof_x5F_2" x="-22.6" y="391.8" display="none" fill="#353229" width="800" height="119.2"/>
</g>
<g id="characters_x5F_outdoor_x5F_fills">
	<g id="brainstorming_x5F_out">
		<g>
			<path fill="#CEC361" d="M88.5,1111.9c1.5-2.2,3-4.1,4.3-6.5c1.5-2.4,3-3.6,5.4-4.1c5-1.1,10.5-3.2,15.7-3.6
				c2.1-0.2,5-0.4,6.9,0.7c3.2,2.1,1.1,3.6,0.7,6.2c-0.4,2.4,0.9,4.7,0.7,7.1c-0.2,2.1-1.1,3.9-1.3,6c-0.2,1.1,0.7,5,0.2,5.8
				c-0.7,0.9-4.5,0.9-5.8,1.3c-5.2,1.5-9,4.9-13.5,8c-3.4,2.4-8,3.9-12.3,3.9c-6.2,0-8.8-2.6-8.8-8.4c0-4.3,1.5-7.1,3-10.8
				c0.7-1.7,1.3-4.1,2.6-5.2c1.5-1.5,3.6-1.3,5.6-2.1"/>
		</g>
		<g>
			<path fill="#CEC361" d="M183.3,947c3.7-2.6,7.5-4.1,9.9-8.4c1.9-3.2,1.1-6.7,1.9-10.1c8,4.1,19.8,3.7,28.6,3.2
				c-0.2,4.1,1.7,10.3,4.7,13.1c5.2,4.7,1.1,7.3-2.6,11.4c-3.9,4.3-6.5,8.4-12.9,8c-3.4-0.2-6.7-1.3-9.5-3.6
				c-2.2-1.9-3.7-4.3-6.9-5.2c-2.8-0.8-6.5,0.6-9.5-0.8c-3-1.3-5-5.4-3.2-8.4"/>
		</g>
		<g>
			<path fill="#CEC361" d="M178.8,889.9c2.6,0.3,6.2,23.4,6.2,23.4l-5.2-2.6c-14-21.2-1.4-20.7-1.4-20.7"/>
			<path fill="#CEC361" d="M239,891.6c0,0,12.7,1.3,3.3,15.8c0,0-2.9,6.1-8.1,3.8L239,891.6z"/>
			<path fill="#3A3A3A" d="M229.5,847.8c-12-12.2-35.1-3.5-35.1-3.5s-12.2,6.8-15.6,12.6c0,0,0.5,3.3-2.3,7.9
				c-2.9,4.6-1.1,13.6-1.4,14.3c-0.4,0.6,3.8,9.6,3.8,9.6l-1,2.2c0,0,1.6,14.2,7.3,23.6c0,0,9.2,20.2,25.9,20.5
				C211,934.9,241.5,860,229.5,847.8z"/>
			<path fill="#3A3A3A" d="M234.9,856.1c0,0,3.9-3.6,4.7,0c0,0,2.6-0.2,3.7,5.4c1.2,5.6-1.2,5.9,0.4,11.1c1.6,5.2,2.3,14.6,0.7,15.1
				l-4.4,8l-1.2,8.4c0,0-5.4,22.3-17.2,28.5c-0.7-2.8-12.5,7.5-12.5,6.1c0-1.4,24.3-82.1,24.3-82.1L234.9,856.1z"/>
		</g>
		<g>
			<g>
				<path fill="#382947" d="M267.4,1202.6c26.9,4.5,46.4-20.9,62.8-38.9c17.2-17.9,67.3-74,33.7-99.5c-17.2-13.5-32.9,2.2-44.1,15.7
					c-13.5,17.2-42.6,57.6-66.6,55.3C253.2,1135.2,230,1197.3,267.4,1202.6z"/>
			</g>
			<g>
				<path d="M287.3,1137.9c-3.6,1.2-6,4.6-8,7.6c-0.9,1.4,1.3,2.6,2.2,1.3c1.6-2.4,3.7-5.5,6.5-6.4
					C289.5,1139.9,288.8,1137.4,287.3,1137.9L287.3,1137.9z"/>
			</g>
			<g>
				<path d="M282.2,1139.5c1.4,3.3,1.4,6.8,1.4,10.3c0,1.6,2.5,1.6,2.5,0c0-3.7,0-7.5-1.4-11C284,1137.3,281.6,1138,282.2,1139.5
					L282.2,1139.5z"/>
			</g>
			<g>
				<path d="M347.2,1066.6c-3.2,3.5-3.6,9.1-1,13c0.9,1.3,3.1,0.1,2.2-1.3c-2-3-1.8-7.3,0.6-10
					C350.1,1067.2,348.3,1065.4,347.2,1066.6L347.2,1066.6z"/>
			</g>
			<g>
				<path d="M341,1072.3c2.6,1.5,5,3.4,8.2,3.5c1.6,0.1,1.6-2.5,0-2.5c-2.6-0.1-4.8-1.9-6.9-3.2
					C340.8,1069.3,339.6,1071.5,341,1072.3L341,1072.3z"/>
			</g>
			<g>
				<path d="M361.1,1096.2c-1.1,2-2.3,4-3.6,5.9c-0.9,1.3,1.2,2.6,2.2,1.3c1.3-1.9,2.5-3.9,3.6-5.9
					C364.1,1096.1,361.9,1094.8,361.1,1096.2L361.1,1096.2z"/>
			</g>
			<g>
				<path d="M356,1097.4c2.3,1.5,3.5,4.3,5.4,6.3c1.1,1.2,2.9-0.6,1.8-1.8c-2.1-2.1-3.3-5-5.9-6.6
					C355.9,1094.3,354.6,1096.5,356,1097.4L356,1097.4z"/>
			</g>
			<g>
				<path d="M303.2,1113.1c-2.5,3.1-3.8,6.8-5.5,10.4c-0.7,1.5,1.5,2.7,2.2,1.3c1.6-3.3,2.8-6.9,5.1-9.8
					C306,1113.7,304.2,1111.9,303.2,1113.1L303.2,1113.1z"/>
			</g>
			<g>
				<path d="M296.7,1119.3c2.4,1.7,4.4,3.9,6.5,6c1.1,1.2,2.9-0.6,1.8-1.8c-2.2-2.2-4.4-4.6-7-6.4
					C296.7,1116.2,295.4,1118.4,296.7,1119.3L296.7,1119.3z"/>
			</g>
			<g>
				<path d="M308.6,1156.1c-0.9,3.6-2.5,6.9-3.6,10.4c-0.5,1.5,1.9,2.2,2.4,0.7c1.2-3.5,2.7-6.8,3.6-10.4
					C311.5,1155.2,309,1154.5,308.6,1156.1L308.6,1156.1z"/>
			</g>
			<g>
				<path d="M304.7,1162.3c3,1.9,5.5,4.5,8.2,6.8c1.2,1.1,3-0.7,1.8-1.8c-2.8-2.5-5.5-5.2-8.7-7.2
					C304.6,1159.2,303.3,1161.4,304.7,1162.3L304.7,1162.3z"/>
			</g>
			<g>
				<path d="M287.8,1179.8c-0.3,2.5-1.4,4.9-2.2,7.2c-0.5,1.5,1.9,2.2,2.4,0.7c0.9-2.6,1.9-5.1,2.3-7.9
					C290.6,1178.2,288,1178.2,287.8,1179.8L287.8,1179.8z"/>
			</g>
			<g>
				<path d="M292.3,1185.2c-2.1-1.5-3.7-3.5-5.4-5.3c-1.1-1.2-2.8,0.7-1.7,1.8c1.9,2,3.7,4.1,5.9,5.7
					C292.4,1188.4,293.6,1186.1,292.3,1185.2L292.3,1185.2z"/>
			</g>
		</g>
		<g>
			<path fill="#B75925" d="M100.3,1130.4c3,5.6,8.4,4.9,13.8,5.6c4.8,0,11.4,1.4,16.2-0.7c7.8-4.2,6.6-7,6.6-16.8
				c0-13.3,3-29.4-8.4-33.6c-9-3.5-25.2-2.1-30.6,7L100.3,1130.4z"/>
		</g>
		<g>
			<path fill="#383720" d="M99.5,1092.7c2.2-4.1,8.1-6,11.9-7c4.1-1.3,8.6-1.4,12.7,0c2.6,0.8,5.7,2.2,7.8,4.1
				c2.2,2.2,0.8,2.9-1.2,3.8c-5.2,2.2-11.1,2.5-16.5,2.5c-4.2,0-8.5,0.5-12-2.4c-1-0.8-2-1.3-1.9-2.5"/>
		</g>
		<g>
			<path fill="#CEC361" d="M86.3,1117.5c5-1.9,6.7-8,12.7-8.8c4.3-0.6,7.5,2.6,11.4,3.4c3,0.4,12-2.1,11.6,3.7
				c-0.2,4.7-9.5,3.9-12.7,3.4c-2.6-0.4-2.8-0.8-4.9,1.3c-1.3,1.1-2.1,2.8-3.2,4.1c-3,3.2-5.8,3.9-9.7,4.9c-3.7,0.7-6,0.2-6.5-4.1
				c-0.4-2.4-0.4-7.7,2.8-8.4"/>
		</g>
		<g>
			<path fill="#CEC361" d="M301.1,1169.9c6,5-2,12.6-0.3,18.2c1.3,4.8,3.7,5.9-3,9.3c-3,1.7-5.7,1.7-9,2.2c-5.3,0.8-5,2,0.7,3.6
				c3.7,1.4,8.3,2,12,0.8c9.3-2.2,9.3-15.4,20.3-14c9,1.1,5.6,10,15.8,12c7.7,2.9,8.7,2.6,17.4,4.6c5,1.1,25.7-4.4,17.1-10.3
				c-2.7-1.7-9.3-0.8-13.9-1.6c-13.5-2.4-9.9-7.1-17.2-8.8c-7.3-1.4-5.3-15.5-9.3-20.3c-9-10.7-29-4.2-29,8.7"/>
		</g>
		<g>
			<g>
				<path fill="#382947" d="M7.6,1167.9c0.2,39.7,118.9,38.4,140.5,23.1c15-11,22.1-47.5-3.4-47.5c-19.4,0-38.9,4.2-59.1,1.7
					c-22.7-3.6-64.7-20.6-75,7.3C10.7,1152.5,7.6,1158.6,7.6,1167.9z"/>
			</g>
			<path d="M110.9,1158.5c-1.1,2.2-2.5,4.3-3.2,6.8c-0.4,1.6,2,2.2,2.4,0.7c0.6-2.2,1.9-4.1,3-6.2
				C113.9,1158.3,111.7,1157,110.9,1158.5L110.9,1158.5z"/>
			<path d="M105.5,1161.3c3.2,2.1,5.9,5,9,7.3c1.3,1,2.6-1.2,1.3-2.2c-3.1-2.3-5.7-5.2-9-7.3
				C105.4,1158.2,104.1,1160.4,105.5,1161.3L105.5,1161.3z"/>
			<path d="M39.6,1145.3c-1.8,4.2-4.6,7.9-6.6,12c-0.7,1.5,1.5,2.7,2.2,1.3c2.1-4.3,5-8.2,6.9-12.6
				C42.7,1144.5,40.2,1143.8,39.6,1145.3L39.6,1145.3z"/>
			<path d="M31.3,1148.8c2.5,3.6,5.8,6.4,8.9,9.5c1.2,1.1,2.9-0.6,1.8-1.8c-2.9-2.9-6.1-5.6-8.5-9
				C32.6,1146.2,30.4,1147.5,31.3,1148.8L31.3,1148.8z"/>
			<path d="M42.1,1189c1-3.3,1.4-6.7,2-10.1c0.3-1.6-2.2-2.3-2.4-0.7c-0.5,3.4-0.9,6.8-2,10.1C39.1,1189.9,41.6,1190.5,42.1,1189
				L42.1,1189z"/>
			<path d="M37.7,1183.7c3.1,0.6,5.7,2.4,8.7,3.4c1.6,0.5,2.2-1.9,0.7-2.4c-3-1-5.6-2.7-8.7-3.4
				C36.8,1180.9,36.1,1183.4,37.7,1183.7L37.7,1183.7z"/>
			<path d="M69.5,1149.8c-0.3,1.9-0.8,3.7-1.8,5.3c-0.9,1.4,1.3,2.6,2.2,1.3c1.3-2,1.8-4.2,2.1-6.5
				C72.2,1148.2,69.7,1148.3,69.5,1149.8L69.5,1149.8z"/>
			<path d="M65.1,1151.9c2.6,0.8,4.6,2.7,7,4.1c1.4,0.8,2.7-1.4,1.3-2.2c-2.6-1.5-4.8-3.4-7.6-4.3
				C64.2,1149,63.6,1151.4,65.1,1151.9L65.1,1151.9z"/>
			<path d="M22.2,1165.7c-0.9,1.8-2,3.4-3.1,5c-0.9,1.4,1.3,2.6,2.2,1.3c1.1-1.6,2.2-3.3,3.1-5C25.1,1165.5,23,1164.2,22.2,1165.7
				L22.2,1165.7z"/>
			<path d="M18.2,1166.4c0.9,2.9,2.8,5.3,5.1,7.3c1.2,1.1,3-0.7,1.8-1.8c-2-1.7-3.6-3.7-4.4-6.2
				C20.1,1164.2,17.7,1164.8,18.2,1166.4L18.2,1166.4z"/>
			<path d="M75.7,1173.5c-0.3,2.4-0.8,4.8-1.4,7.2c-0.4,1.6,2.1,2.3,2.4,0.7c0.6-2.6,1.1-5.2,1.4-7.9
				C78.4,1171.9,75.9,1171.9,75.7,1173.5L75.7,1173.5z"/>
			<path d="M72.4,1175.8c1.8,1.8,3.5,3.7,5.6,5.2c1.3,1,2.6-1.2,1.3-2.2c-1.9-1.4-3.4-3.2-5.1-4.8
				C73,1172.9,71.3,1174.6,72.4,1175.8L72.4,1175.8z"/>
			<path d="M104.5,1183.5c-0.3,2.8-1.1,5.4-1.9,8.1c-0.5,1.6,2,2.2,2.4,0.7c0.9-2.9,1.7-5.8,2-8.7
				C107.2,1181.8,104.7,1181.9,104.5,1183.5L104.5,1183.5z"/>
			<path d="M100.7,1186.3c2.2,2.1,4.5,4.1,7,5.8c1.4,0.9,2.6-1.3,1.3-2.2c-2.3-1.6-4.5-3.4-6.5-5.4
				C101.3,1183.4,99.5,1185.2,100.7,1186.3L100.7,1186.3z"/>
		</g>
		<g>
			<path fill="#005A99" d="M325.4,1125.4c-12.3-25.8-12.5-52.1-20.1-95.9c-4-22.9-33.1-85.2-58.2-78c-0.3-0.5-0.5-1-0.9-1.6
				c-1.7-3.2-4.7-6.4-8.4-7.1c-3-0.7-6.5,0-9.5-0.4c0.9,4.1,9.3,8.4,4.5,12.2c-2.4,1.7-4.9,2.8-7.1,4.7c-1.9,1.7-3.7,2.8-6,3.7
				c-5.4,2.1-9.5,0-13.6-3.6c-3.7-3.4-6.4-4.1-11.2-4.1c-3.9,0-18-2.4-12-8.6l0.6-0.4c-4.1,0-8.2-2.1-12,0.4
				c-2.3,1.6-3.4,3.8-3.8,6.3c-22.8,0.2-34.7,15.3-47.6,32.6c-13.5,18-31.4,31.4-44.9,48.2c-12.3,15.7-19.1,29.2-15.7,48.2
				c2.2,14.6,13.5,53.8,30.3,47.1c5.6-20.2-10.1-42.6,4.5-60.6c11.2-15.7,37-29.2,55-33.7c5.6,26.9-1.1,60.6-9,87.5
				c-3.4,14.6-23.6,63.9-12.3,77.4c10.1,11.2,53.9,1.1,68.4,5.6c18,4.5,58.3,20.2,68.4,7.9c16.8-19.1,3.4-62.8-1.1-84.1
				c-6.7-32.5-6.7-62.8,3.4-93.1c12.3,28,8.9,53.7,19,82.9c7.9,22.4,4.4,68.3,35.8,60.5C352.2,1171.6,334.4,1144.5,325.4,1125.4z"/>
		</g>
		<g>
			<path fill="#333333" d="M182.5,946.9c-4,0.2-1.5,4.6,0.6,5.7c1.9,1.1,5.3,0.8,7.4,0.6c5.1-0.4,8.5-2.5,12.7,1.5
				c3.8,3.4,6.6,8.9,12.3,8.7c6.6-0.2,7.6-5.7,11-9.5c1.5-1.3,4-1.5,5.1-3c1.7-2.3,0.2-6.1-0.8-8.5c1.1,5.5,9.5,5.5,9.3,10.8
				c-0.2,3.6-3.8,3.8-6.3,4.7c-3,1.1-4.4,2.5-6.6,4.6c-4.2,4.2-8.2,5.5-14.2,5.5c-7.4,0-8.5-7.6-14.8-9.7c-4.4-1.3-9.3,0.4-13.7-1.3
				c-3.8-1.5-9.9-8.9-2.5-10.6"/>
		</g>
		<g>
			<path fill="#C1A868" d="M575.5,887.4c-1.1,4.5-5.6,6-7.9,9.7c-2.6,3.7-0.4,5.2-1.1,9c-1.9,7.5-17.2,9-16.1,16.8
				c2.6,0.4,6,0.7,9,1.5c-3.7,5.2-1.9,7.9-1.9,13.1c0,4.5-5.2,12.3,1.5,13.8c4.1,0.7,11.6-3.7,15.7-4.1c4.1-0.4,8.6-1.1,12.7-1.5
				c10.1-0.7,18-1.1,24.3-9.7c6-7.5,15.3-15,19.1-23.6C647.7,875.4,595.5,873.8,575.5,887.4"/>
		</g>
		<g>
			<path fill="#C1A868" d="M573.7,947.1c8.2,8.2,5.2,19.4,3,29.5c-0.7,3.7-2.6,9-2.6,13.1c-0.7,7.9,4.5,5.6,10.5,3.4
				c4.1-1.9,8.6-4.5,12.7-6.7c2.6-1.5,4.9-3,7.9-3.7c2.2-0.7,4.1,2.2,6.4-0.7c2.6-3.4-2.6-10.4-3.7-13.7c-0.7-4.5-0.5-8.8,0-13.2
				c2.6-13.6,7.9-23.4,7.9-23.4s-10.2,6.9-14.7,8.8c-4.9,2.6-10.1,1.9-15,3C582.3,943.8,568.8,942.7,573.7,947.1"/>
		</g>
		<g>
			<path fill="#605B1F" d="M416,1186.9c5.6,16.3,2.2,28.6-16.8,21.3c-12.9-4.5-22.4-3.4-35.3-1.7c-10.1,1.1-32,5-34.2-10.7
				c-1.1-11.8,13.5-9,20.2-10.1c6.2-1.1,14.6-5,19.6-8.4c5-2.8,9.5-9.5,15.1-11.2c5.6-1.1,11.8,1.7,17.4,3.4"/>
		</g>
		<g>
			<path fill="#353535" d="M332.1,1191.2c-1.3,5.1,8.2,9.5,10.3,10.4c6.9,3,14.8,2.4,22.1,2.1s14.4-3.9,21.7-1.2
				c4.9,1.5,9.5,3.9,14.2,5.7c2.6,0.9,4.9,1.8,7.5,1.8c1.7,0,4.9-1.5,6.2-0.9c5,2.7-6,5.7-7.9,5.9c-4.5,0.3-9,0.9-13.3-1.8
				c-4.5-3-7.7-6.2-12.5-6.2c-4.3,0-8.4,1.8-12.5,2.7c-8.4,1.5-16.3,0.3-24.3-2.4c-5.2-1.8-16.1-5.1-11.2-17.6"/>
		</g>
		<g>
			<path fill="#353535" d="M576.8,888.7c-2.6,1.3-3.8,2.2-6.4,1c-1.6-0.6,0-4.1-3.5-3.8c-2.6,0.3-2.9,4.1-5.4,4.8
				c-1.9,0.3-3.8-2.6-7-1.3c1.9-1.6,2.6-4.1,4.1-5.4c2.2-1.9,4.1-1.9,6.1-4.1c0.6-1,0.3-3.5,1.3-4.8c2.9-3.2,3.2-0.6,6.4-0.6
				c2.9,0.3,3.2-1,5.7-1.6c0.6-0.3,1-1.9,1.9-1.9c1-0.3,2.2,1,2.6,0.6c3.2-0.6,1.3,0.3,4.1-1.9c2.6-2.2,1.6-2.6,5.1-3.5
				c2.6-0.3,3.5,0,5.7-1.3c1.9-0.6,3.2-2.6,5.1-3.2c5.7-1.9,4.5,1.6,7,4.5c0.6,0.6,2.6,0.6,3.2,1.3l1.6,2.9c2.2,1.6-1,3.8,3.2,1
				c1-0.6,1.9-2.9,3.2-3.5c1.6-1.3,5.1-2.9,7.3-1.6c2.2,1,0.6,4.5,3.8,5.7c1.9,1,6.1-1,7.3-0.3c1.6,1.3,1.3,8.6,1.6,11.2
				c0.3,2.9,8.7,0.2,6.5,3.7c-1.3,1.9-0.5,2.8-1.5,4.7c-1.6,5.7-2.3,3.9,1.5,4.9c3.5,1-2,3.3-0.1,5.3c0.3,0.3-0.3,1.9,0.6,2.9
				c0.6,0.6-0.5,1.5-0.2,1.8c1.6,1.3,1.6-2.7,1.9,0.8c0.3,2.2-0.8,2.1-1.4,3.7c-1.6,5.7,1.1,5.4-5,8.9c-3.5,1.9-3.5,4.7-7,5.6
				c-4.8,1.3-2.1,4.7-10.8,5.4c1,5.1-12,8.7-14.2,11.9c2.1-5,1.8-8.3,2.1-10.9c0.6-2.2-0.3-3.9,1.1-5.7c2.7-3.3,6.4-2.6,6-9.7
				c-0.3-4.9-2.1-8.7-5.9-4.9c-1.8,2-3.8,2.5-5.5,7.8c-0.8,0.7-1.8-1.6-2.1-0.5c-2.2-7,3-6.6-0.5-13.7c-0.3-1-2.2-0.6-2.6-1.6
				c-0.3-0.6,0-1.9-0.3-2.6c-0.6-1.9,1.6-3.5-1.3-4.8c-3.2-1.6-7.3,2.9-6.4,6.1c-2.9-0.3-5.4-11.8-8.6-6.1c-1.9-1-5.4-0.6-6.7-1.3
				c-2.9-1.9-0.6-5.7-3.8-7"/>
		</g>
		<g>
			<path fill="#252B1B" d="M525.2,1117.3c-2.2-15.7-16.5-37.4-24.4-52c-9-14.6-19.1-23.6-35.9-24.7c-35.9-3.4-40.4,21.3-51.6,48.2
				c-11.2,26.9-24.7,53.9-34.8,81.9c-6.7,19.1,1.1,24.7,21.3,29.2c9,1.1,23.6,2.2,30.3-3.4c9-6.7,20.2-38.1,25.8-49.4
				c6.7-14.6,7.9-30.3,14.6-44.9c-2.2,10.1-16.8,20.2-13.5,30.3c2.2,4.5,22.4,13.5,26.9,20.2c16.8,21.3,23.6,39.3,57.2,37
				c20.2-1.1,40.4-21.3,35.9-42.6C572.6,1121.4,525.2,1117.3,525.2,1117.3z"/>
		</g>
		<g>
			<path fill="#C1A868" d="M522.1,995.8c-25.8,10.1-51.6,20.2-78,29.2c-28.6,9.5-53.4,23.4-75.2,44.3c-11.2,10.7-23,11.8-25,51.3
				c7.9-5.6,7.3-14.1,14-21.4c6.2-7.3,6.5-4.1,13.2-11.4c-1.7,6.7-12.1,14-5.9,20.2c5.6-4.5,11.2-10.5,15.7-16.7
				c7.7-5.9,7-11.9,10.4-18.7c6.7-13.5,26.4-18,39.8-21.3c25.8-6.7,53.3-11.2,76.8-22.4c8.4-3.9,15.7-7.3,24.7-8.4
				c9.5-1.1,22.4-2.2,23.6-14.6c0.6-9-8.4-14.6-16.3-15.7C540,990.1,531.4,992,522.1,995.8"/>
		</g>
		<g>
			<path fill="#FFFFFF" d="M514.6,997.6c5.2,3.4,9.7,30.3,3.4,33.7c-0.7-2.2-1.5-4.5-2.2-6.7c0.7,6.7,4.1,8.2,9.7,6
				c6.4-2.2,9-3,15.3-1.1c6,1.9,10.1,5.2,15.3,0c3-3,3.7-7.1,5.6-10.8c2.6-5.2,7.5-7.9,9.7-13.1c1.5-4.1,3.7-9.7,5.2-13.5
				c4.5-13.8-9.3-12-18-9c-15,4.5-29.9,7.1-43.8,14.6"/>
		</g>
		<g>
			<path fill="#29301E" d="M550.9,1142.1c-47.1,0-132-24.6-176.9-10c-26.9,9-28.6,16.5-56.7,22.2c-24.7,4.5-35.3,7.6-58.9,12.1
				c-13.5,2.2-25.8,7.9-38.1,10.1c3.4,9,11.2,34.8,18,41.5c7.9,6.7,23.6,4.5,34.8,3.4c29.2-1.1,62.8-5.6,88.6-17.9
				c28-12.3,41.5-28,74-18c24.7,9,49.4,20.2,75.2,24.7c24.7,3.4,58.3,1.1,68.4-25.8C591.7,1156.2,550.9,1142.1,550.9,1142.1z"/>
		</g>
		<path fill="#605B1F" d="M492.6,1136.5c0,0,11,27.9,34,29.4s19.1-1.8,19.1-1.8l2.5,5c0,0-29.9,4.5-46.2-11.2
			c-16.3-15.7-12.9-22-12.9-22L492.6,1136.5z"/>
		<g>
			<path fill="#FFFFFF" d="M571.5,984.2c-9.7,38.1-35.2,69.6-46.4,107.7c-4.5,16.5-15.7,45.3-15.7,45.3s45.2,7.4,34.7,26
				c-1.8,11,7.8,17.1,15.9,25.5c9.6,9.9,33,6.5,24.1,8.7c17.2,1.5,27.7-83,28.4-95.7c1.5-20.2,1.5-44.1,7.5-62.1
				c5.2-16.5,3-32.2-2.2-47.9c-2.2-6-0.5-13.5-6.5-15.7c0,12.7-17.5,2.3-23.4,3c-8.2,1.5-9,4.9-15,8.6c0-3.7-0.7-2.2,2.3-5.2
				c-1.5,2.2-5.3,4.1-6.8,5.6"/>
		</g>
		<g>
			<path fill="#C1A868" d="M721,1187.9c-6.4-0.7-12,3.4-18.7,3c-6-0.5-16.7-5.6-23.9-3.8c-3-5.2-10.4-12-12.2-15.5
				c-12.3-22.4-14-47.1-26.9-69c-13.5-22.4-24.1-51-23-78c-2.8-6.2-4.5-12.9-7.9-17.4c-9-11.2-21.9-2.2-26.9,8.4
				c-9,19.1,3.4,44.3,13.5,60c8.4,12.9,13.5,25.2,18.5,40.4c6.2,15.7,14.6,25.8,25.2,39.3c5.6,6.2,10.7,12.3,15.7,19.1
				c3.9,5.6,5.6,15.1,11.2,19.6c0.8,0.7,2.1,1.4,3.6,1.9c-0.4,1-0.2,1.9,0.2,2.7c0.3,1.2,1.4,2.2,3.4,3c0.6,0.3,1.2,0.5,1.7,0.6
				c0.3,0.1,0.7,0.1,1.1,0.1c1.2,0.1,2.4,0.1,3.6-0.1c0.1,0,0.3,0,0.4,0c3.4,0.5,2.4,0.5,4.5,2.8c2.4,2.6,6.1,5.6,10,2.8
				c-3.4-2.8-2.4-5.7-3.4-8.6c0.4-0.1,0.8-0.1,1.1-0.1c4.5-0.4,8.2,0.7,12.3,0c4.5-1.1,8.2-4.1,12.3-5.6c6-1.9,19.8,4.1,22.8-0.4
				C733.4,1192,727,1188.6,721,1187.9z"/>
		</g>
		<path fill="#0057B6" d="M570.8,1033.3c-5.5,11.1-6.6,23.5-10.1,35.2c-3.4,11.5-14.3,19.6-18.3,31c-1.5,4.1,5.1,5.9,6.5,1.8
			c3.9-11,13.5-18.6,17.7-29.4c4.4-11.4,4.6-24.1,10-35.2C578.5,1032.8,572.7,1029.4,570.8,1033.3L570.8,1033.3z"/>
		<g>
			<path fill="#FFFFFF" d="M588.7,1005.1c15.3-12,29.2,6.7,32.9,20.2c1.9,6,0.7,12,1.9,17.9c1.1,8.2,4.5,15,7.9,22.4
				c-6-5.6-20.2-3.4-26.6,0.7c-3.7,2.2-7.5,6.4-8.6,10.5c-1.1,4.5,0.4,9,4.5,3.7c-7.1,9.7-13.1-3-14.6-9c-1.5-7.1-2.6-14.6-5.6-21.3
				c-3.4-8.6-7.5-20.2-4.1-29.5c1.5-5.2,12-17.9,17.6-18.3"/>
		</g>
		<path fill="#DB2A00" d="M560.9,1023c-4.6,14.5-11.6,28-17.5,42c-5.8,13.8-8.9,28.1-11.3,42.9c-0.3,2.1,2.9,3,3.2,0.9
			c2.5-15.3,5.8-30,12-44.4c5.8-13.5,12.4-26.5,16.8-40.5C564.8,1021.8,561.5,1020.9,560.9,1023L560.9,1023z"/>
		<g>
			<path fill="#605B1F" d="M237.1,1203.3c-4.5,9.7-15.3,12.7-24.3,15.7c-7.5,2.6-17.6,8.6-25.8,4.9c-8.2-3.4-7.5-14.6-6.4-22.4
				c1.1-6.7,4.1-12.7,3.4-19.8c-1.1-7.5-3-14.2-2.6-22.4c0.4-8.6,4.1-18.3,9-25.8c2.2-3.7,7.1-10.5,12.3-9.7c4.5,0.7,8.6,8.2,9,12.3
				c0.7,7.1-4.5,14.2-4.1,22.4c0.7,9.3,4.9,15.7,14.2,19.1L237.1,1203.3z"/>
		</g>
		<g>
			<path d="M193.4,1129.6c1.5,6.4,15,7.9,16.1,0.4c1.1-9.3-15.7-6.7-16.8,1.5"/>
		</g>
		<g>
			<path fill="#353535" d="M190.4,1132.3c14.2-2.2,3.4,15,1.1,19.4c-3.7,8.2-6.4,16.5-5.6,25.4c0.4,7.5,1.5,14.6,1.1,22.1
				c0,3.7-0.7,7.1,0,10.5c0.4,4.1,5.2,9,5.2,12.3c0,1.1,0.7,1.9,0.4,3c-24.7,6-12.3-29.9-10.5-40.4c2.6-15-4.5-29.9,3-44.9
				c1.1-2.2,9-12.7,9.3-6"/>
		</g>
		<g>
			<path d="M207.1,1158.2c-8.4-0.6-4.8,10.1-3.1,14.6c2.2,5.6,6.5,12.6,13.7,10.7c2.5-0.6,1.4,0.6,2.8-1.7c0.3-0.8,0.8-3.6,0.6-4.2
				c-0.8-2-6.7-5.3-8.4-7.3c-2-2.5-3.4-5-3.9-8.4c-0.3-2,1.1-6.7-2-4.5"/>
		</g>
		<g>
			<path fill="#FFFFFF" d="M569.1,905.3c-2.1,0.6-5.1,1-2.7,5.4c0.7,1.3,8,4.2,9.3,4.2C581.6,914.7,574.5,903.2,569.1,905.3"/>
		</g>
		<g>
			<path d="M568.8,898c0.3,1.2,2.6,1.6,3.5,1.9c1.8,0.5,3.7,0.7,5.4,1.6c1.2,0.6,1.8,1.4,2.6,2.4c0.6,0.7,2,1.4,0.9,2.3
				c-0.4,0.4-0.9,0.6-1.1,1.2c-0.3,0.5-0.1,0.6-0.8,0.5c-1-0.2-1.8-1.2-2.6-1.9c-0.7-0.6-1.3-1.3-2-1.9c-0.6-0.4-1.2-0.5-1.9-0.7
				c-0.9-0.3-1.8-0.6-2.7-1c-0.7-0.3-1.7-1.3-2-2C568,899.7,568.3,898.2,568.8,898"/>
		</g>
		<g>
			<path d="M555.8,946.8c-0.7,0.3-0.6,1-0.4,1.7c0.1,0.9,0.8,0.8,1.1,1.4c0.3,0.6,0.8,3.5,1.5,1.3c1.5,0.8,2,0.8,3.8,1
				c0.7,0.1,3.2,1.5,2.1-0.6c3.4,1.1,1.3-0.3,2.8-1.7c0.4-0.4,1.7-0.3,2.4-0.9c0.4-0.3,0.6-1.5,0.8-1.9
				C565.4,948,560.3,948.5,555.8,946.8"/>
		</g>
		<g>
			<path fill="#3A3A3A" d="M581.5,946.8c5.3-1.3,10.8-0.5,16.1-1.8c7.7-2.1,10.6-8.9,12.7-16.5c-2.9,1.6-4.8,6.8-7.7,9.5
				c-2.6,2.1-5.5,3.4-8.4,4.5c-2.6,1.1-13.9,1.8-14.2,4.2L581.5,946.8z"/>
		</g>
		<path d="M566.5,907.3c0,1,0.1,2,0.3,3c0.2,0.8,1.6,1.2,2,1.3c0,0,0.8,0.4,2.2-1.1c1.6-1.6,2.1-4.2-0.4-5.3
			C569.7,904.7,566.5,905.3,566.5,907.3L566.5,907.3z"/>
		<g>
			<path d="M559.1,934.6c4.9-2.9,8.9-2.1,13.6,0.8c0.5,0.3,0.9-0.4,0.4-0.7c-5-3.1-9.3-3.8-14.4-0.7
				C558.3,934.2,558.7,934.9,559.1,934.6L559.1,934.6z"/>
		</g>
		<path fill="#605B1F" d="M407.5,1136.5c0,0,14.7,15.2,10.9,34.7c0,0-36.2,16.8-44.5,10.8c-8.2-6-26.5-26.6-16.8-34.4
			C366.9,1139.7,403,1132.4,407.5,1136.5z"/>
		<path fill="#252B1B" d="M390.5,1136.1l4.8,20.6l14.1,18.3l9.1-3.9c0,0,12.3-20.3-12.5-36.3C406,1134.9,392.3,1132.9,390.5,1136.1z
			"/>
		<path fill="#C4C4C4" d="M24.4,1193.2c0,0,53.1,4.5,78.9,2.8c1.8,0.3-2.5,15.1-9,14.2c-6.5-0.9-50.1,0.9-73-2.9
			C17.8,1206.6,17.7,1202.2,24.4,1193.2z"/>
		<path d="M23.8,1195.4c0,0-4.5-7.2-8.3-1.3c-3.9,5.9-1.4,6.5,0.6,7.8c1.5,1.1,2.3,1.1,2.3,1.1s2.6,0.7,3.1,0s-1.4-1.3-1.4-1.3
			s-3.5-0.6-4-1.3c-0.6-0.7-2.6-2.5,1.8-6.4c0,0,1.9-1.8,4.5,3.1L23.8,1195.4z"/>
		<path fill="#C4C4C4" d="M15.8,1196.3c0,0,60.8-7.9,70.1-21.3c9.4-13.4,6.2-13,6.2-13l-7,4.8c0,0,1.7,6.5-16.7,14
			C50.2,1188.4,15.8,1196.3,15.8,1196.3z"/>
		<polygon fill="#000766" points="40.8,1195.7 85.1,1194.8 85.1,1195.7 40.7,1199.4 		"/>
	</g>
	<g id="Proto-type">
	</g>
</g>
</svg>
