<?xml version="1.0" encoding="utf-8"?>
<!-- Generator: Adobe Illustrator 16.0.0, SVG Export Plug-In . SVG Version: 6.00 Build 0)  -->
<!DOCTYPE svg PUBLIC "-//W3C//DTD SVG 1.1//EN" "http://www.w3.org/Graphics/SVG/1.1/DTD/svg11.dtd">
<svg version="1.1" id="Layer_1" xmlns="http://www.w3.org/2000/svg" xmlns:xlink="http://www.w3.org/1999/xlink" x="0px" y="0px"
	 width="750px" height="1334px" viewBox="0 0 750 1334" enable-background="new 0 0 750 1334" xml:space="preserve">
<g id="windows_x5F_light">
	<rect x="124.1" y="505.1" fill="#9EAEB7" width="445.2" height="407.3"/>
	<rect x="-448.2" y="587.8" display="none" width="599" height="333.9"/>
</g>
<g id="wall_x5F_fill">
	<path id="wall_x5F_fill_x5F_2" fill="#E5E5B5" d="M0,1215h750V0H0V1215z M571.5,914.6H123.3V505.1h448.3L571.5,914.6L571.5,914.6z"
		/>
</g>
<g id="wall_x5F_frames">
	<rect x="549.9" y="511" fill="#CCD9ED" width="38.1" height="420.1"/>
	<rect x="105.6" y="511" fill="#CCD9ED" width="38.1" height="704"/>
	<rect y="486" fill="#CCD9ED" width="750" height="38.1"/>
	<rect y="893" fill="#CCD9ED" width="750" height="38.1"/>
</g>
<g id="ground_x5F_roof">
	<rect id="ground_x5F_fill_3_" y="1195" fill="#353229" width="750" height="139"/>
	<polygon id="roof_x5F_3_2_" display="none" fill="#353229" points="-25.2,511 774.8,511 774.8,391.8 -25.2,391.8 	"/>
</g>
<g id="characters_x5F_outdoor_x5F_fills">
	<g id="Proto-type">
		<g id="chart_x2B_people_2_">
			<g>
				<path fill="#005A99" d="M307.8,627.5c-16.7,5.7-30.1,4.9-32.9,25.6c-3.7,27.2,6.5,56.9,14.2,82.5c2.8,10.6,7.7,20.3,13,30.1
					c4.1,7.7,6.9,10.2,14.2,3.3c11.4-11.4,20.3-25.2,30.9-37.4c4.5-5.3,8.5-11,7.3-18.3c-2.8-16.3-15.9-30.1-22.4-45.1
					s-10.2-33.7-27.6-40.7"/>
			</g>
			<g>
				<path fill="#005A99" d="M411.5,631.2c13.4,5.3,23.6,5.3,24.8,22.4c1.6,24.4-0.8,50.8-4.9,74.4c-1.2,8.1-1.2,19.1-8.1,24.4
					c-5.3,4.1-12.6,5.3-18.7,6.1c-17.5,3.3-32.9-1.6-37.4-21.5c-2.8-15.4,10.2-25.6,17.9-37.4c6.5-10.2,9.8-20.3,10.6-32.1
					c0.8-9.8,1.2-36.2,17.1-35"/>
			</g>
			<g>
				<path fill="#FFFFFF" d="M560.7,644.6c-13.4,1.2-23.2-11-36.6-7.3c-14.6,6.1-24.4,31.7-29.3,43.9c-11,25.6-13.4,48.8-15.9,75.6
					c-3.7,31.7-26.8,82.9,14.6,100c24.4,9.8,43.9,3.7,64.6,25.6c35.4-37.8,23.2-101.2,57.3-136.6c0,9.8-3.7,19.5-3.7,29.3
					c7.3-3.7,19.5-9.8,29.3-7.3c8.5,1.2,22,9.8,4.9,14.6c14.6-2.4,20.7-68.3,15.9-81.7c-4.9-13.4-32.9-30.5-45.1-36.6
					C604.6,658,574.1,645.8,560.7,644.6"/>
			</g>
			<g>
				<path fill="#C1A868" d="M592.4,628.1c4.3,20.1-22.6,18.3-33.5,16.5c-4.3,12.2,19.5,37.8,29.9,42.1c11,4.9,39,4.3,37.2-13.4
					c-0.6-7.3-7.9-10.4-7.3-20.1c0.6-7.3,7.3-12.8,1.2-16.5c-3.7-1.8-10.4,0-14.6-2.4c-6.7-3.7-8.5-11.6-14.6-15.9"/>
			</g>
			<g>
				<path fill="#005A99" d="M347.3,686.1c-1.2-19.5,6.1-23.2-9.8-38.4c-10.4-9.1-28.7-23.8-12.2-34.8c14.6-9.1,29.9-12.8,45.1-6.1
					c9.8,4.9,36.6,6.1,34.2,22c-1.2,7.9-9.8,6.7-15.9,10.4c-5.5,3.7-12.2,10.4-14,16.5c-4.3,12.8,6.1,20.1,5.5,32.9c0,0,0,0,0-0.6
					c1.2-9.1,0-18.9,5.5-26.8c4.9-7.3,11.6-8.5,18.9-12.2c12.8-6.7,22-22,12.2-35.4c-8.5-11-31.1-12.8-43.9-15.9
					c-15.2-4.3-30.5,1.8-45.1,6.1c-20.1,6.1-32.3,23.2-18.3,42.1c6.7,9.1,18.9,11.6,25,22c3.7,7.3,9.1,18.9,11.6,25.6
					c0-6.1-3.7-14,1.8-18.9"/>
			</g>
			<g>
				<path fill="#333333" d="M340.8,654.8c-0.4-8.1-13.8-21.5-10.2-28.5c4.7-3.2,15.4-3.7,20.7-3.3c8.1,0,15.5-5.6,26-1.9
					c5.4,1.9,7.3,3.1,7.7,10.1c0.4,5.3-6.5,11-6.1,16.7c2.4-8.9,20.7-11.4,26.4-19.1c7.7-11-10.6-17.5-18.7-20.7
					c-16.3-6.5-32.5-8.1-48.8-2.4c-10.2,3.7-21.1,8.5-21.1,21.1c0,13.4,17.1,18.3,24.4,26.8"/>
			</g>
			<path fill="#C1A868" d="M615.1,569l-7.2,2.4l-1.8,7l-5.6,4.8l-4.3,13.1l-5.9,15.4l1.5,13l4.9,10.7l14,5l11.4,0.3l11.4-2.7
				c0,0,7-2.4,9.7-10.7s2.3-11.7,2.3-11.7l5.3-8.2l2.1-8.6l-26.2-31.6L615.1,569z"/>
			<path fill="#C1A868" d="M598.1,589c0,0-9-6.2-8.6,12c0,1.7,1.5,4.2,1.5,4.2S597.2,600.7,598.1,589z"/>
			<path fill="#C1A868" d="M649.2,609.9c0,0,5.6-1.4,6.3-0.7s3.9,3.4-2.7,10.7c0,0-7.8,5.5-9.1,3.9
				C643.8,623.8,647.1,611.1,649.2,609.9z"/>
			<path fill="#3A3A3A" d="M599.1,587.5c0,0,2-7.2,3.2-5.8c0,0,7.3-3.1,4.3-5c0,0,0.3-6.7,3.7-6.1c0,0,2.9,1.2,4.8-1.6
				c0,0,1.2-2.1,3.4,3.6c0,0,1.5,1.3,4.5,1.2c0,0-0.5,7.6,6.1,10.8c0,0,3.4,2,5-4.8l-3.7,5.8c0,0-0.2,2.5,1.5,2.9
				c1.7,0.5,3.1,0.6,4.4,0.6s-3.2,6.5-1.4,5.5c0,0,3.1,3,4.4,0.6l1.7,1.9l6.8,7.3c0,0-1.2,1.7,3.5,2.7l-1.6,2.3l6.2-1.1l3.2,1.1
				c0,0-0.6-2.8,5.1-3.9s3.4-4.4,3.4-4.1c0,0.4-1.2-5.4,2.5-6.6c3.7-1.1,1.8-9,1.8-9l0.5-3.8c0,0-6.9,0.2-2.9-4.4
				c4-4.6,2.4-5.9-2.6-12.3c-5-6.3-6.9,1.5-7.1-0.3s-4.6-5.7-4.6-5.7s-4.9,1.5-8.8,0.8c0,0-0.2-4.3-3.9-6c-3.7-1.7-1.8-4.8-1.8-4.8
				s-2.3-1-4.6,1.9c-2.3,2.9-5.8,4.3-6,3.7c-0.3-0.7-1.5-5.1-3.5-4.7c-2,0.5-5,3-4.7,4.1c0.3,1.1-4.3,6.8-6.7,5.7
				c-2.4-1.1-2.8,0.6-4-4c-1.1-4.6-5.1,6.3-4.6,5c0,0,2.1,5.5-7.3,2.1c0,0,0.8,7.1-2.3,6c0,0-0.3-3.3-3.5-2.2c0,0-2.3,1.7,1.7,12
				c0,0-6.3,5.1-2.9,8.2C595.7,590.3,592.4,584.8,599.1,587.5z"/>
			<polygon points="600.9,637.2 606.3,640.2 611.8,640 617.2,639.9 616.8,641.4 610,642.6 604.1,642.1 601.7,640.5 600.6,638.5 			
				"/>
			<polygon fill="#3A3A3A" points="642.5,628.7 632.7,636.3 623.3,639.8 630.7,638.7 637.9,636.2 641.1,631.7 			"/>
			<polygon fill="#3A3A3A" points="590.3,611.8 592.4,620.4 593.2,627.7 594.6,630.8 591.1,626.5 590.2,621.9 589.5,615.1 			"/>
			<path d="M603.1,598c0,0-1.3,0.7,0.1,1.3c0,0,5.8-4.3,9.2,1.7c0,0,1.8,0.9,0.8-1C611.4,596.5,607.1,595.3,603.1,598z"/>
			<path d="M636.7,611.3c0,0,0.6,1.4-0.8,1c0,0-1.9-7-8.3-4.4c0,0-2-0.4,0-1.3C631.1,605,635.2,606.7,636.7,611.3z"/>
			<path fill="#CEC361" d="M335.9,624.1c0,0-2,19.2,21.7,15.6c22.6-3.5,21.4-12.6,21.9-15.1c0.6-2.9-7.3-4.7-7.3-4.7l1.1-15.1l0.6-6
				l-28.1,2.8l0.2,21.1L335.9,624.1z"/>
			<polyline fill="#CEC361" points="340.4,545.3 347.9,543.4 356,543.4 363.3,539.8 370.3,536.3 376.4,537.4 380.1,545.8 
				384.4,554.8 383.5,569.5 383.5,569.5 382.3,576.7 374.5,597 366.6,604.7 356.4,608.6 348.6,605.6 345.1,599.6 339.1,590.2 
				337.6,574 335.8,553.7 			"/>
			<path fill="#CEC361" d="M334.6,560.4c2.2,0.3,3,20.4,3,20.4s9.9,17.8-2.1-1.5s-1.2-18.9-1.2-18.9"/>
			<path fill="#CEC361" d="M385.3,565c0,0,10.9,1.2,2.9,14.4c0,0-2.5,5.6-7,3.4L385.3,565z"/>
			<path fill="#3A3A3A" d="M378.5,542.2c0,0,10.1-9-0.3-20.2c-10.4-11.2-30.2-3.2-30.2-3.2s-10.5,6.2-13.4,11.5c0,0,0.5,3-2,7.2
				s-0.9,12.4-1.2,13c-0.3,0.6,3.3,8.7,3.3,8.7l1.7,0.4c0,0-2.4-7.6,4.7-14.4c0,0,1.7-1.9,16-1.7c0,0,6.1-1.1,8.3-4
				c0,0,4.6-4,9.8-2.7L378.5,542.2z"/>
			<path fill="#3A3A3A" d="M382.9,529.6c0,0,3.4-3.3,4.1,0c0,0,2.2-0.2,3.2,4.9s-1,5.4,0.4,10.1c1.4,4.7,2,13.3,0.6,13.7l-3.7,7.2
				l-2.2-1c0,0-0.2-7.2-0.8-9.7c-0.6-2.6-5.9-10.1-5.9-11.3c0-1.3,5.6-5.1,3.7-7c-2-1.8-0.4-6.5-0.4-6.5L382.9,529.6z"/>
			<path fill="none" stroke="#000000" stroke-miterlimit="10" d="M335.1,561.9c0,0,10.5-5.5,22.2-1.8c0,0,5.4-2,7,1.1
				c0,0,12.8-5,21.1,1.7c0.9,6.7-2.4,8.6-2.4,8.6s-14.9,0.3-16.7-2.5c-2.2-2.2-1-2.2-2-6.7c0,0-2.3-4.1-6.5-0.6c0,0,0.3,3.6-2.2,6.5
				c-1.5,1.7-15.8,3.6-17.7,1.4C335.3,566.4,335.1,561.9,335.1,561.9z"/>
			<polyline points="349.6,606 356.6,607.1 365.8,605 365.8,606.8 363.1,608.6 358.5,610 357,611.2 352.4,610.1 351.2,608.6 			"/>
			<polygon points="344.7,586.7 357.8,584.2 369.5,588.3 357.8,586.3 355,586.3 			"/>
			<path d="M339,553.7c0,0,7.4-4.2,10.2-3.7l0.4,2.1c0,0-8.5,2.7-10.2,4.6l-1.1-1.2L339,553.7z"/>
			<path d="M371.8,552.1c0,0,6.9,0.1,8.8,3.4c0,0,0.3,2.8-1.9,2s-3.4-2.6-6.5-2.2l-1-1.3L371.8,552.1z"/>
			<g>
				<path fill="#29301E" d="M550.7,874.2c-2.7,3.4-4.6,7.3-7.3,11c-4.3,4.6-4.3,7.3-11,7c-6.7-0.3-13.1,0.9-19.8,0.9
					c-6.7,0-13.4-0.9-20.1-0.9c-2.7,0-5.5,0-8.2,0c-5.2,0-5.5,0.3-4.9-4.6c1.2-10.7,0-17.7,7.9-25.6c2.4-2.1,5.2-6.1,7.9-7.3
					s7.6-0.3,10.7-0.3c9.5,0,17.1,3.4,25.9,5.8c3.4,0.9,8.5,1.2,11.3,3c3,2.1,6.1,7.6,8.5,10.7"/>
			</g>
			<path fill="#EEFF2F" d="M525.8,697.1c-7.8,25.9-14.7,52-22.5,77.9c-2,6.8,8.5,9.9,10.5,3.2c7.8-25.9,14.7-52,22.5-77.9
				C538.3,693.5,527.8,690.4,525.8,697.1L525.8,697.1z"/>
			<path fill="#DB2A00" d="M560.6,709.1c-1.1,7.3-4.7,14-7.3,20.9c-3,7.7-5.4,15.6-8.5,23.2c-3.2,7.8-7.7,15.1-11.3,22.8
				c-3.4,7.3-6.2,14.8-8.6,22.5c-2.1,6.8,8.4,9.9,10.5,3.2c4.9-16,13.2-30,19.8-45.3c3.3-7.5,5.7-15.5,8.5-23.2
				c2.9-8,6.5-15.3,7.8-23.8C572.6,702.4,561.6,702.2,560.6,709.1L560.6,709.1z"/>
			<path fill="#0057B6" d="M592.6,718.5c-9.4,24.4-26.1,44.9-38.3,67.8c-3.3,6.2,5.9,12.1,9.3,5.8c12.8-23.8,29.7-45.1,39.6-70.5
				C605.6,715.1,595.1,712,592.6,718.5L592.6,718.5z"/>
			<g>
				<path fill="#E5D295" d="M274.1,651.3c0-7.3-11.3-6.7-11-14.3c0-4.3,6.7-11.3,1.5-14.9c-4,5.8-10.1,9.8-11.6,17.1
					c-1.8,8.8,2.4,12.8,7.3,19.8c2.7,4,9.1,10.4,14.6,7.3C281.7,662.6,274.1,656.2,274.1,651.3"/>
			</g>
			<g>
				<path fill="#E5D295" d="M117.2,660.4c4.9,10.2,6.5,17.9-2.8,26c-4.5,3.7-10.6,6.1-6.5,11c3.3,4.1,10.6,3.3,15.4,3.3
					c11.8,0,22.4-3.3,31.7-10.2c4.1-3.3,8.1-6.9,7.3-12.6c-1.2-6.9-4.9-4.1-10.6-6.5c-4.1-2-6.9-5.3-8.5-9.4c-2-4.9-0.8-9.8-6.1-8.5
					c-3.3,0.4-7.3,5.7-11.8,6.9c-2.8,0.4-6.1,0.4-8.9,0.4"/>
			</g>
			<g>
				<path fill="#E5D295" d="M150.5,856c1.6,4.3-0.8,12.4,2,15.7c13.5-2.2,25.3-6.1,36.8-11c12.6-5.4,26-8.3,38.6-13.2
					c8.3-3.3,23-10.8,17.7-22.2c-2.8-6.7-16.9,2.6-20.9,4.3c-13.4,4.9-27,8.5-40.5,13.2c-7.5,2.6-14.8,5.7-22.2,8.7
					c-4.7,1.8-11.2,3.5-11.6,9.1"/>
			</g>
			<g>
				<path d="M151.7,868.2c-2,3.7-2.8,9.4-1.2,13.4c0.8,2.4,1.8,8.6,3.5,10.6h7.4h26.2c9.3,0,17.8,0,27.1-2.1
					c7.7-1.6,25.6-2.8,31.3-9.8c4.1-5.3,2.8-17.5,3.3-24c0-3.3,0.4-6.5,0-9.8c-0.8-4.5-4.1-8.5-4.9-13c-6.9,4.9-13,9.3-21.5,12.6
					c-8.1,2.8-15.9,6.9-24,10.6c-12.6,5.3-33.7,13.8-48,11.4"/>
			</g>
			<g>
				<path fill="#40001E" d="M107.4,690.9c-13,7.3-29.3,8.9-35.8,24.4c-2.4,6.5-0.8,13-2.4,18.7c-1.6,8.1-8.1,15.4-8.1,23.6
					c8.1-0.8,28.5,1.6,29.3,11.4c3.3-6.5,2.4-15.5,8.1-20.3c0,26,30.1,26,39,49.6c7.3,19.5,8.1,41.9,12.9,61
					c20.5,0.8,98.3-20.7,92.6-37.8c-6.5-21.1-30.7-36.2-34.8-59.8c-3.3-17.1,0.8-34.2-2.4-51.2c-2.4-9.8,3.3-16.7-1.6-24.8
					c-7.3-14.6-21.1-14.2-37.4-12.6c-3.3,0.8-6.5,0-10.6-0.8c-0.8,16.3-35,26-48.8,17.9"/>
			</g>
			<rect x="189.5" y="643.4" fill="#FFD160" width="327.3" height="338"/>
			<g>
				<path fill="#E5D295" d="M266.8,649.5c-0.6-3.7-2.1-16.2,0.6-18.9c3-2.7,6.4,1.2,10.1,0.6c2.1-0.6,1.8-3.4,4.6-2.4
					c0.3,0,3,3,4,3.7c0.6,0.6,1.8-0.6,2.7-0.3c0.9,0.6,1.2,2.1,1.8,2.7c1.8,1.5,2.4,1.2,2.7,4c0.3,3.4-2.1,7.6-3.7,10.4
					c-3,5.2-14.3,15.6-21,9.8C264.9,656.2,266.8,653.1,266.8,649.5"/>
			</g>
			<g>
				<path fill="#C1A868" d="M644.9,772.7c-3.7,12.2,0,34.2-10.4,40.9c-15.2,10.4-50,4.9-67.1,4.3c-15.9-0.6-34.8-10.4-49.4-5.5
					c-9.8,2.4-35.4,7.3-43.3-3.1c-11-12.8,32.9-29.9,43.9-26.2c0-1.2,0.6-4.3,0-4.9c10.4-1.8,14.6,12.2,26.8,12.2
					c8.5,0,17.4-0.7,25.5-1.4c15.6-1.4,43.8,1.1,43.8,1.1s-5.1,1.9-1.3-15.7C632,767.6,644.9,772.7,644.9,772.7z"/>
			</g>
			<g>
				<path fill="#C1A868" d="M436.7,637.1c0,5.4-3,8.5-1.6,13.7c1.2,4.6,5.1,10.9,9.4,13.5c2.4,1.5,5.5,2.6,7.9,3.9
					c3.3,1.5,4.7,0.6,6.9-2c3-3.9,3.7-9.5,5.3-13.9c2.4-7.1,4.1-15.4-0.4-22.1c-1.8-2.6-3-2.2-5.9-2c-1.8,0-1.6,0.6-3,0
					c-1.6-0.6-1.6-2-3.9-1.9c-1.4,0.2-2.2,1.1-3.5,1.1c-0.6,0-1.6-1.3-3-1.1c-2,0.4-2,1.7-3,2.6c-1.2,0.7-2.8,1.3-3.7,2.2
					C436.9,632.4,436.7,635.4,436.7,637.1"/>
			</g>
			<g>
				<path fill="#C1A868" d="M467.8,641.7c0.2-3.3,3.7-9.8,7.1-10.2c3.5-0.4,8.9,4.5,7.7,8.1c-0.4,1.6-9.8,10-11.4,10
					C467.4,649.5,467.6,644.1,467.8,641.7"/>
			</g>
			<polygon fill="#E5D295" points="110.2,597.8 119.7,595.2 128.7,596.2 136,603.9 143,618.4 148.8,633 147.8,638.7 143.7,648.5 
				136.2,660.4 127.9,666.7 117.3,664.1 105.6,660.7 97.2,652.7 95,647.8 94.4,626.3 			"/>
			<polygon fill="#E5D295" points="110.2,597.4 119.7,594.8 128.7,595.8 136,603.5 143,618 148.8,632.6 147.8,638.3 143.7,648.1 
				136.2,660 127.9,666.2 117.3,663.7 105.6,660.3 97.2,652.3 95,647.4 94.4,625.9 			"/>
			<path fill="#3A3A3A" d="M128.9,596.1l-8.2-10.8l-2.6-1.4l-5.3,2.4l-10.8-2l-2.6,3.2c0,0-8.8,1.7-18.1,16.1l-4.1,12.7l1.3,3.4
				l-1.6,3.1c0,0-3.6,5.6,2.7,14.7c0,0-1.6,1.5-1.7,8.8c0,0-2.6,6.9-1.2,7.8c0,0,10.5,9.1,9.2,8.8l1.4,2.6l10,8l-1.4-2.3L90,665
				l4.6,1.1c0,0,2.8,3.2,9.5,4.6l5.3,4.7l0.7-4.9c0,0-1.8-5.6-12.6-8.8c0,0-5.2-4.4-4.1-9.1l1.7-4.7c0,0,2.1,3.5-0.8-18.2
				c0,0-1.7-2.2,5.8-10.9c0,0,1.8,0.4,7.1-15c0,0,1.1-9.3,14.3-7.6L128.9,596.1z"/>
			<path fill="#3A3A3A" d="M128.3,594.5c0,0,2-4.8,5.8-5.5c3.8-0.6,7.2,9.6,7.6,9.1c0,0,3.1,8.6,3.1,6.8c0-1.9,2,9,5.7,11.3
				c0,0,10.3,10.2,10.2,11c0,0,1.2,1.8-2.8,12.3c0,0-1.4,2.4,2,8.4c0,0,0.7,3.6-7.4,8.9c0,0-4.2,0.4-2.3,15.5c0,0-3.5-11.6-0.1-15.8
				l-2.6,2.6c0,0-2-8.7,0.9-12.8c0,0,0.8-1-0.7-6.2l1.4-9c0,0-5.6-5-5.9-15.5c0,0-5.8-10.6-8.8-14.8s-5.9-4.2-5.9-4.2l-1-1.7
				L128.3,594.5z"/>
			<path d="M97.5,625.5c0,0,0,2.6,2,1.7c0,0,4-5.5,10.2-3.6c0,0,2-1.1-0.2-2.8S99.7,622.6,97.5,625.5z"/>
			<path d="M121.3,616.5c0,0,0.2,2.4,2.1,1.5c0,0,4.1-6.3,10.2-4.1c0,0,3.6-0.7,1.4-2.2C129.6,607.9,122.7,613.5,121.3,616.5z"/>
			<path d="M129.2,619.3c-1.1,1-1.6,2.7-1,5.2c1.9-1.3,9.5-2.1,9.5-2.5c-0.2-1.6-1.9-4.8-5.2-4.1C131.2,617.9,130,618.6,129.2,619.3
				z"/>
			<path d="M104.8,628.6c-1.2,1-2.4,3.3-0.5,5.4c2.5-1.1,5.8-2.5,9.2-3.1c-0.2-1.6-2.3-4.5-5.7-3.7
				C106.7,627.4,105.6,627.9,104.8,628.6z"/>
			<path d="M114.3,626c0,0-6.5-2.4-10-1.3c-3.5,1.1-6.2,8.7-6.3,10s0.7,3.1,0.7,3.1s6.9-5.3,17.1-7.2
				C115.8,630.5,115.3,626.3,114.3,626z M114.4,630.5c-1.2,0.4-8.2,0.6-14.4,5.6c-0.5-1.4,0.2-3.7,0.2-3.7c0-4.4,4.6-6.4,4.6-6.4
				c2-0.2,8.1,0.3,8.6,1.2C113.9,628.1,114.6,629.7,114.4,630.5z"/>
			<path d="M123.6,627.2c10.2-4.2,17.9-5.1,17.9-5.1s-0.4-1.9-1.3-2.9c-0.9-0.9-7.8-5.2-11.2-3.9c-3.5,1.4-7,7.3-7,7.3
				C121.4,623.6,123.6,627.2,123.6,627.2z M123.4,623.1c-0.1-1,4.3-5.2,6-6.3c0,0,4.8-1.3,7.6,2.1c0,0,2,1.4,2.5,2.8
				c-5.2,1.3-7.3,0.2-14.8,4.6C124,625.8,123.5,624.1,123.4,623.1z"/>
			<g>
				<path fill="#E5D295" d="M80.5,782.4c7.6,7,18-3.5,41.2-5.2c19.2-1.4,22.9-1.5,38.4-3.7c8.8-1.2,14.9-5.2,19.8-12.5
					c4.9-6.7,9.1-6.4,17.1-6.4c8.5,0,14.3,1.8,22,5.2c2.4,0.9,7.9,2.1,8.5,5.2s-4.9,8.8-7,10.4c-6.1,5.2-12.8,5.2-20.4,5.2
					c-4,0-6.7,1.8-10.7,2.4c-3.7,0.9-6.1-0.6-9.8-1.2h2.7c-15.6-0.9-33.2,9.8-47.3,15.2c-15.2,6.1-29.6,14-46.3,14
					c-7.6,0-14.9-0.9-22.6-0.9c-10.1,0-11.6-2.1-11.9-11.6c-0.6-7,0.3-14,2.1-21c2.1-6.7,3.7-15.9,7.3-22l0.9,0.3
					c6.1-3.7,18.9-1.5,23.5,4.3c2.7,4-0.9,22-4.3,25.6"/>
			</g>
			<polygon fill="#A59F4A" points="339.6,909.8 341.2,943.2 440.6,885.7 			"/>
			<polygon fill="#FBFF28" points="343.8,914.2 341.2,943.2 440.6,885.7 			"/>
			<polygon fill="#F4F490" points="343.8,914.2 440.6,885.7 391.2,934.3 			"/>
			<polygon fill="#F4F490" points="440.6,885.7 339.6,909.8 300.3,911.8 			"/>
			<path fill="#A59F4A" d="M372.4,678.8c15.5,0.3,24.9,9.5,30.8,15.8c1.1,1.1,4.3,0.9,3.3-0.2c-6.7-7-17.4-17-34.7-17.3
				C369.6,677,370.2,678.7,372.4,678.8L372.4,678.8z"/>
			<path fill="#A59F4A" d="M445.5,835.2c1.4,14.3-0.7,23.5-6.2,30.7c-1.1,1.4,0,4.1,1,2.7c5.9-7.8,9.6-20,7.3-34.2
				C447.4,832.1,445.7,832.9,445.5,835.2L445.5,835.2z"/>
			<path fill="#77703F" d="M242.1,828.3c-18.3,0-33.2,14.9-33.2,33.2s14.9,33.2,33.2,33.2c18.3,0,33.2-14.9,33.2-33.2
				S260.5,828.3,242.1,828.3z M242.1,889.9c-15.7,0-28.3-12.7-28.3-28.3c0-15.7,12.7-28.3,28.3-28.3c15.7,0,28.3,12.7,28.3,28.3
				C270.5,877.2,257.8,889.9,242.1,889.9z"/>
			<path fill="#77703F" d="M242.1,842.9c-10.3,0-18.6,8.3-18.6,18.6s8.3,18.6,18.6,18.6c10.3,0,18.6-8.3,18.6-18.6
				C260.7,851.3,252.4,842.9,242.1,842.9z M242.1,876c-8,0-14.5-6.5-14.5-14.5s6.5-14.5,14.5-14.5s14.5,6.5,14.5,14.5
				S250.1,876,242.1,876z"/>
			<rect x="268.6" y="832.6" fill="#A59F4A" width="68.9" height="2.5"/>
			<rect x="341.2" y="833.9" fill="#A59F4A" width="21.1" height="2.5"/>
			<rect x="341.2" y="828.3" fill="#A59F4A" width="14" height="2.5"/>
			<rect x="319.9" y="867.3" fill="#A59F4A" width="13.5" height="2.5"/>
			<rect x="319.9" y="872.5" fill="#A59F4A" width="9.4" height="2.5"/>
			<rect x="230.4" y="934" fill="#A59F4A" width="11.8" height="2.5"/>
			<rect x="230.4" y="941.3" fill="#A59F4A" width="16.5" height="2.5"/>
			<rect x="247.9" y="870.8" fill="#A59F4A" width="68.9" height="2.5"/>
			<rect x="222.3" y="866.4" fill="#A59F4A" width="2.5" height="68.9"/>
			<rect x="229.9" y="672.3" fill="#FFFFFF" width="126.9" height="126.9"/>
			<polygon fill="#A59F4A" points="437,712.7 500.5,776.2 373.2,776.2 			"/>
			<polygon fill="#F4F490" points="437,712.7 373.2,776.2 434.9,774.2 			"/>
			<polygon fill="#F4F490" points="437,712.7 500.5,776.2 438.1,773 			"/>
			<rect x="229.9" y="735.1" fill="#A59F4A" width="5.5" height="1.1"/>
			<rect x="237.8" y="735.1" fill="#A59F4A" width="5.5" height="1.1"/>
			<rect x="245.8" y="735.1" fill="#A59F4A" width="5.5" height="1.1"/>
			<rect x="253.7" y="735.1" fill="#A59F4A" width="5.5" height="1.1"/>
			<rect x="261.7" y="735.1" fill="#A59F4A" width="5.5" height="1.1"/>
			<rect x="270.3" y="735.1" fill="#A59F4A" width="5.5" height="1.1"/>
			<rect x="278.2" y="735.1" fill="#A59F4A" width="5.5" height="1.1"/>
			<rect x="286.2" y="735.1" fill="#A59F4A" width="5.5" height="1.1"/>
			<rect x="294.1" y="735.1" fill="#A59F4A" width="5.5" height="1.1"/>
			<rect x="302.1" y="735.1" fill="#A59F4A" width="5.5" height="1.1"/>
			<rect x="310.8" y="735.1" fill="#A59F4A" width="5.5" height="1.1"/>
			<rect x="319.3" y="735.1" fill="#A59F4A" width="5.5" height="1.1"/>
			<rect x="327.3" y="735.1" fill="#A59F4A" width="5.5" height="1.1"/>
			<rect x="335.3" y="735.1" fill="#A59F4A" width="5.5" height="1.1"/>
			<rect x="343.2" y="735.1" fill="#A59F4A" width="5.5" height="1.1"/>
			<rect x="351.2" y="735.1" fill="#A59F4A" width="6.2" height="1.1"/>
			<polygon points="115.8,653.3 121.8,647.3 127.1,645 133.7,645 134.4,646.1 131.7,645.8 128.5,646.1 124.5,647.6 121.3,649.5 
				117.5,653.1 			"/>
			<path fill="#FFFFFF" d="M357.3,561c0.2,1.3-0.8,7.1-3.7,7.5c-1.5,0.2-9.5,1.9-14.4,1.2c-3.4-2.1-3.3-6.4-3.4-7
				c-0.2-1.3,7.3-2.6,10.2-3.1C348.9,559.2,357.1,559.7,357.3,561z"/>
			<path fill="#FFFFFF" d="M385.2,563.4c-0.1,0.8,0.1,6.8-3,7.7c-1.9,0.6-12.5-0.5-14.7-1.6c-2.7-0.3-3.2-6.4-3-7.7
				s8.8-2.2,11.5-1.9C378.7,560.2,385.3,562.1,385.2,563.4z"/>
			<polygon fill="#FFFFFF" points="348.7,590.8 356.8,592 368.3,591.2 357.1,594.4 351.2,593.9 348.1,593.5 			"/>
			<path d="M617,597.2l-1.3-0.1c0,0-6.7-3.1-9.5-2.7c-2.8,0.4-2.9-1.2-2.9-1.2l0.1-2.4l4.9,0.3c0,0,5.2,1.8,6,3.2
				c0.8,1.3,2,1.7,2,1.7L617,597.2z"/>
			<path d="M627.8,602l1.3,0.4c0,0,6.8,2.9,8.4,5.2c1.6,2.3,1.9,1.2,1.9,1.2l1.7-0.6l-3.5-3.8c0,0-2.7-2.7-4.2-2.7
				c-1.7,0-2.8-0.6-2.8-0.6L627.8,602z"/>
			<path fill="#FFFFFF" d="M601.7,618.6c0,0,7.4,4.2,10.4,5.3c2.9,1,12.3,4.1,12.3,4.1l-8,1.7l-6-1.5l-5.6-2.1L601.7,618.6z"/>
		</g>
		<g id="client_x5F_2_2_">
			<g>
				<path fill="#001221" d="M465.4,1186.5c-5.6,22.4-2.4,45.8-5.7,68.7c-2.3,16.3-10.1,30.9-13.5,46.7c-1.5,7.2-2.3,32.1-2.3,32.1
					h57.5c0,0,1.5-2.5,2.1-3.9c5.6-12.9,4.5-28.1,6.2-42.2c2.8-20.3,9-38.3,22.5-54c9.6,7.9,8.4,30.9,9.6,42.2
					c1.1,19.1,1.7,33.8,9,51.8c1,2.7,2.8,6.2,2.8,6.2h55.6c0,0,2.8-7.4,2.4-13.5c-1.1-15.2-5.6-29.8-6.8-44.4
					c-1.1-15.8,1.1-32.1,0-47.8c-1.1-12.9-6.2-25.3-10.1-37.1c-1.7-6.2-3.4-18-8.4-21.9c-4.5-2.8-12.9-0.6-18-1.1
					c-19.1-1.1-33.2-7.9-52.9-2.3c-10.1,2.8-19.1,3.4-29.8,2.3c-3.9,0-9.6-1.7-13.5-0.6c-5.2,1.6-8.9,5.7-7.5,9.1L465.4,1186.5z"/>
			</g>
			<path d="M315.4,1334v-78.4c0-7.5,6-13.5,13.5-13.5h142.9c7.5,0,13.5,6,13.5,13.5v78.4H315.4z"/>
			<path d="M369.7,1232c0,4.3,0,8.6,0,12.9c0,2.2,3.4,2.2,3.4,0c0-4.3,0-8.6,0-12.9C373.1,1229.8,369.7,1229.8,369.7,1232
				L369.7,1232z"/>
			<path d="M427.6,1231.7c0,4.4-0.5,8.8,0.3,13.1c0.4,2.1,3.7,1.2,3.3-0.9c-0.8-4-0.3-8.1-0.2-12.2
				C431,1229.6,427.7,1229.6,427.6,1231.7L427.6,1231.7z"/>
			<g>
				<path fill="#CEA64A" d="M501.6,922.2c-1.5,4.9,3.8,11.6,9,12.4c0-1.1,0.4-1.5,0.4-2.6c-1.1,9-2.6,17.3-4.5,26.3
					c-1.9,11.6,6,17.3,17.6,18c7.1,0.4,24-2.3,25.1-11.3c0.4-4.1-3.8-8.6-4.9-12.4c-1.5-4.5-1.9-10.1-1.1-14.6
					c0.4-2.3,1.1-4.5,1.9-6.8c-0.4,1.9-0.8,4.1-0.4,6c4.9-2.3,6.4-12,3-16.1c-3-4.5-10.5-6-15.8-6.4c-10.5-0.8-22.5,2.6-30.8,9.4"/>
			</g>
			<g>
				<path fill="#CEA64A" d="M640.4,1030.6c5.3,6,15.8,8.2,21.8,14.3c3-18,16.1-31.1,20.6-48.4c5.3-17.3,11.8-36.8,18.6-53.3
					c0.2-7.6,11.4-28.9,11.4-28.9s15-1.6,22.1,3.2c3.7,2.3,3.3,18.3,2.8,22.1c-2.7,21.7-7.9,17.9-20.7,18.1
					c-6.5,16.1-11.2,72.3-25.4,101.5c-4.5,9-10.7,16.3-17.5,23.1c-12,12-15,0.8-26.3-6c-15-9-38.3-21-17.3-38.3c3-3,6-4.5,9.8-6"/>
			</g>
			<g>
				<path d="M492.3,894.3c-0.3,3.9,4.5,6.6,4.5,10.4c0,3.9-3.9,6.8-4.5,10.1c-1.1,8.4,3.4,15,11.3,15c6.2,0,17.8,9.6,24,10.2
					c7.3,0.6,11.5-6.5,18.3-4.8c5.6,1.7,6.6-4.1,11.7-7.5c6.8-4.5,3.9-10.1,4.5-17.4c2.3-20.3,13.5-33.2-4.5-50.6
					c-6.8-6.8-16.3-11.3-25.9-13.5c-8.2-1.4-20.8,2-25.4,10.4C506.2,856.7,496.6,859.5,492.3,894.3z"/>
			</g>
			<g>
				<path fill="#CEA64A" d="M424.8,1069.6c-1.7,29.8-19.7,59.6-26.4,89.4c-3.4,14.1-5.6,29.8-3.4,43.9c0.6,3.9,3.9,19.1,9.6,18
					c5.1-1.1,7.3-16.9,7.9-20.8c5.1-26.4,24.2-46.7,29.8-72.6c2.8-12.9,6.8-23.1,11.3-35.4c4.5-12.4,1.1-30.4-16.9-28.7
					c-6.2,0.6-11.3,4.5-14.1,9.6"/>
			</g>
			<g>
				<path fill="#AB9AFF" d="M420.3,1065.1c3.4-16.9,12.4-42.8,19.1-61.9c10.1-31.5,34.9-34.9,65.3-38.3c24.8-2.3,47.3,1.1,70.9,6.7
					c11.3,2.3,22.5,1.1,31.5,6.8c13.5,7.9,14.6,21.4,21.4,32.6c5.6,9,11.3,15.8,20.3,19.1c-11.3,9-27,21.4-29.3,36
					c-13.5-5.6-19.1-36-31.5-16.9c-5.6,9-5.6,30.4-7.9,41.6c-4.5,27,2.3,50.6,1.1,77.6c-23.6-27-87.8,0-113.6,3.4
					c5.6-39.4,2.6-90.8,1.5-130.1c1.1,7.9-4.9,34.5-9.4,41.3c-11.3-4.5-34.9-10.1-40.5-20.3"/>
			</g>
			<g>
				<path fill="#AB9AFF" d="M502.2,965.2c2-3.7-1.9-9.7,1.4-12.1c2.3-1.7,3.2-1.7,6.8-1.1c3.7,0.8,7.4,1.4,11,2.3
					c10.1,2.3,17-2.9,27.6-1.5c1.7,2.5,6.1,11,4.1,13.9c-1.4,2.3-14.6,1.7-17.7,2c-5.6,0.8-11,2.5-16.3,1.4
					C513.1,968.6,507.8,967.5,502.2,965.2"/>
			</g>
			<g>
				<path fill="#CEA64A" d="M696.4,954.2c-2.8-10.5-6.1-21.2-1-31.7c3.1-6.3,9.7-10.5,11-17.6c0.5-3.9-1.5-17.8,4.3-14.7
					c4.8,2.9,7.4,11,6.1,16.3c-0.8,3.9-3.1,7.1-3.3,11c-0.3,4.5,2.5,7.9,1.5,12.3c-1.8,5.8-7.6,11.3-10.7,16.3
					c-0.8,1.8-8.2,12.1-8.9,7.1"/>
			</g>
			<g>
				<path fill="#CEA64A" d="M398.2,1200.1c-1.7,3.8-4.4,6.9-7.3,9.7c-3.7,3.7-5.9,7.7-6.5,12.9c-0.7,6.6,0.4,16.7,7.2,19.8
					c4.9,2.3,10.3-1,15.5-1.1c3.1-0.1,7.2,2.8,9.7,0.6c3.7-3.4,2.7-10.8,2.7-15.2c0-7-1-14.5-6.2-19.8c-2.5-2.5-5.8-3.8-8.7-5.9
					C400.8,1198.3,399.4,1196.2,398.2,1200.1"/>
			</g>
			<path d="M371,1233.1c19.4,0,38.8-0.3,58.2-0.3c2.2,0,2.2-3.4,0-3.4c-19.4,0-38.8,0.3-58.2,0.3
				C368.9,1229.7,368.9,1233.1,371,1233.1L371,1233.1z"/>
			<g>
				<path fill="#CEA64A" d="M389.1,1237c-3.6-10.1,7.3-25.2,18.4-24.1c4.9,0.6,8.4,6.6,9.9,10.9c1.5,3.8,4.9,12.2,0.4,15.2
					c-2.1,1.3-2.6,0-4.7-0.2c-1.9,0-2.6,0.8-4.3,1.1c-3.4,0.9-5.1-1.3-8.3-0.2c-2.4,0.6-5.8,2.3-8.4,1.5
					C390.6,1240.6,389.6,1238.9,389.1,1237L389.1,1237z"/>
			</g>
			<g>
				<path fill="#CEA64A" d="M413.4,1196.7c0.6,5.6,7.2,7.5,10.1,11.5c4.2,5.8,1.3,12.9,0.8,19.3c-0.1,2.3,0,4.5,0.7,6.6
					c0.3,1.3,1.3,3.2,0.7,4.5c-1.8,4.5-7.5-1.5-8.6-3.7c-1.8-3.1-1.4-6.6-1-10c0.6-4.8-1.5-5.2-5.2-7.6c-4.9-3.2-5.9-10.4-3.8-15.7
					C408.2,1199,411.4,1193.4,413.4,1196.7"/>
			</g>
		</g>
		<g id="client_1_">
			<path fill="#FFFFFF" d="M371.7,1295.4c0.2,0.2,0.3,0.4,0.6,0.7c0.2,0.2,0.3,0.4,0.6,0.7c-0.8,0.6-1.6,1-2.5,1.3
				c-0.9,0.3-1.8,0.5-2.8,0.5c-1.1,0-2.3-0.2-3.3-0.7c-1-0.4-1.9-1-2.7-1.8c-0.8-0.8-1.3-1.6-1.8-2.6s-0.7-2.1-0.7-3.3
				c0-1.1,0.2-2.3,0.7-3.3s1-1.9,1.8-2.7c0.8-0.8,1.7-1.3,2.7-1.8s2.1-0.7,3.3-0.7c1,0,2,0.1,2.9,0.5c0.9,0.3,1.7,0.8,2.5,1.3
				c-0.2,0.2-0.3,0.4-0.6,0.7c-0.2,0.2-0.3,0.5-0.6,0.7c-0.6-0.5-1.2-0.8-1.9-1.1c-0.7-0.2-1.5-0.3-2.3-0.3c-0.9,0-1.8,0.2-2.6,0.6
				c-0.8,0.3-1.5,0.8-2,1.5c-0.6,0.6-1,1.4-1.4,2.1c-0.3,0.8-0.6,1.7-0.6,2.6s0.2,1.8,0.6,2.6c0.3,0.8,0.8,1.5,1.4,2.1
				c0.6,0.6,1.2,1.1,2,1.5c0.8,0.3,1.7,0.6,2.6,0.6C369.1,1296.9,370.5,1296.5,371.7,1295.4z"/>
			<path fill="#FFFFFF" d="M379.1,1298.4h-1.8v-32.1h1.8V1298.4z"/>
			<path fill="#FFFFFF" d="M384.8,1276.7c0-0.5,0.1-0.8,0.4-1s0.6-0.5,1-0.5c0.3,0,0.7,0.1,1,0.5c0.3,0.2,0.5,0.6,0.5,1
				c0,0.5-0.1,0.8-0.5,1c-0.3,0.2-0.6,0.5-1,0.5c-0.3,0-0.7-0.1-1-0.5C385.1,1277.3,384.8,1277,384.8,1276.7z M387.1,1298.4h-1.7
				v-16.1h1.8v16.1H387.1z"/>
			<path fill="#FFFFFF" d="M407.5,1288c-2.3,0.9-4.4,1.8-6.6,2.6c-2.3,0.9-4.4,1.8-6.6,2.6c0.5,1.1,1.2,1.9,2.4,2.7
				c1,0.7,2.3,1,3.6,1c0.9,0,1.7-0.1,2.5-0.5c0.8-0.3,1.5-0.8,2-1.4c0.2,0.2,0.3,0.5,0.6,0.7c0.2,0.2,0.3,0.5,0.6,0.7
				c-0.8,0.7-1.6,1.2-2.5,1.6c-0.9,0.5-1.9,0.6-3,0.6s-2.3-0.2-3.3-0.7c-1-0.4-1.9-1-2.7-1.8s-1.4-1.6-1.8-2.6
				c-0.4-1-0.7-2.1-0.7-3.3c0-1.1,0.2-2.3,0.7-3.3s1-1.9,1.8-2.7c0.8-0.8,1.7-1.3,2.7-1.8s2.1-0.7,3.3-0.7c0.9,0,1.7,0.1,2.5,0.5
				c0.8,0.3,1.5,0.7,2.1,1.2c0.7,0.6,1.2,1.1,1.7,1.9C406.8,1286.3,407.2,1287.1,407.5,1288z M400.1,1283.7c-0.9,0-1.7,0.1-2.5,0.5
				c-0.8,0.3-1.5,0.7-2,1.2c-0.6,0.6-1,1.1-1.4,1.9c-0.3,0.7-0.6,1.5-0.7,2.4c0,0.3,0,0.7,0,1s0,0.7,0.1,1c1.9-0.8,3.8-1.6,5.7-2.3
				c1.9-0.8,3.8-1.5,5.7-2.3c-0.5-1-1.2-1.8-2.1-2.4C402.2,1284,401.2,1283.7,400.1,1283.7z"/>
			<path fill="#FFFFFF" d="M413.9,1282.3h1.6v1.5c0,0.5,0,0.9,0,1.4c0,0.4,0,0.8,0,1.3c0.6-1.3,1.5-2.5,2.7-3.3s2.7-1.2,4.3-1.2
				s2.8,0.5,3.7,1.3c0.9,0.9,1.4,2,1.5,3.5v11.6H426v-11.1c-0.1-0.9-0.3-1.7-1-2.4c-0.6-0.7-1.5-1-2.7-1.1c-0.9,0-1.7,0.1-2.5,0.5
				c-0.8,0.3-1.5,0.7-2.1,1.2c-0.6,0.6-1.1,1.1-1.5,1.8c-0.3,0.7-0.6,1.5-0.6,2.4v8.8h-1.8L413.9,1282.3L413.9,1282.3z"/>
			<path fill="#FFFFFF" d="M435.9,1271.9h1.8v10.5h5v1.8h-5v14.3h-1.8v-14.3h-3.7v-1.8h3.7V1271.9z"/>
		</g>
	</g>
</g>
</svg>
