<?xml version="1.0" encoding="utf-8"?>
<!-- Generator: Adobe Illustrator 16.0.0, SVG Export Plug-In . SVG Version: 6.00 Build 0)  -->
<!DOCTYPE svg PUBLIC "-//W3C//DTD SVG 1.1//EN" "http://www.w3.org/Graphics/SVG/1.1/DTD/svg11.dtd">
<svg version="1.1" id="Layer_1" xmlns="http://www.w3.org/2000/svg" xmlns:xlink="http://www.w3.org/1999/xlink" x="0px" y="0px"
	 width="750px" height="1334px" viewBox="0 0 750 1334" enable-background="new 0 0 750 1334" xml:space="preserve">
<g id="windows_x5F_light">
	<rect x="152.4" y="505.2" fill="#AACCC2" width="445.2" height="407.3"/>
</g>
<g id="characters_x5F_indoor_x5F_fills">
	<g id="strategy_2_">
		<rect id="whiteboard_x5F_2_2_" x="154.7" y="552" fill="#FFFFFF" width="436.2" height="238"/>
		<g id="markings_2_">
			<g>
				<path fill="#76A8A8" d="M444.6,572.5c0,19.1,1.2,38.2,1.8,57.3c0,1.2,1.9,1.2,1.8,0c-0.6-19.1-1.8-38.2-1.8-57.3
					C446.5,571.3,444.6,571.3,444.6,572.5L444.6,572.5z"/>
			</g>
			<g>
				<path fill="#76A8A8" d="M439.5,625.2c35.4,0,70.7-1.2,106.1-1.2c1.2,0,1.2-1.8,0-1.8c-35.4,0-70.7,1.2-106.1,1.2
					C438.3,623.4,438.3,625.2,439.5,625.2L439.5,625.2z"/>
			</g>
			<g>
				<path fill="#76A8A8" d="M450.4,606.9c30.1-1.3,44.2-37.8,74.4-39c1.2-0.1,1.2-1.9,0-1.8c-30.3,1.3-44.5,37.7-74.4,39
					C449.3,605.1,449.3,607,450.4,606.9L450.4,606.9z"/>
			</g>
			<g>
				<path fill="#76A8A8" d="M452.9,601.4c13.9-0.7,27.5-3.3,40.8-7.3c13.4-4,26-12.4,40.3-12.2c1.2,0,1.2-1.8,0-1.8
					c-12.5-0.2-23.4,6.2-34.8,10.4c-14.7,5.4-30.7,8.3-46.3,9.1C451.7,599.7,451.7,601.5,452.9,601.4L452.9,601.4z"/>
			</g>
			<g>
				<path fill="#76A8A8" d="M456.8,631c0,1.1,0,2.2-0.5,3.2c-0.5,1.1,1.1,2,1.6,0.9c0.6-1.3,0.7-2.7,0.7-4.1
					C458.7,629.8,456.8,629.8,456.8,631L456.8,631z"/>
			</g>
			<g>
				<path fill="#76A8A8" d="M481.8,631.6c0,2,0,4.1,0,6.1c0,1.2,1.8,1.2,1.8,0c0-2,0-4.1,0-6.1C483.7,630.4,481.8,630.4,481.8,631.6
					L481.8,631.6z"/>
			</g>
			<g>
				<path fill="#76A8A8" d="M438.2,603.3c-1.8,0-3.7,0-5.5,0c-1.2,0-1.2,1.8,0,1.8c1.8,0,3.7,0,5.5,0
					C439.4,605.1,439.4,603.3,438.2,603.3L438.2,603.3z"/>
			</g>
			<g>
				<path fill="#76A8A8" d="M440.3,584.4c-1.9-0.6-3.8-0.6-5.7-0.6c-1.2,0-1.2,1.8,0,1.8c1.8,0,3.5,0,5.2,0.6
					C441,586.5,441.4,584.7,440.3,584.4L440.3,584.4z"/>
			</g>
			<g>
				<path fill="#76A8A8" d="M469.6,601.9c-0.1,19.1-1.4,38.3,2.5,57.2c0.2,1.2,2,0.7,1.8-0.5c-3.8-18.7-2.5-37.7-2.4-56.7
					C471.5,600.8,469.7,600.8,469.6,601.9L469.6,601.9z"/>
			</g>
			<g>
				<path fill="#76A8A8" d="M475.4,669.5c9.8,0,19.5,0,29.3,0c1.2,0,1.2-1.8,0-1.8c-9.8,0-19.5,0-29.3,0
					C474.3,667.7,474.3,669.5,475.4,669.5L475.4,669.5z"/>
			</g>
			<g>
				<path fill="#76A8A8" d="M475.4,677.7c13,0,26,0,39,0c1.2,0,1.2-1.8,0-1.8c-13,0-26,0-39,0C474.3,675.8,474.3,677.7,475.4,677.7
					L475.4,677.7z"/>
			</g>
			<g>
				<path fill="#76A8A8" d="M476.3,685c6,0,11.9,0,17.9,0c1.2,0,1.2-1.8,0-1.8c-6,0-11.9,0-17.9,0C475.1,683.2,475.1,685,476.3,685
					L476.3,685z"/>
			</g>
			<rect x="321.8" y="581" fill="#76A8A8" width="20.1" height="5.5"/>
			<rect x="362.4" y="635" fill="#76A8A8" width="20.1" height="5.5"/>
			<rect x="398.2" y="752" fill="#76A8A8" width="20.1" height="5.5"/>
			<rect x="199.2" y="653.4" fill="#76A8A8" width="20.1" height="5.5"/>
			<g>
				<path fill="#76A8A8" d="M337.1,592.4c3.9,11.6,11.7,21.5,20.6,29.7c0.9,0.8,2.2-0.5,1.3-1.3c-8.6-8-16.3-17.6-20.1-28.9
					C338.5,590.8,336.8,591.3,337.1,592.4L337.1,592.4z"/>
			</g>
			<g>
				<path fill="#76A8A8" d="M374.5,649.9c-0.8,31,2.1,65,21.3,90.7c0.7,0.9,2.3,0,1.6-0.9c-19-25.4-21.8-59.1-21-89.8
					C376.4,648.7,374.5,648.7,374.5,649.9L374.5,649.9z"/>
			</g>
			<g>
				<path fill="#76A8A8" d="M314,584.9c-19.8,14.6-42.7,25.1-65.8,33.5c-13.1,4.8-33.5,10.9-38.7,25.5c-0.4,1.1,1.4,1.6,1.8,0.5
					c2.8-7.9,11.1-12.5,18.1-16.2c8.2-4.2,17.1-7.3,25.8-10.4c20.9-7.6,41.8-18.2,59.8-31.4C315.8,585.8,314.9,584.2,314,584.9
					L314,584.9z"/>
			</g>
			<g>
				<path fill="#76A8A8" d="M228.3,657.3c40.3-0.1,80.4-4.9,119.8-13c1.2-0.2,0.7-2-0.5-1.8c-39.3,8.1-79.2,12.9-119.3,13
					C227.1,655.5,227.1,657.3,228.3,657.3L228.3,657.3z"/>
			</g>
			<g>
				<path fill="#76A8A8" d="M407.6,745.8c21-12.8,39.6-29,60.2-42.3c1-0.6,0.1-2.2-0.9-1.6c-20.6,13.3-39.2,29.5-60.2,42.3
					C405.7,744.9,406.6,746.5,407.6,745.8L407.6,745.8z"/>
			</g>
		</g>
		<g id="anam_x5F_4_2_">
			<g>
				<path fill="#E5D295" d="M249.9,813.3c7.5-16.1-0.4-35.2-3.9-52.1c-3.1-15.3-6.3-57.9-30.9-55.6h-2c-9.4,14.1-2.3,46.2,0,61.8
					c3.1,21.9,1.6,47,29,49.3C242.1,816.9,247.6,818.4,249.9,813.3z"/>
			</g>
			<g>
				<path fill="#E5D295" d="M394.6,736.3c2.5-12.8,1.7-33.4-13.4-36.7c-3.6-0.8-11.7-1.9-13.9,1.7c-2.5,3.9-0.8,12,3.9,12.8l1.5,0.2
					c-0.3,2-0.4,3.9,0.2,5.9c1.7,5.6,11.1,6.1,10,12.8l-1,1.7c-10.2,15.3-21.3,17.9-36.2,26.1l-6.5,4.6l6.4,33.6l6.1-4.5
					C368.8,777.5,388.8,759.8,394.6,736.3"/>
			</g>
			<g>
				<path fill="#E5D295" d="M313.3,755.8c1.6,9,9.8,20.7,14.5,28.6c2,4.3,17.2,21.9,21.1,11.3l1.9-2.9c0.3-15.6-8.5-30.2-12.6-44.9
					c-4.4-15-1.2-29.9-7.6-44.6l-21.1,47.9L313.3,755.8z"/>
			</g>
			<g>
				<path fill="#E5D295" d="M289.9,660.9c-2.4,13.2,7,22.7,11.9,24.9c-30,13.8-49.4-1-49.4-1c7.9-4.5,14-11.7,12.5-23.9l-5.2-7.4
					l17.4-14.5l17.5,18.2L289.9,660.9z"/>
			</g>
			<g>
				<path fill="#E5D295" d="M316,850.3c1.2,0.9,2.1,3.4,2.6,4.5c1.6,2.9,1.2,4.8,0,8.1c-2.2,5.9-16.6,9.7-19.2,10.4
					c-5,1.5-31.3,4-39.2,3.2c-5.9-0.7-31.8-7.9-38.2-10.9c-2.8-1.3-4.4-2.3-3.8-5.4c0.4-2.2,1.2-3.8,3.1-4.8
					c3.5-1.6,29.6-1.6,38.6-1.6L316,850.3z"/>
			</g>
			<g>
				<path fill="#40001E" d="M219,856.8c-0.1-3.5,4.4-8.4,5.8-10.7c9.2-15.5,15.1-29.7,13.8-48.3c-1.4-17.3-3.1-31.5-7.5-45.2
					l-1.1,0.5c-3.2,1.2-16.7,4.3-19.6,1.2c-1.8-2-1.8-14.1-1.8-17.2c-1.1-8.2-2.4-27.7,4.5-33.5l1.6-2.2
					c10.4-9.5,27.1-11.4,37.9-18.2l0.6-0.1c8.5,2.3,14.4,5.3,22.9,5.3c9.6,0,16.7-0.6,25.3-4.1l0.4,0.1c10.4,5,23.1,7.7,28.2,17
					l1.1,1.5c3.2,8,4.6,15.7,5,24.5c0.2,4.7,0.2,9.4,1.2,13.7c0.5,2.9,2,5.7,2.5,8.6c-5,0.8-9.8,2.3-14.2,5.1
					c-4.4,2.9-6,6.7-8.9,11.4c-1.4-2.5-2.8-4.1-3.5-6.8l0.2-2.4c-5.2,15.1-7.1,31.5-8.8,48.9c-1.5,18.6,5.1,31.1,14.1,46.8
					C318.8,852.5,269.4,875.9,219,856.8z"/>
			</g>
			<g>
				<path d="M320.1,858.1c5.4,6.7,16.9,35.2,5.9,45l-104-1.8c0,0-5.4-3.7-7.5-5.6c-8.1-7.4-2.9-22.7,3.2-35.7
					C217.6,859.9,289.1,888.7,320.1,858.1z"/>
			</g>
			<g>
				<path fill="#3A3A3A" d="M250.4,677.3c0.9-2.3,0.3-6.7-0.9-8.8c-1.8-3.2-7-5.7-7.9-9.5c-0.6-2.4,0.3-5.3,0.3-7.9
					c0-6.5-2.4-12.6-0.9-19.4c1.5-7.9,8.5-13.5,10.9-21.7c0.9-3.2,10.6-18.2,13.2-8.2l0.3-0.3c2.3-2.6,3.5-8.5,7-9.7
					c2.9-1.2,5.9,1.8,9.1,1.2c3.5-0.9,5.6-5,9.4-4.7c4.1,0.3,7.6,5.6,10.6,8.2c3.5,2.9,7,5.9,8.8,10.3c2.1,4.4,1.5,9.4,3.8,13.5
					c4.1,6.8,12,10.3,11.2,19.4c-0.3,3.5-2.1,8.2-3.2,11.4c-1.8,5.3-7.3,7-11.4,10.9c-1.8,1.8-2.9,4.4-4.7,5.9
					c-2.6,2.6-5,2.6-6.5,6.8c-1.8,4.4,1.2,10.3-4.4,12.6l-1.2,0.8c-5.7,3.4-26.6-3.7-18.4,11.5l0.6,3.2c-4.4-3.8-7-9.4-5.6-15.3
					c1.2-4.7,5.6-7,6.8-11.4c2.9-9.4-6.5-15.9-6.2-24.7l0.6-4.1c-2.1,7.6-10.6,4.6-15.9,8.1c-5.3,3.5,2.1,12.3,0.6,16.4
					C255.2,674.5,250.4,677.3,250.4,677.3z"/>
			</g>
			<g>
				<path fill="#3A3A3A" d="M264.6,646.3c-7.3,0.2-1.3,13.3-0.6,16.3c1.3,5-0.3,9.6-5.8,13.3c-4.5,3-10.2,4.4-11.2,9.4
					c-0.6,3,2.6,7.8-0.6,10.1c7.3-1.4,5.4-8.8,13.4-11.3c7-2.3,17.2-5.2,20.4-10.5c1.7-2.9-1.3-6.2-0.6-9.2c0.6-3,4.8-5,7.3-7.6
					c4.5-4.4,6.4-10.1,4.5-15.4c-4.5-12.2-18.8-0.5-25.6,3.4L264.6,646.3z"/>
			</g>
			<polygon fill="#C70011" points="372.8,713.6 344.5,678.8 346.3,677.1 373.7,712.6 			"/>
		</g>
		<g id="chess_x5F_board_2_">
			<rect x="296.1" y="859.4" fill="#353229" width="198.8" height="34.3"/>
			<g>
				<path d="M328.9,856.5v2.9h-11.2v-19.2h3.6v16.2L328.9,856.5L328.9,856.5z"/>
				<path d="M348.1,849.8c0,1.4-0.2,2.7-0.7,3.9s-1.1,2.2-2,3.1c-0.8,0.9-1.9,1.6-3.1,2c-1.2,0.5-2.5,0.7-4,0.7s-2.8-0.2-4-0.7
					c-1.2-0.5-2.2-1.2-3.1-2c-0.9-0.9-1.5-1.9-2-3.1s-0.7-2.5-0.7-3.9c0-1.4,0.2-2.7,0.7-3.9c0.5-1.2,1.1-2.2,2-3.1
					c0.9-0.9,1.9-1.6,3.1-2c1.2-0.5,2.5-0.7,4-0.7c1,0,1.9,0.1,2.7,0.3c0.9,0.2,1.6,0.5,2.4,1c0.7,0.4,1.4,0.9,1.9,1.5
					c0.6,0.6,1.1,1.2,1.5,2c0.4,0.7,0.7,1.5,0.9,2.4C348,848,348.1,848.9,348.1,849.8z M344.4,849.8c0-1.1-0.1-2-0.4-2.8
					s-0.7-1.5-1.2-2.1c-0.5-0.6-1.2-1-1.9-1.3c-0.7-0.3-1.6-0.5-2.5-0.5s-1.8,0.2-2.5,0.5c-0.7,0.3-1.4,0.8-1.9,1.3
					c-0.5,0.6-0.9,1.3-1.2,2.1c-0.3,0.8-0.4,1.8-0.4,2.8c0,1.1,0.1,2,0.4,2.8c0.3,0.8,0.7,1.5,1.2,2.1c0.5,0.6,1.2,1,1.9,1.3
					c0.7,0.3,1.6,0.5,2.5,0.5s1.8-0.2,2.5-0.5c0.7-0.3,1.4-0.8,1.9-1.3c0.5-0.6,0.9-1.3,1.2-2.1
					C344.3,851.8,344.4,850.9,344.4,849.8z"/>
				<path d="M372.5,859.4h-3.2c-0.6,0-1.1-0.2-1.3-0.7l-4-6.1c-0.1-0.2-0.3-0.4-0.5-0.5c-0.2-0.1-0.4-0.1-0.8-0.1h-1.5v7.5h-3.6
					v-19.2h5.8c1.3,0,2.4,0.1,3.3,0.4c0.9,0.3,1.7,0.6,2.3,1.1s1,1.1,1.3,1.7c0.3,0.7,0.4,1.4,0.4,2.2c0,0.6-0.1,1.3-0.3,1.8
					c-0.2,0.6-0.5,1.1-0.8,1.6c-0.4,0.5-0.8,0.9-1.3,1.2c-0.5,0.4-1.1,0.6-1.8,0.8c0.2,0.1,0.4,0.3,0.6,0.5c0.2,0.2,0.4,0.4,0.5,0.6
					L372.5,859.4z M363.3,849.4c0.7,0,1.3-0.1,1.8-0.3c0.5-0.2,0.9-0.4,1.2-0.7c0.3-0.3,0.6-0.6,0.7-1.1c0.2-0.4,0.2-0.9,0.2-1.3
					c0-1-0.3-1.7-1-2.2c-0.6-0.5-1.6-0.8-2.9-0.8H361v6.4H363.3L363.3,849.4z"/>
			</g>
			<g>
				<path fill="#FFFFFF" d="M457.5,856.3c0.7,0,1.3-0.1,1.8-0.3s1-0.6,1.4-1c0.4-0.4,0.7-0.9,0.9-1.5c0.2-0.6,0.3-1.3,0.3-2V840h3.6
					v11.5c0,1.1-0.2,2.2-0.5,3.2c-0.4,1-0.9,1.8-1.6,2.5c-0.7,0.7-1.5,1.3-2.5,1.6c-1,0.4-2.1,0.6-3.3,0.6c-1.2,0-2.3-0.2-3.3-0.6
					c-1-0.4-1.8-0.9-2.5-1.6s-1.2-1.5-1.6-2.5c-0.4-1-0.5-2-0.5-3.2V840h3.6v11.5c0,0.7,0.1,1.4,0.3,2c0.2,0.6,0.5,1.1,0.9,1.5
					s0.8,0.7,1.4,1C456.2,856.2,456.8,856.3,457.5,856.3z"/>
				<path fill="#FFFFFF" d="M493.2,840.1v19.2h-3.1v-12.4c0-0.5,0-1,0.1-1.6l-5.8,10.9c-0.3,0.5-0.7,0.8-1.3,0.8h-0.5
					c-0.6,0-1-0.3-1.3-0.8l-5.9-10.9c0,0.3,0,0.6,0.1,0.9c0,0.3,0,0.5,0,0.8v12.4h-3.1v-19.2h2.7c0.2,0,0.3,0,0.4,0s0.2,0,0.3,0.1
					c0.1,0,0.2,0.1,0.3,0.2c0.1,0.1,0.1,0.2,0.2,0.3l5.7,10.6c0.2,0.3,0.3,0.6,0.4,0.9c0.1,0.3,0.3,0.6,0.4,0.9
					c0.1-0.3,0.3-0.6,0.4-0.9c0.1-0.3,0.3-0.6,0.4-0.9l5.7-10.6c0.1-0.1,0.1-0.2,0.2-0.3s0.2-0.1,0.3-0.2c0.1,0,0.2-0.1,0.3-0.1
					c0.1,0,0.3,0,0.4,0h2.7V840.1z"/>
			</g>
			<g>
				<path d="M378.5,850.2v3h3.8v1.5h-3.8v3h4.8v1.6h-6.8v-10.8h6.8v1.6h-4.8V850.2z"/>
				<path fill="#FFFFFF" d="M404,848.6v10.8h-1.8v-7c0-0.3,0-0.6,0-0.9l-3.3,6.1c-0.2,0.3-0.4,0.4-0.7,0.4h-0.3
					c-0.3,0-0.6-0.1-0.7-0.4l-3.3-6.1c0,0.2,0,0.3,0,0.5s0,0.3,0,0.4v7h-1.8v-10.8h1.5c0.1,0,0.2,0,0.2,0c0.1,0,0.1,0,0.2,0
					s0.1,0.1,0.1,0.1s0.1,0.1,0.1,0.2l3.2,6c0.1,0.2,0.2,0.3,0.2,0.5c0.1,0.2,0.1,0.3,0.2,0.5c0.1-0.2,0.1-0.4,0.2-0.5
					c0.1-0.2,0.2-0.3,0.2-0.5l3.2-6c0-0.1,0.1-0.1,0.1-0.2l0.1-0.1c0.1,0,0.1,0,0.2,0c0.1,0,0.1,0,0.2,0H404z"/>
			</g>
			<g>
				<path fill="#FFFFFF" d="M420.7,859.3h-2v-10.8h2V859.3z"/>
				<path d="M427.7,848.6c0.7,0,1.3,0.1,1.9,0.3c0.5,0.2,1,0.4,1.3,0.7c0.3,0.3,0.6,0.7,0.8,1.1c0.2,0.4,0.2,0.9,0.2,1.4
					s-0.1,1-0.3,1.4c-0.2,0.4-0.4,0.8-0.8,1.1c-0.3,0.3-0.8,0.6-1.3,0.7c-0.5,0.2-1.1,0.3-1.8,0.3h-1.5v3.8h-2v-10.8H427.7z
					 M427.7,854.1c0.4,0,0.7,0,1-0.1s0.5-0.2,0.7-0.4c0.2-0.2,0.3-0.4,0.4-0.6c0.1-0.2,0.1-0.5,0.1-0.8s0-0.5-0.1-0.8
					c-0.1-0.2-0.2-0.4-0.4-0.6c-0.2-0.2-0.4-0.3-0.7-0.4c-0.3-0.1-0.6-0.1-1-0.1h-1.5v3.9h1.5V854.1z"/>
				<path fill="#FFFFFF" d="M444.9,850.4c-0.1,0.1-0.1,0.2-0.2,0.2c-0.1,0-0.1,0.1-0.3,0.1c-0.1,0-0.2,0-0.3-0.1
					c-0.1-0.1-0.3-0.2-0.4-0.3c-0.2-0.1-0.4-0.2-0.6-0.3c-0.2-0.1-0.5-0.1-0.8-0.1s-0.5,0-0.7,0.1c-0.2,0.1-0.4,0.2-0.5,0.3
					c-0.1,0.1-0.2,0.3-0.3,0.4c-0.1,0.2-0.1,0.3-0.1,0.5c0,0.3,0.1,0.5,0.2,0.6c0.1,0.2,0.3,0.3,0.6,0.4c0.2,0.1,0.5,0.2,0.8,0.3
					s0.6,0.2,0.9,0.3c0.3,0.1,0.6,0.2,0.9,0.4c0.3,0.1,0.6,0.3,0.8,0.5c0.2,0.2,0.4,0.5,0.6,0.8c0.1,0.3,0.2,0.7,0.2,1.1
					c0,0.5-0.1,0.9-0.3,1.4c-0.2,0.5-0.4,0.8-0.7,1.1c-0.3,0.3-0.7,0.6-1.2,0.7c-0.5,0.2-1,0.3-1.6,0.3c-0.3,0-0.7,0-1-0.1
					c-0.3-0.1-0.7-0.2-1-0.3c-0.3-0.1-0.6-0.3-0.9-0.4c-0.3-0.2-0.5-0.4-0.7-0.6l0.6-1c0-0.1,0.1-0.1,0.2-0.2c0.1,0,0.2-0.1,0.3-0.1
					c0.1,0,0.3,0.1,0.4,0.2c0.1,0.1,0.3,0.2,0.5,0.3c0.2,0.1,0.4,0.2,0.7,0.3c0.3,0.1,0.6,0.2,1,0.2c0.6,0,1-0.1,1.3-0.4
					s0.5-0.7,0.5-1.2c0-0.3-0.1-0.5-0.2-0.7c-0.1-0.2-0.3-0.3-0.6-0.5c-0.2-0.1-0.5-0.2-0.8-0.3c-0.3-0.1-0.6-0.2-0.9-0.3
					s-0.6-0.2-0.9-0.4c-0.3-0.1-0.6-0.3-0.8-0.5c-0.2-0.2-0.4-0.5-0.6-0.8s-0.2-0.7-0.2-1.2c0-0.4,0.1-0.8,0.2-1.1s0.4-0.7,0.7-1
					s0.7-0.5,1.1-0.7c0.4-0.2,0.9-0.3,1.5-0.3c0.6,0,1.2,0.1,1.8,0.3c0.5,0.2,1,0.5,1.4,0.8L444.9,850.4z"/>
			</g>
		</g>
	</g>
</g>
<g id="wall_x5F_fill">
	<path id="wall_x5F_fill_x5F_3" fill="#E5E5B5" d="M750,0H0v1215h750V0z M597.6,912.4H152.4V505h445.2V912.4z"/>
</g>
<g id="wall_x5F_frames">
	<rect x="577.3" y="511" fill="#CCD9ED" width="38.1" height="420.1"/>
	<rect x="133.3" y="511" fill="#CCD9ED" width="38.1" height="704"/>
	<polyline fill="#CCD9ED" points="750,486 0,486 0,524.1 750,524.1 	"/>
	<rect y="893" fill="#CCD9ED" width="750" height="38.1"/>
</g>
<g id="ground_x5F_roof">
	<rect id="ground_x5F_fill_8_" y="1195" fill="#353229" width="750" height="139"/>
	<polygon id="roof_x5F_3_1_" display="none" fill="#353229" points="777.5,511 -22.5,511 -22.5,391.8 777.5,391.8 	"/>
</g>
<g id="characters_x5F_outdoor_x5F_fills">
	<g id="cat_x5F_content_1_">
		<g>
			<path fill="#B86700" d="M571.1,888.6c-0.4,5.1,3.3,10.8,5.3,15.2c2,4.9,4.3,9.6,5.5,14.6c2.2,10.4,1.8,20.9,3.5,31.3
				c0.2,1,1.2,5.7,0.4,6.5c-2,2.2-4.1-2.8-4.7-4.3c-1-3.7-1.2-7.3-1.4-11c-0.6-8.7-2.6-17.1-5.3-25.2c-2-6.3-6.3-11.4-8.1-17.5
				c-1-2.6-2-5.7-1.8-8.5c0.2-2,3.9-7.9,5.3-3.9L571.1,888.6z"/>
		</g>
		<g>
			<path fill="#B86700" d="M514.8,801.2c-7.3,2.1-13.7,12.5-19.8,17.1c-5.2,3.7-14.9,5.8-12.2,14.6c6.4,3.6,7.4-1.9,10.7-4.6
				c2.4-2.1,4.9-3.3,7.9-4.2c3.4-0.9,17-6,17.3-0.3c0.3,2.4-6.4,9.1-7.6,11.6c-1.5,2.7-5.8,7.3-5.8,10.4c-0.3,8.2,10.5,4.8,10.8-2.5
				c2.4,6.7,5.6,9.8,2.6,16.8c-1.5,3.7-2.4,6.7-2.4,10.7s0.3,7.3,2.4,11c1.8,3.4,4,3.4,1.8,6.1c-1.2,1.2-4.6,3.7-6.1,4.9
				c3,0.9,9.3,0,12.9,0l37.1,0.2c2.1,0.3,4.2,2.5,6.1,1c2.1-1.5,0.6-1.2,0.9-3.7c0.3-2.1,0.6-5.2,0.9-7.6c0.6-5.8-0.9-14.9-5.2-19.2
				c-3-3.7-8.5-5.2-9.5-10.1c-0.6-2.4,0.9-6.4,0.9-9.1c0-5.8,0-11.3,0-17.1c0-11.3-1.8-22.3-2.7-33.5c-1.2-13.4,8.6-27.2,6.4-41.5
				c0.3-3,1.7-10.5-1.8-12.2c-3.1,0.3-3.7,4-5.5,5.5c-2.7,2.4-2.1,2.1-5.8,2.1c-2.4,0-5.8,0.3-8.2-0.3c-3.4-0.9-6.4-7-9.1-7
				c0.9,7.6,5.7,6,0.3,13.6c-4.9,7-2.1,8.6,0.4,15c0.9,7.9-2.4,11.3-7.3,16.2c-4.3,4.3-5.5,9.1-8.5,13.7L514.8,801.2z"/>
		</g>
		<g>
			<path fill="#FFFFFF" d="M542.8,755.8c0.9-2.3,3.8-3.3,5.7-1.5c1.3,1.3-0.8,2.4-2.1,2.7c-1.1,0.2-2.1,0-3-0.6L542.8,755.8z"/>
		</g>
		<g>
			<path fill="#FFFFFF" d="M533.6,756.1c1.4,1.4,3.6-1.4,2.7-2.6c-0.3-0.4-1.8-0.5-2.3-0.3c-0.8,0.5-1.1,1.3-0.6,2.1L533.6,756.1z"
				/>
		</g>
		<path fill="#493C2E" d="M534.1,766.1c0.3-0.4,0.6-0.8,1-1.1c0.3-0.3,1.6,0.4,1.9,0.6c0.9,0.6,2.1,0.7,3.2,0.6
			c0.6,0,0.8-0.7,0.2-0.7c-1.9,0.1-3.2-1.1-4.8-1.5c-1-0.3-1.7,1-2.2,1.6C532.9,766.1,533.7,766.6,534.1,766.1L534.1,766.1z"/>
		<path fill="#493C2E" d="M535.6,764.4c0.1-0.9,0-1.8-0.3-2.6c-0.1-0.2-0.2-0.5-0.4-0.7c-0.1-0.2-1.1-1-0.6-1.3
			c0.2-0.1,1.7,0.1,1.7,0.1c-0.2,0.5-1,0.8-1.3,1.3s0.5,1,0.8,0.5c0.4-0.7,1.7-1.1,1.3-2.1c-0.3-0.8-1.5-0.8-2.2-0.8
			c-0.6,0-1.8,0.5-1.5,1.3c0.2,0.5,0.6,0.9,1,1.3c0.6,0.7,0.7,2.1,0.6,2.9C534.6,765,535.5,765,535.6,764.4L535.6,764.4z"/>
	</g>
	<g id="Proto-type">
	</g>
</g>
</svg>
