<?xml version="1.0" encoding="utf-8"?>
<!-- Generator: Adobe Illustrator 16.0.0, SVG Export Plug-In . SVG Version: 6.00 Build 0)  -->
<!DOCTYPE svg PUBLIC "-//W3C//DTD SVG 1.1//EN" "http://www.w3.org/Graphics/SVG/1.1/DTD/svg11.dtd">
<svg version="1.1" id="Layer_1" xmlns="http://www.w3.org/2000/svg" xmlns:xlink="http://www.w3.org/1999/xlink" x="0px" y="0px"
	 width="750px" height="1334px" viewBox="0 0 750 1334" enable-background="new 0 0 750 1334" xml:space="preserve">
<g id="windows_x5F_light">
	<rect x="156.4" y="505" fill="#AACCC2" width="445.2" height="407.3"/>
</g>
<g id="characters_x5F_indoor_x5F_fills">
	<g id="art_2_">
		<path id="plane_x5F_rope_x5F_2_2_" d="M307.9,613.2c0.1,14.8,1.5,29.5,1.2,44.3c0,1.2,1.8,1.2,1.8,0c0.3-14.8-1.1-29.5-1.2-44.3
			C309.7,612,307.8,612,307.9,613.2L307.9,613.2z"/>
		<path id="planes_x5F_rope_x5F_3_2_" d="M307.5,678.9c1.4,9.9,3.7,45.1,6.5,52.9c0.4,1.1,2.2,0.6,1.8-0.5
			c-2.9-8.1-5.2-43.5-6.5-52.9C309.1,677.2,307.3,677.7,307.5,678.9L307.5,678.9z"/>
		<g id="sid_x5F_4_2_">
			<g>
				<path fill="#C1A868" d="M396.6,624.8c3-3.9,9.7-4.5,13.9-6.2c1.9-0.7,4.3-1.8,5.4-3.5c0.7-1,0.7-2.2,1.4-3.3
					c0.7-1.1,1.3-1.5,1.5-3c0.3-1.8,0.4-4.1,0.2-6c-0.2-1.3-0.9-4.5-1.8-5.7c-1.7-2.4-4.2,1.9-4.6,3.5c-0.6,2.1,0,5.3-2.1,6.5
					c-2.1-0.8-3.3-3.4-5-4.6c-1.6-1.1-2.9-5.3-4.1-3.4c-1.7,3.1-4.5,14.6-4.5,18c0,2.8-0.5,4.7,0.5,7.3"/>
			</g>
			<g>
				<path fill="#29301E" d="M442.7,875.8c-4.7,8.6-15.2,42.2-4,48c8.7,4.1,24.6,1.4,34.1,1.4c10.5,0,20.7,0,31.2,0
					c12.7,0,28.6,2.4,41-2.4c8.3-3.4,8.7-13.7,8.3-21.3c-0.4-6.9-4-7.5-8-12.3c-3.3-4.5-3.3-9.6-8.7-12c-13-4.8-31.5-0.3-44.6,1
					c-16.3,1.4-31.5-3.1-47.5-2.4C443.8,875.8,443.4,875.8,442.7,875.8"/>
			</g>
			<path fill="#5D6326" d="M517.7,880.2l3.7-0.5c0,0,6.5,24.3,12.5,29.3c5.9,5.1,7.5,8.1,15,8.1v4.2c0,0-8-1.1-13.1-5.7
				C530.7,911.1,522,901.6,517.7,880.2z"/>
			<g id="brush_2_">
				
					<rect x="389.6" y="577.5" transform="matrix(-0.7589 0.6512 -0.6512 -0.7589 1149.5757 731.0372)" fill="#7F3A14" width="99.8" height="1.6"/>
				<polygon fill="#FFD64B" points="476.5,545.5 477.9,542.6 478.6,541.9 481.6,540.7 490.6,543.1 485,544.7 482.9,546.4 479.7,547 
					477,547 				"/>
			</g>
			<g>
				<path fill="#C1A868" d="M422.3,734.2c-10.3,3.4-25.4,2.1-36.3,1c-5.1-0.3-18.9-0.3-21.6-4.5c-3.4-5.5-3.4-18.9-3.4-25
					c0-9.6,2.7-18.5,5.1-27.4c4.5-15.4,8.6-31.9,14.7-46.6c1-3.1,2.7-6.2,3.4-8.9c0.7-5.1,1.4-6.2,3.8-11s2.7-10.6,5.5-15.8
					c3.8-6.9,9.3-7.5,16.8-9.3c2.7-0.7,11.1,2.1,13.8,3.1c3.2,2.1-5.3,8.4-10.5,10.8c-6.2,2.7-11.6-1.3-14.3,5.6
					c-2.1,5.5,1.7,8.6,1.4,13.7c-0.3,4.8-4.8,7.5-5.8,12.7c-1.7,7.5-1.7,15.4-3.1,22.6c-1.4,8.9-1.4,17.8-2.1,26.7
					c-0.7,8.6-0.7,21.3-5.1,28.8c8.6-1.7,24.2-4,33.1-1.9C427.3,711.1,429.5,724.3,422.3,734.2"/>
			</g>
			<g>
				<path fill="#FFFFFF" d="M473.4,687.3c-8.9-0.3-16.8,5.8-25.7,7.2c-7.9,1.4-14.4,5.1-22.3,6.2c-4.1,0.7-8.2,1.4-12.3,2.1
					c-5.8,1.4-5.8,1.4-3.4,6.9c3.1,7.2,5.5,15.8,3.8,23.3c-0.3,2.1-1,4.1-2.4,5.5c-0.7-0.3-1.4-1.4-1.7-1.7
					c-0.7,6.5,15.8,3.8,19.5,3.1c6.2-1.4,12,0.7,18.2-0.7c3.1,9.9,0,21.3,2.1,31.5c1.4,8.6,1.7,15.8,1.7,24.3
					c0.3,15.4-9.7,34.2-12.5,49.3c-1.7,10.6-8.9,25-10.3,35.6c-0.3,2.4,12.6,4.1,13.3,6.5c7.5,1.4,16.3-6.3,24.2-3.9
					c9.6,2.7,17.5,7.2,27.8,6.5c11-0.7,17.5-9.3,28.8-8.6c8.9,0.3,31.2,21.6,39.4,24c1.4-7.5,4.5-13.4,2.7-20.6
					c-2.4-10.3-7.5-22.1-6.9-32c0.3-4.1-1.5-33.7-1.8-37.5c-0.3-9.3-3.3-14.5-4.3-23.8c-0.3-3.8-2.7-15.6-2.7-19
					c0-4.1-0.8-9.3-1.4-13.5c5.1,3.8,5.6,4.4,9,9.5c3.8,5.8,3.8,3.8,9.6,0.3c3.8-2.1,26.4-9.9,26.4-14.4c0.3-2.1-3.8-3.8-5.1-5.1
					c-1.7-2.4-3.1-5.5-4.5-8.2c-1.7-3.4-3.8-6.5-5.8-9.6c-4.8-7.9-8.6-17.5-15.8-23.3c-11-9.3-27.1-15.8-40.1-20.6
					c-7.5-2.7-4.8,1.7-11,3.8c-2.7,1-7.9,0-11.3,0c-4.8,0-9.9,0.3-15.1-0.7C479.9,689,477.1,687.3,473.4,687.3"/>
			</g>
			<g>
				<path fill="#0057B6" d="M511.4,738.2c-7.7,27.7-14.3,59.4-9.1,88.1c0.9,5.2,8.9,3,7.9-2.2c-4.9-27.2,1.9-57.5,9.1-83.8
					C520.7,735.2,512.8,733.1,511.4,738.2L511.4,738.2z"/>
			</g>
			<g>
				<path fill="#DB2A00" d="M480.1,735.6c-0.1,35.1-4.5,70.6,2.9,105.3c1.1,5.2,9,3,7.9-2.2c-7.2-33.9-2.7-68.8-2.6-103.2
					C488.4,730.3,480.1,730.3,480.1,735.6L480.1,735.6z"/>
			</g>
			<g>
				<path fill="#EEFF2F" d="M459.1,750.2c0,22.6,0,45.1,0,67.7c0,5.3,8.2,5.3,8.2,0c0-22.6,0-45.1,0-67.7
					C467.3,744.9,459.1,744.9,459.1,750.2L459.1,750.2z"/>
			</g>
			<g>
				<path fill="#C1A868" d="M584.1,752.4c7.5,5.1,30.2,42.9,17.8,48.7c-3.1,1.4-9.2,1.3-13,1.3c-6.9-0.3-13.6,0.6-20.8,1.3
					c-13.4,1.4-18.1,1.9-40.8,1c-14.8-0.6-28.5-4.5-49.4-9.1c-8.2,1-11.5,3.5-19,6.2c-6.5,2.1-21.9,4.8-27.1,1
					c5.8-4.1,13-4.1,19.2-6.9c6.5-2.4,12-6.5,18.5-8.2c6.9-2.1,12.3-6.2,18.5-9.9c2.1-1,5.1-4.5,7.9-4.1c2.6,0.7-3.7,10-5,10.4
					c11.7,4.5,37.1,1.2,48.8-1.8c9.7-2.5,20.9-3.9,30.1-5.7c-3.8-4.8-12.2-11.5-7.1-16.7C567.7,754.8,577.6,753.4,584.1,752.4"/>
			</g>
			<g id="palette_2_">
				<path fill="#54562F" d="M372,813.6c2.7,7.3,42.7-0.5,89.5-17.4c46.8-16.9,82.6-36.6,79.9-43.9c-2.7-7.3-42.7,0.5-89.5,17.4
					C405.1,786.6,369.3,806.3,372,813.6z"/>
				<circle fill="#D16586" cx="421.4" cy="783.8" r="8.9"/>
				<path fill="#BAFFFA" d="M410.4,791.8c0,4.9-4,8.9-8.9,8.9s-8.9-4-8.9-8.9c0-4.9,4-8.9,8.9-8.9
					C406.5,782.9,410.4,786.9,410.4,791.8z"/>
				<circle fill="#FFD64B" cx="451.3" cy="771.5" r="8.9"/>
				<circle cx="482.8" cy="762.6" r="8.9"/>
			</g>
			<g>
				<path fill="#C1A868" d="M477.6,665.7c0,4.6,0.5,10.5,0.7,15.4c0,2.2-2,5.2-4.2,6.6c-2.8,4.7-6.9,5.7-6,11.9
					c0.7,5.7,5.5,11.8,11,13.5c8.2,2.7,20.9,1.4,25.5-6.7c2.4-4.3,3.9-6.5,8.1-9.4c2.1-1.5,4.6-2.7,5.3-5.3
					c1.4-5.3-5.5-8.2-8.2-11.7c-5-6.2-1.2-29.1-1-32.4c0-1.7,2.2-9.3,0.7-10.3c-1.4-0.7-6.7,2.6-7.7,3.4c-3.3,2.2-4.8,5.1-6.5,8.6
					c-3.8,7.4-8.9,9.3-16.5,11.5c-1,0.2-10.5,2.9-6.5,4.6"/>
			</g>
			<g>
				<path fill="#C1A868" d="M462.4,609.2c-0.5,3.9-3.1,7-3.1,11.1c0,4.1-1,7.5-1.7,11.5c-1,5-0.3,8.1,1.5,12.7
					c1.4,3.4,2.4,7.4,2.7,11c0.2,3.1-0.7,7.7,2.1,9.8c2.7,2.2,8.6,1.2,11.8,0.7c8.2-1.5,18.2-2.4,24.2-8.9c2.7-2.9,2.9-7.4,3.9-11
					c1-3.9,1.9-7.4,1.5-11.5c-0.7-8.1-2.2-17.3-8.2-23.1s-13.2-9.3-21.8-9.9c-2.9-0.3-5.7-0.2-8.6,0.9c-3.8,1.4-4.5,2.7-4.8,6.7"/>
			</g>
			<g>
				<path fill="#3A3A3A" d="M464.9,608.9c-2.2-1.7-1.5,0.6-1.5,0.6c-2.6,2.1-2.1,2.6-5.1,1.4c-2.1-0.7-1-1.2-2.9,0
					c-1.2,0.7-1.2,2.1-3.1,1.7c-1.7-0.3-2.6-2.9-3.4-3.9c-0.7-1-2.7-0.9-1.5-2.6c0.5-1,2.4-0.3,3.1-0.9c2.2-1.5,0.7-3.6,0.3-5.7
					c-0.3-3.8,0.7-1.9,3.1-3.1c1.5-0.5,1.2-1.4,2.1-2.2c0.2-0.2-0.2-0.9,0.2-1c0.7-0.7,1.5,0.2,2.1,0c1.2-0.9,0.2-1.5,1.7-1.5
					s1.5,2.7,2.9,0.5c1-1.5-1.2-4.6-2.1-5.7c2.9-2.2,4.6,0.2,7.2,0.5c1-1.7-0.5-4.8,1.7-5.8c0.9-0.5,1.9,0,2.7,0.3
					c0.5,0.3,0.3,1.5,0.9,1.9c0.7,0.3,1.4,0.2,1.9,0.3c0.7,0.3,1.5,0.2,2.4,0.5c1,0.3,2.1,2.1,3.4,1.9c2.2,0,2.2-2.2,3.8-3.3
					c0.9-0.5,2.1,0,2.6-0.3c1.5-1,0.7-2.6,2.9-2.4c2.2,0,2.9,2.7,5.7,2.9c2.6,0.2,3.8-2.4,6.2-1.9c1.5,0.5,1.4,2.1,2.4,2.6
					c0.7,0.5,2.1,0.3,2.9,0.3c2.7-0.2,5.5-2.9,7.9-1.9c2.4,1,2.1,3.1,1.5,5c-0.2,1-1,1.2-1,2.4c0,1.9,1.9,2.2,2.6,3.8
					c0.7,1.5,0,3.3,0.3,4.6c0.3,1.5,1,3.9,2.1,4.8c2.6,1.9,3.1,0.2,3.1,4.1c0.2,3.6,4.6,6.9,2.2,10.5c-0.7,1-2.6,1.2-3.3,2.6
					c-0.5,1,0.2,1.5-0.2,2.6c-0.5,1.7-2.2,3.9-3.3,5.3c-1.2,1.7-2.4,2.7-3.1,4.8c-0.7,2.4-5,8.5-7.4,10c-0.5-2.1,4.8-7.6,5.1-9.5
					c0.2-1.9-0.3-3.9-0.9-5.7c-0.7-2.4-1.2-4.1-3.6-5.1c-2.7-1-3.2,2.7-5.3,4.3c-1.2,1-1.8,3.4-2.2,5.2c0,0.7-0.3,2.1-3.5-0.6
					c-1.9-1.5,0.9-4.5,1.2-6c0.3-2.2-1.2-4.8-2.2-6.5c-1.2-2.2-1.9-1.9-4.5-2.7c-2.7-0.7-2.9-1.4-4.1-3.6c-1.2-2.1-1.7-2.2-3.6-3.3
					c-1.4-0.7-3.6-3.3-5-3.3c-1,0-1.2,1-1.9,1.4c-1.2,0.3-1.9-0.2-2.9,0c-1.5,0.2-1,0.5-2.2,0.9c-0.5,0.2-2.1,0.3-2.6,0.5
					c-1.5,0.9-2.6,4.5-4.5,4.5C464.5,613.2,464.2,610.5,464.9,608.9"/>
			</g>
			<g>
				<path fill="#C1A868" d="M503.9,627.4c-0.3-3.8,5.1-6.7,8.4-5c2.7,1.4,1.9,7.2,1.7,9.9s-2.9,11.5-7,9.3
					c-2.7-1.4-3.3-9.9-3.4-12.7c0-1-0.3-1.7,0.3-2.7"/>
			</g>
			<g>
				<path d="M471.7,623.1c0.5,0.7,2.5,0.5,3.3,0.5c1.6-0.1,3.1-0.3,4.7-0.1c1.1,0.2,1.8,0.6,2.7,1c0.7,0.4,1.9,0.5,1.3,1.3
					c-0.2,0.3-0.5,0.6-0.6,1c-0.1,0.4,0,0.4-0.5,0.5c-0.9,0.1-1.8-0.4-2.5-0.7c-0.7-0.3-1.4-0.6-2.1-0.8c-0.6-0.2-1.1-0.1-1.7-0.1
					c-0.8,0-1.6,0-2.4-0.1c-0.6-0.1-1.7-0.5-2.1-0.9C471.4,624.4,471.3,623.3,471.7,623.1"/>
			</g>
			<g>
				<path d="M462.7,662.6c-0.6,0.3-0.5,1-0.4,1.8c0.1,0.9,0.7,0.8,1,1.5c0.2,0.7,0.7,3.7,1.3,1.3c1.3,0.8,1.7,0.8,3.2,1
					c0.6,0.1,2.7,1.6,1.8-0.7c2.9,1.1,1.1-0.3,2.4-1.8c0.4-0.5,1.4-0.3,2-0.9c0.4-0.3,0.5-1.6,0.7-2
					C470.8,663.8,466.5,664.4,462.7,662.6"/>
			</g>
			<g>
				<path fill="#3A3A3A" d="M483.3,662.6c3.7-2,8-2.1,11.7-4.1c5.4-3,6.3-9.5,6.5-16.6c-1.9,1.8-2.4,6.8-4,9.5
					c-1.6,2.3-3.5,3.9-5.5,5.2c-1.8,1.3-10.1,3.7-9.8,5.9L483.3,662.6z"/>
			</g>
			<path d="M458,621.6c0,0,2.9,1.4,4.9,1l1.5,0.9l-0.7,1h-2.5l-3.3-0.5l-0.5-1.5L458,621.6z"/>
			<g>
				<path fill="#FFFFFF" d="M474.7,627.7c-1.6,0.9-4,1.8-1.3,4.6c0.8,0.8,7.3,1.6,8.3,1.3C486.4,632.2,478.7,625.1,474.7,627.7"/>
			</g>
			<g>
				<path fill="#FFFFFF" d="M463.8,626.4c0.9,1,2.2,2.2,0,3.7c-0.6,0.4-4.8-0.5-5.4-0.9C455.7,627.1,461.7,623.6,463.8,626.4"/>
			</g>
			<path d="M478,630c0,1.6-1.2,2.9-2.6,2.9c-1.4,0-2.6-1.3-2.6-2.9s1.2-2.9,2.6-2.9C476.9,627.1,478,628.4,478,630z"/>
			<ellipse cx="460.5" cy="627.7" rx="1.8" ry="2.4"/>
			<polygon fill="#FFFFFF" points="462.1,649.2 468.1,648.4 479.1,644.7 474.4,651.5 463.1,651.6 			"/>
		</g>
		<g id="plane_x5F_3_2_">
			<polygon fill="#D16586" points="252,745.4 347.4,749.1 363.4,762.3 			"/>
			<polygon fill="#BEEF8F" points="252,745.4 347.4,749.1 335.8,770.6 			"/>
			<polygon fill="#ED9FB5" points="252,745.4 344.3,744.4 335.8,770.6 			"/>
			<polygon fill="#D16586" points="252,745.4 344.3,744.4 323.4,724 			"/>
		</g>
		<g id="plane_x5F_1_2_">
			<polygon fill="#D6FF9E" points="363.4,612.4 282.4,583.4 275.8,565.4 			"/>
			<polygon fill="#BAD394" points="363.4,612.4 270.7,601.3 282.4,583.4 			"/>
			<polygon fill="#FFD64B" points="363.4,612.4 283,586.6 270.7,601.3 			"/>
			<polygon fill="#D6FF9E" points="283,586.6 288,614.1 363.4,612.4 			"/>
		</g>
		<path id="plane_x5F_rope_x5F_1_2_" d="M309.9,523.3c-1.5,23.7-0.8,47.4-0.8,71.2c0,1.2,1.8,1.2,1.8,0c0-23.7-0.7-47.5,0.8-71.2
			C311.8,522.2,310,522.2,309.9,523.3L309.9,523.3z"/>
		<g id="plane_x5F_2_2_">
			<polygon fill="#9991CE" points="400.7,668.6 273.6,654.7 257.9,671.6 			"/>
			<polygon fill="#BAFFFA" points="400.7,668.6 273.6,654.7 277.1,681.5 			"/>
			<polygon fill="#9991CE" points="400.7,668.6 280,650.2 277.1,681.7 			"/>
			<polygon fill="#BAFFFA" points="280,650.2 400.7,668.6 299.7,671.3 			"/>
		</g>
		<g id="bonsai_2_">
			<polygon fill="#443415" points="233.1,880.8 235.2,866.9 233.1,858 227.2,842.1 215.5,832.8 207.4,824.3 203.4,825.6 203.4,825 
				207.4,823.4 211.8,827.4 213.3,823.4 212.8,814.3 214.7,811.1 215.1,811.1 213.5,814.4 213.9,823.4 213.2,825.7 212.5,827.9 
				213.5,829.4 217.3,833.1 220.6,835.4 223.8,837.1 227.6,839.4 229.4,839.4 232.3,837.9 233.8,836 232.9,830.7 232,827.3 
				228.8,823.4 225.6,820.5 225.2,817.5 225.5,817.4 225.9,820.2 229,823 232.1,826.9 233.1,828.4 233.8,827.7 236.4,826.8 
				239.9,825.6 241.6,824.5 241.6,824.8 240.1,826 236.5,827.4 234,828.4 233.6,829.1 233.6,831 234.4,832.8 234.8,834.8 
				235.6,836.1 234.9,838.7 231.7,840.1 231.4,841.1 230,843.5 232,848.1 233.3,850.2 235.5,849.8 238.9,848.5 244.7,846 
				247.6,844.1 249.3,839.4 250.1,833.8 250.1,829.9 253.3,827.4 255.2,826.7 254.4,824.6 254.8,824.4 255.7,826.4 256.1,826.8 
				257.5,826.8 258,826.8 258.9,827.3 258.9,827.6 258.1,827.2 257,827.3 256.1,827.4 254.6,827.6 252.8,828.6 251.8,829.6 
				251,830.7 251.1,832.5 251.1,833.9 250.9,836.1 250.5,838.5 250.6,840.9 249.7,844.1 247.6,848.2 243,850 238,853.5 237.3,855.8 
				238.4,860.2 240,862.9 241,867.2 241.4,870 242.1,872 242,881.5 			"/>
			<g>
				<path fill="#B75925" d="M279,892.1h-79.3c-1.9-3.8-7-17.7-7-17.7h92.6C285.3,874.4,280.5,888.6,279,892.1z"/>
			</g>
			<circle fill="#009E01" cx="204.9" cy="826" r="1.5"/>
			<circle fill="#009E01" cx="207.9" cy="823.4" r="1.6"/>
			<circle fill="#009E01" cx="213.8" cy="822.4" r="1.5"/>
			<circle fill="#009E01" cx="212.8" cy="814.3" r="1.3"/>
			<circle fill="#009E01" cx="215.4" cy="834" r="1.6"/>
			<circle fill="#009E01" cx="225.6" cy="821.1" r="1.5"/>
			<path fill="#009E01" d="M242.2,826.2c0,0.7-0.6,1.3-1.3,1.3c-0.7,0-1.3-0.6-1.3-1.3s0.6-1.3,1.3-1.3
				C241.7,825,242.2,825.6,242.2,826.2z"/>
			<circle fill="#009E01" cx="229" cy="822.4" r="1.5"/>
			<circle fill="#009E01" cx="238.1" cy="826.5" r="1.1"/>
			<circle fill="#009E01" cx="236.7" cy="837" r="1.4"/>
			<circle fill="#009E01" cx="232.5" cy="837.8" r="1.3"/>
			<circle fill="#009E01" cx="226.6" cy="842.8" r="1.5"/>
			<circle fill="#009E01" cx="246.9" cy="849.3" r="1.9"/>
			<circle fill="#009E01" cx="247" cy="843.7" r="1.4"/>
			<circle fill="#009E01" cx="251.4" cy="841.6" r="1.7"/>
			<circle fill="#009E01" cx="252.4" cy="827.3" r="1.1"/>
			<circle fill="#009E01" cx="257.7" cy="827.7" r="1.2"/>
			<circle fill="#009E01" cx="255.6" cy="825.6" r="0.9"/>
		</g>
	</g>
</g>
<g id="wall_x5F_fill">
	<path id="wall_x5F_fill_x5F_3" fill="#E5E5B5" d="M0,1215h750V0H0V1215z M601.6,912.3H156.4V505h445.2V912.3z"/>
</g>
<g id="wall_x5F_frames">
	<rect x="581.5" y="511" fill="#CCD9ED" width="38.1" height="420.1"/>
	<rect x="138.2" y="511" fill="#CCD9ED" width="38.1" height="704"/>
	<polyline fill="#CCD9ED" points="0.1,486 750,486 750,524.1 0,524.1 	"/>
	<rect y="893" fill="#CCD9ED" width="750" height="38.1"/>
</g>
<g id="ground_x5F_roof">
	<rect id="ground_x5F_fill_2_" y="1195" fill="#353229" width="750" height="139"/>
	<polygon id="roof_x5F_3" display="none" fill="#353229" points="774.6,511 -25.4,511 -25.4,391.8 774.6,391.8 	"/>
</g>
</svg>
