<?xml version="1.0" encoding="utf-8"?>
<!-- Generator: Adobe Illustrator 16.0.0, SVG Export Plug-In . SVG Version: 6.00 Build 0)  -->
<!DOCTYPE svg PUBLIC "-//W3C//DTD SVG 1.1//EN" "http://www.w3.org/Graphics/SVG/1.1/DTD/svg11.dtd">
<svg version="1.1" id="Layer_1" xmlns="http://www.w3.org/2000/svg" xmlns:xlink="http://www.w3.org/1999/xlink" x="0px" y="0px"
	 width="750px" height="1334px" viewBox="0 0 750 1334" enable-background="new 0 0 750 1334" xml:space="preserve">
<g id="windows_x5F_light">
	<rect x="150.9" y="505.7" fill="#1A262D" width="445.2" height="407.3"/>
</g>
<g id="characters_x5F_indoor_x5F_fills">
	<g id="code_2_">
		
			<linearGradient id="laptop_x5F_light_1_" gradientUnits="userSpaceOnUse" x1="-190.438" y1="712.2842" x2="6.2349" y2="1052.9315" gradientTransform="matrix(1 0 0 -1 564 1569)">
			<stop  offset="0" style="stop-color:#F4EFBE"/>
			<stop  offset="6.292021e-002" style="stop-color:#DBD8AE"/>
			<stop  offset="0.2256" style="stop-color:#A1A387"/>
			<stop  offset="0.3828" style="stop-color:#717667"/>
			<stop  offset="0.5308" style="stop-color:#4B534E"/>
			<stop  offset="0.6672" style="stop-color:#303A3C"/>
			<stop  offset="0.7879" style="stop-color:#202B31"/>
			<stop  offset="0.8803" style="stop-color:#1A262D"/>
		</linearGradient>
		<polygon id="laptop_x5F_light_2_" opacity="0.5" fill="url(#laptop_x5F_light_1_)" enable-background="new    " points="
			272.6,736.4 302,815.4 580.6,793.3 581.2,522.4 443.2,522.8 		"/>
		<g id="runway_x5F_plane_2_">
			<path fill="#515151" d="M159,669.7c66.1-9,134.2-21.3,198.5-40l-0.3-7.9c-64.2,18.7-132.4,31-198.5,40L159,669.7z"/>
		</g>
		<path id="wire2_2_" d="M192.3,590.4c9,20.3-5.2,51.7,10.3,67.6c5.1,5.3,12.8,5.3,19.1,2.6c2-0.9,3.6-2.4,5.2-3.7
			c1.9-1.4,4.7-0.6,6.7-1.7c2.5-1.4,4.1-3,3.9-6c-0.1-1.2-1.9-1.2-1.8,0c0.4,5.5-6.7,4.5-9.7,6.2c-4,2.2-6.3,4.7-11.2,5.3
			c-11.6,1.3-16.9-11.1-17.1-20.5c-0.4-13.6,4-41.1-4.8-53.4C192.1,585.8,192.3,590.4,192.3,590.4z"/>
		<path id="wire_x5F_1_2_" d="M201.4,610.7c0.2,4.9,0.6,11.3,0.6,16.2c0,4.9-0.8,11.7,2.6,15.8c3.1,3.9,9.6,5,14.1,2.9
			c5.5-2.5,9.1-8.5,14.6-10.7c1.1-0.4,0.6-2.2-0.5-1.8c-4.6,1.8-8.5,6.4-12.3,9.3c-3.7,2.8-10.4,3.1-13.9-0.2
			c-2.9-2.7-2.8-8.1-2.8-11.7c-0.1-8.2,0.6-16.8-0.7-24.9c-0.8-5.4-5.3-38.6-11.1-38.5c-1.1,0-0.4,2.2-0.4,2.2
			C191.7,570.1,199.2,584.1,201.4,610.7z"/>
		<rect id="table_x5F_joe_2_" x="157.4" y="827.3" fill="#2D2D2D" width="278.1" height="87.4"/>
		<rect id="laptop_x5F_base_x5F_joe_2_" x="296.4" y="816.7" width="102.8" height="10.5"/>
		<g id="joe_x5F_4_2_">
			<path fill="#FFFFFF" d="M487.1,686.1l2.3,7.4c0,0,15.2-4.7,17.3-7c2.1-2.3,1.1-4.4,1.1-4.4L487.1,686.1z"/>
			<g>
				<path fill="#333333" d="M519.9,748.2c2-4.9-2-9.3-1.3-14.2c1.1-6.1,5.7-10.4,11.3-13.1c8.4-4.7,18.4-8.7,28.5-7.6
					c11.3,1.1,25,10.4,32.7,18c3.5,3.4,5.5,10.4,1.8,14.2c-7.1,7.2-19-6.8-24.3-10.6c-9.9-7.2-24.8-7.8-36-3.2
					c-3.8,1.5-6.6,3.6-8.2,7.4C523,742.5,523,745.2,519.9,748.2"/>
			</g>
			<path fill="#CEC361" d="M483.1,643.9c0,0,48.4-8.6,41.5,14.4c0,0,3.4,0.6,2.8,3.7c-0.6,3.1-0.8,3.8-0.8,3.8s1,8.4-1.4,17.3
				c0,0,6.2-4.3,8.2-3.9c-2.1,9.1,13.9,36.5,24.3,43.9c0,0-22.6-4.8-31,7.7c0,0-7.1-32.8-22.5-31.1c0,0-10.1,6.6-13.3,2.1
				c-1.3-1.7,2.3-4.5-3.4-7.8c-2.2-1.6,17.2-6.8,17.7-10.7c-1.2,0.5-17.1,4.9-21.1,3.2c-1.8-4.1,3.1-2,0.1-5.8c-3,1-2.7,2-10.5,0.9
				c-1.3-1.4,0.3-4.6,1-7.2c1.1-3.9,5.9-5.7,7-10.2c0,0,0.4-3.5-0.6-5.8C480.3,656.1,478.4,645.1,483.1,643.9z"/>
			<path fill="#1C1C1C" d="M461.3,634.3c8-8.9,25.9-11.7,32.1-10.7c9.7-6.3,22.8,0,29.4-4.2c8.7-3.9,11.8,3.5,15.3,5.5
				c5,2.9,10.8,8.3,9.4,13.5c-1.2,4.6,2.5,10.7,0.9,13c-1.6,2.4,0,8.4-5.2,15.2c0.7,2.1-11.8,17.2-11.8,17.2s-5.3,3.1-7.1,2.1
				s4-13.6,0.9-16.1c0,0,5.2-12.3-2.2-10.5c0,0,3.4-3.3-2.3-3.3c-5.8,0-4.8,8.6-4.8,8.6s-4.9-1-3.6-10.2c1.3-9.3-7.6-10.8-9-9.8
				c-1.4,1-5.7,2.9-8.9,0.2c-3.2-2.7-5,2.4-7.4,0.3C484.6,643.1,456.6,645,461.3,634.3z"/>
			<g>
				<path fill="#3A3A3A" d="M481.5,658c-0.6,2.9,0.4,5.6,1.2,8.4c0.3,1,1.8,0.6,1.5-0.4c-0.7-2.5-1.7-5-1.2-7.5
					C483.2,657.5,481.7,657,481.5,658L481.5,658z"/>
			</g>
			<g>
				<path fill="#3A3A3A" d="M483.1,660.6c10.4,0.2,20.8,0.5,31.2,0.7c1,0,1-1.6,0-1.6c-10.4-0.2-20.8-0.5-31.2-0.7
					C482.1,659,482,660.6,483.1,660.6L483.1,660.6z"/>
			</g>
			<polygon fill="#3A3A3A" points="490.7,701.3 492.7,701.1 495.1,702.1 498.1,702.3 501.5,700.8 502.8,700.5 502.9,701.7 
				502,703.6 500.9,703.3 500.3,704.5 499.4,705.7 497.4,705 495.7,706.7 493.9,706.7 491.9,705.6 490.8,704.2 490.2,701.9 			"/>
			<g>
				<path fill="#CEC361" d="M407.1,796.7c-2.1-0.6-4-1.9-6.4-1.9c-2.8,0-3.4,1.7-5.7,2.8c-3,1.5-8.3,1.1-11.9,1.1
					c-2.8,0-5.1-1.1-7.6-1.3c-2.8-0.2-4.2,0.8-6.8,1.9c-5.3,1.9-10.4,1.7-13.8,6.6c-1.5,1.7-4,4.2-4.9,6.6c-0.8,2.8,0.2,4.9,3.2,3.4
					c4.2-2.3,5.1-7.8,10.4-8.7c3-0.4,7.6-0.8,10.4-0.4c3.8,0.6,8.5,0.8,12.3,1.7c-0.4,3.4-15.7,7-4,8.3c4.7,0.4,8.9-0.8,13.1-2.8
					c3-1.5,5.7-4,8.7-5.1c2.1-0.6,4.7-0.2,6.8-0.6c8.3-1.5,3.6-7.8-0.8-10.8C408.8,796.7,408.2,797.3,407.1,796.7"/>
			</g>
			<polygon fill="#3A3A3A" points="485.3,682.9 498,680.9 507.2,682.3 497.7,682.4 486,684.8 			"/>
			<polygon fill="#3A3A3A" points="483.7,652.2 491.1,653.7 491.9,656.1 483.2,654.5 			"/>
			<g>
				<path fill="#005A99" d="M525.5,764c-16.4,15.3-26.7,28.3-50.5,28c-23.9-1-48.9-0.5-73.2,0.5l0.2,0.4c2.9,6.6,6.1,15.8,4.6,23.4
					c7.6,1.1,17.2-0.9,25-0.5c9.1,0.6,18.2,1.2,27.1,2.8c7.8,0.8,16,1.8,23.7,1.3c8.6-0.6,17.7-3.1,25.2-6.8
					c9.2-4.9,22.8-9.9,29.3-18.2c6.3-7.4,11.8-27.1,4.8-34.8C535.5,753.2,530.2,758.8,525.5,764"/>
			</g>
			<g>
				<path fill="#004B83" d="M509.4,898.3c8.1-17,9.3-34.5,9.7-53.4c0.4-17.9,1.7-36.8,0.8-54.8c-0.8-21.2-5.1-42.3,5.5-61.7
					c5.1-9.2,15.7-9.2,25-9.2c9.3,0,15.3,5.1,22.9,9.7c9.7,5.1,20.3-1.4,24.2,11.5c2.1,7.8,2.5,23.5-2.1,29.9
					c-2.1,3.2-9.4,15-13.7,14c-5.1-0.9-2.7-5.6-8.1-6.9c-3.7,19.8-2.8,32.9,1.5,49.9c3.8,17.5,5.5,37.5,5.9,55
					c0,6.4,4.2,11.8-4.2,13.6c-8.9,1.6-16.6,2.2-24.6,3.6C540,901.9,523.4,906.5,509.4,898.3"/>
			</g>
			<g>
				<path fill="#A9A24F" d="M414.3,816.5c-5.7-0.1-8.8-10.4-15.2-10.8c-6.1-0.4-11.2,0.1-16.1-4.2c-5.5-5.1-8.7-6.1-15.5-2.8
					c-1.5,0.7-5.2,1.9-7.7,2c-3.5,0.2-8.8-1-9.9-4.1c-1.3-3,14.7-6.8,17.9-8.5c4.5-2.5,9.1-6.6,14.4-6.8c6.8-0.4,7.6,5.3,12.1,8.9
					c1.4,1.2,7.5,5,12.7,8.2c4.2,2.6,7.8,4.8,8.1,5.2C422.7,812.2,415.5,816.5,414.3,816.5z"/>
			</g>
			<g>
				<path fill="#004B83" d="M532.9,749.6c-6.4,8.9-6,29.1-11.1,38.9c-3.4,7.2-8.1,25-12.7,31.8c-2.5,3.8-1.7,3-6.4,4.7
					s-11.7-2.3-15.9-4c-11-4.2-25.6-3.8-35.8-9.7c-9.3-5.1-20.8-8.3-30.9-12.5c-2.5-0.8-5.9-1.7-8.9-2.1c1.7,5.9,1.3,33.5-7.2,30.5
					c19.5,5.1,37.8,16.2,57.3,22.5c9.7,3.8,18.9,7.6,28.6,11c8.9,3.4,14.6,8.1,23.9,5.5c10.6-2.1,11-12.7,14.8-20.8
					c5.1-10.6,11-20.8,16.5-30.9c4.2-8.9,17-31.5,17.9-41.2C563.7,763.3,532.9,749.6,532.9,749.6z"/>
			</g>
		</g>
		<polygon id="laptop_x5F_screen_x5F_2_2_" fill="#FFFFFF" points="301.8,815.4 272.7,736.3 274.5,735.6 303.8,815.1 		"/>
		<path id="wire_x5F_to_x5F_controller_2_" d="M178.1,601.2c-0.2,6.7-2.1,12.8-4.3,19.1c-2,5.9-3.4,11.8-5,17.8
			c-3.3,12.3-13.2,20.6-16.6,32.7c-0.6,2.3,2.9,3.2,3.5,1c1.7-6.1,5.1-11.1,8.8-16.2c3.7-5.1,6-10.4,7.8-16.5
			c1.9-6.6,3.4-13.2,5.6-19.7c2.1-6,3.6-11.9,3.8-18.2C181.8,598.8,178.2,598.8,178.1,601.2L178.1,601.2z"/>
		
			<rect id="laptop_x5F_screen_x5F_1_2_" x="242.2" y="777" transform="matrix(-0.346 -0.9382 0.9382 -0.346 -344.6372 1316.6935)" width="88.7" height="3"/>
		<rect x="160.2" y="558.1" fill="#3A5066" width="32.5" height="43"/>
		<g id="mug_x5F_6_2_">
			<g>
				<path fill="#7C3A16" d="M269.2,799.4c4.9-4.3,10.1-5.2,12.3,2.1c1.6,5,1.8,11-1.8,15c-1.6,1.7-5.4,4.1-7.8,2.9
					c-4.9-3.1,0.8-3.7,2.6-5.1c7.3-7.6,2-15.3-3.5-12.3c-1.6,0-3.1,3.1-3.1-1C267.8,799.7,267.8,799.9,269.2,799.4"/>
			</g>
			<g>
				<path fill="#7C3A16" d="M271.3,810.9c0,3.1,1.5,13.9,0,16.3l-28.6-0.1c-2-2.8-2-4.9-2.7-8.2c-1.3-7.6-0.9-15.8-0.7-23.7
					c0.2-5,3.1-5.2,7.6-5.5c7.8-0.5,17-0.2,24.4,3.3V810.9z"/>
			</g>
		</g>
		<path id="wire_x5F_to_x5F_laptop_2_" d="M302.8,823.9c-10.9,2.7-17.2,13.3-23.4,21.8c-4.4,6.1-9.9,10.4-17.1,12.4
			c-6.2,1.7-12.8,1.6-19.2,2.7c-13.1,2.2-25,9-37.7,12.5c-17.5,4.9-31.2-1.6-41.1-16.4c-1.3-1.9-4.5-0.1-3.2,1.8
			c8,11.9,18.5,20.2,33.4,20c14.5-0.2,28-8,41.5-12.4c12.7-4.1,26.9-1.7,38.2-9.9c11.1-8.1,15.2-25.5,29.6-29
			C306.1,826.8,305.1,823.3,302.8,823.9L302.8,823.9z"/>
		<g id="sound_x5F_system_2_">
			<path fill="#565656" d="M205.5,736.4c0,0,22.2,22.6,0,43.3V736.4z"/>
			<rect x="162.2" y="695.8" fill="#191919" width="32.5" height="29.6"/>
			<rect x="160.2" y="729.1" fill="#191919" width="47.5" height="98"/>
			<g>
				<path d="M219.6,743.7c1.5,3.7,3.3,7.1,3.6,11.2c0.3,3.9-0.9,7.8-2.1,11.5c-0.4,1.1,1.4,1.6,1.8,0.5c1.3-4,2.2-7.8,2.2-12
					c0-4.1-2.2-7.9-3.7-11.7C220.9,742.1,219.2,742.6,219.6,743.7L219.6,743.7z"/>
			</g>
			<g>
				<path d="M224.7,739.7c7.1,8.5,7.8,21.6,1.5,30.8c-0.7,1,0.9,1.9,1.6,0.9c6.8-9.9,5.8-23.9-1.8-33
					C225.3,737.5,224,738.8,224.7,739.7L224.7,739.7z"/>
			</g>
		</g>
	</g>
</g>
<g id="Plane_x5F_to_x5F_animate_1_">
	<g id="Plane_x5F_to_x5F_animate_2_">
		<polygon fill="#ED9FB5" points="326.7,686.5 209.6,678 228.4,687.4 		"/>
		<polygon fill="#D16586" points="326.7,686.5 229.6,709.8 228.4,687.4 		"/>
		<polygon fill="#BEEF8F" points="326.7,686.5 230.5,688.5 229.6,709.8 		"/>
		<polygon fill="#ED9FB5" points="326.7,686.5 230.5,688.5 245.4,700.8 		"/>
	</g>
</g>
<g id="wall_x5F_fill">
	<path id="wall_x5F_fill_x5F_4" fill="#E5E5B5" d="M750,0H0l0.1,1215h750L750,0L750,0z M596.1,912.4H150.9V505.1h445.2V912.4z"/>
</g>
<g id="wall_x5F_frames">
	<rect x="577.8" y="510.9" fill="#CCD9ED" width="38.1" height="420.3"/>
	<rect x="131.5" y="511" fill="#CCD9ED" width="38.1" height="704"/>
	<polygon fill="#CCD9ED" points="750,524.1 0,524.1 0,486 750,486 	"/>
	<rect y="893" fill="#CCD9ED" width="750" height="38.1"/>
</g>
<g id="ground_x5F_roof">
	<rect id="ground_x5F_fill_4_" y="1195" fill="#353229" width="750" height="139"/>
	<polygon id="roof_x5F_4" display="none" fill="#353229" points="775.2,511 -25,511 -25,391.8 775.2,391.8 	"/>
</g>
</svg>
