<?xml version="1.0" encoding="utf-8"?>
<!-- Generator: Adobe Illustrator 16.0.0, SVG Export Plug-In . SVG Version: 6.00 Build 0)  -->
<!DOCTYPE svg PUBLIC "-//W3C//DTD SVG 1.1//EN" "http://www.w3.org/Graphics/SVG/1.1/DTD/svg11.dtd">
<svg version="1.1" id="Layer_1" xmlns="http://www.w3.org/2000/svg" xmlns:xlink="http://www.w3.org/1999/xlink" x="0px" y="0px"
	 width="750px" height="1334px" viewBox="0 0 750 1334" enable-background="new 0 0 750 1334" xml:space="preserve">
<g id="wall_x5F_fill">
	<rect id="wall_x5F_fill_x5F_1_2_" fill="#E5E5B5" width="750" height="1215"/>
</g>
<g id="wall_x5F_frames">
	<rect x="628" y="511" fill="#CCD9ED" width="38.1" height="704"/>
	<rect y="486" fill="#CCD9ED" width="750" height="38.1"/>
	<rect y="893" fill="#CCD9ED" width="750" height="38.1"/>
</g>
<g id="ground_x5F_roof">
	<rect id="ground_x5F_fill_5_" y="1195" fill="#353229" width="750" height="139"/>
	<polygon id="roof_x5F_4_2_" display="none" fill="#353229" points="776.5,511 -23.2,511 -23.2,391.8 776.5,391.8 	"/>
</g>
<g id="Bicycle_x5F_delivery">
	<g>
		<path fill="#0B4C2A" d="M313,1025.6c1,5.7-8.3,14.5-10.6,19.7c-1.6,3.1-3.9,10.9-2.3,14c2.3,4.7,16.3,3.1,21,4.1
			c6,1.3,17.5-0.5,23.5,0c12.2,1,17.6,4.3,29.8,5.8c5.5,0.8,12.5,2,17.7-1.1c8.3-4.4-2.7-8.8-7.7-11.4c-12.5-7.3-31.1-3.6-40.5-16.1
			c0,0-3.5-4.2-0.2-9.6L313,1025.6z"/>
	</g>
	<path fill="#FFFFFF" d="M299.8,1053.3c0,0,11.1,9.1,26.8,7c15.7-2.1,23.1,1.8,23.1,1.8s30.7,4.5,33.7,4.3c3-0.2,9.5-0.8,10.6-3
		c1-2.1,1.9,6.9,0,6.5c-1.9-0.3-7.4,4-28.5-0.7c-21-4.7-17.7-4.2-26.8-4.6c-9.2-0.4-31.2,1.9-39.5-4.4
		C298.3,1054.8,298.7,1053.7,299.8,1053.3z"/>
	<g>
		<path fill="#C1A868" d="M398.7,797.4c-2.2,0-4.3-0.3-6.2,1c-11.8,9.5,7.1,19.5,13.8,22.7c4.3,2.1,9.2,3.1,13.7,5
			c4.3,2.1,8.6,5.2,12.3,8.3c2.2,1.9,3.1,2.8,3.6,5.5c0.5,2.1,0.7,3.5,2.4,5c2.1,2.1,3.6,2.8,5,5.4c1.4,2.6,1.6,3.5,4.5,3.3
			c4-0.3,8.5-2.8,9.5-6.4c1.6-5.7-0.3-8.5-5.2-11.2c-4.7-2.8-7.6-6.9-11.6-10.6c-3.8-3.6-8.1-6.9-12.5-10c-4.3-3.1-9.2-5.5-13.1-9
			c-3.6-3.1-7.6-7.1-11.6-9.5L398.7,797.4z"/>
	</g>
	<g>
		<path fill="#15346B" d="M322.1,823.5c9.9,51.4,114.7,65.9,84.1,126.1c-12.5,24.4-32.7,43.1-48.3,64.9c-2.1,2.6-4.7,5.2-5.7,8.3
			c-1,1.6-2.1,7.3-3.1,8.3c-3.6,4.7-8.8,3.1-15.6,1.6c-5.7-1-11.9-1.6-17.1-3.6c-10.4-4.2-8.3-8.8-3.1-16.1
			c15.6-22.8,28.5-45.1,45.7-65.9c3.6-4.2,13-13,10.9-19.2c-1.6-4.2-11.4-5.2-16.1-6.7c-11.9-4.2-22.8-9.3-34.8-14
			c-14.5-6.7-23.9-16.1-36.3-25.9c-10.9-9.3-21.8-18.2-22.3-33.7c-0.5-16.6,13-20.8,27-24.4c4.7-1,10.4-3.1,15-2.6
			C308.1,820.9,322.1,823.5,322.1,823.5z"/>
	</g>
	<g id="bike">
		<path d="M601.3,1083.4c-6.2-1-13.2,0.2-19.4,0.4c-14.7,0.6-29.3,1.4-44,2.1c-23.3,1.2-46.6,2.8-69.9,3.7c-0.9,0-0.9,1.5,0,1.4
			c22.6-0.9,45.3-2.4,67.9-3.6c14.3-0.8,28.7-1.5,43-2.1c7-0.3,15.1-1.7,22.1-0.6C601.8,1085,602.2,1083.6,601.3,1083.4
			L601.3,1083.4z"/>
		<path d="M58.1,1009.5c19.8,10.1,38.8,22.1,58,33.2c20.3,11.7,40.9,23.1,60.9,35.4c0.8,0.5,1.5-0.8,0.7-1.2
			c-20-12.2-40.6-23.6-60.9-35.4c-19.2-11.1-38.2-23.1-58-33.2C58,1007.8,57.3,1009.1,58.1,1009.5L58.1,1009.5z"/>
		<path d="M464.2,849.1c3.5,0.1,6.6,1.2,9.8,2.4c2.8,1,5.9,1.4,8.7,2.6c1.7,0.8,3.1-1.7,1.5-2.5c-3-1.3-6.2-1.8-9.3-2.9
			c-3.5-1.2-6.8-2.4-10.6-2.5C462.3,846.2,462.3,849.1,464.2,849.1L464.2,849.1z"/>
		<path d="M274,893.4c-5.2,8.5-21.7-1.2-25.1,7.5c-1.2,3,1,4.5,3.4,5.1c5.5,1.4,18.9-5.6,21.5,1.1c0.2,0.6,0.7,1.1,1.4,1.1
			c8.2,0,18.7-5.7,26.4-8.7c1.7-0.7,1-3.5-0.8-2.8c-4,1.6-8.1,3-12.3,4.4c-3.2,1.1-11.8,6.1-13.3,1.9c-1.4-3.8-7.8-1.7-10.2-1.2
			c-3,0.7-6.1,1.2-9.2,1.5c-0.5-0.9-1.1-1.9-1.6-2.8c0.9-0.1,1.8-0.1,2.7-0.2c3.3-0.2,6.5-0.3,9.8-0.7c3.8-0.5,7.7-1.4,9.7-4.8
			C277.5,893.2,275,891.8,274,893.4L274,893.4z"/>
		<path d="M253.4,887.4c0,3.4,0.4,6.8,0.9,10.1c0.3,1.8,3,1.1,2.8-0.8c-0.4-3.1-0.7-6.2-0.7-9.4
			C256.2,885.5,253.4,885.5,253.4,887.4L253.4,887.4z"/>
		<path d="M258.2,890.7c0.2,2.5,0.2,5,0.7,7.4c0.4,1.8,3.1,1,2.8-0.8c-0.4-2.2-0.5-4.4-0.6-6.7C260.9,888.9,258.1,888.9,258.2,890.7
			L258.2,890.7z"/>
		<path fill="#063F34" d="M274.2,906.3c10,27.5,23.3,54.2,35.2,80.9c11.3,25.4,22,51.2,34.2,76.2c3.3,6.7,13.2,0.8,9.9-5.8
			c-11.9-24.4-22.3-49.6-33.3-74.3c-11.7-26.4-25-52.8-34.9-80C282.8,896.4,271.6,899.3,274.2,906.3L274.2,906.3z"/>
		<path d="M500.7,910.5c6,14.4,11.6,28.9,17.8,43.1c3,6.8,12.9,0.9,9.9-5.8c-5.9-13.3-11.1-26.9-16.7-40.4
			C509,900.7,497.9,903.6,500.7,910.5L500.7,910.5z"/>
		<path d="M399.6,1078.5c22-22.4,44.4-44.4,66.6-66.5c19.1-18.9,37.6-38.8,57.6-56.8c5.5-5-2.6-13.1-8.1-8.1
			c-19.5,17.5-37.5,36.9-56.1,55.3c-22.8,22.6-45.6,45.1-68.1,68C386.2,1075.7,394.4,1083.8,399.6,1078.5L399.6,1078.5z"/>
		<path d="M277.2,913.7c-30.8,54.9-63.4,109-96,162.8c-3.9,6.4,6.1,12.1,9.9,5.8c32.6-53.8,65.3-107.9,96-162.8
			C290.8,913.1,280.8,907.3,277.2,913.7L277.2,913.7z"/>
		<path d="M620.8,1086c-34.7-8.2-57.2-41.4-66.3-74c-2-7.1-13.1-4.1-11.1,3.1c10.2,36.3,35.8,73,74.4,82
			C625,1098.8,628.1,1087.7,620.8,1086L620.8,1086z"/>
		<path d="M240.5,881.7c3.4,2.5,13.2,5.5,16.8,7.8c4.5,2.8,10.4,3,15.4,3.6c12.8,1.7,25.1,5.3,37.9,6.9c10.6,1.3,36-9.3,27.5-23.8
			c-3.2-5.4-12.9-4.2-18.1-4.2c-12.9,0-18.4-3-31.2-4.4c-9.7-1-33.9-12.4-43.1-8.2C239.4,862.4,234.6,877.4,240.5,881.7z"/>
		<path d="M440,857.3c10.2-6.1,21.7-8.8,32.8-12.5c7-2.3,4-13.5-3.1-11.1c-12.1,4.1-24.5,7.1-35.6,13.7
			C427.8,851.2,433.6,861.1,440,857.3L440,857.3z"/>
		<path fill="#063F34" d="M177,1088.8c7.6-14.1,27-14.4,40.8-15.1c22.6-1.1,45.2-4.7,67.8-4.2c11.6,0.2,55.9,3.2,66.4,3.4
			c11.1,0.3,24.7,2.8,33.9,8.7c7.7,5,15.4,13.3,16.3,22.3c0.8,8.1,11.8,1.5,7.8-4.9c-5-8-9.6-16.2-16-23.1c-7.3-8-17.7-11.6-28-13.4
			c-11.9-2.1-24.2-1.4-36.2-1c-13.5,0.5-26.9-0.4-40.5-0.8c-26.1-0.8-52.2,0-78.2,1.7c-16.4,1.1-35.4,4.5-44.1,20.5
			C163.4,1089.5,173.4,1095.5,177,1088.8L177,1088.8z"/>
		<path d="M378.6,1073.3c-19.9-6-50.2-3-70.8-3.4c-23.2-0.4-46.4-1.2-69.6-0.1c-20.4,1-41.6,3-60.2,11.9c-2.1,1-3.6,4.3-2.6,6.5
			c5.4,12.8,17.6,11.1,29.5,10.4c21.7-1.3,43.7-0.2,65.4,1.5c16.5,1.3,33.3,4.5,49.8,4.4c6.3,0,12.8-1.4,17.9-5.2
			c7.9-5.8,19.8-20,39.8-11.1c4.4,1.9,8,4.8,10.2,9c1.3,2.4,2.3,6.2,4.3,8.1c3.4,3.4,9.4,2.7,13.7,1.9
			C413.3,1105.9,387.7,1076.1,378.6,1073.3z"/>
		<g>
			<path d="M182.8,1208.9c-71.2,0-129.1-56.3-129.1-125.5c0-69.2,57.9-125.5,129.1-125.5c71.2,0,129.1,56.3,129.1,125.5
				C311.9,1152.6,254,1208.9,182.8,1208.9z M182.8,971.4c-63.8,0-115.6,50.3-115.6,112c0,61.8,51.9,112,115.6,112
				c63.8,0,115.6-50.3,115.6-112C298.5,1021.7,246.6,971.4,182.8,971.4z"/>
		</g>
		<path fill="#063F34" d="M48.3,1063.4l-13.3-2.1c5.3-34,23.1-65.2,50-87.8c27.1-22.8,61.8-35.4,97.8-35.4
			c35.8,0,70.5,12.5,97.6,35.2c26.9,22.5,44.6,53.6,50.1,87.5l-13.3,2.1c-10.2-63.5-68-111.4-134.4-111.4
			C116.2,951.6,58.3,999.7,48.3,1063.4z"/>
		<path fill="#005D4B" d="M470.6,1142c-19.7-52-8.3-110.6,29.7-152.9c29.5-32.8,71.3-51.2,114.6-50.5l-0.2,13.4
			c-39.4-0.6-77.5,16.2-104.4,46.1c-34.6,38.6-45,91.9-27.2,139.2L470.6,1142z"/>
		<path d="M612.6,1210.3c-71.2,0-129.1-56.3-129.1-125.5s57.9-125.5,129.1-125.5c71.2,0,129.1,56.3,129.1,125.5
			S683.8,1210.3,612.6,1210.3z M612.6,972.8c-63.8,0-115.6,50.3-115.6,112c0,61.8,51.9,112,115.6,112c63.8,0,115.6-50.3,115.6-112
			C728.3,1023.1,676.4,972.8,612.6,972.8z"/>
		<ellipse fill="none" stroke="#000000" stroke-width="3" stroke-miterlimit="10" cx="365.6" cy="1105.3" rx="31.8" ry="30.9"/>
		<path d="M443.4,851.6c3.7,0,0.6-8.7-3-7.9c-7.3,1.6-13.6,5.6-20.5,8.3c-3.4,1.3-4.5,6.6-0.9,7.7
			C426.8,862.1,436.4,851.6,443.4,851.6z"/>
		<path d="M504.3,850.6c-4.3-12.3-19.3-11.7-30-13.2c-3.6-0.5-5.2,5-1.5,5.5c7.7,1.1,22.8,0.1,26,9.2
			C499.9,855.6,505.5,854.1,504.3,850.6L504.3,850.6z"/>
		<path d="M482.9,857.8c3.4,6.7,5.4,14.2,8.4,21.2c3.8,9,7.7,18,11.5,27c1.4,3.4,7,1.9,5.5-1.5c-3.5-8.5-7.1-17-10.8-25.5
			c-3.5-7.9-5.7-16.4-9.6-24.1C486.1,851.6,481.2,854.5,482.9,857.8L482.9,857.8z"/>
		<path d="M521.8,953.8c2.1,4.6,3.5,9.6,6.2,13.9c1.9,3.1,6.9,0.3,5-2.9c-2.7-4.3-4.1-9.3-6.2-13.9
			C525.2,947.5,520.3,950.5,521.8,953.8L521.8,953.8z"/>
		<path d="M530.3,972.8c0.4,3.3,1.7,6.1,3.1,9.1c1.6,3.4,2.2,7.2,4.2,10.3c2,3.1,7,0.2,5-2.9c-1.5-2.3-2-5-3-7.5
			c-1.2-3-3.2-5.8-3.6-9C535.6,969.1,529.8,969.1,530.3,972.8L530.3,972.8z"/>
		<path d="M539.4,1009.3c5.9-6.4,13.9-11.6,21.6-15.6c3.3-1.7,0.4-6.7-2.9-5c-8.1,4.2-16.5,9.8-22.8,16.5
			C532.8,1008,536.8,1012,539.4,1009.3L539.4,1009.3z"/>
		<path d="M538.8,994.3c1.4,2.1,2.4,4.5,3.6,6.7c1.8,3.3,6.7,0.4,5-2.9c-1.2-2.2-2.2-4.6-3.6-6.7
			C541.8,988.3,536.8,991.2,538.8,994.3L538.8,994.3z"/>
		<path d="M544.8,991.2c1.4,1.9,2.3,3.9,3.4,6c0.7,1.4,2.7,1.8,3.9,1c1.4-0.8,1.7-2.5,1-3.9c-1-2.1-2-4.1-3.4-6
			c-0.9-1.3-2.5-1.9-3.9-1C544.6,988,543.9,990,544.8,991.2L544.8,991.2z"/>
		<path d="M369,1120.6c4.2,4,6.7,10.2,9.9,15c5.4,8.1,9.7,16.7,16.5,23.8c2.6,2.7,6.6-1.4,4.1-4.1c-6.7-7.1-11-15.7-16.3-23.8
			c-3.3-4.9-5.7-10.9-10-15.1C370.4,1113.9,366.3,1118,369,1120.6L369,1120.6z"/>
		<path d="M326.3,1050.9c3.2,4.6,6.6,8.9,9.8,13.4c2.2,3,7.2,0.1,5-2.9c-3.3-4.5-6.7-8.9-9.8-13.4
			C329.2,1045,324.2,1047.9,326.3,1050.9L326.3,1050.9z"/>
		<path d="M328.9,1044.2c0.7-1.4,1.5-2.8,2.4-4.1c0.9-1.3,0.3-3.2-1-3.9c-1.4-0.8-3.1-0.3-3.9,1c-0.9,1.3-1.7,2.7-2.4,4.1
			c-0.7,1.4-0.4,3.1,1,3.9C326.3,1046,328.2,1045.6,328.9,1044.2L328.9,1044.2z"/>
		<path d="M330.6,1047.3c1.1-1.4,1.8-3.1,2.5-4.8c0.6-1.5-0.6-3.2-2-3.5c-1.6-0.5-3,0.6-3.5,2c0,0-0.3,0.8-0.1,0.3
			c-0.2,0.4-0.3,0.7-0.5,1.1c-0.4,0.7-0.8,1.4-1.3,2c-1,1.2-0.2,3.2,1,3.9C328.1,1049.2,329.6,1048.6,330.6,1047.3L330.6,1047.3z"/>
		<path d="M332,1049c0.7-1.1,1.5-2.2,2.2-3.4c0.8-1.3,0.3-3.2-1-3.9c-1.4-0.8-3.1-0.3-3.9,1c-0.7,1.1-1.5,2.2-2.2,3.4
			c-0.8,1.3-0.3,3.2,1,3.9C329.5,1050.9,331.2,1050.4,332,1049L332,1049z"/>
		<path d="M333,1050.8c4.4-4.4,0.2-10-0.9-14.8c-1.4,1.1-2.8,2.2-4.2,3.2c1.8,0.9,2.6,5.1,3.5,6.9c1.7,3.3,6.7,0.4,5-2.9
			c-1.5-3-2.4-7.3-5.6-8.9c-2.3-1.2-4.8,0.7-4.2,3.2c0.4,1.7,1.1,3.3,1.8,4.9c0.4,1,1.6,3.4,0.7,4.3
			C326.3,1049.3,330.4,1053.4,333,1050.8L333,1050.8z"/>
		<path d="M441.1,879c12.6-12.4,29.5-17.7,45.1-24.7c1.7-0.8,0.2-3.2-1.5-2.5c-15.9,7.1-32.9,12.5-45.7,25.2
			C437.8,878.2,439.8,880.3,441.1,879L441.1,879z"/>
		<path d="M456.6,883.8c7-8.4,18.2-14.4,27.8-19.6c6.7-3.6,19.4-3.6,23.1-11.4c0.4-0.7,0.2-4.8-2.2-2.8c-1.9,1.6-12.3,7.4-15.8,8.7
			c-4.4,1.7-8.5,4-12.5,6.4c-7.9,4.7-16.5,9.5-22.4,16.6C453.4,883.1,455.4,885.2,456.6,883.8L456.6,883.8z"/>
		<path d="M486.5,855.4c6.2-0.3,12-2.5,18.2-2.7c1.9-0.1,1.9-2.9,0-2.9c-6.2,0.2-12.1,2.4-18.2,2.7
			C484.6,852.6,484.6,855.5,486.5,855.4L486.5,855.4z"/>
		<path d="M509.7,904.1c4.5-2.6,10.8-2.3,14.7-6c4.4-4.2,0.3-10.7,0.4-15.7c0-1.9-2.8-1.9-2.9,0c-0.1,5,4.3,11.8-1.3,14.8
			c-3.9,2.1-8.5,2.3-12.3,4.5C506.7,902.6,508.1,905.1,509.7,904.1L509.7,904.1z"/>
		<path d="M247.5,909.4c5.3-1,10.6-0.7,15.9-0.1c1.8,0.2,1.8-2.7,0-2.9c-5.6-0.6-11.1-0.8-16.7,0.2
			C244.9,907,245.7,909.7,247.5,909.4L247.5,909.4z"/>
		<path d="M247.7,913.4c5.7-1.1,11.6-1.4,17.3-0.2c1.8,0.4,2.6-2.4,0.8-2.8c-6.2-1.4-12.6-1.1-18.8,0.2
			C245.1,911,245.9,913.7,247.7,913.4L247.7,913.4z"/>
		<path d="M247.3,917.6c6-0.8,11.7-1.4,17.5,0.4c1.8,0.6,2.5-2.2,0.8-2.8c-6.1-1.9-12.1-1.3-18.3-0.5
			C245.5,915,245.5,917.8,247.3,917.6L247.3,917.6z"/>
		<path d="M247.5,921.7c5.6-0.4,11-1.8,16.6,0c1.8,0.6,2.5-2.2,0.8-2.8c-5.8-1.8-11.4-0.5-17.3-0.1
			C245.6,919,245.6,921.9,247.5,921.7L247.5,921.7z"/>
		<path d="M619.3,1090.8c-52.4,1.8-104.8,3.4-157.2,5.6c-1,0-1,1.5,0,1.4c52.4-2.2,104.8-3.8,157.2-5.6
			C620.3,1092.2,620.3,1090.8,619.3,1090.8L619.3,1090.8z"/>
		<path d="M52.9,1012.9c20.8,10.5,40.4,24.7,60.1,37.1c20.6,12.9,40.8,26.4,61.8,38.7c0.8,0.5,1.6-0.8,0.8-1.3
			c-20.4-11.9-40.1-25-60-37.5c-20.3-12.8-40.5-27.3-61.9-38.2C52.8,1011.2,52.1,1012.5,52.9,1012.9L52.9,1012.9z"/>
		<path d="M169.7,1104.3c2.8,0,2.8-4.3,0-4.3C166.9,1100,166.9,1104.3,169.7,1104.3L169.7,1104.3z"/>
		<path d="M174.9,1107c2.8,0,2.8-4.3,0-4.3C172.1,1102.7,172.1,1107,174.9,1107L174.9,1107z"/>
		<path d="M180.1,1107.9c2.8,0,2.8-4.3,0-4.3C177.3,1103.6,177.4,1107.9,180.1,1107.9L180.1,1107.9z"/>
		<path d="M184.1,1109c2.8,0,2.8-4.3,0-4.3C181.3,1104.6,181.3,1109,184.1,1109L184.1,1109z"/>
		<path d="M187.6,1110c2.8,0,2.8-4.3,0-4.3C184.8,1105.7,184.8,1110,187.6,1110L187.6,1110z"/>
		<path d="M193.1,1111.1c2.8,0,2.8-4.3,0-4.3C190.3,1106.8,190.3,1111.1,193.1,1111.1L193.1,1111.1z"/>
		<path d="M197.1,1111.1c2.8,0,2.8-4.3,0-4.3C194.3,1106.8,194.3,1111.1,197.1,1111.1L197.1,1111.1z"/>
		<path d="M201.6,1112.6c2.8,0,2.8-4.3,0-4.3C198.8,1108.2,198.8,1112.6,201.6,1112.6L201.6,1112.6z"/>
		<path d="M206.9,1113.6c2.8,0,2.8-4.3,0-4.3C204.1,1109.3,204.1,1113.6,206.9,1113.6L206.9,1113.6z"/>
		<path d="M211.8,1115c2.8,0,2.8-4.3,0-4.3C209,1110.6,209,1115,211.8,1115L211.8,1115z"/>
		<path d="M216.5,1116.4c2.8,0,2.8-4.3,0-4.3S213.7,1116.4,216.5,1116.4L216.5,1116.4z"/>
		<path d="M221.4,1117c2.8,0,2.8-4.3,0-4.3C218.6,1112.7,218.6,1117,221.4,1117L221.4,1117z"/>
		<path d="M225.7,1118.6c2.8,0,2.8-4.3,0-4.3C222.9,1114.2,222.9,1118.6,225.7,1118.6L225.7,1118.6z"/>
		<path d="M230.6,1119.5c2.8,0,2.8-4.3,0-4.3C227.8,1115.2,227.8,1119.5,230.6,1119.5L230.6,1119.5z"/>
		<path d="M235.4,1119.6c2.8,0,2.8-4.3,0-4.3C232.6,1115.3,232.6,1119.6,235.4,1119.6L235.4,1119.6z"/>
		<path d="M239.5,1120.2c2.8,0,2.8-4.3,0-4.3S236.7,1120.2,239.5,1120.2L239.5,1120.2z"/>
		<path d="M243.5,1121c2.8,0,2.8-4.3,0-4.3C240.7,1116.6,240.7,1121,243.5,1121L243.5,1121z"/>
		<path d="M248.6,1121.6c2.8,0,2.8-4.3,0-4.3C245.8,1117.3,245.8,1121.6,248.6,1121.6L248.6,1121.6z"/>
		<path d="M253,1122.8c2.8,0,2.8-4.3,0-4.3C250.3,1118.4,250.3,1122.8,253,1122.8L253,1122.8z"/>
		<path d="M258.2,1123.6c2.8,0,2.8-4.3,0-4.3C255.4,1119.3,255.4,1123.6,258.2,1123.6L258.2,1123.6z"/>
		<path d="M263.1,1125c2.8,0,2.8-4.3,0-4.3C260.3,1120.7,260.3,1125,263.1,1125L263.1,1125z"/>
		<path d="M267.6,1125.6c2.8,0,2.8-4.3,0-4.3C264.8,1121.3,264.8,1125.6,267.6,1125.6L267.6,1125.6z"/>
		<path d="M271.8,1126.8c2.8,0,2.8-4.3,0-4.3C269,1122.5,269,1126.8,271.8,1126.8L271.8,1126.8z"/>
		<path d="M276.1,1127.5c2.8,0,2.8-4.3,0-4.3C273.3,1123.2,273.3,1127.5,276.1,1127.5L276.1,1127.5z"/>
		<path d="M281.2,1128.3c2.8,0,2.8-4.3,0-4.3C278.4,1124,278.4,1128.3,281.2,1128.3L281.2,1128.3z"/>
		<path d="M285.7,1128.6c2.8,0,2.8-4.3,0-4.3C282.9,1124.3,282.9,1128.6,285.7,1128.6L285.7,1128.6z"/>
		<path d="M399.7,1111.8c2.8,0,2.8-4.3,0-4.3C397,1107.5,397,1111.8,399.7,1111.8L399.7,1111.8z"/>
		<path d="M398.7,1116.2c2.8,0,2.8-4.3,0-4.3C395.9,1111.8,395.9,1116.2,398.7,1116.2L398.7,1116.2z"/>
		<path d="M397.1,1120.2c2.8,0,2.8-4.3,0-4.3C394.3,1115.9,394.3,1120.2,397.1,1120.2L397.1,1120.2z"/>
		<path d="M395.6,1124.1c2.8,0,2.8-4.3,0-4.3C392.8,1119.8,392.8,1124.1,395.6,1124.1L395.6,1124.1z"/>
		<path d="M393.1,1127.4c2.8,0,2.8-4.3,0-4.3C390.3,1123.1,390.3,1127.4,393.1,1127.4L393.1,1127.4z"/>
		<path d="M390.2,1131.3c2.8,0,2.8-4.3,0-4.3C387.4,1126.9,387.4,1131.3,390.2,1131.3L390.2,1131.3z"/>
		<path d="M386.5,1134.9c2.8,0,2.8-4.3,0-4.3C383.7,1130.5,383.7,1134.9,386.5,1134.9L386.5,1134.9z"/>
		<path d="M377.2,1140.5c2.8,0,2.8-4.3,0-4.3C374.4,1136.2,374.4,1140.5,377.2,1140.5L377.2,1140.5z"/>
		<path d="M373,1141.9c2.8,0,2.8-4.3,0-4.3C370.3,1137.6,370.3,1141.9,373,1141.9L373,1141.9z"/>
		<path d="M368.5,1142.7c2.8,0,2.8-4.3,0-4.3C365.7,1138.3,365.7,1142.7,368.5,1142.7L368.5,1142.7z"/>
		<path d="M364,1142.9c2.8,0,2.8-4.3,0-4.3C361.3,1138.6,361.3,1142.9,364,1142.9L364,1142.9z"/>
		<path d="M359.9,1142.3c2.8,0,2.8-4.3,0-4.3C357.1,1138,357.1,1142.3,359.9,1142.3L359.9,1142.3z"/>
		<path d="M355.7,1141.8c2.8,0,2.8-4.3,0-4.3C352.9,1137.5,352.9,1141.8,355.7,1141.8L355.7,1141.8z"/>
		<path d="M346,1139.8c2.8,0,2.8-4.3,0-4.3S343.2,1139.8,346,1139.8L346,1139.8z"/>
		<path d="M350.8,1140.7c2.8,0,2.8-4.3,0-4.3C348,1136.4,348,1140.7,350.8,1140.7L350.8,1140.7z"/>
		<path d="M341.4,1139.4c2.8,0,2.8-4.3,0-4.3C338.6,1135.1,338.6,1139.4,341.4,1139.4L341.4,1139.4z"/>
		<path d="M336.5,1138.8c2.8,0,2.8-4.3,0-4.3S333.7,1138.8,336.5,1138.8L336.5,1138.8z"/>
		<path d="M331.7,1137.5c2.8,0,2.8-4.3,0-4.3C328.9,1133.2,328.9,1137.5,331.7,1137.5L331.7,1137.5z"/>
		<path d="M331.7,1111.1c2.8,0,2.8-4.3,0-4.3C328.9,1106.8,328.9,1111.1,331.7,1111.1L331.7,1111.1z"/>
		<path d="M330.9,1106.8c2.8,0,2.8-4.3,0-4.3C328.2,1102.5,328.2,1106.8,330.9,1106.8L330.9,1106.8z"/>
		<path d="M332.2,1115.3c2.8,0,2.8-4.3,0-4.3C329.4,1111,329.4,1115.3,332.2,1115.3L332.2,1115.3z"/>
		<path d="M333.4,1118.6c2.8,0,2.8-4.3,0-4.3C330.7,1114.2,330.7,1118.6,333.4,1118.6L333.4,1118.6z"/>
		<path d="M334.7,1121.7c2.8,0,2.8-4.3,0-4.3C331.9,1117.4,331.9,1121.7,334.7,1121.7L334.7,1121.7z"/>
		<path d="M336.5,1125.5c2.8,0,2.8-4.3,0-4.3S333.7,1125.5,336.5,1125.5L336.5,1125.5z"/>
		<path d="M338.4,1128.1c2.8,0,2.8-4.3,0-4.3C335.6,1123.8,335.6,1128.1,338.4,1128.1L338.4,1128.1z"/>
		<path d="M340.9,1131.3c2.8,0,2.8-4.3,0-4.3C338.1,1127,338.2,1131.3,340.9,1131.3L340.9,1131.3z"/>
		<path d="M343.8,1133.4c2.8,0,2.8-4.3,0-4.3C341,1129.1,341,1133.4,343.8,1133.4L343.8,1133.4z"/>
		<path d="M347.1,1136.1c2.8,0,2.8-4.3,0-4.3C344.3,1131.7,344.3,1136.1,347.1,1136.1L347.1,1136.1z"/>
		<path d="M350.8,1137.5c2.8,0,2.8-4.3,0-4.3C348,1133.2,348,1137.5,350.8,1137.5L350.8,1137.5z"/>
		<path d="M353.7,1139.4c2.8,0,2.8-4.3,0-4.3C350.9,1135.1,350.9,1139.4,353.7,1139.4L353.7,1139.4z"/>
		<path d="M327.3,1136.4c2.8,0,2.8-4.3,0-4.3C324.5,1132.1,324.5,1136.4,327.3,1136.4L327.3,1136.4z"/>
		<path d="M322.6,1136.1c2.8,0,2.8-4.3,0-4.3C319.8,1131.7,319.8,1136.1,322.6,1136.1L322.6,1136.1z"/>
		<path d="M318.4,1135.5c2.8,0,2.8-4.3,0-4.3C315.6,1131.2,315.6,1135.5,318.4,1135.5L318.4,1135.5z"/>
		<path d="M313.6,1134.9c2.8,0,2.8-4.3,0-4.3C310.8,1130.5,310.8,1134.9,313.6,1134.9L313.6,1134.9z"/>
		<path d="M308.8,1134.3c2.8,0,2.8-4.3,0-4.3C306,1130,306,1134.3,308.8,1134.3L308.8,1134.3z"/>
		<path d="M304.1,1133.4c2.8,0,2.8-4.3,0-4.3C301.3,1129.1,301.3,1133.4,304.1,1133.4L304.1,1133.4z"/>
		<path d="M166.5,1100.7c2.8,0,2.8-4.3,0-4.3S163.7,1100.7,166.5,1100.7L166.5,1100.7z"/>
		<path d="M164.2,1096.4c2.8,0,2.8-4.3,0-4.3C161.4,1092.1,161.4,1096.4,164.2,1096.4L164.2,1096.4z"/>
		<path d="M164.9,1092.2c2.8,0,2.8-4.3,0-4.3C162.1,1087.9,162.1,1092.2,164.9,1092.2L164.9,1092.2z"/>
		<path d="M387.6,1172l0.1,7.3c0,0,2.5,4.8,5.6,0c0,0,9.7,6.3,20.2-2c0,0,2.9,5.1,6-0.1c0,0,0.6-2.3-1.9-8c0,0-2.7-9.8-7.8-9.2
			c0,0-4.4-3.6-9.4-2.5c-4.9,1.1-6.3,3.3-7.2,4.2c-0.4,0.4-2,1.7-2.9,2.6c0,0-1.9-0.1-2.6,1.9L387.6,1172z"/>
		<path fill="#005D4B" d="M283.7,921.9c35.8,0,71.7,1.5,107.5,2.3c39.1,0.8,78.8,3,117.9,1.1c7.4-0.4,7.4-11.9,0-11.5
			c-38.4,1.9-77.3-0.2-115.7-1c-36.6-0.8-73.2-2.4-109.7-2.3C276.3,910.4,276.3,921.9,283.7,921.9L283.7,921.9z"/>
		<rect x="29.4" y="798.6" fill="#26241E" width="205.8" height="141.1"/>
		<path d="M25,945.7l239.8,0.8c7.9-0.5,7.8-12-0.1-11.5l-239.8-0.8C17,934.3,17.1,945.8,25,945.7L25,945.7z"/>
		<path d="M370.1,1117.8c0,0,7.1-3.4,3.3-10c-3.8-6.6-10-2.9-10.6-2.3c-0.6,0.6-5.3,4.4-3.6,9.4
			C360.9,1119.7,370.1,1117.8,370.1,1117.8z"/>
	</g>
	<g>
		<path fill="#C1A868" d="M373.7,1078c-6.2-1.6-12.7-2.9-19.2-0.8c-5.2,1.6-4.4,9.3-4.7,14.5c-1,14.8,17.4,16.3,25.7,23.6
			c1.6-2.9-0.5-6.5-0.5-9.9c0.3-2.9,1-5.7,1.3-8.8c0.3-6,0.5-11.9,0.5-17.6L373.7,1078z"/>
	</g>
	<g>
		<path fill="#15346B" d="M312.2,831.3c-6.7-1.6-15,1.6-21.3,3.1c-7.8,2.1-16.1,4.7-22.8,9.3c-9.3,6.7-12.1,17.6-6.4,25.4
			c9.9,13.5,19.7,30.4,32.6,41.3c11.9,9.9,22.3,17.9,32.7,29.3c10.4,11.9,25.2,13.5,23.1,29.1c-1.6,14.5-5.2,28.5-6.2,43.1
			c-1,13-2.1,25.9-1.6,39.4c0.5,7.8-1,18.7,2.1,26.5c3.1,8.8,18.2,6.7,27,5.7c8.8-1,7.8-2.1,8.3-9.9c0.5-5.2,1.6-10.4,2.1-15.6
			c4.2-27.5,11.9-54,16.6-81.5c4.7-25.4-6.7-48.8-18.7-71.1c-6.2-11.9-15-24.9-23.9-35.3c-10.4-10.9-25.4-19.2-29.6-34.8
			C326.2,835.4,317.9,832.3,312.2,831.3z"/>
	</g>
	<g id="pj_x5F_face">
		<g>
			<path fill="#C1A868" d="M389.5,598.1c2.8,1.7,6.2,1.2,5.1,11.1c0.6,5.7-2.1,6-4.5,10.5c-1.7,3.5-1.1,6.2-0.4,10.1
				c5.5,9.5,5.7,9.7-1.6,12.2c-0.7,0.7-1,2.2-2,3.3c-0.3,0.7,0.3,2.1,0,2.8c-1.7,3.1-1.7,2.8-2.4,6.6c-0.7,3.5-1.4,8.3-5.2,9.7
				c-6.2,2.1-15.6-5.9-20.8-2.1c-6.6,5.2-1.7,17-4.5,23.5c-3.5,9-16.3,2.4-22.5-0.7c-3.1-1-12.1-3.5-13.5-5.5
				c-3.1-4.8,4.8-11.1,7.6-13.5c6.6-6.6,6.6-17,6.9-25.6c0.7-13.8-1.4-26.3,6.2-38.7c9.7-15.9,37.4-21.1,50.2-5.9L389.5,598.1z"/>
		</g>
		<ellipse fill="#3A3A3A" cx="375.9" cy="627" rx="1.1" ry="1.1"/>
		<g>
			<path fill="#3A3A3A" d="M343,630.6c0.5,0,0.5,0.2,1,0c-0.2-0.3-0.9-1.9-0.9-2.2c0.2-0.9,1.2-1,1.4-1.9c0.2-1.6-0.9-2.2-1-3.8
				c-0.5-4.8,2.8-2.8,5-1.2c1.6,1-0.1-1.5,1.6-1.3c1.4,0,2.7,1.3,3.8,2.5c0-0.2,0.5,2.8,0.5,2.9c0.2,0.3,1.6,3.1,1.7,3.3
				c1.9,1,5.4-2.4,5.7-4.2c0.9-3.5-1.6-2.9,1.6-5.4c1.4-0.9,1.9-0.9,2.4-2.6c0.2-0.7-0.3-2.1,0-2.9c1.2-1.7,3.6,0,5.7-1.2
				c2.4-1.4,1.6-4.3,4-5.7c2.9-1.7,5.5,0.5,7.1-3.5c0.3-1.4-0.5-3.3,1.4-3.3c0.9-0.2,3.1,2.6,4.2,3.1c0.9,0.3,1.9-0.2,2.8,0.7
				c0.7,0.7,0,2.2,1.6,2.8c1.9,0.7,2.8-2.2,4.2-2.8c2.6-0.9,4.2,1.9,6.4,1.4c2.1-0.5,3.1-3.5,4-5.2c0.3-0.7,0.2-1,0.7-1.9
				c0.3-0.3,1.2-0.2,1.4-0.3c0.5-0.9-0.3-1.7-0.2-2.2c0.7-1.6,4-1.9,4.3-4c0.2-1.4-1.4-4.7-2.2-5.9c-0.9-1.2-2.1-1.4-1.7-3.1
				c0-0.9,1.7-1.2,1.7-2.1c-0.2-2.1-4-1.6-5.7-2.1c-2.9-1-2.9-1.6-3.8-3.8c-0.5-1.6,0-2.2-1.6-3.3c-1-0.7-2.6,0.2-3.8-1.2
				c-1.6-1.6-0.9-4.2-2.4-5.7c-0.9-0.9-1.2-1.6-2.6-1.2c-1.7,0.5-0.7,1.9-1.7,2.4c-2.6,1.6-4.2-1.6-4.3-3.8
				c-0.3-1.6-0.3-1.4,0.3-3.1c0.7-1,1.7-0.9,1.6-2.2c-0.3-2.4-1.4-0.7-2.6-0.9c-1.9-0.2-2.9-1.7-5-2.1c-4.2-1-1.9,5.9-6.2,6.2
				c-0.7,0-4.8-0.7-5.5-1c-0.9-0.3-1.6-0.5-1.9-1.7c-0.5,0.7-2.1,3.3-2.9,3.6c-1.2,0.7-3.3-0.5-4.3,0c-2.2,1,0.2,1.4-0.3,3.1
				c-0.9,2.9-2.8,1.2-4.3,0.7c-1.9-0.5-2.9-0.5-4.5-1.9c-0.7-0.5-0.9-1.9-2.1-2.1c-1.4-0.2-0.9,1.4-1.9,1.7c-1,0.2-4.5-0.9-5.5,0.2
				c-1.2,1.4,0.7,2.8,0.5,4.3c0-0.3-1.4,2.9-1.4,2.8c-0.9,1-1,1.7-2.6,0.7c-1.6-1-1-5.4-2.9-1.6c-0.5,0.9,0.3,2.4-0.9,3.3
				c-1.2,1-1.9-0.5-2.9-0.5c-3.3,0-1.6,1.6-1.7,4c-0.2,1.6-0.5,2.4-1.7,3.3c-0.5,0.3-1.6-0.2-1.9,0.2c-0.3,0.3-0.3,1.2-0.7,1.4
				c-0.3,0.2,0,1-0.5,1.4c-0.3,0.2-1.2-0.3-1.6,0c-1,0.9-1.2-0.3-1.6,1.4c-0.3,2.4,2.4,3.3,1.2,6.4c-0.9,2.6-3.1,2.1-3.6,4.5
				c-0.3-0.2-0.5-0.3-0.7-0.5c-3.6,2.9,0.3,2.9,2.2,5.2c3.3,4-1.7,3.5-3.6,5.4c-1,1-2.1,4.2-2.1,5.7c0,2.2,1,3.8,0.9,6.2
				c-0.3,3.1,0,3.6,2.1,6.1c1.6,1.9,1.4,4.3,2.8,6.1c1.9,2.2,2.6-0.2,5-0.2c2.2,0.2,4,3.3,5.5,4.5c1.4,1,2.2,1.4,2.9,2.9
				c0.5,0.9,0.2,1.9,1,2.6c1.9-2.9,2.9,0.2,4,1.7c0.7,1,0.2,2.1,1.9,1.7c1.4-0.2,1.6-1.7,1.4-2.8c-0.5-2.6-3.1-3.1-2.2-6.4
				c0.9-2.6,1-2.4,3.6-2.4L343,630.6z"/>
		</g>
		<polygon fill="#3A3A3A" points="382.3,660.1 383.3,660.7 383.3,663 384.5,664.9 383.4,666.9 380.8,668.4 376.7,668.4 373.8,667.3 
			373.8,666.4 369,667 369,665.9 366.3,664.3 364.9,664.3 362.5,663.1 360.3,661.3 359.6,660.1 357.9,657.8 356.8,656.6 
			356.8,654.8 357.9,653.9 358.9,655.3 361,657.6 362.3,656.6 363.2,658.2 363.2,659.2 365.7,659.8 367.5,659.4 368.9,659.9 
			370.7,661.2 372.3,661.2 372.7,659.6 374,659.5 375,660.5 376.6,661.2 379.1,661.2 380.4,659.9 		"/>
		<polygon fill="#565656" points="357.8,633 355.8,633.2 355.4,637.5 355.2,645.6 356.4,650.2 358.5,650.1 358.5,641.5 358.2,637.3 
					"/>
		<path fill="#3A3A3A" d="M391.6,617.7l-4.9-1.3l-5.7,0.7l-1.4,1.9l5-1.3l1.8,0.9l3,0.4l0.7,0.8
			C390.1,619.8,392.1,619.7,391.6,617.7z"/>
		<path fill="#FFFFFF" d="M380.1,620.2h7.9c0,0,0.2,2.8-1.3,3.3C385.2,623.9,380.1,620.2,380.1,620.2z"/>
		<path fill="#FFFFFF" d="M384.7,645.7c0,0,1,1.6,0.9,2.2c0,0.2-0.8,0.5-0.8,0.5s-3.4-0.6-6.2-0.2c-2.8,0.4-5.4,3.9-9.2,2.7
			c-3.8-1.2-3.5-7.1-2-8c1.5-0.9,3-2.2,6.1-1.6c3.2,0.7,6.6,4.2,9.6,4.1C383.1,645.3,382.7,645.5,384.7,645.7z"/>
		<path d="M384.7,620.2c0,0,0.9-0.1,1.1,1.4c0,0.4-0.1,1.2-1,1.4c-1.5-0.3-4.6-2.8-4.6-2.8H384.7L384.7,620.2z"/>
	</g>
	<g>
		<path fill="#BACAD1" d="M318.4,665.5c-1.6,0.2-1.7,1.6-1.9,2.9c-0.5,4.2,5.7,5.2,8.8,6.6c4.3,1.9,8.5,3.5,12.5,5.9
			c4.2,2.6,7.1,6.1,9.9,10c2.4,3.3,6.4,9.7,11.1,9.2c-0.9-3.3-1-6.9-1.4-10.4c-0.2-1.6,0.2-3.8-0.5-5.2c-0.9-2.1-4-3.6-5.7-5
			c-3.6-2.4-6.9-5.4-10.9-7.3C334,669.2,325.4,665.5,318.4,665.5L318.4,665.5z"/>
	</g>
	<g>
		<path fill="#BACAD1" d="M318.5,669.9c-7.7,9.2-20,10-26.9,19.2c-6.1,7.7-6.9,18.4-7.7,26.9c-2.3,20-10,33-18.4,49.9
			c-14.6,30-19.2,63.8-21.5,96.1c-0.8,6.1-2.3,20,1.5,25.4c6.9,10.8,27.7,0,32.3-10c5.4-10.8,3.8-18.4,19.2-16.9
			c5.4,0.8,10,5.4,15.4,5.4c7.7,0,12.3-9.2,20-2.3c3.8-17.7,10-33,9.2-52.3c-0.8-19.2,1.5-31.5,9.2-49.2
			c16.1-39.2,17.7-75.3-29.2-89.1L318.5,669.9z"/>
	</g>
	<g>
		<path fill="#C1A868" d="M388.3,804.4c-6.3,1.6-16.6,8.9-10.7,17c4.1,6.2,19.6,8.1,26.3,9.3c7.8,1.9,15.5,3.5,22.9,6.2
			c10,3.9,10.4,13.9,21.8,15.9c-1.9,2.7-5.5,3.1-7.8,5c2.2,0.8,5.9,0,8.1-0.4c3-0.8,8.9-1.5,11.5-3.5c4.4-3.5,3-8.5,1.5-14.3
			c-3-9.3-11.5-11.2-20.3-12.4c-5.5-1.2-7-3.1-11.8-5c-3.7-1.9-8.5-1.9-12.6-4.3c-8.5-4.3-16.3-9.7-24.4-14.7L388.3,804.4z"/>
	</g>
	<g>
		<path fill="#BACAD1" d="M313.8,726.7c8,21.5,16.7,43.1,25.9,63.8c4.8,11.6,9.2,19.9,20.3,26.7c4.8,2.8,11.2,3.2,15.5,6
			c5.2,3.6-0.4,6,6.8,9.2c7.2,2.8,8.4-0.8,10.8-6.8c2.4-5.6,6.4-9.6,9.2-15.2c2.4-4.8,0.4-11.6-6.4-12c-2.8-0.4-2.8,2.8-5.6,2.4
			c-2.4,0-5.2-3.6-6.8-5.2c-8.8-8.4-16.7-16.3-21.9-27.5c-3.2-7.6-6.8-15.5-9.6-23.1c-4.4-11.2-5.6-23.1-8.8-34.7
			c-5.6-18.7-25.5-4-29.1,8.4L313.8,726.7z"/>
	</g>
	<g>
		<path fill="#BACAD1" d="M350.7,708.3c-0.7,9.5,5.9,22.4,9.9,31.7c3.4,7.4,7.5,14.5,12,21.3c2.6,3.9,4.8,8.1,8.1,11.4
			c4.3,4.6,10.5,7.6,15.2,11.9c1.3,1.3,4.2,5.6,6.4,5.7c3.5,0.6,3.4-2.5,6.2-2.3c1.1,0.1,4.4,2.8,5.1,3.5c3,3,3,2.7,1,5.6
			c-2.8,3.8-8.6,5.9-12.4,8.7c-3.1,2.9-5.5,7-7.5,10c-2.5-0.5-5.5-2.6-7.2-4.2c-2.6-3.6,0.6-3.1-0.3-5.9c-0.8-3.5-9.4-7.8-12.8-10.2
			c-8.5-5.6-13.1-11.8-18.3-19.3c-11-16.3-20.8-33.4-28.9-50.4c-2.8-5.5-3.5-10.5,2.1-14.7c3-2.3,6.6-1.7,9.9-3
			c3.7-1.6,5-4.9,8.7-6.2L350.7,708.3z"/>
	</g>
	<g>
		<path fill="#0B4C2A" d="M349.7,1096.8c-4.2,6.6-17.3,13.5-12.1,23.9c3.5,7.3,16.3,11.4,22.5,16.3c13.5,10.7,27.3,26.6,45.7,28.7
			c9,1,4.5-9,1-13.8c-5.2-8-14.9-11.8-20.8-19.7c-2.4-3.5-4.5-6.9-5.9-11.1c-1-3.1-1-11.4-3.4-14.2c-2.4-2.8-8.7-0.7-12.2-2.8
			c-3.8-2.1-10.4-6.9-14.6-8.3L349.7,1096.8z"/>
	</g>
	<path fill="#FFFFFF" d="M336.4,1113.5c0,0,0.5,10,17.5,17.5c11.6,6.3,13.2,8.1,15.2,11.2c2.5,4,17.3,14.7,18.3,15.4
		c1,0.6,20.9,11,23.4,6c0,0,0.5,2.6-2,5c-2.5,2.4-20.7-4.7-22.3-7.4c0,0-12.2-5.4-18.4-14.3c-3.6-4.2-4.4-5.6-16.7-13.1
		c-9.5-4.6-17-10.1-17-13.2c0-3.1,0.3-2.7,0.3-2.7L336.4,1113.5z"/>
	<g id="delivery_x5F_text">
		<path fill="#FFFFFF" d="M72.9,858.3v-23.7h8c1.9,0,3.6,0.3,5,1c1.4,0.6,2.6,1.5,3.6,2.6c1,1.1,1.6,2.4,2.2,3.8
			c0.4,1.4,0.8,3,0.8,4.6c0,1.8-0.2,3.4-0.8,4.8c-0.5,1.5-1.3,2.7-2.3,3.8c-1,1.1-2.2,1.8-3.6,2.4c-1.4,0.5-3,0.9-4.7,0.9H73v-0.2
			H72.9z M90,846.4c0-1.4-0.2-2.7-0.6-3.9s-1-2.3-1.7-3.1c-0.8-0.9-1.7-1.5-2.8-2c-1.1-0.4-2.4-0.8-3.9-0.8h-5.7v19.6H81
			c1.5,0,2.8-0.2,3.9-0.8c1.1-0.5,2-1.2,2.8-2c0.8-0.9,1.3-1.9,1.7-3.1C89.7,849.1,90,847.8,90,846.4z"/>
		<path fill="#FFFFFF" d="M104,858.7c-1.3,0-2.5-0.2-3.6-0.8c-1.1-0.5-1.9-1.2-2.8-1.9c-0.9-0.8-1.4-1.8-1.8-2.9
			c-0.4-1.1-0.6-2.3-0.6-3.6c0-1.2,0.2-2.4,0.6-3.4c0.4-1,1.1-2,1.8-2.8c0.8-0.9,1.7-1.5,2.8-1.9c1.1-0.4,2.3-0.8,3.4-0.8
			c1.3,0,2.5,0.2,3.4,0.8c1.1,0.4,1.9,1.1,2.7,1.9c0.8,0.9,1.4,1.7,1.7,2.8c0.3,1.1,0.6,2.2,0.6,3.4c0,0.2,0,0.3,0,0.5s0,0.3,0,0.3
			H97.5c0.1,1,0.3,1.8,0.6,2.6c0.3,0.8,0.9,1.5,1.4,2s1.2,1.1,1.9,1.4c0.8,0.3,1.5,0.4,2.4,0.4c0.5,0,1.2-0.1,1.7-0.2
			s1.1-0.3,1.5-0.6c0.4-0.2,0.9-0.6,1.3-1c0.4-0.3,0.6-0.9,0.9-1.3l1.9,0.5c-0.2,0.6-0.6,1.2-1.2,1.7c-0.5,0.5-1.1,1-1.7,1.4
			c-0.6,0.4-1.4,0.6-2.2,0.9C105.6,858.6,104.8,858.7,104,858.7z M110.3,848.7c-0.1-1-0.3-1.8-0.6-2.6c-0.3-0.8-0.9-1.4-1.4-1.9
			s-1.2-1-1.9-1.3c-0.8-0.3-1.5-0.4-2.4-0.4s-1.6,0.1-2.4,0.4c-0.8,0.3-1.4,0.8-1.9,1.3s-1.1,1.2-1.4,2c-0.3,0.8-0.5,1.6-0.6,2.6
			h12.7v-0.1H110.3z"/>
		<path fill="#FFFFFF" d="M116,833.9h2.3v20.5c0,0.6,0.2,1.2,0.5,1.5c0.3,0.3,0.9,0.5,1.5,0.5c0.2,0,0.5,0,0.9-0.1
			c0.3-0.1,0.6-0.1,1-0.2l0.4,1.8c-0.4,0.2-1,0.3-1.5,0.4c-0.6,0.1-1.2,0.2-1.6,0.2c-1.1,0-1.8-0.3-2.5-0.9
			c-0.6-0.5-0.9-1.4-0.9-2.5v-21.3H116V833.9z"/>
		<path fill="#FFFFFF" d="M124.7,837.3V834h2.3v3.3H124.7z M124.7,858.3v-17.4h2.3v17.4H124.7z"/>
		<path fill="#FFFFFF" d="M137.1,858.3l-7.1-17.4h2.4l5.9,15.3l6-15.3h2.2l-7.1,17.4H137.1z"/>
		<path fill="#FFFFFF" d="M157.2,858.7c-1.3,0-2.5-0.2-3.6-0.8c-1.1-0.4-2-1.2-2.8-1.9c-0.8-0.9-1.4-1.8-1.8-2.9
			c-0.4-1.1-0.6-2.3-0.6-3.6c0-1.2,0.2-2.4,0.6-3.4c0.4-1.1,1.1-2,1.8-2.8c0.8-0.9,1.7-1.5,2.8-1.9c1.1-0.4,2.3-0.8,3.4-0.8
			c1.2,0,2.5,0.2,3.4,0.8c1.1,0.4,1.9,1.1,2.7,1.9c0.8,0.9,1.4,1.7,1.7,2.8c0.3,1.1,0.6,2.2,0.6,3.4c0,0.2,0,0.3,0,0.5s0,0.3,0,0.3
			h-14.9c0.1,1,0.3,1.8,0.6,2.6c0.3,0.8,0.9,1.5,1.4,2s1.2,1.1,1.9,1.4c0.8,0.3,1.5,0.4,2.4,0.4c0.5,0,1.2-0.1,1.7-0.2
			s1.1-0.3,1.5-0.6c0.4-0.2,0.9-0.6,1.3-1c0.4-0.3,0.6-0.9,0.9-1.3l1.9,0.5c-0.2,0.6-0.6,1.2-1.2,1.7c-0.5,0.5-1.1,1-1.7,1.4
			c-0.6,0.4-1.4,0.6-2.2,0.9C158.8,858.6,158,858.7,157.2,858.7z M163.6,848.7c-0.1-1-0.3-1.8-0.6-2.6c-0.3-0.8-0.9-1.4-1.4-1.9
			s-1.2-1-1.9-1.3c-0.8-0.3-1.5-0.4-2.4-0.4c-0.9,0-1.6,0.1-2.4,0.4c-0.8,0.3-1.4,0.8-1.9,1.3s-1.1,1.2-1.4,2
			c-0.3,0.8-0.5,1.6-0.6,2.6h12.7v-0.1H163.6z"/>
		<path fill="#FFFFFF" d="M177.8,843c-1.5,0-2.9,0.4-4,1.3c-1.2,0.8-1.9,1.9-2.4,3.3v10.8h-2.3V841h2.2v4.2c0.6-1.2,1.4-2.3,2.4-3
			c1-0.9,2-1.2,3.1-1.2c0.2,0,0.4,0,0.5,0c0.2,0,0.3,0,0.4,0L177.8,843L177.8,843z"/>
		<path fill="#FFFFFF" d="M181.9,863.7c0.1,0,0.2,0,0.3,0c0.1,0,0.2,0,0.3,0c0.2,0,0.4,0,0.8-0.1c0.2,0,0.4-0.1,0.5-0.1
			c0.1,0,0.2-0.1,0.3-0.3c0.1-0.1,0.3-0.4,0.4-0.8c0.2-0.3,0.4-0.9,0.8-1.5c0.3-0.6,0.6-1.5,1.1-2.7l-7.5-17.4h2.4l6.5,15.3
			l5.9-15.3h2.2l-9,22.4c-0.3,0.9-0.8,1.4-1.4,1.8c-0.5,0.4-1.4,0.6-2.4,0.6c-0.4,0-0.8,0-1.2-0.1V863.7L181.9,863.7L181.9,863.7z"
			/>
	</g>
</g>
</svg>
