<?xml version="1.0" encoding="utf-8"?>
<!-- Generator: Adobe Illustrator 16.0.0, SVG Export Plug-In . SVG Version: 6.00 Build 0)  -->
<!DOCTYPE svg PUBLIC "-//W3C//DTD SVG 1.1//EN" "http://www.w3.org/Graphics/SVG/1.1/DTD/svg11.dtd">
<svg version="1.1" xmlns="http://www.w3.org/2000/svg" xmlns:xlink="http://www.w3.org/1999/xlink" x="0px" y="0px" viewBox="0 0 1920 1080" enable-background="new 0 0 1920 1080" xml:space="preserve" preserveAspectRatio="none">
<g id="page_x5F_fill" >
	<rect x="1.5" y="0.5" fill="#ACCCC6" width="1920" height="1080"/>
</g>
<g id="easel">
	<g>
		<g id="backstand_1_">
			
				<linearGradient id="SVGID_1_" gradientUnits="userSpaceOnUse" x1="2493.541" y1="727.1123" x2="2493.541" y2="698.3627" gradientTransform="matrix(-1.140000e-002 -0.9997 1.0003 0 277.4444 3244.2439)">
				<stop  offset="0" style="stop-color:#C78234"/>
				<stop  offset="7.300000e-002" style="stop-color:#C98537"/>
				<stop  offset="0.1281" style="stop-color:#CF8F40"/>
				<stop  offset="0.1772" style="stop-color:#D99F50"/>
				<stop  offset="0.1935" style="stop-color:#DDA657"/>
				<stop  offset="0.2384" style="stop-color:#DBA053"/>
				<stop  offset="0.2957" style="stop-color:#D69049"/>
				<stop  offset="0.3656" style="stop-color:#844F1F"/>
				<stop  offset="0.4054" style="stop-color:#975D25"/>
				<stop  offset="0.4731" style="stop-color:#B1712D"/>
				<stop  offset="0.5336" style="stop-color:#C17E32"/>
				<stop  offset="0.5806" style="stop-color:#C78234"/>
				<stop  offset="0.6026" style="stop-color:#D19243"/>
				<stop  offset="0.6315" style="stop-color:#D89D4F"/>
				<stop  offset="0.6721" style="stop-color:#DCA455"/>
				<stop  offset="0.7849" style="stop-color:#DDA657"/>
				<stop  offset="0.8254" style="stop-color:#C68D43"/>
				<stop  offset="0.9028" style="stop-color:#A06322"/>
				<stop  offset="0.9637" style="stop-color:#884A0E"/>
				<stop  offset="1" style="stop-color:#7F4006"/>
			</linearGradient>
			<polygon fill="url(#SVGID_1_)" points="961.2,1080 965.6,810 966.2,810 972.6,422.9 943.9,422.9 951.3,1080 			"/>
			
				<linearGradient id="SVGID_2_" gradientUnits="userSpaceOnUse" x1="2493.5762" y1="695.3311" x2="2493.5762" y2="666.5838" gradientTransform="matrix(1.270000e-002 -0.9997 1.0003 0 243.8716 3244.2791)">
				<stop  offset="0" style="stop-color:#C78234"/>
				<stop  offset="7.300000e-002" style="stop-color:#C98537"/>
				<stop  offset="0.1281" style="stop-color:#CF8F40"/>
				<stop  offset="0.1772" style="stop-color:#D99F50"/>
				<stop  offset="0.1935" style="stop-color:#DDA657"/>
				<stop  offset="0.2384" style="stop-color:#DBA053"/>
				<stop  offset="0.2957" style="stop-color:#D69049"/>
				<stop  offset="0.3656" style="stop-color:#844F1F"/>
				<stop  offset="0.4054" style="stop-color:#975D25"/>
				<stop  offset="0.4731" style="stop-color:#B1712D"/>
				<stop  offset="0.5336" style="stop-color:#C17E32"/>
				<stop  offset="0.5806" style="stop-color:#C78234"/>
				<stop  offset="0.6026" style="stop-color:#D19243"/>
				<stop  offset="0.6315" style="stop-color:#D89D4F"/>
				<stop  offset="0.6721" style="stop-color:#DCA455"/>
				<stop  offset="0.7849" style="stop-color:#DDA657"/>
				<stop  offset="0.8254" style="stop-color:#C68D43"/>
				<stop  offset="0.9028" style="stop-color:#A06322"/>
				<stop  offset="0.9637" style="stop-color:#884A0E"/>
				<stop  offset="1" style="stop-color:#7F4006"/>
			</linearGradient>
			<polygon fill="url(#SVGID_2_)" points="950.3,731.5 954.7,1026 955.2,1026 956,1080 966.9,1080 975.3,422.9 946.6,422.9 
				951.3,731.5 			"/>
			<polyline opacity="0.2" enable-background="new    " points="948.4,789 970.6,789 966.9,1080 951.4,1080 			"/>
		</g>
		<g id="right_x5F_bar_1_">
			
				<linearGradient id="SVGID_3_" gradientUnits="userSpaceOnUse" x1="302.5728" y1="-127.269" x2="302.5728" y2="-156.0615" gradientTransform="matrix(6.980000e-002 0.9976 -0.9976 6.980000e-002 979.5797 248.5435)">
				<stop  offset="0" style="stop-color:#C78234"/>
				<stop  offset="7.300000e-002" style="stop-color:#C98537"/>
				<stop  offset="0.1281" style="stop-color:#CF8F40"/>
				<stop  offset="0.1772" style="stop-color:#D99F50"/>
				<stop  offset="0.1935" style="stop-color:#DDA657"/>
				<stop  offset="0.2384" style="stop-color:#DBA053"/>
				<stop  offset="0.2957" style="stop-color:#D69049"/>
				<stop  offset="0.3656" style="stop-color:#844F1F"/>
				<stop  offset="0.4054" style="stop-color:#975D25"/>
				<stop  offset="0.4731" style="stop-color:#B1712D"/>
				<stop  offset="0.5336" style="stop-color:#C17E32"/>
				<stop  offset="0.5806" style="stop-color:#C78234"/>
				<stop  offset="0.6026" style="stop-color:#D19243"/>
				<stop  offset="0.6315" style="stop-color:#D89D4F"/>
				<stop  offset="0.6721" style="stop-color:#DCA455"/>
				<stop  offset="0.7849" style="stop-color:#DDA657"/>
				<stop  offset="0.8254" style="stop-color:#C68D43"/>
				<stop  offset="0.9028" style="stop-color:#A06322"/>
				<stop  offset="0.9637" style="stop-color:#884A0E"/>
				<stop  offset="1" style="stop-color:#7F4006"/>
			</linearGradient>
			<polygon fill="url(#SVGID_3_)" points="1194.2,1080 1118.7,1 1089.9,1 1165.3,1080 			"/>
			<polyline opacity="0.3" enable-background="new    " points="1172.8,782 1144.3,782 1148.2,835 1177,835 			"/>
		</g>
		<g id="left_x5F_bar_1_">
			
				<linearGradient id="SVGID_4_" gradientUnits="userSpaceOnUse" x1="250.353" y1="947.7168" x2="250.353" y2="918.9219" gradientTransform="matrix(-6.980000e-002 0.9976 -0.9976 -6.980000e-002 1724.5042 355.3931)">
				<stop  offset="0" style="stop-color:#C78234"/>
				<stop  offset="7.300000e-002" style="stop-color:#C98537"/>
				<stop  offset="0.1281" style="stop-color:#CF8F40"/>
				<stop  offset="0.1772" style="stop-color:#D99F50"/>
				<stop  offset="0.1935" style="stop-color:#DDA657"/>
				<stop  offset="0.2384" style="stop-color:#DBA053"/>
				<stop  offset="0.2957" style="stop-color:#D69049"/>
				<stop  offset="0.3656" style="stop-color:#844F1F"/>
				<stop  offset="0.4054" style="stop-color:#975D25"/>
				<stop  offset="0.4731" style="stop-color:#B1712D"/>
				<stop  offset="0.5336" style="stop-color:#C17E32"/>
				<stop  offset="0.5806" style="stop-color:#C78234"/>
				<stop  offset="0.6026" style="stop-color:#D19243"/>
				<stop  offset="0.6315" style="stop-color:#D89D4F"/>
				<stop  offset="0.6721" style="stop-color:#DCA455"/>
				<stop  offset="0.7849" style="stop-color:#DDA657"/>
				<stop  offset="0.8254" style="stop-color:#C68D43"/>
				<stop  offset="0.9028" style="stop-color:#A06322"/>
				<stop  offset="0.9637" style="stop-color:#884A0E"/>
				<stop  offset="1" style="stop-color:#7F4006"/>
			</linearGradient>
			<polygon fill="url(#SVGID_4_)" points="752.6,1080 828.1,0 799.3,0 723.8,1080 			"/>
			<polyline opacity="0.3" enable-background="new    " points="744.4,783 773.4,783 769.7,836 740.4,836 			"/>
		</g>
		<g id="horz_x5F_bar_1_">
			
				<linearGradient id="SVGID_5_" gradientUnits="userSpaceOnUse" x1="-167.9995" y1="-1825" x2="-167.9995" y2="-1852.751" gradientTransform="matrix(1 0 0 1 1128 2628)">
				<stop  offset="0" style="stop-color:#42210B"/>
				<stop  offset="1.980000e-002" style="stop-color:#623C1B"/>
				<stop  offset="5.630000e-002" style="stop-color:#966934"/>
				<stop  offset="8.800000e-002" style="stop-color:#BD8A47"/>
				<stop  offset="0.1133" style="stop-color:#D49F53"/>
				<stop  offset="0.129" style="stop-color:#DDA657"/>
				<stop  offset="0.1819" style="stop-color:#AB7538"/>
				<stop  offset="0.2204" style="stop-color:#844F1F"/>
				<stop  offset="0.2782" style="stop-color:#A46729"/>
				<stop  offset="0.3362" style="stop-color:#BD7B31"/>
				<stop  offset="0.371" style="stop-color:#C78234"/>
				<stop  offset="0.4098" style="stop-color:#A36729"/>
				<stop  offset="0.442" style="stop-color:#8C5522"/>
				<stop  offset="0.4624" style="stop-color:#844F1F"/>
				<stop  offset="0.5208" style="stop-color:#864F1E"/>
				<stop  offset="0.5419" style="stop-color:#8D501C"/>
				<stop  offset="0.5568" style="stop-color:#985217"/>
				<stop  offset="0.5591" style="stop-color:#9B5216"/>
				<stop  offset="0.5973" style="stop-color:#B97130"/>
				<stop  offset="0.6332" style="stop-color:#CE8842"/>
				<stop  offset="0.6559" style="stop-color:#D69049"/>
				<stop  offset="0.6814" style="stop-color:#D38E48"/>
				<stop  offset="0.6988" style="stop-color:#CA8743"/>
				<stop  offset="0.7137" style="stop-color:#BB7B3B"/>
				<stop  offset="0.7272" style="stop-color:#A66A30"/>
				<stop  offset="0.7396" style="stop-color:#8A5422"/>
				<stop  offset="0.7419" style="stop-color:#844F1F"/>
				<stop  offset="0.8031" style="stop-color:#865120"/>
				<stop  offset="0.8323" style="stop-color:#8E5825"/>
				<stop  offset="0.8548" style="stop-color:#9B652D"/>
				<stop  offset="0.8737" style="stop-color:#AD7739"/>
				<stop  offset="0.8904" style="stop-color:#C58E48"/>
				<stop  offset="0.9032" style="stop-color:#DDA657"/>
				<stop  offset="1" style="stop-color:#844F1F"/>
			</linearGradient>
			<rect x="402.6" y="775.3" fill="url(#SVGID_5_)" width="1114.8" height="27.8"/>
		</g>
	</g>
</g>
<g id="canvas">
	<rect id="canvas_1_" x="352" y="90.3" fill="#F4EFD3" width="1216" height="684"/>
	<rect x="427.2" y="160.9" fill="none" width="1062" height="234.1"/>
	<text transform="matrix(1 0 0 1 430.1221 190.938)"><tspan x="0" y="0" font-family="'JosefinSans'" font-size="40">First times are always a big deal. Your first pencil box, first movie; </tspan><tspan x="189.7" y="50" font-family="'JosefinSans'" font-size="40">you remember what&apos;s that like, don&apos;t you?  </tspan><tspan x="140.8" y="119" font-family="'JosefinSans'" font-size="40">So how about you let us call you our first client?  </tspan><tspan x="373.1" y="169" font-family="'JosefinSans'" font-size="40">We&apos;d be honoured.</tspan></text>
	<g id="doodle">
		<g>
			<g>
				<path d="M756.9,670.6c10.7-0.5,23-1.2,27.1-12.9c1.9-5.6,1.7-12.1,1.8-18c0.1-6.7-0.3-13.5-1.8-20c-1.2-5.1-3.4-10.6-8-13.5
					c-5.6-3.6-13.9-2.1-20-1.4c-4.6,0.5-9.5,1.6-11.9,6c-2.3,4.2-2.6,9.5-3.2,14.2c-1.5,10.9-3,22.4-0.9,33.3
					c0.8,4,2.3,8.2,5.9,10.4C748.8,670.5,753.6,670.5,756.9,670.6c1.3,0,1.3-2.1,0-2.1c-3.9-0.1-9,0-11.8-3.2
					c-3.4-3.9-3.7-10.5-3.9-15.5c-0.4-10.8,0.9-22.3,3.2-33c0.5-2.5,1.2-5,2.9-6.9c2-2.2,5.4-2.7,8.2-3.1c6.7-1,16.5-2.5,21.8,2.8
					c4.7,4.7,5.6,13,6.2,19.3c0.5,6.2,0.5,12.4,0.1,18.7c-0.4,6.4-1.3,13.2-7.1,17c-5.5,3.6-13.1,3.6-19.4,3.8
					C755.6,668.6,755.6,670.7,756.9,670.6z"/>
			</g>
			<path d="M753.4,605c0-1.4,0-4.1,0-5.5c6.9-2.1,26.1-2.1,23.3,8.2L753.4,605z"/>
			<g>
				<path d="M745.7,662.2c-0.8-2.6,2.3-5.6,4.3-2.8c1.6,2.4-2.4,3.3-4.1,3.2c-1.3-0.1-1.3,2,0,2.1c1.9,0.1,3.8-0.4,5.4-1.6
					c1.7-1.4,1.4-3.6,0.1-5.2c-1.4-1.8-3.6-2.2-5.6-1c-1.9,1.2-2.7,3.7-2.1,5.8C744.1,664,746.1,663.5,745.7,662.2L745.7,662.2z"/>
			</g>
			<g>
				<path d="M754.4,654.2c-0.3-0.8-0.8-2.3,0.4-2.3c1.1,0,2.2,0.9,2.9,1.6c0.8,0.8,1,2-0.1,2.7c-1,0.7-2.2,0.2-2.1-1
					c0.1-1.3-1.9-1.3-2.1,0c-0.2,2.5,2,3.8,4.3,3.2c2.4-0.6,3.3-3.3,2.1-5.4c-1-1.8-3.2-3.1-5.2-3.2c-2.8-0.1-2.9,3-2.3,4.9
					C752.8,656,754.8,655.5,754.4,654.2L754.4,654.2z"/>
			</g>
			<g>
				<path d="M757.3,667c-0.8-1.4-0.6-3,0.3-4.3c1.1-1.6,3-1.4,4.5-0.6c1.5,0.8,0.8,1.5-0.4,2.2c-1.3,0.8-3,1.2-4.5,1.1
					c-1.3-0.1-1.3,2,0,2.1c2.3,0.1,4.9-0.7,6.7-2.1c1.8-1.5,1.5-3.5-0.4-4.8c-2.3-1.6-5.2-1.5-7.1,0.5c-1.8,1.9-2.1,4.9-0.8,7.1
					C756.2,669.2,758,668.1,757.3,667L757.3,667z"/>
			</g>
			<g>
				<path d="M763.2,658.1c-0.1-1.4,0.1-2.7,1.4-3.6c1.2-0.8,2.6,0,3.3,1.1c2.1,3.3-3.1,2.5-4.8,2.2c-1.3-0.2-1.9,1.8-0.5,2
					c2,0.3,4.4,0.8,6.2-0.1c2.3-1,1.9-3.6,0.7-5.4c-1.2-1.8-3.5-2.6-5.5-1.8c-2.2,0.9-3.2,3.3-2.9,5.6
					C761.3,659.4,763.3,659.5,763.2,658.1L763.2,658.1z"/>
			</g>
			<g>
				<path d="M774.5,656.1c-0.3-0.2-1.1-0.9-0.9-1.3c0.2-0.4,1-0.5,1.4-0.6c1.4-0.3,3.2,0.1,4.3,1.2c2.7,2.6-3.8,5.7-5.4,2.7
					c-0.6-1.2-2.4-0.1-1.8,1c2.7,5.1,12.9,0.4,8.9-4.9c-1.6-2.1-4.9-2.6-7.3-1.9c-2.8,0.8-2.7,3.4-0.8,5.2
					C774,658.4,775.5,657,774.5,656.1L774.5,656.1z"/>
			</g>
			<g>
				<path d="M745.7,651c-1-1.1-1.8-2.7-0.5-4c1.1-1,3-0.5,4,0.3c1,0.7,2.6,2.6,1.2,3.6c-1.3,1-3.2,1-4.8,0.9c-1.3-0.1-1.3,2,0,2.1
					c2.2,0.1,5.3-0.1,6.7-2.1c1.8-2.3-0.5-5.1-2.4-6.5c-1.9-1.3-4.7-1.2-6.5,0.3c-2.1,1.9-0.9,4.9,0.7,6.7
					C745.1,653.5,746.6,652,745.7,651L745.7,651z"/>
			</g>
			<g>
				<path d="M754.9,646.2c0-1.6,0.1-3.4,1-4.9c0.9-1.5,3.6,2.3,3.9,3.1c0.6,1.6-1.1,2.5-2.3,3c-1.7,0.6-3.6,0.6-5.4,0
					c-1.2-0.4-1.8,1.6-0.5,2c3.6,1.2,12.6-0.4,10-6.1c-1-2.1-3.8-5.4-6.5-4.1c-2.1,1-2.2,4.9-2.3,6.9
					C752.9,647.5,754.9,647.5,754.9,646.2L754.9,646.2z"/>
			</g>
			<g>
				<path d="M764.7,648.4c-0.3-1.3,0-2.7,0.7-3.8c0.8-1.4,2.1-1.1,3.2-0.3c1,0.7,1.3,2,0.6,3c-1,1.2-2.4,1-3.6,0.2
					c-1.1-0.7-2.1,1.1-1,1.8c1.9,1.2,4.4,1.2,6-0.5c1.6-1.7,1.3-4.2-0.3-5.7c-1.7-1.6-4.2-2-6-0.3c-1.6,1.5-2,4.3-1.6,6.3
					C763,650.2,765,649.7,764.7,648.4L764.7,648.4z"/>
			</g>
			<g>
				<path d="M774.4,649c0-1.6-0.4-7.5,2-7.6c2-0.1,4.2,2.3,3.2,4.3c-1,1.9-3.7,2.5-5.6,1.7c-1.2-0.5-1.8,1.5-0.6,2
					c2.8,1,6-0.1,7.8-2.5c2.1-2.7-0.2-5.8-2.7-7.1c-5.7-2.8-6.1,5.7-6.1,9.2C772.3,650.3,774.4,650.3,774.4,649L774.4,649z"/>
			</g>
		</g>
		<g>
			<g>
				<path d="M810.1,603.4c-12.2,3.2-14.1,16.8-14.2,27.5c-0.1,6.1,0.3,12.3,0.4,18.4c0.1,5.8,1.3,11.9,5.5,16.3
					c3.6,3.8,9.1,5.1,14,5.8c6.7,1,13.5,1.3,20.1,1.5c16.4,0.3,11.9-19.7,11.2-30.2c-0.7-10.3,1-22.3-6-31
					C833.8,602.7,821,601.3,810.1,603.4c-1.3,0.3-0.8,2.2,0.6,2c13.5-2.5,28.8,1.3,32.8,15.9c1.8,6.5,1.5,13.4,1.6,20.1
					c0.1,7.3,2.1,14.7,0.8,22c-1.6,9.3-11.7,7.6-18.7,7.1c-6.3-0.5-12.8-0.7-18.8-3c-6.5-2.5-9.2-8.7-9.9-15.2
					c-0.6-6.2-0.5-12.8-0.6-19c-0.1-10.3,0.7-24.8,12.7-27.9C812,605,811.4,603.1,810.1,603.4z"/>
			</g>
			<path d="M835.1,607.1c3.4-15.1-30.2-11.7-30.2-2.7L835.1,607.1z"/>
			<ellipse fill="#FFC011" cx="807.8" cy="660" rx="3.1" ry="3.4"/>
			<ellipse fill="#FFC011" cx="811.7" cy="665.5" rx="4.5" ry="3.4"/>
			<ellipse fill="#FFC011" cx="820.6" cy="666.4" rx="4" ry="3.4"/>
			<ellipse fill="#FFC011" cx="832.6" cy="665.5" rx="3.8" ry="4.2"/>
			<ellipse fill="#FFC011" cx="840" cy="664.7" rx="4" ry="3.8"/>
			<ellipse fill="#FFC011" cx="837.8" cy="656.6" rx="4.1" ry="4.7"/>
			<ellipse fill="#FFC011" cx="824.2" cy="660.7" rx="3.6" ry="4.1"/>
			<ellipse fill="#FFC011" cx="816.6" cy="661.3" rx="3.6" ry="3.4"/>
			<ellipse fill="#FFC011" cx="816.8" cy="655.8" rx="3.8" ry="3.8"/>
			<ellipse fill="#FFC011" cx="802.2" cy="656.2" rx="3.4" ry="3.9"/>
			<ellipse fill="#FFC011" cx="808.2" cy="652.8" rx="3.5" ry="4.3"/>
			<ellipse fill="#FFC011" cx="829.5" cy="658.3" rx="4.3" ry="4.7"/>
			<ellipse fill="#FFC011" cx="844.1" cy="654.6" rx="3.3" ry="4"/>
			<ellipse fill="#FFC011" cx="831.6" cy="651.3" rx="3.8" ry="4.4"/>
			<ellipse fill="#FFC011" cx="821.5" cy="650.2" rx="4.2" ry="4.1"/>
			<ellipse fill="#FFC011" cx="814.2" cy="650.2" rx="3.1" ry="3.8"/>
			<ellipse fill="#FFC011" cx="805.6" cy="647.3" rx="3.7" ry="3.3"/>
			<ellipse fill="#FFC011" cx="827.2" cy="646.2" rx="3" ry="3.8"/>
			<ellipse fill="#FFC011" cx="838.6" cy="649.7" rx="3.2" ry="2.7"/>
			<ellipse fill="#FFC011" cx="834.2" cy="644.4" rx="3" ry="3.4"/>
			<ellipse fill="#FFC011" cx="824.6" cy="642.5" rx="3.2" ry="3"/>
			<ellipse fill="#FFC011" cx="812.7" cy="644" rx="3.4" ry="3.5"/>
			<ellipse fill="#FFC011" cx="820" cy="644" rx="2.7" ry="3.1"/>
		</g>
		<g>
			<g>
				<path d="M1003.6,610.4c7.8-11.8,28.6-8.4,36,2.3c2.1,3.1,3,7.3,3.8,10.8c1.1,4.7,1.6,9.6,1.9,14.5c0.5,8.1,1.2,18.2-2.2,25.8
					c-3.2,6.9-10.7,8.9-17.7,9.3c-7.1,0.3-15.9,0.1-21.4-4.9c-4.6-4.3-4.9-11.6-4.9-17.5c0-5.5,0.3-10.9,0.5-16.4
					C999.7,626.5,999.9,617.3,1003.6,610.4c0.6-1.2-1.2-2.2-1.8-1c-4.9,9.4-4,21.3-4.4,31.6c-0.4,10.6-2.2,25,8.7,31.2
					c5.8,3.3,13.7,3.2,20.1,3c5.8-0.3,11.7-1.9,15.9-6.2c4.9-5.1,5.1-12.6,5.4-19.2c0.3-8.6-0.2-17.2-1.9-25.6
					c-1-5.1-2.5-10.7-6.1-14.7c-3.1-3.5-7.6-5.6-11.9-7c-9.1-2.8-20.2-1.3-25.7,7.1C1001,610.5,1002.8,611.5,1003.6,610.4z"/>
			</g>
			<path d="M1004.7,605c-5.5-13,32.3-15.1,29.5-1.4L1004.7,605z"/>
			<g>
				<path fill="#D10034" d="M1008.9,661.3c0.3-1.6,2.3-1.5,3.3-0.5c1.3,1.2,1.9,3.2,1,4.9c-1.6,3.2-6.6-0.8-4.3-2.9
					c1-1-0.5-2.4-1.4-1.4c-2,1.9-1.1,4.8,0.8,6.5c2.3,1.9,5.2,1.4,6.8-1c1.6-2.6,0.3-6.2-2-7.8c-2.1-1.6-5.6-0.8-6.1,2
					C1006.7,662,1008.7,662.6,1008.9,661.3L1008.9,661.3z"/>
			</g>
			<g>
				<path fill="#D10034" d="M1021.6,661.6c-0.8,2.2-1,4.5,1.1,6c1.6,1.2,4.1,1.4,5.8,0.1c1.4-1.2,1.4-3.9,0.9-5.4
					c-0.3-1-1.2-1.8-2.2-2.2c-1.1-0.5-2.5,0.1-3.5,0.4c-1.2,0.4-0.7,2.4,0.6,2c1.1-0.3,2.7-1,3.2,0.5c0.3,0.9,0.3,2.3-0.3,3.1
					c-0.7,0.9-2.5,0.3-3.2-0.1c-1.4-0.9-0.8-2.6-0.3-3.8C1024,660.9,1022,660.4,1021.6,661.6L1021.6,661.6z"/>
			</g>
			<g>
				<path fill="#D10034" d="M1015.2,654.8c-0.7-1.8,0.9-2.3,2.2-1.6c1.2,0.5,2.1,1.5,2.7,2.7c0.8,1.5-1.1,1.4-2.1,1.4
					c-0.5-0.1-1.1-0.2-1.6-0.3c-1-0.3-1.1-1-1.1-2c0.1-1.3-2-1.3-2.1,0c-0.1,2.8,1.8,4.1,4.4,4.4c2.4,0.3,5.1-0.5,4.5-3.4
					c-0.4-2.3-3.1-4.3-5.1-4.9c-2.7-0.9-4.9,2-4,4.5C1013.7,656.5,1015.7,656,1015.2,654.8L1015.2,654.8z"/>
			</g>
			<g>
				<path fill="#D10034" d="M1033.1,642.1c-2.5-1.2-5.1-0.5-6.6,1.8c-1.2,1.9-1.4,5,0.5,6.6c3,2.5,7.4,0.3,8.9-2.7
					c0.8-1.6,0.8-4-0.9-5.1c-1.6-1.2-3.6-1-5.5-1c-1.3,0-1.3,2.1,0,2.1c1.1,0,2.3-0.1,3.4,0.1c1.9,0.4,1.6,2.3,0.8,3.6
					c-0.9,1.6-4.3,3-5.7,1.1c-0.8-1.1-0.3-2.6,0.3-3.6c0.8-1.4,2.3-1.7,3.8-1C1033.2,644.4,1034.3,642.6,1033.1,642.1L1033.1,642.1z
					"/>
			</g>
			<g>
				<path fill="#D10034" d="M1034.9,658.5c-1,1.7-2.7,4.1-1.6,6.2c1.2,2.3,3.7,1.8,5.6,0.9c1.9-0.8,3.2-2.5,2.8-4.7
					c-0.3-2.1-2.1-3.8-4.3-3.6c-1.3,0.1-1.3,2.2,0,2.1c1.2-0.1,1.9,0.8,2.2,1.9c0.3,1.4-0.8,2.1-1.9,2.6c-1,0.5-2.7,1-2.9-0.5
					c-0.1-1.3,1-2.7,1.6-3.7C1037.4,658.5,1035.6,657.4,1034.9,658.5L1034.9,658.5z"/>
			</g>
			<g>
				<path fill="#D10034" d="M1016.5,641.2c-1.8-1.1-3.7-0.6-4.3,1.4c-0.6,1.9,0.4,4.1,2.1,5.1c2,1.1,5.3,1.1,6.5-1.2
					c1.2-2.1,0.3-6-2.2-6.7c-1.3-0.3-1.8,1.6-0.5,2c1.2,0.3,1.2,2.7,1,3.7c-0.3,1.3-2.8,0.8-3.6,0.4c-1.4-0.7-1.9-4.2,0.1-3
					C1016.6,643.7,1017.6,641.9,1016.5,641.2L1016.5,641.2z"/>
			</g>
			<g>
				<path fill="#D10034" d="M1006,649.8c-1.7-0.8-3.6-0.5-4.8,1.1c-1,1.4-1,3.2,0.3,4.4c1.5,1.5,4,1.1,5.5-0.2
					c1.7-1.4,1.6-3.8,0.3-5.4c-0.9-1-2.3,0.5-1.4,1.4c1.5,1.8-1.5,4.1-3,2.5c-0.5-0.5-0.2-1.2,0.1-1.6c0.5-0.7,1.4-0.8,2.1-0.5
					C1006.3,652.1,1007.3,650.4,1006,649.8L1006,649.8z"/>
			</g>
			<g>
				<path fill="#D10034" d="M1005.8,638.3c-2.9-1-5.3,1.9-5,4.7c0.2,2.8,3,4.5,5.6,4.6c2.8,0.1,5.1-2.6,4.4-5.4
					c-0.7-2.7-4-4.2-6.5-3.7c-1.3,0.2-0.8,2.2,0.5,2c1.4-0.2,3,0.5,3.7,1.7c1,1.4-0.2,3.2-1.8,3.4c-1.4,0.2-3-0.5-3.6-1.8
					c-0.8-1.5,0.3-4,2.2-3.4C1006.5,640.7,1007.1,638.7,1005.8,638.3L1005.8,638.3z"/>
			</g>
			<g>
				<path fill="#D10034" d="M1025.5,630.3c-3.1,0.1-4.6,3.6-3.2,6.3c1.4,2.8,5.1,4.2,8.1,3.7c3.6-0.5,3.9-4.8,2.6-7.5
					c-1.6-3.4-6.4-3.6-9.6-2.6c-1.3,0.3-0.8,2.3,0.5,2c1.9-0.5,4.7-0.8,6.3,0.4c1.6,1.3,2.3,4.7-0.1,5.6c-1.7,0.6-3.9-0.4-5.2-1.5
					c-1.2-1.1-1.7-4.3,0.5-4.3C1026.9,632.4,1026.9,630.3,1025.5,630.3L1025.5,630.3z"/>
			</g>
			<g>
				<path fill="#D10034" d="M1039.5,639.4c-2.7,1.3-3,4.6-1.9,7.1c1.2,2.8,4.9,3,7.3,1.6c5.4-3.2-1.2-10.9-6-8.4
					c-1.2,0.6-0.1,2.4,1,1.8c2.5-1.4,6.7,2.8,3.8,4.8c-1.5,1-3.6,0.8-4.5-0.9c-0.8-1.5-0.4-3.5,1.2-4.3
					C1041.7,640.6,1040.7,638.8,1039.5,639.4L1039.5,639.4z"/>
			</g>
			<g>
				<path fill="#D10034" d="M1029.5,651.6c-4.1,0.2-3.8,7.6-0.5,8.8c2.4,0.9,4.9-1,5.8-3.2c1.2-2.7-0.7-5.6-3.3-6.5
					c-1.2-0.5-1.8,1.5-0.5,2c1.6,0.5,2.4,2.1,2,3.7c-0.3,1.2-2,2.7-3.3,2.1c-1.2-0.5-1.8-4.7-0.1-4.7
					C1030.8,653.6,1030.8,651.5,1029.5,651.6L1029.5,651.6z"/>
			</g>
			<g>
				<path fill="#D10034" d="M1017.1,631.3c-1.9-0.1-3.8,0.8-4.3,2.7c-0.4,1.8,0.5,3.7,2,4.7c2,1.2,4.5,0.2,5.8-1.6
					c0.7-1,1-2.3,0.3-3.4c-0.8-1.1-2.2-1.5-3.4-1.8c-1.3-0.3-1.9,1.6-0.5,2c0.7,0.2,1.3,0.3,1.9,0.7c0.8,0.5-0.1,1.4-0.5,1.9
					c-0.8,0.8-2.1,0.9-2.9,0.1c-0.6-0.5-0.9-1.4-0.7-2.3c0.2-1,1.3-1.2,2.2-1C1018.4,633.4,1018.4,631.3,1017.1,631.3L1017.1,631.3z
					"/>
			</g>
			<g>
				<path fill="#D10034" d="M1006.9,628.5c-2.2-0.3-3.5,1.4-3.2,3.5s2.7,4,4.9,3.4c1.2-0.4,2-1.6,2.5-2.6c0.5-0.9,0.9-1.9,0.6-3
					c-0.3-1.1-1.5-1.6-2.5-1.7c-1.4-0.2-2.9,0.1-4.1,0.8c-1.2,0.6-0.1,2.4,1,1.8c0.6-0.3,1.3-0.5,2-0.5c0.3,0,0.7,0,1,0.1
					c0.1,0,0.3,0.1,0.4,0.1c0.1,0.1,0.3,0.2,0.2,0.1c0.1,0.3-0.2,0.9-0.3,1.2c-0.3,0.6-0.6,1.4-1.2,1.9c-0.9,0.6-2.1-0.7-2.4-1.5
					c-0.3-1,0.1-1.4,1.1-1.2c0.6,0.1,1-0.5,1-1C1008,628.9,1007.5,628.6,1006.9,628.5L1006.9,628.5z"/>
			</g>
			<g>
				<path fill="#4C0075" d="M1005.6,629.6c-1.4-1.7-5-1-5.4,1.2c-0.2,1.2,0.6,2.4,1.9,2.7c1.3,0.3,2.4-0.5,2.8-1.6
					c0.4-1.2-1.6-1.8-2-0.5c-0.1,0.5-0.8,0-0.6-0.3c0.4-0.5,1.4-0.7,1.9-0.1c0.3,0.4,1.1,0.3,1.4,0
					C1006,630.6,1005.9,630,1005.6,629.6L1005.6,629.6z"/>
			</g>
			<g>
				<path fill="#4C0075" d="M1010.9,631.5c0.1-0.1,0.2-0.3,0.3-0.5c-0.2,0.3,0.1-0.1,0.1-0.1c-0.3,0.2-0.1,0.1-0.1,0.1
					c0.1-0.1-0.3,0.1-0.1,0.1c0.2-0.1-0.3,0-0.1,0c0.3,0-0.2-0.1-0.1,0c0.1,0,0.3,0.1-0.1-0.1c0.1,0,0.1,0.1,0.1,0.1
					c0.1,0.1-0.2-0.2-0.1-0.1l0.1,0.1c0.1,0.1-0.1-0.2-0.1-0.1c0,0.1,0.1,0.1,0.1,0.1c0.1,0.1,0.2,0.5,0.1,0.1
					c0.1,0.1,0.1,0.2,0.1,0.3c0,0.1,0,0.1,0,0.1c0,0.1-0.1-0.3,0-0.1c0,0.1,0,0.1,0,0.3c0.1-0.4,0.1-0.2,0-0.1
					c-0.1,0.2,0.1-0.3,0.1-0.1c-0.1,0.1,0.2-0.3,0.1-0.1c0.2-0.2,0.1-0.1,0.3-0.2c-0.1,0.1,0.3,0,0.1,0c-0.2,0,0.3,0.1,0.1,0
					c-0.1,0-0.3-0.1,0.1,0.1c-0.1,0-0.1-0.1-0.1-0.1c-0.1-0.1-0.1-0.1-0.2-0.1c-0.2-0.1,0.1,0.1-0.1-0.1c-0.4-0.3-1-0.4-1.4,0
					c-0.3,0.3-0.4,1.1,0,1.4c0.8,0.7,1.8,1.2,2.7,0.4c0.6-0.5,0.6-1.5,0.3-2.1c-0.3-0.8-0.8-1.5-1.6-1.7c-1.1-0.3-2,0.5-2.5,1.4
					c-0.3,0.5-0.1,1.1,0.3,1.4C1010,632.2,1010.6,632,1010.9,631.5L1010.9,631.5z"/>
			</g>
			<g>
				<path fill="#4C0075" d="M1013.7,634.6c-2.1-1.1-4.6,1.4-3.3,3.4c0.6,1,1.8,1.4,2.7,0.6c0.7-0.5,1-1.6,1.2-2.4
					c0.3-1.3-1.6-1.9-2-0.5c-0.1,0.2-0.1,0.4-0.2,0.6c-0.1,0.1-0.1,0.3-0.1,0.4c0.1-0.1-0.1,0.1-0.1,0.2c-0.1,0.1-0.1,0.1-0.1,0.2
					c0.1-0.2-0.2,0.1,0.1-0.1c0.1-0.1,0.1-0.1,0.1,0c0.3,0,0.5,0,0.3,0c0.2,0.1,0.1,0.1,0-0.1c0.1,0.1-0.1-0.2-0.1-0.1
					c0.1,0.1,0.1,0.1,0-0.1c0,0.1,0,0.1,0,0c0,0.3,0.1-0.3,0,0c0-0.1,0.2-0.3,0.1-0.2c0,0,0.2-0.2,0.1-0.1c0.1,0,0.3-0.2,0.1-0.1
					c0.1,0,0.1,0,0.2-0.1c-0.1,0-0.1,0,0,0c-0.1,0-0.1,0,0,0c-0.1-0.1-0.1-0.1,0,0c0.5,0.3,1.1,0.1,1.4-0.3
					C1014.3,635.6,1014.2,634.9,1013.7,634.6L1013.7,634.6z"/>
			</g>
			<g>
				<path fill="#4C0075" d="M1020.9,632.9c-0.1-0.1-0.3-0.5-0.1-0.2c0-0.1,0-0.1,0,0.1c0-0.1-0.1,0.2-0.1,0.3
					c-0.1,0.1-0.1,0.1-0.1,0.1c-0.1,0-0.1,0.1-0.1,0.1c0.1-0.1,0.1-0.1-0.1,0.1c0.3-0.1-0.2,0,0.1,0c0.1,0,0.1,0,0.1,0
					c-0.3,0-0.1,0,0,0c0.1,0,0.1,0,0.1,0.1c0.3,0.1-0.2-0.1,0.1,0c0.1,0,0.4,0.3,0.2,0.1c0.1,0.1,0.2,0.2,0.3,0.3
					c0,0.1,0,0.1,0.1,0.1c0,0,0.1,0.3,0.1,0.1c0,0.1,0.1,0.1,0.1,0.2c0.1,0.3,0-0.2,0,0.1c0,0.1,0,0.1,0,0.2c0-0.3,0,0,0,0.1
					c0.1-0.1,0.1-0.1,0-0.1c-0.1,0.2,0.1-0.1,0,0c-0.1,0.1-0.1,0.1,0.1,0c-0.1,0.1-0.3,0.1,0,0c-0.1,0-0.1,0-0.1,0.1
					c0.3-0.1-0.1-0.1,0.2,0c-0.1,0-0.1,0-0.1-0.1c0.3,0.1-0.1-0.1,0.1,0.1c-0.1-0.1-0.1-0.1-0.1-0.1c0.1,0.1-0.1-0.1-0.1-0.1
					c-0.6-1.2-2.4-0.1-1.8,1c0.7,1.2,2.1,1.6,3.2,0.7s0.9-2.5,0.1-3.5c-0.7-1-1.9-1.5-3-1.4c-0.5,0.1-1,0.5-1.2,1
					c-0.2,0.5,0.1,1.2,0.3,1.6c0.3,0.5,0.9,0.7,1.4,0.3C1021,634,1021.2,633.3,1020.9,632.9L1020.9,632.9z"/>
			</g>
			<g>
				<path fill="#4C0075" d="M1033.2,635.6c0.1-0.3,0.1-0.4,0.6-0.2c0.5,0.2,0.8,0.6,1,1c0.1,0.1,0.1,0.2,0.1,0.4
					c-0.1,0.4-0.1,0.1,0.2,0.1c-0.3-0.1-0.6-0.6-0.7-0.9c-0.3-1.3-2.3-0.8-2,0.5c0.3,1.1,1.2,2.3,2.5,2.4c1.5,0.1,2.1-1.6,1.9-2.8
					c-0.3-2.3-4.1-4.3-5.4-1.6C1030.9,635.7,1032.7,636.8,1033.2,635.6L1033.2,635.6z"/>
			</g>
			<g>
				<path fill="#4C0075" d="M1040.4,640.7c0-1.6,0.2-4.5-2-4.6c-1.3-0.1-2.3,1.2-2.3,2.4c-0.1,1.1,0.3,2.3,1.2,3.1
					c1,0.9,2.5-0.5,1.4-1.4c-0.3-0.3-0.6-0.8-0.6-1.3c0-0.1,0-0.3,0.1-0.5c0.1-0.1,0.1-0.1,0.1-0.1c0.2-0.1,0,0-0.1-0.1
					c-0.2-0.1-0.1-0.1,0,0.1c0.1,0.3,0.1,0.5,0.1,0.8c0.1,0.5,0,1.1,0,1.6C1038.3,642,1040.4,642,1040.4,640.7L1040.4,640.7z"/>
			</g>
			<g>
				<path fill="#4C0075" d="M1041,647.8c-0.8,2.2,0.7,5.2,3.2,5.1c1.4,0,2.5-1,2.3-2.5c-0.2-1.2-1.5-2.2-2.5-2.5
					c-1.2-0.4-1.8,1.6-0.6,2c0.5,0.1,0.8,0.5,1.1,1c0.2,0.3-0.1,0.1,0.1-0.1c-0.2,0.1-0.5,0.1-0.8,0.1c-1-0.2-1.2-1.8-0.8-2.5
					C1043.5,647.1,1041.5,646.5,1041,647.8L1041,647.8z"/>
			</g>
			<g>
				<path fill="#4C0075" d="M1034.5,645.6c0.3-0.5,1.4-0.7,1.5,0.1c0,0.3-0.1,0.6-0.4,0.8c0,0,0,0-0.1,0c0.4,0,0.4,0.5,0.3,0
					c-0.1-0.5-0.8-0.8-1.2-0.7c-0.6,0.1-0.8,0.7-0.7,1.2c0.2,1.1,1.2,1.8,2.3,1.4c1.1-0.3,1.9-1.4,1.9-2.5c0.1-1.3-0.8-2.5-2.1-2.9
					c-1.3-0.3-2.6,0.3-3.3,1.4C1032,645.6,1033.8,646.7,1034.5,645.6L1034.5,645.6z"/>
			</g>
			<g>
				<path fill="#4C0075" d="M1028,645.7c-0.7-1.3-2.4-1.6-3.7-1.2c-1.4,0.4-2.1,1.9-1.8,3.2c0.7,2.6,4.9,2.3,6,0.2
					c0.6-1.2-1.2-2.2-1.8-1c-0.3,0.7-1.7,0.8-2.2,0.3c-0.1-0.1-0.1-0.1-0.1-0.3c0-0.3,0.1-0.3,0.3-0.4c0.4-0.2,1.2-0.2,1.4,0.3
					C1026.9,648,1028.6,646.9,1028,645.7L1028,645.7z"/>
			</g>
			<g>
				<path fill="#4C0075" d="M1034.1,654.2c0.3-0.2,0.6-0.4,0.8-0.5c-0.1,0,0.3-0.1,0.2-0.1c0.1,0,0.1,0,0.1,0
					c0.1,0.1,0.2,0.4,0.2,0.6c0-0.2,0.5,0.2,0.1-0.3c-0.9-1-2.3,0.5-1.4,1.4c0.8,0.9,1.9,1,2.8,0.3c0.9-0.8,0.7-2.1,0.3-3
					c-0.9-2-3.4-1-4.5,0C1031.7,653.6,1033.2,655,1034.1,654.2L1034.1,654.2z"/>
			</g>
			<g>
				<path fill="#4C0075" d="M1028.1,655.9c-0.3-0.8-1.1-1.2-1.9-1.3c-0.8-0.1-1.6,0.5-1.8,1.3s0.1,1.6,0.7,2.2
					c0.3,0.3,0.8,0.5,1.2,0.5c0.5,0.1,0.9-0.2,1.3-0.5c0.4-0.3,0.3-1.1,0-1.4c-0.4-0.4-1-0.3-1.4,0c0.1-0.1,0.1-0.1,0.2-0.1
					c0.1,0,0.1,0,0.1,0c-0.1,0-0.1,0,0.1,0c0.1,0.1,0.1,0.1,0.1,0c0.2,0.1,0.1,0,0,0c0.1,0.1,0.1,0.1,0,0c0-0.1-0.1-0.3-0.1-0.1
					c0-0.1-0.1-0.1-0.1-0.2c0.1,0.3,0,0,0-0.1c0,0.1,0,0.1-0.1,0.2l-0.1,0.1c0.1-0.1,0.1-0.1-0.1,0c-0.1,0-0.1,0-0.1,0.1
					c0.1,0,0.1,0-0.1,0c0.3,0-0.2-0.1,0,0c0.1,0.1,0.1,0,0,0c0.1,0,0.3,0.1,0.1,0c0,0,0.2,0.2,0.1,0.1c0.1,0.1,0.1,0.1,0.1,0.2
					c0.3,0.5,1,0.6,1.4,0.3C1028.3,657,1028.4,656.3,1028.1,655.9L1028.1,655.9z"/>
			</g>
			<g>
				<path fill="#4C0075" d="M1040.9,658.7c-0.1-0.1-0.3-0.5-0.3-0.8c0-0.3,0-0.3,0.1-0.5c0-0.1,0.1-0.2,0.1-0.2
					c0.2-0.1,0.3-0.1,0.4,0.1c0.1,0.3,0.1,0.5-0.1,0.6c-1.2,0.6-0.1,2.4,1,1.8c1.1-0.5,1.4-1.9,1-3c-0.4-1.2-1.5-1.7-2.7-1.6
					c-1.1,0.1-1.7,1.3-1.9,2.3c-0.1,1,0.2,2,0.9,2.7C1040.4,661.1,1041.8,659.6,1040.9,658.7L1040.9,658.7z"/>
			</g>
			<g>
				<path fill="#4C0075" d="M1035.2,663.8c-1-0.1-2.5,0.1-3,1.2c-0.4,1-0.1,1.9,0.6,2.7c0.5,0.6,1.4,1.2,2.3,1.1
					c1.4-0.1,1.9-1.2,2.1-2.5c0-0.1,0-0.1,0-0.2c0.1-0.5-0.5-1-1-1c-0.6,0-1,0.5-1,1c0,0.1,0,0.1,0,0.1c0,0.3,0.1-0.3,0,0
					c0,0.1-0.1,0.2-0.1,0.3s-0.1,0.4,0,0.1c0,0.1-0.1,0.1-0.1,0.2c-0.1,0.2,0.2-0.2,0,0c-0.2,0.2,0.1-0.1,0.1,0
					c-0.1,0.1-0.3,0.1,0.1,0c-0.1,0.1-0.3,0.1,0.1,0c-0.1,0-0.1,0-0.1,0c-0.2,0,0.3,0.1,0.1,0c-0.1,0-0.1,0-0.2-0.1
					c-0.2-0.1,0.3,0.1,0,0c-0.1-0.1-0.2-0.1-0.3-0.2c-0.1-0.1,0.2,0.2,0,0c-0.1-0.1-0.1-0.1-0.2-0.1c-0.1-0.1-0.1-0.1-0.1-0.1
					c-0.1-0.1,0.2,0.3,0,0c-0.1-0.1-0.3-0.5-0.1-0.1c-0.1-0.1-0.1-0.5-0.1-0.1c0-0.1,0-0.1,0-0.1c0-0.1-0.1,0.3,0,0.1v-0.1
					c-0.1,0.3-0.1,0.2,0,0.1c0.1-0.1-0.2,0.2,0,0.1c0.1-0.1-0.3,0.1,0,0c0.3-0.1-0.2,0.1,0,0c0.1,0,0.1-0.1,0.3-0.1
					c0.3-0.1-0.2,0,0.1,0c0.3,0,0.5,0,0.8,0c0.5,0.1,1-0.5,1-1C1036.2,664.3,1035.7,663.9,1035.2,663.8L1035.2,663.8z"/>
			</g>
			<g>
				<path fill="#4C0075" d="M1029.2,664.1c0.1-0.3,0.3-0.6,0.5-0.9c0.1-0.1,0.1-0.1,0,0c0.1-0.1,0.1-0.1,0.2-0.2
					c0.1-0.1,0.1-0.1,0,0c0.1-0.1,0.3-0.1,0,0c0.1,0,0.1,0,0.1-0.1c0.2-0.1-0.3,0-0.1,0c0.1,0,0.1,0-0.1,0c0.1,0,0.3,0.1-0.1,0
					c0,0,0.1,0,0.1,0.1c0.2,0.1-0.2-0.1,0,0c0.1,0.1,0.3,0.3,0.1,0.1c0.1,0.1,0.1,0.1,0.1,0.2c0,0.1,0.1,0.1,0.1,0.1
					c0.1,0.2-0.1-0.2,0,0c0.1,0.1,0.1,0.2,0.1,0.3c0.1,0.3,0-0.2,0,0.1c0,0.1,0,0.1,0,0.1c0,0.2,0.1-0.3,0-0.1c0,0.1,0,0.1,0,0.1
					c-0.1,0.2,0.1-0.2,0-0.1c-0.1,0.1,0,0.1,0.1-0.1c-0.1,0.1-0.2,0.1,0.1,0c-0.1,0.1-0.1,0.1,0.1-0.1c-0.1,0-0.1,0-0.1,0.1
					c-0.6,0.1-0.8,0.8-0.7,1.2c0.1,0.5,0.7,0.8,1.2,0.7c1.9-0.3,1.6-2.9,0.7-4c-0.5-0.6-1.3-1-2.1-0.8c-1.2,0.3-1.7,1.6-2.1,2.6
					c-0.2,0.5,0.2,1.1,0.7,1.2C1028.5,665,1029,664.6,1029.2,664.1L1029.2,664.1z"/>
			</g>
			<g>
				<path fill="#4C0075" d="M1022.8,665.8c-0.9-2.6-5.6-3.1-5.7,0.3c-0.1,1.4,1.3,2.5,2.6,2.6c1.4,0.1,2.7-0.6,3.2-1.9
					c0.2-0.5-0.2-1.1-0.7-1.2c-0.6-0.1-1,0.2-1.2,0.7c-0.3,0.6-1.7,0.6-1.8-0.1c-0.1-0.8,1.5-0.2,1.6,0.3
					C1021.3,667.6,1023.3,667,1022.8,665.8L1022.8,665.8z"/>
			</g>
			<g>
				<path fill="#4C0075" d="M1015.2,662.8c0.2-0.4,1-1.5,1.4-1.2c0.1,0.1,0.3,0.7,0.2,0.9c-0.3,0.3-0.8,0.3-1.2,0.3
					c-1.3,0.1-1.3,2.1,0,2.1c1-0.1,2.2-0.3,2.8-1.3c0.6-1,0.5-2.3-0.2-3.2c-1.4-2-4.1-0.5-4.9,1.2c-0.2,0.5-0.1,1.1,0.3,1.4
					C1014.2,663.4,1014.9,663.3,1015.2,662.8L1015.2,662.8z"/>
			</g>
			<g>
				<path fill="#4C0075" d="M1008.7,663.5c-0.8-1.9-4.9-4.3-6.1-1.4c-1.2,2.9,3,3.8,4.9,3.1c1.2-0.4,0.7-2.4-0.6-2
					c-0.4,0.1-2.5,0.3-2.5-0.3c0-0.1,0.1-0.1,0.1-0.2c-0.1,0.1-0.2,0.1,0,0.1c0.2-0.1,0.5,0.1,0.8,0.2c0.4,0.2,1.2,0.7,1.4,1
					c0.2,0.5,0.7,0.9,1.2,0.7C1008.5,664.6,1008.9,664,1008.7,663.5L1008.7,663.5z"/>
			</g>
			<g>
				<path fill="#4C0075" d="M1015.4,653.4c-1.2-0.4-2.3-1.2-3.7-1c-1.4,0.1-2.3,1.3-2.3,2.6c0,1.1,0.8,2.1,1.9,2.3
					c1.2,0.3,2.2-0.6,2.5-1.7c0.4-1.2-1.6-1.8-2-0.5c-0.1,0.2-0.3,0.3-0.1,0.2c0.1,0,0,0-0.1,0c-0.3-0.2-0.2-0.4,0-0.7
					c0.5-0.7,2.6,0.5,3.3,0.8C1016.1,655.8,1016.7,653.8,1015.4,653.4L1015.4,653.4z"/>
			</g>
			<g>
				<path fill="#4C0075" d="M1022,653.8C1022,653.7,1022,653.5,1022,653.8c-0.1,0.2-0.2,0.5-0.5,0.6c-0.2,0.1-0.1,0,0.1,0s0.1,0,0,0
					c0.1,0,0.1,0,0.2,0.1c0.1,0,0.2,0.1,0.3,0.1c0.3,0.1-0.1-0.1,0.1,0.1c0.1,0,0.3,0.2,0.1,0c0.1,0.1,0.1,0.1,0,0
					c0.1,0.1,0.1,0.1,0.1,0.1s0.1,0.3,0.1,0.1c0.1,0.1,0.1,0.2,0.1,0.3c0.1,0.3,0-0.2,0,0.1c0,0.1,0,0.4,0,0.2
					c0,0.1-0.1,0.2-0.1,0.3c0.1-0.2-0.1,0.1,0.1-0.1c0.1-0.1-0.1,0,0.1-0.1c0.1-0.1-0.2,0-0.3,0c-0.5-0.1-1,0.5-1,1c0,0.6,0.5,1,1,1
					c2.3,0.3,2.7-2.7,1.6-4.2c-0.5-0.8-1.5-1-2.4-1.1c-1.1-0.1-2,0.9-1.6,2c0.2,0.5,0.7,0.9,1.2,0.7
					C1021.8,654.9,1022.3,654.3,1022,653.8L1022,653.8z"/>
			</g>
			<g>
				<path fill="#4C0075" d="M1007.8,651.3c0-0.5,0.7-2,1.4-1.4c0.3,0.3,0.3,0.6,0.2,0.8c0,0-0.1,0.1-0.1,0.1c0,0,0.2,0-0.1,0
					c-0.1,0-0.3-0.1-0.3-0.1c-1.2-0.5-1.8,1.5-0.5,2c1.1,0.4,2.2,0,2.7-1c0.6-1,0.3-2.3-0.5-3.2c-0.8-1-2.3-1-3.4-0.4
					c-1,0.6-1.7,1.9-1.7,3.2C1005.7,652.6,1007.8,652.6,1007.8,651.3L1007.8,651.3z"/>
			</g>
			<g>
				<path fill="#4C0075" d="M1001.4,654.3c-1.2,0.4-1.8,1.2-1.6,2.5c0.1,1,1,1.8,1.8,2.3c0.9,0.5,2.1,0.4,2.9-0.1
					c1.2-0.7,1-2,0.1-2.9c-1-1-2.4,0.5-1.4,1.4c0.3,0.3,0-0.1,0.2-0.3c0.1-0.1,0.1-0.1-0.1,0c0.1-0.1-0.2,0.1-0.2,0.1
					c-0.3,0.1-0.4,0-0.7-0.2c-0.2-0.1-0.5-0.5-0.5-0.6c0-0.1-0.1-0.1-0.1-0.2c0,0.1,0,0.2,0,0c-0.1,0.1-0.1,0.1,0.1,0
					c0.5-0.2,0.9-0.7,0.7-1.2C1002.5,654.6,1001.9,654.1,1001.4,654.3L1001.4,654.3z"/>
			</g>
			<g>
				<path fill="#4C0075" d="M1004.5,639.4c0.2-1.6,0.3-2.9-1.1-4c-1.1-0.8-3-0.9-4.2-0.3c-1.4,0.7-1.5,2.5-0.8,3.7
					c0.7,1.2,2.1,2.1,3.5,2.1c1.3,0,1.3-2.1,0-2.1c-0.6,0-1.2-0.4-1.6-0.8c-0.2-0.2-0.7-1-0.3-1.1c0.6-0.2,1.4-0.1,1.9,0.1
					c0.8,0.3,0.5,1.2,0.4,1.8C1002.3,640.2,1004.3,640.8,1004.5,639.4L1004.5,639.4z"/>
			</g>
			<g>
				<path fill="#4C0075" d="M1009.8,646.5c0.8-0.4,2.8-0.4,3.6,0.2c0.3,0.2-0.3,0.3-0.5,0.4c-0.3,0-1.7,0-1.7-0.4
					c0-1.3-2.1-1.3-2.1,0c0.1,3.2,6.2,3.5,6.5,0.2c0.2-3-4.9-3.2-6.7-2.2C1007.5,645.4,1008.6,647.2,1009.8,646.5L1009.8,646.5z"/>
			</g>
			<g>
				<path fill="#4C0075" d="M1020.6,642.1c0-0.2,0.1-0.4,0.1-0.5c0.1-0.2-0.1,0.2,0,0c0.1-0.3-0.1,0.1,0,0c0.1-0.1,0.2-0.1-0.1,0.1
					c0.2-0.1-0.2,0.1-0.1,0c0.2-0.1-0.3,0-0.1,0c0.3,0-0.2-0.1-0.1,0c0.3,0.1-0.1-0.1,0.1,0.1c0.1,0,0.1,0.1,0.1,0.1
					c0.2,0.1-0.1-0.1,0,0c0.1,0.1,0.2,0.2,0.3,0.3c0.1,0.1,0.1,0.1,0.1,0.1c-0.2-0.2,0,0,0.1,0.1c0.1,0.1,0.1,0.3,0.2,0.4
					c0,0.1,0.1,0.3,0,0c0,0.1,0.1,0.1,0.1,0.2c0,0.1,0,0.1,0.1,0.2c0.1,0.3,0-0.1,0,0c0,0.1,0,0.1,0,0.1c0,0.2,0.1-0.3,0,0
					c0,0.1-0.1,0.3,0-0.1c-0.1,0.1-0.2,0.3,0,0c-0.1,0.1-0.1,0.1-0.1,0.1c0.2-0.2,0-0.1-0.1,0c0.3-0.1-0.4,0.1-0.1,0
					c-0.2,0-0.5,0-0.7,0c-1.3-0.1-1.3,2,0,2.1c1.2,0.1,2.4-0.3,2.9-1.5c0.3-0.9-0.1-2-0.6-2.7c-0.6-0.8-1.4-1.5-2.3-1.6
					c-1.2-0.1-1.9,1-2.1,2c-0.1,0.5,0.1,1.1,0.7,1.2C1019.8,643,1020.5,642.7,1020.6,642.1L1020.6,642.1z"/>
			</g>
		</g>
		<g>
			<g>
				<path d="M1056.6,613.3c0,10.2-0.3,20.5-0.3,30.8c0.1,7.1-0.7,15.4,2.4,22c1.7,3.8,5.5,5,9.3,5.4c6.4,0.5,12.9-0.3,19.4,0.1
					c5.6,0.3,10.8-0.8,12.8-6.7c1.9-5.9,0.1-13.5-0.3-19.6c-0.6-9.2-0.6-18.3-1.9-27.5c-0.5-4.2-1.3-8.8-5.6-10.8
					c-2.6-1.2-5.7-1.4-8.5-1.6c-5.7-0.4-11.3-1.1-17-0.8c-1.9,0.1-4.7,0.1-6.5,1c-2.7,1.3-3.4,4.7-3.8,7.3c-0.2,1.3,1.8,1.9,2,0.5
					c0.3-1.7,0.8-6.2,3.4-6.2c0.7,0,3.6-0.5,4.9-0.6c2.8-0.3,5.6-0.1,8.4,0c4.3,0.3,8.7,0.5,13,1.2c2.5,0.4,4.7,1.2,6,3.4
					c1.4,2.4,1.5,5.6,1.9,8.3c0.6,5.3,1,10.6,1.4,16c0.5,7.6,1,15.4,1.2,23c0.1,3.6-0.3,7.1-3.4,9.5c-2.8,2.1-7.4,1.2-10.7,1.1
					c-6.1-0.3-12.4,0.9-18.5-0.1c-6.3-1.1-7.1-7.7-7.4-13c-0.6-10-0.3-20.1-0.2-30.1c0.1-4.3,0.1-8.5,0.1-12.8
					C1058.6,612,1056.6,612,1056.6,613.3z"/>
			</g>
			<path d="M1063.7,606.5c-0.8-1.9-0.8-4.5-1.5-6.4c11.5-5.7,29.3-6.4,28.5,7L1063.7,606.5z"/>
			<g>
				<path fill="#FF8390" d="M1063.2,632c0.9,6.1,0.7,11.7,0.4,17.9c-0.1,2.4,0.3,4.5,1.1,6.8c0.9,2.6,0.4,5.3,1,7.9
					c0.3,1.3,2.3,0.8,2-0.5c-0.6-2.7-0.1-5.2-1-7.9c-1-3-1.2-5.6-0.9-8.6c0.4-5.5,0.2-10.6-0.6-16.1
					C1065,630.1,1063,630.7,1063.2,632L1063.2,632z"/>
			</g>
			<g>
				<path fill="#FFFF22" d="M1065.9,626.7c1,7.2,0.8,14.6,1.2,21.8c0.4,6.2-0.3,12.5,0.8,18.7c0.2,1.3,2.2,0.8,2-0.5
					c-1.2-6.9-0.4-13.8-0.9-20.7c-0.5-6.6-0.2-13.3-1.2-19.8C1067.7,624.9,1065.7,625.4,1065.9,626.7L1065.9,626.7z"/>
			</g>
			<g>
				<path fill="#FFFF22" d="M1059.8,629.3c0,6.5,0.1,12.8,0.6,19.2c0.3,3.3,1,6.6,1.2,9.9c0.2,2.8,0.2,5.6,0.8,8.4
					c0.2,1.3,2.2,0.8,2-0.5c-0.5-3-0.5-6-0.8-9.1c-0.2-2.9-0.8-5.8-1.1-8.7c-0.7-6.4-0.6-12.8-0.6-19.2
					C1061.9,628,1059.8,628,1059.8,629.3L1059.8,629.3z"/>
			</g>
			<g>
				<path fill="#FF8390" d="M1071.1,626.3c0.1,6.9,0.5,13.9,0.3,20.8c-0.1,3.5-0.7,6.9-0.9,10.4c-0.2,3.2-0.8,6.6-0.6,9.8
					c0.1,1.3,2.2,1.3,2.1,0c-0.3-3.1,0.5-6.6,0.5-9.8c0.1-3.5,0.8-6.9,0.9-10.4c0.3-6.9-0.3-13.9-0.3-20.8
					C1073.2,625,1071.1,625,1071.1,626.3L1071.1,626.3z"/>
			</g>
			<g>
				<path fill="#FF8390" d="M1075.8,626.1c0,6.8-0.1,13.7-0.8,20.5c-0.4,3.8-1.3,7.4-1.9,11.2c-0.5,3.5-0.4,7.1-0.4,10.7
					c0,1.3,2.1,1.3,2.1,0c0-3.8-0.1-7.7,0.6-11.5c0.5-3.1,1.2-6.1,1.6-9.2c1-7.2,0.9-14.5,0.9-21.7
					C1077.9,624.8,1075.8,624.8,1075.8,626.1L1075.8,626.1z"/>
			</g>
			<g>
				<path fill="#FFFF22" d="M1080.5,626.3c0,6.9,0,13.9-0.7,20.8c-0.8,7.1-3.2,13.9-2.8,21.2c0.1,1.3,2.1,1.3,2.1,0
					c-0.3-6.8,1.8-13.3,2.7-19.9c1-7.3,0.8-14.8,0.8-22.1C1082.5,625,1080.5,625,1080.5,626.3L1080.5,626.3z"/>
			</g>
			<g>
				<path fill="#FFFF22" d="M1085.6,625.1c0.1,7.2-1.4,14.2-2.8,21.3c-1.2,6.4-1.9,12.8-1.9,19.2c0,1.3,2.1,1.3,2.1,0
					c0.1-7.2,1-14.1,2.3-21.2c1.2-6.4,2.5-12.8,2.4-19.3C1087.6,623.7,1085.5,623.7,1085.6,625.1L1085.6,625.1z"/>
			</g>
			<g>
				<path fill="#FFFF22" d="M1091.4,624.8c1,7.6,1.8,15,1.6,22.7c-0.1,3.6-0.3,7.3-0.7,10.8c-0.3,2.9-0.8,5.9,0.3,8.7
					c0.5,1.2,2.5,0.7,2-0.5c-1-2.5-0.6-5.4-0.3-8.1c0.4-3.6,0.6-7.2,0.7-10.8c0.2-7.7-0.6-15-1.6-22.7
					C1093.3,623.4,1091.2,623.4,1091.4,624.8L1091.4,624.8z"/>
			</g>
			<g>
				<path fill="#FF8390" d="M1088,622c0.1,4.2,0.4,8.4,0.5,12.6c0.1,4.8-1.2,9.5-2,14.3c-1.2,6.5-3.3,13.3-0.5,19.8
					c0.5,1.2,2.3,0.1,1.8-1c-2.8-6.7,0.1-15,1.4-21.8c0.7-3.7,1.4-7.4,1.4-11.2c0.1-4.2-0.4-8.4-0.5-12.6
					C1090,620.6,1087.9,620.6,1088,622L1088,622z"/>
			</g>
		</g>
		<g>
			<g>
				<path d="M881,575.2c5.8-2.7,5.8-8.6,4-14c-1.1-3.2-2.9-6-4.1-9.1c-1-2.4,1.6-2.4,3.2-3.7c8.2-6.7,1.3-16.2-2.7-23.3
					c-1.7-3.1-5.2-8.5-2.3-11.9c1.8-2.1,5.4-2.7,8-3c3.4-0.3,6.6,1.4,10,1.7c7,0.7,13.2-7,19.2-9.5c7.3-3.1,15.9,0.5,21.5,5.4
					c10.6,9,14.6,24.7,13.5,38c-1,11.7-7.6,26-20.8,27.1c-11.1,1-21.3-7.3-26.9-16.1c-3.3-5.1-5.3-11-5.7-17
					c-0.6-8.4,2.7-16.1,7.5-22.8c6.8-9.5,20.7-20.8,32.5-13.1c8.2,5.4,9.7,17.5,19.2,20.9c4.3,1.6,9.1,1.4,13.3,3.6
					c6.5,3.4,1.2,11.4-2.5,14.6c-3.4,2.9-7.3,6-7.5,10.8c-0.2,5.1,3.8,8.7,4.3,13.6c0.1,1.3,2.2,1.3,2.1,0c-0.3-3-1.6-5.4-3-8.1
					c-2.4-4.6-1.2-8.8,2.5-12.3c4.3-4.2,10.3-8,8.9-15c-1.2-6.3-8.3-7.1-13.5-8.1c-3-0.5-5.7-1.3-8-3.4c-3.2-2.7-4.8-7-7.1-10.4
					c-3.4-5.1-8.4-10.1-14.8-10.8c-7.7-0.9-14.8,3.4-20.4,8.2c-11.3,9.5-18,24.1-14.6,38.8c4.3,17.9,27.2,38.1,45,24.2
					c9.6-7.5,12.4-22,11.5-33.5c-1-12.5-6.5-25.3-16.8-32.8c-5.2-3.8-12-5.8-18.4-4.6c-7.6,1.4-12.8,9.7-20.5,10.2
					c-2.9,0.2-5.8-1.4-8.7-1.7c-3-0.3-6.2,0.5-8.9,1.7c-3.4,1.5-4.6,4.7-4,8.2c0.8,4.4,3.6,8.4,5.8,12.2c2.1,3.7,5.1,8.5,3.6,12.9
					c-0.8,2.4-3.3,4.1-5.4,5.1c-1.2,0.5-2,1.5-1.7,3c1.1,6.4,7.3,11.7,5.2,18.7c-0.6,1.8-2.2,2.8-3.8,3.6
					C878.7,574.1,879.8,575.8,881,575.2L881,575.2z"/>
			</g>
			<g>
				<path d="M906.3,535.1c1.3-1.6,2.8-3.2,4.1-4.8c-0.3,0.1-0.7,0.2-1,0.3c1.3,0.4,2.2,1.4,2.8,2.6c0.6,1.2,2.4,0.1,1.8-1
					c-0.9-1.6-2.3-3-4.1-3.6c-0.3-0.1-0.8,0-1,0.3c-1.3,1.6-2.8,3.2-4.1,4.8C903.9,534.6,905.4,536.1,906.3,535.1L906.3,535.1z"/>
			</g>
			<g>
				<path d="M931.1,532.8c0.7-1.6,1.8-4.1,3.8-4.3c2-0.2,3.4,2.5,4.1,4c0.6,1.2,2.3,0.1,1.8-1c-1.2-2.3-2.7-4.7-5.6-4.9
					c-3-0.3-4.9,3.1-5.8,5.3C928.8,532.9,930.6,534,931.1,532.8L931.1,532.8z"/>
			</g>
			<g>
				<path d="M909.8,552c4.9,6.3,8.2,15.7,18,14.2c3.6-0.5,7.6-1.5,9.9-4.6c2.3-3,2.5-6.9,2.5-10.5c0-1.3-2.1-1.3-2.1,0
					c0,3.1-0.2,6.3-1.9,9c-1.9,3-6.5,3.9-9.8,4.1c-8,0.6-10.9-8-14.9-13.3C910.7,549.9,909,550.9,909.8,552L909.8,552z"/>
			</g>
			<g>
				<path d="M921.7,574.5c-17,0.7-16.3,25.5-15.8,37.4c0.8,17.2,4.1,34.4,8.2,51.2c0.3,1.3,2.3,0.8,2-0.5
					c-3.6-15.2-6.6-30.7-7.8-46.3c-0.7-8.7-0.9-17.8,1.1-26.4c1.5-6.5,5.1-12.9,12.4-13.2C923,576.5,923,574.4,921.7,574.5
					L921.7,574.5z"/>
			</g>
			<g>
				<path d="M936.9,573.7c6,3.1,8.3,9.9,9.4,16.1c1.6,8.7,1,17.7,0.3,26.4c-0.8,9-2.1,17.9-3.5,26.8c-1,6.5-2.2,13-2.5,19.6
					c-0.1,1.3,2,1.3,2.1,0c0.3-7.1,1.7-14.2,2.7-21.2c1.4-9.4,2.8-18.9,3.5-28.4c0.6-8.5,0.8-17.3-1-25.7c-1.3-6.2-4.1-12.5-10-15.5
					C936.8,571.3,935.7,573,936.9,573.7L936.9,573.7z"/>
			</g>
			<g>
				<path d="M906.8,584.6c-8.5,10.8-10.2,25.1-8.2,38.4c1.9,13,9.2,26,8.1,39.4c-0.1,1.3,1.9,1.3,2.1,0c1-11.9-4.8-23.5-7.3-35
					c-3-13.9-2.3-29.9,6.8-41.4C909,585.1,907.6,583.6,906.8,584.6L906.8,584.6z"/>
			</g>
			<g>
				<path d="M943.8,581.3c6,1,8.9,7.2,10.6,12.4c2.1,6.5,2.9,13.4,3.2,20.1c0.3,6.6-0.2,12.4-2.3,18.7c-3.2,9.3-8.2,18.6-7.6,28.8
					c0.1,1.3,2.1,1.3,2.1,0c-0.6-11,5.4-21.1,8.5-31.3c1.9-6.1,1.6-12.6,1.2-19c-0.5-7.1-1.6-14.4-4.3-21.1
					c-2-4.8-5.4-9.8-10.8-10.6C943.1,579.2,942.5,581.1,943.8,581.3L943.8,581.3z"/>
			</g>
		</g>
		<g>
			<path d="M1127.2,608c-1.5-14.8,28.6-8.1,27.7,0.4L1127.2,608z"/>
			<g>
				<path fill="#54FF9E" d="M1121.5,667.5c0.8-1.9,1.8-3.8,2.7-5.6c0.8-1.7,1.4-3.7,2.8-5.1c-0.5-0.1-1.1-0.1-1.6-0.2
					c1.3,1.9,1.9,4.5,2.3,6.7c0.2,1.1,0.8,3.3-0.8,3.5c-1.6,0.2-3.6-0.6-5.2-0.8c-1.3-0.1-1.3,1.9,0,2.1c3.4,0.4,8.1,2.3,8.3-2.7
					c0.1-3.1-1.1-7.2-2.8-9.8c-0.3-0.5-1.1-0.7-1.6-0.2c-1.2,1.2-1.9,2.9-2.6,4.5c-1,2.3-2.3,4.4-3.2,6.7
					C1119.1,667.7,1120.9,668.7,1121.5,667.5L1121.5,667.5z"/>
			</g>
			<g>
				<path fill="#54FF9E" d="M1132.8,668.1c2.1-3,2.2-6.8,3.2-10.2c-0.5,0.2-1,0.4-1.5,0.6c1.5,1.2,2.1,3.6,2.9,5.3
					c0.5,1.2,1.4,2.1,1.9,3.2c0,0.5,0.1,0.5,0.3,0.3c-0.3,0.2-0.8,0.2-1.2,0.3c-0.8,0.1-1.5,0.1-2.3,0c-1.4-0.1-2.8-0.3-4.3-0.3
					c-1.3,0-1.3,2.1,0,2.1c1.6,0.1,9.8,1.6,9.7-1.6c-0.1-1.6-1.3-3.3-2.3-4.6c-0.7-1-1-2.5-1.6-3.6c-0.5-1.2-1.2-2.1-2.3-2.9
					c-0.6-0.4-1.4,0.1-1.5,0.6c-1,3.2-1,6.9-3,9.7C1130.3,668.2,1132,669.2,1132.8,668.1L1132.8,668.1z"/>
			</g>
			<g>
				<path fill="#54FF9E" d="M1143.6,667c0-3.2-0.3-6.4,0.3-9.5c-0.5,0.1-1.2,0.3-1.7,0.5c1.4,1.4,2.6,3,3.6,4.7
					c0.5,0.9,1.3,2.2,0.1,2.9c-0.8,0.4-1.9,0.5-2.7,0.9c-1.2,0.5-0.7,2.5,0.5,2c2.3-0.9,5.4-1.2,4.9-4.4c-0.4-2.8-3.2-5.5-5-7.5
					c-0.5-0.5-1.6-0.3-1.7,0.5c-0.6,3.4-0.4,6.7-0.4,10.1C1141.5,668.3,1143.6,668.3,1143.6,667L1143.6,667z"/>
			</g>
			<g>
				<path fill="#54FF9E" d="M1133.6,652.5c3,1.3,2.9,5.8,5.6,7.7c0.4,0.3,1.2,0.1,1.4-0.3c0.7-1.4,1.2-3,1.6-4.5
					c0.5-1.6,1-3.4,0.9-5.1c-0.1-1.5-1.4-1.9-2.7-1.6c-1,0.2-2.1,0.5-3.1,0.8c-1.4,0.3-3,0.4-4.5,0.8c-1.3,0.3-0.8,2.3,0.5,2
					c1.8-0.5,3.6-0.6,5.5-1.1c0.7-0.2,1.4-0.4,2.2-0.5c0.7-0.1,0-0.3,0-0.2c0,0.3,0,0.5-0.1,0.8c-0.2,2.5-1,5.4-2.1,7.6
					c0.5-0.1,1-0.3,1.4-0.3c-2.7-1.9-2.3-6.2-5.6-7.7C1133.5,650.2,1132.5,651.9,1133.6,652.5L1133.6,652.5z"/>
			</g>
			<g>
				<path fill="#54FF9E" d="M1149.5,659.8c-0.3-2-1.4-3.8-2.2-5.7c-0.2-0.5-0.3-1-0.5-1.4c-0.1-0.2-0.1-0.4-0.1-0.6
					c0-0.5-0.5,0.1-0.1-0.1c0.9-0.2,2-0.1,3-0.1c1,0,1.9,0,2.9,0.1c0.3,0.1,0.2,0.1-0.2-0.1c0.1,0.2,0.1,0.3,0,0.5
					c-0.1,0.6-0.3,1.2-0.6,1.8c-1,2-2.3,3.8-3.5,5.6c-0.7,1.2,1.1,2.2,1.8,1c1.5-2.5,3.4-4.7,4.3-7.6c0.2-0.8,0.3-2.3-0.5-2.9
					c-0.8-0.6-2.1-0.5-3-0.5c-1.7-0.1-5.5-0.6-6,1.7c-0.6,3,2.4,5.6,2.7,8.3C1147.6,661.1,1149.7,661.1,1149.5,659.8L1149.5,659.8z"
					/>
			</g>
			<g>
				<path fill="#54FF9E" d="M1152,665.2c2-1.7,2.7-4.4,4.3-6.4c-0.5-0.1-1.2-0.3-1.7-0.5c0.3,1.4,0.5,2.9,0.4,4.3
					c0,0.7-1.1,0.6-1.7,0.7c-0.8,0.1-1.6,0.2-2.3,0.6c-1.2,0.6-0.1,2.4,1,1.8c1.6-0.8,4.5,0,5-2.3c0.4-1.7,0-3.9-0.4-5.6
					c-0.2-0.7-1.2-1-1.7-0.5c-1.6,2-2.4,4.7-4.3,6.4C1149.5,664.6,1150.9,666,1152,665.2L1152,665.2z"/>
			</g>
			<g>
				<path fill="#54FF9E" d="M1156.3,654.3c-0.1-3-1.2-5.5-2.1-8.3c-0.4-1.4-1-2.7,0.4-3.4c1-0.4,2-0.8,3-1.1c1.4-0.3,0,5.6-0.2,6.4
					c-0.6,2.6-1.2,5.1-2.9,7.2c-0.8,1,1,2.1,1.8,1c2.3-2.9,3-6.7,3.6-10.3c0.3-2,1.2-5.6-1.3-6.5c-1.4-0.5-6.1,1.1-6.9,2.4
					c-0.6,1-0.1,2.7,0.1,3.8c0.5,3,2.2,5.5,2.3,8.6C1154.2,655.7,1156.3,655.7,1156.3,654.3L1156.3,654.3z"/>
			</g>
			<g>
				<path fill="#54FF9E" d="M1131.4,655.4c0.1-4.3,0.3-8.8-0.5-13c-0.7-3.2-3.6-2.5-6-1.5c-3,1.3-4.9,2.9-3.5,6.2
					c1.4,3.4,4.3,7.8,7.6,9.8c1.2,0.7,2.2-1.1,1-1.8c-2.3-1.4-4.1-4.3-5.6-6.6c-0.7-1-1.4-2.3-1.5-3.5c-0.1-1.2,2.6-2.1,3.4-2.4
					c1-0.4,2.2-1,2.6,0.4c0.3,1.3,0.3,2.7,0.4,4.1c0.1,2.7,0.1,5.6,0,8.3C1129.4,656.7,1131.4,656.7,1131.4,655.4L1131.4,655.4z"/>
			</g>
			<g>
				<path fill="#54FF9E" d="M1135.8,647.1c0-2.1-0.2-4.3,0.1-6.4c-0.3,0.3-0.7,0.5-1,0.8c0.7,0,5.5,0.3,5.1,1.2
					c-1.1,2.4-4.7,3.6-6.6,5.2c-1,0.8,0.4,2.3,1.4,1.4c2.3-1.9,7.8-3.8,7.2-7.5c-0.3-2.3-5.5-2.3-7.1-2.3c-0.4,0-1,0.3-1,0.8
					c-0.3,2.3-0.1,4.6-0.1,6.9C1133.7,648.5,1135.8,648.5,1135.8,647.1L1135.8,647.1z"/>
			</g>
			<g>
				<path fill="#54FF9E" d="M1146.5,647.5c-0.6-1.9-0.6-4-1.1-6c-0.2-1-0.4-1.9-0.4-2.8c0-0.3,2.6-0.1,2.9-0.1
					c-0.3-0.3-0.7-0.5-1-0.8c0.8,3.2-0.9,6.8-2.3,9.5c-0.6,1.2,1.2,2.2,1.8,1c1.6-3.3,3.5-7.3,2.5-11.1c-0.1-0.5-0.5-0.8-1-0.8
					c-2.2-0.1-4.9-0.3-4.9,2.5c0,1.2,0.3,2.5,0.6,3.8c0.3,1.7,0.4,3.4,0.9,5.2C1144.9,649.3,1146.9,648.7,1146.5,647.5L1146.5,647.5
					z"/>
			</g>
			<g>
				<path fill="#54FF9E" d="M1149.5,639.5c3.1,0.1,6.2-0.1,9.1-1.1c0.4-0.1,0.8-0.5,0.8-1c-0.3-2.7-1.7-5.8-3.5-7.7
					c-0.4-0.5-1-0.3-1.4,0c-2.6,2.1-3,5.6-4.6,8.3c-0.7,1.2,1.1,2.2,1.8,1c1.5-2.5,1.9-6,4.3-7.9c-0.5,0-1,0-1.4,0
					c1.4,1.6,2.7,4.2,2.9,6.2c0.3-0.3,0.5-0.7,0.8-1c-2.7,0.9-5.6,1.1-8.5,1C1148.2,637.4,1148.2,639.4,1149.5,639.5L1149.5,639.5z"
					/>
			</g>
			<g>
				<path fill="#54FF9E" d="M1120.1,652.7c1.2-2.3,3-4.2,5-5.8c-0.5-0.1-1.1-0.1-1.6-0.2c0.8,1.9,0.8,4.5,0.8,6.5c0,0.5,0,1-0.1,1.6
					c-0.1,0.3-0.1,0.3,0.1,0c-0.4-0.1-0.8-0.3-1-0.5c-1-0.5-2.2-1.4-2.9-2.3c-0.8-1.1-2.5-0.1-1.8,1c1.1,1.5,6.2,6,7.6,2.7
					c0.6-1.6,0.3-3.6,0.2-5.4c-0.1-1.5-0.3-3.3-0.9-4.7c-0.3-0.6-1.2-0.6-1.6-0.2c-2.1,1.8-4.1,3.8-5.3,6.2
					C1117.7,652.8,1119.5,653.9,1120.1,652.7L1120.1,652.7z"/>
			</g>
			<g>
				<path fill="#54FF9E" d="M1133,643c-0.5-1.8-0.5-3.9-0.6-5.8c0-0.9,0-1.8,0.3-2.7c-0.5,0.1-0.5,0.1-0.1,0.2
					c0.2,0.1,0.4,0.1,0.7,0.2c0.6,0.2,1.2,0.5,1.7,0.8c0.8,0.3,1.6,0.8,2.2,1.3c0.8,0.6-1.2,2.3-1.5,2.6c-1.6,1.5-3.7,2.5-5.4,3.9
					c-1,0.9,0.5,2.3,1.4,1.4c2.3-2.1,5.4-3.2,7.1-6c1.6-2.7-1.2-4.3-3.3-5.4c-2.2-1-4.5-1.9-5,1.2c-0.4,2.7-0.3,6,0.5,8.7
					C1131.4,644.8,1133.4,644.3,1133,643L1133,643z"/>
			</g>
			<g>
				<path fill="#54FF9E" d="M1142.1,638.8c-0.1-2.5-0.7-5.1,0-7.6c0.3-1.4,2.5,0.7,2.7,0.9c1,0.9-0.4,2.1-1,2.7
					c-1,1.3-2.1,2.5-3.2,3.8c-0.8,1,0.6,2.5,1.4,1.4c1.6-2.1,4-4.1,5-6.6c0.8-2-1.9-4.2-3.5-4.7c-5.2-1.8-3.6,7.6-3.6,10
					C1140,640.1,1142.1,640.1,1142.1,638.8L1142.1,638.8z"/>
			</g>
			<g>
				<path d="M1138.8,609.4c3.8-0.1,7.6-0.5,11.3,0.3c4.6,1.1,6.9,5.5,8.1,9.6c2.1,7.4,1.2,15.6,1.3,23.2c0.1,6,1.9,11.7,2.4,17.6
					c0.3,3.2,0.2,7.1-2.1,9.5c-1.7,1.8-5,1-7.1,0.8c-2.5-0.2-4.9-0.2-7.4-0.3c-4.8-0.1-9.5-0.3-14.4-0.2c-2.7,0.1-5.4,0.1-8-1
					c-1.9-0.8-1.6-3.8-1.8-5.5c-1.2-10.2-1.9-20.1-1.4-30.4c0.4-7.6,1.9-15.8,7.1-21.7C1129.4,608.5,1135.2,609.5,1138.8,609.4
					c1.3-0.1,1.3-2.1,0-2.1c-3.4,0.1-8.1-0.6-11.3,0.9c-4.8,2.3-7.4,10-8.6,14.8c-2.3,9.6-2.1,20.7-1.2,30.5c0.4,4.5,1,9,1.6,13.4
					c0.4,2.7,1.7,3.8,4.3,4.8c4,1.4,9.1,0.5,13.3,0.6c5.6,0.2,11.1,0.1,16.6,0.5c3.1,0.3,5.8,0.3,8-2c1.8-1.9,2.3-4.8,2.4-7.3
					c0.4-6.5-2.1-12.8-2.4-19.2c-0.4-7.6,0.3-15.2-0.9-22.8c-0.7-4.3-2.5-9.5-6.5-12.1c-4.7-3-10.2-2.1-15.4-2.1
					C1137.5,607.3,1137.5,609.4,1138.8,609.4z"/>
			</g>
		</g>
		<g>
			<g>
				<path d="M728,675.8c0,19,0.7,38.1,4.2,56.9c0.5,2.6,4.5,1.5,4-1.1c-3.4-18.3-4.1-37.1-4.1-55.8C732.1,673.1,728,673.1,728,675.8
					L728,675.8z"/>
			</g>
			<g>
				<path d="M1188.8,675.1c-0.1,17.5-2.7,34.8-4.8,52.2c-0.3,2.6,3.8,2.6,4.1,0c2.1-17.4,4.7-34.7,4.8-52.2
					C1192.9,672.4,1188.8,672.4,1188.8,675.1L1188.8,675.1z"/>
			</g>
			<g>
				<path d="M964.4,670.8c6.9-10.2-8.9-10-15-9.6c-18.4,1-36.8,0.5-55.2,0.5c-0.5,0-0.9,0.3-1,0.8c-0.8,2.7-1.2,6,0.1,8.6
					c0.6,1.2,2.4,0.1,1.8-1c-1-2.1-0.5-4.9,0.1-7c-0.3,0.3-0.7,0.5-1,0.8c9.3,0,18.7,0,28,0c7.3,0,14.8,0.3,22-0.2
					c4.5-0.3,8.9-0.7,13.4-0.4c1.9,0.1,4,0.4,5.6,1.4c2,1.2,0.3,3.8-0.6,5.1C961.9,670.9,963.7,671.9,964.4,670.8L964.4,670.8z"/>
			</g>
			<g>
				<path fill="#005B52" d="M704.7,677.8c8.9-0.8,18-0.6,26.9-0.5c13.5,0.1,27.1,0.3,40.6,0.7c25.5,0.5,51,1.4,76.6,1.2
					c45.3-0.3,90.5-1.4,135.8-1.2c45.2,0.2,90.4,0.8,135.6,1.1c34.3,0.2,68.6,0.2,102.9,0.2c5.3,0,5.3-8.2,0-8.2
					c-90,0-179.9-1.4-269.9-1.4c-42.1,0-84.2,1.8-126.3,1.4c-24.7-0.3-49.4-1.2-74.2-1.6c-15.9-0.3-32.2-1.2-48.1,0.3
					C699.5,670.1,699.4,678.3,704.7,677.8L704.7,677.8z"/>
			</g>
		</g>
	</g>
	<g id="CTA_1_">
		<rect id="board_2_" x="867.4" y="396.8" fill="#F7E74D" width="182" height="47.7"/>
		<path id="shadow_1_" fill="#F2C446" d="M924.9,413.5h11.6l2.2,2.5v-2.5h4.8c0,0,2.6,0,4,1.6l6.9,6.8l-5.1-8.4h2l5.5,5.4l3.3-5.4
			l2.1-0.1l6.2,6.9v-6.9h2l7.8,8v-8h2l3,3.5c0,0,0.6-3.5,4.2-3.6c0,0,2-0.2,3.6,0.9c1.7,1.1,30.9,30.3,30.9,30.3H946l-16.5-16.3
			v-8.6l-4.8-4.4L924.9,413.5z"/>
		<g id="text_2_">
			<path fill="#9F0018" d="M936.4,415.1h-4.8v13.1h-2v-13.1h-4.8v-1.6h11.6V415.1z"/>
			<path fill="#9F0018" d="M949.6,428.1h-1.7c-0.3,0-0.7-0.2-0.8-0.4l-3.8-5.3c-0.1-0.2-0.2-0.2-0.4-0.3c-0.2-0.1-0.3-0.1-0.7-0.1
				h-1.5v6.2h-2v-14.8h4.2c0.9,0,1.7,0.1,2.4,0.2c0.7,0.2,1.2,0.5,1.7,0.8c0.4,0.3,0.7,0.8,1,1.3s0.3,1.1,0.3,1.7
				c0,0.5-0.1,1-0.2,1.5c-0.2,0.4-0.4,0.8-0.7,1.2c-0.3,0.4-0.7,0.7-1.2,0.9c-0.4,0.2-1,0.4-1.6,0.6c0.2,0.2,0.5,0.3,0.7,0.7
				L949.6,428.1z M942.7,420.6c0.6,0,1.1-0.1,1.6-0.2c0.4-0.2,0.8-0.3,1.2-0.6c0.3-0.2,0.5-0.6,0.7-0.9c0.2-0.3,0.2-0.7,0.2-1.2
				c0-0.9-0.3-1.6-0.9-2c-0.6-0.4-1.5-0.7-2.6-0.7h-2.2v5.6L942.7,420.6L942.7,420.6z"/>
			<path fill="#9F0018" d="M956.6,422.3v5.8h-2v-5.8l-5.5-8.9h1.7c0.2,0,0.3,0.1,0.4,0.2c0.1,0.1,0.2,0.2,0.2,0.3l3.4,5.8
				c0.2,0.2,0.2,0.5,0.3,0.7c0.1,0.2,0.2,0.4,0.3,0.7c0.1-0.2,0.2-0.4,0.2-0.7c0.1-0.2,0.2-0.4,0.3-0.7l3.4-5.8
				c0.1-0.1,0.2-0.2,0.2-0.3c0.1-0.1,0.2-0.2,0.4-0.2h1.7L956.6,422.3z"/>
			<path fill="#9F0018" d="M974.2,426.6c0.6,0,1.2-0.1,1.7-0.3c0.5-0.2,0.9-0.5,1.2-0.9c0.3-0.3,0.6-0.8,0.7-1.3
				c0.2-0.5,0.2-1.1,0.2-1.7v-8.9h2v9c0,0.8-0.2,1.6-0.4,2.4s-0.7,1.3-1.2,1.9c-0.5,0.5-1.2,1-1.8,1.2c-0.7,0.3-1.6,0.4-2.5,0.4
				s-1.7-0.2-2.5-0.4c-0.7-0.3-1.3-0.7-1.9-1.2c-0.5-0.5-0.9-1.2-1.2-1.9s-0.4-1.5-0.4-2.4v-9h2v9c0,0.7,0.1,1.2,0.3,1.7
				c0.2,0.5,0.4,1,0.7,1.3c0.3,0.3,0.7,0.7,1.2,0.9C973,426.5,973.5,426.6,974.2,426.6z"/>
			<path fill="#9F0018" d="M991.2,415.7c-0.1,0.1-0.2,0.2-0.2,0.2c-0.1,0.1-0.2,0.1-0.2,0.1c-0.1,0-0.2-0.1-0.4-0.2
				c-0.2-0.1-0.3-0.2-0.6-0.4c-0.2-0.2-0.5-0.2-0.8-0.4c-0.3-0.1-0.7-0.2-1.2-0.2c-0.4,0-0.8,0.1-1.2,0.2c-0.3,0.1-0.7,0.2-0.8,0.5
				c-0.2,0.2-0.4,0.4-0.5,0.7c-0.1,0.2-0.2,0.6-0.2,0.9c0,0.4,0.1,0.7,0.3,1c0.2,0.2,0.5,0.5,0.8,0.7c0.3,0.2,0.7,0.3,1.2,0.5
				c0.4,0.2,0.8,0.2,1.3,0.4c0.4,0.2,0.9,0.3,1.3,0.5c0.4,0.2,0.8,0.4,1.2,0.7c0.3,0.3,0.6,0.7,0.8,1.1c0.2,0.4,0.3,0.9,0.3,1.6
				s-0.1,1.2-0.3,1.8c-0.3,0.6-0.6,1.1-1,1.5c-0.4,0.4-0.9,0.7-1.6,1c-0.6,0.2-1.3,0.3-2.1,0.3c-1,0-1.8-0.2-2.6-0.5
				c-0.8-0.3-1.5-0.8-2-1.4l0.6-0.9c0.1-0.1,0.1-0.2,0.2-0.2c0.1-0.1,0.2-0.1,0.2-0.1s0.2,0,0.3,0.1c0.1,0.1,0.2,0.2,0.4,0.2
				c0.2,0.1,0.3,0.2,0.5,0.3c0.2,0.2,0.4,0.2,0.7,0.3c0.2,0.1,0.5,0.2,0.8,0.2c0.3,0.1,0.7,0.1,1,0.1c0.5,0,0.9-0.1,1.2-0.2
				c0.3-0.1,0.7-0.3,0.9-0.6c0.2-0.2,0.5-0.5,0.6-0.8c0.2-0.3,0.2-0.7,0.2-1.1s-0.1-0.8-0.3-1.1c-0.2-0.2-0.5-0.5-0.8-0.7
				c-0.3-0.2-0.7-0.3-1.2-0.5c-0.4-0.2-0.8-0.2-1.3-0.4c-0.4-0.2-0.9-0.3-1.3-0.5c-0.4-0.2-0.8-0.4-1.2-0.7
				c-0.3-0.3-0.6-0.7-0.8-1.1c-0.2-0.4-0.3-1-0.3-1.6c0-0.5,0.1-1,0.3-1.5c0.2-0.5,0.5-0.9,0.9-1.3c0.4-0.4,0.9-0.7,1.4-0.9
				c0.6-0.2,1.2-0.3,2-0.3c0.8,0,1.6,0.2,2.2,0.4c0.7,0.2,1.2,0.7,1.8,1.2L991.2,415.7z"/>
		</g>
	</g>
</g>
</svg>
