<?xml version="1.0" encoding="utf-8"?>
<!-- Generator: Adobe Illustrator 16.0.0, SVG Export Plug-In . SVG Version: 6.00 Build 0)  -->
<!DOCTYPE svg PUBLIC "-//W3C//DTD SVG 1.1//EN" "http://www.w3.org/Graphics/SVG/1.1/DTD/svg11.dtd">
<svg version="1.1" xmlns="http://www.w3.org/2000/svg" xmlns:xlink="http://www.w3.org/1999/xlink" x="0px" y="0px" viewBox="0 0 820.6 1080" enable-background="new 0 0 820.6 1080" xml:space="preserve">
<g id="page_x5F_fill" preserveAspectRatio="none">
	<rect y="0.5" fill="#ACCCC6" width="820.6" height="1080"/>
</g>
<g id="easel">
	<g>
		<g id="backstand_2_">
			
				<linearGradient id="SVGID_1_" gradientUnits="userSpaceOnUse" x1="-260.1758" y1="2838.7236" x2="-260.1758" y2="2817.6023" gradientTransform="matrix(-1.140000e-002 -0.9997 1.0003 0 -2419.4536 578.544)">
				<stop  offset="0" style="stop-color:#C78234"/>
				<stop  offset="7.300000e-002" style="stop-color:#C98537"/>
				<stop  offset="0.1281" style="stop-color:#CF8F40"/>
				<stop  offset="0.1772" style="stop-color:#D99F50"/>
				<stop  offset="0.1935" style="stop-color:#DDA657"/>
				<stop  offset="0.2384" style="stop-color:#DBA053"/>
				<stop  offset="0.2957" style="stop-color:#D69049"/>
				<stop  offset="0.3656" style="stop-color:#844F1F"/>
				<stop  offset="0.4054" style="stop-color:#975D25"/>
				<stop  offset="0.4731" style="stop-color:#B1712D"/>
				<stop  offset="0.5336" style="stop-color:#C17E32"/>
				<stop  offset="0.5806" style="stop-color:#C78234"/>
				<stop  offset="0.6026" style="stop-color:#D19243"/>
				<stop  offset="0.6315" style="stop-color:#D89D4F"/>
				<stop  offset="0.6721" style="stop-color:#DCA455"/>
				<stop  offset="0.7849" style="stop-color:#DDA657"/>
				<stop  offset="0.8254" style="stop-color:#C68D43"/>
				<stop  offset="0.9028" style="stop-color:#A06322"/>
				<stop  offset="0.9637" style="stop-color:#884A0E"/>
				<stop  offset="1" style="stop-color:#7F4006"/>
			</linearGradient>
			<polygon fill="url(#SVGID_1_)" points="412,1080 415.2,881.7 415.6,881.7 420.3,597.3 399.2,597.3 404.7,1080 			"/>
			
				<linearGradient id="SVGID_2_" gradientUnits="userSpaceOnUse" x1="-260.1406" y1="2810.4404" x2="-260.1406" y2="2789.3225" gradientTransform="matrix(1.270000e-002 -0.9997 1.0003 0 -2388.7639 578.5792)">
				<stop  offset="0" style="stop-color:#C78234"/>
				<stop  offset="7.300000e-002" style="stop-color:#C98537"/>
				<stop  offset="0.1281" style="stop-color:#CF8F40"/>
				<stop  offset="0.1772" style="stop-color:#D99F50"/>
				<stop  offset="0.1935" style="stop-color:#DDA657"/>
				<stop  offset="0.2384" style="stop-color:#DBA053"/>
				<stop  offset="0.2957" style="stop-color:#D69049"/>
				<stop  offset="0.3656" style="stop-color:#844F1F"/>
				<stop  offset="0.4054" style="stop-color:#975D25"/>
				<stop  offset="0.4731" style="stop-color:#B1712D"/>
				<stop  offset="0.5336" style="stop-color:#C17E32"/>
				<stop  offset="0.5806" style="stop-color:#C78234"/>
				<stop  offset="0.6026" style="stop-color:#D19243"/>
				<stop  offset="0.6315" style="stop-color:#D89D4F"/>
				<stop  offset="0.6721" style="stop-color:#DCA455"/>
				<stop  offset="0.7849" style="stop-color:#DDA657"/>
				<stop  offset="0.8254" style="stop-color:#C68D43"/>
				<stop  offset="0.9028" style="stop-color:#A06322"/>
				<stop  offset="0.9637" style="stop-color:#884A0E"/>
				<stop  offset="1" style="stop-color:#7F4006"/>
			</linearGradient>
			<polygon fill="url(#SVGID_2_)" points="404,824 407.2,1040.3 407.6,1040.3 408.1,1080 416.1,1080 422.3,597.3 401.2,597.3 
				404.7,824 			"/>
			<polyline opacity="0.2" enable-background="new    " points="402.6,866.2 418.9,866.2 416.1,1080 404.8,1080 			"/>
		</g>
		<g id="right_x5F_bar_2_">
			
				<linearGradient id="SVGID_3_" gradientUnits="userSpaceOnUse" x1="-2076.6855" y1="-2185.2407" x2="-2076.6855" y2="-2206.3923" gradientTransform="matrix(6.980000e-002 0.9976 -0.9976 6.980000e-002 -1500.7987 2908.6438)">
				<stop  offset="0" style="stop-color:#C78234"/>
				<stop  offset="7.300000e-002" style="stop-color:#C98537"/>
				<stop  offset="0.1281" style="stop-color:#CF8F40"/>
				<stop  offset="0.1772" style="stop-color:#D99F50"/>
				<stop  offset="0.1935" style="stop-color:#DDA657"/>
				<stop  offset="0.2384" style="stop-color:#DBA053"/>
				<stop  offset="0.2957" style="stop-color:#D69049"/>
				<stop  offset="0.3656" style="stop-color:#844F1F"/>
				<stop  offset="0.4054" style="stop-color:#975D25"/>
				<stop  offset="0.4731" style="stop-color:#B1712D"/>
				<stop  offset="0.5336" style="stop-color:#C17E32"/>
				<stop  offset="0.5806" style="stop-color:#C78234"/>
				<stop  offset="0.6026" style="stop-color:#D19243"/>
				<stop  offset="0.6315" style="stop-color:#D89D4F"/>
				<stop  offset="0.6721" style="stop-color:#DCA455"/>
				<stop  offset="0.7849" style="stop-color:#DDA657"/>
				<stop  offset="0.8254" style="stop-color:#C68D43"/>
				<stop  offset="0.9028" style="stop-color:#A06322"/>
				<stop  offset="0.9637" style="stop-color:#884A0E"/>
				<stop  offset="1" style="stop-color:#7F4006"/>
			</linearGradient>
			<polygon fill="url(#SVGID_3_)" points="583.1,1080 527.7,287.3 506.5,287.3 561.9,1080 			"/>
			<polyline opacity="0.3" enable-background="new    " points="567.4,861.1 546.5,861.1 549.3,900 570.5,900 			"/>
		</g>
		<g id="left_x5F_bar_2_">
			
				<linearGradient id="SVGID_4_" gradientUnits="userSpaceOnUse" x1="-2424.3999" y1="-1227.1587" x2="-2424.3999" y2="-1248.312" gradientTransform="matrix(-6.980000e-002 0.9976 -0.9976 -6.980000e-002 -1128.1176 3015.4934)">
				<stop  offset="0" style="stop-color:#C78234"/>
				<stop  offset="7.300000e-002" style="stop-color:#C98537"/>
				<stop  offset="0.1281" style="stop-color:#CF8F40"/>
				<stop  offset="0.1772" style="stop-color:#D99F50"/>
				<stop  offset="0.1935" style="stop-color:#DDA657"/>
				<stop  offset="0.2384" style="stop-color:#DBA053"/>
				<stop  offset="0.2957" style="stop-color:#D69049"/>
				<stop  offset="0.3656" style="stop-color:#844F1F"/>
				<stop  offset="0.4054" style="stop-color:#975D25"/>
				<stop  offset="0.4731" style="stop-color:#B1712D"/>
				<stop  offset="0.5336" style="stop-color:#C17E32"/>
				<stop  offset="0.5806" style="stop-color:#C78234"/>
				<stop  offset="0.6026" style="stop-color:#D19243"/>
				<stop  offset="0.6315" style="stop-color:#D89D4F"/>
				<stop  offset="0.6721" style="stop-color:#DCA455"/>
				<stop  offset="0.7849" style="stop-color:#DDA657"/>
				<stop  offset="0.8254" style="stop-color:#C68D43"/>
				<stop  offset="0.9028" style="stop-color:#A06322"/>
				<stop  offset="0.9637" style="stop-color:#884A0E"/>
				<stop  offset="1" style="stop-color:#7F4006"/>
			</linearGradient>
			<polygon fill="url(#SVGID_4_)" points="258.7,1080 314.2,286.6 293,286.6 237.6,1080 			"/>
			<polyline opacity="0.3" enable-background="new    " points="252.7,861.8 274,861.8 271.3,900.8 249.8,900.8 			"/>
		</g>
		<g id="horz_x5F_bar_2_">
			
				<linearGradient id="SVGID_5_" gradientUnits="userSpaceOnUse" x1="-716.9229" y1="-1751.4893" x2="-716.9229" y2="-1771.8755" gradientTransform="matrix(1 0 0 1 1128 2628)">
				<stop  offset="0" style="stop-color:#42210B"/>
				<stop  offset="1.980000e-002" style="stop-color:#623C1B"/>
				<stop  offset="5.630000e-002" style="stop-color:#966934"/>
				<stop  offset="8.800000e-002" style="stop-color:#BD8A47"/>
				<stop  offset="0.1133" style="stop-color:#D49F53"/>
				<stop  offset="0.129" style="stop-color:#DDA657"/>
				<stop  offset="0.1819" style="stop-color:#AB7538"/>
				<stop  offset="0.2204" style="stop-color:#844F1F"/>
				<stop  offset="0.2782" style="stop-color:#A46729"/>
				<stop  offset="0.3362" style="stop-color:#BD7B31"/>
				<stop  offset="0.371" style="stop-color:#C78234"/>
				<stop  offset="0.4098" style="stop-color:#A36729"/>
				<stop  offset="0.442" style="stop-color:#8C5522"/>
				<stop  offset="0.4624" style="stop-color:#844F1F"/>
				<stop  offset="0.5208" style="stop-color:#864F1E"/>
				<stop  offset="0.5419" style="stop-color:#8D501C"/>
				<stop  offset="0.5568" style="stop-color:#985217"/>
				<stop  offset="0.5591" style="stop-color:#9B5216"/>
				<stop  offset="0.5973" style="stop-color:#B97130"/>
				<stop  offset="0.6332" style="stop-color:#CE8842"/>
				<stop  offset="0.6559" style="stop-color:#D69049"/>
				<stop  offset="0.6814" style="stop-color:#D38E48"/>
				<stop  offset="0.6988" style="stop-color:#CA8743"/>
				<stop  offset="0.7137" style="stop-color:#BB7B3B"/>
				<stop  offset="0.7272" style="stop-color:#A66A30"/>
				<stop  offset="0.7396" style="stop-color:#8A5422"/>
				<stop  offset="0.7419" style="stop-color:#844F1F"/>
				<stop  offset="0.8031" style="stop-color:#865120"/>
				<stop  offset="0.8323" style="stop-color:#8E5825"/>
				<stop  offset="0.8548" style="stop-color:#9B652D"/>
				<stop  offset="0.8737" style="stop-color:#AD7739"/>
				<stop  offset="0.8904" style="stop-color:#C58E48"/>
				<stop  offset="0.9032" style="stop-color:#DDA657"/>
				<stop  offset="1" style="stop-color:#844F1F"/>
			</linearGradient>
			<rect x="1.6" y="856.2" fill="url(#SVGID_5_)" width="819" height="20.4"/>
		</g>
	</g>
</g>
<g id="canvas">
	<rect id="canvas_2_" x="114.2" y="113.6" fill="#F4EFD3" width="590.3" height="742.6"/>
	<rect x="197.2" y="175.7" fill="none" width="424.3" height="278.9"/>
	<text transform="matrix(1 0 0 1 223.4668 196.667)"><tspan x="0" y="0" font-family="'JosefinSans'" font-size="28">First times are always a big deal. </tspan><tspan x="-18.9" y="34" font-family="'JosefinSans'" font-size="28">Your first pencil box, first movie; you </tspan><tspan x="-25.9" y="68" font-family="'JosefinSans'" font-size="28">remember what&apos;s that like, don&apos;t you?  </tspan><tspan x="0.5" y="121" font-family="'JosefinSans'" font-size="28">So how about you let us call you  </tspan><tspan x="104.3" y="155" font-family="'JosefinSans'" font-size="28">our first client?  </tspan><tspan x="77.3" y="189" font-family="'JosefinSans'" font-size="28">We&apos;d be honoured.</tspan></text>
	<g id="doodle_1_">
		<g>
			<g>
				<path d="M277.9,744.5c6.9-0.3,14.8-0.8,17.4-8.3c1.2-3.6,1.1-7.8,1.1-11.6c0-4.3-0.2-8.7-1.1-12.9c-0.8-3.3-2.2-6.8-5.1-8.7
					c-3.6-2.3-8.9-1.4-12.9-0.9c-3,0.4-6.1,1-7.6,3.9c-1.5,2.7-1.7,6.1-2.1,9.1c-1,7-1.9,14.4-0.6,21.4c0.5,2.6,1.5,5.3,3.8,6.7
					C272.7,744.5,275.8,744.5,277.9,744.5c0.8,0,0.8-1.3,0-1.3c-2.5,0-5.8,0-7.6-2.1c-2.2-2.5-2.4-6.8-2.5-9.9
					c-0.3-7,0.6-14.4,2-21.2c0.4-1.6,0.8-3.2,1.9-4.5c1.3-1.4,3.5-1.7,5.3-2c4.3-0.7,10.6-1.6,14,1.8c3,3,3.6,8.4,4,12.4
					c0.4,4,0.3,8,0,12c-0.3,4.1-0.8,8.5-4.5,10.9c-3.5,2.3-8.4,2.3-12.5,2.4C277.1,743.3,277.1,744.6,277.9,744.5z"/>
			</g>
			<path d="M275.7,702.4c0-0.9,0-2.7,0-3.5c4.4-1.3,16.8-1.3,15,5.3L275.7,702.4z"/>
			<g>
				<path d="M270.8,739.2c-0.5-1.7,1.5-3.6,2.7-1.8c1.1,1.5-1.5,2.1-2.6,2c-0.8,0-0.8,1.3,0,1.3c1.2,0.1,2.5-0.3,3.4-1
					c1.1-0.9,0.9-2.3,0.1-3.4c-0.9-1.1-2.3-1.4-3.6-0.6c-1.2,0.8-1.7,2.4-1.3,3.8C269.7,740.3,271,739.9,270.8,739.2L270.8,739.2z"
					/>
			</g>
			<g>
				<path d="M276.3,734c-0.2-0.5-0.5-1.5,0.3-1.5c0.7,0,1.4,0.6,1.9,1.1c0.5,0.5,0.6,1.3,0,1.7c-0.7,0.4-1.4,0.1-1.3-0.7
					c0.1-0.8-1.2-0.8-1.3,0c-0.1,1.6,1.3,2.5,2.7,2.1c1.5-0.4,2.1-2.1,1.4-3.4c-0.7-1.1-2.1-2-3.4-2c-1.8,0-1.9,1.9-1.5,3.1
					C275.3,735.1,276.6,734.8,276.3,734L276.3,734z"/>
			</g>
			<g>
				<path d="M278.2,742.2c-0.5-0.9-0.4-1.9,0.2-2.8c0.7-1.1,1.9-0.9,2.9-0.4c1,0.5,0.5,1-0.3,1.4c-0.8,0.5-1.9,0.8-2.9,0.7
					c-0.8,0-0.8,1.3,0,1.3c1.5,0,3.2-0.4,4.3-1.4c1.1-1,1-2.3-0.3-3.1c-1.5-1-3.3-1-4.6,0.3c-1.1,1.2-1.4,3.1-0.5,4.5
					C277.5,743.6,278.6,743,278.2,742.2L278.2,742.2z"/>
			</g>
			<g>
				<path d="M282,736.5c-0.1-0.9,0.1-1.8,0.9-2.3c0.8-0.5,1.7,0,2.1,0.7c1.4,2.1-2,1.6-3.1,1.4c-0.8-0.1-1.2,1.1-0.4,1.3
					c1.3,0.2,2.8,0.5,4,0c1.5-0.7,1.2-2.3,0.4-3.4c-0.8-1.1-2.3-1.7-3.5-1.1c-1.4,0.6-2,2.1-1.9,3.6
					C280.7,737.3,282.1,737.4,282,736.5L282,736.5z"/>
			</g>
			<g>
				<path d="M289.3,735.2c-0.2-0.1-0.7-0.6-0.6-0.8c0.1-0.3,0.7-0.4,0.9-0.4c0.9-0.2,2.1,0.1,2.7,0.8c1.7,1.7-2.5,3.7-3.4,1.8
					c-0.4-0.8-1.5-0.1-1.1,0.7c1.7,3.3,8.3,0.3,5.7-3.1c-1-1.4-3.1-1.7-4.7-1.2c-1.8,0.5-1.8,2.2-0.5,3.3
					C289,736.7,289.9,735.8,289.3,735.2L289.3,735.2z"/>
			</g>
			<g>
				<path d="M270.7,731.9c-0.6-0.7-1.1-1.8-0.4-2.6c0.7-0.7,1.9-0.3,2.6,0.2c0.6,0.4,1.7,1.7,0.8,2.3c-0.8,0.6-2.1,0.7-3.1,0.6
					c-0.8,0-0.8,1.3,0,1.3c1.4,0.1,3.4-0.1,4.3-1.3c1.1-1.5-0.3-3.3-1.5-4.2c-1.2-0.8-3-0.8-4.2,0.2c-1.4,1.2-0.6,3.1,0.4,4.3
					C270.3,733.5,271.3,732.6,270.7,731.9L270.7,731.9z"/>
			</g>
			<g>
				<path d="M276.7,728.9c0-1,0-2.2,0.6-3.1c0.6-1,2.3,1.5,2.5,2c0.4,1-0.7,1.6-1.5,1.9c-1.1,0.4-2.3,0.4-3.4,0
					c-0.8-0.3-1.1,1-0.4,1.3c2.3,0.8,8.1-0.3,6.4-3.9c-0.6-1.4-2.4-3.4-4.2-2.6c-1.4,0.7-1.4,3.2-1.5,4.5
					C275.4,729.7,276.7,729.7,276.7,728.9L276.7,728.9z"/>
			</g>
			<g>
				<path d="M283,730.2c-0.2-0.8,0-1.7,0.4-2.5c0.5-0.9,1.3-0.7,2.1-0.2c0.7,0.4,0.8,1.3,0.4,1.9c-0.6,0.8-1.5,0.6-2.3,0.1
					c-0.7-0.4-1.4,0.7-0.7,1.1c1.2,0.8,2.8,0.8,3.9-0.4c1-1.1,0.8-2.7-0.2-3.7c-1.1-1-2.7-1.3-3.8-0.2c-1.1,1-1.3,2.7-1,4.1
					C281.8,731.4,283.1,731.1,283,730.2L283,730.2z"/>
			</g>
			<g>
				<path d="M289.2,730.6c0-1-0.3-4.8,1.3-4.9c1.3-0.1,2.7,1.5,2,2.7c-0.7,1.2-2.4,1.6-3.6,1.1c-0.8-0.3-1.1,1-0.4,1.3
					c1.8,0.7,3.8-0.1,5-1.6c1.3-1.7-0.1-3.8-1.8-4.5c-3.7-1.8-3.9,3.7-3.9,5.9C287.9,731.5,289.2,731.5,289.2,730.6L289.2,730.6z"/>
			</g>
		</g>
		<g>
			<g>
				<path d="M312.2,701.3c-7.9,2.1-9.1,10.8-9.1,17.7c0,3.9,0.2,7.9,0.3,11.8c0,3.8,0.8,7.7,3.5,10.5c2.3,2.4,5.8,3.3,9,3.8
					c4.3,0.7,8.7,0.8,12.9,1c10.6,0.2,7.7-12.7,7.2-19.4c-0.4-6.6,0.7-14.4-3.9-19.9C327.4,700.9,319.2,700,312.2,701.3
					c-0.8,0.2-0.5,1.4,0.4,1.3c8.7-1.6,18.5,0.8,21.1,10.2c1.1,4.2,1,8.6,1,12.9c0,4.7,1.4,9.5,0.5,14.1c-1.1,6-7.6,4.9-12,4.6
					c-4.1-0.3-8.3-0.4-12.1-1.9c-4.2-1.6-5.9-5.6-6.4-9.8c-0.4-4-0.4-8.2-0.4-12.2c-0.1-6.6,0.4-15.9,8.2-18
					C313.4,702.4,313,701.1,312.2,701.3z"/>
			</g>
			<path d="M328.3,703.7c2.2-9.7-19.4-7.5-19.4-1.8L328.3,703.7z"/>
			<ellipse fill="#FFC011" cx="310.7" cy="737.7" rx="2" ry="2.2"/>
			<ellipse fill="#FFC011" cx="313.2" cy="741.2" rx="2.9" ry="2.2"/>
			<ellipse fill="#FFC011" cx="318.9" cy="741.8" rx="2.6" ry="2.2"/>
			<ellipse fill="#FFC011" cx="326.6" cy="741.2" rx="2.5" ry="2.7"/>
			<ellipse fill="#FFC011" cx="331.4" cy="740.7" rx="2.6" ry="2.5"/>
			<ellipse fill="#FFC011" cx="330" cy="735.5" rx="2.6" ry="3"/>
			<ellipse fill="#FFC011" cx="321.2" cy="738.1" rx="2.3" ry="2.6"/>
			<ellipse fill="#FFC011" cx="316.3" cy="738.5" rx="2.3" ry="2.2"/>
			<ellipse fill="#FFC011" cx="316.5" cy="735" rx="2.5" ry="2.5"/>
			<ellipse fill="#FFC011" cx="307.1" cy="735.3" rx="2.2" ry="2.5"/>
			<ellipse fill="#FFC011" cx="311" cy="733.1" rx="2.3" ry="2.7"/>
			<ellipse fill="#FFC011" cx="324.6" cy="736.6" rx="2.7" ry="3"/>
			<ellipse fill="#FFC011" cx="334" cy="734.2" rx="2.1" ry="2.6"/>
			<ellipse fill="#FFC011" cx="326" cy="732.1" rx="2.5" ry="2.8"/>
			<ellipse fill="#FFC011" cx="319.5" cy="731.4" rx="2.7" ry="2.6"/>
			<ellipse fill="#FFC011" cx="314.8" cy="731.4" rx="2" ry="2.4"/>
			<ellipse fill="#FFC011" cx="309.3" cy="729.6" rx="2.4" ry="2.1"/>
			<ellipse fill="#FFC011" cx="323.1" cy="728.9" rx="1.9" ry="2.4"/>
			<ellipse fill="#FFC011" cx="330.5" cy="731.1" rx="2.1" ry="1.8"/>
			<ellipse fill="#FFC011" cx="327.6" cy="727.7" rx="1.9" ry="2.2"/>
			<ellipse fill="#FFC011" cx="321.5" cy="726.4" rx="2" ry="1.9"/>
			<ellipse fill="#FFC011" cx="313.8" cy="727.4" rx="2.2" ry="2.3"/>
			<ellipse fill="#FFC011" cx="318.5" cy="727.4" rx="1.7" ry="2"/>
		</g>
		<g>
			<g>
				<path d="M436.6,705.8c5-7.6,18.4-5.4,23.1,1.5c1.4,2,1.9,4.7,2.5,7c0.7,3,1,6.2,1.2,9.3c0.3,5.2,0.8,11.7-1.4,16.6
					c-2,4.5-6.9,5.7-11.4,6c-4.5,0.2-10.2,0.1-13.7-3.2c-3-2.8-3.1-7.5-3.1-11.3c0-3.5,0.2-7,0.3-10.6
					C434.1,716.1,434.3,710.3,436.6,705.8c0.4-0.8-0.8-1.4-1.1-0.7c-3.2,6.1-2.6,13.7-2.8,20.3c-0.3,6.8-1.4,16.1,5.6,20.1
					c3.7,2.1,8.8,2.1,12.9,1.9c3.8-0.2,7.6-1.2,10.2-4c3.1-3.3,3.3-8.1,3.4-12.4c0.2-5.5-0.1-11.1-1.2-16.5
					c-0.7-3.3-1.6-6.9-3.9-9.5c-2-2.3-4.9-3.6-7.7-4.5c-5.8-1.8-13-0.8-16.6,4.5C435,705.8,436.1,706.5,436.6,705.8z"/>
			</g>
			<path d="M437.4,702.4c-3.5-8.4,20.8-9.7,19-0.9L437.4,702.4z"/>
			<g>
				<path fill="#D10034" d="M440.1,738.5c0.2-1,1.5-1,2.1-0.4c0.8,0.8,1.2,2.1,0.7,3.1c-1.1,2-4.2-0.5-2.8-1.9
					c0.6-0.6-0.3-1.5-0.9-0.9c-1.3,1.2-0.7,3.1,0.5,4.2c1.5,1.2,3.4,0.9,4.4-0.7c1.1-1.7,0.2-4-1.3-5c-1.4-1-3.6-0.5-3.9,1.3
					C438.6,739,439.9,739.4,440.1,738.5L440.1,738.5z"/>
			</g>
			<g>
				<path fill="#D10034" d="M448.2,738.8c-0.5,1.4-0.6,2.9,0.7,3.9c1.1,0.8,2.7,0.9,3.7,0.1c0.9-0.8,0.9-2.5,0.6-3.5
					c-0.2-0.7-0.8-1.1-1.4-1.4c-0.7-0.3-1.6,0-2.3,0.3c-0.8,0.3-0.4,1.5,0.4,1.3c0.7-0.2,1.7-0.6,2.1,0.4c0.2,0.6,0.2,1.5-0.2,2
					c-0.4,0.6-1.6,0.2-2.1-0.1c-0.9-0.6-0.5-1.7-0.2-2.5C449.8,738.3,448.5,738,448.2,738.8L448.2,738.8z"/>
			</g>
			<g>
				<path fill="#D10034" d="M444.1,734.3c-0.4-1.1,0.6-1.5,1.4-1.1c0.8,0.4,1.4,1,1.8,1.7c0.5,1-0.7,0.9-1.3,0.9
					c-0.4,0-0.7-0.1-1-0.2c-0.7-0.2-0.7-0.6-0.7-1.3c0-0.8-1.3-0.8-1.3,0c-0.1,1.8,1.1,2.6,2.8,2.8c1.5,0.2,3.3-0.4,2.9-2.2
					c-0.3-1.5-2-2.7-3.3-3.2c-1.8-0.6-3.2,1.3-2.6,2.9C443.1,735.5,444.4,735.1,444.1,734.3L444.1,734.3z"/>
			</g>
			<g>
				<path fill="#D10034" d="M455.6,726.2c-1.6-0.8-3.3-0.4-4.2,1.1c-0.8,1.2-0.9,3.2,0.3,4.2c1.9,1.6,4.8,0.2,5.7-1.8
					c0.5-1.1,0.5-2.6-0.6-3.3c-1-0.8-2.3-0.6-3.5-0.6c-0.8,0-0.8,1.3,0,1.3c0.7,0,1.5,0,2.2,0.1c1.2,0.3,1.1,1.5,0.5,2.3
					c-0.6,1-2.8,1.9-3.7,0.7c-0.5-0.7-0.2-1.7,0.2-2.3c0.5-0.9,1.5-1.1,2.4-0.7C455.7,727.7,456.4,726.5,455.6,726.2L455.6,726.2z"
					/>
			</g>
			<g>
				<path fill="#D10034" d="M456.8,736.8c-0.7,1.1-1.7,2.6-1.1,4c0.8,1.5,2.4,1.1,3.6,0.6c1.2-0.5,2.1-1.6,1.8-3
					c-0.2-1.3-1.3-2.5-2.7-2.3c-0.8,0.1-0.8,1.4,0,1.3c0.8,0,1.2,0.5,1.4,1.2c0.2,0.9-0.5,1.4-1.2,1.7c-0.6,0.3-1.8,0.7-1.9-0.4
					c0-0.8,0.7-1.7,1.1-2.4C458.3,736.7,457.2,736.1,456.8,736.8L456.8,736.8z"/>
			</g>
			<g>
				<path fill="#D10034" d="M444.9,725.6c-1.1-0.7-2.4-0.4-2.8,0.9c-0.4,1.2,0.3,2.7,1.4,3.3c1.3,0.7,3.4,0.7,4.2-0.8
					c0.8-1.4,0.2-3.8-1.4-4.3c-0.8-0.2-1.1,1-0.4,1.3c0.8,0.2,0.8,1.7,0.6,2.4c-0.2,0.8-1.8,0.5-2.3,0.3c-0.9-0.4-1.2-2.7,0.1-1.9
					C445,727.2,445.6,726.1,444.9,725.6L444.9,725.6z"/>
			</g>
			<g>
				<path fill="#D10034" d="M438.2,731.2c-1.1-0.5-2.3-0.4-3.1,0.7c-0.6,0.9-0.6,2.1,0.2,2.8c1,1,2.6,0.7,3.5-0.1
					c1.1-0.9,1.1-2.4,0.2-3.4c-0.6-0.7-1.5,0.3-0.9,0.9c1,1.1-1,2.6-1.9,1.6c-0.3-0.3-0.1-0.8,0-1.1c0.3-0.4,0.9-0.5,1.3-0.3
					C438.3,732.7,439,731.5,438.2,731.2L438.2,731.2z"/>
			</g>
			<g>
				<path fill="#D10034" d="M438.1,723.7c-1.9-0.6-3.4,1.2-3.2,3c0.1,1.8,1.9,2.9,3.6,3c1.8,0,3.3-1.7,2.8-3.4
					c-0.4-1.8-2.6-2.7-4.2-2.4c-0.8,0.1-0.5,1.4,0.4,1.3c0.9-0.1,1.9,0.4,2.4,1.1c0.7,0.9-0.1,2-1.1,2.2c-0.9,0.1-1.9-0.4-2.3-1.1
					c-0.5-1,0.2-2.6,1.4-2.2C438.5,725.3,438.9,724,438.1,723.7L438.1,723.7z"/>
			</g>
			<g>
				<path fill="#D10034" d="M450.7,718.6c-2,0-3,2.3-2.1,4.1c0.9,1.8,3.3,2.7,5.2,2.4c2.3-0.4,2.5-3.1,1.7-4.8
					c-1.1-2.2-4.1-2.3-6.2-1.7c-0.8,0.2-0.5,1.5,0.4,1.3c1.2-0.4,3-0.5,4.1,0.3c1.1,0.8,1.5,3,0,3.6c-1.1,0.4-2.5-0.3-3.4-1
					c-0.8-0.7-1.1-2.7,0.4-2.8C451.6,719.9,451.6,718.6,450.7,718.6L450.7,718.6z"/>
			</g>
			<g>
				<path fill="#D10034" d="M459.7,724.4c-1.8,0.8-1.9,3-1.2,4.5c0.8,1.8,3.2,1.9,4.7,1c3.4-2-0.8-7-3.8-5.4
					c-0.8,0.4-0.1,1.5,0.7,1.1c1.6-0.9,4.3,1.8,2.5,3.1c-1,0.7-2.3,0.5-2.9-0.6c-0.5-1-0.3-2.3,0.8-2.7
					C461.1,725.2,460.5,724.1,459.7,724.4L459.7,724.4z"/>
			</g>
			<g>
				<path fill="#D10034" d="M453.3,732.3c-2.7,0.1-2.5,4.9-0.3,5.7c1.5,0.6,3.1-0.7,3.7-2.1c0.8-1.8-0.4-3.6-2.1-4.2
					c-0.8-0.3-1.1,1-0.4,1.3c1,0.4,1.5,1.3,1.3,2.4c-0.2,0.8-1.3,1.7-2.1,1.3c-0.8-0.4-1.1-3-0.1-3
					C454.1,733.6,454.1,732.3,453.3,732.3L453.3,732.3z"/>
			</g>
			<g>
				<path fill="#D10034" d="M445.3,719.2c-1.2-0.1-2.4,0.5-2.7,1.8c-0.3,1.1,0.3,2.4,1.3,3c1.3,0.8,2.9,0.1,3.7-1
					c0.4-0.7,0.7-1.5,0.2-2.2c-0.5-0.7-1.4-1-2.2-1.1c-0.8-0.2-1.2,1.1-0.4,1.3c0.4,0.1,0.8,0.2,1.2,0.4c0.5,0.3,0,0.9-0.3,1.2
					c-0.5,0.5-1.3,0.6-1.9,0.1c-0.4-0.4-0.6-0.9-0.4-1.5c0.1-0.7,0.8-0.8,1.4-0.7C446.2,720.6,446.2,719.3,445.3,719.2L445.3,719.2z
					"/>
			</g>
			<g>
				<path fill="#D10034" d="M438.8,717.5c-1.4-0.2-2.3,0.9-2,2.3c0.2,1.3,1.8,2.6,3.1,2.2c0.8-0.3,1.3-1,1.6-1.7
					c0.3-0.6,0.6-1.2,0.4-1.9c-0.2-0.7-1-1-1.6-1.1c-0.9-0.1-1.9,0.1-2.7,0.5c-0.8,0.4-0.1,1.5,0.7,1.1c0.4-0.2,0.8-0.3,1.3-0.4
					c0.2,0,0.4,0,0.6,0c0.1,0,0.2,0,0.3,0.1c0,0,0.2,0.1,0.1,0c0.1,0.2-0.1,0.6-0.2,0.8c-0.2,0.4-0.4,0.9-0.8,1.2
					c-0.6,0.4-1.4-0.4-1.5-1c-0.2-0.6,0.1-0.9,0.7-0.8c0.4,0,0.7-0.4,0.7-0.7C439.4,717.7,439.1,717.5,438.8,717.5L438.8,717.5z"/>
			</g>
			<g>
				<path fill="#4C0075" d="M437.9,718.1c-0.9-1.1-3.2-0.6-3.5,0.8c-0.1,0.8,0.4,1.5,1.2,1.8c0.8,0.2,1.5-0.3,1.8-1.1
					c0.3-0.8-1-1.1-1.3-0.4c-0.1,0.3-0.5,0-0.4-0.2c0.3-0.3,0.9-0.4,1.2-0.1c0.2,0.3,0.7,0.2,0.9,0
					C438.2,718.8,438.1,718.4,437.9,718.1L437.9,718.1z"/>
			</g>
			<g>
				<path fill="#4C0075" d="M441.3,719.4c0-0.1,0.1-0.2,0.2-0.3c-0.1,0.2,0,0,0.1-0.1c-0.2,0.1-0.1,0,0,0c0.1,0-0.2,0,0,0
					c0.1,0-0.2,0-0.1,0c0.2,0-0.1,0,0,0c0,0,0.2,0.1,0,0c0,0,0,0,0.1,0c0.1,0-0.1-0.1,0,0l0,0c0.1,0.1-0.1-0.1,0,0c0,0,0,0,0,0.1
					c0,0,0.1,0.3,0,0c0,0,0,0.1,0,0.2c0,0,0,0,0,0.1c0,0.1,0-0.2,0-0.1c0,0,0,0.1,0,0.2c0-0.3,0-0.1,0-0.1c0,0.1,0.1-0.2,0-0.1
					c0,0.1,0.1-0.2,0-0.1c0.1-0.1,0-0.1,0.2-0.1c-0.1,0,0.2,0,0.1,0c-0.1,0,0.2,0,0,0c0,0-0.2-0.1,0,0c0,0-0.1,0-0.1,0
					c0,0-0.1,0-0.1-0.1c-0.1-0.1,0.1,0.1,0,0c-0.3-0.2-0.7-0.3-0.9,0c-0.2,0.2-0.3,0.7,0,0.9c0.5,0.4,1.1,0.8,1.7,0.3
					c0.4-0.3,0.4-1,0.2-1.4c-0.2-0.5-0.5-1-1-1.1c-0.7-0.2-1.3,0.4-1.6,0.9c-0.2,0.3-0.1,0.7,0.2,0.9
					C440.7,719.8,441.1,719.7,441.3,719.4L441.3,719.4z"/>
			</g>
			<g>
				<path fill="#4C0075" d="M443.1,721.4c-1.4-0.7-3,0.9-2.1,2.2c0.4,0.7,1.1,0.9,1.8,0.4c0.4-0.4,0.6-1,0.8-1.5
					c0.2-0.8-1.1-1.2-1.3-0.4c0,0.1-0.1,0.3-0.1,0.4c0,0.1,0,0.2-0.1,0.3c0-0.1,0,0.1-0.1,0.1s0,0.1-0.1,0.1c0.1-0.1-0.1,0.1,0,0
					c0.1,0,0.1,0,0,0c0.2,0,0.3,0,0.2,0c0.1,0,0.1,0,0,0c0,0,0-0.1,0-0.1c0,0,0,0,0,0c0,0.1,0,0.1,0,0c0,0.2,0-0.2,0,0
					c0,0,0.1-0.2,0-0.1c0,0,0.1-0.1,0,0c0,0,0.2-0.1,0.1-0.1c0,0,0.1,0,0.1,0c-0.1,0-0.1,0,0,0c-0.1,0-0.1,0,0,0c0,0,0,0,0,0
					c0.3,0.2,0.7,0.1,0.9-0.2C443.5,722,443.4,721.6,443.1,721.4L443.1,721.4z"/>
			</g>
			<g>
				<path fill="#4C0075" d="M447.7,720.2c0,0-0.2-0.3-0.1-0.1C447.7,720,447.7,720.1,447.7,720.2c-0.1-0.2-0.1,0-0.1,0.1
					c-0.1,0.1-0.1,0.1,0,0c0,0,0,0-0.1,0c0,0,0,0,0,0c0.2,0-0.1,0,0.1,0c0,0,0,0,0.1,0c-0.2,0,0,0,0,0c0,0,0,0,0.1,0
					c0.2,0-0.1,0,0,0c0,0,0.3,0.2,0.1,0.1c0.1,0,0.1,0.1,0.2,0.2c0,0,0,0,0,0.1c0,0,0.1,0.2,0,0.1c0,0,0,0.1,0,0.1c0,0.2,0-0.1,0,0
					c0,0,0,0.1,0,0.1c0-0.2,0,0,0,0c0-0.1,0-0.1,0,0c-0.1,0.1,0.1-0.1,0,0c0,0,0,0,0,0c0,0-0.2,0.1,0,0c0,0,0,0-0.1,0
					c0.2,0,0,0,0.1,0c0,0,0,0-0.1,0c0.2,0,0,0,0.1,0c0,0,0,0-0.1-0.1c0.1,0.1,0,0,0-0.1c-0.4-0.8-1.5-0.1-1.1,0.7
					c0.4,0.8,1.4,1,2,0.4s0.6-1.6,0.1-2.3c-0.4-0.6-1.2-1-1.9-0.9c-0.4,0-0.7,0.3-0.8,0.7c-0.1,0.4,0,0.8,0.2,1.1
					c0.2,0.3,0.6,0.4,0.9,0.2C447.8,721,448,720.6,447.7,720.2L447.7,720.2z"/>
			</g>
			<g>
				<path fill="#4C0075" d="M455.7,722c0.1-0.2,0.1-0.3,0.4-0.1c0.3,0.1,0.5,0.4,0.7,0.7c0,0.1,0,0.1,0,0.3c0,0.3,0,0,0.1,0
					c-0.2,0-0.4-0.4-0.4-0.6c-0.2-0.8-1.5-0.5-1.3,0.4c0.2,0.7,0.8,1.5,1.6,1.5c1,0.1,1.4-1,1.2-1.8c-0.2-1.5-2.7-2.7-3.4-1
					C454.2,722.1,455.3,722.8,455.7,722L455.7,722z"/>
			</g>
			<g>
				<path fill="#4C0075" d="M460.3,725.3c0-1,0.1-2.9-1.3-3c-0.8,0-1.5,0.8-1.5,1.5c0,0.7,0.2,1.5,0.8,2c0.7,0.6,1.6-0.4,0.9-0.9
					c-0.2-0.2-0.4-0.5-0.4-0.8c0-0.1,0-0.2,0-0.3c0,0,0,0,0.1-0.1c0.1,0,0,0,0,0c-0.1,0,0,0,0,0.1c0,0.2,0,0.3,0.1,0.5
					c0,0.4,0,0.7,0,1.1C459,726.1,460.3,726.1,460.3,725.3L460.3,725.3z"/>
			</g>
			<g>
				<path fill="#4C0075" d="M460.7,729.8c-0.5,1.4,0.4,3.4,2.1,3.3c0.9,0,1.6-0.7,1.5-1.6c-0.1-0.8-1-1.4-1.6-1.6
					c-0.8-0.3-1.1,1-0.4,1.3c0.3,0.1,0.5,0.4,0.7,0.6c0.1,0.2,0,0,0.1,0c-0.1,0.1-0.3,0.1-0.5,0c-0.7-0.1-0.8-1.1-0.5-1.6
					C462.3,729.4,461,729,460.7,729.8L460.7,729.8z"/>
			</g>
			<g>
				<path fill="#4C0075" d="M456.5,728.4c0.2-0.4,0.9-0.4,1,0.1c0,0.2-0.1,0.4-0.3,0.5c0,0,0,0,0,0c0.3,0,0.3,0.3,0.2,0
					c0-0.4-0.5-0.5-0.8-0.4c-0.4,0.1-0.5,0.4-0.4,0.8c0.1,0.7,0.8,1.1,1.5,0.9c0.7-0.2,1.2-0.9,1.2-1.6c0-0.8-0.5-1.6-1.3-1.9
					s-1.7,0.2-2.1,0.9C454.9,728.5,456,729.1,456.5,728.4L456.5,728.4z"/>
			</g>
			<g>
				<path fill="#4C0075" d="M452.3,728.5c-0.4-0.8-1.5-1-2.4-0.8c-0.9,0.3-1.4,1.2-1.1,2.1c0.4,1.7,3.1,1.5,3.8,0.1
					c0.4-0.8-0.8-1.4-1.1-0.7c-0.2,0.4-1.1,0.5-1.4,0.2c0,0,0-0.1,0-0.2c0-0.2,0.1-0.2,0.2-0.3c0.3-0.1,0.8-0.1,0.9,0.2
					C451.6,730,452.7,729.3,452.3,728.5L452.3,728.5z"/>
			</g>
			<g>
				<path fill="#4C0075" d="M456.3,734c0.2-0.1,0.4-0.3,0.5-0.4c0,0,0.2,0,0.1,0c0,0,0.1,0,0.1,0c0,0,0.1,0.3,0.1,0.4
					c0-0.1,0.3,0.1,0-0.2c-0.6-0.7-1.5,0.3-0.9,0.9c0.5,0.6,1.2,0.7,1.8,0.2c0.6-0.5,0.4-1.3,0.2-1.9c-0.6-1.3-2.2-0.7-2.9,0
					C454.7,733.6,455.6,734.5,456.3,734L456.3,734z"/>
			</g>
			<g>
				<path fill="#4C0075" d="M452.4,735c-0.2-0.5-0.7-0.8-1.2-0.8s-1.1,0.3-1.1,0.8s0.1,1,0.4,1.4c0.2,0.2,0.5,0.3,0.8,0.4
					c0.3,0,0.6-0.1,0.8-0.3c0.3-0.2,0.2-0.7,0-0.9c-0.3-0.3-0.7-0.2-0.9,0c0,0,0.1,0,0.1,0c0,0,0,0,0.1,0c-0.1,0,0,0,0,0
					c0.1,0,0.1,0,0,0c0.1,0.1,0,0,0,0c0,0.1,0,0.1,0,0c0,0-0.1-0.2,0,0c0,0,0-0.1,0-0.1c0,0.2,0,0,0,0c0,0,0,0.1,0,0.1l0,0
					c0,0,0,0,0,0c0,0,0,0-0.1,0c0.1,0,0,0,0,0c0.2,0-0.1,0,0,0c0.1,0,0,0,0,0c0,0,0.2,0.1,0,0c0,0,0.1,0.1,0,0c0,0,0,0.1,0.1,0.1
					c0.2,0.3,0.6,0.4,0.9,0.2C452.5,735.8,452.6,735.4,452.4,735L452.4,735z"/>
			</g>
			<g>
				<path fill="#4C0075" d="M460.6,736.9c-0.1-0.1-0.2-0.4-0.2-0.5c0-0.2,0-0.2,0-0.4c0-0.1,0-0.1,0-0.1c0.1-0.1,0.2,0,0.3,0
					c0.1,0.2,0,0.4,0,0.4c-0.8,0.4-0.1,1.5,0.7,1.1c0.7-0.4,0.9-1.2,0.7-1.9c-0.3-0.8-1-1.1-1.8-1c-0.7,0.1-1.1,0.8-1.2,1.5
					c0,0.6,0.1,1.3,0.6,1.8C460.3,738.4,461.2,737.5,460.6,736.9L460.6,736.9z"/>
			</g>
			<g>
				<path fill="#4C0075" d="M456.9,740.2c-0.7,0-1.6,0-1.9,0.8c-0.3,0.6,0,1.2,0.4,1.7c0.4,0.4,0.9,0.8,1.5,0.7
					c0.9-0.1,1.2-0.8,1.3-1.6c0,0,0-0.1,0-0.1c0-0.4-0.3-0.7-0.7-0.7c-0.4,0-0.6,0.3-0.7,0.7c0,0,0,0,0,0.1c0,0.2,0-0.2,0,0
					c0,0,0,0.1,0,0.2s-0.1,0.3,0,0c0,0,0,0.1-0.1,0.1c-0.1,0.1,0.1-0.1,0,0c-0.1,0.1,0.1,0,0,0s-0.2,0.1,0,0c0,0-0.2,0,0,0
					c0,0-0.1,0-0.1,0c-0.1,0,0.2,0,0,0c0,0-0.1,0-0.1,0c-0.1,0,0.2,0.1,0,0c-0.1,0-0.1-0.1-0.2-0.1c0,0,0.1,0.1,0,0
					c0,0-0.1-0.1-0.1-0.1c0,0,0,0-0.1-0.1c0,0,0.1,0.2,0,0c0-0.1-0.2-0.4-0.1-0.1c0-0.1,0-0.4,0,0c0,0,0-0.1,0-0.1
					c0-0.1,0,0.2,0,0.1v0c-0.1,0.2,0,0.1,0,0c0,0-0.1,0.1,0,0c0,0-0.2,0.1,0,0c0.2-0.1-0.1,0,0,0c0,0,0.1,0,0.2,0c0.2,0-0.1,0,0,0
					c0.2,0,0.4,0,0.5,0c0.4,0,0.7-0.3,0.7-0.7C457.6,740.5,457.3,740.2,456.9,740.2L456.9,740.2z"/>
			</g>
			<g>
				<path fill="#4C0075" d="M453.1,740.3c0.1-0.2,0.2-0.4,0.3-0.6c0,0,0-0.1,0,0c0,0,0.1-0.1,0.1-0.1c0,0,0,0,0,0c0,0,0.2-0.1,0,0
					c0,0,0,0,0.1,0c0.1,0-0.2,0,0,0c0.1,0,0,0-0.1,0c0,0,0.2,0,0,0c0,0,0,0,0,0c0.1,0.1-0.1-0.1,0,0c0,0,0.2,0.2,0,0
					c0,0,0,0.1,0.1,0.1c0,0,0,0,0,0.1c0.1,0.1,0-0.1,0,0c0,0,0,0.1,0,0.2c0,0.2,0-0.1,0,0c0,0,0,0,0,0.1c0,0.1,0-0.2,0,0
					c0,0,0,0,0,0.1c0,0.1,0.1-0.1,0,0c0,0,0,0,0,0c0,0-0.1,0.1,0,0c0,0,0,0,0.1,0c0,0-0.1,0-0.1,0c-0.4,0-0.5,0.5-0.4,0.8
					c0.1,0.4,0.4,0.5,0.8,0.4c1.2-0.2,1-1.9,0.4-2.6c-0.3-0.4-0.8-0.6-1.4-0.5c-0.8,0.2-1.1,1-1.4,1.7c-0.1,0.4,0.1,0.7,0.4,0.8
					C452.6,740.9,453,740.7,453.1,740.3L453.1,740.3z"/>
			</g>
			<g>
				<path fill="#4C0075" d="M449,741.4c-0.6-1.7-3.6-2-3.7,0.2c0,0.9,0.8,1.6,1.7,1.7c0.9,0.1,1.7-0.4,2.1-1.2
					c0.1-0.4-0.1-0.7-0.4-0.8c-0.4-0.1-0.7,0.1-0.8,0.4c-0.2,0.4-1.1,0.4-1.2,0c0-0.5,1-0.1,1.1,0.2
					C448,742.6,449.3,742.2,449,741.4L449,741.4z"/>
			</g>
			<g>
				<path fill="#4C0075" d="M444.1,739.5c0.1-0.3,0.7-1,0.9-0.8c0.1,0.1,0.2,0.4,0.1,0.6c-0.2,0.2-0.5,0.2-0.8,0.2
					c-0.8,0-0.8,1.4,0,1.3c0.7,0,1.4-0.2,1.8-0.8c0.4-0.6,0.3-1.5-0.1-2c-0.9-1.3-2.7-0.4-3.2,0.8c-0.1,0.4-0.1,0.7,0.2,0.9
					C443.5,739.9,443.9,739.9,444.1,739.5L444.1,739.5z"/>
			</g>
			<g>
				<path fill="#4C0075" d="M439.9,739.9c-0.5-1.2-3.2-2.7-3.9-0.9c-0.8,1.9,1.9,2.4,3.2,2c0.8-0.3,0.4-1.5-0.4-1.3
					c-0.3,0.1-1.6,0.2-1.6-0.2c0,0,0-0.1,0-0.1c0,0.1-0.1,0.1,0,0c0.1,0,0.4,0.1,0.5,0.1c0.3,0.1,0.8,0.4,0.9,0.7
					c0.1,0.4,0.4,0.6,0.8,0.4C439.7,740.7,440,740.3,439.9,739.9L439.9,739.9z"/>
			</g>
			<g>
				<path fill="#4C0075" d="M444.2,733.5c-0.8-0.3-1.5-0.8-2.4-0.7c-0.9,0.1-1.5,0.8-1.5,1.7c0,0.7,0.5,1.3,1.2,1.5
					c0.8,0.2,1.4-0.4,1.6-1.1c0.3-0.8-1-1.1-1.3-0.4c0,0.1-0.2,0.2,0,0.1c0,0,0,0,0,0c-0.2-0.1-0.1-0.3,0-0.4
					c0.4-0.4,1.7,0.4,2.1,0.5C444.7,735,445,733.7,444.2,733.5L444.2,733.5z"/>
			</g>
			<g>
				<path fill="#4C0075" d="M448.5,733.7C448.4,733.6,448.4,733.5,448.5,733.7c0,0.1-0.1,0.4-0.3,0.4c-0.1,0,0,0,0,0s0.1,0,0,0
					c0,0,0.1,0,0.1,0c0,0,0.1,0,0.2,0c0.2,0-0.1,0,0.1,0c0,0,0.2,0.1,0,0c0,0,0,0,0,0c0,0,0,0.1,0,0.1s0.1,0.2,0,0.1
					c0,0,0,0.1,0,0.2c0,0.2,0-0.1,0,0.1c0,0,0,0.3,0,0.1c0,0,0,0.1,0,0.2c0-0.1-0.1,0,0,0c0.1-0.1-0.1,0,0,0c0.1,0-0.1,0-0.2,0
					c-0.4,0-0.7,0.4-0.7,0.7c0,0.4,0.3,0.6,0.7,0.7c1.5,0.2,1.8-1.8,1.1-2.7c-0.4-0.5-1-0.7-1.5-0.7c-0.7,0-1.3,0.6-1,1.3
					c0.1,0.4,0.4,0.6,0.8,0.4C448.4,734.4,448.6,734,448.5,733.7L448.5,733.7z"/>
			</g>
			<g>
				<path fill="#4C0075" d="M439.3,732.1c0-0.4,0.4-1.3,0.9-0.9c0.2,0.2,0.2,0.4,0.1,0.5c0,0-0.1,0.1,0,0c0,0,0.1,0,0,0
					c0,0-0.2,0-0.2,0c-0.8-0.3-1.1,1-0.4,1.3c0.7,0.3,1.4,0,1.8-0.6c0.4-0.7,0.2-1.5-0.3-2.1c-0.5-0.6-1.5-0.7-2.2-0.3
					c-0.7,0.4-1.1,1.2-1.1,2C438,732.9,439.3,732.9,439.3,732.1L439.3,732.1z"/>
			</g>
			<g>
				<path fill="#4C0075" d="M435.2,734.1c-0.8,0.3-1.1,0.8-1,1.6c0.1,0.6,0.7,1.1,1.1,1.5c0.6,0.4,1.3,0.3,1.9,0
					c0.8-0.4,0.6-1.3,0.1-1.9c-0.6-0.6-1.5,0.3-0.9,0.9c0.2,0.2,0,0,0.1-0.2c0,0,0,0,0,0c0.1,0-0.1,0-0.1,0c-0.2,0-0.3,0-0.4-0.1
					c-0.1-0.1-0.3-0.3-0.4-0.4c0,0,0-0.1,0-0.1c0,0,0,0.1,0,0c0,0.1,0,0,0.1,0c0.4-0.1,0.6-0.4,0.4-0.8
					C435.9,734.2,435.6,733.9,435.2,734.1L435.2,734.1z"/>
			</g>
			<g>
				<path fill="#4C0075" d="M437.2,724.5c0.1-1,0.2-1.9-0.7-2.6c-0.7-0.5-1.9-0.6-2.7-0.2c-0.9,0.4-1,1.6-0.5,2.4
					c0.4,0.8,1.4,1.4,2.3,1.3c0.8,0,0.8-1.3,0-1.3c-0.4,0-0.8-0.3-1-0.5c-0.1-0.1-0.4-0.6-0.2-0.7c0.4-0.1,0.9,0,1.2,0.1
					c0.5,0.2,0.3,0.8,0.3,1.1C435.8,725,437.1,725.4,437.2,724.5L437.2,724.5z"/>
			</g>
			<g>
				<path fill="#4C0075" d="M440.6,729c0.5-0.3,1.8-0.3,2.3,0.1c0.2,0.1-0.2,0.2-0.4,0.3c-0.2,0-1.1,0-1.1-0.3c0-0.8-1.3-0.8-1.3,0
					c0,2,4,2.3,4.2,0.1c0.1-1.9-3.2-2.1-4.3-1.4C439.1,728.3,439.8,729.5,440.6,729L440.6,729z"/>
			</g>
			<g>
				<path fill="#4C0075" d="M447.6,726.2c0-0.1,0-0.3,0.1-0.4c0-0.1,0,0.1,0,0c0.1-0.2,0,0,0,0s0.1-0.1,0,0c0.1-0.1-0.1,0,0,0
					c0.1,0-0.2,0,0,0c0.2,0-0.1,0,0,0c0.2,0-0.1-0.1,0.1,0c0,0,0,0,0.1,0c0.1,0.1-0.1,0,0,0c0.1,0,0.1,0.1,0.2,0.2c0,0,0,0,0.1,0.1
					c-0.1-0.1,0,0,0,0c0,0.1,0.1,0.2,0.1,0.3c0,0,0.1,0.2,0,0c0,0,0,0.1,0,0.1c0,0,0,0.1,0,0.1c0,0.2,0-0.1,0,0c0,0,0,0.1,0,0.1
					c0,0.1,0-0.2,0,0c0,0,0,0.2,0,0c0,0-0.1,0.2,0,0c0,0,0,0-0.1,0.1c0.1-0.1,0,0,0,0c0.2-0.1-0.3,0-0.1,0c-0.1,0-0.3,0-0.4,0
					c-0.8,0-0.8,1.3,0,1.3c0.8,0,1.5-0.2,1.9-1c0.2-0.6,0-1.3-0.4-1.8c-0.4-0.5-0.9-1-1.5-1.1c-0.8-0.1-1.2,0.6-1.3,1.3
					c0,0.4,0.1,0.7,0.4,0.8C447,726.8,447.5,726.6,447.6,726.2L447.6,726.2z"/>
			</g>
		</g>
		<g>
			<g>
				<path d="M470.7,707.7c0,6.6-0.2,13.2-0.2,19.8c0,4.5-0.4,9.9,1.5,14.2c1.1,2.4,3.5,3.2,6,3.4c4.1,0.4,8.3-0.2,12.5,0
					c3.6,0.2,7-0.5,8.3-4.3c1.2-3.8,0.1-8.7-0.2-12.6c-0.4-5.9-0.4-11.8-1.2-17.7c-0.4-2.7-0.8-5.7-3.6-6.9c-1.7-0.8-3.7-0.9-5.5-1
					c-3.7-0.3-7.2-0.7-11-0.5c-1.2,0.1-3,0-4.2,0.6c-1.7,0.8-2.2,3-2.5,4.7c-0.1,0.8,1.1,1.2,1.3,0.4c0.2-1.1,0.5-4,2.2-4
					c0.4,0,2.3-0.3,3.2-0.4c1.8-0.2,3.6-0.1,5.4,0c2.8,0.2,5.6,0.3,8.3,0.8c1.6,0.3,3,0.8,3.9,2.2c0.9,1.5,1,3.6,1.2,5.3
					c0.4,3.4,0.7,6.8,0.9,10.3c0.3,4.9,0.7,9.9,0.8,14.8c0,2.3-0.2,4.6-2.2,6.1c-1.8,1.4-4.8,0.8-6.9,0.7c-3.9-0.2-8,0.6-11.9-0.1
					c-4.1-0.7-4.5-4.9-4.8-8.3c-0.4-6.4-0.2-12.9-0.1-19.4c0-2.7,0.1-5.5,0.1-8.2C472,706.8,470.7,706.8,470.7,707.7z"/>
			</g>
			<path d="M475.3,703.3c-0.5-1.2-0.5-2.9-1-4.1c7.4-3.7,18.8-4.1,18.3,4.5L475.3,703.3z"/>
			<g>
				<path fill="#FF8390" d="M475,719.7c0.6,3.9,0.4,7.6,0.3,11.5c-0.1,1.5,0.2,2.9,0.7,4.4c0.6,1.7,0.3,3.4,0.7,5.1
					c0.2,0.8,1.5,0.5,1.3-0.4c-0.4-1.8-0.1-3.4-0.7-5.1c-0.6-1.9-0.8-3.6-0.6-5.5c0.3-3.5,0.1-6.8-0.4-10.4
					C476.1,718.5,474.9,718.8,475,719.7L475,719.7z"/>
			</g>
			<g>
				<path fill="#FFFF22" d="M476.7,716.3c0.7,4.6,0.5,9.4,0.8,14c0.3,4-0.2,8,0.5,12.1c0.1,0.8,1.4,0.5,1.3-0.4
					c-0.8-4.4-0.3-8.9-0.6-13.3c-0.3-4.2-0.1-8.5-0.8-12.7C477.9,715.1,476.6,715.5,476.7,716.3L476.7,716.3z"/>
			</g>
			<g>
				<path fill="#FFFF22" d="M472.8,718c0,4.2,0,8.3,0.4,12.4c0.2,2.1,0.6,4.2,0.8,6.4c0.1,1.8,0.1,3.6,0.5,5.4
					c0.1,0.8,1.4,0.5,1.3-0.4c-0.4-1.9-0.4-3.9-0.5-5.9c-0.1-1.9-0.5-3.7-0.7-5.6c-0.4-4.1-0.4-8.3-0.4-12.4
					C474.1,717.1,472.8,717.1,472.8,718L472.8,718z"/>
			</g>
			<g>
				<path fill="#FF8390" d="M480.1,716.1c0,4.5,0.4,8.9,0.2,13.4c-0.1,2.3-0.4,4.5-0.6,6.7c-0.1,2-0.5,4.2-0.4,6.3
					c0.1,0.8,1.4,0.8,1.3,0c-0.2-2,0.3-4.2,0.4-6.3c0.1-2.3,0.5-4.5,0.6-6.7c0.2-4.5-0.2-8.9-0.2-13.4
					C481.4,715.2,480.1,715.2,480.1,716.1L480.1,716.1z"/>
			</g>
			<g>
				<path fill="#FF8390" d="M483.1,715.9c0,4.4,0,8.8-0.5,13.2c-0.3,2.4-0.8,4.8-1.2,7.2c-0.3,2.3-0.3,4.6-0.3,6.9
					c0,0.8,1.3,0.8,1.3,0c0-2.5,0-4.9,0.4-7.4c0.3-2,0.8-3.9,1-5.9c0.6-4.6,0.6-9.3,0.6-14C484.4,715,483.1,715,483.1,715.9
					L483.1,715.9z"/>
			</g>
			<g>
				<path fill="#FFFF22" d="M486.1,716.1c0,4.5,0,8.9-0.4,13.4c-0.5,4.6-2.1,9-1.8,13.6c0,0.8,1.4,0.8,1.3,0
					c-0.2-4.4,1.1-8.5,1.7-12.8c0.6-4.7,0.5-9.5,0.5-14.2C487.4,715.2,486.1,715.2,486.1,716.1L486.1,716.1z"/>
			</g>
			<g>
				<path fill="#FFFF22" d="M489.3,715.3c0,4.6-0.9,9.1-1.8,13.7c-0.8,4.1-1.2,8.2-1.2,12.4c0,0.8,1.3,0.8,1.3,0
					c0-4.6,0.6-9.1,1.5-13.6c0.8-4.1,1.6-8.2,1.5-12.4C490.6,714.4,489.3,714.4,489.3,715.3L489.3,715.3z"/>
			</g>
			<g>
				<path fill="#FFFF22" d="M493.1,715c0.7,4.9,1.1,9.6,1.1,14.6c0,2.3-0.2,4.7-0.4,7c-0.2,1.9-0.5,3.8,0.2,5.6
					c0.3,0.8,1.6,0.4,1.3-0.4c-0.7-1.6-0.4-3.5-0.2-5.2c0.3-2.3,0.4-4.6,0.4-7c0.1-4.9-0.4-9.7-1.1-14.6
					C494.3,714.2,493,714.2,493.1,715L493.1,715z"/>
			</g>
			<g>
				<path fill="#FF8390" d="M490.9,713.3c0,2.7,0.3,5.4,0.3,8.1c0,3.1-0.8,6.1-1.3,9.2c-0.8,4.2-2.1,8.6-0.4,12.7
					c0.4,0.8,1.5,0.1,1.1-0.7c-1.8-4.3,0.1-9.7,0.9-14c0.4-2.4,0.9-4.8,0.9-7.2c0-2.7-0.3-5.4-0.3-8.1
					C492.2,712.4,490.9,712.4,490.9,713.3L490.9,713.3z"/>
			</g>
		</g>
		<g>
			<g>
				<path d="M357.8,683.2c3.8-1.7,3.8-5.5,2.6-9c-0.7-2-1.9-3.8-2.7-5.8c-0.6-1.5,1-1.5,2-2.4c5.3-4.3,0.8-10.4-1.7-15
					c-1.1-2-3.3-5.5-1.5-7.6c1.1-1.4,3.5-1.8,5.1-1.9c2.2-0.2,4.2,0.9,6.4,1.1c4.5,0.4,8.5-4.5,12.4-6.1c4.7-2,10.2,0.4,13.8,3.4
					c6.8,5.8,9.4,15.9,8.7,24.5c-0.6,7.6-4.9,16.7-13.4,17.4c-7.1,0.6-13.7-4.7-17.3-10.3c-2.1-3.3-3.4-7.1-3.7-11
					c-0.4-5.4,1.8-10.4,4.8-14.7c4.4-6.1,13.3-13.4,20.9-8.4c5.3,3.4,6.2,11.3,12.3,13.5c2.8,1,5.8,0.9,8.5,2.3
					c4.2,2.2,0.8,7.3-1.6,9.4c-2.2,1.9-4.7,3.8-4.8,7c-0.1,3.3,2.4,5.6,2.8,8.7c0.1,0.8,1.4,0.8,1.3,0c-0.2-1.9-1-3.5-1.9-5.2
					c-1.5-3-0.8-5.7,1.6-7.9c2.8-2.7,6.6-5.1,5.7-9.7c-0.8-4-5.3-4.5-8.7-5.2c-1.9-0.4-3.7-0.8-5.1-2.2c-2-1.8-3.1-4.5-4.6-6.7
					c-2.2-3.3-5.4-6.5-9.5-7c-4.9-0.6-9.5,2.2-13.1,5.3c-7.2,6.1-11.6,15.5-9.4,25c2.7,11.5,17.5,24.5,29,15.5
					c6.2-4.8,8-14.2,7.4-21.6c-0.6-8-4.2-16.3-10.8-21.1c-3.4-2.4-7.7-3.8-11.8-3c-4.9,0.9-8.2,6.2-13.2,6.6
					c-1.9,0.1-3.8-0.9-5.6-1.1c-1.9-0.2-4,0.3-5.7,1.1c-2.2,1-3,3-2.6,5.3c0.5,2.8,2.3,5.4,3.7,7.9c1.3,2.4,3.3,5.5,2.3,8.3
					c-0.5,1.5-2.1,2.6-3.5,3.3c-0.8,0.4-1.3,1-1.1,1.9c0.7,4.1,4.7,7.6,3.4,12c-0.4,1.1-1.4,1.8-2.4,2.3
					C356.3,682.4,357,683.5,357.8,683.2L357.8,683.2z"/>
			</g>
			<g>
				<path d="M374,657.4c0.8-1.1,1.8-2,2.7-3.1c-0.2,0-0.4,0.1-0.7,0.2c0.8,0.3,1.4,0.9,1.8,1.7c0.4,0.8,1.5,0.1,1.1-0.7
					c-0.6-1.1-1.5-1.9-2.6-2.3c-0.2,0-0.5,0-0.7,0.2c-0.8,1.1-1.8,2-2.7,3.1C372.5,657,373.5,658,374,657.4L374,657.4z"/>
			</g>
			<g>
				<path d="M390,655.9c0.4-1,1.1-2.6,2.4-2.8c1.3-0.1,2.2,1.6,2.6,2.6c0.4,0.8,1.5,0.1,1.1-0.7c-0.8-1.5-1.8-3-3.6-3.2
					c-1.9-0.2-3.1,2-3.8,3.4C388.5,656,389.7,656.6,390,655.9L390,655.9z"/>
			</g>
			<g>
				<path d="M376.3,668.3c3.1,4.1,5.3,10.1,11.6,9.1c2.3-0.4,4.9-1,6.4-3c1.5-1.9,1.6-4.4,1.6-6.8c0-0.8-1.3-0.8-1.3,0
					c0,2-0.1,4.1-1.2,5.8c-1.2,1.9-4.2,2.5-6.3,2.7c-5.2,0.4-7-5.2-9.6-8.6C376.9,666.9,375.7,667.6,376.3,668.3L376.3,668.3z"/>
			</g>
			<g>
				<path d="M383.9,682.7c-10.9,0.4-10.5,16.4-10.2,24c0.5,11.1,2.6,22.1,5.3,32.9c0.2,0.8,1.5,0.5,1.3-0.4
					c-2.3-9.8-4.2-19.7-5-29.8c-0.4-5.6-0.6-11.4,0.7-17c1-4.2,3.3-8.3,8-8.5C384.8,684,384.8,682.7,383.9,682.7L383.9,682.7z"/>
			</g>
			<g>
				<path d="M393.7,682.2c3.9,2,5.3,6.4,6.1,10.4c1,5.6,0.7,11.4,0.2,17c-0.5,5.8-1.4,11.5-2.3,17.3c-0.7,4.2-1.4,8.4-1.6,12.6
					c0,0.8,1.3,0.8,1.3,0c0.2-4.6,1.1-9.1,1.8-13.6c0.9-6.1,1.8-12.1,2.3-18.3c0.4-5.5,0.5-11.1-0.6-16.5c-0.8-4-2.7-8-6.4-9.9
					C393.6,680.6,393,681.8,393.7,682.2L393.7,682.2z"/>
			</g>
			<g>
				<path d="M374.3,689.2c-5.5,6.9-6.5,16.2-5.3,24.7c1.2,8.4,5.9,16.7,5.2,25.4c-0.1,0.8,1.2,0.8,1.3,0c0.7-7.7-3.1-15.1-4.7-22.5
					c-1.9-8.9-1.5-19.2,4.4-26.6C375.8,689.5,374.9,688.6,374.3,689.2L374.3,689.2z"/>
			</g>
			<g>
				<path d="M398.2,687.1c3.9,0.6,5.7,4.6,6.8,8c1.4,4.2,1.9,8.6,2,12.9c0.2,4.2-0.1,8-1.5,12c-2,6-5.3,12-4.9,18.5
					c0,0.8,1.4,0.8,1.3,0c-0.4-7.1,3.5-13.6,5.5-20.1c1.2-3.9,1.1-8.1,0.8-12.2c-0.3-4.6-1-9.3-2.7-13.6c-1.3-3.1-3.4-6.3-7-6.8
					C397.7,685.7,397.3,686.9,398.2,687.1L398.2,687.1z"/>
			</g>
		</g>
		<g>
			<path d="M516.1,704.3c-1-9.5,18.4-5.2,17.8,0.3L516.1,704.3z"/>
			<g>
				<path fill="#54FF9E" d="M512.4,742.5c0.5-1.2,1.1-2.4,1.8-3.6c0.5-1.1,0.9-2.4,1.8-3.3c-0.4,0-0.7-0.1-1.1-0.1
					c0.8,1.2,1.2,2.9,1.5,4.3c0.1,0.7,0.5,2.1-0.5,2.3c-1.1,0.1-2.3-0.4-3.4-0.5c-0.8-0.1-0.8,1.2,0,1.3c2.2,0.3,5.2,1.5,5.3-1.7
					c0.1-2-0.7-4.6-1.8-6.3c-0.2-0.4-0.7-0.4-1.1-0.1c-0.8,0.8-1.2,1.9-1.7,2.9c-0.7,1.5-1.5,2.8-2.1,4.3
					C510.9,742.6,512.1,743.3,512.4,742.5L512.4,742.5z"/>
			</g>
			<g>
				<path fill="#54FF9E" d="M519.7,743c1.3-1.9,1.4-4.4,2.1-6.6c-0.3,0.1-0.7,0.3-1,0.4c1,0.8,1.4,2.3,1.9,3.4
					c0.3,0.8,0.9,1.4,1.2,2.1c0,0.3,0.1,0.4,0.2,0.2c-0.2,0.1-0.5,0.1-0.8,0.2c-0.5,0-1,0-1.5,0c-0.9,0-1.8-0.2-2.7-0.2
					c-0.8,0-0.8,1.3,0,1.3c1.1,0,6.3,1,6.2-1.1c0-1.1-0.8-2.1-1.5-3c-0.4-0.6-0.7-1.6-1-2.3c-0.4-0.8-0.8-1.4-1.5-1.9
					c-0.4-0.3-0.9,0-1,0.4c-0.6,2.1-0.7,4.4-1.9,6.2C518.1,743,519.3,743.7,519.7,743L519.7,743z"/>
			</g>
			<g>
				<path fill="#54FF9E" d="M526.7,742.2c0-2.1-0.2-4.1,0.2-6.1c-0.4,0.1-0.8,0.2-1.1,0.3c0.9,0.9,1.7,1.9,2.3,3
					c0.4,0.6,0.8,1.4,0,1.9c-0.5,0.3-1.2,0.4-1.8,0.6c-0.8,0.3-0.4,1.6,0.4,1.3c1.5-0.6,3.4-0.8,3.1-2.8c-0.3-1.8-2-3.5-3.2-4.8
					c-0.3-0.4-1-0.2-1.1,0.3c-0.4,2.2-0.3,4.3-0.3,6.5C525.3,743,526.7,743,526.7,742.2L526.7,742.2z"/>
			</g>
			<g>
				<path fill="#54FF9E" d="M520.3,732.9c1.9,0.8,1.9,3.7,3.6,4.9c0.3,0.2,0.8,0.1,0.9-0.2c0.4-0.9,0.8-1.9,1-2.9
					c0.3-1.1,0.7-2.2,0.6-3.3c-0.1-1-0.9-1.2-1.7-1c-0.7,0.1-1.3,0.4-2,0.5c-0.9,0.2-1.9,0.3-2.9,0.5c-0.8,0.2-0.5,1.5,0.4,1.3
					c1.1-0.4,2.3-0.4,3.5-0.7c0.4-0.1,0.9-0.3,1.4-0.4c0.4,0,0-0.2,0-0.1c0,0.2,0,0.4,0,0.5c-0.1,1.6-0.7,3.5-1.4,4.9
					c0.3-0.1,0.6-0.2,0.9-0.2c-1.8-1.2-1.5-4-3.6-4.9C520.2,731.4,519.5,732.5,520.3,732.9L520.3,732.9z"/>
			</g>
			<g>
				<path fill="#54FF9E" d="M530.5,737.6c-0.2-1.3-0.9-2.5-1.4-3.7c-0.1-0.3-0.2-0.6-0.3-0.9c0-0.1,0-0.3,0-0.4c0-0.3-0.3,0-0.1,0
					c0.6-0.1,1.3-0.1,1.9-0.1c0.6,0,1.2,0,1.9,0.1c0.2,0,0.1,0-0.1-0.1c0,0.1,0,0.2,0,0.4c0,0.4-0.2,0.8-0.4,1.1
					c-0.6,1.3-1.5,2.4-2.3,3.6c-0.4,0.8,0.7,1.4,1.1,0.7c1-1.6,2.2-3,2.7-4.9c0.1-0.5,0.2-1.5-0.3-1.9s-1.3-0.4-1.9-0.4
					c-1.1,0-3.5-0.4-3.8,1.1c-0.4,1.9,1.5,3.6,1.8,5.3C529.3,738.4,530.6,738.4,530.5,737.6L530.5,737.6z"/>
			</g>
			<g>
				<path fill="#54FF9E" d="M532.1,741c1.3-1.1,1.7-2.8,2.8-4.1c-0.4-0.1-0.8-0.2-1.1-0.3c0.2,0.9,0.3,1.9,0.3,2.7
					c0,0.4-0.7,0.4-1.1,0.4c-0.5,0.1-1,0.1-1.5,0.4c-0.8,0.4-0.1,1.5,0.7,1.1c1.1-0.5,2.9,0,3.2-1.5c0.3-1.1,0-2.5-0.3-3.6
					c-0.1-0.4-0.8-0.7-1.1-0.3c-1.1,1.3-1.5,3-2.8,4.1C530.5,740.7,531.4,741.6,532.1,741L532.1,741z"/>
			</g>
			<g>
				<path fill="#54FF9E" d="M534.8,734.1c0-1.9-0.8-3.5-1.4-5.3c-0.3-0.9-0.7-1.8,0.3-2.2c0.7-0.3,1.3-0.5,1.9-0.7
					c0.9-0.2,0,3.6-0.1,4.1c-0.4,1.7-0.8,3.3-1.9,4.6c-0.5,0.7,0.6,1.3,1.1,0.7c1.5-1.9,1.9-4.3,2.3-6.6c0.2-1.3,0.8-3.6-0.8-4.2
					c-0.9-0.3-3.9,0.7-4.4,1.5c-0.4,0.7,0,1.8,0.1,2.5c0.4,1.9,1.4,3.5,1.5,5.5C533.5,735,534.8,735,534.8,734.1L534.8,734.1z"/>
			</g>
			<g>
				<path fill="#54FF9E" d="M518.9,734.7c0-2.7,0.2-5.7-0.3-8.3c-0.4-2.1-2.3-1.6-3.8-1c-1.9,0.8-3.2,1.9-2.3,4
					c0.9,2.2,2.8,5,4.9,6.3c0.8,0.4,1.4-0.7,0.7-1.1c-1.5-0.9-2.6-2.7-3.6-4.2c-0.4-0.7-0.9-1.5-1-2.3c-0.1-0.8,1.7-1.4,2.2-1.5
					c0.6-0.3,1.4-0.6,1.7,0.3c0.2,0.8,0.2,1.8,0.3,2.7c0,1.8,0,3.6,0,5.3C517.5,735.6,518.9,735.6,518.9,734.7L518.9,734.7z"/>
			</g>
			<g>
				<path fill="#54FF9E" d="M521.6,729.4c0-1.4-0.1-2.7,0-4.1c-0.2,0.2-0.4,0.3-0.6,0.5c0.4,0,3.5,0.2,3.3,0.8
					c-0.7,1.5-3,2.3-4.2,3.3c-0.7,0.5,0.3,1.5,0.9,0.9c1.5-1.2,5-2.5,4.6-4.8c-0.2-1.5-3.5-1.5-4.6-1.5c-0.3,0-0.6,0.2-0.6,0.5
					c-0.2,1.5-0.1,3-0.1,4.5C520.3,730.3,521.6,730.3,521.6,729.4L521.6,729.4z"/>
			</g>
			<g>
				<path fill="#54FF9E" d="M528.5,729.7c-0.4-1.2-0.4-2.6-0.7-3.8c-0.1-0.6-0.3-1.2-0.3-1.8c0-0.2,1.7-0.1,1.9-0.1
					c-0.2-0.2-0.4-0.3-0.6-0.5c0.5,2-0.6,4.4-1.5,6.1c-0.4,0.8,0.8,1.4,1.1,0.7c1.1-2.1,2.3-4.7,1.6-7.2c-0.1-0.3-0.4-0.5-0.6-0.5
					c-1.4,0-3.2-0.2-3.2,1.6c0,0.8,0.2,1.6,0.4,2.4c0.2,1.1,0.3,2.2,0.6,3.3C527.5,730.8,528.8,730.5,528.5,729.7L528.5,729.7z"/>
			</g>
			<g>
				<path fill="#54FF9E" d="M530.5,724.5c2,0,4-0.1,5.8-0.7c0.3-0.1,0.5-0.4,0.5-0.6c-0.2-1.7-1.1-3.7-2.3-4.9
					c-0.3-0.3-0.7-0.2-0.9,0c-1.7,1.4-1.9,3.6-3,5.3c-0.4,0.8,0.7,1.4,1.1,0.7c1-1.6,1.2-3.8,2.8-5.1c-0.3,0-0.6,0-0.9,0
					c0.9,1,1.7,2.7,1.9,4c0.2-0.2,0.3-0.4,0.5-0.6c-1.8,0.6-3.6,0.7-5.5,0.6C529.6,723.2,529.6,724.5,530.5,724.5L530.5,724.5z"/>
			</g>
			<g>
				<path fill="#54FF9E" d="M511.6,733c0.8-1.5,1.9-2.7,3.2-3.8c-0.4,0-0.7-0.1-1.1-0.1c0.5,1.2,0.5,2.9,0.5,4.2c0,0.4,0,0.7-0.1,1
					c0,0.2,0,0.2,0,0c-0.3,0-0.5-0.2-0.7-0.3c-0.7-0.4-1.4-0.9-1.9-1.5c-0.5-0.7-1.6,0-1.1,0.7c0.7,1,4,3.9,4.9,1.8
					c0.4-1,0.2-2.3,0.1-3.4c-0.1-1-0.2-2.1-0.6-3c-0.2-0.4-0.8-0.4-1.1-0.1c-1.4,1.1-2.6,2.5-3.4,4C510,733.1,511.2,733.8,511.6,733
					L511.6,733z"/>
			</g>
			<g>
				<path fill="#54FF9E" d="M519.9,726.8c-0.4-1.1-0.4-2.5-0.4-3.7c0-0.6,0-1.1,0.2-1.7c-0.3,0.1-0.3,0.1-0.1,0.1
					c0.1,0,0.3,0.1,0.4,0.1c0.4,0.1,0.8,0.3,1.1,0.5c0.5,0.2,1,0.5,1.4,0.8c0.5,0.4-0.8,1.5-1,1.7c-1.1,1-2.4,1.6-3.4,2.5
					c-0.7,0.6,0.3,1.5,0.9,0.9c1.5-1.3,3.5-2.1,4.6-3.8c1.1-1.8-0.8-2.8-2.1-3.4c-1.4-0.7-2.9-1.2-3.2,0.8c-0.3,1.7-0.2,3.9,0.3,5.6
					C518.9,727.9,520.1,727.6,519.9,726.8L519.9,726.8z"/>
			</g>
			<g>
				<path fill="#54FF9E" d="M525.7,724.1c0-1.6-0.4-3.3,0-4.9c0.2-0.9,1.6,0.4,1.7,0.6c0.6,0.6-0.3,1.3-0.6,1.7
					c-0.7,0.8-1.4,1.6-2,2.5c-0.5,0.7,0.4,1.6,0.9,0.9c1.1-1.3,2.6-2.7,3.2-4.2c0.5-1.3-1.2-2.7-2.3-3c-3.4-1.1-2.3,4.9-2.3,6.4
					C524.4,724.9,525.7,724.9,525.7,724.1L525.7,724.1z"/>
			</g>
			<g>
				<path d="M523.6,705.1c2.4,0,4.9-0.3,7.2,0.2c3,0.7,4.5,3.5,5.2,6.2c1.4,4.8,0.8,10,0.8,14.9c0.1,3.8,1.2,7.5,1.5,11.4
					c0.2,2.1,0.1,4.5-1.4,6.1c-1.1,1.1-3.2,0.7-4.6,0.5c-1.6-0.1-3.2-0.1-4.8-0.2c-3.1-0.1-6.1-0.2-9.2-0.1c-1.7,0-3.5,0.1-5.1-0.7
					c-1.2-0.5-1-2.5-1.1-3.5c-0.8-6.6-1.2-12.9-0.9-19.5c0.3-4.9,1.2-10.2,4.5-14C517.5,704.6,521.3,705.2,523.6,705.1
					c0.8,0,0.8-1.4,0-1.3c-2.2,0.1-5.2-0.4-7.2,0.6c-3.1,1.5-4.8,6.4-5.5,9.5c-1.5,6.2-1.4,13.3-0.8,19.6c0.3,2.9,0.6,5.8,1.1,8.6
					c0.3,1.8,1.1,2.5,2.7,3.1c2.6,0.9,5.9,0.3,8.6,0.4c3.6,0.1,7.2,0,10.7,0.4c2,0.2,3.8,0.2,5.2-1.3c1.1-1.2,1.5-3.1,1.5-4.7
					c0.3-4.2-1.3-8.2-1.5-12.3c-0.3-4.9,0.2-9.8-0.6-14.7c-0.4-2.8-1.6-6.1-4.2-7.8c-3-1.9-6.5-1.4-9.9-1.3
					C522.8,703.8,522.8,705.1,523.6,705.1z"/>
			</g>
		</g>
		<g>
			<g>
				<path d="M259.4,747.9c0,12.2,0.4,24.5,2.7,36.6c0.3,1.7,2.9,1,2.6-0.7c-2.2-11.8-2.6-23.9-2.6-35.9
					C262,746.1,259.4,746.1,259.4,747.9L259.4,747.9z"/>
			</g>
			<g>
				<path d="M555.7,747.4c0,11.3-1.8,22.4-3.1,33.6c-0.2,1.7,2.5,1.7,2.6,0c1.3-11.2,3-22.3,3.1-33.6
					C558.4,745.7,555.7,745.7,555.7,747.4L555.7,747.4z"/>
			</g>
			<g>
				<path d="M411.4,744.7c4.4-6.6-5.7-6.4-9.6-6.2c-11.8,0.7-23.7,0.4-35.5,0.4c-0.3,0-0.6,0.2-0.6,0.5c-0.5,1.8-0.8,3.8,0.1,5.5
					c0.4,0.8,1.5,0.1,1.1-0.7c-0.7-1.3-0.3-3.1,0.1-4.5c-0.2,0.2-0.4,0.3-0.6,0.5c6,0,12,0,18,0c4.7,0,9.5,0.2,14.2-0.1
					c2.9-0.2,5.7-0.4,8.6-0.3c1.2,0.1,2.6,0.3,3.6,0.9c1.3,0.8,0.2,2.5-0.4,3.3C409.8,744.7,411,745.4,411.4,744.7L411.4,744.7z"/>
			</g>
			<g>
				<path fill="#005B52" d="M244.3,749.2c5.7-0.5,11.6-0.4,17.3-0.4c8.7,0,17.4,0.2,26.1,0.4c16.4,0.4,32.8,0.9,49.2,0.8
					c29.1-0.2,58.2-0.9,87.4-0.8c29.1,0.1,58.2,0.5,87.2,0.7c22,0.1,44.1,0.1,66.2,0.1c3.4,0,3.4-5.3,0-5.3
					c-57.9,0-115.7-0.9-173.6-0.9c-27.1,0-54.2,1.1-81.2,0.9c-15.9-0.2-31.8-0.8-47.7-1c-10.2-0.2-20.7-0.8-31,0.2
					C241,744.2,240.9,749.5,244.3,749.2L244.3,749.2z"/>
			</g>
		</g>
	</g>
	<g id="CTA_2_">
		<rect id="board_1_" x="328.7" y="492.3" fill="#F7E74D" width="159.8" height="41.9"/>
		<path id="shadow_2_" fill="#F2C446" d="M379.2,507h10.2l2,2.2V507h4.2c0,0,2.3,0,3.5,1.4l6,6l-4.5-7.4h1.7l4.8,4.8l2.9-4.8
			l1.8-0.1l5.4,6.1v-6.1h1.7l6.8,7v-7h1.7l2.6,3c0,0,0.5-3.1,3.7-3.2c0,0,1.7-0.1,3.2,0.8c1.5,0.9,27.1,26.6,27.1,26.6h-66.4
			l-14.5-14.3v-7.6l-4.2-3.9L379.2,507z"/>
		<g id="text_1_">
			<path fill="#9F0018" d="M389.3,508.4h-4.2v11.5h-1.7v-11.5h-4.2V507h10.2V508.4z"/>
			<path fill="#9F0018" d="M400.9,519.8h-1.5c-0.3,0-0.6-0.1-0.7-0.4l-3.3-4.6c-0.1-0.1-0.2-0.2-0.4-0.3c-0.1-0.1-0.3-0.1-0.6-0.1
				H393v5.4h-1.7v-13h3.7c0.8,0,1.5,0.1,2.1,0.2c0.6,0.1,1.1,0.4,1.5,0.7c0.4,0.3,0.7,0.7,0.9,1.2c0.2,0.4,0.3,0.9,0.3,1.5
				c0,0.4-0.1,0.9-0.2,1.3c-0.1,0.4-0.4,0.7-0.7,1.1c-0.3,0.4-0.6,0.6-1,0.8c-0.4,0.2-0.9,0.4-1.4,0.5c0.2,0.1,0.4,0.3,0.6,0.6
				L400.9,519.8z M394.9,513.2c0.5,0,0.9-0.1,1.4-0.2c0.4-0.1,0.7-0.3,1-0.5c0.3-0.2,0.4-0.5,0.6-0.8c0.1-0.3,0.2-0.7,0.2-1
				c0-0.8-0.3-1.4-0.8-1.7c-0.5-0.4-1.3-0.6-2.3-0.6h-2v4.9L394.9,513.2L394.9,513.2z"/>
			<path fill="#9F0018" d="M407.1,514.7v5.1h-1.7v-5.1l-4.8-7.8h1.5c0.1,0,0.3,0.1,0.4,0.1c0.1,0.1,0.1,0.1,0.2,0.3l3,5.1
				c0.1,0.2,0.2,0.4,0.3,0.6c0.1,0.2,0.1,0.4,0.2,0.6c0.1-0.2,0.1-0.4,0.2-0.6c0.1-0.2,0.1-0.4,0.3-0.6l3-5.1
				c0.1-0.1,0.1-0.2,0.2-0.3c0.1-0.1,0.2-0.1,0.4-0.1h1.5L407.1,514.7z"/>
			<path fill="#9F0018" d="M422.5,518.5c0.5,0,1-0.1,1.5-0.3c0.4-0.2,0.8-0.4,1.1-0.8c0.3-0.3,0.5-0.7,0.7-1.2
				c0.1-0.4,0.2-0.9,0.2-1.5v-7.8h1.7v7.9c0,0.7-0.1,1.4-0.4,2.1c-0.2,0.6-0.6,1.2-1,1.7c-0.4,0.4-1,0.9-1.6,1.1
				c-0.7,0.3-1.4,0.4-2.2,0.4c-0.8,0-1.5-0.1-2.2-0.4c-0.7-0.3-1.2-0.7-1.7-1.1c-0.4-0.4-0.8-1-1-1.7c-0.2-0.6-0.4-1.3-0.4-2.1v-7.9
				h1.7v7.9c0,0.6,0.1,1,0.2,1.5c0.1,0.4,0.4,0.9,0.7,1.2c0.3,0.3,0.7,0.6,1.1,0.8C421.4,518.4,421.9,518.5,422.5,518.5z"/>
			<path fill="#9F0018" d="M437.4,508.9c-0.1,0.1-0.1,0.1-0.1,0.2c-0.1,0.1-0.1,0.1-0.2,0.1c-0.1,0-0.2-0.1-0.4-0.1
				c-0.1-0.1-0.3-0.2-0.5-0.4c-0.2-0.1-0.4-0.2-0.7-0.4c-0.3-0.1-0.7-0.1-1.1-0.1c-0.4,0-0.7,0.1-1,0.1c-0.3,0.1-0.6,0.2-0.7,0.4
				c-0.2,0.2-0.4,0.4-0.4,0.7c-0.1,0.2-0.1,0.5-0.1,0.8c0,0.4,0.1,0.7,0.3,0.9c0.1,0.2,0.4,0.4,0.7,0.6c0.3,0.1,0.7,0.3,1,0.4
				c0.4,0.1,0.7,0.2,1.2,0.4c0.4,0.1,0.8,0.3,1.2,0.4c0.4,0.1,0.7,0.4,1,0.7c0.3,0.3,0.5,0.6,0.7,0.9c0.1,0.4,0.3,0.8,0.3,1.4
				c0,0.6-0.1,1.1-0.3,1.6c-0.2,0.5-0.5,0.9-0.9,1.3c-0.4,0.4-0.8,0.6-1.4,0.9c-0.5,0.2-1.2,0.3-1.8,0.3c-0.9,0-1.6-0.1-2.3-0.4
				c-0.7-0.3-1.3-0.7-1.7-1.2l0.5-0.8c0.1-0.1,0.1-0.1,0.1-0.1c0.1-0.1,0.1-0.1,0.2-0.1c0.1,0,0.1,0,0.3,0.1
				c0.1,0.1,0.2,0.1,0.4,0.2c0.1,0.1,0.3,0.2,0.4,0.3c0.1,0.1,0.4,0.2,0.6,0.3c0.2,0.1,0.4,0.1,0.7,0.2c0.3,0.1,0.6,0.1,0.9,0.1
				c0.4,0,0.8-0.1,1.1-0.1c0.3-0.1,0.6-0.3,0.8-0.5c0.2-0.2,0.4-0.4,0.5-0.7c0.1-0.3,0.2-0.6,0.2-0.9c0-0.4-0.1-0.7-0.3-0.9
				c-0.1-0.2-0.4-0.4-0.7-0.7c-0.3-0.1-0.7-0.3-1-0.4c-0.4-0.1-0.7-0.2-1.2-0.4c-0.4-0.1-0.8-0.3-1.2-0.4c-0.4-0.1-0.7-0.4-1-0.7
				c-0.3-0.3-0.5-0.6-0.7-0.9c-0.1-0.4-0.3-0.9-0.3-1.4c0-0.4,0.1-0.9,0.3-1.3c0.1-0.4,0.4-0.8,0.8-1.2c0.4-0.4,0.8-0.6,1.2-0.8
				c0.5-0.2,1.1-0.3,1.7-0.3c0.7,0,1.4,0.1,2,0.4c0.6,0.2,1.1,0.6,1.6,1L437.4,508.9z"/>
		</g>
	</g>
</g>
</svg>
