<?xml version="1.0" encoding="utf-8"?>
<!-- Generator: Adobe Illustrator 16.0.0, SVG Export Plug-In . SVG Version: 6.00 Build 0)  -->
<!DOCTYPE svg PUBLIC "-//W3C//DTD SVG 1.1//EN" "http://www.w3.org/Graphics/SVG/1.1/DTD/svg11.dtd">
<svg version="1.1" id="Layer_1" xmlns="http://www.w3.org/2000/svg" xmlns:xlink="http://www.w3.org/1999/xlink" x="0px" y="0px"
	 viewBox="0 0 1920 1080" enable-background="new 0 0 1920 1080" xml:space="preserve" preserveAspectRatio="none">
<g id="page_x5F_fills_x5F_blue">
	<rect id="fill_x5F_2" fill="#CCD9ED" width="1920" height="1080"/>
</g>
<g id="wall_x5F_fill">
	<polygon id="wall_x5F_fill_x5F_1" fill="#E5E5B5" points="1920,257 1175.4,257 1175.4,961 1564.3,961 1564.3,321.1 1838.5,321.1 
		1838.5,961 1920,961 	"/>
</g>
<g id="wall_x5F_frames">
	<rect x="1270.2" y="257" fill="#CCD9ED" width="38.1" height="525.1"/>
	<rect x="1175.4" y="406" fill="#CCD9ED" width="744.6" height="38.1"/>
	<rect x="1175.4" y="744" fill="#CCD9ED" width="744.6" height="38.1"/>
</g>
<g id="ground_x5F_roof">
	<polygon id="ground_x5F_fill_1_" fill="#353229" points="1920,1080 0,1080 0,1045.3 67,1045.3 67,1010.7 134,1010.7 134,976 
		201,976 201,941 234.8,941 269,941 1920,941 	"/>
	<polygon id="roof_x5F_1" fill="#353229" points="1920,257 940.6,257 1172.6,137.8 1920,137.8 	"/>
</g>
<g id="doors">
	<g id="door_x5F_1">
		<rect x="1564.3" y="321.1" fill="#26241E" width="274.2" height="619.9"/>
		<rect x="1774" y="652.6" fill="#B59D26" width="48" height="9.4"/>
	</g>
</g>
<g id="characters_x5F_outdoor_x5F_fills">
	<g id="discovery">
		<polygon fill="#5E523A" points="510.8,957 413.3,957 432.5,889.9 413.3,823.1 510.8,823.1 492.5,889.9 		"/>
		<polygon fill="#5E523A" points="1135.7,941 1049.8,941 1066.8,881.9 1049.8,823.1 1134.7,823.1 1118.6,881.9 		"/>
		<polygon fill="#5E523A" points="847.9,941 762.1,941 779,881.9 762.1,823.1 847.9,823.1 831.9,881.9 		"/>
		<polygon fill="#5E523A" points="1386.7,957 1289.2,957 1308.5,889.9 1289.2,823.1 1386.7,823.1 1368.5,889.9 		"/>
		<path fill="#605B1F" d="M887.3,952.3c0,0-16.3,4.601-23.7,3c-7.399-1.6-20.8,0-24.199-2.3c-3.4-2.3,1.3-13.2,6.899-12.7
			c5.601,0.5,10.101-12.3,11-13.5c0.9-1.2,2.3-2.7,2.3-2.7l6.5-1.199c0,0-1.899,8.199-4.399,13.399c0,0,0.399-0.8,5.5,1.8
			c0,0,9.3-16.199,9.7-14c0.399,2.2,11.199,0.5,11.199,0.5s1,13.7,4,17.2c0.5,6.3-1.199,18.2-5.399,14.4L887.3,952.3z"/>
		<path d="M862.6,925.4l15.301,0.3L871.3,941c0,0-5.3-5.4-10.5-3.6C855.6,939.2,862.6,925.4,862.6,925.4z"/>
		<path fill="#353535" d="M840.4,954l4.399,0.3l-3.8,2.4C841,956.7,839.8,954.9,840.4,954z"/>
		<path fill="#353535" d="M864.6,955.6c0,0,17.801-0.5,22.7-3.3c0,0,1.5,2.5,1.2,4.7s-7.4,4.1-17.5,5.3S863.9,957.7,864.6,955.6z"/>
		<path fill="#FFFFFF" d="M788,639.7c0,0,14.4,29.399,44.1,2.7c0,0,0.601,3.399,18,6.8c11,3.6,13.2,19.5,15,19.8
			c8.101,8.7,23.5,19.8,24.601,26.8l-22.601,7.4l-20.3-16.5c0,0-14.2,79.8-4.2,85.399c10,5.601-13.199,3.801-22.6,6.9
			c-7.3,2.4-11.9,7.1-11.9,7.1S800.9,797,751.4,770c0,0,16.6-55.5,11.6-66.3s-20-1-20-1s4.3-41.601,15-49.9
			C770.9,644.2,788,639.7,788,639.7z"/>
		<path fill="#EEFF2F" d="M769,676.8c0,22.2,0.7,44.3,0.8,66.5c0,5.8,9,5.8,9,0c0-22.2-0.7-44.3-0.8-66.5
			C778,670.9,769,670.9,769,676.8L769,676.8z"/>
		<path fill="#DB2A00" d="M799.2,677.9c0.899,6-0.3,12.1-0.8,18.1c-0.5,6.7-0.5,13.5-1.2,20.2c-0.7,6.899-2.5,13.7-3.5,20.6
			c-0.9,6.5-1.4,13.101-1.4,19.7c0,5.8,9,5.8,9,0c0.101-13.7,3.3-26.7,4.9-40.2c0.8-6.7,0.899-13.5,1.2-20.2
			c0.399-7,1.5-13.5,0.5-20.5C807,669.8,798.3,672.3,799.2,677.9L799.2,677.9z"/>
		<path fill="#0057B6" d="M826.5,677.8c-1.6,21.4-9.8,41.4-14.1,62.3c-1.2,5.7,7.5,8.101,8.699,2.4c4.4-21.7,12.7-42.5,14.4-64.7
			C835.9,672,826.9,672,826.5,677.8L826.5,677.8z"/>
		<path fill="#C1A868" d="M760.5,681.7c0,0,4.9-0.4,8.3,5.6c3.4,6,0.2,0.3,0.2,0.3s5.4,1.4,5.5,2.101s1.4,7.3-3.5,7.5
			s-3.2,0.8-3.2,0.8s-2.899,7.9-10.2,8.3c-7.399,0.4-12.1,0.5-15.1-0.399c-3-0.9,3.5,18,6.3,21.399c2.8,3.4,10.7,24,10.7,26.4
			c0,2.399-3.6,18.899-13.9,18.6c-10.3-0.3-13.399-10.5-14.399-22.2c0,0-3.4-19.899-2.601-37.6c0,0,1.7-12.1,4.301-14.8
			c2.6-2.7,6.699-5.7,8.3-6C742.7,691.2,754.1,680.8,760.5,681.7z"/>
		<path d="M1047.9,775.5c0,0,80.8,8.3,85,0.5c0,0,10.1,15.9,7.5,22.9c0,0,2.399,4.899-2.601,14.8c-5,9.899-2.7,7.3-2.7,7.3
			s-23.699,9.2-35.899,4c0,0-1.3-2.6-12.4-1.9C1076,823.9,1073,824,1073,824l-35-6.9c0,0-5.8-7.1-5.4-11.899
			c0.4-4.8,5.601-15.601,6.4-15.8C1039.8,789.2,1047.9,775.5,1047.9,775.5z"/>
		<path fill="#29301E" d="M752,771c0,0,42.3,19.3,46.5,16.4c12.6,0.8,12.9-6.301,21.5-8.4c0,0,18.6,1.8,19.8-3.5s31.8,8.1,32.3,24.7
			c0,0,2.2,4,0,11.399c0,0,5.2,22.9,3.5,22.9c-1.699,0,3.7,16.1,3.7,16.1s22.3,45.2,9.601,73.301c0,0-21.101,6.5-30.9-0.601
			c0,0-3.6-30.6-19.1-60.6c0,0-16.101-32-14.801-38.5L798.7,823.1c0,0-14.5,3.801-24.7,0.9c-10.2-2.899-19.1,4.3-19.1,4.3
			s2.5,85-4.101,88.2c-10.1,18.7-30,9.7-37.7,15.2c0,0-19.699-47,1.2-121.3c0,0-8.2-9,16.601-30.2C731,780.1,743.3,766.2,752,771z"
			/>
		<path fill="#5D6326" d="M864.9,816.8l13.8,2.9c0,0,17.8,37.399,9.3,37.6s-8-4.399-8-4.399L864.9,816.8z"/>
		<path d="M712.5,956c0,0,8.7,3.8,25.8-0.1c-5.1,0.1-8.1-15.2-11.7-12C721.1,942.6,718.3,955.3,712.5,956z"/>
		<rect x="888.5" y="720.1" fill="#5E523A" width="23" height="236.9"/>
		<path fill="#40001E" d="M1078.3,654.2c0,0,5.4,9.8,18.101,9c12.699-0.8,17.899-6.5,17.899-9.7c0,0,5.101,4.9,15.101,6.7
			s19.899,9,18.199,18c-1.699,9,4.2,22.1,2.601,29.1c-1.601,7-2.5,7.8-2.5,7.8s-15.8,2.2-18.2-0.399c-2.4-2.601-6.5,9.3-6.5,9.3
			s-0.3,20.1,1.7,28.8s9.3,14.8,9,26.2s-71.7,10.5-86.4,0c1.3-13.5,14-27,15.7-37.2c0,0,0.8-13.6-2.7-16.1s-13-15.7-13-15.7h-6
			l-6.2-14.8c0,0-2-23.8,7.801-29.2c0,0,5.8-4,16.399-5.9C1069.9,658.2,1078.1,656,1078.3,654.2z"/>
		<path fill="#E5D295" d="M1040.4,817.6c0,0-9-5.699-5.601-15.399c1.3-3.7,4.601-8.101,12.9-9c13.5-1.8,20.8,0.2,22.7,2.1
			c1,0.9,9.6,0.4,10.399,10.3c0.8,9.9-0.5,10.4-2.1,11.9c-1.601,1.5-6.8,6.3-6.8,6.3L1040.4,817.6z"/>
		<path fill="#E5D295" d="M1131.5,824.5c0,0,7.6-11.4,7-21.3c-0.6-9.9-21.4-10.9-20.8-9.5c0,0-20.8,2.3-22,15.2
			c-1.2,12.899,2.2,12.8,2.2,12.8l3.3,3.6L1131.5,824.5z"/>
		<g>
			<path fill="#C4C4C4" d="M1040.6,791.8l-1.6,2.3c0,0,37.6,1.5,42.9,3c0,0,0.1,1.101,2.199,0c2.101-1.1,38.9-5.6,38.9-4.8
				c0,0-0.2-2.7-1.6-2.6l-38.101,5.7l-2,0.1C1081.4,795.5,1043.7,790.5,1040.6,791.8z"/>
			<path fill="#FFFFFF" d="M1063,774l19.2,3l25.399-6.2c0,0,13.5,13.7,13.601,17c0.1,3.3-38.7,7.3-38.7,7.3s-41.6-7-41.9-3.5
				C1040.6,791.5,1050.2,778.8,1063,774z"/>
		</g>
		<path fill="#E5D295" d="M1039,807.2c0,0,7.8-15.2,17.1-10.2c9.301,5,15.601,9.4,16.2,12.6c0.601,3.2,1.4,13.601,0.7,16.801
			c-0.7,3.199-2.5,10.1-2.5,10.1s2.2,12.3,1.3,20.8c-0.899,8.5-6.1,36.5-6.1,36.5s-5.101,31.8-3.5,32.4c0,0-5.9,7.3-12.4,4.899
			c0,0-1.899-24.699-6.3-36.1s-10.2-62.3-4.5-75.8C1039,819.2,1037.7,811.8,1039,807.2z"/>
		<path fill="#E5D295" d="M1104,809.3c0,0,7.4-13.3,15.7-11.7c8.3,1.601,16,10.7,16,10.7s1.6,5.9,0,9.7
			c-1.601,3.8-1.101,9.1-1.101,9.1s7.801,11.301-0.699,47.601s-15.2,43.399-12.301,49.2c0,0-11,2.8-12.199-1.101
			c0,0,2.6-14.3-2-37.3c-4.601-23-4.101-41.9-1.101-53.1C1106.4,832.4,1101.2,822.5,1104,809.3z"/>
		<path fill="#E5D295" d="M1129.9,723.4c0,0,18.6-2.101,18.5-0.601c-0.101,1.5,3.899,23.101,2.6,28.7c0,0,0.2,6.7-0.5,6.7
			s-4.1,9-15.2,12.8c-11.1,3.8-17.7,10.6-17.8,9.9l-2.4,0.899c0,0-0.899,5.2-2.5,7.8c-1.6,2.601,0,3.801-3.5,6.5
			c-3.5,2.7-16.3,5-16.3,5s-6.2,2.101-7.399-4.3c-1.2-6.399,0.5-7.8,0.5-7.8s-3.101,3.6-8.7,3.2c-5.601-0.4-1.2-3,0-3.8
			s4.7-2.5,6.1-4.8c1.4-2.301,4.2-3.801,4.2-3.801l4.6-2.8c0,0,7.7-6.3,14-6.1c0,0,15.101-4.9,25.9-19.4c0,0,2.1-3,3.3-4.5
			C1135.3,747,1130.9,723.8,1129.9,723.4z"/>
		<ellipse id="table" fill="#353229" cx="900" cy="720.1" rx="389.2" ry="12"/>
		<rect x="547.3" y="706.5" width="99.4" height="11.7"/>
		
			<rect x="652.12" y="629.989" transform="matrix(-0.9185 -0.3954 0.3954 -0.9185 990.0729 1546.9558)" width="4.699" height="82.898"/>
		<g>
			<path fill="#B75925" d="M601.3,688.1c0,0,11.9-6.8,24.7,0l1.3,31.5c0,0-12.8,6-25.899,0.601L601.3,688.1z"/>
			<path fill="#B75925" d="M601.3,693.1c0,0-10.1-3.3-10.8,6.301c-0.7,9.6-3.6,20.699,10.8,16.899V713c0,0-8.5,3.4-8.6-2.9
				c0,0,0.899-12.1,1.5-12.899c0.7-1.101,1.899-2.3,7.1-0.4V693.1z"/>
		</g>
		<g>
			<path fill="#B75925" d="M776.3,682.3c0,0,9.5-6.3,24.7-1.2l0.2,31.2c0,0-15.2,0.4-25,0L776.3,682.3z"/>
			<path fill="#B75925" d="M776,684c0,0-5.1-1.2-7.5,3.9l3.5,0.6c0,0,0.8-3.2,4-1.8V684z"/>
			<path fill="#B75925" d="M775.8,702.8v2.9c0,0-8.7,3.3-7.899-7.8l2.399-0.101C770.3,697.8,768.8,705.1,775.8,702.8z"/>
		</g>
		<path fill="#B75925" d="M965.3,682c0,0,15.4-7.9,28.8-1l-1.8,32.5c0,0-22.5,6.3-27.7-0.5L965.3,682z"/>
		<g>
			<path fill="#B75925" d="M999.8,680c0,0,22.4-4.2,24.3,0l-0.3,33c0,0-8.5,5.5-23.8,0.9L999.8,680z"/>
			<path fill="#B75925" d="M1024.5,684.1c0,0,10.3,0.5-0.3,22.2v-6.8c0,0,3.6-10.5,0-10.5L1024.5,684.1z"/>
		</g>
		<path fill="#C1A868" d="M886.8,695.2c0,0,15.5,11.8-1.1,14.8c-16.601,3-43.9-1.2-47.8-1c-4.4,0.3-36.801-1-36.801-1v-7.6
			c0,0,4-2.601,11.9-2.601s33.3-11.7,37.4-11.399C854.5,686.7,867.3,678.7,886.8,695.2z"/>
		<path fill="#5D6326" d="M714.4,810.3L694.8,821c0,0-4,32.6,1.8,36.3c5.801,3.7,9.601-4.399,9.601-4.399L714.4,810.3z"/>
		<path fill="#29301E" d="M714.4,810.3L694.8,821l-0.6,6l17.2-1C711.4,826,717.8,810.7,714.4,810.3z"/>
		<path fill="#29301E" d="M864.9,816.8l13.8,2.9l3.3,7.2c0,0-10.8,2.6-14.9,2.3C863,828.9,864.9,816.8,864.9,816.8z"/>
		<path d="M841,956.7c0,0,2.3,8.899,31.3,5.2c-7.2-3.7-16.1-17.601-18.899-15.601C845.6,945.1,847.3,955.5,841,956.7z"/>
		<path fill="#353535" d="M732.3,948.5c0,0,16.7-0.7,17.8-2.5c1.101-1.8,3,9.8-11,9.8C739,955.8,730.1,953.8,732.3,948.5z"/>
		<path fill="#353535" d="M702.4,948c0,0,7.6,4.2,16.8,1.9c-5.9,7.699-8.4,6.1-8.4,6.1S703.6,954.9,702.4,948z"/>
		<path fill="#605B1F" d="M711.3,927.4l1.9,4.3l10.7-2.2l1.6,6.3c0,0,1.7-2.8,6.8-0.8c5.101,2,0,0.1,0,0.1s2.2-4.5,2.9-6.8
			c0,0,10.5-2.6,11.7-6c0,0,6,2.5,1.1,11.7c1.9,9.9,3,14.5,3,14.5s-43.8,7.2-48.8-1.3c3.5-5.8,5.3-5.5,5.3-5.5L711.3,927.4z"/>
		<path d="M723.9,929.4c0,0,5.8-1.7,10.399-0.9l-2.1,6.6l-6.8,0.601C725.5,935.8,723.6,933.8,723.9,929.4z"/>
		<g id="dali_x5F_face">
			<path fill="#CEA64A" d="M499.4,541l3-1.3c0,0,15.899,6.2,20.6,11.3s3.2,18.9,3.1,19.1c-0.1,0.2,2.5,37.7-36,31.5
				C477,593.9,477.9,573,477.9,573s0.3-13.7,4.1-18.7S488.9,543.3,499.4,541z"/>
			<path fill="#1D1100" d="M489.2,536.5c0,0,7.3-4.4,10.8,4.2c0,0-4.5,4-5.7,4.8c0,0-4.899,4.9-12.5,15.1
				c-2.8,2-3.8,18.301-3.8,18.301s-7.3-0.301-9.2-1.5c-6.399-4,5.5-18.601,7.4-30.801C476.2,546.7,479.4,539,489.2,536.5z"/>
			<path fill="#1D1100" d="M499.3,541.3c0,0,3.9-1.2,11.7,2.2s12.6,8.3,12.9,8.8c0.3,0.5,2.5,6.7,1.699,7c-0.8,0.3,2.9-7-1.8-12
				c0,0-5.2-17.1-14.2-14.8s-8.3-2.8-16.899,3.2"/>
			<path fill="#CEA64A" d="M480.2,561.5c0,0-5.5-5.1-8.4,1.1c-2.899,6.2,1.601,12.5,3.9,12.5s2.899-1.3,2.899-1.3L480.2,561.5z"/>
			<path d="M495.5,561.3c2.4-0.399,4.8-0.5,7.2-0.399c2.399,0,4.7-0.301,6.899,1c1.7,1,3.2-1.601,1.5-2.601
				c-2.1-1.2-4.1-1.399-6.399-1.399c-3.4,0-6.7,0-10,0.6C492.8,558.7,493.6,561.6,495.5,561.3L495.5,561.3z"/>
			<path d="M516.3,564c1.8,0,6.601-1.4,7.7,0.5c1,1.7,3.6,0.2,2.6-1.5c-2-3.6-7-2.1-10.3-2C514.3,561,514.3,564,516.3,564L516.3,564
				z"/>
			<path d="M505.1,584.3c-2.199,0-4.5-0.1-6.1-1.8c-1.3-1.4-3.4,0.7-2.1,2.1c2.1,2.4,5.199,2.7,8.199,2.7
				C507.1,587.3,507.1,584.3,505.1,584.3L505.1,584.3z"/>
			<path d="M509.4,588.3c2.3,0,4.5-0.1,6.6-0.899c1.8-0.7,1-3.601-0.8-2.9c-1.9,0.8-3.8,0.8-5.9,0.8
				C507.4,585.3,507.4,588.3,509.4,588.3L509.4,588.3z"/>
			<path d="M498.6,583.3c-1.6-4.2-3.5-8.1-3.6-12.7c0-1-1.5-1-1.5,0c0.1,4.7,2,8.7,3.7,13.101C497.5,584.6,498.9,584.2,498.6,583.3
				L498.6,583.3z"/>
			<path d="M516.4,586.3c3.5-3.8,5.6-8.399,6.899-13.3c0.2-0.9-1.2-1.3-1.399-0.4c-1.301,4.7-3.2,9.101-6.601,12.7
				C514.7,585.9,515.7,587,516.4,586.3L516.4,586.3z"/>
			<path fill="#FFFFFF" d="M497.3,588.1c0,0,13.9,2.5,16.3,2C513.5,590.1,502.7,599.5,497.3,588.1z"/>
			<ellipse fill="#FFFFFF" cx="502.3" cy="566.1" rx="3.8" ry="2.4"/>
			
				<ellipse transform="matrix(-0.1549 0.9879 -0.9879 -0.1549 1162.8658 141.4683)" fill="#FFFFFF" cx="520.927" cy="568.089" rx="1.9" ry="2.6"/>
			<path fill="#CEA64A" d="M479.7,584.6c0,0-4.7,17.5-8,18.4c0,0,18.2,16.4,13.899,28.2h2.7c0,0-0.3-6.2,7.2-11.4
				c0,0,0-12.1,2.9-18.1C498.4,601.7,484.5,605,479.7,584.6z"/>
		</g>
		<path fill="#CEA64A" d="M527.9,621.6c0,0-5.9,13.5-4.301,28C530.9,655.9,551.4,631.4,568.9,624.9c0,0,6.899,2.199,32.3-17.4
			c25.399-19.6,26-28.6,34.7-30.3c8.6,0,8.899,5.1,16.3,2.899c2.7,1.101-3.8,3.301-3.8,3.301s4.3,2.399,10.8-2.5
			c6.5-4.9,3-2.5,3-2.5s12.899-6.5-4.5-13.9c0,0,6.3-6.1,17-6c0,0,5-0.6,5.1-3.3c0.101-2.7-16.2-0.7-17.3,1s-23.6,9.5-27.3,8.399
			c-3.7-1.1-23.3,9.601-30.4,16.5c-5.6,5.9-21,16.801-21,16.801S544.3,616.7,527.9,621.6z"/>
		<path fill="#001221" d="M421,787.3c0,0,4.7-39,181.3,0.3c0,0,12.8,1.9,10.5,63.101c0,0,13.2,85.899,6.4,86
			c0,0-12.3,9.3-47.101,0.5L573,877.6c0,0-2.3-55,2-58.699c0,0-55.8-5.801-73.5,2.199c0,0-56,9.801-74.2,1
			C416.3,806.3,420,798.9,421,787.3z"/>
		<path fill="#001221" d="M611,809c0,0,49.5,120.5,40,122s-29.8-1-29.8-1S606.5,809.2,611,809z"/>
		<path fill="#AB9AFF" d="M471.7,729.7c0,0-5,4.8-16.601,3.899c-11.6-0.899-23.1-46.1-23.1-46.1c7.7-8,21.8-12.5,21.8-12.5
			c0.5,5,8.8,18.3,8.7,26.1c5.1-1.1,25-6.5,35.6-9.399c-0.1-15.3-0.199-27.4,0.2-29.2c1.101-5.5,26.8-2.5,29.601-3.5
			c2.8-1,4.199-9.8,4.199-9.8c-3.3,1.899-8.199,0.5-8.199,0.5c-1.101-5.2,6.3-32.4,4.3-28.601c-2,3.801-17.4,3.101-18,3.4
			c-0.601,0.3-12.8-1.7-12.2-2.1c0.6-0.4,0.6-5.301,0.6-5.301c-9.5,5.101-10.1,14.101-10.1,14.101h-2.7
			C491.2,621.1,471.9,603,471.9,603c-12.801,5.5-31.5,4.9-38.5,12c-18.2,7.1-6.101,68-6.101,68c-13.6,37-11.2,99-9.2,91
			s68.5,2,75.5-6.7c3.5-4.399,4.4-29.899,4.601-54.7C484.7,720.8,471.7,729.7,471.7,729.7z"/>
		<path fill="#A08A00" d="M484.9,633.7h2.8l0.8,3.3c0,0-4.6,88.1,3.4,93.5c1.3,18-7.101,20.3-7.101,20.3s-11.399-38.5-6.3-66.5
			s5.1-48,5.1-48L484.9,633.7z"/>
		<path fill="#CEA64A" d="M453.7,675c0,0-14.101,4.6-21.8,12.5c0,0,11.5,45.2,23.1,46.1c11.6,0.9,16.6-3.899,16.6-3.899
			s46.301-31.5,53.2-30.3c0,0,16.601-1.5,17.4,0s6.899,5,19.7,0c12.1-2.2,11.699,5,11.699,5l3.301,0.8l0.399-1.7
			c0,0-6.1-12.1-10.5-13.3c0,0-7.5-8.2-24.1-5.2c-16.601,3-38.101,4.9-38.101,4.9s-35.3,9.699-42.3,11.199
			C462.5,693.3,454.2,680,453.7,675z"/>
		<g id="briefcase_x5F_client">
			<path d="M441,944c0,6.6-5.4,12-12,12H302c-6.6,0-12-5.4-12-12v-79c0-6.6,5.4-12,12-12h127c6.6,0,12,5.4,12,12V944z"/>
			<path d="M338.3,844c0,3.8,0,7.7,0,11.5c0,1.9,3,1.9,3,0c0-3.8,0-7.7,0-11.5C341.3,842.1,338.3,842.1,338.3,844L338.3,844z"/>
			<path d="M389.8,843.8c0,3.9-0.4,7.8,0.3,11.601c0.4,1.899,3.2,1.1,2.9-0.801c-0.7-3.6-0.2-7.199-0.2-10.899
				C392.8,841.8,389.8,841.8,389.8,843.8L389.8,843.8z"/>
			<path d="M339.6,844.7c17.3,0,34.5-0.2,51.8-0.3c1.9,0,1.9-3,0-3c-17.3,0-34.5,0.199-51.8,0.3
				C337.7,841.7,337.7,844.7,339.6,844.7L339.6,844.7z"/>
		</g>
		<path d="M578,940c0,0,37.5,8.8,42.5-1.5c0,0,29.3,16.9,41.7,14.9c5.3-1.5,6.3,5.1,3.8,6.6c-17,9.2-36.5-4.2-52.1-1.7
			c-15.601,2.5-34.4,3.101-35.9-3.8S576.8,943.1,578,940z"/>
		<path d="M579.1,957.7c0,0,11.801,7,33.801,1.3c0,0-0.2,2.1-1.9,2.5s-20.7,5.8-31.2-0.9C577.8,958.5,579.1,957.7,579.1,957.7z"/>
		<path d="M622.8,937.8c0,0,17-0.3,18.8-5.899c1.801-5.601,16.2,5.5,25.801,2.899c9.6-2.6,17-5.899,19.699-3
			c2.7,2.9-4.5,10.4-17.5,14.5c-13,4.101-18.399,0.9-25.6,4.3C636.8,954,612.4,942.8,622.8,937.8z"/>
		<path fill="#333333" d="M1321,639c0,0-2-13.5,10-21.5s37.7-7.9,46.8,7c10.9,15.1,0.9,17.2-1.8,14.6c0,0-8.9-12.699-11.7-13
			c-2.8-0.3-6.3-3.699-16.8-1.199s-23.4,13.399-23.4,13.399l-2.5,3.101L1321,639z"/>
		<path fill="#CEC361" d="M1223.2,945.4c0,0,5-2.4,7.3-5c0,0,17.6,3.6,25.4-0.5c0,0,8.199,7,0.5,10.1c-3.2,2.4-24.801,1.9-25.5,3.9
			c0,0-5.5,3.199-7.2,1.1l-3.601-1.1L1223.2,945.4z"/>
		<path fill="#CEC361" d="M1189.4,938c0,0-38.2,15.8-40.9,12.8s-3,3.7,0,2.8c9.2,3.301,47.7-3,51.3-0.8c0,0,22.601,4.3,23.2,0.9
			c0,0,6.5,0.399-0.8-16.7C1222.2,937,1203.3,941.5,1189.4,938z"/>
		<path fill="#CEC361" d="M1255,682c0,0-21-10.4-26,2c0,0-7.2,0.4-8.1,5.7c0,0-2.601,0.8-2.601,1.2c0,0.399-2.1,7.399,3,8.8
			c0,0,11.3-3,12.7-1.4c1.4,1.601,27.8-2.6,27.8-2.6S1262.6,688.3,1255,682z"/>
		<path fill="#2D2D2D" d="M1146,954.5c0,0-2.3,4.3,0,6.8s45.6,1.8,48,1.7c14.5-0.8,26,2.3,31-0.4c0,0,4-5.5-2.8-7.199
			C1215.4,953.7,1196.1,959.3,1146,954.5z"/>
		<path fill="#2D2D2D" d="M1227,955.3c0,0,32.8-2.6,34.5,0.5c1.7,3.101-1.8,7.101-2.7,6.7c-0.899-0.4-33.8-2-33.8-1.3
			s-2.3-4.7-2.3-4.7S1221.6,955.7,1227,955.3z"/>
		<path d="M1155.5,949.8c0,0,27-6.1,31.8,5.9c0,0,10.101,0.6,10.3-0.3C1197.8,954.5,1196.7,939.2,1155.5,949.8z"/>
		<path d="M1225.1,945.7c0,0,10.301,3.399,12.301,8c0,0-8,0.8-8.801,0.6c-0.8-0.2-0.899-2.7-3-3.3
			C1225.9,949.5,1225.1,945.7,1225.1,945.7z"/>
		<path fill="#005A99" d="M1256.7,682c3.7-2.4,43.1-1.4,55,7.3c0,0,0-19.8,2.899-21.2c0,0,0.301-22.1,7.2-26.899
			c0,0,15-22.2,36.9-17.2c3.7,0.3,9.399,2.4,15.5,11.7c6.1,9.3,7.399-1,7.3-3.4c-0.1-2.399-3.7-7.8-3.7-7.8s5.601,0.8,10.601,16
			s-3.601,37.9-14.2,37.8c0,0-5.601-0.3-3.5-16.3c0,0-2,109.5,1.3,118.1c0,0,6.9,43,9,43c-7.1,2-14.8,20.7-26.5,14.7
			c0,0-44.7-5.3-39.1-15.899c5.6-10.601-3.801-64.7-3.9-68.301c0,0-0.5-5-0.2-5.3c0.301-0.3-16.899-15.6-19-17.3
			c-2.1-1.7-20.6-15.3-30.3-12.1c0,0-4.9-18.7-2.9-22l3.2,0.5C1262.2,697.5,1265.4,691.3,1256.7,682z"/>
		<g id="joe_x5F_face">
			<path fill="#CEC361" d="M1317.7,548.7c0,0,46,4,34.1,23.2c0,0,2.9,1.399,1.601,4.1c-1.301,2.7-1.601,3.3-1.601,3.3
				s-1.1,7.8-5.5,15.3c0,0,4.4-0.899,5.9-2c0,0-3.601,18,5.8,30.5c0,0-17.5,0.601-28.2,9.801c0,0,9.9-24.101-6.6-28.4
				c0,0-10.8,3.5-12.601-1.4c-0.699-1.899,3.2-3.5-1.199-7.899c-2.601-3.3,7.3-0.8-1.2-7.7c-0.6-4.1,3.3-1,1.5-5.2
				c-2.9,0.1-2.9,1.1-9.8-1.8c-0.801-1.6,1.399-4.1,2.699-6.3c1.9-3.3,6.7-3.7,8.801-7.601c0,0,1.199-3.1,0.899-5.399
				C1312,558.899,1313.1,548.7,1317.7,548.7z"/>
			<path fill="#3A3A3A" d="M1300.3,534.7c9.4-6.2,26.3-4.3,31.7-1.9c10.4-3.399,20.7,5.601,27.7,3.3c8.8-1.399,9.8,6.101,12.5,8.801
				c3.8,3.8,7.8,10.199,5.2,14.6c-2.301,3.9-0.301,10.3-2.301,12.1c-2,1.801-2,7.601-8.399,12.601c0.1,2.1-15,12.7-15,12.7
				s-5.601,1.5-7,0.1c-1.4-1.4,6.899-11.4,4.8-14.4c0,0,7.7-9.899,0.6-10.1c0,0,3.9-2.2-1.3-3.5s-6.4,6.6-6.4,6.6
				s-4.199-2.1-0.8-10.1c3.4-8-4.3-11.7-5.8-11.1c-1.5,0.6-5.9,1.3-8.2-2c-2.3-3.301-5.1,0.899-6.8-1.5
				C1319.1,548.5,1293.3,543.2,1300.3,534.7z"/>
			<path fill="#3A3A3A" d="M1312.7,561.1c-1.3,2.5-1,5.2-1,7.9c0,1,1.5,1,1.5,0c0-2.4-0.3-4.9,0.8-7.1
				C1314.5,561,1313.2,560.3,1312.7,561.1L1312.7,561.1z"/>
			<path fill="#3A3A3A" d="M1313.6,563.8c9.4,2.8,18.801,5.5,28.101,8.3c0.899,0.301,1.3-1.199,0.399-1.399
				c-9.399-2.8-18.8-5.5-28.1-8.3C1313,562.1,1312.6,563.6,1313.6,563.8L1313.6,563.8z"/>
			<polygon fill="#3A3A3A" points="1310.6,602.6 1312.4,602.9 1314.4,604.4 1317,605.3 1320.4,604.8 1321.7,604.8 1321.5,606 
				1320.2,607.5 1319.3,606.9 1318.5,607.8 1317.4,608.7 1315.7,607.6 1313.8,608.7 1312.1,608.3 1310.6,606.8 1310,605.3 1310,603 
							"/>
			<polygon fill="#3A3A3A" points="1310.8,584.6 1316.8,588.3 1319.1,593.4 1315.6,589.5 1309.6,586.5 			"/>
			<polygon fill="#3A3A3A" points="1313.4,557.7 1320.3,559.4 1321,561.7 1312.8,559.8 			"/>
		</g>
		<g>
			<path fill="#C4C4C4" d="M1176.7,702c0,0,20.7-0.6,25.3,1.4s41.5,2.399,42.1,0.899c0.601-1.5-2.199,12.9-7.699,12.101
				c-5.5-0.801-64.2-8.4-62.4-2.5C1174,714,1170.9,709.7,1176.7,702z"/>
			<path d="M1176.2,703.9c0,0-3.8-6.2-7.101-1.101c-3.3,5.101-1.199,5.5,0.5,6.7c1.301,0.9,1.9,1,1.9,1s2.2,0.6,2.6,0
				c0.4-0.6-1.199-1.1-1.199-1.1s-3-0.5-3.4-1.101c-0.5-0.6-2.2-2.1,1.6-5.399c0,0,1.601-1.5,3.801,2.699L1176.2,703.9z"/>
			<path fill="#C4C4C4" d="M1216.7,655.3c0,0-4,22.601-11.5,29.3c-7.5,6.7-16.5,8.9-25.101,11.801c-8.6,2.899-8.8,6.6-8.8,6.6
				s4-6.5,10-8.9c6-2.399,15-10.899,16.601-13.899c1.6-3,2-3.101,5.3-17.3C1203,663,1205.7,658.8,1216.7,655.3z"/>
		</g>
		<path fill="#CEC361" d="M1258,698.8c0,0-13.5-4.899-17.5-3.3s-10.8,3.8-11.5,4.8s-3.5,3.101-3.5,3.101s2.4,2.399,5.3,0l6.101-1.7
			h2.399c0,0-15.899,8.5-18.3,7.399c0,0-14.2,4.801-20.1,2.7c-5.9-2.1,7.5,5.2,9.699,4.3c2.101,0.801,14.7,3.9,17.4,0.801
			c0,0,19.5-7.801,19.6-5.9c0,0,7.801-3.3,11.601,2.2c3.899,5.5,1.3,1.3,1.3,1.3L1258,698.8z"/>
		<polygon fill="#000766" points="1222.2,700.8 1244.2,649.8 1247,650.9 1223.3,702 		"/>
		<polygon fill="#C70011" points="1073,622.3 1051.9,570.9 1054.7,569.7 1074.7,622.3 		"/>
		<path fill="#E5D295" d="M1040,712c0,0-13.8-11-6.3-46s6.3-41.8,6.3-41.8s4-17.8,16.4-21.7c12.399-3.9,17.3,1,17.699,1.2
			c0,0,4.301,9.5,3.2,13.6c-1.1,4.101-2.3,11.601-2.3,11.601s-4.3,4.199-5.4,3.8c-1.1-0.4,2.4-11.2,2.4-11.2s-1.1-3.7-5.5-5.7
			s-4.2,1.7-9.5-1h-1.8c0,0-3.601,6.601-3.4,12.601s-0.4,16.3,4.6,33.399c5,17.101-2.5,29.9-2.5,29.9L1045.2,709l-1.801,3H1040
			L1040,712z"/>
		<path d="M1048.8,922.2l1.4,9.8c0,0,4.899-9.1,12.6-3.4l0.101,2.601c0,0,1.399-6.5,0-8.4c-1.4-1.899-0.4-4.399-0.4-4.399
			s4.7-0.101,8,8.3c3.3,8.399,1.1,6.399,7,10.399s-2.7,9.101-3.2,9.301c-0.5,0.199-10.899,4.5-21.2,1.6c0,0-8.399-0.5-9.6-4.3
			C1041.4,937,1046.7,931.6,1048.8,922.2z"/>
		<path d="M1109.4,911.2c0,0,0.5,9.399,0,12.5c0,0,6.5-10.601,11.8,0.6c0,0-0.8-9.3,2-11.1s3.8,13.8,3.8,13.8s3,10.9-6.5,18.3
			c-9.5,7.4-13,8.2-19-3.5c0,0-3.1-8.3,1.6-13.3c4.601-4.8,3-7,3.101-9.8C1106.5,912.1,1109.4,911.2,1109.4,911.2z"/>
		<path fill="#353535" d="M1043,944.6c0,0,26.7,14.2,36.5-4.5c0,0,3.4-1.6,2.8,7c-0.6,8.601-29.2,12.301-36.899,4.4
			C1045.4,951.5,1040.8,950.1,1043,944.6z"/>
		<path fill="#353535" d="M1100.2,933.4c0,0-1.5,16.3,9.3,17.8s14.1-8,14.1-8s4.301-6.7,3.9-7.8c0,0-2.2,10.699-6,14.6
			c-1.8,1.8-3.9,5.4-8.8,5.9C1106.3,956.2,1091.5,947.9,1100.2,933.4z"/>
		<path fill="#353535" d="M1047.6,912.6c0,0,8.801-6.699,15.9-3.8c0,0-2.6,17-1.1,18.3c1.5,1.301-12.2,4-12.2,4L1047.6,912.6z"/>
		<path fill="#353535" d="M1110,905.6c0,0,14.7-4.6,15.1,0.2c0.4,4.8-3.5,18-3.5,18l-11.3,0.101l-1-1.101
			C1109.4,922.9,1110.7,908,1110,905.6z"/>
		<g id="sid_x5F_face">
			<path fill="#3A3A3A" d="M797.8,558.8c-3-0.1-2.7,1.5-5.6-2.1c-2.9-3.601-2.9,7.3-2.8,6c0,0,4.3,4.1-6.7,4.5
				c0,0,3.5,5.899-0.101,6.1c0,0-1.6-2.8-4.5-0.7c0,0-1.8,2.301,6.4,9.9c0,0-4.6,6.7,0.2,8.2S784,588.6,792,588.6
				c0,0-0.7-7,1.1-6.199c0,0,6.4-5.301,2.5-6c0,0,1.2-3.301,5-4.101c0,0,0-2.5,0.9-5.7"/>
			<path fill="#C1A868" d="M803.4,570.5l-5.4,1l-4.5,5.2l-3.5,5l0.5,10.6l-2.8,14.101l3.8,10l6,7.5l12.1,1.1l9.101-2.1l8.5-4.5
				c0,0,5.1-3.301,5.6-10.5c0.5-7.101-0.6-9.7-0.6-9.7l2.6-7.601L803.4,570.5z"/>
			<path fill="#C1A868" d="M788.5,640c0,0,1.1,11.4,19.7,11.7c6.3,0.1,17.2,0.8,23.3-9.8c0,0-7.1-3.801-7.7-7.4l0.5-15.4l-11.899,5
				l-11.601-0.3l0.101,9.601L788.5,640z"/>
			<path fill="#3A3A3A" d="M797.5,569.9c0,0,0.5-1.9,3.4,2.199c0,0,1.5,0.7,3.8,0c0,0,1.1,6.2,7.1,7.301c0,0,3.101,0.899,3-4.9
				l-1.8,5.4c0,0,0.3,2,1.8,2c1.4,0,2.601-0.2,3.601-0.4c1-0.3-1.2,5.8,0,4.6c0,0,3.1,1.7,3.6-0.399l1.8,1.1l6.8,4.4
				c0,0-0.6,1.6,3.301,1.399L833.1,594.7l4.7-2.101l2.8,0.2c0,0-1.1-2.1,3.2-4.1s1.8-4.2,1.9-3.9c0.1,0.3-2.101-4.1,0.6-5.7
				c2.7-1.6-0.399-7.5-0.399-7.5l-0.4-3.1c0,0-5.4,1.6-3.2-2.9s0.7-5.199-4.6-9.199c-5.2-4-5.2,2.6-5.7,1.199
				c-0.5-1.399-4.8-3.6-4.8-3.6s-3.601,2.2-6.8,2.5c0,0-1-3.4-4.301-4c-3.3-0.6-2.399-3.5-2.399-3.5s-2.101-0.3-3.3,2.5
				c-1.2,2.8-3.7,4.6-4,4.1c-0.301-0.5-2.2-3.8-3.7-3c-1.5,0.801-3.3,3.4-2.9,4.2c0.5,0.8-2,6.3-4.2,5.9"/>
			<path fill="#C1A868" d="M834.7,592.6c0,0,4.2-2.3,4.899-1.8c0.7,0.4,3.801,1.9,0,9.101c0,0-5.1,5.899-6.399,5
				C833.2,604.7,833.2,594,834.7,592.6z"/>
			<polygon points="797.8,623.2 802.7,624.5 807,623.2 811.3,622 811.3,623.2 806.1,625.6 801.3,626.4 799.1,625.6 797.8,624.2 			
				"/>
			<polygon fill="#3A3A3A" points="832.1,608.6 825.8,616.7 819.1,621.4 824.8,619 829.9,615.6 831.6,611.3 			"/>
			<polygon fill="#3A3A3A" points="831.7,590.7 834.7,591.2 833.2,601.3 831.3,601.3 			"/>
			<path fill="#FFFFFF" d="M793.5,611.6l11.6,0.801l6.4,0.1l6.4-0.5c0,0-6.7,2.5-13.2,2.9C795.5,615.5,793.5,611.6,793.5,611.6z"/>
			<path d="M808.6,587.5l5-0.2l5.301,0.7c0,0,1.6,0.8-0.301,1.8l-4.8-0.6L810,589l-1.8,0.8l-1-1.1L808.6,587.5z"/>
			<path d="M798,588.2l-5-0.8l-2.8-0.5c0,0-1.7,1.1,0.1,2.3h2.3l3.7,0.3l1.601,1l1.1-0.9L798,588.2z"/>
			<path fill="#FFFFFF" d="M790.1,593.6c-0.199,0.7,0,1.4,0.801,1.801c2.199,1,4.5,1.199,6.8,0.8c0.899-0.2,1.5-1.3,1.2-2.101
				c-1-3.6-4.601-3.899-7.4-2.6C790.5,592.1,790.4,592.7,790.1,593.6z"/>
			<path fill="#FFFFFF" d="M808,593.1c-1,1.4,0.2,3.4,1.7,3.801c1.1,0.3,2.399,0,3.5-0.2c1.1-0.2,2.1-0.4,3.1-0.9
				c1.101-0.5,2.2-1.2,2.3-2.5c0-1.2-1-1.899-2-2.2c-1.8-0.6-4.1-0.6-6-0.3C809.5,591,808.3,592.6,808,593.1z"/>
			<path d="M790.9,592.4c0,0.6-0.101,3.5,2.399,3.699c0.8,0,1.4-0.6,1.4-1.399c0.1-1.101-0.101-2.2-0.601-3.101
				c-0.5-0.899-1-0.6-1.8-0.6C791.6,591,790.9,591.6,790.9,592.4L790.9,592.4z"/>
			<path d="M808.2,593.1c0,0.9,0.1,1.7,0.3,2.601c0.1,0.7,1.4,1,1.7,1.1c0,0,0.7,0.3,1.899-1c1.4-1.399,1.801-3.7-0.3-4.6
				C810.9,590.9,808.1,591.4,808.2,593.1L808.2,593.1z"/>
		</g>
		<g id="anam_x5F_face_1_">
			<path fill="#E5D295" d="M1078.6,653.9c-4.6,0.6,4.5,8.699,16.4,8.8c17.3,0.1,19.3-9.2,19.3-9.2s-10.5-8-7.8-26.2l-10.1,4
				l-8.601-4.1C1087.8,627.3,1089.9,652.4,1078.6,653.9z"/>
			<path fill="#3A3A3A" d="M1120.5,585l-2.9-10.4l-1.5-1.8l-4.5,0.3l-7.3-4.6l-2.8,1.6c0,0-6.9-1.3-17.8,6.7l-6.601,8.3v2.9
				l-2.1,1.9c0,0-4.2,3.1-2.2,11.699c0,0,3.4,1.101,1.2,6.5c0,0,2.8,7.5,3.5,8.5c0,0,3.5,4.2,5.7,1.101l-1.9-4.101
				c0,0-1.6-5.1,2.4-22.1c0,0-1.801-1.3,6.1-5.7c0,0,2.9-3,12.8-1.6c0,0,3.5-6.601,12.601-1.5L1120.5,585z"/>
			<path fill="#E5D295" d="M1102.5,582.1l5.3,4.9l5.2,4.9l4.5,7.399l1.8,7.8V619.7l-2.2,4l-3.8,5.8l-16.5,6.5l-6.7-0.1l-3.399-3.4
				l-4.2-4.7l-3.6-8.399l-1.7-7.301c0,0,0.8-16,3.3-20.8C1085.9,581.1,1102.5,582.1,1102.5,582.1z"/>
			<path fill="#3A3A3A" d="M1106.5,582.6c0,0,4.2-3.8,9.3-4.6c5.101-0.8,6.5,3.4,9,8c0,0,8,0.9,5.5,8.6
				c-0.899,3,4.5,3.301,2.101,8.301c0,0,1.3,2.699,0.899,3.399c0,0,0.601,3.4-3.399,8.3c0,0,0.899,2.2-5,6.301
				c0,0,5.199,1.6-7,6.199c0,0-3.4,1.101-6.601,6.9l-0.8-4.9c0,0,0.2-6.3,5.4-9.6c0,0,1.3-0.8,1.199-4.6l0.801-3.7
				c0,0-7.101,12-5.601,7.6c2.9-8.5,0.9-15.3,3.4-17.899c0,0-3.5-6.7-5.9-9.601c-2.5-2.899-3.399-7.3-3.399-7.3l-0.801-1.2
				L1106.5,582.6z"/>
			<path d="M1081.2,598.3c0,0-0.601,1.601,0.8,1.5c0,0,3.8-2.399,7.2,0.2c0,0,1.5-0.2,0.6-1.8C1088.8,596.7,1083.2,597,1081.2,598.3
				z"/>
			<path d="M1098,598.5c0,0-0.5,1.5,0.9,1.4c0,0,4-2.9,7.3-0.101c0,0,2.399,0.5,1.399-1C1105.2,595.2,1099.6,597,1098,598.5z"/>
			<path d="M1081.9,600.9c-1.2,0.399-3.601,3.699,0.199,5.699c2,1.101,3.7-1.1,4-2.199c0.2-1,0.101-3.4-2-3.7
				C1083.4,600.5,1082.4,600.7,1081.9,600.9z"/>
			<path d="M1099.6,601.2c-1.3,0.399-3.899,3.6,0.2,5.6c2.2,1,4-1.1,4.3-2.2c0.2-0.899,0.101-3.3-2.1-3.6
				C1101.3,600.9,1100.2,601,1099.6,601.2z"/>
			<path d="M1091.4,602.7c0,0-3.4-3-5.9-3.2c-2.4-0.2-5.9,3.9-6.3,4.6c-0.4,0.801-0.3,2.101-0.3,2.101s8.8,2.3,12.3-0.3
				C1091.3,605.8,1091.9,603.1,1091.4,602.7z M1090.4,605.5c-0.301,0.4-10.301,1-10.2,0c0-1,1-2.2,1-2.2
				c1.1-2.7,4.399-2.8,4.399-2.8c1.301,0.3,4.9,2.1,5,2.8C1090.7,603.9,1090.7,605,1090.4,605.5z"/>
			<path d="M1096.8,605.7c3.3,2.899,12.2,1.2,12.2,1.2s0.2-1.301-0.1-2.101c-0.301-0.8-3.5-5.1-6-5.1s-6.101,2.8-6.101,2.8
				C1096.4,602.9,1096.8,605.7,1096.8,605.7z M1097.7,603.1c0.2-0.6,3.899-2.199,5.2-2.399c0,0,3.3,0.3,4.199,3.1
				c0,0,0.9,1.3,0.9,2.3s-9.9-0.3-10.2-0.699C1097.4,604.9,1097.6,603.7,1097.7,603.1z"/>
			<path fill="#FFFFFF" d="M1086.4,621.9c0,0,12.8,1.8,15.399,0.1c0,0-0.3,2.9-2.399,3.4c-2.101,0.5-12.101,0-12.9-1.5
				S1086.4,621.9,1086.4,621.9z"/>
		</g>
		<g id="joe_x5F_pyjama">
			<path fill="#382947" d="M1321,774.3c0,0-110.1-17.3-127.9,18.2c-17.8,35.5-4.199,61.5-9.199,79.2s-5.2,59.899-0.301,63.7
				c7.5,5.899,32.5,0.8,42.4-0.4v3c0,0,32.4,7.5,35-4s-9.2-35.3-9.2-35.3s-11.5-47.101-11.5-47.2c0,0-12-33.2-9.3-34.7
				s80.1,14.7,85.6,8.2"/>
			<path d="M1275.4,785.3c0.899,4.2,3,8,5.1,11.8c0.7,1.301,2.7,0.101,1.9-1.1c-2-3.6-4-7.2-4.9-11.2
				C1277.3,783.3,1275.1,783.9,1275.4,785.3L1275.4,785.3z"/>
			<path d="M1273.1,797.1c3.301-3.1,7.601-4.5,11.4-6.8c1.2-0.8,0.1-2.7-1.1-1.899c-4,2.399-8.5,3.899-11.9,7.199
				C1270.5,796.5,1272.1,798.1,1273.1,797.1L1273.1,797.1z"/>
			<path d="M1304.5,779.4c-1.3,2.3-2.7,4.5-3.8,6.8c-0.7,1.3,1.3,2.399,1.899,1.1c1.2-2.3,2.5-4.6,3.801-6.8
				C1307.2,779.3,1305.3,778.2,1304.5,779.4L1304.5,779.4z"/>
			<path d="M1299.4,781.1c2.5,1.9,4.199,4.601,6.8,6.5c1.2,0.801,2.3-1.1,1.1-1.899c-2.6-1.8-4.3-4.601-6.8-6.5
				C1299.4,778.3,1298.3,780.3,1299.4,781.1L1299.4,781.1z"/>
			<path d="M1254.9,777.8c-0.101,1-0.801,2-1.2,2.8c-0.601,1-1.2,1.9-1.9,2.7c-1,1,0.601,2.601,1.601,1.601s1.699-2.301,2.399-3.5
				c0.601-1.101,1.3-2.4,1.4-3.7C1257.2,776.4,1255,776.4,1254.9,777.8L1254.9,777.8z"/>
			<path d="M1250.8,779.5c2.8,1.6,5,3.9,7.7,5.7c1.2,0.8,2.3-1.2,1.1-1.9c-2.699-1.7-4.899-4.1-7.699-5.7
				C1250.6,776.8,1249.5,778.8,1250.8,779.5L1250.8,779.5z"/>
			<path d="M1298.6,811.9c-1.8,1.1-3.899,2-5.199,3.699c-0.9,1.101,0.699,2.7,1.6,1.601c1.3-1.5,3.1-2.3,4.8-3.3
				C1301,813.1,1299.9,811.1,1298.6,811.9L1298.6,811.9z"/>
			<path d="M1292.2,811.4c1.7,3.199,3.899,6.5,7.1,8.399c1.2,0.8,2.4-1.2,1.101-1.899c-2.801-1.7-4.7-4.801-6.301-7.601
				C1293.4,809,1291.5,810.1,1292.2,811.4L1292.2,811.4z"/>
			<path d="M1260.4,810.8c-2.601,1.7-5.7,2.3-8.5,3.5c-1.301,0.601-0.2,2.5,1.1,1.9c2.8-1.2,5.9-1.8,8.5-3.5
				C1262.8,811.9,1261.6,810,1260.4,810.8L1260.4,810.8z"/>
			<path d="M1251.9,812.2c2,1,3.199,2.8,4.899,4.2c1.601,1.5,3.5,2.1,5.7,2.199c1.5,0,1.4-2.199,0-2.3c-4.3-0.1-5.9-4.3-9.4-6.1
				C1251.8,809.6,1250.6,811.6,1251.9,812.2L1251.9,812.2z"/>
			<path d="M1218.5,783.2c-3.2,1.1-5.4,4.1-7.2,6.8c-0.8,1.2,1.101,2.3,1.9,1.1c1.399-2.1,3.3-4.899,5.8-5.699
				C1220.4,784.9,1219.8,782.7,1218.5,783.2L1218.5,783.2z"/>
			<path d="M1213.9,784.5c1.199,2.9,1.199,6.1,1.199,9.2c0,1.5,2.301,1.5,2.301,0c0-3.3,0-6.7-1.301-9.8
				C1215.5,782.6,1213.4,783.2,1213.9,784.5L1213.9,784.5z"/>
			<path d="M1226.2,811.7c-2.8,3.1-3.2,8.1-0.9,11.6c0.8,1.2,2.7,0.101,1.9-1.1c-1.7-2.601-1.601-6.5,0.6-8.9
				C1228.8,812.2,1227.2,810.6,1226.2,811.7L1226.2,811.7z"/>
			<path d="M1220.7,816.7c2.399,1.3,4.5,3,7.3,3.2c1.5,0.1,1.4-2.2,0-2.301c-2.3-0.1-4.2-1.699-6.2-2.8
				C1220.6,814.1,1219.4,816,1220.7,816.7L1220.7,816.7z"/>
			<path d="M1241.8,792.9c-1,2-2.3,3.899-2.899,6c-0.4,1.399,1.8,2,2.199,0.6c0.5-2,1.7-3.7,2.601-5.5
				C1244.4,792.8,1242.4,791.6,1241.8,792.9L1241.8,792.9z"/>
			<path d="M1236.9,795.5c2.899,1.9,5.199,4.4,8,6.5c1.199,0.9,2.3-1.1,1.1-1.9c-2.8-2.1-5.1-4.6-8-6.5
				C1236.9,792.7,1235.7,794.7,1236.9,795.5L1236.9,795.5z"/>
			<path d="M1200.7,805.5c-1.601,3.8-4.101,7.1-5.9,10.7c-0.6,1.3,1.3,2.399,1.9,1.1c1.899-3.899,4.399-7.3,6.1-11.3
				C1203.4,804.7,1201.2,804.1,1200.7,805.5L1200.7,805.5z"/>
			<path d="M1193.3,808.6c2.3,3.2,5.2,5.7,7.9,8.5c1,1,2.6-0.6,1.6-1.6c-2.6-2.6-5.399-5-7.6-8
				C1194.4,806.3,1192.4,807.4,1193.3,808.6L1193.3,808.6z"/>
			<path d="M1207,827.4c-1,1.8-2.1,3.6-3.3,5.3c-0.8,1.2,1.1,2.3,1.899,1.1c1.2-1.7,2.2-3.5,3.301-5.3
				C1209.7,827.3,1207.7,826.2,1207,827.4L1207,827.4z"/>
			<path d="M1202.4,828.5c2,1.4,3.1,3.8,4.8,5.6c1,1,2.6-0.5,1.6-1.6c-1.8-1.9-3-4.4-5.2-5.9
				C1202.4,825.7,1201.2,827.7,1202.4,828.5L1202.4,828.5z"/>
			<path d="M1195.5,846.7c-2.2,2.8-3.4,6.1-4.9,9.2c-0.6,1.3,1.301,2.399,1.9,1.1c1.4-3,2.5-6.1,4.6-8.8
				C1197.9,847.2,1196.3,845.6,1195.5,846.7L1195.5,846.7z"/>
			<path d="M1189.7,852.2c2.2,1.5,3.899,3.5,5.8,5.3c1,1,2.6-0.6,1.6-1.6c-2-2-3.899-4.101-6.199-5.7
				C1189.6,849.5,1188.5,851.4,1189.7,852.2L1189.7,852.2z"/>
			<path d="M1210.8,870c0.9-2.9,1.3-6,1.8-9c0.2-1.4-1.899-2-2.199-0.6c-0.5,3-0.801,6.1-1.801,9
				C1208.2,870.8,1210.4,871.4,1210.8,870L1210.8,870z"/>
			<path d="M1207,865.3c2.7,0.601,5.1,2.101,7.8,3c1.4,0.4,2-1.7,0.601-2.2c-2.601-0.899-5-2.399-7.801-3
				C1206.1,862.9,1205.5,865,1207,865.3L1207,865.3z"/>
			<path d="M1219.4,891.3c-0.2,1.7-0.7,3.3-1.601,4.7c-0.8,1.2,1.2,2.4,1.9,1.1c1.1-1.8,1.6-3.8,1.899-5.8
				C1221.8,889.8,1219.6,889.8,1219.4,891.3L1219.4,891.3z"/>
			<path d="M1215.5,893.1c2.3,0.801,4.1,2.4,6.2,3.601c1.3,0.7,2.399-1.2,1.1-1.9c-2.3-1.3-4.2-3-6.8-3.899
				C1214.7,890.5,1214.1,892.6,1215.5,893.1L1215.5,893.1z"/>
			<path d="M1198.3,879.4c-0.8,1.6-1.8,3-2.8,4.5c-0.8,1.199,1.1,2.3,1.9,1.1c1-1.5,1.899-2.9,2.8-4.5
				C1200.9,879.3,1198.9,878.1,1198.3,879.4L1198.3,879.4z"/>
			<path d="M1194.7,880c0.8,2.6,2.5,4.7,4.5,6.5c1.1,0.9,2.7-0.6,1.6-1.6c-1.7-1.5-3.2-3.301-4-5.5
				C1196.4,878.1,1194.2,878.7,1194.7,880L1194.7,880z"/>
			<path d="M1189.5,895.2c-1.3,1.7-2.1,3.5-2.9,5.5c-0.6,1.3,1.4,2.5,1.9,1.1c0.7-1.7,1.4-3.5,2.6-5
				C1191.9,895.7,1190.4,894.1,1189.5,895.2L1189.5,895.2z"/>
			<path d="M1186.4,898.2c2.1,1.5,3,4.1,5.3,5.5c1.2,0.7,2.399-1.2,1.1-1.9c-2.2-1.3-3.1-4-5.3-5.5
				C1186.4,895.4,1185.3,897.4,1186.4,898.2L1186.4,898.2z"/>
			<path d="M1202.9,906.7c-0.801,3.2-2.2,6.2-3.301,9.3c-0.5,1.4,1.7,2,2.2,0.6c1.101-3.1,2.4-6.1,3.3-9.3
				C1205.5,905.9,1203.3,905.3,1202.9,906.7L1202.9,906.7z"/>
			<path d="M1199.4,912.2c2.699,1.7,4.899,4,7.3,6.1c1.1,1,2.7-0.6,1.6-1.6c-2.5-2.2-4.899-4.7-7.7-6.4
				C1199.3,909.5,1198.2,911.5,1199.4,912.2L1199.4,912.2z"/>
			<path d="M1195.7,923.3c-2.5,1.4-3.3,4.5-4.9,6.7c-0.8,1.2,1.101,2.3,1.9,1.1c1.3-1.8,2.1-4.699,4.1-5.8
				C1198.1,924.5,1196.9,922.6,1195.7,923.3L1195.7,923.3z"/>
			<path d="M1190.5,925.3c3,0.601,4.8,3.2,7,5.2c1.1,1,2.7-0.6,1.6-1.6c-2.5-2.2-4.5-5.101-8-5.801
				C1189.6,922.9,1189,925.1,1190.5,925.3L1190.5,925.3z"/>
			<path d="M1231.1,842c-0.3,2.2-0.699,4.3-1.199,6.5c-0.301,1.4,1.899,2,2.199,0.6c0.5-2.3,1-4.699,1.301-7
				C1233.5,840.6,1231.3,840.6,1231.1,842L1231.1,842z"/>
			<path d="M1228.2,844c1.6,1.6,3.1,3.3,5,4.7c1.2,0.899,2.3-1.101,1.1-1.9c-1.7-1.2-3.1-2.8-4.5-4.3
				C1228.8,841.4,1227.2,843,1228.2,844L1228.2,844z"/>
			<path d="M1238.9,864.3c-0.301,2.5-1,4.8-1.7,7.2c-0.4,1.4,1.8,2,2.2,0.6c0.8-2.6,1.5-5.1,1.8-7.8
				C1241.3,862.8,1239,862.8,1238.9,864.3L1238.9,864.3z"/>
			<path d="M1235.5,866.8c1.9,1.9,4,3.7,6.2,5.2c1.2,0.8,2.3-1.1,1.1-1.9c-2.1-1.399-4-3-5.8-4.8
				C1236,864.2,1234.4,865.8,1235.5,866.8L1235.5,866.8z"/>
			<path d="M1245.8,919.9c-1,1.899-2.399,3.6-3.5,5.5c-0.7,1.3,1.2,2.399,1.9,1.1c1.1-1.9,2.5-3.6,3.5-5.5
				C1248.4,919.8,1246.4,918.6,1245.8,919.9L1245.8,919.9z"/>
			<path d="M1241.7,923c1.899,2,3.399,4.3,5.7,5.9c1.199,0.8,2.3-1.101,1.1-1.9c-2.1-1.5-3.5-3.8-5.3-5.6
				C1242.3,920.4,1240.7,922,1241.7,923L1241.7,923z"/>
			<path d="M1241.9,902.3c-0.301,2.2-1.2,4.3-2,6.5c-0.5,1.4,1.699,2,2.199,0.601c0.801-2.301,1.7-4.601,2-7
				C1244.3,900.8,1242.1,900.8,1241.9,902.3L1241.9,902.3z"/>
			<path d="M1245.8,907.1c-1.8-1.3-3.3-3.1-4.8-4.699c-1-1.101-2.5,0.6-1.5,1.6c1.7,1.8,3.3,3.7,5.3,5.1
				C1246,909.9,1247,907.9,1245.8,907.1L1245.8,907.1z"/>
		</g>
		<g id="client_x5F_text">
			<path fill="#FFFFFF" d="M336.969,897.137c0.182,0.209,0.357,0.41,0.526,0.604c0.169,0.195,0.332,0.397,0.487,0.604
				c-0.676,0.521-1.417,0.931-2.223,1.229c-0.806,0.299-1.677,0.449-2.613,0.449c-1.066,0-2.061-0.202-2.983-0.604
				c-0.923-0.403-1.729-0.942-2.418-1.619c-0.689-0.676-1.235-1.476-1.638-2.398c-0.403-0.923-0.604-1.917-0.604-2.983
				c0-1.04,0.201-2.028,0.604-2.964c0.403-0.937,0.949-1.741,1.638-2.418c0.688-0.676,1.495-1.215,2.418-1.618
				c0.923-0.403,1.917-0.604,2.983-0.604c0.936,0,1.82,0.149,2.652,0.448c0.832,0.299,1.573,0.708,2.223,1.229
				c-0.182,0.208-0.357,0.409-0.526,0.604c-0.169,0.194-0.345,0.396-0.526,0.604c-0.521-0.416-1.099-0.741-1.736-0.976
				c-0.637-0.233-1.333-0.351-2.086-0.351c-0.858,0-1.651,0.156-2.379,0.468c-0.728,0.313-1.359,0.741-1.892,1.287
				c-0.533,0.546-0.956,1.189-1.268,1.931c-0.312,0.741-0.468,1.527-0.468,2.359s0.156,1.612,0.468,2.34
				c0.312,0.729,0.734,1.365,1.268,1.911c0.533,0.546,1.164,0.975,1.892,1.287c0.728,0.312,1.521,0.468,2.379,0.468
				C334.628,898.424,335.902,897.995,336.969,897.137z"/>
			<path fill="#FFFFFF" d="M343.754,899.75h-1.599V870.5h1.599V899.75z"/>
			<path fill="#FFFFFF" d="M348.98,879.938c0-0.364,0.13-0.67,0.39-0.917c0.259-0.247,0.559-0.37,0.897-0.37
				c0.337,0,0.637,0.123,0.897,0.37c0.259,0.247,0.39,0.553,0.39,0.917s-0.13,0.669-0.39,0.916c-0.26,0.247-0.56,0.37-0.897,0.37
				c-0.338,0-0.638-0.123-0.897-0.37C349.11,880.607,348.98,880.303,348.98,879.938z M351.047,899.75h-1.599v-14.625h1.599V899.75z"
				/>
			<path fill="#FFFFFF" d="M369.572,890.273c-2.028,0.806-4.043,1.605-6.045,2.398c-2.002,0.793-4.017,1.593-6.045,2.398
				c0.442,0.988,1.144,1.794,2.106,2.418c0.961,0.624,2.054,0.936,3.276,0.936c0.806,0,1.56-0.143,2.262-0.429
				s1.313-0.688,1.833-1.209c0.182,0.208,0.351,0.409,0.507,0.604c0.156,0.195,0.325,0.396,0.507,0.604
				c-0.677,0.624-1.443,1.118-2.301,1.481c-0.858,0.364-1.794,0.547-2.808,0.547c-1.066,0-2.061-0.202-2.983-0.604
				c-0.923-0.403-1.729-0.942-2.418-1.619c-0.689-0.676-1.235-1.476-1.638-2.398c-0.403-0.923-0.604-1.917-0.604-2.983
				c0-1.04,0.201-2.028,0.604-2.964c0.403-0.937,0.949-1.741,1.638-2.418c0.688-0.676,1.495-1.215,2.418-1.618
				c0.923-0.403,1.917-0.604,2.983-0.604c0.78,0,1.521,0.136,2.223,0.409c0.702,0.272,1.346,0.65,1.931,1.131
				c0.585,0.481,1.098,1.053,1.541,1.716C369,888.732,369.338,889.468,369.572,890.273z M362.864,886.373
				c-0.78,0-1.521,0.137-2.223,0.409c-0.702,0.273-1.313,0.657-1.833,1.15c-0.521,0.494-0.943,1.066-1.268,1.717
				c-0.326,0.649-0.526,1.352-0.604,2.105c-0.026,0.313-0.033,0.618-0.02,0.917c0.013,0.299,0.045,0.592,0.098,0.877
				c1.741-0.702,3.483-1.397,5.226-2.086c1.742-0.689,3.497-1.385,5.265-2.087c-0.442-0.884-1.079-1.605-1.911-2.164
				C364.762,886.652,363.852,886.373,362.864,886.373z"/>
			<path fill="#FFFFFF" d="M375.421,885.125h1.482v1.365c0,0.442,0,0.845,0,1.209s0.013,0.767,0.039,1.209
				c0.52-1.222,1.352-2.21,2.496-2.964c1.144-0.754,2.443-1.131,3.9-1.131c1.43,0,2.561,0.403,3.393,1.209
				c0.832,0.806,1.273,1.858,1.326,3.158v10.569h-1.638v-10.14c-0.053-0.832-0.358-1.561-0.917-2.185
				c-0.56-0.624-1.385-0.961-2.477-1.014c-0.78,0-1.535,0.137-2.262,0.409c-0.728,0.273-1.365,0.644-1.911,1.111
				c-0.546,0.469-0.982,1.027-1.307,1.678c-0.326,0.649-0.488,1.364-0.488,2.145v7.995h-1.638V885.125z"/>
			<path fill="#FFFFFF" d="M395.545,875.609h1.638v9.555h4.485v1.599h-4.485v12.987h-1.638v-12.987h-3.393v-1.599h3.393V875.609z"/>
		</g>
	</g>
</g>
</svg>
