<?xml version="1.0" encoding="utf-8"?>
<!-- Generator: Adobe Illustrator 16.0.0, SVG Export Plug-In . SVG Version: 6.00 Build 0)  -->
<!DOCTYPE svg PUBLIC "-//W3C//DTD SVG 1.1//EN" "http://www.w3.org/Graphics/SVG/1.1/DTD/svg11.dtd">
<svg version="1.1" id="Layer_1" xmlns="http://www.w3.org/2000/svg" xmlns:xlink="http://www.w3.org/1999/xlink" x="0px" y="0px"
	  viewBox="0 0 1920 1080" enable-background="new 0 0 1920 1080" xml:space="preserve" preserveAspectRatio="none">
<g id="page_x5F_fills_x5F_blue">
	<rect id="fill_x5F_3" fill="#CCD9ED" width="1920" height="1080"/>
</g>
<g id="windows_x5F_light">
	<rect x="272.1" y="426.7" fill="#9EAEB7" width="365" height="333.899"/>
	<rect x="1236" y="426.7" fill="#9EAEB7" width="365" height="333.899"/>
	<rect x="637" y="392.8" display="none" width="599" height="333.9"/>
</g>
<g id="characters_x5F_indoor_x5F_fills">
	<g id="brainstorming_x5F_in">
		<g>
			<path fill="#40001E" d="M339.5,727c-10-7.5,22-17,27-17.5c11.5-0.5,24,6.5,34.5,10c15,5,23.5-1,38.5-2.5c10.5-1.5,21-2,31.5-4
				c4.5-1,11.5-2.5,15.5-0.5c5,2.5,11,13,7,17.5c-4.5,4.5-25,3.5-31.5,4.5c-14,2.5-27,5.5-41.5,4c-12.5-1.5-25-3.5-37.5-5
				C368,732,339.5,728,339.5,727"/>
		</g>
		<g>
			<path fill="#E5D295" d="M342.8,742.7c-4.6-1.8-12.8-6.8-10.5-13.2c1.4-5,10-5.9,14.1-8.2c10.9-6.399,16-13.2,29.6-8.2
				c11.9,4.101,21.4,10.9,33.8,13.7c10.9,2.7,21.9,5.5,33.3,5.9c6.4,0,13.2-0.9,19.2,0c10,1.399,15.5,10.899,25.101,14.1
				c-10,0.9-20.101-1.8-30.601-2.3c-8.2-0.5-16.399,0.5-25.1,1.4c-16.9,1.399-33.8,1.8-50.6,1.8c-13.7,0-31.5-0.9-42.9-7.8"/>
		</g>
		<g>
			<path fill="#E5D295" d="M388.1,723c26.2,0,54.7,0.3,79.4-7.9c6.7-2.1,12.2-2.699,17.6,2.101c4.601,3.6,13.101,9.7,16.101,14.6
				c5.2,7.9-8.5,10.3-14,11.601c-7.601,1.5-15.2,3-22.8,2.699c-11.601-0.3-23.4-3.3-35-5.199c-10.301-1.2-21-0.601-31-4.601
				c-3.3-1.2-11.9-4.6-12.5-8.5c-0.6-4.6,5.2-6.399,8.8-4.899"/>
		</g>
		<g>
			<path fill="#B75925" d="M551.1,716.1c7.4-3.399,16.601-3.6,24.4-3.1c4.5,0.2,7.4,0.4,7.6,5.2c0.2,7.399-1.8,15.2-3.1,22.399
				c-0.7,3.101-0.9,4.7-3.6,5.801c-2.2,0.899-5.2,1.1-7.4,1.6c-3.6,0.7-15.9,3.1-18.1-0.2C549.3,745.6,551.1,735.9,551.1,733
				c-0.199-6.5-0.399-13,0.2-19.3"/>
		</g>
		<g>
			<path fill="#E5D295" d="M408.3,701.9c0,9-0.7,10.699-6,17c7.7,6.3,21.3,3.3,29.7,0c-3-5.301-1-14.301-6-16.7
				C420.7,699.9,413.3,699.2,408.3,701.9"/>
		</g>
		<polygon fill="#E5D295" points="423.4,645.3 432.1,646.2 439.2,650 442.7,658.7 443.9,673 443.9,686.9 441.2,691.3 434.6,698.1 
			424.5,705.5 415.7,708 407.7,702.4 399.2,695.8 394.8,686.5 394.6,681.7 399.8,659.9 		"/>
		<g>
			<path fill="#B75925" d="M551.6,722.4c-4.899-4-10.1-4.9-12.3,2c-1.6,4.699-1.8,10.3,1.8,14.1c1.601,1.6,5.4,3.8,7.801,2.7
				c4.899-2.9-0.4-4.7-2.2-6c-5.4-3.601-2.9-10.3,3.1-10.3c1.601,0,3.101,2.899,3.101-0.9c0-1.3-0.7-2.5-2-2.9"/>
		</g>
		<g>
			<path fill="#3A3A3A" d="M425.8,638.4c-3.899,13,12.601,9.5,14.7,18.699c0.3,1.5-0.9,3-0.6,4.7c0.3,2.101,2.1,3,2.399,4.7
				c1.2,4.4-3.899,6.8,2.7,8.3c-1.5,2.4-6.3,4.4-2.4,7.7c-3.3,2.4-3.3,3.9-1.5,6.5c2.4,3,5.101-0.6,1.801,4.1
				c-2.7,3.9-3.9,3-2.7,7.4c0.899,3,1.8,4.4,1.5,7.4c1.2-1.2,1.5-3.301,3-4.4c1.8-1.2,5.1-0.9,6.6-2.7c2.4-2.7,0.9-5.6,3.9-8
				c2.399-2.399,7.2-1.8,9-5.3c2.1-3.9-0.9-5.6-2.4-8.6c-0.899-1.801-1.5-3-1.2-5c0.301-2.7,3.601-4.101,3.9-6.2
				c0.6-5-4.5-3-7.2-4.4c-5.1-2.7-0.899-5.6-1.2-9.5c-0.3-5.3-3.899-3.6-7.8-5c-4.2-1.5-2.399-2.7-4.2-4.7
				c-2.1-2.399-1.8-1.5-5.1-2.399c-3.9-1.2-8.7-8-12.9-4.7"/>
		</g>
		<path d="M400.2,665.5c0,0-0.7,1.8,0.899,1.6c0,0,4.101-2.6,7.801,0.301c0,0,1.6-0.2,0.6-1.9C408.4,663.9,402.4,664.2,400.2,665.5z
			"/>
		<path d="M426.4,663c0,0-0.2,1.7,1.3,1.3c0,0,3.7-3.8,7.7-1.5c0,0,2.699,0,1.3-1.399C433.3,658,427.8,661.1,426.4,663z"/>
		<path d="M405.4,669.4c-1.301,0.5-3.9,4,0.199,6.1c2.2,1.1,4-1.2,4.301-2.4c0.199-1,0.1-3.699-2.101-4
			C407.1,669.1,406,669.2,405.4,669.4z"/>
		<path d="M429.6,669.8c-1.5,0.5-4.5,4.2,0.2,6.5c2.5,1.2,4.601-1.2,5-2.5c0.3-1.1,0.101-3.899-2.5-4.2
			C431.6,669.4,430.3,669.6,429.6,669.8z"/>
		<path d="M421.8,674.8c4.2,3.101,15.7,1.3,15.7,1.3s0.3-1.399-0.2-2.3c-0.399-0.899-4.5-5.5-7.7-5.5c-3.1,0-7.8,3-7.8,3
			C421.2,671.8,421.8,674.8,421.8,674.8z M422.9,672c0.199-0.7,5-2.4,6.699-2.6c0,0,4.2,0.399,5.301,3.399c0,0,1.1,1.4,1.1,2.5
			c0,1-12.7-0.3-13.1-0.8C422.6,674,422.7,672.7,422.9,672z"/>
		<g>
			<path fill="#3A3A3A" d="M413.2,655c-5.101,3-13.2,4.7-15.5,10.4c-2,5.1-1.7,10.1-2.5,15.6c-0.2,1.9,0.4,12.1-0.2,11.9
				c-0.2,0-2.7-3.601-2.8-5.4c-0.4-8-6.8-8.7-4.7-13.6c2.1-4.9-0.8-6,0.5-10.4c2.1-6.6,8.9-9.5,12.9-14.6
				c2.1-2.5,3.199-4.7,5.899-6.4c2.3-1.5,7.601-5,10.101-5.7c4.699-1.5,8.3,0.601,7.5,8.2L413.2,655z"/>
		</g>
		<g>
			<path fill="#E5D295" d="M398,671.9c-2.3-0.5-5-0.5-5.8,2.3c-0.5,2.3,1,4.1,1.4,6.1s-0.4,4.601,1.6,5.9c2.8,1.899,3.5-2.9,3.7-4.7
				C399.3,678.5,398.7,674.7,398,671.9"/>
		</g>
		<path d="M412.6,671c0,0-4.399-3.3-7.6-3.5s-7.6,4.2-8.2,5c-0.5,0.8-0.399,2.2-0.399,2.2s11.399,2.5,15.899-0.3
			C412.3,674.4,413.2,671.5,412.6,671z M411.2,674c-0.4,0.5-13.2,1-13.2,0c0.1-1,1.3-2.4,1.3-2.4c1.4-2.899,5.601-3.1,5.601-3.1
			c1.6,0.4,6.3,2.3,6.5,3C411.6,672.3,411.6,673.6,411.2,674z"/>
		<g>
			<path fill="#FFFFFF" d="M405.1,690.7c8.301-1.101,15.4-2.7,23.601-0.7c-0.101,5.3-7,8.7-11.5,8.9c-5.4,0.3-8.8-4.601-12.3-8"/>
		</g>
		<rect x="494.8" y="464.7" fill="#FFFFFF" width="175.2" height="195.2"/>
		<path fill="#76A8A8" d="M517.6,492.4c1.7,8,0.4,16.3,0.7,24.399c0.3,7.2,2.5,13.8,5.4,20.3c0.3,0.7,1.1,0.801,1.7,0.7
			c7.399-1,14.399-3.1,21.899-2.399c3.601,0.3,7.7,0.3,9.101-3.801c1.899-5.6,1-11.6,0.1-17.3c-1-6.3-1.8-12.6-2.6-19
			c-1-8.2-8.101-8-14.9-8.2c-5.7-0.199-18-1-22.1,4.101c-1.2,1.5,0.899,3.6,2.1,2.1c3.2-4.1,13.3-3.3,17.8-3.3
			c3.3,0,6.601,0.2,9.9,0.8c4.2,0.8,4.2,4.2,4.5,8c0.6,9.7,4.3,19.5,2.899,29.3c-0.899,6.4-7.6,3.801-12.199,3.9
			c-5.801,0.1-11.601,1.9-17.4,2.7c0.6,0.2,1.1,0.5,1.7,0.7c-3.3-7.2-5-14.301-5.101-22.2c-0.1-7.3,0.801-14.5-0.699-21.7
			C520,489.7,517.1,490.5,517.6,492.4L517.6,492.4z"/>
		<path fill="#76A8A8" d="M570,510.2c4,0.1,7.8,1.2,11.7,0.6c0.8-0.1,1.2-1.1,1-1.8c-0.3-1.6-0.601-3-1.5-4.4
			c-0.9,0.5-1.7,1-2.601,1.5c1.101,1.5,2.7,3.4,0.5,4.601c-1.699,1-0.199,3.6,1.5,2.6c3.801-2.2,2.7-5.7,0.5-8.7
			c-1.1-1.6-3.6-0.1-2.6,1.5c0.7,1.101,0.9,2.301,1.2,3.601c0.3-0.601,0.7-1.2,1-1.8c-3.601,0.5-7.3-0.601-10.9-0.7
			C568.1,507.1,568.1,510.1,570,510.2L570,510.2z"/>
		<path fill="#76A8A8" d="M589.6,506.4c1.4,4,3.101,7.8,4.7,11.699c0.8,1.801,1.7,3.301,3.601,4.101c7.899,3.1,16.899,1.5,25.1,1.1
			c6.5-0.3,14,1.9,19.7-1.8c5.3-3.5,7.5-12.9,8.1-18.7c0.101-0.7-0.5-1.3-1.1-1.399c-8-2.5-16,2-23.9,2.8
			c-11.6,1.2-23.2,1.2-34.899,1.2c-1.9,0-1.9,3,0,3c10.5,0,20.899,0.199,31.3-0.801c4.3-0.399,8.2-1,12.399-2.1
			c4.601-1.2,9.5-2.6,14.2-1.1c-0.399-0.5-0.7-1-1.1-1.4c-0.601,5.9-3,15.4-9.4,17.5c-5.1,1.6-11.7-0.1-17,0.2
			c-6.6,0.3-13.2,1.2-19.7-0.101c-5.899-1.199-7.5-9.699-9.3-14.6C591.8,503.8,588.9,504.6,589.6,506.4L589.6,506.4z"/>
		<path fill="#76A8A8" d="M627.2,506c-0.4-6-4.601-12-8.8-16.1c-0.601-0.601-1.5-0.5-2.101,0c-5.3,4.199-8.399,10.3-12.2,15.6
			c-1.1,1.6,1.5,3.1,2.601,1.5c3.7-5.2,6.7-11,11.8-15c-0.7,0-1.4,0-2.1,0c3.6,3.4,7.6,8.9,7.899,13.9
			C624.3,507.9,627.3,507.9,627.2,506L627.2,506z"/>
		<path fill="#76A8A8" d="M583.4,526.8c0.199-3.8,3.3-3.1,5.8-1.6c2.8,1.7,3.7,4.7,2.2,7.7c-2.4,4.699-6.2,7.199-4.301,13
			c0.601,1.8,3.5,1,2.9-0.801c-2.5-7.3,9.6-12.399,3.5-19.899c-3.9-4.8-12.7-6.5-13.1,1.7C580.3,528.7,583.3,528.7,583.4,526.8
			L583.4,526.8z"/>
		<path fill="#76A8A8" d="M510.6,562.7c1.9,1.899,4.101,3.7,7,3.2c1.9-0.4,3.7-1.2,5.5-1.801c3-1,5.101,0.7,7.801,1.301
			c3.699,0.899,7.6-2.5,11-0.7c1.5,0.8,4.5,1.6,5.899,0.2c3.5-3.5,10.5-2.4,15.101-2.2c5.199,0.3,10.3,0.1,15.5,0.6
			c2.399,0.2,5.199-1.6,7.3-1c2.6,0.7,3.7,0.3,5.3-1.899c-0.8,0.1-1.6,0.199-2.4,0.3c5.5,5,13.801,1.7,20.4,1.399
			c1.9-0.1,1.9-3.1,0-3c-5.4,0.2-13.8,3.5-18.3-0.6c-0.8-0.7-1.8-0.5-2.4,0.3c-0.899,1.2-4,0.2-5.6,0.8
			c-3.3,1.2-6.7,0.4-10.101,0.101c-4.399-0.3-8.899,0-13.3-0.2c-3.6-0.2-7.7-0.1-11.1,1.4c-2.9,1.3-2.3,2.5-5.601,0.699
			c-2-1.1-4.5-0.399-6.6,0.301c-2.3,0.8-4.3,0.8-6.6-0.101c-1.2-0.5-2.7-1.2-4-1.1c-4.801,0.399-8.601,4.1-12.7-0.101
			C511.4,559.2,509.2,561.4,510.6,562.7L510.6,562.7z"/>
		<path fill="#76A8A8" d="M537.2,569.9c-1.5,5-6.3,8.199-9.601,12c-1.3,1.5,0.9,3.6,2.101,2.1c3.7-4.3,8.7-7.7,10.399-13.3
			C540.7,568.9,537.8,568.1,537.2,569.9L537.2,569.9z"/>
		<path fill="#76A8A8" d="M526.6,573.6c5.4,4.101,9.7,9.5,16,12.301c1.7,0.8,3.301-1.801,1.5-2.601c-6.3-2.8-10.699-8.2-16-12.3
			C526.6,569.9,525.1,572.5,526.6,573.6L526.6,573.6z"/>
		<path fill="#76A8A8" d="M524.2,610c26.7,0,53.3-1,80,0c-0.3-0.9-0.5-1.9-0.8-2.8c-13.601,5.8-27.5,10.899-42,14.2
			c-3.7,0.899-7.5,1.6-11.4,2c-3.3,0.399-6.6,1.5-10,0.899c-2.8-0.5-5.9-5.7-7.6-7.7c-2.601-3.1-5.101-6.199-7.2-9.699
			c-0.5-0.9-2.101-1.101-2.601,0c-2.8,6.3-3.199,13-3,19.8c0,0.8,0.7,1.5,1.5,1.5c5.5,0.2,10.801-2.9,16.101-4.101
			c7-1.6,14.2-2.399,21.3-3.699c15.8-2.801,31.6-6.301,47-10.5c1.9-0.5,1.1-3.4-0.8-2.9c-14.3,3.9-28.7,6.8-43.2,9.7
			c-7.2,1.5-14.4,2.5-21.6,3.8c-3.2,0.6-6.5,1.2-9.601,2.3c-3.1,1-5.899,2.5-9.2,2.4c0.5,0.5,1,1,1.5,1.5
			c-0.199-6.2,0-12.5,2.5-18.2c-0.899,0-1.699,0-2.6,0c1.9,3.2,4.2,6.1,6.5,8.9c2.3,2.699,4.7,6.5,7.7,8.5
			c5.1,3.399,12.899,0.6,18.5-0.301c17.2-2.8,33.7-9,49.7-15.899c1.5-0.601,0.6-2.7-0.801-2.8c-26.699-1-53.3,0-80,0
			C522.3,607,522.3,610,524.2,610L524.2,610z"/>
		<circle fill="#76A8A8" cx="590.9" cy="550.9" r="2.3"/>
		<path fill="#76A8A8" d="M596.7,625.8c0.1,6.5-1.2,12.9,0.3,19.4c0.4,1.899,3.3,1.1,2.9-0.8c-1.4-6.2-0.101-12.4-0.2-18.601
			C599.7,623.8,596.7,623.8,596.7,625.8L596.7,625.8z"/>
		<path fill="#76A8A8" d="M597.9,624.4c-2.4,3-3.301,7.399-6.4,9.8c-1.5,1.2,0,3.8,1.5,2.6c3.5-2.7,4.4-6.899,7.1-10.2
			C601.3,625.1,599.2,622.9,597.9,624.4L597.9,624.4z"/>
		<path fill="#76A8A8" d="M598.6,626.9c0.601,3.699,2.7,6.399,5.101,9.199c1.3,1.4,3.399-0.699,2.1-2.1
			c-2.1-2.4-3.899-4.6-4.399-7.8C601.1,624.2,598.3,625,598.6,626.9L598.6,626.9z"/>
		<path fill="#76A8A8" d="M570.7,628.8c0.1,4.9,1.2,9.9,0.3,14.9c-0.3,1.899,2.6,2.7,2.9,0.8c0.899-5.2-0.101-10.4-0.2-15.6
			C573.7,626.8,570.7,626.8,570.7,628.8L570.7,628.8z"/>
		<path fill="#76A8A8" d="M570.2,627.5c-1.5,2.8-3.5,5.2-5.8,7.4c-1.4,1.399,0.8,3.5,2.1,2.1c2.4-2.4,4.6-5.1,6.2-8.1
			C573.7,627.3,571.1,625.8,570.2,627.5L570.2,627.5z"/>
		<path fill="#76A8A8" d="M571,629.3c3.5,1.8,5.7,5.3,9.3,7c1.7,0.8,3.3-1.8,1.5-2.6c-3.6-1.7-5.8-5.101-9.3-7
			C570.8,625.8,569.3,628.4,571,629.3L571,629.3z"/>
	</g>
</g>
<g id="wall_x5F_fill">
	<path id="wall_x5F_fill_x5F_2" fill="#E5E5B5" d="M0,257v704h1920V257H0z M637,760.6H272V426.7h365V760.6z M1601,760.6h-365V426.7
		h365V760.6z"/>
</g>
<g id="wall_x5F_frames">
	<rect x="622.3" y="257" fill="#CCD9ED" width="38.101" height="525.1"/>
	<rect x="249" y="257" fill="#CCD9ED" width="38.1" height="704"/>
	<rect x="1586.1" y="257" fill="#CCD9ED" width="38.101" height="525.1"/>
	<rect x="1212.8" y="257" fill="#CCD9ED" width="38.101" height="704"/>
	<rect y="406" fill="#CCD9ED" width="1920" height="38.1"/>
	<rect y="744" fill="#CCD9ED" width="1920" height="38.1"/>
</g>
<g id="ground_x5F_roof">
	<rect id="ground_x5F_fill_3_" y="941" fill="#353229" width="1920" height="139"/>
	<rect id="roof_x5F_2" y="137.8" fill="#353229" width="1920" height="119.2"/>
</g>
<g id="characters_x5F_outdoor_x5F_fills">
	<g id="Proto-type">
		<g id="client_x5F_2">
			<g>
				<path fill="#001221" d="M1661.6,948.9c-4.899,19.899-2.1,40.699-5.1,61.1c-2,14.5-9,27.5-12,41.5c-1.4,6.4-2,28.5-2,28.5h51.1
					c0,0,1.301-2.2,1.9-3.5c5-11.5,4-25,5.5-37.5c2.5-18,8-34,20-48c8.5,7,7.5,27.5,8.5,37.5c1,17,1.5,30,8,46
					c0.9,2.4,2.5,5.5,2.5,5.5h49.4c0,0,2.5-6.6,2.199-12c-1-13.5-5-26.5-6-39.5c-1-14,1-28.5,0-42.5c-1-11.5-5.5-22.5-9-33
					c-1.5-5.5-3-16-7.5-19.5c-4-2.5-11.5-0.5-16-1c-17-1-29.5-7-47-2c-9,2.5-17,3-26.5,2c-3.5,0-8.5-1.5-12-0.5
					c-4.6,1.4-7.899,5-6.699,8.1L1661.6,948.9z"/>
			</g>
			<path d="M1528.4,1080v-69.6c0-6.601,5.399-12,12-12h127c6.6,0,12,5.399,12,12v69.6H1528.4z"/>
			<path d="M1576.6,989.4c0,3.8,0,7.699,0,11.5c0,1.899,3,1.899,3,0c0-3.801,0-7.7,0-11.5C1579.6,987.4,1576.6,987.4,1576.6,989.4
				L1576.6,989.4z"/>
			<path d="M1628.1,989.1c0,3.9-0.399,7.801,0.301,11.601c0.399,1.899,3.199,1.1,2.899-0.8c-0.7-3.601-0.2-7.2-0.2-10.9
				C1631.1,987.2,1628.1,987.2,1628.1,989.1L1628.1,989.1z"/>
			<g>
				<path fill="#CEA64A" d="M1693.9,714c-1.301,4.3,3.3,10.3,8,11c0-1,0.3-1.3,0.3-2.3c-1,8-2.3,15.3-4,23.3
					c-1.7,10.3,5.3,15.3,15.7,16c6.3,0.3,21.3-2,22.3-10c0.3-3.7-3.3-7.7-4.3-11c-1.301-4-1.7-9-1-13c0.3-2,1-4,1.699-6
					c-0.3,1.7-0.699,3.7-0.3,5.3c4.3-2,5.7-10.7,2.7-14.3c-2.7-4-9.301-5.3-14-5.7c-9.301-0.7-20,2.3-27.301,8.3"/>
			</g>
			<g>
				<path fill="#CEA64A" d="M1817.2,810.3c4.7,5.3,14,7.3,19.3,12.7c2.7-16,14.3-27.7,18.3-43c4.7-15.3,10.5-32.7,16.5-47.3
					c0.2-6.8,10.2-25.7,10.2-25.7s13.3-1.4,19.7,2.8c3.3,2,2.899,16.3,2.5,19.7c-2.4,19.3-7,15.9-18.4,16.1
					c-5.8,14.301-9.899,64.301-22.6,90.301c-4,8-9.5,14.5-15.5,20.5c-10.7,10.699-13.3,0.699-23.3-5.301
					c-13.301-8-34-18.699-15.301-34c2.7-2.699,5.301-4,8.7-5.3"/>
			</g>
			<g>
				<path d="M1685.6,689.2c-0.3,3.399,4,5.899,4,9.3c0,3.5-3.5,6-4,9c-1,7.5,3,13.3,10,13.3c5.5,0,15.801,8.601,21.301,9.101
					c6.5,0.5,10.3-5.801,16.3-4.301c5,1.5,5.899-3.6,10.399-6.6c6-4,3.5-9,4-15.5c2-18,12-29.5-4-45c-6-6-14.5-10-23-12
					c-7.199-1.3-18.5,1.8-22.6,9.2C1698,655.7,1689.4,658.3,1685.6,689.2z"/>
			</g>
			<g>
				<path fill="#CEA64A" d="M1625.5,845c-1.5,26.5-17.5,53-23.5,79.5c-3,12.5-5,26.5-3,39c0.5,3.5,3.5,17,8.5,16
					c4.5-1,6.5-15,7-18.5c4.5-23.5,21.5-41.5,26.5-64.5c2.5-11.5,6-20.5,10-31.5s1-27-15-25.5c-5.5,0.5-10,4-12.5,8.5"/>
			</g>
			<g>
				<path fill="#AB9AFF" d="M1621.5,841c3-15,11-38,17-55c9-28,31-31,58-34c22-2,42,1,63,6c10,2,20,1,28,6c12,7,13,19,19,29
					c5,8,10,14,18,17c-10,8-24,19-26,32c-12-5-17-32-28-15c-5,8-5,27-7,37c-4,24,2,45,1,69c-21-24-78,0-101,3
					c5-35,2.3-80.7,1.3-115.7c1,7-4.3,30.7-8.3,36.7c-10-4-31-9-36-18"/>
			</g>
			<g>
				<path fill="#AB9AFF" d="M1694.4,752.2c1.8-3.3-1.7-8.601,1.3-10.8c2.1-1.5,2.8-1.5,6.1-1c3.3,0.8,6.601,1.3,9.8,2
					c9,2,15.101-2.601,24.601-1.301c1.5,2.301,5.399,9.801,3.7,12.301c-1.301,2-13,1.5-15.801,1.8c-5,0.8-9.8,2.3-14.5,1.3
					C1704,755.3,1699.4,754.2,1694.4,752.2"/>
			</g>
			<g>
				<path fill="#CEA64A" d="M1867,742.4c-2.5-9.301-5.4-18.9-0.9-28.2c2.7-5.601,8.601-9.3,9.7-15.601
					c0.5-3.5-1.399-15.899,3.8-13.1c4.301,2.6,6.601,9.8,5.4,14.5c-0.7,3.5-2.7,6.3-2.9,9.8c-0.199,4,2.301,7,1.4,11
					c-1.6,5.101-6.8,10-9.5,14.5c-0.7,1.601-7.2,10.7-7.9,6.3"/>
			</g>
			<g>
				<path fill="#CEA64A" d="M1601.9,961c-1.5,3.4-3.9,6.1-6.5,8.6c-3.301,3.301-5.301,6.9-5.801,11.5c-0.6,5.9,0.4,14.9,6.4,17.601
					c4.4,2,9.1-0.9,13.8-1c2.8-0.101,6.4,2.5,8.601,0.5c3.3-3,2.399-9.601,2.399-13.5c0-6.3-0.899-12.9-5.5-17.601
					c-2.3-2.3-5.1-3.399-7.8-5.3C1604.3,959.4,1603,957.5,1601.9,961"/>
			</g>
			<path d="M1577.8,990.3c17.3,0,34.5-0.2,51.8-0.3c1.9,0,1.9-3,0-3c-17.3,0-34.5,0.2-51.8,0.3
				C1575.9,987.3,1575.9,990.3,1577.8,990.3L1577.8,990.3z"/>
			<g>
				<path fill="#CEA64A" d="M1593.9,993.8c-3.2-9,6.5-22.399,16.3-21.399c4.3,0.5,7.5,5.8,8.8,9.699
					c1.301,3.301,4.301,10.801,0.301,13.5c-1.801,1.2-2.301,0-4.201-0.199c-1.699,0-2.299,0.699-3.799,1c-3,0.8-4.5-1.2-7.301-0.2
					c-2.199,0.5-5.199,2-7.5,1.3C1595.2,997,1594.3,995.5,1593.9,993.8L1593.9,993.8z"/>
			</g>
			<g>
				<path fill="#CEA64A" d="M1615.4,958c0.5,5,6.399,6.6,9,10.3c3.8,5.101,1.1,11.5,0.8,17.101c-0.101,2,0,4,0.6,5.899
					c0.3,1.101,1.101,2.9,0.601,4c-1.601,4-6.601-1.399-7.601-3.3c-1.6-2.8-1.3-5.9-0.899-8.9c0.5-4.3-1.4-4.6-4.601-6.8
					c-4.399-2.899-5.3-9.3-3.399-14C1610.8,960,1613.7,955,1615.4,958"/>
			</g>
		</g>
		<g id="chart_x2B_people">
			<g>
				<path fill="#005A99" d="M1386.7,527c-13.7,4.7-24.7,4-27,21c-3,22.3,5.3,46.7,11.7,67.7c2.3,8.7,6.3,16.7,10.699,24.7
					c3.301,6.3,5.7,8.3,11.7,2.699c9.3-9.3,16.7-20.699,25.3-30.699c3.7-4.301,7-9,6-15c-2.3-13.301-13-24.7-18.3-37
					c-5.3-12.301-8.3-27.7-22.7-33.301"/>
			</g>
			<g>
				<path fill="#005A99" d="M1471.7,530c11,4.3,19.3,4.3,20.3,18.3c1.3,20-0.7,41.7-4,61c-1,6.7-1,15.7-6.7,20
					c-4.3,3.3-10.3,4.3-15.3,5c-14.3,2.7-27-1.3-30.7-17.7c-2.3-12.699,8.3-21,14.7-30.699c5.3-8.301,8-16.7,8.7-26.301
					c0.7-8,1-29.699,14-28.699"/>
			</g>
			<g>
				<path fill="#FFFFFF" d="M1594,541c-11,1-19-9-30-6c-12,5-20,26-24,36c-9,21-11,40-13,62c-3,26-22,68,12,82c20,8,36,3,53,21
					c29-31,19-83,47-112c0,8-3,16-3,24c6-3,16-8,24-6c7,1,18,8,4,12c12-2,17-56,13-67s-27-25-37-30S1605,542,1594,541"/>
			</g>
			<g>
				<path fill="#C1A868" d="M1620,527.5c3.5,16.5-18.5,15-27.5,13.5c-3.5,10,16,31,24.5,34.5c9,4,32,3.5,30.5-11
					c-0.5-6-6.5-8.5-6-16.5c0.5-6,6-10.5,1-13.5c-3-1.5-8.5,0-12-2c-5.5-3-7-9.5-12-13"/>
			</g>
			<g>
				<path fill="#005A99" d="M1419,575c-1-16,5-19-8-31.5c-8.5-7.5-23.5-19.5-10-28.5c12-7.5,24.5-10.5,37-5c8,4,30,5,28,18
					c-1,6.5-8,5.5-13,8.5c-4.5,3-10,8.5-11.5,13.5c-3.5,10.5,5,16.5,4.5,27c0,0,0,0,0-0.5c1-7.5,0-15.5,4.5-22c4-6,9.5-7,15.5-10
					c10.5-5.5,18-18,10-29c-7-9-25.5-10.5-36-13c-12.5-3.5-25,1.5-37,5c-16.5,5-26.5,19-15,34.5c5.5,7.5,15.5,9.5,20.5,18
					c3,6,7.5,15.5,9.5,21c0-5-3-11.5,1.5-15.5"/>
			</g>
			<g>
				<path fill="#333333" d="M1413.7,549.3c-0.3-6.7-11.3-17.7-8.3-23.3c3.8-2.6,12.699-3,17-2.7c6.699,0,12.699-4.6,21.3-1.6
					c4.5,1.5,6,2.6,6.3,8.2c0.3,4.3-5.3,9-5,13.699c2-7.3,17-9.3,21.7-15.699c6.3-9-8.7-14.301-15.3-17c-13.301-5.301-26.7-6.7-40-2
					c-8.301,3-17.301,7-17.301,17.3c0,11,14,15,20,22"/>
			</g>
			<path fill="#C1A868" d="M1638.6,479l-5.899,1.9l-1.5,5.8l-4.601,4l-3.5,10.8l-4.8,12.6l1.2,10.601l4,8.8l11.5,4.1l9.3,0.2
				l9.4-2.2c0,0,5.8-2,8-8.8s1.8-9.6,1.8-9.6l4.4-6.7l1.699-7.1l-21.5-25.9L1638.6,479z"/>
			<path fill="#C1A868" d="M1624.7,495.4c0,0-7.3-5.101-7.101,9.8c0,1.399,1.2,3.399,1.2,3.399S1623.9,505,1624.7,495.4z"/>
			<path fill="#C1A868" d="M1666.6,512.6c0,0,4.601-1.199,5.2-0.6c0.601,0.6,3.2,2.8-2.2,8.8c0,0-6.399,4.5-7.399,3.2
				C1662.1,524,1664.8,513.6,1666.6,512.6z"/>
			<path fill="#3A3A3A" d="M1625.5,494.2c0,0,1.6-5.9,2.6-4.7c0,0,6-2.5,3.5-4.1c0,0,0.2-5.5,3-5c0,0,2.301,1,3.9-1.301
				c0,0,0.9-1.699,2.7,3c0,0,1.3,1.101,3.7,0.9c0,0-0.4,6.3,5,8.8c0,0,2.8,1.601,4.1-4l-3,4.8c0,0-0.2,2,1.199,2.4
				c1.4,0.4,2.601,0.5,3.601,0.5c1.101,0-2.601,5.3-1.101,4.5c0,0,2.5,2.4,3.601,0.5l1.399,1.5l5.5,6c0,0-1,1.4,2.801,2.2
				l-1.301,1.8l5.101-0.9l2.601,0.9c0,0-0.5-2.3,4.199-3.2c4.7-0.899,2.801-3.6,2.801-3.3s-1-4.5,2-5.4c3-0.899,1.5-7.399,1.5-7.399
				l0.399-3.101c0,0-5.7,0.2-2.399-3.6c3.299-3.8,1.899-4.8-2.101-10.1c-4.101-5.2-5.7,1.199-5.8-0.2c-0.1-1.5-3.801-4.7-3.801-4.7
				s-4,1.2-7.199,0.7c0,0-0.2-3.5-3.2-4.9c-3-1.399-1.5-4-1.5-4s-1.899-0.8-3.8,1.601c-1.9,2.399-4.7,3.6-4.9,3
				c-0.199-0.601-1.199-4.2-2.8-3.801c-1.601,0.4-4.101,2.5-3.8,3.4c0.199,0.9-3.5,5.6-5.5,4.7c-2-0.9-2.301,0.5-3.2-3.3
				c-0.9-3.7-4.2,5.1-3.7,4.1c0,0,1.7,4.5-6,1.8c0,0,0.6,5.8-1.9,4.9c0,0-0.3-2.7-2.899-1.8c0,0-1.9,1.399,1.399,9.899
				c0,0-5.199,4.101-2.3,6.8C1622.7,496.5,1620,492,1625.5,494.2z"/>
			<polygon points="1627,535 1631.4,537.4 1635.9,537.3 1640.3,537.2 1640,538.4 1634.4,539.4 1629.5,539 1627.6,537.7 1626.7,536 
							"/>
			<polygon fill="#3A3A3A" points="1661.1,527.9 1653,534.2 1645.3,537.1 1651.4,536.2 1657.3,534.2 1659.9,530.4 			"/>
			<polygon fill="#3A3A3A" points="1618.3,514.1 1620,521.2 1620.6,527.1 1621.8,529.7 1619,526.2 1618.2,522.4 1617.6,516.9 			"/>
			<path d="M1628.7,502.8c0,0-1.101,0.601,0.1,1.101c0,0,4.8-3.601,7.601,1.399c0,0,1.5,0.7,0.699-0.8
				C1635.6,501.6,1632,500.6,1628.7,502.8z"/>
			<path d="M1656.3,513.7c0,0,0.5,1.1-0.7,0.8c0,0-1.6-5.8-6.8-3.6c0,0-1.6-0.301,0-1.101C1651.7,508.5,1655.1,510,1656.3,513.7z"/>
			<path fill="#CEC361" d="M1409.6,524.2c0,0-1.6,15.7,17.801,12.8c18.5-2.8,17.5-10.3,18-12.4c0.5-2.399-6-3.899-6-3.899
				l0.899-12.4l0.5-4.899l-23,2.3l0.101,17.3L1409.6,524.2z"/>
			<polyline fill="#CEC361" points="1413.3,459.6 1419.5,458 1426.1,458 1432.1,455.1 1437.9,452.2 1442.9,453.1 1445.9,460 
				1449.5,467.4 1448.7,479.5 1448.7,479.5 1447.7,485.3 1441.3,502 1434.9,508.3 1426.5,511.5 1420.1,509 1417.2,504.1 
				1412.3,496.4 1411,483.1 1409.6,466.5 			"/>
			<path fill="#CEC361" d="M1408.6,472c1.801,0.2,2.5,16.8,2.5,16.8s8.101,14.601-1.699-1.3c-9.9-15.9-1-15.5-1-15.5"/>
			<path fill="#CEC361" d="M1450.2,475.7c0,0,8.899,1,2.3,11.8c0,0-2.1,4.6-5.7,2.8L1450.2,475.7z"/>
			<path fill="#3A3A3A" d="M1444.6,457c0,0,8.301-7.4-0.3-16.5c-8.6-9.1-24.8-2.6-24.8-2.6s-8.6,5.1-11,9.399c0,0,0.4,2.4-1.6,5.9
				s-0.801,10.2-1,10.7c-0.2,0.5,2.699,7.1,2.699,7.1l1.4,0.3c0,0-2-6.2,3.8-11.8c0,0,1.4-1.6,13.101-1.4c0,0,5-0.899,6.8-3.3
				c0,0,3.8-3.3,8-2.3L1444.6,457z"/>
			<path fill="#3A3A3A" d="M1448.2,446.7c0,0,2.8-2.7,3.3,0c0,0,1.8-0.101,2.6,4c0.801,4.1-0.8,4.399,0.301,8.3
				c1.1,3.9,1.6,10.9,0.5,11.3l-3.101,5.9l-1.8-0.8c0,0-0.2-5.9-0.7-8c-0.5-2.101-4.8-8.301-4.8-9.301s4.6-4.199,3-5.699
				s-0.3-5.4-0.3-5.4L1448.2,446.7z"/>
			<path fill="none" stroke="#000000" stroke-miterlimit="10" d="M1409,473.2c0,0,8.6-4.5,18.2-1.5c0,0,4.399-1.7,5.7,0.899
				c0,0,10.5-4.1,17.3,1.4c0.7,5.5-2,7.1-2,7.1s-12.2,0.2-13.7-2.1c-1.8-1.8-0.8-1.8-1.6-5.5c0,0-1.9-3.3-5.301-0.5
				c0,0,0.2,2.9-1.8,5.3c-1.2,1.4-12.899,2.9-14.5,1.101C1409.2,476.9,1409,473.2,1409,473.2z"/>
			<polyline points="1420.9,509.4 1426.6,510.3 1434.2,508.5 1434.2,510 1432,511.5 1428.2,512.6 1427,513.6 1423.2,512.8 
				1422.2,511.5 			"/>
			<polygon points="1416.9,493.5 1427.6,491.5 1437.2,494.9 1427.6,493.2 1425.4,493.2 			"/>
			<path d="M1412.2,466.5c0,0,6-3.4,8.3-3l0.3,1.8c0,0-7,2.2-8.399,3.8l-0.9-1L1412.2,466.5z"/>
			<path d="M1439.1,465.1c0,0,5.7,0.101,7.301,2.801c0,0,0.3,2.3-1.5,1.6c-1.801-0.7-2.801-2.2-5.301-1.8l-0.8-1L1439.1,465.1z"/>
			<g>
				<path fill="#29301E" d="M1585.7,729.3c-2.3,2.8-3.8,6-6,9c-3.5,3.8-3.5,6-9,5.8c-5.5-0.199-10.8,0.801-16.3,0.801
					s-11-0.801-16.5-0.801c-2.301,0-4.5,0-6.801,0c-4.3,0-4.5,0.301-4-3.8c1-8.8,0-14.5,6.5-21c2-1.8,4.301-5,6.5-6
					c2.2-1,6.301-0.3,8.801-0.3c7.8,0,14,2.8,21.3,4.8c2.8,0.8,7,1,9.3,2.5c2.5,1.8,5,6.3,7,8.8"/>
			</g>
			<path fill="#EEFF2F" d="M1565.3,584.1c-6.399,21.2-12.1,42.7-18.399,63.9c-1.7,5.6,7,8.2,8.6,2.6
				c6.4-21.199,12.1-42.699,18.4-63.899C1575.6,581.1,1567,578.5,1565.3,584.1L1565.3,584.1z"/>
			<path fill="#DB2A00" d="M1593.9,593.9c-0.9,6-3.801,11.5-6,17.1c-2.5,6.3-4.4,12.8-7,19c-2.601,6.4-6.301,12.4-9.2,18.7
				c-2.8,6-5.101,12.1-7,18.399c-1.7,5.5,6.899,8.101,8.6,2.601c4-13.101,10.8-24.601,16.3-37.101c2.7-6.199,4.7-12.699,7-19
				c2.4-6.6,5.4-12.5,6.4-19.5C1603.7,588.4,1594.7,588.2,1593.9,593.9L1593.9,593.9z"/>
			<path fill="#0057B6" d="M1620.1,601.6c-7.699,20-21.399,36.801-31.399,55.601c-2.7,5.1,4.899,9.899,7.6,4.8
				c10.5-19.5,24.4-37,32.4-57.8C1630.8,598.8,1622.2,596.2,1620.1,601.6L1620.1,601.6z"/>
			<g>
				<path fill="#E5D295" d="M1359,546.5c0-6-9.3-5.5-9-11.8c0-3.5,5.5-9.3,1.3-12.3c-3.3,4.8-8.3,8-9.5,14c-1.5,7.3,2,10.5,6,16.3
					c2.3,3.3,7.5,8.5,12,6C1365.2,555.8,1359,550.5,1359,546.5"/>
			</g>
			<g>
				<path fill="#E5D295" d="M1230.3,554c4,8.3,5.3,14.7-2.3,21.3c-3.7,3-8.7,5-5.3,9c2.7,3.3,8.7,2.7,12.7,2.7
					c9.699,0,18.3-2.7,26-8.3c3.3-2.7,6.699-5.7,6-10.3c-1-5.7-4-3.301-8.7-5.301c-3.3-1.699-5.7-4.3-7-7.699c-1.7-4-0.7-8-5-7
					c-2.7,0.3-6,4.699-9.7,5.699c-2.3,0.301-5,0.301-7.3,0.301"/>
			</g>
			<g>
				<path fill="#E5D295" d="M1257.7,714.3c1.3,3.5-0.7,10.2,1.7,12.8c11.1-1.8,20.699-5,30.199-9c10.301-4.399,21.301-6.8,31.7-10.8
					c6.8-2.7,18.8-8.8,14.5-18.2c-2.3-5.5-13.8,2.2-17.2,3.5c-11,4-22.199,7-33.199,10.801c-6.2,2.199-12.2,4.699-18.2,7.199
					c-3.8,1.5-9.2,2.801-9.5,7.5"/>
			</g>
			<g>
				<path d="M1258.7,724.3c-1.7,3-2.3,7.7-1,11c0.7,2,2.3,3.7,3.7,5.3c2.3,3.301,0,3,4.699,4c6.301,1.301,14.7-2,21.7-2
					c7.7,0,15,1.301,22.7-0.3c6.3-1.3,21-2.3,25.699-8c3.301-4.3,2.301-14.3,2.7-19.7c0-2.699,0.3-5.3,0-8
					c-0.7-3.699-3.3-7-4-10.699c-5.7,4-10.7,7.699-17.7,10.3c-6.699,2.3-13,5.7-19.699,8.7c-10.301,4.3-27.7,11.3-39.301,9.3"/>
			</g>
			<g>
				<path fill="#40001E" d="M1222.3,579c-10.7,6-24,7.3-29.3,20c-2,5.3-0.7,10.7-2,15.3c-1.3,6.7-6.7,12.7-6.7,19.3
					c6.7-0.699,23.3,1.301,24,9.301c2.7-5.301,2-12.7,6.7-16.7c0,21.3,24.7,21.3,32,40.7c6,16,6.6,34.399,10.5,50
					c16.8,0.6,80.6-17,76-31c-5.3-17.301-25.2-29.7-28.5-49c-2.7-14,0.7-28-2-42c-2-8,2.7-13.7-1.3-20.301
					c-6-12-17.3-11.699-30.7-10.3c-2.7,0.7-5.3,0-8.7-0.7c-0.7,13.301-28.7,21.301-40,14.7"/>
			</g>
			<rect x="1289.6" y="540" fill="#FFD160" width="268.4" height="277.1"/>
			<g>
				<path fill="#E5D295" d="M1353,545c-0.5-3-1.8-13.3,0.5-15.5c2.5-2.3,5.3,1,8.3,0.5c1.8-0.5,1.5-2.8,3.8-2
					c0.301,0,2.5,2.5,3.301,3c0.5,0.5,1.5-0.5,2.3-0.3c0.8,0.5,1,1.8,1.5,2.3c1.5,1.3,2,1,2.3,3.3c0.301,2.8-1.8,6.3-3,8.5
					c-2.5,4.3-11.8,12.8-17.3,8C1351.5,550.5,1353,548,1353,545"/>
			</g>
			<g>
				<path fill="#C1A868" d="M1663,646c-3,10,0,28-8.5,33.5c-12.5,8.5-41,4-55,3.5c-13-0.5-28.5-8.5-40.5-4.5c-8,2-29,6-35.5-2.5
					c-9-10.5,27-24.5,36-21.5c0-1,0.5-3.5,0-4c8.5-1.5,12,10,22,10c7,0,14.2-0.5,20.9-1.1c12.8-1.101,35.899,0.899,35.899,0.899
					s-4.2,1.5-1.1-12.899C1652.4,641.8,1663,646,1663,646z"/>
			</g>
			<g>
				<path fill="#C1A868" d="M1492.3,534.8c0,4.4-2.5,7-1.3,11.3c1,3.801,4.2,9,7.7,11.101c2,1.2,4.5,2.1,6.5,3.2
					c2.7,1.199,3.8,0.5,5.7-1.7c2.5-3.2,3-7.8,4.3-11.4c2-5.8,3.3-12.6-0.3-18.1c-1.5-2.101-2.5-1.8-4.801-1.7c-1.5,0-1.3,0.5-2.5,0
					c-1.3-0.5-1.3-1.7-3.199-1.5c-1.2,0.2-1.801,0.9-2.801,0.9c-0.5,0-1.3-1.101-2.5-0.9c-1.699,0.3-1.699,1.4-2.5,2.1
					c-1,0.601-2.3,1.101-3,1.801C1492.5,531,1492.3,533.5,1492.3,534.8"/>
			</g>
			<g>
				<path fill="#C1A868" d="M1517.8,538.7c0.2-2.7,3-8,5.8-8.3c2.801-0.301,7.301,3.699,6.301,6.699c-0.301,1.301-8,8.2-9.301,8.2
					C1517.5,545,1517.7,540.6,1517.8,538.7"/>
			</g>
			<polygon fill="#E5D295" points="1224.6,502.7 1232.4,500.5 1239.8,501.3 1245.8,507.7 1251.5,519.5 1256.2,531.5 1255.4,536.2 
				1252.1,544.2 1245.9,554 1239.1,559.1 1230.4,557 1220.9,554.2 1214,547.7 1212.1,543.6 1211.6,526 			"/>
			<polygon fill="#E5D295" points="1224.6,502.3 1232.4,500.2 1239.8,501 1245.8,507.3 1251.5,519.2 1256.2,531.1 1255.4,535.9 
				1252.1,543.9 1245.9,553.7 1239.1,558.8 1230.4,556.7 1220.9,553.9 1214,547.3 1212.1,543.3 1211.6,525.7 			"/>
			<path fill="#3A3A3A" d="M1240,501.3l-6.7-8.8l-2.2-1.1l-4.3,2l-8.899-1.601l-2.101,2.601c0,0-7.2,1.399-14.899,13.199l-3.4,10.4
				l1.1,2.8l-1.3,2.601c0,0-3,4.6,2.2,12c0,0-1.3,1.199-1.4,7.199c0,0-2.1,5.601-1,6.4c0,0,8.601,7.5,7.5,7.2l1.101,2.1l8.199,6.601
				l-1.1-1.9l-4.7-5.1l3.801,0.899c0,0,2.3,2.601,7.8,3.8l4.399,3.801l0.601-4.101c0,0-1.5-4.6-10.4-7.2c0,0-4.3-3.6-3.399-7.399
				l1.399-3.9c0,0,1.8,2.9-0.7-14.899c0,0-1.399-1.801,4.7-9c0,0,1.5,0.399,5.8-12.301c0,0,0.9-7.6,11.7-6.199L1240,501.3z"/>
			<path fill="#3A3A3A" d="M1239.5,499.9c0,0,1.7-4,4.7-4.5c3.1-0.5,5.899,7.899,6.2,7.399c0,0,2.5,7.101,2.5,5.5
				c0-1.5,1.699,7.4,4.699,9.2c0,0,8.5,8.3,8.4,9c0,0,1,1.5-2.3,10.1c0,0-1.101,2,1.6,6.9c0,0,0.6,3-6.1,7.3c0,0-3.4,0.3-1.9,12.7
				c0,0-2.9-9.5-0.1-13l-2.101,2.1c0,0-1.699-7.199,0.801-10.5c0,0,0.6-0.8-0.5-5.1l1.1-7.3c0,0-4.6-4.101-4.8-12.7
				c0,0-4.801-8.7-7.2-12.1c-2.4-3.4-4.8-3.5-4.8-3.5l-0.801-1.4L1239.5,499.9z"/>
			<path d="M1214.2,525.3c0,0,0,2.101,1.6,1.4c0,0,3.3-4.5,8.4-3c0,0,1.6-0.9-0.2-2.3C1222.3,520.1,1216,522.9,1214.2,525.3z"/>
			<path d="M1233.7,518c0,0,0.1,2,1.7,1.2c0,0,3.399-5.101,8.399-3.4c0,0,3-0.6,1.101-1.8C1240.5,510.9,1234.9,515.5,1233.7,518z"/>
			<path d="M1240.2,520.3c-0.9,0.8-1.3,2.2-0.9,4.3c1.601-1.1,7.8-1.699,7.8-2.1c-0.199-1.3-1.5-4-4.199-3.3
				C1241.8,519.1,1240.9,519.7,1240.2,520.3z"/>
			<path d="M1220.2,527.9c-1,0.8-2,2.699-0.4,4.399c2-0.899,4.7-2.1,7.5-2.6c-0.2-1.3-1.899-3.7-4.7-3
				C1221.7,526.9,1220.8,527.4,1220.2,527.9z"/>
			<path d="M1228,525.7c0,0-5.3-2-8.2-1.101c-2.899,0.9-5.1,7.101-5.2,8.2c-0.1,1.101,0.601,2.5,0.601,2.5s5.7-4.3,14.1-5.899
				C1229.2,529.5,1228.8,526,1228,525.7z M1228.1,529.4c-1,0.399-6.699,0.5-11.8,4.6c-0.399-1.1,0.2-3,0.2-3c0-3.6,3.8-5.2,3.8-5.2
				c1.601-0.2,6.601,0.3,7.101,1C1227.7,527.4,1228.3,528.8,1228.1,529.4z"/>
			<path d="M1235.6,526.7c8.4-3.4,14.7-4.2,14.7-4.2s-0.399-1.6-1.1-2.3c-0.8-0.8-6.4-4.3-9.2-3.2s-5.8,6-5.8,6
				C1233.8,523.8,1235.6,526.7,1235.6,526.7z M1235.5,523.4c-0.1-0.801,3.5-4.301,4.9-5.2c0,0,3.899-1.101,6.199,1.7
				c0,0,1.601,1.1,2,2.3c-4.199,1-5.899,0.1-12.1,3.8C1236,525.6,1235.6,524.2,1235.5,523.4z"/>
			<g>
				<path fill="#E5D295" d="M1200.2,654c6.3,5.8,14.7-2.9,33.7-4.3c15.699-1.101,18.8-1.3,31.5-3c7.3-1,12.3-4.3,16.3-10.3
					c4-5.5,7.5-5.301,14-5.301c7,0,11.8,1.5,18,4.301c2,0.8,6.5,1.8,7,4.3s-4,7.3-5.8,8.5c-5,4.3-10.5,4.3-16.801,4.3
					c-3.3,0-5.5,1.5-8.8,2c-3,0.8-5-0.5-8-1h2.3c-12.8-0.8-27.3,8-38.8,12.5c-12.5,5-24.3,11.5-38,11.5c-6.3,0-12.3-0.8-18.5-0.8
					c-8.3,0-9.5-1.8-9.8-9.5c-0.5-5.8,0.3-11.5,1.8-17.3c1.8-5.5,3-13,6-18l0.8,0.3c5-3,15.5-1.3,19.301,3.5
					c2.3,3.3-0.801,18-3.5,21"/>
			</g>
			<polygon fill="#A59F4A" points="1412.7,758.4 1414.1,785.9 1495.5,738.7 			"/>
			<polygon fill="#FBFF28" points="1416.1,762 1414.1,785.9 1495.5,738.7 			"/>
			<polygon fill="#F4F490" points="1416.1,762 1495.5,738.7 1455,778.5 			"/>
			<polygon fill="#F4F490" points="1495.5,738.7 1412.7,758.4 1380.5,760.1 			"/>
			<path fill="#A59F4A" d="M1439.6,569c12.7,0.2,20.4,7.8,25.2,12.9c0.9,0.899,3.5,0.8,2.7-0.101c-5.5-5.8-14.3-14-28.5-14.2
				C1437.3,567.6,1437.8,569,1439.6,569L1439.6,569z"/>
			<path fill="#A59F4A" d="M1499.5,697.3c1.1,11.8-0.5,19.2-5,25.2c-0.9,1.2,0,3.4,0.9,2.2c4.899-6.4,7.899-16.4,6-28.101
				C1501.1,694.8,1499.7,695.4,1499.5,697.3L1499.5,697.3z"/>
			<path fill="#77703F" d="M1332.8,691.6c-15,0-27.2,12.2-27.2,27.2s12.2,27.2,27.2,27.2s27.2-12.2,27.2-27.2
				S1347.8,691.6,1332.8,691.6z M1332.8,742.1c-12.8,0-23.2-10.399-23.2-23.199c0-12.801,10.4-23.2,23.2-23.2s23.2,10.399,23.2,23.2
				C1356,731.7,1345.6,742.1,1332.8,742.1z"/>
			<path fill="#77703F" d="M1332.8,703.6c-8.399,0-15.2,6.801-15.2,15.2c0,8.4,6.801,15.2,15.2,15.2c8.4,0,15.2-6.8,15.2-15.2
				C1348,710.4,1341.2,703.6,1332.8,703.6z M1332.8,730.8c-6.6,0-11.899-5.3-11.899-11.899c0-6.601,5.3-11.9,11.899-11.9
				c6.601,0,11.9,5.3,11.9,11.9C1344.7,725.4,1339.4,730.8,1332.8,730.8z"/>
			<rect x="1354.5" y="695.2" fill="#A59F4A" width="56.5" height="2.1"/>
			<rect x="1414.1" y="696.2" fill="#A59F4A" width="17.301" height="2.1"/>
			<rect x="1414.1" y="691.6" fill="#A59F4A" width="11.4" height="2.101"/>
			<rect x="1396.6" y="723.6" fill="#A59F4A" width="11.101" height="2.101"/>
			<rect x="1396.6" y="727.8" fill="#A59F4A" width="7.7" height="2.101"/>
			<rect x="1323.1" y="778.3" fill="#A59F4A" width="9.601" height="2.101"/>
			<rect x="1323.1" y="784.3" fill="#A59F4A" width="13.5" height="2.101"/>
			<rect x="1337.5" y="726.4" fill="#A59F4A" width="56.5" height="2.1"/>
			<rect x="1316.5" y="722.8" fill="#A59F4A" width="2.1" height="56.5"/>
			<rect x="1322.7" y="563.7" fill="#FFFFFF" width="104.1" height="104.1"/>
			<polygon fill="#A59F4A" points="1492.6,596.8 1544.6,648.9 1440.2,648.9 			"/>
			<polygon fill="#F4F490" points="1492.6,596.8 1440.2,648.9 1490.9,647.3 			"/>
			<polygon fill="#F4F490" points="1492.6,596.8 1544.6,648.9 1493.5,646.3 			"/>
			<rect x="1322.7" y="615.2" fill="#A59F4A" width="4.5" height="0.899"/>
			<rect x="1329.2" y="615.2" fill="#A59F4A" width="4.5" height="0.899"/>
			<rect x="1335.8" y="615.2" fill="#A59F4A" width="4.5" height="0.899"/>
			<rect x="1342.3" y="615.2" fill="#A59F4A" width="4.5" height="0.899"/>
			<rect x="1348.8" y="615.2" fill="#A59F4A" width="4.5" height="0.899"/>
			<rect x="1355.9" y="615.2" fill="#A59F4A" width="4.5" height="0.899"/>
			<rect x="1362.4" y="615.2" fill="#A59F4A" width="4.5" height="0.899"/>
			<rect x="1368.9" y="615.2" fill="#A59F4A" width="4.5" height="0.899"/>
			<rect x="1375.4" y="615.2" fill="#A59F4A" width="4.5" height="0.899"/>
			<rect x="1382" y="615.2" fill="#A59F4A" width="4.5" height="0.899"/>
			<rect x="1389.1" y="615.2" fill="#A59F4A" width="4.5" height="0.899"/>
			<rect x="1396.1" y="615.2" fill="#A59F4A" width="4.5" height="0.899"/>
			<rect x="1402.6" y="615.2" fill="#A59F4A" width="4.5" height="0.899"/>
			<rect x="1409.2" y="615.2" fill="#A59F4A" width="4.5" height="0.899"/>
			<rect x="1415.7" y="615.2" fill="#A59F4A" width="4.5" height="0.899"/>
			<rect x="1422.2" y="615.2" fill="#A59F4A" width="5.1" height="0.899"/>
			<polygon points="1229.2,548.2 1234.2,543.3 1238.5,541.4 1243.9,541.3 1244.5,542.3 1242.2,542 1239.7,542.3 1236.3,543.5 
				1233.7,545 1230.6,548 			"/>
			<path fill="#FFFFFF" d="M1427.2,472.5c0.2,1.1-0.7,5.8-3.101,6.2c-1.199,0.2-7.8,1.6-11.8,1c-2.8-1.7-2.7-5.2-2.8-5.7
				c-0.2-1.1,6-2.2,8.4-2.5C1420.3,471.2,1427,471.4,1427.2,472.5z"/>
			<path fill="#FFFFFF" d="M1450.1,474.4c-0.1,0.6,0.101,5.5-2.399,6.3c-1.5,0.5-10.2-0.4-12-1.3c-2.2-0.301-2.601-5.301-2.5-6.301
				c0.1-1,7.3-1.8,9.399-1.5C1444.7,471.8,1450.2,473.4,1450.1,474.4z"/>
			<polygon fill="#FFFFFF" points="1420.2,496.9 1426.8,497.9 1436.2,497.2 1427.1,499.8 1422.2,499.4 1419.7,499.1 			"/>
			<path d="M1640.2,502.2l-1.101-0.101c0,0-5.5-2.5-7.8-2.199c-2.3,0.3-2.399-1-2.399-1l0.1-2l4,0.199c0,0,4.3,1.5,4.9,2.601
				c0.699,1.1,1.699,1.399,1.699,1.399L1640.2,502.2z"/>
			<path d="M1649,506.1l1.1,0.301c0,0,5.601,2.399,6.9,4.3c1.3,1.899,1.5,1,1.5,1l1.4-0.5l-2.9-3.101c0,0-2.2-2.199-3.5-2.199
				c-1.4,0-2.3-0.5-2.3-0.5L1649,506.1z"/>
			<path fill="#FFFFFF" d="M1627.6,519.7c0,0,6.101,3.5,8.5,4.3c2.4,0.8,10.101,3.3,10.101,3.3l-6.601,1.4l-4.899-1.3l-4.601-1.7
				L1627.6,519.7z"/>
		</g>
		<g id="client_x5F_text">
			<path fill="#FFFFFF" d="M1578.564,1046.239c0.182,0.209,0.357,0.41,0.526,0.604c0.169,0.195,0.331,0.397,0.487,0.604
				c-0.676,0.521-1.417,0.931-2.223,1.229c-0.807,0.299-1.678,0.449-2.613,0.449c-1.066,0-2.061-0.202-2.983-0.604
				c-0.923-0.403-1.729-0.942-2.418-1.619c-0.688-0.676-1.235-1.476-1.638-2.398c-0.404-0.923-0.605-1.917-0.605-2.983
				c0-1.04,0.201-2.028,0.605-2.964c0.402-0.937,0.949-1.741,1.638-2.418c0.688-0.676,1.495-1.215,2.418-1.618
				s1.917-0.604,2.983-0.604c0.936,0,1.82,0.149,2.652,0.448s1.572,0.708,2.223,1.229c-0.182,0.208-0.357,0.409-0.526,0.604
				c-0.169,0.194-0.345,0.396-0.526,0.604c-0.521-0.416-1.099-0.741-1.736-0.976c-0.637-0.233-1.332-0.351-2.086-0.351
				c-0.857,0-1.651,0.156-2.379,0.468c-0.729,0.313-1.359,0.741-1.892,1.287c-0.533,0.546-0.956,1.189-1.268,1.931
				s-0.468,1.527-0.468,2.359s0.156,1.612,0.468,2.34c0.312,0.729,0.734,1.365,1.268,1.911c0.532,0.546,1.163,0.975,1.892,1.287
				c0.728,0.312,1.521,0.468,2.379,0.468C1576.225,1047.526,1577.498,1047.098,1578.564,1046.239z"/>
			<path fill="#FFFFFF" d="M1585.35,1048.853h-1.6v-29.25h1.6V1048.853z"/>
			<path fill="#FFFFFF" d="M1590.576,1029.041c0-0.364,0.129-0.67,0.39-0.917c0.259-0.247,0.559-0.37,0.897-0.37
				c0.337,0,0.637,0.123,0.896,0.37s0.39,0.553,0.39,0.917s-0.13,0.669-0.39,0.916s-0.56,0.37-0.896,0.37
				c-0.339,0-0.639-0.123-0.897-0.37C1590.705,1029.71,1590.576,1029.405,1590.576,1029.041z M1592.643,1048.853h-1.6v-14.625h1.6
				V1048.853z"/>
			<path fill="#FFFFFF" d="M1611.168,1039.376c-2.028,0.806-4.043,1.605-6.045,2.398c-2.003,0.793-4.018,1.593-6.045,2.398
				c0.441,0.988,1.143,1.794,2.105,2.418c0.961,0.624,2.054,0.936,3.275,0.936c0.807,0,1.561-0.143,2.263-0.429
				s1.313-0.688,1.833-1.209c0.182,0.208,0.352,0.409,0.507,0.604c0.156,0.195,0.325,0.396,0.507,0.604
				c-0.676,0.624-1.443,1.118-2.301,1.481c-0.857,0.364-1.794,0.547-2.809,0.547c-1.066,0-2.061-0.202-2.982-0.604
				c-0.924-0.403-1.73-0.942-2.418-1.619c-0.689-0.676-1.236-1.476-1.639-2.398c-0.403-0.923-0.604-1.917-0.604-2.983
				c0-1.04,0.201-2.028,0.604-2.964c0.402-0.937,0.949-1.741,1.639-2.418c0.688-0.676,1.494-1.215,2.418-1.618
				c0.922-0.403,1.916-0.604,2.982-0.604c0.781,0,1.521,0.136,2.224,0.409c0.702,0.272,1.346,0.65,1.931,1.131
				c0.585,0.481,1.098,1.053,1.541,1.716C1610.596,1037.835,1610.934,1038.57,1611.168,1039.376z M1604.459,1035.476
				c-0.779,0-1.521,0.137-2.223,0.409c-0.701,0.273-1.313,0.657-1.832,1.15c-0.521,0.494-0.943,1.066-1.268,1.717
				c-0.326,0.649-0.527,1.352-0.605,2.105c-0.025,0.313-0.033,0.618-0.02,0.917s0.045,0.592,0.098,0.877
				c1.742-0.702,3.484-1.397,5.227-2.086c1.741-0.689,3.496-1.385,5.265-2.087c-0.442-0.884-1.079-1.605-1.911-2.164
				C1606.357,1035.755,1605.447,1035.476,1604.459,1035.476z"/>
			<path fill="#FFFFFF" d="M1617.018,1034.228h1.481v1.365c0,0.442,0,0.845,0,1.209s0.013,0.767,0.039,1.209
				c0.52-1.222,1.352-2.21,2.496-2.964c1.144-0.754,2.443-1.131,3.899-1.131c1.43,0,2.561,0.403,3.394,1.209
				c0.831,0.806,1.273,1.858,1.325,3.158v10.569h-1.637v-10.14c-0.053-0.832-0.358-1.561-0.917-2.185
				c-0.56-0.624-1.385-0.961-2.477-1.014c-0.78,0-1.534,0.137-2.263,0.409c-0.728,0.273-1.364,0.644-1.91,1.111
				c-0.547,0.469-0.982,1.027-1.307,1.678c-0.326,0.649-0.488,1.364-0.488,2.145v7.995h-1.637V1034.228z"/>
			<path fill="#FFFFFF" d="M1637.141,1024.712h1.639v9.555h4.484v1.599h-4.484v12.987h-1.639v-12.987h-3.393v-1.599h3.393V1024.712z
				"/>
		</g>
	</g>
	<g id="brainstorming_x5F_out">
		<g>
			<path fill="#CEC361" d="M163.2,875.6c1.2-1.8,2.5-3.399,3.5-5.399c1.2-2,2.5-2.9,4.4-3.4c4.1-0.899,8.6-2.6,12.9-2.899
				c1.7-0.2,4.1-0.301,5.7,0.6c2.6,1.7,0.9,2.9,0.6,5.1c-0.3,2,0.8,3.8,0.6,5.8c-0.2,1.7-0.9,3.2-1.1,4.9c-0.2,0.9,0.6,4.1,0.2,4.8
				c-0.6,0.8-3.7,0.8-4.8,1.101c-4.3,1.199-7.4,4-11,6.6c-2.8,2-6.6,3.2-10.1,3.2c-5.1,0-7.2-2.101-7.2-6.9c0-3.5,1.2-5.8,2.5-8.899
				c0.6-1.4,1.1-3.4,2.1-4.301c1.2-1.199,2.9-1.1,4.6-1.699"/>
		</g>
		<g>
			<path fill="#CEC361" d="M240.9,740.4c3.1-2.101,6.1-3.4,8.1-6.9c1.5-2.6,0.9-5.5,1.5-8.3c6.6,3.399,16.2,3.1,23.5,2.6
				c-0.2,3.4,1.4,8.4,3.8,10.7c4.3,3.8,0.9,6-2.1,9.4c-3.2,3.5-5.4,6.899-10.6,6.6c-2.8-0.2-5.5-1.1-7.8-2.9
				c-1.8-1.5-3.1-3.5-5.7-4.3c-2.3-0.6-5.4,0.5-7.8-0.6c-2.5-1.101-4.1-4.4-2.6-6.9"/>
		</g>
		<g>
			<path fill="#CEC361" d="M237.2,693.7c2.1,0.3,5.1,19.2,5.1,19.2l-4.3-2.2c-11.5-17.4-1.1-17-1.1-17"/>
			<path fill="#CEC361" d="M286.5,695c0,0,10.4,1.1,2.7,12.9c0,0-2.4,5-6.6,3.1L286.5,695z"/>
			<path fill="#3A3A3A" d="M278.8,659.1c-9.9-10-28.8-2.8-28.8-2.8s-10,5.601-12.8,10.3c0,0,0.4,2.7-1.9,6.5
				c-2.3,3.801-0.9,11.2-1.2,11.7c-0.3,0.5,3.1,7.8,3.1,7.8l-0.9,1.801c0,0,1.3,11.699,5.9,19.399c0,0,7.6,16.601,21.3,16.8
				C263.6,730.5,288.7,669.1,278.8,659.1z"/>
			<path fill="#3A3A3A" d="M283.3,665.9c0,0,3.2-2.9,3.9,0c0,0,2.1-0.2,3.1,4.399c0.9,4.601-1,4.8,0.3,9.101
				c1.3,4.3,1.9,12,0.6,12.399l-3.6,6.5l-1,6.9c0,0-4.4,18.3-14.1,23.399c-0.5-2.3-10.3,6.2-10.3,5c0-1.1,20-67.399,20-67.399
				L283.3,665.9z"/>
		</g>
		<g>
			<g>
				<path fill="#382947" d="M309.9,950c22.1,3.7,38-17.2,51.5-31.9c14.1-14.699,55.2-60.699,27.6-81.6c-14.1-11-27,1.8-36.2,12.9
					c-11,14.1-35,47.199-54.6,45.399C298.2,894.8,279.2,945.7,309.9,950z"/>
			</g>
			<g>
				<path d="M326.2,897c-2.9,1-4.9,3.8-6.6,6.2c-0.7,1.1,1,2.1,1.8,1c1.3-2,3-4.5,5.4-5.3C328,898.6,327.4,896.6,326.2,897
					L326.2,897z"/>
			</g>
			<g>
				<path d="M322,898.3c1.1,2.7,1.1,5.601,1.1,8.5c0,1.3,2.1,1.3,2.1,0c0-3,0-6.2-1.2-9C323.5,896.5,321.5,897,322,898.3L322,898.3z
					"/>
			</g>
			<g>
				<path d="M375.3,838.6c-2.6,2.801-3,7.5-0.9,10.7c0.7,1.101,2.5,0.101,1.8-1c-1.6-2.399-1.5-6,0.5-8.2
					C377.6,839,376.2,837.6,375.3,838.6L375.3,838.6z"/>
			</g>
			<g>
				<path d="M370.2,843.2c2.2,1.2,4.1,2.8,6.7,2.899c1.3,0.101,1.3-2,0-2.1c-2.1-0.1-3.9-1.6-5.7-2.6
					C370.1,840.7,369,842.5,370.2,843.2L370.2,843.2z"/>
			</g>
			<g>
				<path d="M386.7,862.8c-0.9,1.601-1.9,3.3-3,4.8c-0.8,1.101,1,2.101,1.8,1c1.1-1.5,2-3.199,3-4.8
					C389.1,862.7,387.4,861.7,386.7,862.8L386.7,862.8z"/>
			</g>
			<g>
				<path d="M382.5,863.8c1.9,1.3,2.8,3.5,4.4,5.101c0.9,1,2.4-0.5,1.5-1.5c-1.7-1.801-2.7-4.101-4.8-5.5
					C382.4,861.2,381.4,863,382.5,863.8L382.5,863.8z"/>
			</g>
			<g>
				<path d="M339.2,876.7c-2,2.6-3.1,5.6-4.5,8.5c-0.6,1.2,1.2,2.2,1.8,1c1.3-2.7,2.3-5.7,4.2-8.101
					C341.5,877.1,340.1,875.6,339.2,876.7L339.2,876.7z"/>
			</g>
			<g>
				<path d="M333.9,881.7c2,1.399,3.6,3.2,5.3,4.899c0.9,0.9,2.4-0.5,1.5-1.5c-1.8-1.8-3.6-3.699-5.7-5.199
					C333.9,879.2,332.8,881,333.9,881.7L333.9,881.7z"/>
			</g>
			<g>
				<path d="M343.7,911.9c-0.8,2.899-2,5.699-3,8.5c-0.4,1.3,1.6,1.8,2,0.5c1-2.801,2.2-5.601,3-8.5
					C346,911.1,344,910.6,343.7,911.9L343.7,911.9z"/>
			</g>
			<g>
				<path d="M340.4,917c2.5,1.5,4.5,3.7,6.7,5.6c1,0.9,2.5-0.6,1.5-1.5c-2.3-2.1-4.5-4.3-7.1-5.899
					C340.4,914.5,339.3,916.2,340.4,917L340.4,917z"/>
			</g>
			<g>
				<path d="M326.6,931.3c-0.3,2.101-1.1,4-1.8,5.9c-0.4,1.3,1.6,1.8,2,0.5c0.7-2.101,1.6-4.2,1.9-6.5
					C328.9,930,326.8,930,326.6,931.3L326.6,931.3z"/>
			</g>
			<g>
				<path d="M330.3,935.8c-1.7-1.2-3-2.899-4.4-4.399c-0.9-1-2.3,0.5-1.4,1.5c1.6,1.699,3,3.399,4.9,4.699
					C330.4,938.4,331.3,936.5,330.3,935.8L330.3,935.8z"/>
			</g>
		</g>
		<g>
			<path fill="#B75925" d="M172.9,890.8c2.5,4.601,6.9,4,11.3,4.601c3.9,0,9.3,1.1,13.3-0.601c6.4-3.399,5.4-5.7,5.4-13.8
				c0-10.9,2.5-24.1-6.9-27.5c-7.4-2.9-20.7-1.7-25.1,5.7L172.9,890.8z"/>
		</g>
		<g>
			<path fill="#383720" d="M172.2,859.9c1.8-3.4,6.6-5,9.7-5.7c3.4-1,7.1-1.2,10.4,0c2.1,0.7,4.7,1.8,6.4,3.399
				c1.8,1.801,0.7,2.301-1,3.101c-4.3,1.8-9.1,2.1-13.5,2.1c-3.5,0-6.9,0.4-9.8-2c-0.8-0.7-1.7-1-1.6-2.1"/>
		</g>
		<g>
			<path fill="#CEC361" d="M161.3,880.2c4.1-1.5,5.5-6.601,10.4-7.2c3.5-0.5,6.1,2.1,9.4,2.8c2.5,0.3,9.8-1.7,9.5,3.101
				c-0.2,3.8-7.8,3.199-10.4,2.8c-2.1-0.3-2.3-0.601-4,1.1c-1.1,0.9-1.7,2.3-2.6,3.4c-2.5,2.6-4.8,3.2-8,4c-3.1,0.6-4.9,0.2-5.4-3.4
				c-0.3-2-0.3-6.3,2.3-6.899"/>
		</g>
		<g>
			<path fill="#CEC361" d="M367.8,922.3c4.9,4.101-1.6,10.3-0.3,14.9c1.1,3.899,3,4.8-2.5,7.6c-2.5,1.4-4.6,1.4-7.4,1.8
				c-4.4,0.7-4.1,1.601,0.5,3c3,1.2,6.8,1.601,9.8,0.7c7.7-1.8,7.7-12.6,16.7-11.5c7.4,0.9,4.6,8.2,12.9,9.8
				c6.3,2.4,7.1,2.101,14.2,3.7c4.1,0.9,21.1-3.6,14-8.5c-2.2-1.399-7.601-0.6-11.4-1.3c-11.1-2-8.1-5.8-14.1-7.2
				c-6-1.1-4.4-12.7-7.7-16.6c-7.4-8.7-23.8-3.5-23.8,7.1"/>
		</g>
		<g>
			<g>
				<path fill="#382947" d="M96.9,921.6c0.2,32.601,97.5,31.5,115.2,18.9c12.3-9,18.1-38.9-2.8-38.9c-15.9,0-31.9,3.5-48.4,1.4
					c-18.6-2.9-53-16.9-61.5,6C99.4,908.9,96.8,913.9,96.9,921.6z"/>
			</g>
			<path d="M181.6,913.8c-0.9,1.8-2.1,3.5-2.6,5.5c-0.4,1.3,1.6,1.8,2,0.5c0.5-1.8,1.6-3.399,2.4-5
				C184,913.7,182.2,912.6,181.6,913.8L181.6,913.8z"/>
			<path d="M177.1,916.2c2.6,1.7,4.8,4.1,7.4,6c1.1,0.8,2.1-1,1-1.8c-2.5-1.9-4.7-4.2-7.4-6C177,913.6,176,915.4,177.1,916.2
				L177.1,916.2z"/>
			<path d="M123.1,903c-1.5,3.5-3.8,6.5-5.4,9.9c-0.6,1.199,1.2,2.199,1.8,1c1.7-3.5,4.1-6.7,5.6-10.4
				C125.6,902.3,123.6,901.8,123.1,903L123.1,903z"/>
			<path d="M116.3,905.9c2.1,2.899,4.8,5.3,7.3,7.8c0.9,0.899,2.4-0.5,1.5-1.5c-2.4-2.4-5-4.601-7-7.4
				C117.3,903.8,115.5,904.8,116.3,905.9L116.3,905.9z"/>
			<path d="M125.1,938.9c0.9-2.7,1.2-5.5,1.6-8.301c0.2-1.3-1.8-1.899-2-0.5c-0.4,2.801-0.8,5.601-1.6,8.301
				C122.7,939.6,124.7,940.1,125.1,938.9L125.1,938.9z"/>
			<path d="M121.5,934.5c2.5,0.5,4.7,2,7.1,2.8c1.3,0.4,1.8-1.6,0.5-2c-2.4-0.8-4.6-2.2-7.1-2.8
				C120.8,932.3,120.2,934.2,121.5,934.5L121.5,934.5z"/>
			<path d="M147.6,906.8c-0.2,1.5-0.6,3-1.5,4.3c-0.7,1.101,1.1,2.2,1.8,1c1-1.6,1.5-3.399,1.8-5.399
				C149.9,905.4,147.8,905.5,147.6,906.8L147.6,906.8z"/>
			<path d="M144,908.5c2.1,0.7,3.8,2.2,5.7,3.3c1.2,0.7,2.2-1.1,1-1.8c-2.1-1.2-3.9-2.8-6.2-3.6C143.3,906,142.7,908,144,908.5
				L144,908.5z"/>
			<path d="M108.8,919.8c-0.7,1.4-1.6,2.8-2.5,4.101c-0.7,1.1,1.1,2.1,1.8,1c0.9-1.301,1.8-2.7,2.5-4.101
				C111.2,919.6,109.4,918.6,108.8,919.8L108.8,919.8z"/>
			<path d="M105.5,920.3c0.8,2.4,2.3,4.3,4.2,6c1,0.9,2.5-0.6,1.5-1.5c-1.6-1.399-3-3-3.6-5.1C107.1,918.5,105.1,919.1,105.5,920.3
				L105.5,920.3z"/>
			<path d="M152.7,926.2c-0.2,2-0.7,4-1.1,5.899c-0.3,1.301,1.7,1.9,2,0.5c0.5-2.1,0.9-4.3,1.2-6.5
				C154.9,924.8,152.8,924.8,152.7,926.2L152.7,926.2z"/>
			<path d="M150,928c1.5,1.5,2.9,3.1,4.6,4.3c1.1,0.8,2.1-1,1-1.8c-1.5-1.1-2.8-2.6-4.2-4C150.5,925.6,149.1,927.1,150,928L150,928z
				"/>
			<path d="M176.3,934.3c-0.3,2.3-0.9,4.4-1.6,6.601c-0.4,1.3,1.6,1.8,2,0.5c0.7-2.4,1.4-4.7,1.6-7.2
				C178.5,933,176.5,933,176.3,934.3L176.3,934.3z"/>
			<path d="M173.2,936.7c1.8,1.8,3.7,3.399,5.7,4.8c1.1,0.8,2.1-1,1-1.8c-1.9-1.3-3.7-2.8-5.3-4.4
				C173.7,934.3,172.2,935.7,173.2,936.7L173.2,936.7z"/>
		</g>
		<g>
			<path fill="#005A99" d="M376.7,873.3c-10.1-21.2-19.3-46.899-32.2-67.1c-6.1-11.4-30.7-67.9-51.3-62c-0.2-0.4-0.5-0.8-0.7-1.3
				c-1.4-2.601-3.8-5.2-6.9-5.801c-2.5-0.6-5.4,0-7.8-0.3c0.8,3.4,7.7,6.9,3.7,10c-2,1.4-4,2.3-5.8,3.8
				c-1.5,1.4-3.1,2.301-4.9,3.101c-4.4,1.7-7.8,0-11.2-2.9c-3.1-2.8-5.2-3.399-9.2-3.399c-3.2,0-14.7-2-9.8-7.101l0.5-0.3
				c-3.4,0-6.7-1.7-9.8,0.3c-1.9,1.3-2.8,3.101-3.1,5.2c-18.7,0.1-28.5,12.6-39.1,26.7c-11,14.7-25.8,25.8-36.8,39.6
				c-10.1,12.9-15.6,23.9-12.9,39.601c1.8,12,11,44.199,24.8,38.6c4.6-16.6-8.3-35,3.7-49.7c9.2-12.899,30.4-23.899,45.1-27.6
				c4.6,22.1-0.9,49.7-7.4,71.7c-2.8,12-19.3,52.399-10.1,63.5c8.3,9.199,44.2,0.899,56.1,4.6c14.7,3.7,47.8,16.6,56.1,6.4
				c13.8-15.601,2.8-51.5-0.9-69c-5.5-26.7-5.5-51.5,2.8-76.301c10.1,23,28.5,39.601,36.8,63.5c6.4,18.4,10.1,58,35.9,51.5
				C407.1,922.1,384.1,889,376.7,873.3z"/>
		</g>
		<g>
			<path fill="#333333" d="M240.2,740.4c-3.3,0.199-1.2,3.8,0.5,4.699c1.6,0.9,4.3,0.7,6.1,0.5c4.2-0.3,6.9-2.1,10.4,1.2
				c3.1,2.8,5.4,7.3,10,7.101c5.4-0.2,6.2-4.7,9-7.801c1.2-1,3.3-1.199,4.2-2.399c1.4-1.9,0.2-5-0.7-6.9c0.9,4.5,7.8,4.5,7.6,8.8
				c-0.2,2.9-3.1,3.101-5.2,3.801c-2.4,0.899-3.6,2.1-5.4,3.8c-3.5,3.5-6.8,4.5-11.6,4.5c-6.1,0-6.9-6.2-12.1-8
				c-3.6-1-7.6,0.3-11.3-1c-3.1-1.2-8.1-7.3-2.1-8.7"/>
		</g>
		<g>
			<path fill="#C1A868" d="M768.2,691.6c-0.9,3.7-4.601,4.9-6.4,8c-2.1,3.101-0.3,4.301-0.899,7.4c-1.5,6.1-14.101,7.4-13.2,13.8
				c2.1,0.3,4.899,0.601,7.399,1.2c-3.1,4.3-1.5,6.4-1.5,10.7c0,3.7-4.3,10.1,1.2,11.3c3.4,0.6,9.5-3.1,12.9-3.4
				c3.399-0.3,7.1-0.899,10.399-1.199c8.301-0.601,14.7-0.9,19.9-8c4.9-6.101,12.6-12.301,15.6-19.301
				C827.4,681.8,784.6,680.4,768.2,691.6"/>
		</g>
		<g>
			<path fill="#C1A868" d="M766.7,740.6c6.7,6.7,4.3,15.9,2.5,24.2c-0.601,3.101-2.101,7.4-2.101,10.7c-0.6,6.4,3.7,4.6,8.601,2.8
				c3.399-1.5,7.1-3.7,10.399-5.5c2.101-1.2,4-2.5,6.4-3.1c1.8-0.601,3.4,1.8,5.2-0.601c2.1-2.8-2.101-8.5-3.101-11.3
				c-0.6-3.7-0.399-7.2,0-10.8c2.101-11.1,6.5-19.2,6.5-19.2s-8.399,5.7-12,7.2c-4,2.1-8.3,1.5-12.3,2.5
				C773.8,737.8,762.8,736.9,766.7,740.6"/>
		</g>
		<g>
			<path fill="#605B1F" d="M637.4,937.1c4.6,13.301,1.8,23.5-13.801,17.5c-10.6-3.699-18.399-2.8-29-1.399
				c-8.3,0.899-26.199,4.1-28.1-8.7c-0.9-9.7,11-7.4,16.6-8.3c5.101-0.9,12-4.101,16.101-6.9c4.1-2.3,7.8-7.8,12.399-9.2
				c4.601-0.899,9.7,1.4,14.301,2.801"/>
		</g>
		<g>
			<path fill="#353535" d="M568.7,940.7c-1.101,4.1,6.7,7.8,8.399,8.5c5.7,2.399,12.101,2,18.101,1.7c6-0.2,11.8-3.2,17.8-1
				c4,1.199,7.8,3.199,11.7,4.6c2.1,0.7,4,1.5,6.1,1.5c1.4,0,4-1.2,5.101-0.7c4.1,2.2-4.9,4.601-6.4,4.9c-3.7,0.2-7.4,0.7-10.9-1.5
				c-3.699-2.4-6.3-5.101-10.3-5.101c-3.5,0-6.899,1.5-10.3,2.2c-6.9,1.2-13.3,0.2-19.9-2c-4.3-1.5-13.199-4.1-9.199-14.399"/>
		</g>
		<g>
			<path fill="#353535" d="M769.2,692.7c-2.101,1-3.101,1.8-5.2,0.8c-1.3-0.5,0-3.4-2.9-3.1c-2.1,0.3-2.399,3.399-4.399,3.899
				c-1.601,0.3-3.101-2.1-5.8-1c1.6-1.3,2.1-3.399,3.399-4.399c1.8-1.601,3.4-1.601,5-3.4c0.5-0.8,0.3-2.9,1-3.9
				c2.4-2.6,2.601-0.5,5.2-0.5c2.4,0.301,2.6-0.8,4.7-1.3c0.5-0.3,0.8-1.6,1.6-1.6c0.8-0.3,1.8,0.8,2.101,0.5
				c2.6-0.5,1,0.3,3.399-1.601c2.101-1.8,1.3-2.1,4.2-2.899c2.1-0.3,2.9,0,4.7-1c1.6-0.5,2.6-2.101,4.2-2.601
				c4.699-1.6,3.699,1.301,5.8,3.7c0.5,0.5,2.1,0.5,2.6,1l1.3,2.4c1.801,1.3-0.8,3.1,2.601,0.8c0.8-0.5,1.6-2.4,2.6-2.9
				c1.3-1,4.2-2.399,6-1.3c1.8,0.8,0.5,3.7,3.101,4.7c1.6,0.8,5-0.8,6-0.3c1.3,1,1,7.1,1.3,9.2c0.3,2.399,7.2,0.199,5.3,3
				c-1,1.6-0.4,2.3-1.2,3.8c-1.3,4.7-1.899,3.2,1.2,4c2.9,0.8-1.7,2.7-0.1,4.3c0.3,0.3-0.301,1.6,0.5,2.4
				c0.5,0.5-0.4,1.199-0.101,1.5c1.3,1,1.3-2.2,1.5,0.699c0.3,1.801-0.6,1.801-1.1,3.101c-1.3,4.7,0.899,4.399-4.101,7.3
				c-2.899,1.6-2.899,3.8-5.699,4.6c-3.9,1-1.7,3.801-8.9,4.4c0.8,4.2-9.8,7.1-11.6,9.7c1.699-4.101,1.5-6.8,1.699-8.9
				c0.5-1.8-0.3-3.2,0.9-4.7c2.2-2.699,5.2-2.1,4.9-8c-0.2-4.1-1.7-7.199-4.801-4c-1.399,1.601-3.1,2-4.5,6.4
				c-0.6,0.6-1.5-1.4-1.699-0.4c-1.801-5.8,2.5-5.399-0.4-11.199c-0.3-0.801-1.8-0.5-2.1-1.301c-0.301-0.5,0-1.6-0.301-2.1
				c-0.5-1.6,1.301-2.9-1-3.9c-2.6-1.3-6,2.4-5.199,5c-2.4-0.3-4.4-9.699-7.101-5c-1.6-0.8-4.399-0.5-5.5-1
				c-2.399-1.6-0.5-4.699-3.1-5.8"/>
		</g>
		<g>
			<path fill="#252B1B" d="M727,880.1c-1.8-12.899-13.6-30.699-20-42.699c-7.4-12-15.6-19.301-29.4-20.2
				c-29.399-2.8-33.1,17.5-42.3,39.6c-9.2,22.101-20.2,44.2-28.5,67.101c-5.5,15.6,0.9,20.199,17.5,23.899
				c7.4,0.9,19.3,1.8,24.8-2.8c7.4-5.5,16.601-31.3,21.2-40.5c5.5-12,6.4-24.8,12-36.8c-1.8,8.3-13.8,16.6-11,24.8
				c1.8,3.7,18.4,11,22.101,16.6c13.8,17.5,19.3,32.2,46.899,30.4c16.601-0.9,33.101-17.5,29.4-35C765.8,883.5,727,880.1,727,880.1z
				"/>
		</g>
		<g>
			<path fill="#C1A868" d="M724.4,780.4c-21.2,8.3-42.301,16.6-63.9,23.899c-23.5,7.8-43.8,19.2-61.6,36.3
				c-9.2,8.801-18.9,9.7-20.5,42.101c6.399-4.601,6-11.601,11.5-17.601c5.1-6,5.3-3.399,10.8-9.399c-1.4,5.5-9.9,11.5-4.8,16.6
				c4.6-3.7,9.199-8.6,12.899-13.7c6.3-4.8,5.7-9.8,8.5-15.3c5.5-11,21.601-14.7,32.7-17.5c21.2-5.5,43.7-9.2,63-18.399
				c6.9-3.2,12.9-6,20.2-6.9c7.8-0.9,18.399-1.8,19.3-12c0.5-7.4-6.9-12-13.3-12.9C739.2,775.8,732,777.4,724.4,780.4"/>
		</g>
		<g>
			<path fill="#FFFFFF" d="M718.3,782c4.3,2.8,8,24.8,2.8,27.6c-0.6-1.8-1.199-3.699-1.8-5.5c0.601,5.5,3.4,6.7,8,4.9
				c5.2-1.8,7.4-2.5,12.601-0.9c4.899,1.5,8.3,4.301,12.6,0c2.5-2.5,3.1-5.8,4.6-8.899c2.101-4.3,6.101-6.4,8-10.7
				c1.2-3.4,3.101-8,4.301-11c3.699-11.3-7.7-9.8-14.7-7.4c-12.3,3.7-24.5,5.801-35.9,12"/>
		</g>
		<g>
			<path fill="#29301E" d="M748,900.4c-38.6,0-108.2-20.101-145-8.2c-22.1,7.399-23.5,13.6-46.4,18.2
				c-20.199,3.699-29,6.199-48.3,9.899c-11,1.8-21.2,6.4-31.3,8.3c2.8,7.4,9.2,28.5,14.7,34c6.399,5.5,19.3,3.7,28.5,2.801
				c23.899-0.9,51.5-4.601,72.7-14.7c23-10.101,34-23,60.699-14.7c20.2,7.4,40.5,16.6,61.601,20.2c20.2,2.8,47.8,0.899,56.1-21.2
				C781.5,912,748,900.4,748,900.4z"/>
		</g>
		<path fill="#605B1F" d="M700.3,895.8c0,0,9,22.8,27.8,24.101c18.9,1.3,15.601-1.5,15.601-1.5l2,4.1c0,0-24.601,3.7-37.9-9.2
			c-13.3-12.899-10.6-18-10.6-18L700.3,895.8z"/>
		<g>
			<path fill="#FFFFFF" d="M764.9,770.9c-8,31.3-28.801,57-38,88.3c-3.7,13.5-12.801,37.1-12.801,37.1s37.101,6.101,28.5,21.3
				c-1.5,9,6.4,14,13.101,20.9c7.899,8.1,27.1,5.3,19.7,7.2c14.1,1.2,22.699-68.101,23.3-78.5c1.2-16.601,1.2-36.2,6.1-50.9
				c4.3-13.5,2.5-26.399-1.8-39.2c-1.8-4.899-0.4-11-5.3-12.899c0,10.399-14.3,1.899-19.2,2.5c-6.7,1.2-7.4,4-12.3,7.1
				c0-3.1-0.5-1.8,1.899-4.3c-1.199,1.8-4.399,3.3-5.6,4.6"/>
		</g>
		<g>
			<path fill="#C1A868" d="M887.6,937.9c-5.199-0.601-9.8,2.8-15.3,2.5c-4.899-0.4-13.7-4.601-19.6-3.101
				c-2.5-4.3-8.5-9.899-10-12.7C832.6,906.2,831.2,886,820.6,868c-11-18.4-19.8-41.9-18.899-63.9c-2.3-5.1-3.7-10.6-6.4-14.3
				c-7.399-9.2-17.899-1.8-22.1,6.9c-7.4,15.6,2.8,36.3,11,49.2c6.899,10.6,11,20.699,15.2,33.1c5.1,12.9,12,21.2,20.699,32.2
				c4.601,5.1,8.7,10.1,12.9,15.6c3.2,4.601,4.6,12.4,9.2,16.101c0.7,0.6,1.7,1.1,2.899,1.5c-0.3,0.8-0.199,1.6,0.2,2.3
				c0.3,1,1.101,1.8,2.8,2.399c0.5,0.2,1,0.4,1.4,0.5c0.3,0,0.6,0.101,0.9,0.101c1,0.1,1.899,0.1,2.899-0.101c0.101,0,0.2,0,0.3,0
				c2.801,0.4,1.9,0.4,3.7,2.301c2,2.1,5,4.6,8.2,2.3c-2.8-2.3-1.9-4.7-2.8-7.101c0.3,0,0.6-0.1,0.9-0.1c3.7-0.3,6.7,0.6,10.1,0
				c3.7-0.9,6.7-3.4,10.1-4.6c4.9-1.5,16.3,3.399,18.7-0.301C897.7,941.3,892.5,938.6,887.6,937.9z"/>
		</g>
		<path fill="#0057B6" d="M764.4,811.2c-4.5,9.1-5.4,19.2-8.301,28.899c-2.8,9.4-11.699,16.101-15,25.4
			c-1.199,3.4,4.101,4.8,5.301,1.5c3.199-9,11.1-15.2,14.5-24.1c3.6-9.4,3.699-19.801,8.199-28.9C770.7,810.8,765.9,808,764.4,811.2
			L764.4,811.2z"/>
		<g>
			<path fill="#FFFFFF" d="M779,788.1c12.6-9.8,23.9,5.5,27,16.601c1.5,4.899,0.6,9.8,1.5,14.7c0.9,6.699,3.7,12.3,6.4,18.399
				C809,833.2,797.3,835,792.1,838.4c-3.1,1.8-6.1,5.199-7.1,8.6c-0.9,3.7,0.3,7.4,3.7,3.1c-5.8,8-10.7-2.5-12-7.399
				c-1.2-5.8-2.101-12-4.601-17.5C769.3,818.1,766,808.6,768.7,801c1.2-4.3,9.8-14.7,14.399-15"/>
		</g>
		<path fill="#DB2A00" d="M756.2,802.8c-3.7,11.9-9.5,23-14.3,34.5c-4.801,11.3-7.301,23-9.301,35.101c-0.3,1.699,2.4,2.5,2.7,0.699
			c2-12.6,4.8-24.6,9.8-36.399c4.7-11,10.2-21.7,13.801-33.2C759.4,801.8,756.7,801.1,756.2,802.8L756.2,802.8z"/>
		<g>
			<path fill="#605B1F" d="M490.8,950.6c-3.7,8-12.6,10.4-19.899,12.9c-6.101,2.1-14.4,7.1-21.2,4c-6.7-2.8-6.101-12-5.2-18.4
				c0.9-5.5,3.4-10.399,2.8-16.3c-0.899-6.1-2.5-11.7-2.1-18.399c0.3-7.101,3.399-15,7.399-21.2c1.801-3.101,5.801-8.601,10.101-8
				c3.7,0.6,7.1,6.7,7.399,10.1c0.601,5.8-3.699,11.7-3.399,18.4c0.6,7.7,4,12.899,11.7,15.6L490.8,950.6z"/>
		</g>
		<g>
			<path d="M454.9,890.2c1.199,5.2,12.3,6.399,13.199,0.3c0.9-7.7-12.899-5.5-13.8,1.2"/>
		</g>
		<g>
			<path fill="#353535" d="M452.5,892.3c11.7-1.8,2.8,12.3,0.9,15.9c-3.101,6.7-5.2,13.5-4.601,20.8c0.3,6.1,1.2,12,0.9,18.1
				c0,3.101-0.601,5.801,0,8.601c0.3,3.399,4.3,7.399,4.3,10.1c0,0.9,0.6,1.5,0.3,2.5c-20.2,4.9-10.1-24.5-8.6-33.1
				c2.1-12.3-3.7-24.5,2.5-36.8c0.899-1.801,7.399-10.4,7.7-4.9"/>
		</g>
		<g>
			<path d="M466.2,913.6c-6.9-0.5-3.9,8.301-2.5,12c1.8,4.601,5.3,10.301,11.3,8.7c2.1-0.5,1.1,0.5,2.3-1.399c0.2-0.7,0.7-3,0.5-3.5
				c-0.7-1.601-5.5-4.4-6.899-6c-1.601-2.101-2.801-4.101-3.2-6.9c-0.2-1.6,0.899-5.5-1.601-3.7"/>
		</g>
		<g>
			<path fill="#FFFFFF" d="M763,706.2c-1.7,0.5-4.2,0.8-2.2,4.5c0.5,1,6.601,3.5,7.601,3.5C773.2,714,767.4,704.6,763,706.2"/>
		</g>
		<g>
			<path d="M762.8,700.3c0.3,0.9,2.101,1.3,2.9,1.5c1.5,0.4,3,0.5,4.399,1.3c0.9,0.5,1.5,1.2,2.101,2c0.5,0.601,1.6,1.101,0.7,1.9
				c-0.301,0.3-0.7,0.5-0.9,0.9c-0.2,0.399-0.1,0.5-0.7,0.399c-0.8-0.2-1.5-1-2.1-1.6c-0.5-0.5-1.101-1.101-1.7-1.601
				c-0.5-0.3-1-0.399-1.5-0.6c-0.7-0.2-1.5-0.5-2.2-0.8c-0.5-0.3-1.399-1-1.6-1.7C762.1,701.7,762.3,700.5,762.8,700.3"/>
		</g>
		<g>
			<path d="M752.1,740.3c-0.6,0.3-0.5,0.8-0.3,1.4c0.101,0.7,0.7,0.6,0.9,1.1s0.7,2.9,1.3,1.101c1.3,0.6,1.6,0.6,3.1,0.8
				c0.601,0.1,2.601,1.2,1.7-0.5c2.8,0.899,1-0.3,2.3-1.4c0.301-0.399,1.4-0.3,2-0.7c0.301-0.3,0.5-1.199,0.7-1.6
				C759.9,741.2,755.8,741.7,752.1,740.3"/>
		</g>
		<g>
			<path fill="#3A3A3A" d="M773.1,740.3c4.301-1.1,8.9-0.399,13.2-1.5c6.3-1.7,8.7-7.3,10.4-13.6c-2.4,1.3-3.9,5.6-6.3,7.8
				c-2.2,1.7-4.5,2.8-6.9,3.7c-2.2,0.899-11.4,1.5-11.6,3.399L773.1,740.3z"/>
		</g>
		<path d="M760.5,708c0,0.9,0.1,1.7,0.3,2.6c0.101,0.7,1.4,1,1.7,1.101c0,0,0.7,0.3,2-1c1.4-1.4,1.8-3.7-0.3-4.601
			C763.3,705.8,760.5,706.3,760.5,708L760.5,708z"/>
		<g>
			<path d="M754.8,730.3c4.101-2.399,7.3-1.8,11.101,0.601c0.399,0.199,0.699-0.4,0.3-0.601c-4.101-2.5-7.601-3.1-11.8-0.6
				C754.1,729.9,754.4,730.5,754.8,730.3L754.8,730.3z"/>
		</g>
		<path fill="#605B1F" d="M630.5,895.8c0,0,12.1,12.5,8.9,28.4c0,0-29.7,13.8-36.4,8.899c-6.7-4.899-21.8-21.8-13.8-28.199
			C597.2,898.5,626.8,892.4,630.5,895.8z"/>
		<path fill="#252B1B" d="M616.6,895.5l3.9,16.9l11.5,15l7.4-3.2c0,0,10.1-16.601-10.2-29.7C629.2,894.5,618,892.9,616.6,895.5z"/>
		<path fill="#C4C4C4" d="M47.5,935.7c0,0,43.5,3.7,64.7,2.3c1.5,0.3-2.1,12.4-7.4,11.6c-5.3-0.8-41.1,0.801-59.8-2.399
			C42.1,946.8,42.1,943.2,47.5,935.7z"/>
		<path d="M47.1,937.5c0,0-3.7-5.9-6.8-1c-3.2,4.9-1.1,5.3,0.5,6.4c1.3,0.899,1.8,0.899,1.8,0.899s2.1,0.601,2.5,0
			c0.4-0.6-1.2-1.1-1.2-1.1s-2.8-0.5-3.3-1.101c-0.5-0.6-2.2-2.1,1.5-5.199c0,0,1.5-1.4,3.7,2.6L47.1,937.5z"/>
		<path fill="#C4C4C4" d="M40.5,938.3c0,0,49.8-6.5,57.5-17.5s5.1-10.7,5.1-10.7l-5.8,3.9c0,0,1.4,5.3-13.7,11.5
			C68.6,931.8,40.5,938.3,40.5,938.3z"/>
		<polygon fill="#000766" points="61,937.8 97.3,937.1 97.3,937.8 60.9,940.8 		"/>
	</g>
</g>
</svg>
