<?xml version="1.0" encoding="utf-8"?>
<!-- Generator: Adobe Illustrator 16.0.0, SVG Export Plug-In . SVG Version: 6.00 Build 0)  -->
<!DOCTYPE svg PUBLIC "-//W3C//DTD SVG 1.1//EN" "http://www.w3.org/Graphics/SVG/1.1/DTD/svg11.dtd">
<svg version="1.1" id="Layer_1" xmlns="http://www.w3.org/2000/svg" xmlns:xlink="http://www.w3.org/1999/xlink" x="0px" y="0px"
	  viewBox="0 0 1920 1080" enable-background="new 0 0 1920 1080" xml:space="preserve" preserveAspectRatio="none">
<g id="page_x5F_fills_x5F_blue">
	<rect id="fill_x5F_4" fill="#CCD9ED" width="1920" height="1080"/>
</g>
<g id="windows_x5F_light">
	<rect x="278.2" y="426.3" fill="#AACCC2" width="365" height="333.9"/>
	<rect x="1243.8" y="426.7" fill="#AACCC2" width="365" height="333.899"/>
</g>
<g id="characters_x5F_indoor_x5F_fills">
	<g id="art">
		<path id="plane_x5F_rope_x5F_2" d="M1367.9,515.3c0.1,12.101,1.3,24.2,1,36.3c0,1,1.5,1,1.5,0c0.3-12.1-0.9-24.199-1-36.3
			C1369.4,514.4,1367.9,514.4,1367.9,515.3L1367.9,515.3z"/>
		<path id="planes_x5F_rope_x5F_3" d="M1367.6,569.2c1.2,8.1,3,37,5.301,43.3c0.3,0.9,1.8,0.5,1.399-0.4
			c-2.399-6.6-4.2-35.699-5.3-43.3C1368.9,567.8,1367.5,568.3,1367.6,569.2L1367.6,569.2z"/>
		<g id="sid_x5F_4">
			<g>
				<path fill="#C1A868" d="M1440.7,524.9c2.5-3.2,7.899-3.7,11.399-5.101c1.5-0.6,3.5-1.5,4.4-2.899c0.6-0.801,0.6-1.801,1.1-2.7
					c0.601-0.9,1.101-1.3,1.301-2.5c0.3-1.5,0.399-3.4,0.1-4.9c-0.1-1.1-0.8-3.7-1.5-4.7c-1.4-2-3.4,1.5-3.8,2.9
					c-0.5,1.7,0,4.3-1.8,5.3c-1.7-0.6-2.7-2.8-4.101-3.8c-1.3-0.9-2.399-4.4-3.3-2.8c-1.4,2.5-3.7,12-3.7,14.8
					c0,2.3-0.399,3.9,0.4,6"/>
			</g>
			<g>
				<path fill="#29301E" d="M1478.5,730.7c-3.9,7-12.5,34.6-3.3,39.399c7.1,3.4,20.2,1.101,27.899,1.101c8.601,0,16.9,0,25.601,0
					c10.399,0,23.5,2,33.6-2c6.8-2.8,7.101-11.2,6.8-17.4c-0.3-5.6-3.3-6.2-6.5-10.1c-2.699-3.7-2.699-7.9-7.1-9.8
					c-10.7-3.9-25.9-0.301-36.6,0.8c-13.4,1.1-25.9-2.5-38.9-2C1479.4,730.7,1479.1,730.7,1478.5,730.7"/>
			</g>
			<path fill="#5D6326" d="M1539.9,734.3l3-0.399c0,0,5.399,19.899,10.199,24.1c4.9,4.2,6.2,6.7,12.301,6.6v3.5
				c0,0-6.601-0.899-10.7-4.699C1550.6,759.6,1543.5,751.8,1539.9,734.3z"/>
			<g id="brush">
				
					<rect x="1435.009" y="486.059" transform="matrix(0.7589 -0.6512 0.6512 0.7589 38.859 1078.4766)" fill="#7F3A14" width="81.8" height="1.4"/>
				<polygon fill="#FFD64B" points="1506.2,459.8 1507.3,457.5 1507.9,456.8 1510.4,455.9 1517.8,457.9 1513.2,459.1 1511.5,460.5 
					1508.8,461.1 1506.6,461.1 				"/>
			</g>
			<g>
				<path fill="#C1A868" d="M1461.7,614.6c-8.4,2.801-20.8,1.7-29.8,0.801c-4.2-0.301-15.5-0.301-17.7-3.7
					c-2.8-4.5-2.8-15.5-2.8-20.5c0-7.9,2.3-15.2,4.199-22.5c3.7-12.7,7-26.101,12.101-38.2c0.8-2.5,2.199-5.1,2.8-7.3
					c0.6-4.2,1.1-5.101,3.1-9c2-3.9,2.2-8.7,4.5-12.9c3.101-5.6,7.601-6.2,13.801-7.6c2.199-0.601,9.1,1.7,11.3,2.6
					c2.6,1.7-4.4,6.9-8.601,8.9c-5.1,2.2-9.5-1.101-11.699,4.6c-1.7,4.5,1.399,7,1.1,11.2c-0.3,3.9-3.9,6.2-4.8,10.4
					c-1.4,6.199-1.4,12.699-2.5,18.6c-1.101,7.3-1.101,14.6-1.7,21.9c-0.6,7-0.6,17.399-4.2,23.6c7-1.4,19.9-3.2,27.2-1.6
					C1465.9,595.6,1467.6,606.4,1461.7,614.6"/>
			</g>
			<g>
				<path fill="#FFFFFF" d="M1503.6,576.1c-7.3-0.3-13.8,4.801-21.1,5.9c-6.5,1.1-11.8,4.2-18.3,5.1
					c-3.4,0.601-6.7,1.101-10.101,1.7c-4.8,1.101-4.8,1.101-2.8,5.601c2.5,5.899,4.5,12.899,3.101,19.1c-0.301,1.7-0.801,3.4-2,4.5
					c-0.601-0.3-1.101-1.1-1.4-1.4c-0.6,5.301,12.9,3.101,16,2.5c5.1-1.1,9.8,0.601,14.9-0.6c2.5,8.2,0,17.4,1.699,25.9
					c1.1,7,1.4,12.899,1.4,20c0.3,12.699-8,28-10.2,40.399c-1.399,8.7-7.3,20.5-8.399,29.2c-0.301,2,10.3,3.3,10.899,5.3
					c6.2,1.101,13.4-5.2,19.9-3.2c7.899,2.2,14.3,5.9,22.8,5.301c9-0.601,14.3-7.601,23.6-7c7.301,0.3,25.601,17.699,32.301,19.699
					c1.1-6.199,3.699-11,2.3-16.899c-2-8.4-6.2-18.101-5.601-26.2c0.301-3.4-1.199-27.6-1.5-30.7c-0.3-7.6-2.699-11.899-3.6-19.5
					c-0.3-3.1-2.199-12.8-2.199-15.6c0-3.4-0.601-7.7-1.201-11c4.201,3.1,4.601,3.6,7.4,7.8c3.1,4.8,3.1,3.1,7.9,0.3
					c3.1-1.7,21.6-8.2,21.6-11.8c0.301-1.7-3.1-3.1-4.199-4.2c-1.4-2-2.5-4.5-3.7-6.7c-1.4-2.8-3.101-5.3-4.8-7.899
					c-3.9-6.5-7-14.3-12.9-19.101c-9-7.6-22.2-12.899-32.9-16.899c-6.199-2.3-3.9,1.399-9,3.1c-2.199,0.8-6.5,0-9.3,0
					c-3.899,0-8.2,0.3-12.399-0.6C1509,577.5,1506.7,576.1,1503.6,576.1"/>
			</g>
			<g>
				<path fill="#0057B6" d="M1534.8,617.8c-6.3,22.7-11.7,48.7-7.5,72.3c0.8,4.301,7.3,2.5,6.5-1.8c-4-22.3,1.601-47.2,7.5-68.7
					C1542.4,615.4,1535.9,613.6,1534.8,617.8L1534.8,617.8z"/>
			</g>
			<g>
				<path fill="#DB2A00" d="M1509.2,615.7c-0.101,28.8-3.7,57.899,2.399,86.399c0.9,4.301,7.4,2.4,6.5-1.8
					c-5.899-27.8-2.199-56.399-2.1-84.6C1515.9,611.3,1509.2,611.3,1509.2,615.7L1509.2,615.7z"/>
			</g>
			<g>
				<path fill="#EEFF2F" d="M1491.9,627.7c0,18.5,0,37,0,55.5c0,4.399,6.699,4.399,6.699,0c0-18.5,0-37,0-55.5
					C1498.7,623.3,1491.9,623.3,1491.9,627.7L1491.9,627.7z"/>
			</g>
			<g>
				<path fill="#C1A868" d="M1594.4,629.5c6.199,4.2,24.699,35.1,14.6,39.9c-2.5,1.1-7.5,1-10.6,1c-5.601-0.301-11.2,0.5-17.101,1
					c-11,1.1-14.899,1.6-33.399,0.899c-12.2-0.5-23.301-3.7-40.5-7.5c-6.7,0.8-9.4,2.8-15.601,5.101c-5.3,1.699-18,3.899-22.2,0.8
					c4.801-3.4,10.7-3.4,15.7-5.601c5.3-2,9.8-5.3,15.2-6.699c5.6-1.7,10.1-5.101,15.2-8.2c1.7-0.8,4.2-3.7,6.5-3.4
					c2.1,0.601-3,8.2-4.101,8.5c9.601,3.7,30.4,1,40-1.5c7.9-2,17.101-3.2,24.7-4.6c-3.1-3.9-10-9.4-5.8-13.7
					C1580.9,631.4,1589.1,630.3,1594.4,629.5"/>
			</g>
			<g id="palette">
				
					<ellipse transform="matrix(0.9403 -0.3404 0.3404 0.9403 -133.8088 546.2618)" fill="#54562F" cx="1489.991" cy="654.498" rx="73.901" ry="11.6"/>
				<circle fill="#D16586" cx="1461" cy="655.2" r="7.3"/>
				<circle fill="#BAFFFA" cx="1444.7" cy="661.8" r="7.3"/>
				<circle fill="#FFD64B" cx="1485.5" cy="645.1" r="7.3"/>
				<circle cx="1511.3" cy="637.8" r="7.3"/>
			</g>
			<g>
				<path fill="#C1A868" d="M1507.1,558.3c0,3.8,0.4,8.601,0.5,12.601c0,1.8-1.6,4.3-3.5,5.399c-2.3,3.8-5.6,4.7-4.899,9.7
					c0.6,4.6,4.5,9.7,9,11.1c6.7,2.2,17.2,1.101,20.899-5.5c2-3.5,3.2-5.3,6.601-7.699c1.7-1.301,3.8-2.301,4.399-4.4
					c1.101-4.4-4.5-6.7-6.699-9.6c-4.101-5.101-1-23.9-0.801-26.601c0-1.399,1.801-7.6,0.601-8.399c-1.101-0.601-5.5,2.1-6.3,2.8
					c-2.7,1.8-3.9,4.2-5.301,7c-3.1,6-7.3,7.6-13.5,9.399c-0.8,0.101-8.6,2.4-5.3,3.801"/>
			</g>
			<g>
				<path fill="#C1A868" d="M1494.6,512.1c-0.399,3.2-2.5,5.801-2.5,9.101c0,3.399-0.8,6.2-1.399,9.399
					c-0.8,4.101-0.3,6.601,1.3,10.4c1.1,2.8,2,6,2.3,9c0.101,2.5-0.6,6.3,1.7,8c2.2,1.8,7,1,9.7,0.6c6.7-1.3,14.899-2,19.8-7.3
					c2.2-2.399,2.4-6,3.2-9c0.8-3.2,1.5-6,1.3-9.399c-0.6-6.601-1.8-14.2-6.7-19c-4.899-4.801-10.8-7.601-17.899-8.2
					c-2.4-0.3-4.601-0.101-7,0.7c-3.101,1.1-3.7,2.199-3.9,5.5"/>
			</g>
			<g>
				<path fill="#3A3A3A" d="M1496.7,511.8c-1.8-1.399-1.2,0.5-1.2,0.5c-2.1,1.7-1.7,2.101-4.2,1.101c-1.7-0.601-0.8-1-2.399,0
					c-1,0.6-1,1.699-2.5,1.399c-1.4-0.3-2.101-2.399-2.801-3.2c-0.6-0.8-2.3-0.699-1.3-2.1c0.4-0.8,2-0.3,2.5-0.7
					c1.8-1.3,0.601-3,0.3-4.6c-0.3-3.101,0.601-1.5,2.5-2.5c1.301-0.4,1-1.101,1.7-1.8c0.101-0.101-0.1-0.7,0.101-0.801
					c0.6-0.6,1.3,0.101,1.699,0c1-0.699,0.1-1.3,1.4-1.3c1.3,0,1.3,2.2,2.4,0.4c0.8-1.3-1-3.8-1.7-4.601
					c2.399-1.8,3.8,0.101,5.899,0.4c0.801-1.4-0.399-3.9,1.4-4.8c0.7-0.4,1.5,0,2.3,0.3c0.4,0.3,0.3,1.3,0.7,1.5
					c0.6,0.3,1.1,0.1,1.5,0.3c0.6,0.3,1.3,0.101,2,0.4c0.8,0.3,1.7,1.7,2.8,1.5c1.8,0,1.8-1.8,3.101-2.7c0.699-0.4,1.699,0,2.1-0.3
					c1.3-0.8,0.6-2.101,2.4-2c1.8,0,2.399,2.2,4.6,2.399c2.1,0.101,3.1-2,5.1-1.5c1.301,0.4,1.101,1.7,2,2.101
					c0.601,0.399,1.7,0.3,2.4,0.3c2.2-0.1,4.5-2.4,6.5-1.5c2,0.8,1.7,2.5,1.3,4.1c-0.1,0.801-0.8,1-0.8,2c0,1.5,1.5,1.801,2.1,3.101
					c0.601,1.3,0,2.7,0.301,3.8c0.3,1.3,0.8,3.2,1.699,3.9c2.101,1.5,2.5,0.1,2.5,3.399c0.101,3,3.801,5.601,1.801,8.601
					c-0.601,0.8-2.101,1-2.7,2.1c-0.4,0.8,0.1,1.3-0.101,2.1c-0.399,1.4-1.8,3.2-2.699,4.4c-1,1.4-2,2.3-2.5,3.9
					c-0.6,2-4.1,7-6,8.199c-0.4-1.699,3.9-6.3,4.199-7.8c0.101-1.5-0.3-3.2-0.699-4.6c-0.6-2-1-3.4-3-4.2
					c-2.301-0.8-2.6,2.2-4.301,3.5c-1,0.8-1.5,2.8-1.8,4.3c0,0.601-0.2,1.7-2.899-0.5c-1.5-1.3,0.699-3.7,1-4.899
					c0.3-1.801-1-3.9-1.801-5.301c-1-1.8-1.5-1.5-3.699-2.199c-2.301-0.601-2.4-1.101-3.4-3c-1-1.7-1.4-1.801-3-2.7
					c-1.1-0.601-3-2.7-4.1-2.7c-0.801,0-1,0.8-1.5,1.1c-1,0.3-1.5-0.1-2.4,0c-1.3,0.101-0.8,0.4-1.8,0.7
					c-0.4,0.101-1.7,0.3-2.101,0.4c-1.3,0.7-2.1,3.7-3.699,3.7C1496.3,515.3,1496.1,513.1,1496.7,511.8"/>
			</g>
			<g>
				<path fill="#C1A868" d="M1528.6,527c-0.3-3.1,4.2-5.5,6.9-4.1c2.2,1.1,1.5,5.899,1.4,8.199c-0.101,2.301-2.4,9.4-5.801,7.601
					c-2.3-1.101-2.699-8.2-2.8-10.4c0-0.8-0.3-1.399,0.3-2.2"/>
			</g>
			<g>
				<path d="M1502.2,523.4c0.399,0.6,2,0.399,2.7,0.399c1.3,0,2.5-0.3,3.899-0.1c0.9,0.1,1.5,0.5,2.2,0.8c0.5,0.3,1.6,0.4,1.1,1.1
					c-0.199,0.301-0.4,0.5-0.5,0.801c-0.1,0.3,0,0.399-0.4,0.399c-0.699,0.101-1.399-0.3-2.1-0.6c-0.6-0.2-1.1-0.5-1.699-0.7
					c-0.5-0.1-0.9-0.1-1.4-0.1c-0.6,0-1.301,0-2-0.101c-0.5-0.1-1.4-0.399-1.7-0.7C1502,524.5,1501.9,523.6,1502.2,523.4"/>
			</g>
			<g>
				<path d="M1494.9,555.8c-0.5,0.3-0.4,0.8-0.301,1.5c0.101,0.7,0.601,0.601,0.801,1.2c0.199,0.6,0.6,3,1.1,1.1
					c1.1,0.601,1.4,0.601,2.6,0.801c0.5,0.1,2.2,1.3,1.5-0.601c2.301,0.9,0.9-0.3,1.9-1.5c0.3-0.399,1.2-0.3,1.7-0.7
					c0.3-0.3,0.399-1.3,0.6-1.699C1501.5,556.8,1498,557.3,1494.9,555.8"/>
			</g>
			<g>
				<path fill="#3A3A3A" d="M1511.8,555.8c3-1.6,6.5-1.7,9.601-3.3c4.399-2.5,5.199-7.8,5.399-13.6c-1.5,1.5-1.899,5.6-3.3,7.8
					c-1.3,1.899-2.9,3.2-4.5,4.3c-1.5,1.1-8.3,3.1-8.1,4.8H1511.8z"/>
			</g>
			<path d="M1491,522.3c0,0,2.4,1.101,4,0.8l1.3,0.7l-0.6,0.8h-2.101l-2.699-0.399l-0.4-1.2L1491,522.3z"/>
			<g>
				<path fill="#FFFFFF" d="M1504.7,527.2c-1.3,0.7-3.3,1.399-1.101,3.8c0.601,0.7,6,1.3,6.801,1.1
					C1514.3,530.9,1508,525.1,1504.7,527.2"/>
			</g>
			<g>
				<path fill="#FFFFFF" d="M1495.7,526.1c0.7,0.801,1.8,1.801,0,3c-0.5,0.301-3.9-0.399-4.4-0.699
					C1489.1,526.7,1494.1,523.9,1495.7,526.1"/>
			</g>
			<path d="M1507.4,529.1c0,1.301-1,2.4-2.101,2.4c-1.2,0-2.1-1.1-2.1-2.4c0-1.3,0.899-2.399,2.1-2.399S1507.4,527.8,1507.4,529.1z"
				/>
			<ellipse cx="1493.1" cy="527.3" rx="1.5" ry="2"/>
			<polygon fill="#FFFFFF" points="1494.4,544.9 1499.3,544.2 1508.3,541.2 1504.4,546.7 1495.2,546.8 			"/>
		</g>
		<g id="plane_x5F_3">
			<polygon fill="#D16586" points="1322.1,623.8 1400.3,626.8 1413.4,637.6 			"/>
			<polygon fill="#BEEF8F" points="1322.1,623.8 1400.3,626.8 1390.8,644.4 			"/>
			<polygon fill="#ED9FB5" points="1322.1,623.8 1397.8,622.9 1390.8,644.4 			"/>
			<polygon fill="#D16586" points="1322.1,623.8 1397.8,622.9 1380.7,606.2 			"/>
		</g>
		<g id="plane_x5F_1">
			<polygon fill="#D6FF9E" points="1413.4,514.7 1347,490.9 1341.6,476.1 			"/>
			<polygon fill="#BAD394" points="1413.4,514.7 1337.4,505.6 1347,490.9 			"/>
			<polygon fill="#FFD64B" points="1413.4,514.7 1347.5,493.5 1337.4,505.6 			"/>
			<polygon fill="#D6FF9E" points="1347.5,493.5 1351.7,516.1 1413.4,514.7 			"/>
		</g>
		<path id="plane_x5F_rope_x5F_1" d="M1369.6,441.7c-1.3,19.399-0.699,38.899-0.699,58.3c0,1,1.5,1,1.5,0
			c0-19.5-0.601-38.9,0.699-58.3C1371.1,440.7,1369.6,440.7,1369.6,441.7L1369.6,441.7z"/>
		<g id="plane_x5F_2">
			<polygon fill="#9991CE" points="1444,560.8 1339.9,549.3 1327,563.2 			"/>
			<polygon fill="#BAFFFA" points="1444,560.8 1339.9,549.3 1342.7,571.4 			"/>
			<polygon fill="#9991CE" points="1444,560.8 1345.1,545.7 1342.7,571.5 			"/>
			<polygon fill="#BAFFFA" points="1345.1,545.7 1444,560.8 1361.2,563 			"/>
		</g>
		<g id="bonsai">
			<polygon fill="#443415" points="1306.6,734.8 1308.3,723.4 1306.6,716.1 1301.8,703 1292.2,695.4 1285.6,688.4 1282.3,689.5 
				1282.3,689 1285.5,687.7 1289.2,690.9 1290.4,687.7 1290,680.2 1291.5,677.6 1291.9,677.6 1290.5,680.3 1290.9,687.7 
				1290.3,689.5 1289.7,691.4 1290.6,692.6 1293.7,695.6 1296.4,697.5 1299,698.9 1302.2,700.8 1303.6,700.8 1306,699.5 1307.2,698 
				1306.5,693.7 1305.7,690.9 1303.1,687.7 1300.5,685.3 1300.2,682.9 1300.4,682.8 1300.8,685.1 1303.3,687.4 1305.8,690.5 
				1306.6,691.8 1307.2,691.2 1309.3,690.4 1312.2,689.5 1313.6,688.6 1313.6,688.8 1312.3,689.8 1309.4,690.9 1307.4,691.8 
				1307,692.4 1307.1,693.9 1307.7,695.4 1308,697 1308.7,698.1 1308.1,700.2 1305.5,701.4 1305.2,702.2 1304.1,704.1 1305.7,708 
				1306.8,709.6 1308.6,709.4 1311.4,708.2 1316.1,706.2 1318.5,704.7 1319.9,700.8 1320.6,696.2 1320.6,693 1323.2,690.9 
				1324.8,690.4 1324.1,688.7 1324.4,688.5 1325.2,690.2 1325.5,690.5 1326.6,690.4 1327.1,690.5 1327.8,690.9 1327.8,691.1 
				1327.1,690.8 1326.2,690.9 1325.5,691 1324.3,691.1 1322.8,692 1321.9,692.8 1321.3,693.7 1321.4,695.2 1321.4,696.3 
				1321.2,698.1 1320.9,700.1 1320.9,702.1 1320.2,704.7 1318.6,708 1314.8,709.5 1310.6,712.3 1310.1,714.3 1311,717.9 
				1312.3,720.1 1313.1,723.6 1313.4,725.9 1314,727.5 1313.9,735.3 			"/>
			<g>
				<path fill="#B75925" d="M1344.3,744h-65c-1.6-3.1-5.8-14.5-5.8-14.5h75.9C1349.4,729.5,1345.5,741.1,1344.3,744z"/>
			</g>
			<circle fill="#009E01" cx="1283.5" cy="689.8" r="1.2"/>
			<circle fill="#009E01" cx="1286" cy="687.7" r="1.3"/>
			<circle fill="#009E01" cx="1290.8" cy="686.9" r="1.3"/>
			<circle fill="#009E01" cx="1290" cy="680.2" r="1.1"/>
			<circle fill="#009E01" cx="1292.1" cy="696.4" r="1.3"/>
			<circle fill="#009E01" cx="1300.5" cy="685.8" r="1.2"/>
			<circle fill="#009E01" cx="1313.1" cy="690" r="1"/>
			<circle fill="#009E01" cx="1303.2" cy="686.9" r="1.3"/>
			<circle fill="#009E01" cx="1310.7" cy="690.3" r="0.9"/>
			<circle fill="#009E01" cx="1309.6" cy="698.8" r="1.2"/>
			<circle fill="#009E01" cx="1306.1" cy="699.5" r="1.1"/>
			<circle fill="#009E01" cx="1301.3" cy="703.6" r="1.3"/>
			<circle fill="#009E01" cx="1317.9" cy="708.9" r="1.6"/>
			<circle fill="#009E01" cx="1318" cy="704.4" r="1.2"/>
			<circle fill="#009E01" cx="1321.6" cy="702.6" r="1.4"/>
			<circle fill="#009E01" cx="1322.5" cy="690.9" r="0.9"/>
			<circle fill="#009E01" cx="1326.8" cy="691.2" r="1"/>
			<circle fill="#009E01" cx="1325.1" cy="689.5" r="0.8"/>
		</g>
	</g>
	<g id="strategy">
		<rect id="whiteboard_x5F_2" x="280" y="464.7" fill="#FFFFFF" width="357.7" height="195.1"/>
		<g id="markings">
			<g>
				<path fill="#76A8A8" d="M517.8,481.5c0,15.7,1,31.3,1.5,47c0,1,1.5,1,1.5,0c-0.5-15.7-1.5-31.3-1.5-47
					C519.2,480.5,517.7,480.5,517.8,481.5L517.8,481.5z"/>
			</g>
			<g>
				<path fill="#76A8A8" d="M513.5,524.8c29,0,58-1,87-1c1,0,1-1.5,0-1.5c-29,0-58,1-87,1C512.5,523.3,512.5,524.8,513.5,524.8
					L513.5,524.8z"/>
			</g>
			<g>
				<path fill="#76A8A8" d="M522.5,509.8c24.7-1.1,36.3-31,61-32c1,0,1-1.5,0-1.5c-24.9,1.101-36.5,30.9-61,32
					C521.5,508.3,521.5,509.8,522.5,509.8L522.5,509.8z"/>
			</g>
			<g>
				<path fill="#76A8A8" d="M524.5,505.3c11.4-0.6,22.5-2.7,33.5-6s21.3-10.2,33-10c1,0,1-1.5,0-1.5c-10.3-0.1-19.2,5.101-28.6,8.5
					c-12.101,4.4-25.101,6.8-37.9,7.5C523.5,503.8,523.5,505.3,524.5,505.3L524.5,505.3z"/>
			</g>
			<g>
				<path fill="#76A8A8" d="M527.8,529.5c0,0.9,0,1.8-0.399,2.6c-0.4,0.9,0.899,1.601,1.3,0.801c0.5-1.101,0.6-2.2,0.6-3.4
					C529.3,528.5,527.8,528.5,527.8,529.5L527.8,529.5z"/>
			</g>
			<g>
				<path fill="#76A8A8" d="M548.3,530c0,1.7,0,3.3,0,5c0,1,1.5,1,1.5,0c0-1.7,0-3.3,0-5C549.8,529,548.3,529,548.3,530L548.3,530z"
					/>
			</g>
			<g>
				<path fill="#76A8A8" d="M512.5,506.8c-1.5,0-3,0-4.5,0c-1,0-1,1.5,0,1.5c1.5,0,3,0,4.5,0C513.5,508.3,513.5,506.8,512.5,506.8
					L512.5,506.8z"/>
			</g>
			<g>
				<path fill="#76A8A8" d="M514.2,491.3c-1.5-0.5-3.101-0.5-4.7-0.5c-1,0-1,1.5,0,1.5c1.5,0,2.9,0,4.3,0.5
					C514.7,493,515.1,491.6,514.2,491.3L514.2,491.3z"/>
			</g>
			<g>
				<path fill="#76A8A8" d="M538.3,505.7c-0.1,15.7-1.1,31.399,2,46.899c0.2,0.9,1.601,0.5,1.4-0.399c-3.101-15.3-2-30.9-2-46.5
					C539.8,504.7,538.3,504.7,538.3,505.7L538.3,505.7z"/>
			</g>
			<g>
				<path fill="#76A8A8" d="M543,561.1c8,0,16,0,24,0c1,0,1-1.5,0-1.5c-8,0-16,0-24,0C542,559.6,542,561.1,543,561.1L543,561.1z"/>
			</g>
			<g>
				<path fill="#76A8A8" d="M543,567.8c10.7,0,21.3,0,32,0c1,0,1-1.5,0-1.5c-10.7,0-21.3,0-32,0C542,566.3,542,567.8,543,567.8
					L543,567.8z"/>
			</g>
			<g>
				<path fill="#76A8A8" d="M543.7,573.8c4.899,0,9.8,0,14.7,0c1,0,1-1.5,0-1.5c-4.9,0-9.801,0-14.7,0
					C542.7,572.3,542.7,573.8,543.7,573.8L543.7,573.8z"/>
			</g>
			<rect x="417" y="488.5" fill="#76A8A8" width="16.5" height="4.5"/>
			<rect x="450.4" y="532.7" fill="#76A8A8" width="16.5" height="4.5"/>
			<rect x="479.7" y="628.7" fill="#76A8A8" width="16.5" height="4.5"/>
			<rect x="316.5" y="547.9" fill="#76A8A8" width="16.5" height="4.5"/>
			<g>
				<path fill="#76A8A8" d="M429.6,497.9c3.2,9.5,9.601,17.6,16.9,24.3c0.7,0.7,1.8-0.4,1.1-1.101
					c-7.1-6.5-13.399-14.399-16.5-23.699C430.8,496.6,429.3,496.9,429.6,497.9L429.6,497.9z"/>
			</g>
			<g>
				<path fill="#76A8A8" d="M460.3,545c-0.6,25.4,1.7,53.3,17.4,74.4c0.6,0.8,1.899,0,1.3-0.801C463.4,597.7,461.2,570.2,461.8,545
					C461.8,544,460.3,544,460.3,545L460.3,545z"/>
			</g>
			<g>
				<path fill="#76A8A8" d="M410.6,491.7c-16.3,12-35,20.6-53.899,27.5c-10.7,3.899-27.5,9-31.8,20.899c-0.3,0.9,1.1,1.301,1.4,0.4
					c2.3-6.5,9.1-10.3,14.9-13.3c6.8-3.5,14-6,21.1-8.5c17.2-6.2,34.3-14.9,49-25.7C412.1,492.4,411.4,491.1,410.6,491.7
					L410.6,491.7z"/>
			</g>
			<g>
				<path fill="#76A8A8" d="M340.3,551.1c33-0.1,65.9-4,98.2-10.699c0.9-0.2,0.5-1.601-0.4-1.4c-32.199,6.6-64.899,10.6-97.8,10.6
					C339.4,549.6,339.4,551.1,340.3,551.1L340.3,551.1z"/>
			</g>
			<g>
				<path fill="#76A8A8" d="M487.4,623.6C504.6,613.1,519.8,599.9,536.7,588.9c0.8-0.5,0.1-1.801-0.8-1.301
					C519,598.5,503.8,611.8,486.6,622.3C485.8,622.9,486.6,624.2,487.4,623.6L487.4,623.6z"/>
			</g>
		</g>
		<g id="anam_x5F_4">
			<g>
				<path fill="#E5D295" d="M358.1,679c6.1-13.2-0.3-28.9-3.2-42.7c-2.6-12.5-5.1-47.5-25.3-45.6H328c-7.7,11.6-1.9,37.899,0,50.7
					c2.6,18,1.3,38.5,23.7,40.399C351.7,681.9,356.2,683.2,358.1,679z"/>
			</g>
			<g>
				<path fill="#E5D295" d="M476.7,615.8c2.1-10.5,1.399-27.399-11-30.1c-3-0.7-9.601-1.601-11.4,1.399c-2.1,3.2-0.7,9.801,3.2,10.5
					l1.2,0.2c-0.3,1.601-0.3,3.2,0.1,4.8c1.4,4.601,9.101,5,8.2,10.5l-0.8,1.4c-8.3,12.5-17.5,14.7-29.7,21.4l-5.3,3.8l5.2,27.6
					l5-3.7C455.6,649.6,471.9,635.1,476.7,615.8"/>
			</g>
			<g>
				<path fill="#E5D295" d="M410.1,631.8c1.301,7.4,8,17,11.9,23.4c1.6,3.5,14.1,18,17.3,9.3l1.5-2.4c0.2-12.8-7-24.8-10.3-36.8
					c-3.6-12.3-1-24.5-6.3-36.6L406.9,628L410.1,631.8z"/>
			</g>
			<g>
				<path fill="#E5D295" d="M390.9,554c-1.9,10.8,5.8,18.6,9.8,20.4c-24.6,11.3-40.5-0.801-40.5-0.801c6.5-3.699,11.4-9.6,10.3-19.6
					l-4.3-6.1l14.2-11.9l14.3,14.9L390.9,554z"/>
			</g>
			<g>
				<path fill="#E5D295" d="M412.3,709.3c1,0.7,1.7,2.8,2.2,3.7c1.3,2.4,1,4,0,6.6c-1.8,4.801-13.6,7.9-15.8,8.5
					c-4.1,1.2-25.6,3.301-32.1,2.601c-4.8-0.601-26.1-6.5-31.3-8.9c-2.3-1.1-3.6-1.899-3.1-4.5c0.4-1.8,1-3.1,2.5-4
					c2.9-1.3,24.3-1.3,31.6-1.3L412.3,709.3z"/>
			</g>
			<g>
				<path fill="#40001E" d="M332.8,714.6c-0.1-2.899,3.6-6.899,4.8-8.8c7.6-12.7,12.4-24.3,11.3-39.6c-1.2-14.2-2.5-25.8-6.2-37
					l-0.9,0.399c-2.6,1-13.7,3.5-16,1c-1.5-1.6-1.5-11.6-1.5-14.1c-0.9-6.7-2-22.7,3.7-27.4l1.3-1.8c8.5-7.8,22.2-9.399,31.1-14.899
					l0.5-0.101c7,1.9,11.8,4.3,18.8,4.3c7.9,0,13.7-0.5,20.7-3.399l0.3,0.1c8.5,4.101,19,6.3,23.1,14l0.9,1.2
					c2.6,6.6,3.8,12.8,4.1,20.1c0.101,3.9,0.101,7.7,1,11.2c0.4,2.4,1.601,4.7,2,7.101c-4.1,0.6-8,1.899-11.7,4.199
					c-3.6,2.4-5,5.5-7.3,9.301c-1.2-2.101-2.3-3.301-2.899-5.601l0.199-2c-4.3,12.4-5.8,25.8-7.199,40.101
					c-1.301,15.199,4.199,25.5,11.6,38.3C414.6,711.1,374.1,730.3,332.8,714.6z"/>
			</g>
			<g>
				<path d="M415.6,715.7C420,721.2,429.4,744.6,420.4,752.6l-85.3-1.5c0,0-4.5-3.1-6.1-4.6c-6.7-6.1-2.4-18.6,2.6-29.3
					C331.6,717.2,390.2,740.8,415.6,715.7z"/>
			</g>
			<g>
				<path fill="#3A3A3A" d="M358.5,567.4c0.7-1.9,0.3-5.5-0.7-7.2c-1.4-2.601-5.8-4.7-6.5-7.8c-0.5-1.9,0.2-4.301,0.2-6.5
					c0-5.301-1.9-10.301-0.7-15.9c1.2-6.5,7-11.1,8.9-17.8c0.7-2.601,8.7-14.9,10.8-6.7l0.2-0.2c1.9-2.2,2.9-7,5.8-7.899
					c2.4-1,4.8,1.399,7.5,1c2.9-0.7,4.6-4.101,7.7-3.9c3.4,0.2,6.3,4.6,8.7,6.7c2.899,2.399,5.8,4.8,7.199,8.399
					c1.7,3.601,1.2,7.7,3.101,11.101c3.399,5.5,9.899,8.399,9.1,15.899c-0.2,2.9-1.7,6.7-2.6,9.4c-1.4,4.3-6,5.8-9.4,8.9
					c-1.399,1.399-2.399,3.6-3.899,4.8c-2.2,2.2-4.101,2.2-5.301,5.5c-1.399,3.6,1,8.399-3.6,10.3l-1,0.7
					c-4.7,2.8-21.8-3.101-15.1,9.399l0.5,2.601c-3.6-3.101-5.8-7.7-4.6-12.5c1-3.8,4.6-5.8,5.5-9.4c2.4-7.7-5.3-13-5.1-20.2
					l0.5-3.399c-1.7,6.3-8.7,3.8-13.1,6.6s1.7,10.101,0.5,13.4C362.4,565.1,358.5,567.4,358.5,567.4z"/>
			</g>
			<g>
				<path fill="#3A3A3A" d="M370.1,542c-6,0.2-1,10.9-0.5,13.4c1,4.1-0.3,7.899-4.7,10.899c-3.7,2.4-8.4,3.601-9.2,7.7
					c-0.5,2.4,2.1,6.4-0.5,8.3c6-1.1,4.5-7.2,11-9.3c5.8-1.9,14.1-4.3,16.8-8.6c1.4-2.4-1-5.101-0.5-7.5c0.5-2.4,3.9-4.101,6-6.2
					c3.7-3.601,5.2-8.3,3.7-12.601c-3.7-10-15.5-0.399-21,2.801L370.1,542z"/>
			</g>
			<polygon fill="#C70011" points="458.9,597.2 435.6,568.6 437.2,567.3 459.6,596.4 			"/>
		</g>
		<g id="chess_x5F_board">
			<rect x="396" y="716.8" fill="#353229" width="163" height="28.2"/>
			<g>
				<path d="M422.9,714.3v2.4h-9.2V701h2.899v13.3H422.9z"/>
				<path d="M438.6,708.9c0,1.199-0.199,2.199-0.6,3.199s-0.9,1.801-1.6,2.5c-0.7,0.7-1.5,1.301-2.5,1.7
					c-1,0.4-2.101,0.601-3.301,0.601c-1.199,0-2.3-0.2-3.3-0.601c-1-0.399-1.8-1-2.5-1.7c-0.7-0.699-1.2-1.6-1.6-2.5
					c-0.4-1-0.601-2-0.601-3.199c0-1.2,0.2-2.2,0.601-3.2c0.399-1,0.899-1.8,1.6-2.5s1.5-1.3,2.5-1.7s2.101-0.6,3.3-0.6
					c0.801,0,1.5,0.1,2.301,0.3c0.8,0.2,1.3,0.399,1.899,0.8c0.601,0.3,1.101,0.7,1.601,1.2s0.899,1,1.199,1.6
					c0.301,0.601,0.601,1.2,0.7,1.9C438.5,707.4,438.6,708.1,438.6,708.9z M435.6,708.9c0-0.9-0.1-1.601-0.3-2.301
					c-0.2-0.699-0.6-1.3-1-1.699c-0.399-0.4-0.899-0.801-1.6-1.101s-1.3-0.399-2.101-0.399c-0.8,0-1.5,0.1-2.1,0.399
					s-1.1,0.601-1.6,1.101c-0.4,0.5-0.801,1.1-1,1.699c-0.2,0.7-0.301,1.5-0.301,2.301c0,0.899,0.101,1.6,0.301,2.3
					c0.199,0.7,0.6,1.3,1,1.7c0.399,0.5,1,0.8,1.6,1.1s1.3,0.4,2.1,0.4c0.801,0,1.5-0.101,2.101-0.4c0.6-0.3,1.1-0.6,1.6-1.1
					s0.8-1.101,1-1.7C435.5,710.5,435.6,709.8,435.6,708.9z"/>
				<path d="M458.6,716.8H456c-0.5,0-0.9-0.2-1.1-0.6l-3.301-5c-0.1-0.2-0.3-0.3-0.399-0.4c-0.101-0.1-0.4-0.1-0.7-0.1h-1.3v6.1
					h-2.9V701h4.8c1.101,0,2,0.1,2.7,0.3c0.8,0.2,1.4,0.5,1.9,0.9c0.5,0.399,0.8,0.899,1.1,1.399c0.2,0.601,0.3,1.2,0.3,1.801
					c0,0.5-0.1,1-0.199,1.5c-0.2,0.5-0.4,0.899-0.7,1.3c-0.3,0.399-0.7,0.7-1.101,1c-0.399,0.3-0.899,0.5-1.5,0.7
					c0.2,0.1,0.4,0.199,0.5,0.399c0.2,0.101,0.301,0.3,0.4,0.5L458.6,716.8z M451.1,708.5c0.5,0,1-0.1,1.4-0.2
					c0.4-0.1,0.8-0.3,1-0.6c0.3-0.2,0.5-0.5,0.6-0.9c0.101-0.3,0.2-0.7,0.2-1.1c0-0.8-0.3-1.4-0.8-1.8c-0.5-0.4-1.3-0.601-2.4-0.601
					H449.2v5.2H451.1L451.1,708.5z"/>
			</g>
			<g>
				<path fill="#FFFFFF" d="M528.3,714.2c0.601,0,1.101-0.101,1.5-0.3c0.4-0.2,0.8-0.5,1.101-0.801c0.3-0.3,0.5-0.8,0.699-1.199
					c0.2-0.5,0.2-1,0.2-1.601V700.9h2.9v9.399c0,0.9-0.2,1.8-0.5,2.601c-0.3,0.8-0.7,1.5-1.3,2.1c-0.601,0.6-1.2,1-2,1.3
					c-0.801,0.3-1.7,0.5-2.7,0.5s-1.9-0.2-2.7-0.5s-1.5-0.8-2-1.3c-0.6-0.6-1-1.3-1.3-2.1c-0.3-0.801-0.5-1.7-0.5-2.601V700.9h2.899
					v9.399c0,0.601,0.101,1.101,0.2,1.601c0.2,0.5,0.4,0.899,0.7,1.199c0.3,0.301,0.7,0.601,1.1,0.801
					C527.2,714.1,527.7,714.2,528.3,714.2z"/>
				<path fill="#FFFFFF" d="M557.6,700.9V716.6H555V706.4c0-0.4,0-0.801,0.1-1.301l-4.8,8.9c-0.2,0.4-0.6,0.6-1,0.6H548.9
					c-0.5,0-0.801-0.199-1-0.6l-4.801-9c0,0.2,0,0.5,0.101,0.7c0,0.2,0,0.399,0,0.6v10.2H540.6v-15.7h2.2c0.101,0,0.2,0,0.3,0
					c0.101,0,0.2,0,0.301,0.101c0.1,0,0.1,0.1,0.199,0.1c0.101,0.1,0.101,0.2,0.2,0.3l4.7,8.7c0.1,0.2,0.2,0.5,0.3,0.7
					c0.101,0.2,0.2,0.5,0.3,0.8c0.101-0.3,0.2-0.5,0.301-0.8c0.1-0.3,0.199-0.5,0.3-0.7l4.6-8.7c0.101-0.1,0.101-0.2,0.2-0.3
					s0.1-0.1,0.2-0.1c0.1,0,0.2,0,0.3-0.101c0.1,0,0.2,0,0.3,0h2.3V700.9L557.6,700.9z"/>
			</g>
			<g>
				<path d="M463.6,709.2v2.5h3.101v1.3H463.6v2.5h3.9v1.3h-5.6V708h5.6v1.3L463.6,709.2L463.6,709.2z"/>
				<path fill="#FFFFFF" d="M484.5,707.9v8.8H483V711c0-0.2,0-0.5,0-0.7l-2.7,5c-0.1,0.2-0.3,0.4-0.6,0.4h-0.2
					c-0.3,0-0.5-0.101-0.6-0.4l-2.7-5c0,0.101,0,0.3,0,0.4c0,0.1,0,0.3,0,0.399v5.7h-1.4V708h1.2c0.1,0,0.1,0,0.2,0
					c0.1,0,0.1,0,0.1,0s0.101,0,0.101,0.1l0.1,0.101l2.6,4.899c0.101,0.101,0.101,0.301,0.2,0.4c0.101,0.1,0.101,0.3,0.2,0.4
					c0.1-0.2,0.1-0.301,0.2-0.4c0.1-0.1,0.1-0.3,0.2-0.4l2.6-4.899c0-0.101,0.1-0.101,0.1-0.101l0.101-0.1h0.1
					c0.101,0,0.101,0,0.2,0L484.5,707.9L484.5,707.9z"/>
			</g>
			<g>
				<path fill="#FFFFFF" d="M498.1,716.6H496.4v-8.8h1.699V716.6z"/>
				<path d="M503.9,707.9c0.6,0,1.1,0.1,1.5,0.199c0.399,0.101,0.8,0.301,1.1,0.601s0.5,0.5,0.6,0.899
					c0.101,0.301,0.2,0.7,0.2,1.101c0,0.399-0.1,0.8-0.2,1.2c-0.1,0.399-0.399,0.699-0.6,0.899c-0.3,0.3-0.6,0.5-1.1,0.601
					c-0.4,0.1-0.9,0.199-1.5,0.199h-1.2v3.101H501v-8.8H503.9z M503.9,712.4c0.3,0,0.6,0,0.8-0.101c0.2-0.1,0.399-0.2,0.6-0.3
					c0.101-0.1,0.3-0.3,0.3-0.5s0.101-0.4,0.101-0.7c0-0.2,0-0.5-0.101-0.6c-0.1-0.101-0.199-0.4-0.3-0.5
					c-0.1-0.101-0.3-0.2-0.6-0.3c-0.3-0.101-0.5-0.101-0.8-0.101h-1.2v3.2L503.9,712.4L503.9,712.4z"/>
				<path fill="#FFFFFF" d="M517.9,709.4c0,0.1-0.101,0.1-0.2,0.199c-0.101,0-0.101,0.101-0.2,0.101s-0.2,0-0.3-0.101
					c-0.101-0.1-0.2-0.1-0.4-0.199c-0.1-0.101-0.3-0.101-0.5-0.2c-0.2-0.101-0.399-0.101-0.7-0.101c-0.199,0-0.399,0-0.6,0.101
					c-0.2,0.1-0.3,0.1-0.4,0.2c-0.1,0.1-0.199,0.199-0.3,0.399c-0.1,0.101-0.1,0.3-0.1,0.4c0,0.2,0.1,0.399,0.2,0.5
					c0.1,0.1,0.3,0.3,0.5,0.399c0.199,0.101,0.399,0.2,0.699,0.301c0.301,0.1,0.5,0.199,0.801,0.199c0.3,0.101,0.5,0.2,0.8,0.301
					c0.2,0.1,0.5,0.3,0.7,0.399c0.199,0.2,0.3,0.4,0.5,0.7c0.1,0.3,0.199,0.6,0.199,0.9c0,0.399-0.1,0.8-0.199,1.1
					c-0.101,0.3-0.301,0.7-0.601,0.9c-0.3,0.3-0.6,0.5-1,0.6c-0.399,0.1-0.8,0.2-1.3,0.2c-0.3,0-0.6,0-0.8-0.1
					c-0.3-0.101-0.5-0.101-0.8-0.2c-0.301-0.101-0.5-0.2-0.7-0.4c-0.2-0.1-0.4-0.3-0.601-0.5l0.5-0.8c0-0.1,0.101-0.1,0.2-0.1
					c0.101,0,0.101-0.101,0.2-0.101s0.2,0,0.3,0.101c0.101,0.1,0.3,0.199,0.4,0.3c0.2,0.1,0.399,0.2,0.6,0.3s0.5,0.1,0.8,0.1
					c0.5,0,0.801-0.1,1.101-0.3s0.399-0.5,0.399-1c0-0.2-0.1-0.4-0.199-0.6c-0.101-0.101-0.301-0.3-0.5-0.4
					c-0.2-0.1-0.4-0.2-0.7-0.3c-0.2-0.1-0.5-0.1-0.7-0.2c-0.3-0.1-0.5-0.2-0.7-0.3s-0.5-0.3-0.7-0.4c-0.199-0.2-0.3-0.399-0.5-0.7
					c-0.199-0.3-0.199-0.6-0.199-1c0-0.3,0.1-0.6,0.199-0.899c0.101-0.3,0.301-0.601,0.601-0.8c0.2-0.2,0.5-0.4,0.899-0.601
					c0.4-0.1,0.801-0.2,1.2-0.2c0.5,0,1,0.101,1.4,0.2c0.399,0.2,0.8,0.4,1.1,0.7L517.9,709.4z"/>
			</g>
		</g>
	</g>
</g>
<g id="wall_x5F_fill">
	<path id="wall_x5F_fill_x5F_3" fill="#E5E5B5" d="M1920,257H0v704h1920.1L1920,257z M645,760.6H280V426.7h365V760.6z M1608.7,760.6
		h-365V426.7h365V760.6z"/>
</g>
<g id="wall_x5F_frames">
	<rect x="630.1" y="257" fill="#CCD9ED" width="38.101" height="525.1"/>
	<rect x="256.8" y="257" fill="#CCD9ED" width="38.1" height="704"/>
	<rect x="1593.9" y="257" fill="#CCD9ED" width="38.1" height="525.1"/>
	<rect x="1220.5" y="257" fill="#CCD9ED" width="38.1" height="704"/>
	<polyline fill="#CCD9ED" points="1920,406 0,406 0,444.1 1920.1,444.1 	"/>
	<rect y="744" fill="#CCD9ED" width="1920" height="38.1"/>
</g>
<g id="ground_x5F_roof">
	<rect id="ground_x5F_fill_2_" y="941" fill="#353229" width="1920" height="139"/>
	<polygon id="roof_x5F_3" fill="#353229" points="1920.1,257 0,257 0,137.8 1920,137.8 	"/>
</g>
<g id="characters_x5F_outdoor_x5F_fills">
	<g id="cat_x5F_content">
		<g>
			<path fill="#B86700" d="M621.4,740.7c-0.301,4.2,2.699,8.8,4.3,12.5c1.7,4,3.5,7.8,4.5,12c1.8,8.5,1.5,17.2,2.8,25.7
				c0.2,0.8,1,4.699,0.3,5.3c-1.7,1.8-3.3-2.3-3.8-3.5c-0.8-3-1-6-1.2-9c-0.5-7.2-2.2-14-4.3-20.7c-1.7-5.2-5.2-9.3-6.7-14.3
				c-0.8-2.2-1.7-4.7-1.5-7c0.2-1.7,3.2-6.5,4.3-3.2L621.4,740.7z"/>
		</g>
		<g>
			<path fill="#B86700" d="M575.3,669c-6,1.8-11.3,10.3-16.3,14c-4.3,3-12.3,4.8-10,12c5.3,2.9,6.1-1.6,8.8-3.8c2-1.8,4-2.7,6.5-3.5
				c2.8-0.8,13.9-5,14.2-0.2c0.3,2-5.3,7.5-6.3,9.5c-1.3,2.3-4.8,6-4.8,8.5c-0.301,6.8,8.6,3.9,8.899-2.1
				c2,5.5,4.601,8.1,2.101,13.8c-1.301,3-2,5.5-2,8.8s0.3,6,2,9c1.5,2.8,3.3,2.8,1.5,5c-1,1-3.7,3-5,4c2.5,0.8,7.6,0,10.6,0
				l30.4,0.1c1.8,0.301,3.5,2.101,5,0.801c1.8-1.301,0.5-1,0.8-3c0.3-1.801,0.5-4.301,0.8-6.301c0.5-4.8-0.8-12.3-4.3-15.8
				c-2.5-3-7-4.3-7.8-8.3c-0.5-2,0.8-5.3,0.8-7.5c0-4.8,0-9.3,0-14c0-9.3-1.5-18.3-2.3-27.5c-1-11,7.1-22.3,5.3-34
				c0.3-2.5,1.399-8.6-1.5-10c-2.5,0.3-3,3.3-4.5,4.5c-2.3,2-1.8,1.8-4.8,1.8c-2,0-4.801,0.3-6.801-0.3c-2.8-0.8-5.3-5.8-7.5-5.8
				c0.801,6.3,4.7,4.899,0.2,11.2c-4,5.8-1.8,7.1,0.3,12.3c0.801,6.5-2,9.3-6,13.3c-3.5,3.5-4.5,7.5-7,11.3L575.3,669z"/>
		</g>
		<g>
			<path fill="#FFFFFF" d="M598.2,631.8c0.8-1.899,3.1-2.7,4.7-1.2c1.1,1.101-0.601,1.9-1.7,2.2c-0.9,0.101-1.8,0-2.4-0.5
				L598.2,631.8z"/>
		</g>
		<g>
			<path fill="#FFFFFF" d="M590.7,632.1c1.1,1.101,2.899-1.199,2.2-2.1c-0.301-0.3-1.5-0.4-1.9-0.3c-0.7,0.399-0.9,1.1-0.5,1.7
				L590.7,632.1z"/>
		</g>
		<path fill="#493C2E" d="M591.1,640.3c0.2-0.3,0.5-0.6,0.801-0.899c0.3-0.301,1.3,0.3,1.5,0.5c0.699,0.5,1.699,0.6,2.6,0.5
			c0.5,0,0.7-0.601,0.2-0.601c-1.5,0.101-2.601-0.899-3.9-1.3c-0.8-0.2-1.399,0.8-1.8,1.3S590.8,640.7,591.1,640.3L591.1,640.3z"/>
		<path fill="#493C2E" d="M592.3,638.9c0.101-0.7,0-1.5-0.3-2.2c-0.1-0.2-0.2-0.4-0.3-0.601c-0.101-0.1-0.9-0.899-0.5-1
			c0.2-0.1,1.399,0.101,1.399,0.101c-0.199,0.399-0.8,0.7-1,1.1c-0.3,0.4,0.4,0.8,0.601,0.4c0.3-0.5,1.399-0.9,1.1-1.7
			c-0.2-0.7-1.2-0.6-1.8-0.6c-0.5,0-1.5,0.399-1.3,1.1c0.1,0.4,0.5,0.7,0.8,1.1c0.5,0.601,0.5,1.7,0.5,2.4
			C591.5,639.4,592.3,639.4,592.3,638.9L592.3,638.9z"/>
	</g>
</g>
</svg>
