<?xml version="1.0" encoding="utf-8"?>
<!-- Generator: Adobe Illustrator 16.0.0, SVG Export Plug-In . SVG Version: 6.00 Build 0)  -->
<!DOCTYPE svg PUBLIC "-//W3C//DTD SVG 1.1//EN" "http://www.w3.org/Graphics/SVG/1.1/DTD/svg11.dtd">
<svg version="1.1" id="Layer_1" xmlns="http://www.w3.org/2000/svg" xmlns:xlink="http://www.w3.org/1999/xlink" x="0px" y="0px" viewBox="0 0 1920.1 1080" enable-background="new 0 0 1920.1 1080" xml:space="preserve">
<g id="page_x5F_fills_x5F_blue" preserveAspectRatio="none">
	<rect id="fill_x5F_5" x="0.1" fill="#CCD9ED" width="1920" height="1080"/>
</g>
<g id="windows_x5F_light">
	<rect x="287.7" y="426.7" fill="#1A262D" width="365" height="333.897"/>
	<rect x="1251.7" y="426.7" fill="#1A262D" width="365" height="333.897"/>
</g>
<g id="characters_x5F_indoor_x5F_fills">
	<g id="code">
		
			<linearGradient id="laptop_x5F_light_1_" gradientUnits="userSpaceOnUse" x1="-1465.7354" y1="-43.5298" x2="-1304.5011" y2="-322.796" gradientTransform="matrix(1 0 0 1 1936 758)">
			<stop  offset="0" style="stop-color:#F4EFBE"/>
			<stop  offset="0.0629" style="stop-color:#DBD8AE"/>
			<stop  offset="0.2256" style="stop-color:#A1A387"/>
			<stop  offset="0.3828" style="stop-color:#717667"/>
			<stop  offset="0.5308" style="stop-color:#4B534E"/>
			<stop  offset="0.6672" style="stop-color:#303A3C"/>
			<stop  offset="0.7879" style="stop-color:#202B31"/>
			<stop  offset="0.8803" style="stop-color:#1A262D"/>
		</linearGradient>
		<polygon id="laptop_x5F_light" opacity="0.5" fill="url(#laptop_x5F_light_1_)" enable-background="new    " points="387.5,615.8 
			411.6,680.6 640,662.5 640.5,440.4 527.4,440.7 		"/>
		<g id="runway_x5F_plane">
			<path fill="#515151" d="M294.4,561.2c54.2-7.4,110.1-17.5,162.7-32.8l-0.197-6.5C404.3,537.2,348.4,547.3,294.2,554.7
				L294.4,561.2z"/>
		</g>
		<path id="wire2" d="M321.6,496.2c7.4,16.6-4.2,42.397,8.4,55.397c4.2,4.303,10.5,4.4,15.7,2.103c1.6-0.7,2.9-2,4.3-3
			c1.5-1.2,3.9-0.5,5.5-1.4c2.1-1.1,3.4-2.5,3.2-5c-0.1-1-1.6-1-1.5,0c0.3,4.5-5.5,3.7-8,5.103c-3.3,1.8-5.1,3.897-9.2,4.397
			c-9.5,1.103-13.8-9.1-14.1-16.8c-0.3-11.2,3.3-33.7-4-43.7C321.4,492.4,321.6,496.2,321.6,496.2z"/>
		<path id="wire_x5F_1" d="M329.1,512.8c0.2,4.103,0.5,9.3,0.5,13.3s-0.6,9.603,2.1,13c2.6,3.2,7.9,4.103,11.6,2.4
			c4.5-2,7.4-6.9,12-8.7c0.9-0.397,0.5-1.8-0.4-1.397c-3.7,1.5-6.9,5.197-10.1,7.6c-3,2.3-8.5,2.5-11.4-0.1
			c-2.4-2.2-2.3-6.603-2.3-9.603c-0.1-6.7,0.5-13.7-0.6-20.397c-0.7-4.4-4.3-31.603-9.1-31.603c-0.9,0-0.3,1.8-0.3,1.8
			C321.1,479.5,327.3,491,329.1,512.8z"/>
		<rect id="table_x5F_joe" x="293" y="690.3" fill="#2D2D2D" width="228" height="71.7"/>
		<rect id="laptop_x5F_base_x5F_joe" x="407" y="681.7" width="84.3" height="8.6"/>
		<g id="joe_x5F_4">
			<path fill="#FFFFFF" d="M563.4,574.6l1.897,6c0,0,12.5-3.8,14.2-5.697c1.7-1.9,0.9-3.603,0.9-3.603L563.4,574.6z"/>
			<g>
				<path fill="#333333" d="M590.2,625.5c1.6-4-1.603-7.6-1.103-11.6c0.9-5,4.7-8.5,9.2-10.803c6.9-3.8,15-7.1,23.4-6.3
					c9.2,0.9,20.5,8.5,26.8,14.8c2.9,2.803,4.5,8.5,1.5,11.603c-5.8,5.897-15.6-5.603-19.9-8.7c-8.197-5.9-20.3-6.4-29.5-2.6
					c-3.1,1.197-5.397,3-6.697,6.1C592.8,620.8,592.8,623.1,590.2,625.5"/>
			</g>
			<path fill="#CEC361" d="M560.1,540c0,0,39.7-7,34,11.8c0,0,2.803,0.5,2.303,3.103c-0.5,2.6-0.603,3.1-0.603,3.1s0.8,6.9-1.2,14.2
				c0,0,5.103-3.5,6.7-3.2c-1.8,7.4,11.4,29.9,19.9,36c0,0-18.5-3.9-25.4,6.3c0,0-5.8-26.897-18.397-25.5c0,0-8.303,5.4-10.9,1.7
				c-1-1.4,1.9-3.7-2.8-6.4c-1.8-1.3,14.1-5.6,14.5-8.8c-1,0.4-14,4-17.3,2.603c-1.5-3.303,2.6-1.603,0.1-4.7
				c-2.4,0.8-2.2,1.6-8.6,0.7c-1-1.2,0.3-3.803,0.8-5.9c0.897-3.2,4.8-4.7,5.7-8.4c0,0,0.3-2.897-0.5-4.698
				C557.8,550,556.2,541,560.1,540z"/>
			<path fill="#1C1C1C" d="M542.2,532.1c6.5-7.3,21.2-9.6,26.3-8.8c8-5.2,18.7,0,24.1-3.5c7.103-3.2,9.603,2.9,12.5,4.5
				c4.103,2.4,8.803,6.8,7.7,11.103c-1,3.8,2.103,8.697,0.8,10.697c-1.3,1.9,0,6.803-4.197,12.5c0.5,1.803-9.7,14.103-9.7,14.103
				s-4.4,2.5-5.8,1.7c-1.5-0.803,3.3-11.2,0.697-13.2c0,0,4.2-10-1.8-8.603c0,0,2.8-2.697-1.897-2.697c-4.7,0-3.9,7-3.9,7
				s-4-0.803-2.9-8.4c1-7.6-6.197-8.9-7.397-8c-1.103,0.8-4.7,2.4-7.3,0.2c-2.603-2.2-4.103,1.897-6,0.3
				C561.3,539.3,538.3,540.9,542.2,532.1z"/>
			<g>
				<path fill="#3A3A3A" d="M558.7,551.6c-0.5,2.4,0.3,4.603,1,6.9c0.2,0.8,1.5,0.5,1.3-0.3c-0.6-2-1.4-4.103-1-6.2
					C560.2,551.1,558.9,550.8,558.7,551.6L558.7,551.6z"/>
			</g>
			<g>
				<path fill="#3A3A3A" d="M560,553.7c8.5,0.2,17.1,0.397,25.6,0.6c0.803,0,0.803-1.3,0-1.3c-8.5-0.2-17.1-0.4-25.6-0.6
					C559.2,552.4,559.2,553.7,560,553.7L560,553.7z"/>
			</g>
			<polygon fill="#3A3A3A" points="566.3,587.1 567.9,586.9 569.9,587.7 572.3,587.9 575.1,586.7 576.2,586.4 576.3,587.4 
				575.5,589 574.6,588.7 574.2,589.7 573.4,590.7 571.8,590.1 570.4,591.5 568.9,591.5 567.3,590.6 566.4,589.4 565.9,587.5 			"/>
			<g>
				<path fill="#CEC361" d="M497.7,665.3c-1.7-0.5-3.3-1.6-5.2-1.6c-2.3,0-2.8,1.397-4.7,2.3c-2.397,1.2-6.8,0.9-9.7,0.9
					c-2.3,0-4.197-0.9-6.3-1c-2.3-0.2-3.5,0.697-5.6,1.6c-4.3,1.6-8.5,1.4-11.3,5.4c-1.2,1.397-3.303,3.5-4,5.397
					c-0.7,2.3,0.197,4,2.6,2.8c3.5-1.897,4.2-6.397,8.5-7.1c2.4-0.3,6.3-0.7,8.5-0.3c3.1,0.5,7,0.7,10.1,1.397
					c-0.3,2.803-12.897,5.7-3.3,6.803c3.8,0.3,7.3-0.7,10.8-2.303c2.4-1.197,4.7-3.3,7.103-4.197c1.7-0.5,3.8-0.2,5.6-0.5
					c6.802-1.2,3-6.4-0.698-8.9C499.1,665.3,498.6,665.8,497.7,665.3"/>
			</g>
			<polygon fill="#3A3A3A" points="561.9,572 572.2,570.3 579.8,571.5 572,571.6 562.4,573.5 			"/>
			<polygon fill="#3A3A3A" points="560.6,546.8 566.6,548 567.3,550 560.1,548.7 			"/>
			<g>
				<path fill="#005A99" d="M594.8,638.5C581.4,651,572.9,661.7,553.4,661.5c-19.603-0.8-40.103-0.4-60,0.4l0.1,0.3
					c2.4,5.397,5,12.897,3.8,19.2c6.2,0.897,14.103-0.803,20.5-0.4c7.4,0.5,14.9,1,22.2,2.3c6.4,0.603,13.1,1.5,19.4,1.103
					c7-0.5,14.5-2.603,20.699-5.603c7.601-4,18.698-8.1,24-14.897c5.198-6,9.601-22.2,4-28.5C603,629.6,598.7,634.2,594.8,638.5"/>
			</g>
			<g>
				<path fill="#004B83" d="M581.7,748.5c6.6-14,7.6-28.3,8-43.8c0.3-14.7,1.397-30.2,0.7-44.9c-0.7-17.397-4.2-34.7,4.5-50.6
					c4.197-7.5,12.897-7.5,20.5-7.5c7.6,0,12.5,4.1,18.8,7.897c8,4.2,16.7-1.1,19.8,9.4c1.7,6.4,2.1,19.2-1.7,24.5
					c-1.7,2.6-7.7,12.3-11.2,11.5c-4.197-0.8-2.197-4.6-6.697-5.6c-3,16.197-2.303,26.897,1.197,40.897
					c3.103,14.3,4.5,30.8,4.9,45.103c0,5.3,3.4,9.697-3.4,11.197c-7.3,1.303-13.6,1.803-20.197,3
					C606.7,751.6,593.1,755.3,581.7,748.5"/>
			</g>
			<g>
				<path fill="#A9A24F" d="M503.6,681.5c-4.697-0.1-7.3-8.5-12.5-8.8c-5-0.3-9.197,0.1-13.197-3.4c-4.5-4.2-7.103-5-12.7-2.3
					c-1.3,0.6-4.3,1.5-6.3,1.7c-2.803,0.1-7.2-0.8-8.103-3.4c-1-2.397,12-5.6,14.7-7c3.6-2.1,7.5-5.397,11.8-5.6
					c5.603-0.3,6.3,4.3,9.9,7.3c1.2,1,6.1,4.1,10.397,6.8c3.4,2.103,6.4,3.9,6.7,4.3C510.6,678,504.6,681.5,503.6,681.5z"/>
			</g>
			<g>
				<path fill="#004B83" d="M600.9,626.6c-5.2,7.303-5,23.9-9.103,31.9c-2.8,5.9-6.6,20.5-10.397,26.1
					c-2.103,3.103-1.4,2.4-5.2,3.803c-3.8,1.397-9.603-1.9-13-3.303c-9-3.5-21-3.1-29.4-8c-7.6-4.197-17-6.8-25.397-10.3
					c-2.103-0.7-4.9-1.397-7.303-1.7c1.4,4.9,1,27.5-5.897,25c16,4.2,31,13.303,46.897,18.5c8,3.103,15.5,6.2,23.5,9
					c7.303,2.803,11.9,6.603,19.603,4.5c8.7-1.697,9-10.397,12.2-17c4.197-8.697,9-17,13.6-25.397c3.5-7.3,13.9-25.8,14.602-33.8
					C626.2,637.9,600.9,626.6,600.9,626.6z"/>
			</g>
		</g>
		<polygon id="laptop_x5F_screen_x5F_2" fill="#FFFFFF" points="411.4,680.6 387.5,615.8 389.1,615.2 413.1,680.4 		"/>
		<path id="wire_x5F_to_x5F_controller" d="M310,505c-0.2,5.5-1.7,10.5-3.5,15.7c-1.6,4.8-2.8,9.7-4.1,14.6
			c-2.7,10.103-10.8,16.9-13.6,26.8c-0.5,1.9,2.4,2.7,2.9,0.803c1.4-5,4.2-9.103,7.2-13.303c3.1-4.197,4.9-8.5,6.4-13.5
			c1.6-5.397,2.8-10.8,4.6-16.197c1.7-4.9,2.9-9.7,3.1-14.9C313.1,503.1,310.1,503.1,310,505L310,505z"/>
		
			<rect id="laptop_x5F_screen_x5F_1" x="362.592" y="649.127" transform="matrix(0.346 0.9382 -0.9382 0.346 871.1074 51.0455)" width="72.693" height="2.5"/>
		<rect x="295.3" y="469.7" fill="#3A5066" width="26.7" height="35.3"/>
		<g id="mug_x5F_6">
			<g>
				<path fill="#7C3A16" d="M384.7,667.5c4-3.5,8.3-4.3,10.1,1.8c1.3,4.103,1.5,9-1.5,12.3c-1.3,1.4-4.4,3.303-6.4,2.303
					c-4-2.5,0.6-3,2.1-4.2c6-6.3,1.7-12.5-2.9-10.103c-1.3,0-2.6,2.5-2.6-0.8C383.6,667.7,383.6,667.9,384.7,667.5"/>
			</g>
			<g>
				<path fill="#7C3A16" d="M386.4,676.9c0,2.5,1.2,11.397,0,13.3L363,690.1c-1.7-2.3-1.7-4-2.2-6.697c-1.1-6.303-0.8-13-0.6-19.4
					c0.2-4.1,2.6-4.3,6.2-4.5c6.4-0.4,14-0.2,20,2.7V676.9z"/>
			</g>
		</g>
		<path id="wire_x5F_to_x5F_laptop" d="M412.3,687.6c-9,2.2-14.1,10.9-19.2,17.9c-3.6,5-8.1,8.5-14,10.2
			c-5.1,1.397-10.5,1.3-15.7,2.2c-10.7,1.8-20.5,7.3-30.9,10.197c-14.3,4-25.6-1.3-33.7-13.397c-1.1-1.603-3.7-0.103-2.6,1.5
			c6.6,9.8,15.1,16.6,27.4,16.397c11.9-0.197,23-6.6,34-10.1c10.4-3.3,22.1-1.4,31.3-8.1c9.1-6.603,12.5-20.9,24.3-23.803
			C414.9,690,414.1,687.1,412.3,687.6L412.3,687.6z"/>
		<g id="sound_x5F_system">
			<path fill="#565656" d="M332.5,615.8c0,0,18.2,18.5,0,35.5V615.8z"/>
			<rect x="297" y="582.6" fill="#191919" width="26.7" height="24.2"/>
			<rect x="295.3" y="609.9" fill="#191919" width="39" height="80.397"/>
			<g>
				<path d="M344,621.8c1.2,3,2.7,5.9,3,9.2c0.3,3.2-0.7,6.4-1.7,9.4c-0.3,0.897,1.1,1.3,1.4,0.397c1.1-3.3,1.8-6.397,1.8-9.8
					s-1.8-6.5-3-9.6C345.1,620.5,343.7,620.9,344,621.8L344,621.8z"/>
			</g>
			<g>
				<path d="M348.2,618.5c5.8,7,6.4,17.7,1.3,25.2c-0.6,0.8,0.7,1.5,1.3,0.8c5.6-8.1,4.7-19.6-1.5-27
					C348.7,616.7,347.6,617.8,348.2,618.5L348.2,618.5z"/>
			</g>
		</g>
	</g>
	<g id="test">
	</g>
</g>
<g id="Plane_x5F_to_x5F_animate_1_">
	<g id="Plane_x5F_to_x5F_animate_2_">
		<polygon fill="#ED9FB5" points="431.8,526.5 335.8,519.6 351.2,527.3 		"/>
		<polygon fill="#D16586" points="431.8,526.5 352.3,545.7 351.2,527.3 		"/>
		<polygon fill="#BEEF8F" points="431.8,526.5 353,528.2 352.3,545.7 		"/>
		<polygon fill="#ED9FB5" points="431.8,526.5 353,528.2 365.1,538.3 		"/>
	</g>
</g>
<g id="fire_x5F_path">
	<polyline fill="none" stroke="#000000" stroke-miterlimit="10" stroke-opacity="0" points="1434.2,1071.1 1434.2,900.1 
		1434.2,681.1 1434.2,435.1 1434.2,226.6 1434.2,12.1 1434.2,0.2 	"/>
</g>
<g id="test_x5F_fire">
	<g>
		<g id="fire">
			<g>
				<path fill="#7F7F7F" d="M1458.771,2565.199c-2,14.699,11.3,32.699,17.3,45.299c6.699,14,12.699,28.701,18,43.301
					c12,29.301,18.699,58.699,3.3,87.301c-8.7,16-26,23.299-40.7,33.299c-15.3,10.701-29.3,25.301-38,42
					c-6.699,14-12.699,28-13.3,44c-0.7,16.701,7.3,30.701,13.3,46c0,0,8.301,13.701,12,20.801c0,0,47,76.5,23,126.5
					c-10,22-28,41-42,61c-16,21-27,46-36,71c-7,21-9,40-5,63c3,19,11,48.5,17.101,63.799c27.899,69.801,71.5,126.102,80.499,202.602
					c7.5,70.5-22.499,127.5-41.999,190.5c-16.5,54-31.5,114-9,168c24,57,27,120,25.5,181.5c0,0-5.8,82.1-12.9,129.6
					c-7.1,47.5-3.2,103-3.2,103c-16-100,24-192,8-296c-20-112-64-176-12-292c48-108,52-176,4-288c-40-100-104-172-36-280
					c40-60,80-88,52-164c-16-48-64-92-40-148c20-52,88-48,96-112c4-48-36-92-40-140"/>
			</g>
			<g>
				<path fill="#F4850C" d="M1332.271,966.699c-3,59.6,29.299,121.799,38.299,181.4c6,47.699,6,97.699,6,143
					c0,54.799-33,102.5-54,152.5c-21,59.6-18,126.299-21,188.299s33,138.201,69,190.6c39.001,57.201,42.001,109.602,21,174
					c-21,59.602-33,85.801-3,143c21.001,40.5,66.001,112,27.001,154.9l-5.5,4.9c-13.3,11.6-35.3,19.6-41.3,35.5
					c-3.301,8.5-4.701,22.199-2.701,31.199c7.301,31.201,52.701,47.102,65.301,76.301c6.7,14.301,2.7,23.301-2,37.1
					c-2.7,8.5-4,19.6-0.7,27.5c3.301,6.4,6.7,10.1,7.301,16.4l-2-7.4c-8.7-8.5-1.301-31.799,1.3-41.799c4-15.4,12.7-28.102,0.7-43.4
					c-17.301-22.801-54.7-42.9-47.301-73.1c4-14.801,16.7-28.102,32.7-36.5c15.3-8.5,36.5-15.602,44-32.801l3.3-5.801
					c21-37.699-33-144.699-20-208.1c20-97.699,48.7-130.301-2-260.5c-47.6-122.4-20-257.301,28-381.301
					c28-79.398,80-155.699,88-238.299c8-69.9-20-133.4-44-203.301c-28-92.1-24-146.1,12-238.299c24-60.4,22.301-126.3,21-189.601
					l-1.5-26.5c0-100.1-53.5-208.1-27.5-308.199c16-54,26-100.101,4-155.7c-18-42.9-44-87.4-22-133.4c10-20.7,30-31.8,26-57.2
					c-4-23.8-28-38.1-36-60.399c-8-22.301,0-30.2,8-50.8c6-19.101,6-32.2,0.5-51.2l-2.5-11.5c-10-31-37-61.2-19-94.5
					c12-21.4,44-29.4,36-55.601c-7-23-36-41.3-37-63.5c-1-19.1,22.7-36.8,20.7-56.699c-3-38.101-42.7-64.9-42.7-103.801
					c0,0-4,44.5-4,63.5c0,15.9,16,30.2,14,44.5c-2,20.7-26,36.5-30,58.801c-6,28.6-16,30.199-42,50.8c-30,23.8-46,49.2-28,81
					c12,20.7,36,31.8,32,55.6c-2,22.2-22,36.5-16,62c4,19.1,24,33.4,18,52.4c-10,27-56,36.5-68,63.5c-8,22.2,8,44.5,14,65.1
					c6,19.1,8,38.1,4,57.2c-4,20.7-20.2,27.1-8,57.2l3.8,10.7c9.801,28.399,24.301,68.699,24.301,103.699s-14,60.4-24,92.101
					c-26,71.5-42,146.1-18,217.6c46,149.3-18.801,298.6-2,451.199C1330.171,933.799,1332.271,966.699,1332.271,966.699z"/>
			</g>
			<g>
				<path fill="#DD0303" d="M1374.271,1170.398c3.1-35.9,43.5-79.5,57-112.5c16.5-36,31.499-64.5,29.999-103.5
					c-1.499-34.5-17.999-61.5-23.999-93c-6-34.5-1.5-69-3-103.5c0-15,0-27-7.5-40.499c0,0,0.6,14.2-4.5,41.999
					c-3.8,20.701-10.5,37.5-13.5,58.5c-4.5,33,7.5,64.5,19.5,96c15,39,18,70.5,0,111c-21,48-60,91.5-60,145.5
					c0,0-0.601,16.6,4.1,29.801C1377.07,1213.398,1372.371,1192.699,1374.271,1170.398z"/>
			</g>
			<g>
				<g>
					<path d="M1694.37,1114.199c2.602,11.799,1.4,23.9,1.301,35.799c0,1,1.5,1,1.5,0c0.1-12.1,1.199-24.299-1.4-36.199
						C1695.571,1112.898,1694.171,1113.299,1694.37,1114.199L1694.37,1114.199z"/>
				</g>
			</g>
			<g>
				<path fill="#E2520A" d="M1393.07,575.899c-4.6-45.2-1.1-145.3-12.6-186.6c-12.6-49.2-43.6-120-33.3-177
					c9.2-55.101,56.301-55.101,67.7-104.2c11.5-41.3-12.6-86.5-19.5-123.9c-6.9-37.399-16.1-70.8-11.5-112.1
					c4.6-45.2,25.3-80.601,39-118c11.5-33.4,20.7-70.8,20.7-110.101c0-51.1-3.4-74.699,13.8-118l2.3,49.2
					c8,78.7,33.301,131.8,21.801,214.4c-6.9,47.2-19.5,70.8-39,106.2c-19.5,35.399-28.7,61-14.9,104.199
					c17.2,49.2,36.699,72.801,23,135.7c-10.3,53.101-39,90.5-54,141.601c-12.601,43.3-5.7,86.5,1.1,131.8
					c5.7,43.3,0,72.8-3.399,114.1C1394.271,522.999,1392.371,551.699,1393.07,575.899z"/>
			</g>
			<g>
				<path fill="#FFF91A" d="M1487.071,470.899c25-71,15.699-143,11.699-167c-6-28-28-50-36-76c-23.999-68,34-98,58-154
					c28-62,8-122-16-182c-18-42-24-78-24-124c0-26-8-56-6-82c2-30,25.301-67.3,9.301-99.3c0,0-4.6,29.6-9.301,41.3
					c-30.999,77.5-59.999,138-39.999,224c8,36,24,76,25.999,114c4,50-21.999,88-39.999,132c-20,44-20,92,4,138
					c20,44,55.499,83,62.8,137.5C1487.571,373.399,1490.271,404.699,1487.071,470.899z"/>
			</g>
			<g>
				<path fill="#FF981D" d="M1494.771,717.898c10-67.999-35.999-113.999-71.999-167.999c-24-34-58-74-54-118c2-34,26-46,42-72
					c20-34,6-76,12-116c12-68,63.999-122,61.999-194c0,0,0.5-11.8,2.5-16.3c-0.899,6.6-0.5,12.3-0.5,12.3c0,42,10,78-2,120
					c-14,54-4,80,4,134s-47.999,82-45.999,128c2,44,53.7,86.4,63.999,136c10,48,6.701,78.9,0.701,106L1494.771,717.898z"/>
			</g>
			<g>
				<path fill="#FFE652" d="M1361.971,1237.898c6-78-57-126-54-204c3-75,48-138,60-210c9-66-6-125.999-15-188.999
					c-6-63,36.5-73.9,30-165c-9.3-130.9-14.3-181.9-14.3-181.9c34,145.5,79.101,179,52.101,290.101c-15,54-7.8,107.899-13.8,161.898
					c-6,54,15,105,15,162c0,72-48.001,117-54.001,186c-6,54,6,111-3,168"/>
			</g>
			<g>
				<path fill="#F4850C" d="M1426.771-947.4c0,10.7-4,18-5.3,28c-2,12,8.699,17.3,14,27.3c0-4.7,0.699-9.3,0-13.3
					c-1.301-8-0.7-10,0-17.3c1.3-12-5.301-15.3-8-26.7"/>
			</g>
			<g>
				<path fill="#FFE41D" d="M1440.371-838.101c4.7-6.4,11.101-7.3,13.8-13.3c1.301-3.3-2.699-6.7-2-10c1.301-9.3,10-12.7,12.7-21.3
					c6-15.3-6.7-32.7-13.3-46c-4.7,13.3,1.3,28.7-5.3,42c-4,7.3-13.3,12-11.3,22C1437.472-856.101,1442.571-855.5,1440.371-838.101z
					"/>
			</g>
			<g>
				<path fill="#FFE41D" d="M1414.771-825.101c-3,12-17,14-18,28c0,7,2,9,5,15c5,11,7,6,8,18c0,14-3,14,7,27c7,10,14,18,11,31
					c1-7,6-16,4-23c-1-7-9-10-11-16c-3-13,4-9,7-18c6-16-8-17-12-33c-3-8,1-18-2-27"/>
			</g>
			<g>
				<path fill="#E2520A" d="M1461.371,253.999c-2,43.2,9.399,175.4,45.399,275.2c24,78.4,36,149.7,12,228.1
					c-24,74.9-56,139-52,217.4s28,149.699,28,228.1c0,156.801-77.6,183.699-87.999,313.699c-8,99.801,10.7,74.9,3,194.5
					c-8.101-107.299-43-166-27-251.5c16-103.398,59-279.898,51-390.398c-8-67.701-32.5-121.102-28.5-192.4
					c4-78.4,9.5-115.9,37.5-187.2c59.999-142.6,8-263,8-405.6c0,0,4.3-53,15.999-73.5
					C1466.771,210.6,1461.271,244.8,1461.371,253.999z"/>
			</g>
			<g>
				<path fill="#FFE41D" d="M1408.771,1749.898c2-68-70-124-84-188c-10-52,6-98,36-140c36-54,80-102,105.999-162c32-74,22-150,0-226
					c-17.999-60-39.999-116-15.999-178c17.999-44,55.999-98,33.999-147.999c31,39.499,12,101.999,12,101.999c-4,26-18,48-20,74
					c-6,32,8,56,20,86c28,64,44,120,36,192c-12,120-58,192-131.999,286c-34,46-40,96-24,152c12,40,40,82,34,126
					C1410.771,1725.898,1410.071,1735.398,1408.771,1749.898z"/>
			</g>
			<g>
				<path fill="#E2520A" d="M1430.571,2298.998c60-42,21-129,9-180c-18-69,21-111,33-174c15-75-21-132-48-198
					c-30.001-72-21-135,15-204c24-51,36-93,18-150c-15-45-42-81-45-129l18,126c6,147-138.001,246-90.001,405
					c24,84,108.001,129,75.001,222c-9,33-24.001,54-18,90c6,45,43.7,83,48,132
					C1445.571,2238.998,1446.871,2266.998,1430.571,2298.998z"/>
			</g>
		</g>
	</g>
</g>
<g id="plane_x5F_path_x5F_indoor_x28_start_x29_">
	<polyline fill="none" stroke="#000000" stroke-miterlimit="10" stroke-opacity="0" points="431.8,526.5 643.5,483.5 779,483.5 
		960.1,566.8 1455,566.8 	"/>
</g>
<g id="plane_x5F_path_x5F_indoor_x5F_2">
	<line fill="none" stroke="#000000" stroke-miterlimit="10" stroke-opacity="0" x1="1455" y1="566.8" x2="1918.6" y2="566.8"/>
</g>
<g id="sky_x5F_patch">
	<rect x="1266.6" fill="#CCD9ED" width="335.2" height="256.9"/>
</g>
<g id="wall_x5F_fill">
	<path id="wall_x5F_fill_x5F_4" fill="#E5E5B5" d="M0,257l0.1,704H1920V257H0z M652.7,760.6h-365V426.7h365V760.6z M1616.7,760.6
		h-365V426.7h365V760.6z"/>
</g>
<g id="wall_x5F_frames">
	<rect x="637.8" y="256.9" fill="#CCD9ED" width="38.103" height="525.3"/>
	<rect x="264.5" y="257" fill="#CCD9ED" width="38.1" height="704"/>
	<rect x="1601.8" y="257" fill="#CCD9ED" width="38.101" height="525.1"/>
	<rect x="1228.5" y="256.9" fill="#CCD9ED" width="38.1" height="704.1"/>
	<polygon fill="#CCD9ED" points="1920,444.1 0.1,444.1 0,406 1920,406 	"/>
	<rect y="744" fill="#CCD9ED" width="1920" height="38.1"/>
</g>
<g id="ground_x5F_roof">
	<rect id="ground_x5F_fill_4_" y="941" fill="#353229" width="1920.1" height="139"/>
	<polygon id="roof_x5F_4" fill="#353229" points="1920.1,257 0.1,257 0,137.8 1920.1,137.8 	"/>
</g>
</svg>
