<?xml version="1.0" encoding="utf-8"?>
<!-- Generator: Adobe Illustrator 16.0.0, SVG Export Plug-In . SVG Version: 6.00 Build 0)  -->
<!DOCTYPE svg PUBLIC "-//W3C//DTD SVG 1.1//EN" "http://www.w3.org/Graphics/SVG/1.1/DTD/svg11.dtd">
<svg version="1.1" id="test_x5F_fire" xmlns="http://www.w3.org/2000/svg" xmlns:xlink="http://www.w3.org/1999/xlink" x="0px"
	 y="0px" width="350px" height="5340px" viewBox="0 0 350 5340" enable-background="new 0 0 350 5340" xml:space="preserve">
<g id="fire">
	<g>
		<path fill="#7F7F7F" d="M200,3541.3c-2,14.7,11.3,32.7,17.3,45.3c6.7,14,12.7,28.7,18,43.3c12,29.3,18.7,58.7,3.3,87.3
			c-8.7,16-26,23.3-40.7,33.3c-15.3,10.7-29.3,25.3-38,42c-6.7,14-12.7,28-13.3,44c-0.7,16.7,7.3,30.7,13.3,46c0,0,8.3,13.7,12,20.8
			c0,0,47,76.5,23,126.5c-10,22-28,41-42,61c-16,21-27,46-36,71c-7,21-9,40-5,63c3,19,11,48.5,17.1,63.8
			c27.9,69.8,71.5,126.1,80.5,202.6c7.5,70.5-22.5,127.5-42,190.5c-16.5,54-31.5,114-9,168c24,57,27,120,25.5,181.5
			c0,0-5.8,82.1-12.9,129.6c-7.1,47.5-3.2,103-3.2,103c-16-100,24-192,8-296c-20-112-64-176-12-292c48-108,52-176,4-288
			c-40-100-104-172-36-280c40-60,80-88,52-164c-16-48-64-92-40-148c20-52,88-48,96-112c4-48-36-92-40-140"/>
	</g>
	<g>
		<path fill="#F4850C" d="M73.5,1942.8c-3,59.6,29.3,121.8,38.3,181.4c6,47.7,6,97.7,6,143c0,54.8-33,102.5-54,152.5
			c-21,59.6-18,126.3-21,188.3c-3,62,33,138.2,69,190.6c39,57.2,42,109.6,21,174c-21,59.6-33,85.8-3,143c21,40.5,66,112,27,154.9
			l-5.5,4.9c-13.3,11.6-35.3,19.6-41.3,35.5c-3.3,8.5-4.7,22.2-2.7,31.2c7.3,31.2,52.7,47.1,65.3,76.3c6.7,14.3,2.7,23.3-2,37.1
			c-2.7,8.5-4,19.6-0.7,27.5c3.3,6.4,6.7,10.1,7.3,16.4l-2-7.4c-8.7-8.5-1.3-31.8,1.3-41.8c4-15.4,12.7-28.1,0.7-43.4
			c-17.3-22.8-54.7-42.9-47.3-73.1c4-14.8,16.7-28.1,32.7-36.5c15.3-8.5,36.5-15.6,44-32.8l3.3-5.8c21-37.7-33-144.7-20-208.1
			c20-97.7,48.7-130.3-2-260.5c-47.6-122.4-20-257.3,28-381.3c28-79.4,80-155.7,88-238.3c8-69.9-20-133.4-44-203.3
			c-28-92.1-24-146.1,12-238.3c24-60.4,22.3-126.3,21-189.6l-1.5-26.5c0-100.1-53.5-208.1-27.5-308.2c16-54,26-100.1,4-155.7
			c-18-42.9-44-87.4-22-133.4c10-20.7,30-31.8,26-57.2c-4-23.8-28-38.1-36-60.4s0-30.2,8-50.8c6-19.1,6-32.2,0.5-51.2l-2.5-11.5
			c-10-31-37-61.2-19-94.5c12-21.4,44-29.4,36-55.6c-7-23-36-41.3-37-63.5c-1-19.1,22.7-36.8,20.7-56.7
			c-3-38.1-42.7-64.9-42.7-103.8c0,0-4,44.5-4,63.5c0,15.9,16,30.2,14,44.5c-2,20.7-26,36.5-30,58.8c-6,28.6-16,30.2-42,50.8
			c-30,23.8-46,49.2-28,81c12,20.7,36,31.8,32,55.6c-2,22.2-22,36.5-16,62c4,19.1,24,33.4,18,52.4c-10,27-56,36.5-68,63.5
			c-8,22.2,8,44.5,14,65.1c6,19.1,8,38.1,4,57.2c-4,20.7-20.2,27.1-8,57.2l3.8,10.7c9.8,28.4,24.3,68.7,24.3,103.7s-14,60.4-24,92.1
			c-26,71.5-42,146.1-18,217.6c46,149.3-18.8,298.6-2,451.2C71.4,1909.9,73.5,1942.8,73.5,1942.8z"/>
	</g>
	<g>
		<path fill="#DD0303" d="M115.5,2146.5c3.1-35.9,43.5-79.5,57-112.5c16.5-36,31.5-64.5,30-103.5c-1.5-34.5-18-61.5-24-93
			c-6-34.5-1.5-69-3-103.5c0-15,0-27-7.5-40.5c0,0,0.6,14.2-4.5,42c-3.8,20.7-10.5,37.5-13.5,58.5c-4.5,33,7.5,64.5,19.5,96
			c15,39,18,70.5,0,111c-21,48-60,91.5-60,145.5c0,0-0.6,16.6,4.1,29.8S113.6,2168.8,115.5,2146.5z"/>
	</g>
	<g>
		<g>
			<path d="M435.6,2090.3c2.6,11.8,1.4,23.9,1.3,35.8c0,1,1.5,1,1.5,0c0.1-12.1,1.2-24.3-1.4-36.2
				C436.8,2089,435.4,2089.4,435.6,2090.3L435.6,2090.3z"/>
		</g>
	</g>
	<g>
		<path fill="#E2520A" d="M134.3,1552c-4.6-45.2-1.1-145.3-12.6-186.6c-12.6-49.2-43.6-120-33.3-177c9.2-55.1,56.3-55.1,67.7-104.2
			c11.5-41.3-12.6-86.5-19.5-123.9s-16.1-70.8-11.5-112.1c4.6-45.2,25.3-80.6,39-118c11.5-33.4,20.7-70.8,20.7-110.1
			c0-51.1-3.4-74.7,13.8-118l2.3,49.2c8,78.7,33.3,131.8,21.8,214.4c-6.9,47.2-19.5,70.8-39,106.2s-28.7,61-14.9,104.2
			c17.2,49.2,36.7,72.8,23,135.7c-10.3,53.1-39,90.5-54,141.6c-12.6,43.3-5.7,86.5,1.1,131.8c5.7,43.3,0,72.8-3.4,114.1
			C135.5,1499.1,133.6,1527.8,134.3,1552z"/>
	</g>
	<g>
		<path fill="#FFF91A" d="M228.3,1447c25-71,15.7-143,11.7-167c-6-28-28-50-36-76c-24-68,34-98,58-154c28-62,8-122-16-182
			c-18-42-24-78-24-124c0-26-8-56-6-82c2-30,25.3-67.3,9.3-99.3c0,0-4.6,29.6-9.3,41.3c-31,77.5-60,138-40,224c8,36,24,76,26,114
			c4,50-22,88-40,132c-20,44-20,92,4,138c20,44,55.5,83,62.8,137.5C228.8,1349.5,231.5,1380.8,228.3,1447z"/>
	</g>
	<g>
		<path fill="#FF981D" d="M236,1694c10-68-36-114-72-168c-24-34-58-74-54-118c2-34,26-46,42-72c20-34,6-76,12-116
			c12-68,64-122,62-194c0,0,0.5-11.8,2.5-16.3c-0.9,6.6-0.5,12.3-0.5,12.3c0,42,10,78-2,120c-14,54-4,80,4,134s-48,82-46,128
			c2,44,53.7,86.4,64,136c10,48,6.7,78.9,0.7,106L236,1694z"/>
	</g>
	<g>
		<path fill="#FFE652" d="M103.2,2214c6-78-57-126-54-204c3-75,48-138,60-210c9-66-6-126-15-189c-6-63,36.5-73.9,30-165
			c-9.3-130.9-14.3-181.9-14.3-181.9c34,145.5,79.1,179,52.1,290.1c-15,54-7.8,107.9-13.8,161.9c-6,54,15,105,15,162
			c0,72-48,117-54,186c-6,54,6,111-3,168"/>
	</g>
	<g>
		<path fill="#F4850C" d="M168,28.7c0,10.7-4,18-5.3,28c-2,12,8.7,17.3,14,27.3c0-4.7,0.7-9.3,0-13.3c-1.3-8-0.7-10,0-17.3
			c1.3-12-5.3-15.3-8-26.7"/>
	</g>
	<g>
		<path fill="#FFE41D" d="M181.6,138c4.7-6.4,11.1-7.3,13.8-13.3c1.3-3.3-2.7-6.7-2-10c1.3-9.3,10-12.7,12.7-21.3
			c6-15.3-6.7-32.7-13.3-46c-4.7,13.3,1.3,28.7-5.3,42c-4,7.3-13.3,12-11.3,22C178.7,120,183.8,120.6,181.6,138z"/>
	</g>
	<g>
		<path fill="#FFE41D" d="M156,151c-3,12-17,14-18,28c0,7,2,9,5,15c5,11,7,6,8,18c0,14-3,14,7,27c7,10,14,18,11,31c1-7,6-16,4-23
			c-1-7-9-10-11-16c-3-13,4-9,7-18c6-16-8-17-12-33c-3-8,1-18-2-27"/>
	</g>
	<g>
		<path fill="#E2520A" d="M202.6,1230.1c-2,43.2,9.4,175.4,45.4,275.2c24,78.4,36,149.7,12,228.1c-24,74.9-56,139-52,217.4
			c4,78.4,28,149.7,28,228.1c0,156.8-77.6,183.7-88,313.7c-8,99.8,10.7,74.9,3,194.5c-8.1-107.3-43-166-27-251.5
			c16-103.4,59-279.9,51-390.4c-8-67.7-32.5-121.1-28.5-192.4c4-78.4,9.5-115.9,37.5-187.2c60-142.6,8-263,8-405.6
			c0,0,4.3-53,16-73.5C208,1186.7,202.5,1220.9,202.6,1230.1z"/>
	</g>
	<g>
		<path fill="#FFE41D" d="M150,2726c2-68-70-124-84-188c-10-52,6-98,36-140c36-54,80-102,106-162c32-74,22-150,0-226
			c-18-60-40-116-16-178c18-44,56-98,34-148c31,39.5,12,102,12,102c-4,26-18,48-20,74c-6,32,8,56,20,86c28,64,44,120,36,192
			c-12,120-58,192-132,286c-34,46-40,96-24,152c12,40,40,82,34,126C152,2702,151.3,2711.5,150,2726z"/>
	</g>
	<g>
		<path fill="#E2520A" d="M171.8,3275.1c60-42,21-129,9-180c-18-69,21-111,33-174c15-75-21-132-48-198c-30-72-21-135,15-204
			c24-51,36-93,18-150c-15-45-42-81-45-129l18,126c6,147-138,246-90,405c24,84,108,129,75,222c-9,33-24,54-18,90
			c6,45,43.7,83,48,132C186.8,3215.1,188.1,3243.1,171.8,3275.1z"/>
	</g>
</g>
</svg>
