<?xml version="1.0" encoding="utf-8"?>
<!-- Generator: Adobe Illustrator 16.0.0, SVG Export Plug-In . SVG Version: 6.00 Build 0)  -->
<!DOCTYPE svg PUBLIC "-//W3C//DTD SVG 1.1//EN" "http://www.w3.org/Graphics/SVG/1.1/DTD/svg11.dtd">
<svg version="1.1" id="CTA" xmlns="http://www.w3.org/2000/svg" xmlns:xlink="http://www.w3.org/1999/xlink" x="0px" y="0px" viewBox="0 0 268 160" enable-background="new 0 0 268 160" xml:space="preserve" preserveAspectratio="none">
<rect id="rope_x5F_L_1_" x="49.1" y="22.3" fill="#997825" width="2" height="104.2"/>
<rect id="rope_x5F_R_1_" x="216.9" y="22.3" fill="#997825" width="2" height="104.2"/>
<rect id="board_1_" x="24" y="79.7" fill="#F7E74D" width="220" height="58"/>
<path id="shadow_2_" fill="#F2C446" d="M93.5,100l14,0l2.7,3l0-3l5.8,0c0,0,3.1,0,4.8,1.9l8.3,8.3l-6.2-10.2l2.4,0l6.6,6.6l4-6.6
	l2.5-0.1l7.5,8.4v-8.4h2.4l9.4,9.7v-9.7h2.4l3.6,4.2c0,0,0.7-4.3,5.1-4.4c0,0,2.4-0.2,4.4,1.1s37.3,36.8,37.3,36.8l-91.4,0
	l-19.9-19.8v-10.5l-5.8-5.4L93.5,100z"/>
<g id="text_1_">
	<path fill="#9F0018" d="M107.5,102h-5.8v15.9h-2.4V102h-5.8v-2h14V102z"/>
	<path fill="#9F0018" d="M123.4,117.8h-2.1c-0.4,0-0.8-0.2-1-0.5l-4.6-6.4c-0.1-0.2-0.3-0.3-0.5-0.4c-0.2-0.1-0.4-0.1-0.8-0.1h-1.8
		v7.5h-2.4V99.9h5.1c1.1,0,2.1,0.1,2.9,0.3c0.8,0.2,1.5,0.6,2,1c0.5,0.4,0.9,1,1.2,1.6c0.3,0.6,0.4,1.3,0.4,2.1
		c0,0.6-0.1,1.2-0.3,1.8c-0.2,0.5-0.5,1-0.9,1.5s-0.8,0.8-1.4,1.1c-0.5,0.3-1.2,0.5-1.9,0.7c0.3,0.2,0.6,0.4,0.8,0.8L123.4,117.8z
		 M115.1,108.6c0.7,0,1.3-0.1,1.9-0.3c0.5-0.2,1-0.4,1.4-0.7s0.6-0.7,0.8-1.1s0.3-0.9,0.3-1.4c0-1.1-0.4-1.9-1.1-2.4
		c-0.7-0.5-1.8-0.8-3.1-0.8h-2.7v6.8H115.1z"/>
	<path fill="#9F0018" d="M131.9,110.7v7.1h-2.4v-7.1l-6.6-10.8h2.1c0.2,0,0.4,0.1,0.5,0.2c0.1,0.1,0.2,0.2,0.3,0.4l4.1,7
		c0.2,0.3,0.3,0.6,0.4,0.8c0.1,0.3,0.2,0.5,0.3,0.8c0.1-0.3,0.2-0.5,0.3-0.8c0.1-0.3,0.2-0.5,0.4-0.8l4.1-7c0.1-0.1,0.2-0.3,0.3-0.4
		c0.1-0.1,0.3-0.2,0.5-0.2h2.1L131.9,110.7z"/>
	<path fill="#9F0018" d="M153.1,115.9c0.7,0,1.4-0.1,2-0.4c0.6-0.3,1.1-0.6,1.5-1.1c0.4-0.4,0.7-1,0.9-1.6s0.3-1.3,0.3-2.1V99.9h2.4
		v10.9c0,1-0.2,2-0.5,2.9c-0.3,0.9-0.8,1.6-1.4,2.3c-0.6,0.6-1.4,1.2-2.2,1.5c-0.9,0.4-1.9,0.5-3,0.5c-1.1,0-2.1-0.2-3-0.5
		c-0.9-0.4-1.6-0.9-2.3-1.5c-0.6-0.6-1.1-1.4-1.4-2.3s-0.5-1.8-0.5-2.9V99.9h2.4v10.9c0,0.8,0.1,1.4,0.3,2.1
		c0.2,0.6,0.5,1.2,0.9,1.6c0.4,0.4,0.9,0.8,1.5,1.1C151.7,115.8,152.3,115.9,153.1,115.9z"/>
	<path fill="#9F0018" d="M173.7,102.7c-0.1,0.1-0.2,0.2-0.2,0.3c-0.1,0.1-0.2,0.1-0.3,0.1c-0.1,0-0.3-0.1-0.5-0.2
		c-0.2-0.1-0.4-0.3-0.7-0.5c-0.3-0.2-0.6-0.3-1-0.5c-0.4-0.1-0.9-0.2-1.5-0.2c-0.5,0-1,0.1-1.4,0.2c-0.4,0.1-0.8,0.3-1,0.6
		c-0.3,0.3-0.5,0.5-0.6,0.9c-0.1,0.3-0.2,0.7-0.2,1.1c0,0.5,0.1,0.9,0.4,1.2c0.2,0.3,0.6,0.6,1,0.8c0.4,0.2,0.9,0.4,1.4,0.6
		c0.5,0.2,1,0.3,1.6,0.5c0.5,0.2,1.1,0.4,1.6,0.6c0.5,0.2,1,0.5,1.4,0.9c0.4,0.4,0.7,0.8,1,1.3c0.2,0.5,0.4,1.1,0.4,1.9
		c0,0.8-0.1,1.5-0.4,2.2c-0.3,0.7-0.7,1.3-1.2,1.8c-0.5,0.5-1.1,0.9-1.9,1.2c-0.7,0.3-1.6,0.4-2.5,0.4c-1.2,0-2.2-0.2-3.2-0.6
		s-1.8-1-2.4-1.7l0.7-1.1c0.1-0.1,0.1-0.2,0.2-0.2c0.1-0.1,0.2-0.1,0.3-0.1c0.1,0,0.2,0,0.4,0.1c0.1,0.1,0.3,0.2,0.5,0.3
		s0.4,0.3,0.6,0.4c0.2,0.2,0.5,0.3,0.8,0.4c0.3,0.1,0.6,0.2,1,0.3s0.8,0.1,1.2,0.1c0.6,0,1.1-0.1,1.5-0.2s0.8-0.4,1.1-0.7
		s0.6-0.6,0.7-1c0.2-0.4,0.3-0.8,0.3-1.3c0-0.5-0.1-1-0.4-1.3c-0.2-0.3-0.6-0.6-1-0.9c-0.4-0.2-0.9-0.4-1.4-0.6
		c-0.5-0.2-1-0.3-1.6-0.5c-0.5-0.2-1.1-0.4-1.6-0.6c-0.5-0.2-1-0.5-1.4-0.9c-0.4-0.4-0.7-0.8-1-1.3c-0.2-0.5-0.4-1.2-0.4-2
		c0-0.6,0.1-1.2,0.4-1.8c0.2-0.6,0.6-1.1,1.1-1.6c0.5-0.5,1.1-0.8,1.7-1.1c0.7-0.3,1.5-0.4,2.4-0.4c1,0,1.9,0.2,2.7,0.5
		c0.8,0.3,1.5,0.8,2.2,1.4L173.7,102.7z"/>
</g>
</svg>
