<?xml version="1.0" encoding="utf-8"?>
<!-- Generator: Adobe Illustrator 16.0.0, SVG Export Plug-In . SVG Version: 6.00 Build 0)  -->
<!DOCTYPE svg PUBLIC "-//W3C//DTD SVG 1.1//EN" "http://www.w3.org/Graphics/SVG/1.1/DTD/svg11.dtd">
<svg version="1.1" id="fb" xmlns="http://www.w3.org/2000/svg" xmlns:xlink="http://www.w3.org/1999/xlink" x="0px" y="0px"
	  viewBox="0 -48.167 100 202" enable-background="new 0 -48.167 100 202" xml:space="preserve" preserveAspectRatio="none">
	<path d="M63,144c0-27.3,0-54,0-82c9,0,17.6,0,26.7,0c1.399-10,2.7-21,4.1-31c-10.6,0-20.899,0-31.3,0c0-9-0.3-16.5,0.1-24.5
		c0.301-6.9,4-10.7,10.9-11.3C79.6-5.3,85.9-5,92.2-5C93-5,94-5,95-5c0-10,0-19.6,0-29.2c-13-0.6-25.1-2.5-37.4,0.6
		C44.9-30.5,36.2-22.6,32-10.1c-1.3,3.8-1.9,7.8-2,11.8c-0.4,8.7,0,17.3,0,26c0,0.8,0,2.3,0,3.3c-11,0-19,0-28,0c0,10,0,21,0,31
		c9,0,18,0,28,0c0,28,0,55.3,0,82H63z"/>
</svg>
