<?xml version="1.0" encoding="utf-8"?>
<!-- Generator: Adobe Illustrator 16.0.0, SVG Export Plug-In . SVG Version: 6.00 Build 0)  -->
<!DOCTYPE svg PUBLIC "-//W3C//DTD SVG 1.1//EN" "http://www.w3.org/Graphics/SVG/1.1/DTD/svg11.dtd">
<svg version="1.1" id="google_x2B_" xmlns="http://www.w3.org/2000/svg" xmlns:xlink="http://www.w3.org/1999/xlink" x="0px"
	 y="0px" viewBox="0 0 300 300" enable-background="new 0 0 300 300" xml:space="preserve">
<path d="M143.9,64.9c50.8,0.4,90,40.7,90.1,90c0.1,49.7-39.2,89.3-88.3,90C94,245.7,54,204.9,54,155
	C54.1,105.2,93.6,65.5,143.9,64.9z M148,123.7c-0.5-0.5-0.9-0.9-1.3-1.2c-23.4-19.7-58.5-7.6-66.6,19.4c-2.6,8.6-3.2,17.3-0.2,25.6
	c7.7,21.6,27,31.3,46.1,28.9c26.4-3.3,37.2-27.1,33.5-47.4c-13.1,0-26.3,0-39.3,0c0,4.8,0,9.4,0,14.2c7.9,0,15.6,0,23.3,0
	c-1,8.7-8.7,15.9-18.4,17.7c-11.6,2.1-22.9-3.6-28.2-14.1c-5.3-10.5-3.1-23.2,5.4-31.4c4.8-4.6,10.5-6.7,17-7
	c6.6-0.3,12.5,1.9,17.6,6.3C140.7,131,144.3,127.4,148,123.7z M197.9,160.7c4.2,0,8,0,11.8,0c0-4.1,0-7.9,0-12.1c-4,0-7.7,0-11.7,0
	c0-4,0-7.6,0-11.2c-4.1,0-8,0-12.2,0c0,3.8,0,7.4,0,11.3c-4,0-7.8,0-11.7,0c0,4.2,0,7.9,0,12.1c3.9,0,7.7,0,11.9,0
	c0,4.1,0,7.9,0,11.7c4.1,0,7.9,0,11.9,0C197.9,168.7,197.9,165,197.9,160.7z"/>
</svg>
