<?xml version="1.0" encoding="utf-8"?>
<!-- Generator: Adobe Illustrator 16.0.0, SVG Export Plug-In . SVG Version: 6.00 Build 0)  -->
<!DOCTYPE svg PUBLIC "-//W3C//DTD SVG 1.1//EN" "http://www.w3.org/Graphics/SVG/1.1/DTD/svg11.dtd">
<svg version="1.1" id="instagram" xmlns="http://www.w3.org/2000/svg" xmlns:xlink="http://www.w3.org/1999/xlink" x="0px" y="0px" viewBox="0 0 500 500" enable-background="new 0 0 500 500" xml:space="preserve" preserveAspectRatio="none">
<path d="M287.1,200.4c7.2,8.5,11.6,19.5,11.6,31.5c0,26.8-21.8,48.6-48.6,48.6s-48.6-21.8-48.6-48.6c0-12.1,4.4-23.2,11.7-31.7
	l-6.6,0c-1.5,2.3-4.1,3.8-7,3.8h-23.3c-3,0-5.6-1.6-7.1-3.9l-10.3,0v81.7c0,0,0,37.3,37.3,40.3c37.3,3,106.2,0,106.2,0
	s37.5-2.3,37.5-40c0-35.7,0.5-81.6,0.5-81.6L287.1,200.4z"/>
<path d="M208,195.4L208,195.4l10,0.1c8.6-7.6,19.8-12.2,32.2-12.2c12.4,0,23.7,4.7,32.3,12.3l58,0.1c-0.9-27.5-4-51.7-43.5-53.7h-90
	c0,0-48.2-3.6-48,53.3l9,0c0-4.6,3.8-8.3,8.4-8.3h23.3C204.3,187,208,190.8,208,195.4z M307.4,161.1c6.6,0,12,5.5,12,12.4
	c0,6.8-5.4,12.4-12,12.4c-6.6,0-12-5.5-12-12.4C295.4,166.7,300.8,161.1,307.4,161.1z"/>
<path d="M273.3,221.6c-1.1,1-2.6,1.6-4.2,1.6c-3.5,0-6.3-2.8-6.3-6.3c0-2.1,1.1-4,2.7-5.2c-4.3-3.3-9.6-5.2-15.4-5.2
	c-14,0-25.4,11.4-25.4,25.4s11.4,25.4,25.4,25.4s25.4-11.4,25.4-25.4C275.5,228.2,274.7,224.7,273.3,221.6z M250.1,235.5
	c-2,0-3.6-1.6-3.6-3.6s1.6-3.6,3.6-3.6s3.6,1.6,3.6,3.6S252.1,235.5,250.1,235.5z"/>
</svg>
