<?xml version="1.0" encoding="utf-8"?>
<!-- Generator: Adobe Illustrator 16.0.0, SVG Export Plug-In . SVG Version: 6.00 Build 0)  -->
<!DOCTYPE svg PUBLIC "-//W3C//DTD SVG 1.1//EN" "http://www.w3.org/Graphics/SVG/1.1/DTD/svg11.dtd">
<svg version="1.1" xmlns="http://www.w3.org/2000/svg" xmlns:xlink="http://www.w3.org/1999/xlink" x="0px" y="0px" viewBox="0 0 1068 1198.9" enable-background="new 0 0 1068 1198.9" xml:space="preserve" preserveAspectRatio="none">
		<g id="triangle_x5F_equilateral">
			<polygon id="triangle_x5F_main" fill="#8EBCB8" points="254,722 535,235.3 816,722 	"/>
			<path id="triangle_x5F_3" fill="#A9D9D5" d="M380.1,528.7c1.1,2.4,1.4,7.3,1.4,12.3h0.4c0,0,0,0.4,0,0.4
				c14-37.6,26.4-19.1,41.4-30.9c3.7-3,8.7-0.8,9.3,11.8c-2.5,4.5-0.7,15-2.7,21.2c5.3-10.9,0.5-46.3,8.2-41.2l-1,44.5
				c3-47,9.4,8.2,14.8-19.3c2,17.8-1.7,28.1-5.9,29.4c4.8,7.8,167.9,109.7,172.7,121.2c1.2-29.9,9.1-37.8,15.3-41.5
				c30.1,18.5,62.5-9.7,90.6-44c1.9-0.6,4.2-8,6.7-17.3l-70.6-122.3c-0.6,20.5-229.6-36.1-230-37.1l-87,150.5
				C358.8,575.9,365.3,529.6,380.1,528.7z"/>
			<path id="triangle_x5F_2" fill="#B9E4E0" d="M584.5,320.9c-1.6,1.1-107.4,14.7-107.4,14.7l-65.6,113.6c0.4,0.1,0.8,0.3,1.1,0.7
				l-11.3,17.6c4.3-1.2,8.4-2.1,10.9-1.4c1.2,0.4,2.1,1.1,2.3,2.5c0.1,1.3-0.5,3.1-1.7,5.7c-1.2,0.9-2.4,2-3.7,3.3
				c-1.4,1.2-2.9,2.7-4.4,4.3c-2.9,3.2-5.9,6.9-8.9,10.5c0.7,0.4,1.5,0.7,2.2,1c0.7,0.2,1.5,0.4,1.9,0.4c1,0,2.1-0.2,3.1-0.6
				c2.1-0.9,4.4-2.7,6.7-5.1c4.6-4.8,9.4-12.2,14.3-19.6c9.7-15,19.6-30.6,27-29l-6.9,11.6c0,0,2.7-2.8,5.4-5.6
				c2.7-2.8,5.3-5.6,5.3-5.6s-1.1,4-2.3,8.1c-1.1,4-2.2,8.1-2.2,8.1c6.9-9.6,11.3-13.7,14.6-14.8c3.3-1.1,5.4,0.7,7.3,3.3
				c1.9,2.5,3.7,5.7,6.2,7.1c2.5,1.4,6,0.8,10.8-4c2.6-1.2,2.2,4.6,2.3,10.7c0.1,3,0.3,6.1,1,8.4c0.4,1.1,0.8,2.1,1.5,2.7
				c0.7,0.6,1.5,0.9,2.6,0.8l7.4-18.9c-1.2,10.2,2.5,19.7,5.7,32.4c3.3,12.6,6.5,28.2,3.1,51.1c11.3-13.5,0.5-4.2,5.4-19.3
				c4.7-4.4,7.6-5.8,9.5-5.2c1.9,0.5,2.8,3,3.2,6.5c0.9,6.9,0.1,17.7,2.3,24c5.4-4.2,4.2-6.3,2.8-9c-1.5-2.8-3.1-6.2,0.9-13.2
				c4.3,8.3,8.4,2.7,12.5-3.1c1-1.5,2.1-2.9,3.2-4.2c1.1-1.3,2.3-2.4,3.4-3c1.2-0.7,2.4-0.9,3.8-0.6c1.4,0.4,2.6,1.3,4.7,3.2
				c-0.1,5.6-1.6,7.4-3.6,8.6c-1.7,1.3-3.6,2.1-5.2,5.6c0.9-1.2,1.9-2.2,2.8-3.1c1-0.9,1.8-1.7,3-2.4c2.3-1.4,4.6-2.3,7-2.9
				c2.4-0.6,4.8-0.9,7.3-1c1.2,0,2.5,0,3.7,0c0.6,0,1.3,0.1,1.9,0.1c0.6,0,1.2,0,1.8,0.1c4.8,0.2,9.9,1,14.9,1.3
				c5,0.4,10.1,0.5,14.5-0.6c1.2,0.8,2.5,1.6,3.8,2.5c1.3,0.8,2.6,1.6,3.9,2.3c2.6,1.5,5.4,2.8,8.3,4.1c5.8,2.6,11.8,4.8,18.1,7.2
				c12.5,4.5,25.7,9.3,38.6,16.7l-1-7.1c6.4,8.6,11.3,8.2,16.1,6.6c4.4-1.5,8.6-4.1,14.2-2.1L584.5,320.9z"/>
			<path id="triangle_x5F_1" fill="#D9E6E4" d="M535,235.3l-77.4,134.1c0,0,0.1,0.1,0.1,0.1c-0.6,2-1.3,4-2,5.9
				c-0.6,1.9-1.2,3.9-1.7,5.9c-0.5,2-0.9,4-1.1,6.1c-0.2,2.1-0.2,4.3,0.1,6.6c1.2,9.1,6.9,20,23.2,34c-0.2-1.8,1.5-2.7,3.8-3.4
				c2.3-0.7,5.2-1.1,7.4-2c4.3-1.7,5.7-4.9-5.1-16.9c5.8,2.9,5.5,1,5.7-0.5c0.2-1.5,0.8-2.5,8.1,3c2.8-0.4,3.5-2,3.2-4.5
				c-0.4-2.5-1.7-5.9-3.2-9.6c-1.5-3.7-3.1-7.7-3.8-11.2c-0.7-3.6-0.7-6.8,1-8.7c0.1,0,0.2,0.1,0.2,0.1c0,0.2,0,0.3,0,0.3
				s0.3,0.1,0.8,0.3c1.4,1,3.1,2.9,5,5.1c0,0,0,0,0,0c-0.5-1.3-0.9-2.6-1.2-3.8c1.5,0.6,2.8,1.1,2.8,1.1c2.1,3.6,1.7,4.9,2,6.9
				c0.3,1.9,1.5,4.5,7,10.4c-2.7-4.3-3.7-7.1-3.8-9.4c-0.1-1.1,0-2.1,0.2-3c0.2-0.9,0.5-1.7,0.8-2.5c1.2-3.3,2-6.7-2.6-18.2
				c-2-1-2.9,0.1-3.5,1.5c-0.7,1.3-1.2,3-2.6,3.4c-0.6-0.5-1.3-1-1.9-1.5c0,0,0-0.1,0-0.1c0.3-3.8,1.6-6.4,3.1-8.6
				c1.6-2.2,3.7-3.9,5.5-6c0.5-0.5,0.9-1.1,1.4-1.6c0.6-0.7,1.2-1.4,1.8-2.2c1.2-1.6,2.3-3.3,3.4-5.4c0.5-1.1,1.3-2,2.1-2.6
				c0.1-0.1,0.2-0.2,0.3-0.2l0.2-0.1c0,0,0.1,0,0.1,0c0.1,0,0.2-0.1,0.3-0.1c0.2,0,0.5,0.1,0.8,0.3c1.1,0.7,2.6,2.8,4.4,6.9
				c0.2,3.6,3.6,10.2,4.5,14.8c-0.8-8.7-11.7-31.1-7.5-29.7l11.1,30c-0.7-2-1.3-3.8-1.7-5.3c-0.2-0.7-0.4-1.4-0.7-2.1
				c-0.1-0.3-0.2-0.6-0.3-0.9l-0.1-0.2l0-0.1l0-0.1l0,0l0,0c-0.6,0.4,0.9-0.6,0.7-0.5l-0.1-0.4c-0.4-2.3-0.4-3.8-0.2-4.7
				c0.4-1.8,1.7-1.3,3.2-0.4c1.4,1,3,2.3,4.1,2.2c1.1-0.1,1.7-1.9,1.5-7.5c2.1,6.1,2.8,11.5,2.9,15.5c0.1,4-0.5,6.7-1.5,7.9
				c2,2,1.8-1.6,1.7-6c-0.2-4.3-0.5-9.4,0.8-9.8c0,0,0.7,7.4,1.7,14.6c0.9,7.3,2.1,14.4,2.1,14.4c-2-13.8-0.5-13.2,1.2-7.7
				c1.8,5.4,3.9,15.6,5,20.1c-0.4-3.5-1.7-10.7-2.5-16.8c-0.8-6.2-1.2-11.4,0.2-11.3c1.5,3.2,1.8,10.8,2.5,14.9
				c-0.3-3.6-0.7-8.8-0.7-13.3c0-4.5,0.4-8.3,1.2-9.1c1.1,9.8,0.1,15.4,1,25.5c0.9-1,1.7-3.4,2.9,4.6c0.6-4.5,0.4-8.1,0.1-12
				c-0.3-3.9-0.8-8-0.4-13.7c1.8,2.9,2.1,11.7,2.3,22.3c0.2,10.6,0.4,23,1.1,33.6c-0.3,7.5-0.6,12.4-0.7,16.4c0,4,0.1,7.1,0.5,11
				c0,0-0.1-2-0.1-4.2c0-1.1,0-2.1,0.1-2.9c0.1-0.8,0.1-1.4,0.1-1.4c0.3,5.9,0.8,10.9,1,15.9c0.1,2.5,0.3,5,0.3,7.6
				c0,0.9,0.1,2.4,0.2,6.1c0,1,0.3,2,0.3,3l0.3,1.5v0.6c0,0.7-0.2,1-0.1,1.1c0.1,0.1,0-0.9,0.3-2.5c0.3-1.7,0.6-4,1.1-6.6
				c0.5-2.6,1.1-5.4,1.7-8c0-4.2-0.2-6.6,0.2-14.3c1.6-7.6,0.5,7.7,0.1,16.5c0.7-4.4,1.4-11.8,2.2-20.2c0.8-8.4,1.6-17.6,2.6-25.6
				c0.5,8.6,0.9,10.2,1.3,12.8c0.4,2.6,0.6,6.2,0.2,19l2.1-21.3c-0.2,8.4,0.6,4.6,1.6,0.1c0.9-4.5,2-9.5,2.1-3.4
				c-0.5,4.6-1.7,10.2-2.8,15.3c2.2-7.4-0.9,17.8,1.5,9.2l-4,24.2c1.1-1.1,3.6-8.8,0.5,11.8c4.8-25,7.3-16.1,11.9-30.8l-2.7,18.7
				c4.5-22.9,5.3,0,10.4-27.4l-0.8,7.5l6.5-25.7c1.2,1.9-2.9,30-1.8,22.2c1-1.4,1.9-2.6,2.7-3.5c0.9-0.9,1.7-1.4,2.3-1.4
				c1.4-0.1,2.4,1.6,3.1,6.1c3.4-25.1,7.7-32.5,11-36.4c1.6,1.5,3.5,2.2,5.4,2.4c1.9,0.2,4.1-0.3,6.1-1.1c2-0.9,4-2.2,6-4.1
				c0.4-0.4,0.9-0.8,1.3-1.3L535,235.3z"/>
		</g>
		<g id="sun">
			<circle id="sundisc_1_" fill="#F7E74D" cx="534.8" cy="152.6" r="41.7"/>
		</g>
		<g id="fence">
			<g id="LV4">
				<path d="M404.7,651.1c-1.9-4.6-1.7-10.4-1.5-15.6c0.1-1.5,0.1-2.8,0.1-4.1c0-2.2-0.1-4.4-0.2-6.5c-0.1-1.7-0.1-3.5-0.2-5.3
					l-0.3-0.1c0.1-0.2,0.2-0.4,0.2-0.6c0,0,0.1-0.1,0.1-0.1c0-0.1,0-0.2,0-0.3l2-0.1c0,0.2,0,0.4,0,0.6c0,2,0.1,3.9,0.2,5.9
					c0.1,2.2,0.2,4.4,0.2,6.6c0,1.3-0.1,2.7-0.1,4.2c-0.2,5-0.4,10.6,1.4,14.7L404.7,651.1z"/>
			</g>
			<g id="LV3">
				<path d="M380.8,681.2c-1.8-2.7-2.1-6.8-2.3-10.1c-0.1-0.7-0.1-1.4-0.2-2c-0.4-4.3-0.8-9-1-13.9c-0.1-3-0.3-6.2-0.5-9.5
					c-0.4-6.6-0.8-13.4-0.8-19.1l2,0c0,5.7,0.4,12.5,0.8,19c0.2,3.2,0.4,6.4,0.5,9.5c0.2,4.9,0.6,9.5,1,13.8c0.1,0.6,0.1,1.3,0.2,2
					c0.2,3.1,0.5,6.9,2,9.1L380.8,681.2z"/>
			</g>
			<g id="LV2">
				<path d="M359.5,683.5c-2.3-3.9-3-9.1-3.7-14.2c-0.3-2.5-0.7-5-1.2-7l-0.4-1.7c-2.1-8.4-4.6-18.8-4.2-27.3l2,0.1
					c-0.4,8.2,2.1,18.5,4.1,26.7l0.4,1.7c0.5,2.2,0.9,4.6,1.2,7.2c0.7,4.9,1.4,10,3.4,13.5L359.5,683.5z"/>
			</g>
			<g id="LV1">
				<path d="M324.5,686.9c-1.7-12.4-1.5-24.7-1.4-36.7c0.1-3.7,0.1-7.2,0.1-11.2h2c0,4-0.1,7.5-0.1,11.2c-0.2,12-0.4,24.3,1.4,36.4
					L324.5,686.9z"/>
			</g>
			<g id="LH1">
				<path d="M316.5,650.6c0.1,0,0.3-0.3,0.3-0.6l-2,0c0-1.2,0-2.2,27.2-6.2l1.2-0.2c9.4-1.5,18.6-3.9,27.5-6.3l3.4-0.9
					c5.3-1.4,10.4-3.5,15.4-5.6c4.4-1.8,9-3.7,13.7-5.1c3.9-1.1,9-2.5,14.2-3.2c0.8-0.1,1.7-0.2,2.6-0.4c3.2-0.5,6.9-1.1,9.9-0.1
					l-0.7,1.9c-2.4-0.9-5.8-0.3-8.8,0.2c-1,0.2-1.9,0.3-2.7,0.4c-5.1,0.6-10.1,2-13.9,3.1c-4.6,1.4-9.1,3.2-13.5,5
					c-5,2.1-10.2,4.2-15.6,5.7l-3.4,0.9c-9,2.4-18.2,4.9-27.7,6.4l-1.2,0.2C320.6,649,317,650.2,316.5,650.6z"/>
			</g>
			<g id="LH2">
				<path d="M315.7,668.5l-1.3-1.5c2.7-2.4,8.2-3.7,12.5-4.6c1.3-0.3,2.5-0.6,3.4-0.8c3.4-0.9,6.8-2,10.1-3.1c3.2-1,6.5-2.1,9.8-3
					c4.9-1.3,9.6-3,14.2-4.6c1.8-0.6,3.5-1.2,5.3-1.8c4-1.4,8-2.9,11.9-4.3c4.8-1.8,9.8-3.7,14.8-5.3c7-2.3,12.9-4.2,19.4-5.5
					c1.3-0.3,2.6-0.5,3.9-0.7c2.1-0.4,4.2-0.7,6.3-1.3c2.8-0.7,9.8-2.2,12.9,0.1l-1.2,1.6c-1.9-1.4-7-0.8-11.2,0.3
					c-2.2,0.6-4.3,0.9-6.5,1.3c-1.3,0.2-2.6,0.4-3.9,0.7c-6.3,1.3-12.2,3.1-19.1,5.4c-5,1.6-9.9,3.5-14.7,5.3c-3.9,1.5-8,3-12,4.3
					c-1.8,0.6-3.5,1.2-5.2,1.8c-4.6,1.6-9.4,3.3-14.3,4.7c-3.3,0.9-6.6,2-9.8,3c-3.3,1.1-6.7,2.2-10.2,3.1c-1,0.3-2.2,0.5-3.5,0.8
					C323.2,665.2,318,666.4,315.7,668.5z"/>
			</g>
			<g id="RV1">
				<path d="M657.2,651.9l-2-0.4c0.2-1,0.4-1.9,0.7-2.8c0.4-1.5,0.8-2.9,0.8-4.5c0.1-1.9-0.1-3.8-0.3-5.6c-0.1-1.3-0.2-2.6-0.3-3.9
					c-0.1-2.5-0.3-5.1-0.6-7.6c-0.3-2.9-0.6-6.1-0.6-9.1h2c0,3,0.3,6.1,0.6,8.9c0.3,2.5,0.5,5.1,0.6,7.7c0,1.3,0.1,2.6,0.2,3.9
					c0.2,1.9,0.3,3.9,0.3,5.9c-0.1,1.9-0.5,3.4-0.9,5C657.6,650.1,657.4,651,657.2,651.9z"/>
			</g>
			<g id="RV2">
				<path d="M674.1,658.9l-1.5-1.3c3.7-4.4,3-11.5,2.5-17.3l-0.1-1.5c-0.6-6.3-0.8-12.7-0.9-19.8h0v-1h2c0,7,0.3,14.2,0.9,20.7
					l0.1,1.5C677.6,646.3,678.3,653.8,674.1,658.9z"/>
			</g>
			<g id="RV3">
				<path d="M691.1,677.7l-1.8-0.9c5-10.2,6.3-23.2,7.4-34.5l0-0.2c0.2-2.1,0.4-4.3,0.6-6.4c0.6-6.5,1.1-12.7,2.2-19.1l2,0.3
					c-1.1,6.3-1.6,12.5-2.2,19c-0.2,2.1-0.4,4.2-0.6,6.4l0,0.2C697.6,654,696.4,667.1,691.1,677.7z"/>
			</g>
			<g id="RH1">
				<path d="M703.8,631.8c-2.2-1.5-33.8-4.6-39.2-4.6c-0.9,0-1.9,0-2.8,0c-5,0-10.1,0.1-15.1-0.7c-2.4-0.4-4.7-1.1-6.9-1.8
					c-2.2-0.7-4.2-1.4-6.3-1.7l0.3-2c2.3,0.4,4.5,1.1,6.6,1.8c2.1,0.7,4.3,1.4,6.6,1.8c4.9,0.8,9.9,0.6,14.8,0.6
					c0.9,0,1.9-0.1,2.8-0.1c0,0,0,0,0,0c1.8,0,38.9,2.8,40.7,5.4c0.2,0.3,0.3,0.8,0.2,1.1l-1.9-0.6
					C703.4,631.3,703.6,631.7,703.8,631.8z"/>
			</g>
			<g id="RH2">
				<path d="M709.4,646.4c-9.5-3.4-22.2-4.2-33.5-5c-2.5-0.2-4.9-0.3-7.2-0.5c-5.4-0.4-10.8-1.9-15.9-3.3c-5.5-1.5-11.1-3.1-16.8-3.4
					l0.1-2c5.9,0.3,11.6,1.9,17.2,3.4c5.1,1.4,10.3,2.9,15.6,3.3c2.3,0.2,4.7,0.3,7.2,0.5c11.4,0.8,24.4,1.6,34.1,5.1L709.4,646.4z"/>
			</g>
		</g>
		<g id="ground">
			<path id="main_x5F_ground" fill="#262626" d="M885,727.7c-3.2-5.2-6.3-11.2-10.1-16.4c-7.5-10.5-17.5-18.2-32.6-11.1
				c0.8-7.4-3.3-8.9-6.6-10.6c-3.3-1.7-5.8-3.6-2.6-12.1c-4.2-5.6-8.9-8.4-13.8-9.5c-2.4-0.5-4.9-0.6-7.4-0.4
				c-1.2,0.1-2.4,0.3-3.7,0.5c-1.2,0.2-16.4,3.8-18.9,4.2c-5,0.7-9.9,0.8-15-1.3c-1-2.2-0.4-5.4,0.7-9.1c0,0.1-0.1,0.3-0.1,0.4
				c-1.7,1-15,6.5-17.6,6.9c-2.6,0.5-5,0.7-7.3,0.7c-2.3,0-25-2.6-27.4-2.4c-1.2,0.1-6.1,1-7.4,1.4c-2.5,0.8-5.4,0.8-7.8-0.4
				c-2.4-1.3-2.8-12.1-2.6-14.8c0.2-2.7,0.2-5.5,1.7-7.6c-3.9,3.6-4.1,11.5-4.6,18c-0.3,3.2-5.2,10.4-6.5,10l0.6-30.2
				c-1.9,16-5,14.7-8.9,12c-2-1.4-4.1-3.2-6.2-3.3c-2.1-0.1-4,1.2-5.5,6.1c-2-5.8-5.7-13.1-5.7-13.1s-3.4,7.5-6.2,7.7
				c0,0-0.9,1.3-4.8,1.3c-3.8-2.5-11.6-15.2-13-18.6c0.3,3.2,3,4.5,2.3,8.6c-0.8,4-0.9,1.6-3.3,2.5c-2.5-8.2-0.8-10.4-1.9-19.1
				c-2,0.7-2.1,7.6-3.8,7.6c-1.7,0-3.7,4-4.9,9.1c-5.8-1.5-199.7,7-199.7,7c-5.6,0.1-18-9.3-22.5-8c-4.5,1.3-8.8,1.1-13.1-1.7
				c1.4,10-0.5,17.2-3.9,22.6c-3.4,5.3-8.2,8.7-12.6,11.3c-3,0-16,0.9-17.5,1c-2.9,0.3-5.7,0.8-8.6,1.3c-2.8,0.5-19.3,4.2-24.6,5.9
				c-0.7,0.2-11.9,3.6-13.5,4.1c0,0-17.1,6.4-22.7,9.1c-5.7,2.7-11.1,5.5-16.4,8.1c-5.4,2.7-10.7,5.3-16,7.5c-5.3,2.3-11,4.1-16.8,5.3
				c-3.2-0.6-8.1,3.6-14.1,8c-5.9,4.5-13,9.1-19,10.2c4.2,6.3,7.8,6.9,11.4,6.8c3.6-0.2,7.2-1,12.8,1c3.7,4,5.5,11.1,7.5,19.2
				c1,4,6.1,20.5,8.3,24l-2.9-17.6c7.5-5.8,9.5-3.5,11.4-1.5c1.8,1.9,3.6,3.5,8.6-5l-0.8,27.5c1-3.5,2.3-5.4,3.8-6.2
				c1.4-0.8,3.1-0.5,4.7,0.5c3.2,1.9,6.6,6.4,8.6,9.8l2.2-19.2c4,4.9,7.4,8.3,10.1,12.6c2.7,4.3,4.9,9.5,6.7,17.9l-2.2-17.2
				c1.8,5.3,8.5,4,13.3,5.3c2.4,0.6,4.4,1.9,5.6,5c1.1,3,1.5,7.8,0.5,15.3c0.6-2.1,2.3-9.2,2.6-9.7c0.3-0.5,0.6-1,1-1.3
				c0.7-0.7,1.6-1,2.7-0.6l1.9,17.2c2.8-2.5,5.8-4.8,8.4-5.2c0.2,0,3.8,0.3,4.4,0.7c1.3,0.8,2.5,2.3,3.3,4.6c-2,2.4-3.2,5.5-4,9
				c-0.4,1.8-1.5,10.3-1.6,11.3c0.3,0,1,0,1.5-0.1c0.5-0.1,7.5-2,8.7-2.9c2.5-1.7,4.2-4.1,5.3-6.9c2.2-5.6-0.2-50.4,11.9-53.5
				l1.4,11.2l4.4-13.1l8.8,12.5c0.6-9.9,3-15.1,6.4-17.9c3.4-2.7,7.9-2.8,12.7-2.5c4.7,0.3,9.8,1,14.3,0.2c4.4-0.9,8.3-3.3,10.6-9.3
				c2.4-2.4,6.6,1.4,11.5,4.9c4.9,3.6,10.5,7,15.2,4.1l-4.9-16.4c3.1,3.5,7.5,6.2,12.6,8.8c5.1,2.6,10.9,5,16.9,8.1
				c11.9,6.2,24.4,15.1,33.1,33c3.8-15.5-1.7-3.2-5.1-16.4c2.4-5.6,4.6-8.2,6.9-8.8c2.2-0.6,4.4,0.7,6.6,3c4.4,4.5,8.9,12.8,13.8,16.3
				c3-5.6,1-6.6-1.6-8c-2.7-1.3-6-3-5.4-10.1c4.1,1.9,6.4,1.5,7.9-0.3c1.5-1.8,2.2-4.9,3-8.1c1.6-6.4,3.5-13,12.7-10.2
				c3.9,8.8-2.3,7.9-2.3,14.6c0.8-2.6,5.9-10.2,7.7-11.6c1.7-1.4,7.8-4.4,8.8-4.8c0.5-0.2,23.6-7.3,25.9-8.2c2.3-0.9,4.4-1.9,6.5-3.1
				c11.4,2.4,24.1,2.4,36.3,3.4c12.3,0.9,23.9,3,33.7,8.7l-0.7-6.3c2.5,3.5,4.5,5.3,6.4,5.9c0.9,0.3,1.9,0.3,2.7,0.2
				c0.9-0.1,6.8-2.7,7.6-2.9c0.9-0.2,4.5,0.6,5.4,1.4l-4.3-8.8c1.9-5.7,3.7-7,5.6-7.4c1.8-0.3,3.6,0,5.7-2.4l2.9,18.1
				c2.1-3.1,2.5-6.9,2.8-11.2c0.3-4.3,0.5-9,2.2-13.7c1.1,2.8,2.4,4.4,3.8,5.1c0.7,0.3,3.7,0.3,4.5,0.1c3-1,5.9-3,6.8-2.5
				c0.3,4.3-0.5,7.1-1.4,9.5c-0.9,2.4-1.9,4.4-2.4,6.9c1.3-1.4,5.4-10.9,6.4-13.3c2-4.8,4.2-9,7.6-8.3l-0.7,4.9
				c5-5.6,28.2-8.5,29.6-8.4c0,0,13.8,1.5,15.3,1.8c0,0,34,4.7,37.5,4.8c-0.9-1.8-4.8-2.5-3.7-6c6.2,2.5,5.1-0.8,12,2.8
				c6.9,3.6,14.1,7.3,21.8,10.2c7.7,2.9,15.8,5,24.7,5.6c8.9,0.6,18.6-0.3,29.4-3.3C891.2,737.4,888.1,732.9,885,727.7z"/>
			<path id="shadow" d="M688.4,673.3c-3.6-5.9-8.4-10.3-15.7-6.3c0.4-4.2-1.6-5.1-3.2-6c-1.6-1-2.8-2-1.2-6.8c-2-3.2-4.3-4.7-6.6-5.4
				c-1.2-0.3-2.4-0.4-3.5-0.2c-0.6,0-9.7,2.5-10.9,2.7c-2.4,0.4-4.8,0.4-7.2-0.8c-0.5-1.3-0.2-3.1,0.3-5.2c0,0.1-3.2,2.1-3.5,2.3
				c-0.4,0.2-212.2,2.7-212.9,3c-0.7,0.3-1.8,8.8-1.8,8.8c-3.1,1.3-6.9,6.8-9.7,8.3c-2.7,1.5-2.7,7.3-5.3,8.6
				c-2.6,1.3-9.7,6.6-12.5,7.3c-1.5-0.3-22,3.3-24.8,4c2,3.6,3.8,3.9,5.5,3.8c1.7-0.1,3.5-0.6,6.2,0.6c1.8,2.3,6.5,22.5,7.6,24.5
				l-1.4-10c3.6-3.3,7.2,1.1,9.6-3.7l-0.4,15.6c0.5-2,1.1-3.1,1.8-3.5c0.7-0.5,1.5-0.3,2.3,0.3c1.6,1.1,3.2,3.6,4.1,5.6l1.1-10.9
				c1.9,2.8,7.2,12.5,8.1,17.3l-1-9.8c0.9,3,4.1,2.3,6.4,3c1.2,0.4,2.1,1.1,2.7,2.8c0.5,1.7,0.7,4.4,0.2,8.7c0.3-1.2,2.5-6.8,3-6.6
				l0.9,9.8c1.3-1.4,4.5-3,4.5-3c0.2,0,1.3,0.2,1.6,0.4c0.6,0.5,1.2,1.3,1.6,2.6c-0.9,1.3-2.3,7.1-2.4,8.2c-0.1,0.6-0.2,2.7-0.3,3.3
				c0.2,0,2.3-0.4,2.8-0.5c0.8-0.3,1.5-0.7,2.1-1.2c1.2-1,2-2.3,2.5-3.9c1-3.2,1-7.3,0.8-11.5c-0.3-8.4-0.9-17.1,4.9-18.8l0.7,6.3
				l2.1-7.4l4.3,7.1c0.3-5.6,1.4-8.6,3.1-10.1c1.6-1.5,10.9-0.9,13-1.3c2.1-0.5,4-1.9,5.1-5.3c1.1-1.3,3.2,0.8,5.5,2.8
				c2.3,2,5.1,4,7.3,2.3l-2.4-9.3c1.5,2,11.3,7.8,14.2,9.6c5.7,3.5,11.7,8.6,16,18.7c1.8-8.8-0.8-1.8-2.5-9.3c1.1-3.2,2.2-4.6,3.3-5
				c1.1-0.4,2.1,0.4,3.2,1.7c2.1,2.6,4.3,7.2,6.6,9.2c1.5-3.2,0.5-3.7-0.8-4.5c-1.3-0.8-2.9-1.7-2.6-5.7c2,1.1,3.1,0.8,3.8-0.2
				c0.7-1,1.1-2.8,1.4-4.6c0.8-3.6,1.7-7.4,6.1-5.8c1.9,5-1.1,4.5-1.1,8.3c0.4-1.5,0.9-2.7,1.5-3.8c0.6-1.1,1.3-2,2.2-2.8
				c0.8-0.8,8.5-4.4,9.8-4.8c1.2-0.4,5.8-2,7-2.6c1.1-0.5,2.1-1.1,3.1-1.7c5.5,1.4,11.6,1.4,17.5,1.9c5.9,0.5,11.5,1.7,16.2,4.9
				l-0.4-3.5c1.2,2,2.2,3,3.1,3.3c0.5,0.2,2.1-0.1,2.5-0.3c0.4-0.2,0.8-0.5,1.2-0.7c0.4-0.2,2.1-0.7,2.5-0.6c0.4,0.1,0.9,0.4,1.3,0.8
				l-2.1-5c0.9-3.3,1.8-3.9,2.7-4.2c0.9-0.2,1.8,0,2.8-1.4l1.4,10.2c1-1.8,1.2-3.9,1.4-6.3c0.2-2.4,0.2-5.1,1.1-7.8
				c0.5,1.6,1.2,2.5,1.8,2.9c0.3,0.2,1.8,0.2,2.2,0.1c1.4-0.5,2.8-1.7,3.3-1.4c0.1,2.4-1.6,7.8-1.8,9.3c0.6-0.8,1.2-2,1.7-3.3
				c0.5-1.4,0.9-2.8,1.4-4.2c0.9-2.7,2-5.1,3.7-4.7l-0.3,2.8c2.4-3.2,5-4.9,7.7-5.8c0.7-0.2,3.4-0.7,4.1-0.7c0.7,0,4.2,0.2,4.2,0.2
				c0.7,0.1,3.5,0.7,4.3,0.8c0,0,3.6,0.9,4.4,1l1.1,0.2c0.2,0,1,0.1,1,0.1c0.6,0,4.8,0.4,6.5,0.4c-0.4-1,1.7-1.5,2.2-3.5
				c3,1.4,5.1,2.2,8.4,4.3c3.3,2.1,18.1,8.6,22.4,8.9c4.3,0.3,8.9-0.2,14.2-1.9C696.3,688.1,690.3,676.3,688.4,673.3z"/>
		</g>
		<g id="house">
			<polyline id="house_x5F_back_x5F_grey" fill="#56564B" points="424.1,652.5 424.1,571.9 455.6,523.6 637.7,593.5 638.5,649.4 
				525.7,689.7 424.1,652.5 	"/>
			<g id="left_x5F_wall">
				<g>
					<path fill="none" stroke="#F2FF48" stroke-width="2" stroke-linecap="round" stroke-linejoin="round" d="M425,651
						c2,0-3-77.8,0-77.8c2,0,1,79.7,5,79.7c2,0-4-87.2,0-87.2c3,0,3,89,5,89c3,0-3-96.5,0-96.5s2,98.3,5,98.3s-4-105.7,0-105.7
						c2,0,2,107.5,5,107.5c4,0-5-115,0-115c4,0,1,116.8,5,116.8c3,0-5-124.2,0-124.2c3,0,2,126,5,126c5,0-6-133.5,0-133.5
						c3,0,0,135.3,5,135.3c3,0-3-133.4,0-133.4s0,135.2,5,135.2c3,0-5-129.9,0-129.9c2,0,1,131.7,5,131.7c2,0-4-126.5,0-126.5
						c2,0,2,128.3,5,128.3s-4-123,0-123s2,124.8,5,124.8c2,0-5-119.6,0-119.6c4,0,0,121.4,5,121.4c4,0-5-116.1,0-116.1
						c3,0,1,117.9,5,117.9c3,0-3-112.7,0-112.7s0,114.5,5,114.5c3,0-3-109.2,0-109.2c4,0,1,111,5,111c3,0-4-105.8,0-105.8
						s1,107.6,5,107.6c2,0-4-102.3,0-102.3c3,0,2,104.1,5,104.1s-3-98.9,0-98.9c4,0,2,100.7,5,100.7c2,0-4-95.4,0-95.4
						c3,0,2,97.2,5,97.2c2,0-3-91.9,0-91.9c2,0,2,93.7,5,93.7c2,0-4-89,0-89"/>
				</g>
			</g>
			<g id="right_x5F_wall">
				<g>
					<path fill="none" stroke="#A8A82C" stroke-width="3" stroke-linecap="round" stroke-linejoin="round" d="M530.5,684
						c0,0-2-79.2,0-79.2s4,77.7,5,77.7c2,0,0-78.2,0-78.2c1,0,3,76.3,5,76.3c1,0,0-76.9,0-76.9c2,0,3,75.1,5,75.1c3,0-1-75.7,0-75.7
						s3,73.8,6,73.8v-74.4c0,0,3,72.8,4,72.8s0-73.3,0-73.3c1,0,3,71.5,5,71.5s-1-72.1,0-72.1c2,0,5,70.4,5,70.4c1,0,0-70.9,0-70.9
						c1,0,5,69.3,5,69.3c3,0,0-69.7,0-69.7c2,0,3,68.2,5,68.2c0,0-3-68.7,0-68.7c0,0,4,66.9,5,66.9c2,0-1-67.4,0-67.4
						c2,0,5,65.6,5,65.6s-2-66.2,0-66.2c1,0,4,64.4,5,64.4c2,0-2-65,0-65c0,0,4,63.2,5,63.2c2,0,0-63.7,0-63.7l5,62.1
						c2,0-1-62.6,0-62.6c2,0,3,60.9,5,60.9s0-61.4,0-61.4c2,0,4,59.7,5,59.7c0,0-2-60.2,0-60.2c1,0,4,58.6,5,58.6s0-59.1,0-59.1
						c2,0,3,57.4,5,57.4c0,0-2-57.9,0-57.9c1,0,4,56.3,4,56.3c1,0-2-56.8,0-56.8s4,55.2,5,55.2s0-55.7,0-55.7s4,53.8,6,53.8
						s0-54.5,0-54.5"/>
				</g>
			</g>
			<polyline id="roof_x5F_shadow_x5F_2" opacity="0.3" points="527.5,601.1 638.6,591.2 639.2,615.5 526.1,638.8 	"/>
			<polyline id="roof_x5F_shadow_x5F_1" opacity="0.4" points="527.5,597.7 638.6,591.2 639.2,607.1 526.1,629.2 	"/>
			<polyline id="roof2" points="456,523.6 407.8,585.5 424.2,573 	"/>
			<polygon id="h1" points="485,555.8 434.4,556.4 435.7,554.4 485,553.3 	"/>
			<polygon points="518,589.6 423,580.8 423,578.6 518,586.6 	"/>
			<polygon points="528,640.5 424,618.8 424,616.7 528,637.5 	"/>
			<polygon points="639,615.2 528,640.6 528,637.5 639,613.1 	"/>
			<polygon id="v10" points="639,649.3 637,649.9 637,595.5 639,595.1 	"/>
			<polygon id="v9" points="624,654.6 622.9,655 623,596.5 624,596 	"/>
			<polygon id="v8" points="598,663.9 596,664.6 596,601.9 598,601.4 	"/>
			<polygon id="v7" points="566,675.3 564,676 564,606.5 566,605.9 	"/>
			<polygon id="v6" points="528,688.9 525.7,689.7 525,689.5 525,596 528,596 	"/>
			<polygon id="v5" points="502.9,681.4 500,680.3 500,588.3 503,587.5 	"/>
			<polygon id="v4" points="469,626.8 466,626.9 466,555.2 469,554.6 	"/>
			<polygon id="v3" points="456,554.9 454,554.9 454,525.8 454.7,525 456,525.5 	"/>
			<polygon id="v2" points="443,659.5 441,658.7 441,555.5 443,554.6 	"/>
			<polygon id="v1" points="425,652.8 423,652 423,572.8 425,570.6 	"/>
			<polygon id="window_x5F_main" fill="#005B7B" points="501,633.1 467,626.3 467,584.4 501,587.4 	"/>
			<polygon id="window_x5F_slit" points="483,630.6 484,630.8 484,585.1 483,584.9 	"/>
			<polygon points="501,599.6 467,595.4 467,593.6 501,597.6 	"/>
			<polygon fill="#2D2D20" points="501.1,598 466.4,594.1 467.1,593.6 501.7,597.4 	"/>
			<polygon points="483,619.5 469.1,595.6 467.3,595.4 481,619.1 	"/>
			<polygon points="501,623.9 467,617.3 467,615.3 501,621.7 	"/>
			<polygon fill="#161513" points="501.3,599.6 484.7,619.8 483,619.5 498.9,599.3 	"/>
			<polygon fill="#161513" points="483.3,618.7 470.1,595.7 469,595.6 482.9,619.4 	"/>
			<polygon points="486,618.9 501.3,599.5 500.6,599.4 484.7,619.8 	"/>
			<polygon id="roof_1_" points="450.8,521.8 540.8,612.8 657.3,595.6 561.1,553.7 	"/>
		</g>
		<g id="text">
			<g id="ikora">
				<g id="i">
					<g>
						<path d="M376.3,893.6c0,14.7,0,29.5,0,44.2c0-0.7,8.7-1.5,8.7-2.3c0-14.7,0-29.5,0-44.2C385,892,376.3,892.8,376.3,893.6
							L376.3,893.6z"/>
					</g>
					<g>
						<path d="M361.8,878.2c7.7-4.4,16.6-6.8,24.5-10.7c6.5-3.2,17.8-9.3,14.6-18.3c-0.1-0.2-7.9,2-8.7,2.3c-7.6,2.8-14.7,9-17.4,16.7
							c0.5-1.5,8.1-0.7,8.7-2.3c2.7-7.7,9.8-13.9,17.4-16.7c-2.9,0.8-5.8,1.6-8.7,2.3c3.1,8.7-7.4,14.5-13.7,17.8
							c-8.2,4.3-17.4,6.7-25.5,11.2C355.6,879.2,359.2,879.7,361.8,878.2L361.8,878.2z"/>
					</g>
				</g>
				<g id="k">
					<g>
						<path d="M421.2,837.1c-2.1,17.4-2.3,35-5.8,52.2c-3.3,16.3-6.4,33.5-3.6,50c0-0.2,8.8-2,8.7-2.3c-2.8-16.8,0.7-33.5,3.6-50
							c3-17.3,3.7-34.8,5.8-52.2C429.8,835.8,421.4,835.9,421.2,837.1L421.2,837.1z"/>
					</g>
					<g>
						<path d="M445.9,869.7c-3.5,14.8-17.6,24.1-29,32.6c2.2-1.7,6.4-0.6,8.7-2.3c11.5-8.6,25.5-17.8,29-32.6
							C454.3,868.7,446.2,868.2,445.9,869.7L445.9,869.7z"/>
					</g>
					<g>
						<path d="M415.4,895.8c4.6,13.6,12,26.5,19.9,38.5c6.8,10.2,17.4,26.2,30.9,27.5c2.8,0.3,5.9-2.6,8.7-2.3
							c-13.2-1.4-23.4-16.6-30.2-26.5c-8.3-12.1-15.8-25.6-20.6-39.5C424,893.2,415.5,895.9,415.4,895.8L415.4,895.8z"/>
					</g>
				</g>
				<g id="O">
					<path d="M490.8,876.2c4,0.9,7.6-0.5,11.5-1.5c2.2-0.6,10.3-5.2,6.2-7.2c-5.3-2.5-10.8-0.5-16.1,1c-11.6,3.2-18.6,13.4-23,24.1
						c-4.4,10.7-6.9,25.2-0.2,35.5c8.1,12.5,26.4,8.4,38,4.1c24.4-9.1,37.2-35.1,36.1-60c-0.4-8-2.6-18.4-11.5-20.7
						c-4.2-1.1-8.8,0.6-12.9,1.6c-6.1,1.6-11.7,3.4-15.8,8.5c1.5-1.9,7.1-0.4,8.7-2.3c1.8-2.2,3.6-3.8,6.1-5.2
						c1.3-0.8,2.8-1.3,4.3-1.8c-7.3,2.5-5.4,1.4-2.9,1.2c3.2-0.3,6.3,0.7,8.8,2.8c5.1,4.2,6.2,12.1,6.6,18.2
						c1.1,18.1-5.1,34.7-17.6,47.7c-4.2,4.3-9.1,7.9-14.4,10.6c-1.4,0.7-6,2.1,0.4,0.6c-1.7,0.4-3.4,0.6-5.1,0.7
						c-2.1,0.1-4.1,0-6.2-0.2c-5.8-0.7-10.9-3.7-14.1-8.6c-6.7-10.3-3.4-25.2,0.9-35.7c3-7.4,7.6-14.7,14.1-19.5
						c1.3-1,2.8-1.8,4.3-2.5c5.2-2.3-7.8,1.6-4.3,1.1c0.9-0.1,1.9-0.1,2.8,0c1.6,0.1,3.1,0.6,4.5,1.2c3.2,1.4-2.3,5.9-4.1,6.5
						c2.8-0.8,5.7-1.5,8.5-2.3c-1.8,0.3-3.1,0.2-4.8-0.2C496.9,873.3,493.4,876.8,490.8,876.2L490.8,876.2z"/>
				</g>
				<g id="r">
					<g>
						<path d="M561.9,897.8c1.7-2.2,3.8-3.9,5.8-5.8c-2.9,0.8-5.8,1.6-8.7,2.3c2.3,15,3.7,30.7,0.7,45.7c0.2-1.2,8.4-1,8.7-2.3
							c3-15,1.6-30.7-0.7-45.7c0.1,0.4-8,1.7-8.7,2.3c-2,1.9-4.1,3.6-5.8,5.8C554.6,898.3,560.4,899.7,561.9,897.8L561.9,897.8z"/>
					</g>
					<g>
						<path d="M572.1,907.2c0.9-3.3,3.6-6.2,5.9-8.6c1.4-1.5,3-2.8,4.6-4c2.5-2,8.9-4-0.1-1.6c-0.7,0.2-1.4,0.4-2.2,0.5
							c3.3-0.6,4.6,1.4,4.9,4.5c0-0.4,8.7-1.8,8.7-2.3c-0.3-3-1.6-5-4.9-4.5c-3.5,0.6-7.2,1.6-10.5,2.9c-5.8,2.3-13.4,9.3-15.1,15.5
							C563.7,908.2,571.6,908.8,572.1,907.2L572.1,907.2z"/>
					</g>
				</g>
				<g id="A">
					<g>
						<path d="M630.3,839.2c-6.8,33.9-21.6,65.5-29.5,99.1c0.3-1.3,8.4-0.9,8.7-2.3c7.9-33.6,22.7-65.2,29.5-99.1
							C638.8,838.2,630.6,837.9,630.3,839.2L630.3,839.2z"/>
					</g>
					<g>
						<path d="M630.3,841.7c8.8,17.9,12.3,38,15.4,57.5c1.4,8.7,2.4,17.5,4.1,26.1c1.1,5.6,3.6,15.4-1.1,19.9c1.9-1.8,6.8-0.5,8.7-2.3
							c4.7-4.6,2.2-14.3,1.1-19.9c-1.7-8.6-2.7-17.4-4.1-26.1c-3.1-19.5-6.7-39.6-15.4-57.5C638.7,838.7,630.5,842.1,630.3,841.7
							L630.3,841.7z"/>
					</g>
					<g>
						<path d="M605.2,894.3c1.4,5.4,11.2,4.8,15.3,4.7c6.7,0,13.4-0.9,20.1-1.7c24-2.9,48.2-10.8,72.4-5.5c2.6,0.6,6.1-2.9,8.7-2.3
							c-24.2-5.3-48.4,2.7-72.4,5.5c-6.7,0.8-13.4,1.6-20.1,1.7c-4.1,0.1-13.9,0.6-15.3-4.7C613.9,892,605.1,894.3,605.2,894.3
							L605.2,894.3z"/>
					</g>
					<g>
						<path d="M726.7,890.2c-1.1,1.9-2.3,4.1-4.6,4.8c-0.6,0.2,0.7-0.2,0.4-0.1c0.9-0.2,1.7-0.4,2.6-0.7c1.8-0.5,3.6-0.9,5.3-1.5
							c2.4-0.8,3.6-2.9,4.9-4.9c0,0.1-1.3,0.3-1.3,0.3c-1,0.3-2.1,0.5-3.1,0.8c-1,0.3-2,0.6-3.1,0.8
							C727.9,889.8,726.8,890,726.7,890.2L726.7,890.2z"/>
					</g>
				</g>
			</g>
		</g>
</svg>
