<?xml version="1.0" encoding="utf-8"?>
<!-- Generator: Adobe Illustrator 16.0.0, SVG Export Plug-In . SVG Version: 6.00 Build 0)  -->
<!DOCTYPE svg PUBLIC "-//W3C//DTD SVG 1.1//EN" "http://www.w3.org/Graphics/SVG/1.1/DTD/svg11.dtd">
<svg version="1.1" id="Layer_1" xmlns="http://www.w3.org/2000/svg" xmlns:xlink="http://www.w3.org/1999/xlink" x="0px" y="0px"
	 width="96px" height="100px" viewBox="0 0 96 100" enable-background="new 0 0 96 100" xml:space="preserve">
<g id="boundary">
	<path d="M54.3,83.1H41c-7.2,0-13-5.8-13-13V37.4c0-7.2,5.8-13,13-13h13.3c7.2,0,13,5.8,13,13v32.8C67.3,77.3,61.5,83.1,54.3,83.1z
		 M41,26.4c-6.1,0-11,4.9-11,11v32.8c0,6.1,4.9,11,11,11h13.3c6.1,0,11-4.9,11-11V37.4c0-6.1-4.9-11-11-11H41z"/>
</g>
<path id="roller" d="M51,73.7c0,1.1-1.3,2-3,2l0,0c-1.7,0-3-0.9-3-2v-4.5c0-1.1,1.3-2,3-2l0,0c1.7,0,3,0.9,3,2V73.7z"/>
</svg>
