<?xml version="1.0" encoding="utf-8"?>
<!-- Generator: Adobe Illustrator 16.0.0, SVG Export Plug-In . SVG Version: 6.00 Build 0)  -->
<!DOCTYPE svg PUBLIC "-//W3C//DTD SVG 1.1//EN" "http://www.w3.org/Graphics/SVG/1.1/DTD/svg11.dtd">
<svg version="1.1" id="Layer_1" xmlns="http://www.w3.org/2000/svg" xmlns:xlink="http://www.w3.org/1999/xlink" x="0px" y="0px"
	  viewBox="0 0 537.1 300" enable-background="new 0 0 537.1 300" xml:space="preserve">
<g>
	<path fill="#2B2B2B" d="M147.9,188.8c0-9.8,0-19.5,0-29.6c3.2,0,6.3,0,9.6,0c0.5-3.6,1-7.6,1.5-11.2c-3.8,0-7.5,0-11.3,0
		c0-3.2-0.1-6,0-8.8c0.1-2.5,1.4-3.9,3.9-4.1c2.2-0.2,4.5-0.1,6.7-0.1c0.3,0,0.6,0,1,0c0-3.6,0-7.1,0-10.5
		c-4.7-0.2-9.1-0.9-13.5,0.2c-4.6,1.1-7.7,4-9.2,8.5c-0.5,1.4-0.7,2.8-0.7,4.3c-0.1,3.1,0,6.2,0,9.4c0,0.3,0,0.8,0,1.2
		c-4,0-6.9,0-10.1,0c0,3.6,0,7.6,0,11.2c3.2,0,6.5,0,10.1,0c0,10.1,0,20,0,29.6H147.9z"/>
</g>
<g>
	<path fill="#2B2B2B" d="M312.1,144.2c2.6,3.1,4.2,7,4.2,11.4c0,9.7-7.9,17.5-17.5,17.5c-9.7,0-17.5-7.9-17.5-17.5
		c0-4.4,1.6-8.4,4.2-11.4h-2.4c-0.5,0.8-1.5,1.4-2.5,1.4h-8.4c-1.1,0-2-0.6-2.6-1.4h-3.7v29.5c0,0,0,13.5,13.5,14.5
		c13.5,1.1,38.3,0,38.3,0s13.5-0.8,13.5-14.4c0-12.9,0.2-29.4,0.2-29.4L312.1,144.2z"/>
	<path fill="#2B2B2B" d="M283.6,142.4L283.6,142.4l3.6,0c3.1-2.7,7.1-4.4,11.6-4.4c4.5,0,8.6,1.7,11.7,4.4l20.9,0
		c-0.3-9.9-1.4-18.7-15.7-19.4h-32.5c0,0-17.4-1.3-17.3,19.2h3.2c0-1.7,1.4-3,3-3h8.4C282.3,139.4,283.6,140.8,283.6,142.4z
		 M319.5,130.1c2.4,0,4.3,2,4.3,4.5c0,2.5-1.9,4.5-4.3,4.5s-4.3-2-4.3-4.5C315.1,132.1,317.1,130.1,319.5,130.1z"/>
	<path fill="#2B2B2B" d="M307.2,151.9c-0.4,0.4-0.9,0.6-1.5,0.6c-1.3,0-2.3-1-2.3-2.3c0-0.8,0.4-1.4,1-1.9c-1.6-1.2-3.5-1.9-5.6-1.9
		c-5.1,0-9.2,4.1-9.2,9.2s4.1,9.2,9.2,9.2s9.2-4.1,9.2-9.2C307.9,154.3,307.7,153,307.2,151.9z M298.8,156.9c-0.7,0-1.3-0.6-1.3-1.3
		s0.6-1.3,1.3-1.3c0.7,0,1.3,0.6,1.3,1.3S299.5,156.9,298.8,156.9z"/>
</g>
<g>
	<path fill="#2B2B2B" d="M212.6,123.7c18.3,0.1,32.5,14.7,32.5,32.5c0,17.9-14.1,32.2-31.9,32.5c-18.7,0.3-33.1-14.4-33.1-32.4
		C180.2,138.2,194.5,123.9,212.6,123.7z M214.1,144.9c-0.2-0.2-0.3-0.3-0.5-0.4c-8.4-7.1-21.1-2.7-24,7c-0.9,3.1-1.2,6.2-0.1,9.2
		c2.8,7.8,9.7,11.3,16.6,10.4c9.5-1.2,13.4-9.8,12.1-17.1c-4.7,0-9.5,0-14.2,0c0,1.7,0,3.4,0,5.1c2.8,0,5.6,0,8.4,0
		c-0.4,3.1-3.1,5.7-6.6,6.4c-4.2,0.8-8.3-1.3-10.2-5.1s-1.1-8.4,1.9-11.3c1.7-1.7,3.8-2.4,6.1-2.5c2.4-0.1,4.5,0.7,6.3,2.3
		C211.4,147.5,212.7,146.3,214.1,144.9z M232.1,158.3c1.5,0,2.9,0,4.3,0c0-1.5,0-2.8,0-4.4c-1.4,0-2.8,0-4.2,0c0-1.4,0-2.7,0-4
		c-1.5,0-2.9,0-4.4,0c0,1.4,0,2.7,0,4.1c-1.4,0-2.8,0-4.2,0c0,1.5,0,2.9,0,4.4c1.4,0,2.8,0,4.3,0c0,1.5,0,2.9,0,4.2
		c1.5,0,2.8,0,4.3,0C232.1,161.2,232.1,159.8,232.1,158.3z"/>
</g>
<g>
	<path fill="#2B2B2B" d="M354.1,173.5c0,0.1-0.1,0.1-0.1,0.2c1.4,0.7,2.7,1.5,4.1,2.1c4.2,1.9,8.6,2.9,13.2,3c6,0.1,11.8-1,17.1-3.9
		c5.5-2.9,9.8-7.2,12.9-12.5c3.4-5.7,5.1-12,5-18.7c0-0.6,0.2-0.9,0.6-1.2c1.5-1.4,2.9-2.9,4.4-4.3c0.3-0.3,0.5-0.7,0.8-1.1
		c-2.1,0.6-4.2,1.1-6.2,1.6c0.9-1.1,1.9-2,2.8-3c0.9-1,1.5-2.2,1.9-3.7c-0.4,0.2-0.6,0.3-0.8,0.4c-1.9,1-3.9,1.7-6,2.3
		c-0.5,0.1-0.8,0.1-1.2-0.3c-1.4-1.4-3-2.3-4.9-2.8c-8.6-2.4-16.6,4.7-15.3,13.5c0,0.2,0.1,0.5,0.1,0.8c-10.1-0.7-18.2-5-24.8-12.6
		c-2.9,6.3-1.7,11.6,3.5,16c-1.9,0.1-3.4-0.6-5.2-1.3c0.5,6.2,3.5,10,9.3,11.9c-1.6,0.5-3.3,0.4-5,0.2c2,5.1,5.7,7.9,11.2,8.4
		C366.2,172.4,360.5,174.1,354.1,173.5z"/>
</g>
</svg>
