<?xml version="1.0" encoding="utf-8"?>
<!-- Generator: Adobe Illustrator 16.0.0, SVG Export Plug-In . SVG Version: 6.00 Build 0)  -->
<!DOCTYPE svg PUBLIC "-//W3C//DTD SVG 1.1//EN" "http://www.w3.org/Graphics/SVG/1.1/DTD/svg11.dtd">
<svg version="1.1" xmlns="http://www.w3.org/2000/svg" xmlns:xlink="http://www.w3.org/1999/xlink" x="0px" y="0px" viewBox="0 0 1920 1080" enable-background="new 0 0 1920 1080" xml:space="preserve" preserveAspectRatio="none">
<g id="page_x5F_fills">
	<rect fill="#CCD9ED" width="1920" height="1080"/>
</g>
<g id="ground">
	<path fill="#FFFFFF" d="M0,992.5c0,0,163.6-46.5,342.5-85.1c90.5-25.2,331.9-42.9,417.2-52.7L321.3,1080H0V992.5z"/>
	<path fill="#FFFFFF" d="M631.6,1080h263.7l54.3-199.3c12.7-6.6,15.4-25,15.4-25l-2.8-5l-155.2,4.2l3.6,22.7l10.9,13.8L631.6,1080z"
		/>
	<path fill="#FFFFFF" d="M1018.6,848.3l-0.9,14.9l16.8,15.8l4.3,15l62.9,186l247.1,0l-220.3-193.6c0,0,1-10.6,9.3-14.4
		c27.8-15,2.1-26.6,2.1-26.6l-92.2,2.1L1018.6,848.3"/>
	<path fill="#FFFFFF" d="M1628.8,1080c0,0-347.4-185.1-347.4-189.3c-15.5-3.8-25.9-28-25.9-28l9.5-20.2l261.1-3L1920,837v168v75
		L1628.8,1080z"/>
</g>
<g id="fills">
	<g id="anam">
		<polygon fill="#E5D295" points="992,349.3 1000.1,350.1 1006.7,353.6 1009.9,361.7 1010.9,374.8 1010.9,387.7 1008.4,391.8 
			1002.4,398 993.1,404.9 984.9,407.1 977.6,402 969.7,395.9 965.7,387.3 965.5,382.9 971.4,366.3 		"/>
		<path fill="#E5D295" d="M967.3,426.7c0,0,10.1,5.2,14.8,5.6c12.8,0.9,19.9-6.6,19.9-6.6s-7.5-3.7-4.7-22.9l-11.1,4.7l-10.7-7.1
			l-1.4,17.5L967.3,426.7z"/>
		<path fill="#E5D295" d="M947.6,489.9l8.4,1.1c0,0,3.6,49.4,3.6,49.8c0,0.3-1.5,30.6-3.1,28.9c-1.6-1.7-8.9-9.6-16.7-65.8
			c-0.5-3.6-1.9-14.4-1.9-14.4L947.6,489.9z"/>
		<path fill="#E5D295" d="M1023.3,491.6l8.1-2.9h8.9l2.3,1.5l-4.1,31.8c0,0-5.6,21.2-7.8,24.3c-2.2,3.1-7.2,24.3-5.5,24.7
			c1.7,0.4-3.3,0.4-6.1-24.1C1016.3,522.5,1023.3,491.6,1023.3,491.6z"/>
		<path fill="#E5D295" d="M944.9,657c0,0,20.9,12.2,38.2,2.1c-2.6,43.6-2.2,34.9-2.7,45.5l-1.5,31.6l1.5,17.1c0,0,4.7,39.1,2.5,38.6
			c-2.2-0.5,1.4,26.9-6.8,53.3l-15.7-2.9l-2.7-66.8c0,0-2-48.7-6.2-59.4C944.9,698.8,944.9,657,944.9,657z"/>
		<path fill="#E5D295" d="M995.4,657.5c0,0,23.4,6.8,36.8-3.5c0,14.8-2.7,50.9-2.7,50.9l-2,28.1l-0.8,55.1c0,0-1.5,41-4.7,48.6
			s-3.5,14-3.5,14l-13.3-5.9l-3.3-31.2l-2.9-24.7l1.1-23.7l3.2-23.9c0,0,1.1-20.6,0.4-22.3c-0.8-4.3-2.8-19.5-5-29.2L995.4,657.5z"
			/>
		<path fill="#FFFFFF" d="M976.6,393.8l8.6-1.3l8-0.2l7-0.5c0,0-3.5,4.5-4.4,4.6s-3,1.5-11.1,1.6
			C976.6,398.1,976.6,393.8,976.6,393.8z"/>
		<path fill="#E5D295" d="M953,579l3.5-9.3c0,0,50.4,9.2,67.9,1.5l4.2,9.5c0,0-14.5,9.3-42.8,4.6C985.9,585.4,953.4,578.2,953,579z"
			/>
		<path d="M953,579c0,0,5.5,0.5,14.1,2.4c17.2,3.8,45.8,9.1,61.5-0.7c0,0,9.8,14,8.1,69.7c0,0-15.3,15.1-43.5,7.1l-4.5-26l-1.7,11.6
			c0,0,1,8.4-4,15.4c-4.9,7-39,5.1-40.4-6.2C942.7,652.4,936,620.3,953,579z"/>
		<path fill="#40001E" d="M1039.8,438.2c-17-9.4-18.1-3.5-37.7-12.5c-22.7,14.7-34.8,0.6-34.8,0.6s-16,8.8-24.2,10
			c-8.3,1.2-12.6,11.9-12.4,19.1c0.1,7.2,2,29.9,4.3,34.2l21.6,2.1l1.6,23.9c0,0,4.3,43.4-1.5,54.2c0,0,50.8,9.2,67.9,1.5
			c0,0-8.4-10.7-4.8-57.7l3.1-22.1c0,0,6.7-2.5,10.9-3.4c0,0,5.2-0.8,8.6,1.7s2.4-41.5,2.4-41.5S1045,442.5,1039.8,438.2z"/>
		<path fill="#353535" d="M961,842.6c0,0,9.1,3.8,15.2,2.6c0,0-3.5,14.7-1.1,14.9c0,0-6.5-2.9-11.2-0.5L961,842.6z"/>
		<path fill="#353535" d="M1005.1,844.8l13.5,4.5l-1,13.5c0,0-9.9-1.5-9.9,1.1l-0.1,2.3c0,0-5.8-1.8-4.7-8.6l1.7-3L1005.1,844.8z"/>
		<path d="M958.4,867.6c0.6-1.5,2-3,2.3-5.9c0.9-1.5-0.3-5.6,2.3-7c0.6,1.7,0.4,2.4,0.7,3.8c5.2-2.4,8.5-1.1,10.2,0
			c0.7,0.4-0.5-3.4,0.5-3.5c1.6-0.2,4.2,5.4,3.7,5.7c0,6.8,0.6,9.1,0.5,8.8c-0.1-0.2,2.5,6.3,1.6,8.9c-0.9,2.7-6.8,14.7-23.9,10.7
			c0,0-6.1-2.6-6.7-9.3C952.8,872.1,955.5,872.9,958.4,867.6z"/>
		<path d="M1000.6,868.1c0,0-2-7.3,2.7-11c2.3,9.2,4.1,8.3,5.4,4.3c0,0,4.4-5.2,9.6,0.7l1.7-0.7c0,0,18.4,18.5,15.7,16.7
			c0,0,3.6,7.4,3.1,8.3s-8.1,9-19.8,3.2C1012.6,885.3,1011.1,874.1,1000.6,868.1z"/>
		<path fill="#3A3A3A" d="M1006.8,353.6l-3-10.7l-1.6-1.8l-4.8,0.3l-7.7-4.7l-2.9,1.6c0,0-7.2-1.4-18.7,6.8l-7,8.5v3l-2.2,1.9
			c0,0-4.4,3.2-2.4,12c0,0-1.6,0.7-4,6.2c0,0-4,4.5-3.2,5.6c0,0,5.3,10.1,4.4,9.5l0.3,2.4l5.3,9.1L959,401l-2.5-6.5l3.2,2.2
			c0,0,1.2,3.2,5.9,6.4l2.7,5.2l2-3.6c0,0,0.3-4.8-7-10.5c0,0-2.7-4.9-0.4-8.2l2.7-3.1c0,0,0.6,3.3,4.8-14.1c0,0-0.6-2.2,7.7-6.6
			c0,0,1.3,0.9,9.9-9.4c0,0,3.7-6.8,13.2-1.5L1006.8,353.6z"/>
		<path fill="#3A3A3A" d="M1006.8,352.2c0,0,3-3.1,6-2.5c3.1,0.6,2.6,9.5,3.1,9.2c0,0-0.2,7.5,0.3,6.1c0.5-1.4-1.2,7.5,1,10.3
			c0,0,4.8,10.9,4.5,11.5c0,0,0.4,1.7-5.8,8.6c0,0-1.8,1.4-1,7c0,0-0.6,3-8.3,4.6c0,0-3.3-1-6.4,11.1c0,0,0.8-9.9,4.6-12.1l-2.8,1.2
			c0,0,1.1-7.3,4.5-9.5c0,0,0.9-0.6,1.4-4.9l3.7-6.4c0,0-2.8-5.5,0.1-13.6c0,0-1.3-9.8-2.3-13.9c-1-4.1-3.2-5-3.2-5l-0.3-1.6
			L1006.8,352.2z"/>
		<path fill="#353535" d="M980.3,876.9c0,0,2.7,15.8-17.4,16.6c-6,0.2-13.9-0.2-13.3-13.4c0,0,1.7,9.2,12.6,9.7
			C972.6,888.1,977.7,883.8,980.3,876.9z"/>
		<path fill="#353535" d="M1000.6,868.1c0,0,7.2,2.1,12.5,14.4c5.3,8.8,12.8,9.8,16.6,8.9c2.3-0.8,4.2,0.4,9.1-5.2
			c0,0,3.8,13.8-10.7,11.1c-14.5-2.7-17-8.4-17.4-9.2c-0.3-0.9-0.2-3.6-4-10.6c0,0-2.2-4.6-5.3-6.2
			C1001.4,871.3,1000.3,869.5,1000.6,868.1z"/>
		<path d="M974,366.6c0,0-0.8,2,1,1.9c0,0,4.7-3,8.9,0.3c0,0,1.8-0.3,0.7-2.2C983.5,364.7,976.6,365,974,366.6z"/>
		<path d="M994.9,366.9c0,0-0.6,1.9,1.1,1.8c0,0,5-3.5,9-0.1c0,0,3,0.6,1.7-1.3C1003.8,362.7,996.9,365,994.9,366.9z"/>
		<path d="M977.3,368.8c-1.8,0.6-5.4,5.5,0.3,8.5c3,1.6,5.6-1.6,6-3.3c0.3-1.4,0.1-5-3-5.5C979.7,368.3,978.2,368.5,977.3,368.8z"/>
		<path d="M998.4,369.1c-1.9,0.6-5.7,5.3,0.3,8.2c3.2,1.5,5.9-1.6,6.3-3.2c0.4-1.4,0.1-4.9-3.1-5.3
			C1000.8,368.7,999.3,368.9,998.4,369.1z"/>
		<path d="M986.8,372c0,0-4.2-3.8-7.3-4c-3-0.2-7.4,4.8-7.8,5.8s-0.4,2.6-0.4,2.6s11,2.9,15.3-0.4C986.5,376,987.4,372.6,986.8,372z
			 M985.5,375.5c-0.4,0.5-12.7,1.2-12.7,0c0.1-1.2,1.3-2.8,1.3-2.8c1.3-3.4,5.4-3.5,5.4-3.5c1.6,0.4,6.1,2.7,6.2,3.5
			C985.8,373.5,985.9,375,985.5,375.5z"/>
		<path d="M993.5,375.7c4,3.6,15.2,1.5,15.2,1.5s0.2-1.6-0.2-2.6c-0.4-1-4.4-6.3-7.4-6.3c-3,0-7.5,3.5-7.5,3.5
			C992.9,372.3,993.5,375.7,993.5,375.7z M994.5,372.5c0.2-0.8,4.8-2.7,6.5-3c0,0,4.1,0.4,5.2,3.9c0,0,1.1,1.7,1.1,2.9
			c0,1.2-12.3-0.3-12.6-0.9C994.2,374.8,994.3,373.3,994.5,372.5z"/>
	</g>
	<g id="joe">
		<path fill="#CEC361" d="M770.8,384.2c0,0-1.6,15.7,17.8,12.8c18.5-2.8,17.5-10.3,18-12.4c0.5-2.4-6-3.9-6-3.9l0.9-12.4l0.5-4.9
			l-23,2.3l0.1,17.3L770.8,384.2z"/>
		<polyline fill="#CEC361" points="774.5,319.6 780.6,318 787.3,318 793.3,315.1 799,312.2 804,313.1 807.1,320 810.6,327.4 
			809.8,339.5 809.8,339.5 808.9,345.3 802.4,362 796,368.3 787.6,371.5 781.3,369 778.4,364.1 773.4,356.4 772.2,343.1 
			770.7,326.5 		"/>
		<path fill="#B5A84E" d="M733.3,857.7l8.2-2.7l9.7,2.4l5.8,2.3l3.9-0.6l-2.6,8.4l2.1,10.6c0,0-4.7-1.2-6.6,4.7
			c-4.3-3.1-6-2.7-6-2.7s-3.5-0.1-3.9,2.9c-1.8-2.9-4.3-1.6-4.3-1.6l-3,0.2l-2.4,2l-3-0.8l-2.5,0.9l-2.3-2.1l-1.8-1l8.4-9.7l1.9-6.6
			L733.3,857.7z"/>
		<path fill="#B5A84E" d="M786.9,849.5l-1.7,5.4l1.7,8.1l-0.7,5.2l-1,1.5l5.8,7.5l5.9,0.2l2.5,2l5.4-0.9c0,0,2.4,0.1,2.9,2.5
			c2.6-0.7,4.1,0.1,4.1,0.1l2,1.1c0,0,2.4-4.3,3.3-3s-9.8-9.1-8.1-21.9c-1.5-1.7-7.9-2.4-7.9-2.4l-9.8,0.5L786.9,849.5z"/>
		<path fill="#CEC361" d="M723.9,881.2c0,0-6.1,4.5,0.8,5.6C727.8,887.2,727.7,881.6,723.9,881.2z"/>
		<path fill="#CEC361" d="M753.3,883.7c0,0,2.4,4.2,5.4,4.1c1.6,0,3-0.5,5-4.8c1.7-3.6-2.5-6.4-6.2-5.1
			C755.7,878.7,754.2,881.3,753.3,883.7z"/>
		<path fill="#CEC361" d="M784.3,883.7c0,0,4.6,0.2,5.8-2.3c0.6-1.3,0.7-2.7-2.2-6.5c-2.5-3.2-6.6-1.2-6.9,2.5
			C780.8,879.2,782.6,881.7,784.3,883.7z"/>
		<path fill="#CEC361" d="M731.3,882.1c0,0-6.1,4.5,0.8,5.6C735.2,888.2,735.1,882.5,731.3,882.1z"/>
		<path fill="#CEC361" d="M810,880c0,0-6.1,4.5,0.8,5.6C813.9,886,813.8,880.4,810,880z"/>
		<path fill="#CEC361" d="M816.9,879.4c0,0-6.1,4.5,0.8,5.6C820.7,885.5,820.7,879.8,816.9,879.4z"/>
		<path fill="#CEC361" d="M738.7,880.5c0,0-8.4,4.7,1.1,5.8C744.1,886.9,744,881,738.7,880.5z"/>
		<path fill="#CEC361" d="M802.8,878.1c0,0-8.4,4.7,1.1,5.8C808.1,884.5,808.1,878.6,802.8,878.1z"/>
		<path fill="#CEC361" d="M744.2,882.3c0,0,3.9,9.3,8.4,2.2C754.6,881.4,746.4,878.3,744.2,882.3z"/>
		<path fill="#CEC361" d="M790.4,878.9c0,0,3.9,9.3,8.4,2.2C800.9,878,792.7,874.9,790.4,878.9z"/>
		<path fill="#FFFFFF" d="M778,355.6l7.5,1l7.5-0.2l6.5-0.5c0,0-2.1,3.7-4.9,4.4c-0.8,0.2-2.1,1.3-9.6,1.4S778,355.6,778,355.6z"/>
		<path fill="#CEC361" d="M769.8,332c1.8,0.2,2.5,16.8,2.5,16.8s8.1,14.6-1.7-1.3s-1-15.5-1-15.5"/>
		<path fill="#CEC361" d="M811.3,335.7c0,0,8.9,1,2.3,11.8c0,0-2.1,4.6-5.7,2.8L811.3,335.7z"/>
		<path fill="#005A99" d="M897.1,483.4c-8.2-22.3-38-59.8-46.2-69.8c-6.8-10.9-21.7-19.1-21.7-19.1c1.4,0.4-2-15.8-2-15.8
			c-4.8-17.3-22.5-20.2-22.5-20.2l-2.1,4.8c0,0,5.2,0.3,10.4,10s-4.1,23.3-4.1,23.3l-9.1,11.7l-6.3,26.2c-2,2.7-2.2,18.9-0.7,21.8
			s1.6,35.2,1.6,35.2c1.9,38.5-8.3,62.7-8.3,62.7c-7.6,19.8-1.7,24-1.7,24c9.4,8.6,28.1,8.5,28.1,8.5c19.8,1.8,17.5,16.2,17.5,16.2
			c4.2-4.2,4.4-39,4.4-39l22.7-3.7c25.9-3.7,36.2-11.2,36.2-11.2C922.7,532.9,897.1,483.4,897.1,483.4z M848.2,537l-13.2,6.8
			l1.2-94.8c0,0,13.2,13.5,21.5,31.7c0,0,14.3,21.2,20,39.6C877.7,520.4,870,522.5,848.2,537z"/>
		<g>
			<path fill="#005A99" d="M777.3,363l-2.3-2.7c0,0-21.3,2.3-30.5,25.7l0.1,4.5c0,0-20.7,9.1-23.4,15.5l-2.2,4
				c0,0-4.6-3.5-29.9,25.3s-26.9,42.4-28.7,42.7s-13.5,32,2.9,33.3c0,0,17.6,7.8,54.5,1.5c0,0,4.5-0.6,10.7-1.7l0,0L714.9,575
				c-4,28,10.1,21.7,10.1,21.7l-0.6-0.8c-6.3-14.8,19.9-9.7,26.3-13.9s10-22.9,10-22.9c4.2-14.6-3.5-36.3-3.6-36.9s-3-17.6-3-17.6
				l-0.2,0c4.3-1.8,7.7-3.9,9-6.2c0,0,3.3-3.9-3.6-12.7c0,0-4.4-5.2,0.2-6.5l-5.1,0.3c0,0,1.7-26.8,10.1-44.2s12.1-22.1,8-31.2
				s-10.2-9.5-13.4-19c-3.2-9.3,7.7-17.9,17.4-19.5c0.1,0,0.1,0,0.2,0c-0.1,0-0.1,0-0.1,0L777.3,363z M683.8,491
				c18.7-30.8,49.1-50.7,49.1-50.7c1.9,5.3-0.8,43.5-0.8,43.5C717.8,490.7,683.8,491,683.8,491z"/>
		</g>
		<path fill="#2D2D2D" d="M722,887c0,0,4.8,10.5,38,2c0,0,3.4,3.7-3.9,7.6s-32.2,4-36.2-3S721.8,885.9,722,887z"/>
		<path fill="#2D2D2D" d="M819.7,885.3c0,0-4.8,9.6-35.5,0.8c0,0-3.3,3.4,3.4,7.1c6.7,3.8,30,4.6,33.9-1.7
			C825.4,885.1,820,884.3,819.7,885.3z"/>
		<path fill="#CEC361" d="M761.3,479.2c0,0,14-3.5,21.4-3.9c0,0,5.3-0.9,6.1-0.6c0,0,3.2,0.1,7.2,1.3c2,0.6,4.5,1.2,4.9,3.5
			c0,2,1.5,1.2,3,3.5c-1.2,2.3-1.5,2.9-1.5,2.9s-2.6,3.6-3.6,3.6l-5.3,0.5c0,0,0,1.9-4.8,3c0,0-3.4,7.4-12.1,6s-12.7-3.9-12.7-3.9
			s0-3.6-3.4-8.2S757.4,478.8,761.3,479.2z"/>
		<path fill="#333333" d="M777.7,365.7l1.8,17.3c0,0-10.4,1.9-15,3.7c-0.2,2.6-0.2,2.2-0.7,5.1C759.9,392,749.3,371.3,777.7,365.7z"
			/>
		<path fill="#333333" d="M803,363.3c0,0,16,7.7,10.7,22.6l-13.6-4.9L803,363.3z"/>
		<path fill="#B75925" d="M804.3,472.5c0,0,8,4.7,20.6-1.3c0,0,0.9,24.4,1.6,25c0,0,1.7,8.3-20.9,3c0,0-2.2-14.3-1.7-27"/>
		<path fill="#383720" d="M804.1,471.2c2-1.2,10-7.1,20.6-0.5C811,478.3,802.4,471.7,804.1,471.2z"/>
		<path d="M765,401.8c0,0-3.6-4.1-7.5,2.4s2.4,15.9,6.7,15.8s3.8,2,4.5-5.2C768.3,407,765,401.8,765,401.8z"/>
		<path d="M800.1,408.7c0,0,7.8-0.4,6.5,8.9c0,0-6.8,7.1-12.4,7.2s-5.3-4-2.9-6.7L800.1,408.7z"/>
		<g>
			<path fill="#382947" d="M754.7,577.3c0,0,11.9-5.3,29.5,1c0,0,3.8,7.9,20.6,7.1s26.4,11.3,24.6,12.4l-1.8,8.1l-0.3,95.6
				l-2.8,62.6c0,0-4.7,61.7-5.9,60.2c0,0-4.7,32.7-9.1,32s-5.8-2.3-15-1s-9-7.3-8.5-21L778,717.7l-8.3-90l-1-0.4l-0.6,77.3
				l-1.4,62.7l-0.6,53.5l1.3,21.5c0,0,1.9,10.9-6.4,16.3c0,0-1.6,3.8-16.4-3.5c0,0-5.2-0.5-11.5,2c0,0-11.4-32.7-11.7-56.6
				c0,0-3.6-61.9-5-98.4c0,0-2.7-67.7,6.2-109c0,0,0.3-2.4,2.6-5.2c0,0,2.8-3.1,22-4.6C747.2,583.3,751.5,583.5,754.7,577.3z"/>
			<g>
				<path d="M735.9,608.3c-2.4,3-5.3,5.4-7.7,8.3c-1.2,1.5,0.9,3.6,2.1,2.1c2.4-3,5.3-5.4,7.7-8.3
					C739.3,608.9,737.1,606.8,735.9,608.3L735.9,608.3z"/>
			</g>
			<g>
				<path d="M727.7,612.8c1.5,2.6,2.9,5.3,5.2,7.3c1.4,1.3,3.6-0.8,2.1-2.1c-2.1-1.9-3.4-4.3-4.8-6.7
					C729.3,609.6,726.7,611.1,727.7,612.8L727.7,612.8z"/>
			</g>
			<g>
				<path d="M754,589.6c-1.2,1.7-2.5,3.4-3.8,5c-0.5,0.6-0.6,1.5,0,2.1c0.5,0.5,1.6,0.6,2.1,0c1.5-1.8,2.9-3.7,4.2-5.6
					C757.7,589.5,755.1,588,754,589.6L754,589.6z"/>
			</g>
			<g>
				<path d="M748.6,589.4c0.8,3,2.4,5.6,4.4,8c1.2,1.5,3.3-0.6,2.1-2.1c-1.6-2-2.9-4.2-3.6-6.7C750.9,586.7,748,587.5,748.6,589.4
					L748.6,589.4z"/>
			</g>
			<g>
				<path d="M808.6,602.9c-2,2.3-4.4,4.1-6.7,6c-1.5,1.3,0.7,3.4,2.1,2.1c2.3-1.9,4.7-3.7,6.7-6C812,603.6,809.9,601.5,808.6,602.9
					L808.6,602.9z"/>
			</g>
			<g>
				<path d="M800.4,603.8c1.8,2.5,3.6,4.9,5.3,7.3c1.1,1.6,3.7,0.1,2.6-1.5c-1.8-2.5-3.6-4.9-5.3-7.3
					C801.8,600.7,799.2,602.2,800.4,603.8L800.4,603.8z"/>
			</g>
			<g>
				<path d="M811.7,632.6c-1.4,3.3-4.1,5.7-6.8,8c-1.5,1.3,0.7,3.4,2.1,2.1c2.8-2.5,5.7-5.1,7.2-8.6
					C815,632.3,812.5,630.8,811.7,632.6L811.7,632.6z"/>
			</g>
			<g>
				<path d="M804.6,633.4c2.9,2.4,4.3,5.9,6.7,8.7c1.2,1.5,3.4-0.7,2.1-2.1c-2.4-2.8-3.8-6.3-6.7-8.7
					C805.2,630.1,803.1,632.2,804.6,633.4L804.6,633.4z"/>
			</g>
			<g>
				<path d="M789.2,649.2c-2,3.5-4,7-5.2,10.9c-0.6,1.9,2.3,2.6,2.9,0.8c1.1-3.6,3-6.9,4.8-10.1
					C792.8,649.1,790.2,647.6,789.2,649.2L789.2,649.2z"/>
			</g>
			<g>
				<path d="M783.7,656.3c2,1.5,3.9,3,5.7,4.8c1.4,1.4,3.5-0.8,2.1-2.1c-2-1.9-4.1-3.6-6.3-5.2C783.7,652.5,782.2,655.1,783.7,656.3
					L783.7,656.3z"/>
			</g>
			<g>
				<path d="M777.7,603.7c-2.3,1.7-4.3,3.7-6,6c-0.5,0.7-0.1,1.7,0.5,2.1c0.8,0.5,1.6,0.1,2.1-0.5c1.4-1.9,3.1-3.5,5-5
					c0.6-0.5,1-1.3,0.5-2.1C779.4,603.6,778.4,603.2,777.7,603.7L777.7,603.7z"/>
			</g>
			<g>
				<path d="M769.7,608.3c2.7,1.4,5.4,2.9,8,4.5c1.7,1,3.2-1.6,1.5-2.6c-2.6-1.6-5.3-3.1-8-4.5C769.5,604.8,768,607.4,769.7,608.3
					L769.7,608.3z"/>
			</g>
			<g>
				<path d="M752.7,669.7c-1.4,2.4-3.1,4.5-4.8,6.7c-1.2,1.5,0.9,3.6,2.1,2.1c1.9-2.3,3.7-4.7,5.2-7.3
					C756.3,669.6,753.7,668.1,752.7,669.7L752.7,669.7z"/>
			</g>
			<g>
				<path d="M746.9,671.6c2.6,2.6,4.7,5.6,7.5,8c1.5,1.3,3.6-0.9,2.1-2.1c-2.8-2.4-4.9-5.4-7.5-8
					C747.7,668.1,745.6,670.2,746.9,671.6L746.9,671.6z"/>
			</g>
			<g>
				<path d="M726.6,655.1c-1,2.6-2,5.4-3,8c-0.7,1.8,2.2,2.6,2.9,0.8c1-2.6,2-5.4,3-8C730.2,654.1,727.3,653.3,726.6,655.1
					L726.6,655.1z"/>
			</g>
			<g>
				<path d="M722.7,658.3c2.3,1.4,4.4,2.9,6.5,4.5c1.5,1.2,3-1.4,1.5-2.6c-2.1-1.6-4.2-3.1-6.5-4.5
					C722.6,654.7,721.1,657.3,722.7,658.3L722.7,658.3z"/>
			</g>
			<g>
				<path d="M760.6,721.6c-1,2.9-2.3,5.5-3.8,8.1c-1,1.7,1.6,3.2,2.6,1.5c1.7-2.8,3.1-5.8,4.2-8.9
					C764.1,720.6,761.2,719.8,760.6,721.6L760.6,721.6z"/>
			</g>
			<g>
				<path d="M754.4,722.6c3,2.6,5,6,7.5,9c1.2,1.5,3.3-0.6,2.1-2.1c-2.5-3-4.5-6.4-7.5-9C755.1,719.2,753,721.3,754.4,722.6
					L754.4,722.6z"/>
			</g>
			<g>
				<path d="M796.2,708.2c-1.6,3.7-4,7-6,10.5c-1,1.7,1.6,3.2,2.6,1.5c2-3.5,4.4-6.8,6-10.5C799.6,708,797,706.5,796.2,708.2
					L796.2,708.2z"/>
			</g>
			<g>
				<path d="M788.7,714.8c2.4,1.4,4.8,2.8,7,4.5c1.6,1.2,3.1-1.5,1.5-2.6c-2.2-1.7-4.6-3.1-7-4.5
					C788.6,711.2,787.1,713.8,788.7,714.8L788.7,714.8z"/>
			</g>
			<g>
				<path d="M811.2,675.7c-2.1,3.1-4.1,6.3-6,9.5c-1,1.7,1.6,3.2,2.6,1.5c1.9-3.2,3.9-6.4,6-9.5
					C814.9,675.6,812.3,674.1,811.2,675.7L811.2,675.7z"/>
			</g>
			<g>
				<path d="M803.9,683.6c1.6,1.5,3.5,2.5,5.3,3.7c1.6,1.1,3.1-1.5,1.5-2.6c-1.6-1-3.3-1.9-4.7-3.3
					C804.7,680.1,802.5,682.2,803.9,683.6L803.9,683.6z"/>
			</g>
			<g>
				<path d="M820,739.5c0,4.1,0,8.1-0.9,12.1c-0.4,1.9,2.5,2.7,2.9,0.8c1-4.2,1.1-8.6,1.1-12.9C823,737.6,820,737.6,820,739.5
					L820,739.5z"/>
			</g>
			<g>
				<path d="M819,748.5c1.7,0,3.3,0,5,0c1.9,0,1.9-3,0-3c-1.7,0-3.3,0-5,0C817.1,745.5,817.1,748.5,819,748.5L819,748.5z"/>
			</g>
			<g>
				<path d="M798.7,756.2c-2,3.4-4.5,6.6-6.5,10c-1,1.7,1.6,3.2,2.6,1.5c2-3.4,4.5-6.6,6.5-10C802.3,756.1,799.7,754.6,798.7,756.2
					L798.7,756.2z"/>
			</g>
			<g>
				<path d="M791.7,760.3c3.1,2.3,5.7,5.3,8.7,7.8c1.5,1.2,3.6-0.9,2.1-2.1c-3.2-2.7-5.9-5.8-9.3-8.2
					C791.7,756.6,790.2,759.2,791.7,760.3L791.7,760.3z"/>
			</g>
			<g>
				<path d="M818.4,798.4c-2,2-4.1,4.1-5.2,6.8c-0.7,1.8,1.8,3.3,2.6,1.5c1-2.5,2.9-4.3,4.8-6.2
					C821.9,799.2,819.8,797.1,818.4,798.4L818.4,798.4z"/>
			</g>
			<g>
				<path d="M810.9,797.1c2.6,3.1,5,6.7,5.6,10.8c0.3,1.9,3.2,1.1,2.9-0.8c-0.7-4.6-3.5-8.6-6.4-12.2
					C811.8,793.4,809.7,795.6,810.9,797.1L810.9,797.1z"/>
			</g>
			<g>
				<path d="M795,825c0,4,0,8,0,12c0,1.9,3,1.9,3,0c0-4,0-8,0-12C798,823.1,795,823.1,795,825L795,825z"/>
			</g>
			<g>
				<path d="M794.4,829.6c1.9,1.9,3.6,4.1,5.5,6c1.4,1.4,3.5-0.7,2.1-2.1c-1.9-1.9-3.6-4.1-5.5-6
					C795.2,826.1,793.1,828.2,794.4,829.6L794.4,829.6z"/>
			</g>
			<g>
				<path d="M793.5,790c0,2.7,0,5.3,0,8c0,1.9,3,1.9,3,0c0-2.7,0-5.3,0-8C796.5,788.1,793.5,788.1,793.5,790L793.5,790z"/>
			</g>
			<g>
				<path d="M791,795c2.9,0,5.8,0,8.6,0.4c1.9,0.3,2.7-2.6,0.8-2.9c-3.1-0.5-6.2-0.6-9.4-0.6C789.1,792,789.1,795,791,795L791,795z"
					/>
			</g>
			<g>
				<path d="M811.4,714.6c1.9,1.5,3.1,3.5,3.6,5.8c0.4,1.9,3.3,1.1,2.9-0.8c-0.6-2.8-2.1-5.4-4.4-7.2
					C812.1,711.3,809.9,713.4,811.4,714.6L811.4,714.6z"/>
			</g>
			<g>
				<path d="M814.4,720.9c0.9-2.3,1.9-4.5,3.6-6.3c1.3-1.4-0.8-3.5-2.1-2.1c-2.1,2.2-3.3,4.9-4.4,7.7
					C810.8,721.9,813.7,722.7,814.4,720.9L814.4,720.9z"/>
			</g>
			<g>
				<path d="M749.5,694.5c0,3-0.5,6-1.8,8.7c-0.8,1.7,1.8,3.3,2.6,1.5c1.5-3.2,2.2-6.7,2.2-10.3
					C752.5,692.6,749.5,692.6,749.5,694.5L749.5,694.5z"/>
			</g>
			<g>
				<path d="M746.5,699.5c2.6,0.1,5,1,7.2,2.3c1.7,1,3.2-1.6,1.5-2.6c-2.7-1.6-5.6-2.6-8.8-2.7C744.6,696.5,744.6,699.5,746.5,699.5
					L746.5,699.5z"/>
			</g>
			<g>
				<path d="M722.1,682.6c-0.5,3-1.1,6.1-2,9c-0.6,1.8,2.3,2.6,2.9,0.8c0.9-2.9,1.5-6,2-9C725.3,681.5,722.4,680.7,722.1,682.6
					L722.1,682.6z"/>
			</g>
			<g>
				<path d="M719,689c2.2,0,4.3,0.4,6.2,1.3c1.7,0.8,3.3-1.8,1.5-2.6c-2.4-1.2-5.1-1.7-7.8-1.7C717.1,686,717.1,689,719,689L719,689
					z"/>
			</g>
			<g>
				<path d="M724,714.5c0,2.2,0,4.3,0,6.5c0,1.9,3,1.9,3,0c0-2.2,0-4.3,0-6.5C727,712.6,724,712.6,724,714.5L724,714.5z"/>
			</g>
			<g>
				<path d="M723,720.5c1.7,0,3.3,0,5,0c1.9,0,1.9-3,0-3c-1.7,0-3.3,0-5,0C721.1,717.5,721.1,720.5,723,720.5L723,720.5z"/>
			</g>
			<g>
				<path d="M758.2,779.2c-2.6,1.6-4.9,3.4-7.5,5c-1.6,1-0.1,3.6,1.5,2.6c2.6-1.6,4.9-3.4,7.5-5
					C761.4,780.8,759.9,778.2,758.2,779.2L758.2,779.2z"/>
			</g>
			<g>
				<path d="M750.4,782.1c2.5,2,4.8,4.3,6.3,7.2c0.9,1.7,3.5,0.2,2.6-1.5c-1.6-3.1-4-5.6-6.7-7.8
					C751.1,778.7,748.9,780.8,750.4,782.1L750.4,782.1z"/>
			</g>
			<g>
				<path d="M740,736.5c0,2.6-0.5,5.1-0.9,7.6c-0.4,1.9,2.5,2.7,2.9,0.8c0.5-2.8,1-5.6,1.1-8.4C743,734.6,740,734.6,740,736.5
					L740,736.5z"/>
			</g>
			<g>
				<path d="M736,743.5c3.5,0,7,0,10.5,0c1.9,0,1.9-3,0-3c-3.5,0-7,0-10.5,0C734.1,740.5,734.1,743.5,736,743.5L736,743.5z"/>
			</g>
			<g>
				<path d="M735.7,760.7c-2.5,1.4-4.1,4.1-4.7,6.9c-0.4,1.9,2.5,2.7,2.9,0.8c0.4-2,1.4-4.1,3.3-5.1
					C739,762.4,737.4,759.8,735.7,760.7L735.7,760.7z"/>
			</g>
			<g>
				<path d="M730.1,761.9c1.2,3.3,3.2,6,5.9,8.2c1.5,1.2,3.6-0.9,2.1-2.1c-2.3-1.8-4.1-4.1-5.1-6.8
					C732.3,759.3,729.4,760.1,730.1,761.9L730.1,761.9z"/>
			</g>
			<g>
				<path d="M731.4,797.2c-2.1,4.2-4.1,8.5-5.5,13c-0.6,1.8,2.3,2.6,2.9,0.8c1.4-4.3,3.2-8.3,5.2-12.3
					C734.8,797,732.2,795.5,731.4,797.2L731.4,797.2z"/>
			</g>
			<g>
				<path d="M725.6,802.8c3.7,0.8,5.6,4.4,8.3,6.6c1.5,1.2,3.6-0.9,2.1-2.1c-3.2-2.6-5.3-6.5-9.7-7.4
					C724.5,799.5,723.7,802.4,725.6,802.8L725.6,802.8z"/>
			</g>
			<g>
				<path d="M755.9,817.9c-0.7,2.9-2.5,5.3-3.8,8c-0.9,1.7,1.7,3.2,2.6,1.5c1.5-2.9,3.4-5.5,4.2-8.7
					C759.2,816.9,756.4,816.1,755.9,817.9L755.9,817.9z"/>
			</g>
			<g>
				<path d="M750.6,821.3c2.7,2.1,5.3,4.3,8.3,6c1.7,1,3.2-1.6,1.5-2.6c-3-1.7-5.6-3.9-8.3-6C750.5,817.5,749.1,820.1,750.6,821.3
					L750.6,821.3z"/>
			</g>
		</g>
		<g>
			<path d="M810.7,464.1c-1.1-4.2-1.8-8.1-0.5-12.4c0.8-2.8,2-5,2-7.9c0-1-1.5-1-1.5,0c0,3.9-2.3,6.8-2.7,10.6
				c-0.3,3.5,0.3,6.7,1.2,10.1C809.5,465.4,811,465,810.7,464.1L810.7,464.1z"/>
		</g>
		<g>
			<path d="M817.5,461.7c-4.2-3.9,0.8-13.1,2.4-17.5c2.4-6.6,3-13.8,3-20.8c0-1-1.5-1-1.5,0c-0.1,9.1-1.8,17.1-4.9,25.5
				c-1.5,4-3.8,10.3-0.1,13.8C817.2,463.4,818.2,462.4,817.5,461.7L817.5,461.7z"/>
		</g>
		<path d="M779.1,378.3c0,0-14.7-0.6-13.3,11.8l4.2,25.2l-1.4,0.3c0,0-4.6-19.7-4.4-19.9c0,0-1.9-9.2,1.9-14.8s13-4.8,13-4.8
			L779.1,378.3z"/>
		<path d="M800.6,377.9c0,0,8.3,1.5,10.4,5.6s2.4,3.4-2.4,8.8s-6.9,8.1-7.6,9.5s-7.8,11.7-7.8,11.7l-2.6,2.8l1.2,1.1l8.9-10.4
			c0,0,8.4-7.4,11.2-13.3s4-9,3-10.7s-3.6-6.7-13.9-7.1L800.6,377.9z"/>
		<g>
			<path d="M793.2,466.1c-3.7-14.2-4.6-14.9-6.2-15.9c-1.1-0.7-2.4-1.6-4.7-5.8c-6.3-11.1,7.1-22,7.3-22.1l0.6,0.8
				c-0.1,0.1-12.9,10.5-7,20.9c2.2,3.9,3.4,4.8,4.4,5.4c1.8,1.2,2.8,1.9,6.6,16.5L793.2,466.1z"/>
		</g>
		<path fill="#3A3A3A" d="M805.8,317c0,0,8.3-7.4-0.3-16.5s-24.8-2.6-24.8-2.6s-8.6,5.1-11,9.4c0,0,0.4,2.4-1.6,5.9
			s-0.8,10.2-1,10.7s2.7,7.1,2.7,7.1l1.4,0.3c0,0-2-6.2,3.8-11.8c0,0,1.4-1.6,13.1-1.4c0,0,5-0.9,6.8-3.3c0,0,3.8-3.3,8-2.3
			L805.8,317z"/>
		<path fill="#3A3A3A" d="M809.3,306.7c0,0,2.8-2.7,3.3,0c0,0,1.8-0.1,2.6,4s-0.8,4.4,0.3,8.3s1.6,10.9,0.5,11.3l-3.1,5.9l-1.8-0.8
			c0,0-0.2-5.9-0.7-8s-4.8-8.3-4.8-9.3s4.6-4.2,3-5.7s-0.3-5.4-0.3-5.4L809.3,306.7z"/>
		<g>
			<path d="M808.5,341.6c-4.4,0-11.9-0.3-13.2-2.3c-1.2-1.2-1.3-1.7-1.4-2.9c0-0.6-0.1-1.4-0.4-2.7c-0.2-0.3-0.9-1.3-2.2-1.3
				c-0.7,0-1.4,0.3-2.1,0.9c0,0.8-0.1,3.3-1.9,5.4c-1.1,1.2-7.2,2.1-10.8,2.1c-3.6,0-4.3-0.8-4.5-1c-2.2-2.6-2.4-6.4-2.4-6.5l0-0.3
				l0.3-0.1c0.2-0.1,5-2.6,11.5-2.6c2.4,0,4.7,0.3,6.9,1c0.4-0.1,1.6-0.5,2.9-0.5c1.7,0,2.6,0.6,3,1.3c1.1-0.4,4.3-1.4,8-1.4
				c3.8,0,6.9,1,9.4,3l0.2,0.1l0,0.2c0.7,5.8-2.1,7.5-2.2,7.6l-0.1,0.1l-0.1,0C809.4,341.6,809.1,341.6,808.5,341.6z M794.3,333
				c0.1,0.1,0.1,0.2,0.1,0.2l0.1,0.1c0.3,1.4,0.4,2.3,0.4,2.9c0.1,1.1,0.1,1.3,1.1,2.3l0.1,0.1c0.7,1.1,5.6,1.9,12.4,1.9
				c0.3,0,0.5,0,0.6,0c0.4-0.3,2.2-1.9,1.7-6.3c-2.2-1.8-5.1-2.6-8.6-2.6C798.4,331.6,794.9,332.8,794.3,333z M770.7,333.5
				c0.1,0.9,0.5,3.7,2.1,5.6c0.3,0.3,1.4,0.7,3.7,0.7c4.2,0,9.4-1,10-1.8c1.9-2.2,1.7-4.9,1.7-5l0-0.3l0.2-0.2
				c0.3-0.2,0.5-0.4,0.8-0.6c-0.4,0.1-0.7,0.2-0.7,0.2l-0.2,0.1l-0.2-0.1c-2.2-0.7-4.4-1-6.8-1C776.1,331.2,771.8,333,770.7,333.5z"
				/>
		</g>
		<path d="M753.5,885.5c0,0-0.2-5.4,6.2-11.3l-0.9-2.1c0,0-2.9,1.6-5.5,7.3v1.7c0,0-14.1-13.9-21.2-8.5l-4.4,5c0,0,15.8-6.7,25,4.4
			l-0.1,3.4H753.5z"/>
		<path d="M791.6,880.6l0.5-3.7c0,0,8.7-8,23-1l-3.8-5.8c0,0-5.2-4.9-19.3,4.9l-1.3-0.3c0,0-2.7-6.8-4.6-6.6l-0.5,2.4
			c0,0,1.4,0.4,5,6.4l0.1,4.1L791.6,880.6z"/>
		<path fill="#B75925" d="M803.8,475.1v-2c0,0-5.3-6.4-7.2,6.1c0,0.1,0,0.1,0,0.2c0.6,0.4,1.2,0.5,2.1,0.5
			C800.4,471.3,801.4,474,803.8,475.1z"/>
		<path fill="#B75925" d="M798.7,489.5c-0.8,0.1-1.7,0-2.3,0.3c0.1,0.4,0.3,0.7,0.4,1c0,0,2.5,5.2,8.3,4.7l-0.2-1.9
			C804.9,493.6,800.5,493.2,798.7,489.5z"/>
		<polyline points="782,369.3 787.8,370.3 795.3,368.5 795.3,370 793.1,371.5 789.4,372.6 788.1,373.6 784.4,372.8 783.4,371.5 		
			"/>
		<polygon points="778,353.5 788.7,351.5 798.3,354.9 788.7,353.2 786.5,353.2 		"/>
		<path d="M773.4,326.5c0,0,6-3.4,8.3-3l0.3,1.8c0,0-7,2.2-8.4,3.8l-0.9-1L773.4,326.5z"/>
		<path d="M800.3,325.1c0,0,5.7,0.1,7.3,2.8c0,0,0.3,2.3-1.5,1.6s-2.8-2.2-5.3-1.8l-0.8-1L800.3,325.1z"/>
		<path d="M778.1,332.9c0,0,4.3-2.1,6,0.8c0,0,0.5,1.1-1.1,1c0,0-1.2-2.1-4.5-0.6C778.5,334.2,777.3,334.3,778.1,332.9z"/>
		<path d="M798.6,334c0,0,5.4-1.1,6.2,2.2c0,0-0.2,1.2-1.3,0.5s-0.4-1.9-4.6-1.3C798.9,335.4,797.8,334.9,798.6,334z"/>
	</g>
	<g>
		<path fill="#C1A868" d="M1187.1,343l-5.2,3.3v6l-3.5,5l-0.7,11.3l-1.6,13.4l3.8,10l6,7.5l12.1,1.1l9.1-2.1l8.5-4.5
			c0,0,5.1-3.3,5.6-10.5c0.5-7.1-0.6-9.7-0.6-9.7l2.6-7.6L1187.1,343z"/>
		<path fill="#C1A868" d="M1173.6,415.6c0,0,1.1,11.4,19.7,11.7c6.3,0.1,17.2,0.8,23.3-9.8c0,0-8.1-3.5-8.7-7.1l2.2-13.5l-12.5,3.4
			l-11.7-0.9c0,0,1,8-0.3,10.1C1183.9,412.6,1173.6,415.6,1173.6,415.6z"/>
		<path fill="#C1A868" d="M1118.4,481.7l25.3,5.5l-4.2,10.8l-17.2,34.2c0,0-8,14.3-7.5,29.7c-1.9,15.5-5.5,23.8-7.7,30.5
			c-2.2,6.7-5.1,16.4-5.1,16.4s4.4,6.7,6.8,6.5c5.3,2.4,4,4.5,12.3,8l3.2,4.4l0.8,2.7l-2.9,0.4l-2.8-1.4l-5-3.4l-3.4-1.6l0.2,8.6
			l-0.1,4.5l-2.2,6.5l-0.4,2.2l1.4,8.3l0.5,6.1c0,0-0.7,3.1-1.4,2.6c-0.6-0.6-2.5-2.5-2.6-6.9l-0.5,0.1c0,0-1.6,6.7-2.5,6.1
			c-0.9-0.6-1.6-3.2-2-6.4c-1.9-3.2-2.2-1.1-5.2-5.7c0,0-0.5-3.7-1.5-4.2c-1-0.6-1.8-5.6-1.5-7.2c0.4-1.7,0.7-16,0.7-16
			s-1.2-11.2-1.4-21.2s4.3-45.3,4.3-45.3l8.2-34.6l3.1-12.1C1108.2,509.8,1115.4,485.9,1118.4,481.7z"/>
		<path fill="#FFFFFF" d="M1183.3,388.4l13.9,1l7.7,0.2l7.7-0.5c0,0-4.4,5-5.2,5.1c-0.8,0.1-3.4,2-11.1,2.4
			C1185.2,397.1,1183.3,388.4,1183.3,388.4z"/>
		<g>
			<path fill="#C1A868" d="M1268.7,537.4c0.5-4.3,0.6-8.7,0.6-13.4c0-7.5,0.3-14.9,0-22.4c-0.3-6.3-2-12.6-1.7-18.9
				c-12.1-6.5-22.3,4.3-22.3,4.3c2,15.2,5.2,31.2,3.6,46.6L1268.7,537.4z"/>
		</g>
		<path fill="#FFFFFF" d="M1173.6,415.6c0,0,0.3,10.2,17,11.8s24.5-7.5,26.1-9.8c0,0,24.6,6.3,28.3,7c6.1,1.3,13.7,6.3,18.5,19.4
			c3.4,9.4,7.1,34.8,7,41.1c-2.6,2.3-27.6,5.2-27.6,5.2L1241,475l-1,22.5l-1.2,19.6l0,32.9l2.1,23.4l2.6,8.8l-1.9,7.8
			c0,0-3.5-4.7-16.2-4l-26.4,0.7c0,0-32.2-3.4-32.4-2.5c0,0-15-0.5-16.3,4.6c0,0-2.8-0.7-2.1-15.5s3.6-54,3.6-54l1.9-34l0-10.6
			l-7.8,13.2l-30.3-6.8l5.2-20l8.1-21.6c0,0,4.4-11.3,11.2-13.9L1173.6,415.6z"/>
		<path fill="#29301E" d="M1149.5,591.4l0.8-2.5c0,0,1.9-7,24.6-4.2l22.5,2.3l24-1c0,0,13.6-0.4,18.5,2.9l19,98.4l0.9,5
			c0,0,16.5,1.5,16.5,9.8c0,0,2.7,21.6,2.9,22.6c0.2,1,3,14.3,1.9,14.4s1.1,10.9-8.6,15.3l-4.4-1.4l1.7,35.8c0,0-2,42.3-7.4,67.8
			c0,0-2.2,0.8-21.4-7.2l-10.6-1.5l-7.6-20.8l-5-22.5l-4-28.2l-1.9-32.8l-1.9-34.4l-3-27.3l-7.4-32.5l-5.2-29.4v-1.8h-3.1l-1.7,17.2
			l-4.3,47l-0.9,32.6l2.4,91.2c0,0,0.1,35.9-1.4,35.5c0,0-0.2,2.4-8.3,7.3c0,0-2,3.4-15.4,0.2c0,0-1.1-1.6-10.9,1
			c0,0-7.8,2.2-11.3-0.6c0,0-4-2.6-5.2-21.4l-2.7-27.9l0.9-49c0,0-11.6,4.2-13.5-15.7l-0.8-19.6l-0.4-5.8l5.3-6.9l14.3-10.3l3-37.4
			C1140.5,656,1148.2,590.4,1149.5,591.4z"/>
		<g>
			<path fill="#C1A868" d="M1249.1,531.4c-0.3,2.4-0.8,4.7-1.6,7c-2.7,7.8-6.7,15-8.7,22.8c-2.7,11-3.7,22.8-7.7,33.5l-3.4,12.3
				c0,0,7.4,16.3,13.8,13.6c1.7-4.7,0.6-11.6,1.6-17c0.2-1.2,1.6-2.1,2.2-3.2c0.6-1.2,0.2-2.7,0.8-3.9c6.9-13,14.5-25.7,18.7-39.7
				c2.3-7.7,3.5-14.9,4-22.4C1268.9,534.4,1254.4,527,1249.1,531.4z"/>
		</g>
		<path fill="#5D6326" d="M1171.3,585.2l4,0.2c0,0-5.3,32.7-10.4,34.9c0,0-5.5,6.5-21.7,7.7l1-4.1c0,0,9.8-0.6,17.1-8.1
			S1170.7,584.6,1171.3,585.2z"/>
		<path fill="#5D6326" d="M1118.2,716.4c0,0,7.8,2.2,17.5-5.4l-2.7,40.8c0,0-15.8,5.5-14-25.3L1118.2,716.4z"/>
		<path fill="#5D6326" d="M1277.4,714.6c0,0-3.5,0.6-14.5-3.8l5.9,43.2c0,0,14.6,5.1,11.6-25.5L1277.4,714.6z"/>
		<g>
			<path fill="#EEFF2F" d="M1164,459.5c0,20.3,1.5,40.5,1.5,60.8c0,8,12.4,8,12.4,0c-0.1-20.3-1.5-40.5-1.5-60.8
				C1176.4,451.5,1164,451.5,1164,459.5L1164,459.5z"/>
		</g>
		<g>
			<path fill="#DB2A00" d="M1186.2,458.4c-0.3,23.5,0.7,47,0.4,70.4c-0.1,8,12.3,8,12.4,0c0.3-23.5-0.7-47-0.4-70.4
				C1198.7,450.5,1186.3,450.5,1186.2,458.4L1186.2,458.4z"/>
		</g>
		<g>
			<path fill="#0057B6" d="M1214.5,458.6c-2.6,20.1-3.9,40.4-6.6,60.5c-1,7.9,11.3,7.8,12.4,0c2.6-20.1,3.9-40.4,6.6-60.5
				C1227.9,450.7,1215.5,450.8,1214.5,458.6L1214.5,458.6z"/>
		</g>
		<path fill="#C1A868" d="M1177.7,362.3c0,0-8.4-3.1-4.4,11.3c0.4,1.3,2.1,3,2.1,3S1179.3,371.8,1177.7,362.3z"/>
		<path fill="#C1A868" d="M1222.5,368.6c0,0,4.2-2.3,4.9-1.8c0.7,0.4,3.8,1.9,0,9.1c0,0-5.1,5.9-6.4,5
			C1221,380.8,1221,370,1222.5,368.6z"/>
		<path fill="#3A3A3A" d="M1178.2,360.9c0,0,0.1-6.1,1.3-5.2c0,0,5.1-3.9,2.4-4.9c0,0-1.1-5.4,1.7-5.6c0,0,2.5,0.4,3.5-2.2
			c0,0,0.5-1.9,3.4,2.2c0,0,1.5,0.7,3.8,0c0,0,1.1,6.2,7.1,7.3c0,0,3.1,0.9,3-4.9l-1.8,5.4c0,0,0.3,2,1.8,2c1.4,0,2.6-0.2,3.6-0.4
			c1-0.3-1.2,5.8,0,4.6c0,0,3.1,1.7,3.6-0.4l1.8,1.1l6.8,4.4c0,0-0.6,1.6,3.3,1.4l-0.8,2.1l4.7-2.1l2.8,0.2c0,0-1.1-2.1,3.2-4.1
			c4.3-2,1.8-4.2,1.9-3.9c0.1,0.3-2.1-4.1,0.6-5.7c2.7-1.6-0.4-7.5-0.4-7.5l-0.4-3.1c0,0-5.4,1.6-3.2-2.9c2.2-4.5,0.7-5.2-4.6-9.2
			c-5.2-4-5.2,2.6-5.7,1.2c-0.5-1.4-4.8-3.6-4.8-3.6s-3.6,2.2-6.8,2.5c0,0-1-3.4-4.3-4c-3.3-0.6-2.4-3.5-2.4-3.5s-2.1-0.3-3.3,2.5
			c-1.2,2.8-3.7,4.6-4,4.1c-0.3-0.5-2.2-3.8-3.7-3s-3.3,3.4-2.9,4.2s-2,6.3-4.2,5.9c-2.2-0.4-2.1,1-3.9-2.4c-1.8-3.4-2.8,6-2.6,4.9
			c0,0,2.8,4-5.4,3.2c0,0,2,5.5-0.6,5.2c0,0-0.9-2.6-3.2-1.1c0,0-1.5,1.8,3.8,9.2c0,0-4,5.3-0.6,7.1
			C1176,363.9,1172.3,360.1,1178.2,360.9z"/>
		<path fill="#353535" d="M1139.8,887.1c0,0,14.1,5.2,24.7-6.9c0,0,17-8.2,18.2-10c1.2-1.8-0.1,10.8-14.7,9.3l-3.4,2.3
			c0,0-5.5,16.7-20.3,10.2l-2.8-1.2L1139.8,887.1z"/>
		<path fill="#353535" d="M1228.1,881.6l16.6,4.1c0,0,15.5,11.3,28.8,3.7c0,0-0.4,9.6-16.6,7.8c0,0-2.2-1-4.8-3.2
			c-2.6-2.3-6.2-8.6-8-7c-1.8,1.5-10,3.1-16-4.8"/>
		<path fill="#605B1F" d="M1128.5,880.2c0,0,6.4-2.3,10.6,6.7c0,0,13.7,5.4,26.9-7.5c0,0,10.5-3.5,17.1-9.9c0,0,3-9.7-3.4-21.9
			c0,0-4.6,6.7-19.2,1.5c0,0-10.7,1-12.9,2.6s5.8,9.5-8.5,17.8C1139,869.4,1131.4,872.2,1128.5,880.2z"/>
		<path d="M1127.6,883.5c0,0,4-9.5,11.5,4.5c0,0,2,2.9,5.2,4C1147.6,893.2,1126.7,891.2,1127.6,883.5z"/>
		<path d="M1269.1,895.6c0,0,3.7-0.8,3.4-3.2c-0.3-2.4,8.4-16.4,11-9.1c0,0,5.1,4.3-5.5,9.1S1269.1,895.6,1269.1,895.6z"/>
		<path fill="#605B1F" d="M1234.1,849.6c0,0-11,29.7-6.2,30.7c0,0,4.5,3.2,17.3,6.1c0,0,14.1,7.8,16.3,6.1c0,0,4.2,0.4,11.2-2.7
			c0,0,4.1-8.6,6.9-8c2.8,0.6,2-0.4,4.4,0.7c0,0-0.6-7.5-16.9-11.4c-6.5-4.6-5-6.8-6.5-9.3l-1.3-5c0,0-4-0.7-6-2.9
			c-2-2.2-9.5-3.7-13.3-4.4S1234.1,849.6,1234.1,849.6z"/>
		<polygon points="1189.7,400.1 1194.6,401.4 1198.9,400.1 1203.2,398.9 1203.2,400.2 1198,402.5 1193.2,403.3 1191,402.5 
			1189.7,401.1 		"/>
		<polygon fill="#3A3A3A" points="1221,384.9 1214.7,392.9 1208,397.6 1213.7,395.2 1218.8,391.8 1220.5,387.6 		"/>
		<polygon fill="#3A3A3A" points="1176.1,382 1179.5,388.4 1181.6,394.1 1183.3,396.3 1179.7,393.5 1178,390.1 1176.1,384.9 		"/>
		<path d="M1183.3,364.2l5,0.3l5.2,1.3c0,0,1.5,1-0.4,1.7l-4.7-1.1l-3.7-0.6l-1.8,0.6l-0.9-1.2L1183.3,364.2z"/>
		<polygon points="1205.5,366.7 1208.4,364.9 1211.3,364.6 1213.4,365.1 1216.3,366.7 1217.4,368.6 1216.9,370.5 1214.7,369.7 
			1213.4,368 1212.6,367.4 1211.3,366.7 1209,366.7 1207.2,367.6 1206,367.6 		"/>
		<path d="M1182.8,369.6c0,0-0.6,1.2,0.6,1.2c0,0,3.6-1.8,7.7-1.7c0,0,1.2-1.1-0.6-1.3C1188.8,367.7,1184.8,368.2,1182.8,369.6z"/>
		<path d="M1206.6,371.6c0,0,0-0.5,0.6-0.4s2.5-0.4,6.4,1.7c0,0,0.7,0.8-0.6,1.2c0,0-3.8-1.8-5.8-1.4
			C1207.2,372.6,1206.3,372.6,1206.6,371.6z"/>
		<path fill="#5D6326" d="M1221.4,586.2l4.3,0.3c0,0,1.5,21.3,7,26.6s4.4,5.5,13,6.8l1.1,6.1c0,0-8.9-2.4-13.5-7.1
			C1228.7,614.1,1221.1,604.7,1221.4,586.2z"/>
	</g>
</g>
</svg>
