<?xml version="1.0" encoding="utf-8"?>
<!-- Generator: Adobe Illustrator 16.0.0, SVG Export Plug-In . SVG Version: 6.00 Build 0)  -->
<!DOCTYPE svg PUBLIC "-//W3C//DTD SVG 1.1//EN" "http://www.w3.org/Graphics/SVG/1.1/DTD/svg11.dtd">
<svg version="1.1" xmlns="http://www.w3.org/2000/svg" xmlns:xlink="http://www.w3.org/1999/xlink" x="0px" y="0px" viewBox="0 0 1920 1080" enable-background="new 0 0 1920 1080" xml:space="preserve" preserveAspectRatio="none">
			<g id="ground">
				<g display="none">
					<g display="inline">
						<path d="M0.4,944.5c42.2-8.7,84.4-17.8,125.9-29.4c20-5.6,39.6-12.3,59.4-18.4c32-9.8,64.8-15.2,97.6-21.8
							c59.3-12,118.2-26.1,178.1-34.8c62.1-9,125.1-13.7,187.6-19.4c61.4-5.6,123-10.2,184.6-12.8c62.4-2.6,124.9-2,187.4-2.7
							c57.9-0.7,115.8-2.2,173.6-4.2c220.5-7.7,440.6-22.8,661.3-24.9c21.2-0.2,42.5-0.3,63.7-0.3c3.9,0,3.9-6,0-6
							c-223.2,0.1-445.8,14-668.8,23.1c-117.8,4.8-235.5,5.3-353.4,7.2c-123.8,1.9-247.2,14.1-370.3,26.6
							c-60.1,6.1-119.1,15.7-178.2,28.3c-47.2,10-95.2,17.6-141.9,29.5c-19.1,4.9-37.8,11.2-56.6,17.1c-29.8,9.4-60.2,16.9-90.6,23.9
							c-20.3,4.6-40.7,9-61.1,13.2C-4.9,939.5-3.3,945.2,0.4,944.5L0.4,944.5z"/>
					</g>
				</g>
				<path display="none" fill="#9B9B9B" d="M0,930.1c0,0,103.7-11.6,188.3-47.6c0,0,311.9-71.1,346.8-63.4c0,0,293.9-29.7,316.9-24.8
					s440.9,0.5,555.1-14.3c114.2-14.8,370-16.3,370-16.3h143V1080H0"/>
				<path fill="#FFFFFF" d="M0,992.5c0,0,163.6-46.5,342.5-85.1c90.5-25.2,207.8-30.7,293.1-40.6L321.3,1080H0V992.5z"/>
				<path fill="#FFFFFF" d="M723.9,888.8l-9-12.4c0,0-5.2-7.1-5-15.9l61.3-4.3l191.1-5.5l2.8,5c0,0-2.7,18.4-15.4,25L895.3,1080H593.9
					L723.9,888.8"/>
				<path fill="#FFFFFF" d="M1018.6,848.3l-0.9,14.9l16.8,15.8l4.3,15l62.9,186l247.1,0l-151.3-193.6c0,0-2.4-7.5,5.8-11.3
					s22.7-11.6,10.3-29.8l-10.4-1.3l-155.6,3.5"/>
				<path fill="#FFFFFF" d="M1628.8,1080l-276.2-195.6c0,0,0-6.5-15.5-10.4s-8.3-15.4-8.3-15.4l4.5-18.4l192.9-0.8v54.9L1920,1005v75
					L1628.8,1080z"/>
			</g>
			<g id="house">
				<rect x="1526.1" y="187.8" fill-rule="evenodd" clip-rule="evenodd" fill="#E2E3C7" width="393.9" height="706.6"/>
				<rect x="1621.2" y="187.8" fill-rule="evenodd" clip-rule="evenodd" fill="#CCD9ED" width="38.2" height="527.1"/>
				<rect x="1526.3" y="337.4" fill-rule="evenodd" clip-rule="evenodd" fill="#CCD9ED" width="393.7" height="38.2"/>
				<rect x="1526.1" y="676.7" fill-rule="evenodd" clip-rule="evenodd" fill="#CCD9ED" width="393.9" height="38.2"/>
				<polygon fill="#353229" points="1920,68.2 1514.5,68.2 1290.4,187.9 1920,187.9 	"/>
			</g>
			<g id="character_x5F_fills">
				<path fill="#CEC361" d="M671.8,384.2c0,0-1.6,15.7,17.8,12.8c18.5-2.8,17.5-10.3,18-12.4c0.5-2.4-6-3.9-6-3.9l0.9-12.4l0.5-4.9
					l-23,2.3l0.1,17.3L671.8,384.2z"/>
				<polyline fill="#CEC361" points="675.5,319.6 681.6,318 688.3,318 694.3,315.1 700,312.2 705,313.1 708.1,320 711.6,327.4 
					710.8,339.5 710.8,339.5 709.9,345.3 703.4,362 697,368.3 688.6,371.5 682.3,369 679.4,364.1 674.4,356.4 673.2,343.1 671.7,326.5 
						"/>
				<polygon fill="#E5D295" points="992,349.3 1000.1,350.1 1006.7,353.6 1009.9,361.7 1010.9,374.8 1010.9,387.7 1008.4,391.8 
					1002.4,398 993.1,404.9 984.9,407.1 977.6,402 969.7,395.9 965.7,387.3 965.5,382.9 971.4,366.3 	"/>
				<path fill="#C1A868" d="M1256.1,343l-5.2,3.3v6l-3.5,5l-0.7,11.3l-1.6,13.4l3.8,10l6,7.5l12.1,1.1l9.1-2.1l8.5-4.5
					c0,0,5.1-3.3,5.6-10.5c0.5-7.1-0.6-9.7-0.6-9.7l2.6-7.6L1256.1,343z"/>
				<path fill="#E5D295" d="M967.3,426.7c0,0,10.1,5.2,14.8,5.6c12.8,0.9,19.9-6.6,19.9-6.6s-7.5-3.7-4.7-22.9l-11.1,4.7l-10.7-7.1
					l-1.4,17.5L967.3,426.7z"/>
				<path fill="#C1A868" d="M1242.6,415.6c0,0,1.1,11.4,19.7,11.7c6.3,0.1,17.2,0.8,23.3-9.8c0,0-7.1-3.8-7.7-7.4l1.2-13.2l-12.5,3.4
					l-11.7-0.9l0.1,9.6L1242.6,415.6z"/>
				<path fill="#E5D295" d="M947.6,489.9l8.4,1.1c0,0,3.6,49.4,3.6,49.8c0,0.3-1.5,30.6-3.1,28.9c-1.6-1.7-8.9-9.6-16.7-65.8
					c-0.5-3.6-1.9-14.4-1.9-14.4L947.6,489.9z"/>
				<path fill="#E5D295" d="M1023.3,491.6l8.1-2.9h8.9l2.3,1.5l-4.1,31.8c0,0-5.6,21.2-7.8,24.3c-2.2,3.1-7.2,24.3-5.5,24.7
					c1.7,0.4-3.3,0.4-6.1-24.1C1016.3,522.5,1023.3,491.6,1023.3,491.6z"/>
				<path fill="#E5D295" d="M944.9,657c0,0,20.9,12.2,38.2,2.1c-2.6,43.6-2.2,34.9-2.7,45.5l-1.5,31.6l1.5,17.1c0,0,4.7,39.1,2.5,38.6
					c-2.2-0.5,1.4,26.9-6.8,53.3l-15.7-2.9l-2.7-66.8c0,0-2-48.7-6.2-59.4C944.9,698.8,944.9,657,944.9,657z"/>
				<path fill="#E5D295" d="M995.4,657.5c0,0,23.4,6.8,36.8-3.5c0,14.8-2.7,50.9-2.7,50.9l-2,28.1l-0.8,55.1c0,0-1.5,41-4.7,48.6
					s-3.5,14-3.5,14l-13.3-5.9l-3.3-31.2l-2.9-24.7l1.1-23.7l3.2-23.9c0,0,1.1-20.6,0.4-22.3c-0.8-4.3-2.8-19.5-5-29.2L995.4,657.5z"/>
				<path fill="#C1A868" d="M1188.9,481.7l23.8,5.8l-3.9,11.6l-16.2,36.7c0,0-7.6,15.4-7.1,31.9c-1.8,16.6-5.2,25.5-7.3,32.7
					c-2.1,7.1-4.8,17.6-4.8,17.6s4.2,7.2,6.4,6.9c5,2.5,3.8,4.8,11.6,8.6l3,4.7l0.7,2.9l-2.7,0.4l-2.6-1.5l-4.7-3.7l-3.2-1.7l0.2,9.2
					l-0.1,4.9l-2.1,7l-0.3,2.4l1.3,8.9l0.5,6.5c0,0-0.7,3.4-1.3,2.7c-0.6-0.6-2.4-2.7-2.4-7.4l-0.5,0.1c0,0-1.5,7.1-2.3,6.5
					c-0.8-0.6-1.5-3.5-1.9-6.9c-1.8-3.4-2.1-1.1-4.9-6.2c0,0-0.5-3.9-1.4-4.5c-1-0.6-1.7-6-1.4-7.8c0.3-1.8,0.7-17.1,0.7-17.1
					s-1.1-12-1.3-22.7s4.1-48.6,4.1-48.6l7.7-37l2.9-12.9C1179.3,511.9,1186.1,486.2,1188.9,481.7z"/>
				<path fill="#C1A868" d="M1355.4,435.1c0,0,13.3-0.9,20.6,0.3c7.3,1.2,32.4,4.6,32.4,4.6l26.7,1.4l37.4,3l29.2,3.7l0.3-1l3.3-1.1
					l4.2,0.2l2.1,0.6l2.9-0.1l2.3-0.9l2.5-1.9l1-1.1l1.4-6.1l0.7-9.9l0.4-3.3l1.6-5.5l1.5-3.9l1.6-2.7l1,3.1l1.6-4.4l1.8-3.6l1.1,3.5
					l-0.6,1.5l2.1-3l0.6-1.4c0,0,1.9,1.9,1.6,3.6c-0.3,1.7-1.1,3.6-1.1,3.6l-2.6,6.7c0,0-0.4,7.6-0.4,8.3c0.5,0.5-2.2,9.1-1.6,9.4
					c0,0-1.8,6.3-0.8,6.9l0,3.7l1,3.7l2.3,1.5l2.1,0.5l3.2,1l2.5,2.8l0.9,3.6l-0.8,2.6l-3.7-3.8l-3.8-0.1c0,0-8.4,4-8.5,3
					c0,0-5.2,0.9-7.6-0.5c-2.4-1.4-6.4-2.7-6.4-2.7l-44.4,1.1l-57.6-1.4l-29.8,0.4l-33.3,0.3L1355.4,435.1z"/>
				<path fill="#B5A84E" d="M634.3,857.7l8.2-2.7l9.7,2.4l5.8,2.3l3.9-0.6l-2.6,8.4l2.1,10.6c0,0-4.7-1.2-6.6,4.7c-4.3-3.1-6-2.7-6-2.7
					s-3.5-0.1-3.9,2.9c-1.8-2.9-4.3-1.6-4.3-1.6l-3,0.2l-2.4,2l-3-0.8l-2.5,0.9l-2.3-2.1l-1.8-1l8.4-9.7l1.9-6.6L634.3,857.7z"/>
				<path fill="#B5A84E" d="M687.9,849.5l-1.7,5.4l1.7,8.1l-0.7,5.2l-1,1.5l5.8,7.5l5.9,0.2l2.5,2l5.4-0.9c0,0,2.4,0.1,2.9,2.5
					c2.6-0.7,4.1,0.1,4.1,0.1l2,1.1c0,0,2.4-4.3,3.3-3s-9.8-9.1-8.1-21.9c-1.5-1.7-7.9-2.4-7.9-2.4l-9.8,0.5L687.9,849.5z"/>
				<path fill="#CEC361" d="M624.9,881.2c0,0-6.1,4.5,0.8,5.6C628.8,887.2,628.7,881.6,624.9,881.2z"/>
				<path fill="#CEC361" d="M654.3,883.7c0,0,2.4,4.2,5.4,4.1c1.6,0,3-0.5,5-4.8c1.7-3.6-2.5-6.4-6.2-5.1
					C656.7,878.7,655.2,881.3,654.3,883.7z"/>
				<path fill="#CEC361" d="M685.3,883.7c0,0,4.6,0.2,5.8-2.3c0.6-1.3,0.7-2.7-2.2-6.5c-2.5-3.2-6.6-1.2-6.9,2.5
					C681.8,879.2,683.6,881.7,685.3,883.7z"/>
				<path fill="#CEC361" d="M632.3,882.1c0,0-6.1,4.5,0.8,5.6C636.2,888.2,636.1,882.5,632.3,882.1z"/>
				<path fill="#CEC361" d="M711,880c0,0-6.1,4.5,0.8,5.6C714.9,886,714.8,880.4,711,880z"/>
				<path fill="#CEC361" d="M717.9,879.4c0,0-6.1,4.5,0.8,5.6C721.7,885.5,721.7,879.8,717.9,879.4z"/>
				<path fill="#CEC361" d="M639.7,880.5c0,0-8.4,4.7,1.1,5.8C645.1,886.9,645,881,639.7,880.5z"/>
				<path fill="#CEC361" d="M703.8,878.1c0,0-8.4,4.7,1.1,5.8C709.1,884.5,709.1,878.6,703.8,878.1z"/>
				<path fill="#CEC361" d="M645.2,882.3c0,0,3.9,9.3,8.4,2.2C655.6,881.4,647.4,878.3,645.2,882.3z"/>
				<path fill="#CEC361" d="M691.4,878.9c0,0,3.9,9.3,8.4,2.2C701.9,878,693.7,874.9,691.4,878.9z"/>
				<path fill="#FFFFFF" d="M976.6,393.8l8.6-1.3l8-0.2l7-0.5c0,0-3.5,4.5-4.4,4.6s-3,1.5-11.1,1.6
					C976.6,398.1,976.6,393.8,976.6,393.8z"/>
				<path fill="#FFFFFF" d="M1252.3,388.4l13.9,1l7.7,0.2l7.7-0.5c0,0-4.4,5-5.2,5.1c-0.8,0.1-3.4,2-11.1,2.4
					C1254.2,397.1,1252.3,388.4,1252.3,388.4z"/>
				<path fill="#FFFFFF" d="M679,355.6l7.5,1l7.5-0.2l6.5-0.5c0,0-2.1,3.7-4.9,4.4c-0.8,0.2-2.1,1.3-9.6,1.4S679,355.6,679,355.6z"/>
				<path fill="#FFFFFF" d="M1242.6,415.6c0,0,0.3,10.2,17,11.8s24.9-6.7,26.4-9c0,0,19.5,4.4,23.3,4.2c3.8-0.3,21,3.7,21.4,4.5
					c0,0,4.4,3.2,26,3.9c0,0-3,11.5-3.4,11.4s-4.7,13.1-4.7,13.1l-1.2,10.1l0.4,3.3l-20.1-1.6l-17.4,0l-2.9,23.4l0.3,26.5l0,32.9
					l2.1,23.4l2.6,8.8l-1.9,7.8c0,0-3.5-4.7-16.2-4l-26.4,0.7c0,0-32.2-3.4-32.4-2.5c0,0-15-0.5-16.3,4.6c0,0-2.8-0.7-2.1-15.5
					s3.6-54,3.6-54l1.9-34l0-10.6l-7.8,13.2l-30.3-6.8l5.2-20l8.1-21.6c0,0,4.4-11.3,11.2-13.9L1242.6,415.6z"/>
				<path fill="#29301E" d="M1218.5,591.4l0.8-2.5c0,0,1.9-7,24.6-4.2l22.5,2.3l24-1c0,0,13.6-0.4,18.5,2.9l19,98.4l0.9,5
					c0,0,16.5,1.5,16.5,9.8c0,0,2.7,21.6,2.9,22.6c0.2,1,3,14.3,1.9,14.4s1.1,10.9-8.6,15.3l-4.4-1.4l1.7,35.8c0,0-2,42.3-7.4,67.8
					c0,0-2.2,0.8-21.4-7.2l-10.6-1.5l-7.6-20.8l-5-22.5l-4-28.2l-1.9-32.8l-1.9-34.4l-3-27.3l-7.4-32.5l-5.2-29.4v-1.8h-3.1l-1.7,17.2
					l-4.3,47l-0.9,32.6l2.4,91.2c0,0,0.1,35.9-1.4,35.5c0,0-0.2,2.4-8.3,7.3c0,0-2,3.4-15.4,0.2c0,0-1.1-1.6-10.9,1
					c0,0-7.8,2.2-11.3-0.6c0,0-4-2.6-5.2-21.4l-2.7-27.9l0.9-49c0,0-11.6,4.2-13.5-15.7l-0.8-19.6l-0.4-5.8l5.3-6.9l14.3-10.3l3-37.4
					C1209.5,656,1217.2,590.4,1218.5,591.4z"/>
				<path fill="#5D6326" d="M1240.3,585.2l4,0.2c0,0-5.3,32.7-10.4,34.9c0,0-5.5,6.5-21.7,7.7l1-4.1c0,0,9.8-0.6,17.1-8.1
					S1239.7,584.6,1240.3,585.2z"/>
				<path fill="#5D6326" d="M1290.4,586.2l4.3,0.3c0,0,1.5,21.3,7,26.6s4.4,5.5,13,6.8l1.1,6.1c0,0-8.9-2.4-13.5-7.1
					C1297.7,614.1,1290.1,604.7,1290.4,586.2z"/>
				<path fill="#5D6326" d="M1187.2,716.4c0,0,7.8,2.2,17.5-5.4l-2.7,40.8c0,0-15.8,5.5-14-25.3L1187.2,716.4z"/>
				<path fill="#5D6326" d="M1346.4,714.6c0,0-3.5,0.6-14.5-3.8l5.9,43.2c0,0,14.6,5.1,11.6-25.5L1346.4,714.6z"/>
				<g>
					<path fill="#EEFF2F" d="M1233,459.5c0,20.3,1.5,40.5,1.5,60.8c0,8,12.4,8,12.4,0c-0.1-20.3-1.5-40.5-1.5-60.8
						C1245.4,451.5,1233,451.5,1233,459.5L1233,459.5z"/>
				</g>
				<g>
					<path fill="#DB2A00" d="M1255.2,458.4c-0.3,23.5,0.7,47,0.4,70.4c-0.1,8,12.3,8,12.4,0c0.3-23.5-0.7-47-0.4-70.4
						C1267.7,450.5,1255.3,450.5,1255.2,458.4L1255.2,458.4z"/>
				</g>
				<g>
					<path fill="#0057B6" d="M1283.5,458.6c-2.6,20.1-3.9,40.4-6.6,60.5c-1,7.9,11.3,7.8,12.4,0c2.6-20.1,3.9-40.4,6.6-60.5
						C1296.9,450.7,1284.5,450.8,1283.5,458.6L1283.5,458.6z"/>
				</g>
				<path fill="#E5D295" d="M953,579l3.5-9.3c0,0,50.4,9.2,67.9,1.5l4.2,9.5c0,0-14.5,9.3-42.8,4.6C985.9,585.4,953.4,578.2,953,579z"
					/>
				<path d="M953,579c0,0,5.5,0.5,14.1,2.4c17.2,3.8,45.8,9.1,61.5-0.7c0,0,9.8,14,8.1,69.7c0,0-15.3,15.1-43.5,7.1l-4.5-26l-1.7,11.6
					c0,0,1,8.4-4,15.4c-4.9,7-39,5.1-40.4-6.2C942.7,652.4,936,620.3,953,579z"/>
				<path fill="#40001E" d="M1039.8,438.2c-17-9.4-18.1-3.5-37.7-12.5c-22.7,14.7-34.8,0.6-34.8,0.6s-16,8.8-24.2,10
					c-8.3,1.2-12.6,11.9-12.4,19.1c0.1,7.2,2,29.9,4.3,34.2l21.6,2.1l1.6,23.9c0,0,4.3,43.4-1.5,54.2c0,0,50.8,9.2,67.9,1.5
					c0,0-8.4-10.7-4.8-57.7l3.1-22.1c0,0,6.7-2.5,10.9-3.4c0,0,5.2-0.8,8.6,1.7s2.4-41.5,2.4-41.5S1045,442.5,1039.8,438.2z"/>
				<path fill="#CEC361" d="M670.8,332c1.8,0.2,2.5,16.8,2.5,16.8s8.1,14.6-1.7-1.3s-1-15.5-1-15.5"/>
				<path fill="#CEC361" d="M712.3,335.7c0,0,8.9,1,2.3,11.8c0,0-2.1,4.6-5.7,2.8L712.3,335.7z"/>
				<path fill="#C1A868" d="M1246.7,362.3c0,0-8.4-3.1-4.4,11.3c0.4,1.3,2.1,3,2.1,3S1248.3,371.8,1246.7,362.3z"/>
				<path fill="#C1A868" d="M1291.5,368.6c0,0,4.2-2.3,4.9-1.8c0.7,0.4,3.8,1.9,0,9.1c0,0-5.1,5.9-6.4,5
					C1290,380.8,1290,370,1291.5,368.6z"/>
				<path fill="#005A99" d="M798.1,483.4c-8.2-22.3-38-59.8-46.2-69.8c-6.8-10.9-21.7-19.1-21.7-19.1c1.4,0.4-2-15.8-2-15.8
					c-4.8-17.3-22.5-20.2-22.5-20.2l-2.1,4.8c0,0,5.2,0.3,10.4,10s-4.1,23.3-4.1,23.3l-9.1,11.7l-6.3,26.2c-2,2.7-2.2,18.9-0.7,21.8
					s1.6,35.2,1.6,35.2c1.9,38.5-8.3,62.7-8.3,62.7c-7.6,19.8-1.7,24-1.7,24c9.4,8.6,28.1,8.5,28.1,8.5c19.8,1.8,17.5,16.2,17.5,16.2
					c4.2-4.2,4.4-39,4.4-39l22.7-3.7c25.9-3.7,36.2-11.2,36.2-11.2C823.7,532.9,798.1,483.4,798.1,483.4z M749.2,537l-13.2,6.8
					l1.2-94.8c0,0,13.2,13.5,21.5,31.7c0,0,14.3,21.2,20,39.6C778.7,520.4,771,522.5,749.2,537z"/>
				<g>
					<path fill="#005A99" d="M678.3,363l-2.3-2.7c0,0-21.3,2.3-30.5,25.7l0.1,4.5c0,0-20.7,9.1-23.4,15.5l-2.2,4c0,0-4.6-3.5-29.9,25.3
						s-26.9,42.4-28.7,42.7s-13.5,32,2.9,33.3c0,0,17.6,7.8,54.5,1.5c0,0,4.5-0.6,10.7-1.7l0,0L615.9,575c-4,28,10.1,21.7,10.1,21.7
						l-0.6-0.8c-6.3-14.8,19.9-9.7,26.3-13.9s10-22.9,10-22.9c4.2-14.6-3.5-36.3-3.6-36.9s-3-17.6-3-17.6l-0.2,0c4.3-1.8,7.7-3.9,9-6.2
						c0,0,3.3-3.9-3.6-12.7c0,0-4.4-5.2,0.2-6.5l-5.1,0.3c0,0,1.7-26.8,10.1-44.2s12.1-22.1,8-31.2s-10.2-9.5-13.4-19
						c-3.2-9.3,7.7-17.9,17.4-19.5c0.1,0,0.1,0,0.2,0c-0.1,0-0.1,0-0.1,0L678.3,363z M584.8,491c18.7-30.8,49.1-50.7,49.1-50.7
						c1.9,5.3-0.8,43.5-0.8,43.5C618.8,490.7,584.8,491,584.8,491z"/>
				</g>
				<path fill="#2D2D2D" d="M623,887c0,0,4.8,10.5,38,2c0,0,3.4,3.7-3.9,7.6s-32.2,4-36.2-3S622.8,885.9,623,887z"/>
				<path fill="#2D2D2D" d="M720.7,885.3c0,0-4.8,9.6-35.5,0.8c0,0-3.3,3.4,3.4,7.1c6.7,3.8,30,4.6,33.9-1.7
					C726.4,885.1,721,884.3,720.7,885.3z"/>
				<path fill="#CEC361" d="M662.3,479.2c0,0,14-3.5,21.4-3.9c0,0,5.3-0.9,6.1-0.6c0,0,3.2,0.1,7.2,1.3c2,0.6,4.5,1.2,4.9,3.5
					c0,2,1.5,1.2,3,3.5c-1.2,2.3-1.5,2.9-1.5,2.9s-2.6,3.6-3.6,3.6l-5.3,0.5c0,0,0,1.9-4.8,3c0,0-3.4,7.4-12.1,6s-12.7-3.9-12.7-3.9
					s0-3.6-3.4-8.2S658.4,478.8,662.3,479.2z"/>
				<path fill="#333333" d="M678.7,365.7l1.8,17.3c0,0-10.4,1.9-15,3.7c-0.2,2.6-0.2,2.2-0.7,5.1C660.9,392,650.3,371.3,678.7,365.7z"
					/>
				<path fill="#333333" d="M704,363.3c0,0,16,7.7,10.7,22.6l-13.6-4.9L704,363.3z"/>
				<path fill="#B75925" d="M705.3,472.5c0,0,8,4.7,20.6-1.3c0,0,0.9,24.4,1.6,25c0,0,1.7,8.3-20.9,3c0,0-2.2-14.3-1.7-27"/>
				<path fill="#383720" d="M705.1,471.2c2-1.2,10-7.1,20.6-0.5C712,478.3,703.4,471.7,705.1,471.2z"/>
				<path d="M666,401.8c0,0-3.6-4.1-7.5,2.4s2.4,15.9,6.7,15.8s3.8,2,4.5-5.2C669.3,407,666,401.8,666,401.8z"/>
				<path d="M701.1,408.7c0,0,7.8-0.4,6.5,8.9c0,0-6.8,7.1-12.4,7.2s-5.3-4-2.9-6.7L701.1,408.7z"/>
				<g>
					<path fill="#382947" d="M655.7,577.3c0,0,11.9-5.3,29.5,1c0,0,3.8,7.9,20.6,7.1s26.4,11.3,24.6,12.4l-1.8,8.1l-0.3,95.6l-2.8,62.6
						c0,0-4.7,61.7-5.9,60.2c0,0-4.7,32.7-9.1,32s-5.8-2.3-15-1s-9-7.3-8.5-21L679,717.7l-8.3-90l-1-0.4l-0.6,77.3l-1.4,62.7l-0.6,53.5
						l1.3,21.5c0,0,1.9,10.9-6.4,16.3c0,0-1.6,3.8-16.4-3.5c0,0-5.2-0.5-11.5,2c0,0-11.4-32.7-11.7-56.6c0,0-3.6-61.9-5-98.4
						c0,0-2.7-67.7,6.2-109c0,0,0.3-2.4,2.6-5.2c0,0,2.8-3.1,22-4.6C648.2,583.3,652.5,583.5,655.7,577.3z"/>
					<g>
						<path d="M636.9,608.3c-2.4,3-5.3,5.4-7.7,8.3c-1.2,1.5,0.9,3.6,2.1,2.1c2.4-3,5.3-5.4,7.7-8.3
							C640.3,608.9,638.1,606.8,636.9,608.3L636.9,608.3z"/>
					</g>
					<g>
						<path d="M628.7,612.8c1.5,2.6,2.9,5.3,5.2,7.3c1.4,1.3,3.6-0.8,2.1-2.1c-2.1-1.9-3.4-4.3-4.8-6.7
							C630.3,609.6,627.7,611.1,628.7,612.8L628.7,612.8z"/>
					</g>
					<g>
						<path d="M655,589.6c-1.2,1.7-2.5,3.4-3.8,5c-0.5,0.6-0.6,1.5,0,2.1c0.5,0.5,1.6,0.6,2.1,0c1.5-1.8,2.9-3.7,4.2-5.6
							C658.7,589.5,656.1,588,655,589.6L655,589.6z"/>
					</g>
					<g>
						<path d="M649.6,589.4c0.8,3,2.4,5.6,4.4,8c1.2,1.5,3.3-0.6,2.1-2.1c-1.6-2-2.9-4.2-3.6-6.7C651.9,586.7,649,587.5,649.6,589.4
							L649.6,589.4z"/>
					</g>
					<g>
						<path d="M709.6,602.9c-2,2.3-4.4,4.1-6.7,6c-1.5,1.3,0.7,3.4,2.1,2.1c2.3-1.9,4.7-3.7,6.7-6C713,603.6,710.9,601.5,709.6,602.9
							L709.6,602.9z"/>
					</g>
					<g>
						<path d="M701.4,603.8c1.8,2.5,3.6,4.9,5.3,7.3c1.1,1.6,3.7,0.1,2.6-1.5c-1.8-2.5-3.6-4.9-5.3-7.3
							C702.8,600.7,700.2,602.2,701.4,603.8L701.4,603.8z"/>
					</g>
					<g>
						<path d="M712.7,632.6c-1.4,3.3-4.1,5.7-6.8,8c-1.5,1.3,0.7,3.4,2.1,2.1c2.8-2.5,5.7-5.1,7.2-8.6
							C716,632.3,713.5,630.8,712.7,632.6L712.7,632.6z"/>
					</g>
					<g>
						<path d="M705.6,633.4c2.9,2.4,4.3,5.9,6.7,8.7c1.2,1.5,3.4-0.7,2.1-2.1c-2.4-2.8-3.8-6.3-6.7-8.7
							C706.2,630.1,704.1,632.2,705.6,633.4L705.6,633.4z"/>
					</g>
					<g>
						<path d="M690.2,649.2c-2,3.5-4,7-5.2,10.9c-0.6,1.9,2.3,2.6,2.9,0.8c1.1-3.6,3-6.9,4.8-10.1C693.8,649.1,691.2,647.6,690.2,649.2
							L690.2,649.2z"/>
					</g>
					<g>
						<path d="M684.7,656.3c2,1.5,3.9,3,5.7,4.8c1.4,1.4,3.5-0.8,2.1-2.1c-2-1.9-4.1-3.6-6.3-5.2C684.7,652.5,683.2,655.1,684.7,656.3
							L684.7,656.3z"/>
					</g>
					<g>
						<path d="M678.7,603.7c-2.3,1.7-4.3,3.7-6,6c-0.5,0.7-0.1,1.7,0.5,2.1c0.8,0.5,1.6,0.1,2.1-0.5c1.4-1.9,3.1-3.5,5-5
							c0.6-0.5,1-1.3,0.5-2.1C680.4,603.6,679.4,603.2,678.7,603.7L678.7,603.7z"/>
					</g>
					<g>
						<path d="M670.7,608.3c2.7,1.4,5.4,2.9,8,4.5c1.7,1,3.2-1.6,1.5-2.6c-2.6-1.6-5.3-3.1-8-4.5C670.5,604.8,669,607.4,670.7,608.3
							L670.7,608.3z"/>
					</g>
					<g>
						<path d="M653.7,669.7c-1.4,2.4-3.1,4.5-4.8,6.7c-1.2,1.5,0.9,3.6,2.1,2.1c1.9-2.3,3.7-4.7,5.2-7.3
							C657.3,669.6,654.7,668.1,653.7,669.7L653.7,669.7z"/>
					</g>
					<g>
						<path d="M647.9,671.6c2.6,2.6,4.7,5.6,7.5,8c1.5,1.3,3.6-0.9,2.1-2.1c-2.8-2.4-4.9-5.4-7.5-8
							C648.7,668.1,646.6,670.2,647.9,671.6L647.9,671.6z"/>
					</g>
					<g>
						<path d="M627.6,655.1c-1,2.6-2,5.4-3,8c-0.7,1.8,2.2,2.6,2.9,0.8c1-2.6,2-5.4,3-8C631.2,654.1,628.3,653.3,627.6,655.1
							L627.6,655.1z"/>
					</g>
					<g>
						<path d="M623.7,658.3c2.3,1.4,4.4,2.9,6.5,4.5c1.5,1.2,3-1.4,1.5-2.6c-2.1-1.6-4.2-3.1-6.5-4.5
							C623.6,654.7,622.1,657.3,623.7,658.3L623.7,658.3z"/>
					</g>
					<g>
						<path d="M661.6,721.6c-1,2.9-2.3,5.5-3.8,8.1c-1,1.7,1.6,3.2,2.6,1.5c1.7-2.8,3.1-5.8,4.2-8.9
							C665.1,720.6,662.2,719.8,661.6,721.6L661.6,721.6z"/>
					</g>
					<g>
						<path d="M655.4,722.6c3,2.6,5,6,7.5,9c1.2,1.5,3.3-0.6,2.1-2.1c-2.5-3-4.5-6.4-7.5-9C656.1,719.2,654,721.3,655.4,722.6
							L655.4,722.6z"/>
					</g>
					<g>
						<path d="M697.2,708.2c-1.6,3.7-4,7-6,10.5c-1,1.7,1.6,3.2,2.6,1.5c2-3.5,4.4-6.8,6-10.5C700.6,708,698,706.5,697.2,708.2
							L697.2,708.2z"/>
					</g>
					<g>
						<path d="M689.7,714.8c2.4,1.4,4.8,2.8,7,4.5c1.6,1.2,3.1-1.5,1.5-2.6c-2.2-1.7-4.6-3.1-7-4.5
							C689.6,711.2,688.1,713.8,689.7,714.8L689.7,714.8z"/>
					</g>
					<g>
						<path d="M712.2,675.7c-2.1,3.1-4.1,6.3-6,9.5c-1,1.7,1.6,3.2,2.6,1.5c1.9-3.2,3.9-6.4,6-9.5C715.9,675.6,713.3,674.1,712.2,675.7
							L712.2,675.7z"/>
					</g>
					<g>
						<path d="M704.9,683.6c1.6,1.5,3.5,2.5,5.3,3.7c1.6,1.1,3.1-1.5,1.5-2.6c-1.6-1-3.3-1.9-4.7-3.3
							C705.7,680.1,703.5,682.2,704.9,683.6L704.9,683.6z"/>
					</g>
					<g>
						<path d="M721,739.5c0,4.1,0,8.1-0.9,12.1c-0.4,1.9,2.5,2.7,2.9,0.8c1-4.2,1.1-8.6,1.1-12.9C724,737.6,721,737.6,721,739.5
							L721,739.5z"/>
					</g>
					<g>
						<path d="M720,748.5c1.7,0,3.3,0,5,0c1.9,0,1.9-3,0-3c-1.7,0-3.3,0-5,0C718.1,745.5,718.1,748.5,720,748.5L720,748.5z"/>
					</g>
					<g>
						<path d="M699.7,756.2c-2,3.4-4.5,6.6-6.5,10c-1,1.7,1.6,3.2,2.6,1.5c2-3.4,4.5-6.6,6.5-10C703.3,756.1,700.7,754.6,699.7,756.2
							L699.7,756.2z"/>
					</g>
					<g>
						<path d="M692.7,760.3c3.1,2.3,5.7,5.3,8.7,7.8c1.5,1.2,3.6-0.9,2.1-2.1c-3.2-2.7-5.9-5.8-9.3-8.2
							C692.7,756.6,691.2,759.2,692.7,760.3L692.7,760.3z"/>
					</g>
					<g>
						<path d="M719.4,798.4c-2,2-4.1,4.1-5.2,6.8c-0.7,1.8,1.8,3.3,2.6,1.5c1-2.5,2.9-4.3,4.8-6.2C722.9,799.2,720.8,797.1,719.4,798.4
							L719.4,798.4z"/>
					</g>
					<g>
						<path d="M711.9,797.1c2.6,3.1,5,6.7,5.6,10.8c0.3,1.9,3.2,1.1,2.9-0.8c-0.7-4.6-3.5-8.6-6.4-12.2
							C712.8,793.4,710.7,795.6,711.9,797.1L711.9,797.1z"/>
					</g>
					<g>
						<path d="M696,825c0,4,0,8,0,12c0,1.9,3,1.9,3,0c0-4,0-8,0-12C699,823.1,696,823.1,696,825L696,825z"/>
					</g>
					<g>
						<path d="M695.4,829.6c1.9,1.9,3.6,4.1,5.5,6c1.4,1.4,3.5-0.7,2.1-2.1c-1.9-1.9-3.6-4.1-5.5-6
							C696.2,826.1,694.1,828.2,695.4,829.6L695.4,829.6z"/>
					</g>
					<g>
						<path d="M694.5,790c0,2.7,0,5.3,0,8c0,1.9,3,1.9,3,0c0-2.7,0-5.3,0-8C697.5,788.1,694.5,788.1,694.5,790L694.5,790z"/>
					</g>
					<g>
						<path d="M692,795c2.9,0,5.8,0,8.6,0.4c1.9,0.3,2.7-2.6,0.8-2.9c-3.1-0.5-6.2-0.6-9.4-0.6C690.1,792,690.1,795,692,795L692,795z"
							/>
					</g>
					<g>
						<path d="M712.4,714.6c1.9,1.5,3.1,3.5,3.6,5.8c0.4,1.9,3.3,1.1,2.9-0.8c-0.6-2.8-2.1-5.4-4.4-7.2
							C713.1,711.3,710.9,713.4,712.4,714.6L712.4,714.6z"/>
					</g>
					<g>
						<path d="M715.4,720.9c0.9-2.3,1.9-4.5,3.6-6.3c1.3-1.4-0.8-3.5-2.1-2.1c-2.1,2.2-3.3,4.9-4.4,7.7
							C711.8,721.9,714.7,722.7,715.4,720.9L715.4,720.9z"/>
					</g>
					<g>
						<path d="M650.5,694.5c0,3-0.5,6-1.8,8.7c-0.8,1.7,1.8,3.3,2.6,1.5c1.5-3.2,2.2-6.7,2.2-10.3C653.5,692.6,650.5,692.6,650.5,694.5
							L650.5,694.5z"/>
					</g>
					<g>
						<path d="M647.5,699.5c2.6,0.1,5,1,7.2,2.3c1.7,1,3.2-1.6,1.5-2.6c-2.7-1.6-5.6-2.6-8.8-2.7C645.6,696.5,645.6,699.5,647.5,699.5
							L647.5,699.5z"/>
					</g>
					<g>
						<path d="M623.1,682.6c-0.5,3-1.1,6.1-2,9c-0.6,1.8,2.3,2.6,2.9,0.8c0.9-2.9,1.5-6,2-9C626.3,681.5,623.4,680.7,623.1,682.6
							L623.1,682.6z"/>
					</g>
					<g>
						<path d="M620,689c2.2,0,4.3,0.4,6.2,1.3c1.7,0.8,3.3-1.8,1.5-2.6c-2.4-1.2-5.1-1.7-7.8-1.7C618.1,686,618.1,689,620,689L620,689z
							"/>
					</g>
					<g>
						<path d="M625,714.5c0,2.2,0,4.3,0,6.5c0,1.9,3,1.9,3,0c0-2.2,0-4.3,0-6.5C628,712.6,625,712.6,625,714.5L625,714.5z"/>
					</g>
					<g>
						<path d="M624,720.5c1.7,0,3.3,0,5,0c1.9,0,1.9-3,0-3c-1.7,0-3.3,0-5,0C622.1,717.5,622.1,720.5,624,720.5L624,720.5z"/>
					</g>
					<g>
						<path d="M659.2,779.2c-2.6,1.6-4.9,3.4-7.5,5c-1.6,1-0.1,3.6,1.5,2.6c2.6-1.6,4.9-3.4,7.5-5C662.4,780.8,660.9,778.2,659.2,779.2
							L659.2,779.2z"/>
					</g>
					<g>
						<path d="M651.4,782.1c2.5,2,4.8,4.3,6.3,7.2c0.9,1.7,3.5,0.2,2.6-1.5c-1.6-3.1-4-5.6-6.7-7.8
							C652.1,778.7,649.9,780.8,651.4,782.1L651.4,782.1z"/>
					</g>
					<g>
						<path d="M641,736.5c0,2.6-0.5,5.1-0.9,7.6c-0.4,1.9,2.5,2.7,2.9,0.8c0.5-2.8,1-5.6,1.1-8.4C644,734.6,641,734.6,641,736.5
							L641,736.5z"/>
					</g>
					<g>
						<path d="M637,743.5c3.5,0,7,0,10.5,0c1.9,0,1.9-3,0-3c-3.5,0-7,0-10.5,0C635.1,740.5,635.1,743.5,637,743.5L637,743.5z"/>
					</g>
					<g>
						<path d="M636.7,760.7c-2.5,1.4-4.1,4.1-4.7,6.9c-0.4,1.9,2.5,2.7,2.9,0.8c0.4-2,1.4-4.1,3.3-5.1
							C640,762.4,638.4,759.8,636.7,760.7L636.7,760.7z"/>
					</g>
					<g>
						<path d="M631.1,761.9c1.2,3.3,3.2,6,5.9,8.2c1.5,1.2,3.6-0.9,2.1-2.1c-2.3-1.8-4.1-4.1-5.1-6.8
							C633.3,759.3,630.4,760.1,631.1,761.9L631.1,761.9z"/>
					</g>
					<g>
						<path d="M632.4,797.2c-2.1,4.2-4.1,8.5-5.5,13c-0.6,1.8,2.3,2.6,2.9,0.8c1.4-4.3,3.2-8.3,5.2-12.3
							C635.8,797,633.2,795.5,632.4,797.2L632.4,797.2z"/>
					</g>
					<g>
						<path d="M626.6,802.8c3.7,0.8,5.6,4.4,8.3,6.6c1.5,1.2,3.6-0.9,2.1-2.1c-3.2-2.6-5.3-6.5-9.7-7.4
							C625.5,799.5,624.7,802.4,626.6,802.8L626.6,802.8z"/>
					</g>
					<g>
						<path d="M656.9,817.9c-0.7,2.9-2.5,5.3-3.8,8c-0.9,1.7,1.7,3.2,2.6,1.5c1.5-2.9,3.4-5.5,4.2-8.7
							C660.2,816.9,657.4,816.1,656.9,817.9L656.9,817.9z"/>
					</g>
					<g>
						<path d="M651.6,821.3c2.7,2.1,5.3,4.3,8.3,6c1.7,1,3.2-1.6,1.5-2.6c-3-1.7-5.6-3.9-8.3-6C651.5,817.5,650.1,820.1,651.6,821.3
							L651.6,821.3z"/>
					</g>
				</g>
				<g>
					<path d="M711.7,464.1c-1.1-4.2-1.8-8.1-0.5-12.4c0.8-2.8,2-5,2-7.9c0-1-1.5-1-1.5,0c0,3.9-2.3,6.8-2.7,10.6
						c-0.3,3.5,0.3,6.7,1.2,10.1C710.5,465.4,712,465,711.7,464.1L711.7,464.1z"/>
				</g>
				<g>
					<path d="M718.5,461.7c-4.2-3.9,0.8-13.1,2.4-17.5c2.4-6.6,3-13.8,3-20.8c0-1-1.5-1-1.5,0c-0.1,9.1-1.8,17.1-4.9,25.5
						c-1.5,4-3.8,10.3-0.1,13.8C718.2,463.4,719.2,462.4,718.5,461.7L718.5,461.7z"/>
				</g>
				<path fill="#353535" d="M961,842.6c0,0,9.1,3.8,15.2,2.6c0,0-3.5,14.7-1.1,14.9c0,0-6.5-2.9-11.2-0.5L961,842.6z"/>
				<path fill="#353535" d="M1005.1,844.8l13.5,4.5l-1,13.5c0,0-9.9-1.5-9.9,1.1l-0.1,2.3c0,0-5.8-1.8-4.7-8.6l1.7-3L1005.1,844.8z"/>
				<path d="M958.4,867.6c0.6-1.5,2-3,2.3-5.9c0.9-1.5-0.3-5.6,2.3-7c0.6,1.7,0.4,2.4,0.7,3.8c5.2-2.4,8.5-1.1,10.2,0
					c0.7,0.4-0.5-3.4,0.5-3.5c1.6-0.2,4.2,5.4,3.7,5.7c0,6.8,0.6,9.1,0.5,8.8c-0.1-0.2,2.5,6.3,1.6,8.9c-0.9,2.7-6.8,14.7-23.9,10.7
					c0,0-6.1-2.6-6.7-9.3C952.8,872.1,955.5,872.9,958.4,867.6z"/>
				<path d="M1000.6,868.1c0,0-2-7.3,2.7-11c2.3,9.2,4.1,8.3,5.4,4.3c0,0,4.4-5.2,9.6,0.7l1.7-0.7c0,0,18.4,18.5,15.7,16.7
					c0,0,3.6,7.4,3.1,8.3s-8.1,9-19.8,3.2C1012.6,885.3,1011.1,874.1,1000.6,868.1z"/>
				<path fill="#3A3A3A" d="M1006.8,353.6l-3-10.7l-1.6-1.8l-4.8,0.3l-7.7-4.7l-2.9,1.6c0,0-7.2-1.4-18.7,6.8l-7,8.5v3l-2.2,1.9
					c0,0-4.4,3.2-2.4,12c0,0-1.6,0.7-4,6.2c0,0-4,4.5-3.2,5.6c0,0,5.3,10.1,4.4,9.5l0.3,2.4l5.3,9.1L959,401l-2.5-6.5l3.2,2.2
					c0,0,1.2,3.2,5.9,6.4l2.7,5.2l2-3.6c0,0,0.3-4.8-7-10.5c0,0-2.7-4.9-0.4-8.2l2.7-3.1c0,0,0.6,3.3,4.8-14.1c0,0-0.6-2.2,7.7-6.6
					c0,0,1.3,0.9,9.9-9.4c0,0,3.7-6.8,13.2-1.5L1006.8,353.6z"/>
				<path fill="#3A3A3A" d="M1006.8,352.2c0,0,3-3.1,6-2.5c3.1,0.6,2.6,9.5,3.1,9.2c0,0-0.2,7.5,0.3,6.1c0.5-1.4-1.2,7.5,1,10.3
					c0,0,4.8,10.9,4.5,11.5c0,0,0.4,1.7-5.8,8.6c0,0-1.8,1.4-1,7c0,0-0.6,3-8.3,4.6c0,0-3.3-1-6.4,11.1c0,0,0.8-9.9,4.6-12.1l-2.8,1.2
					c0,0,1.1-7.3,4.5-9.5c0,0,0.9-0.6,1.4-4.9l3.7-6.4c0,0-2.8-5.5,0.1-13.6c0,0-1.3-9.8-2.3-13.9c-1-4.1-3.2-5-3.2-5l-0.3-1.6
					L1006.8,352.2z"/>
				<path fill="#3A3A3A" d="M1247.2,360.9c0,0,0.1-6.1,1.3-5.2c0,0,5.1-3.9,2.4-4.9c0,0-1.1-5.4,1.7-5.6c0,0,2.5,0.4,3.5-2.2
					c0,0,0.5-1.9,3.4,2.2c0,0,1.5,0.7,3.8,0c0,0,1.1,6.2,7.1,7.3c0,0,3.1,0.9,3-4.9l-1.8,5.4c0,0,0.3,2,1.8,2c1.4,0,2.6-0.2,3.6-0.4
					c1-0.3-1.2,5.8,0,4.6c0,0,3.1,1.7,3.6-0.4l1.8,1.1l6.8,4.4c0,0-0.6,1.6,3.3,1.4l-0.8,2.1l4.7-2.1l2.8,0.2c0,0-1.1-2.1,3.2-4.1
					c4.3-2,1.8-4.2,1.9-3.9c0.1,0.3-2.1-4.1,0.6-5.7c2.7-1.6-0.4-7.5-0.4-7.5l-0.4-3.1c0,0-5.4,1.6-3.2-2.9c2.2-4.5,0.7-5.2-4.6-9.2
					c-5.2-4-5.2,2.6-5.7,1.2c-0.5-1.4-4.8-3.6-4.8-3.6s-3.6,2.2-6.8,2.5c0,0-1-3.4-4.3-4c-3.3-0.6-2.4-3.5-2.4-3.5s-2.1-0.3-3.3,2.5
					c-1.2,2.8-3.7,4.6-4,4.1c-0.3-0.5-2.2-3.8-3.7-3s-3.3,3.4-2.9,4.2s-2,6.3-4.2,5.9c-2.2-0.4-2.1,1-3.9-2.4c-1.8-3.4-2.8,6-2.6,4.9
					c0,0,2.8,4-5.4,3.2c0,0,2,5.5-0.6,5.2c0,0-0.9-2.6-3.2-1.1c0,0-1.5,1.8,3.8,9.2c0,0-4,5.3-0.6,7.1
					C1245,363.9,1241.3,360.1,1247.2,360.9z"/>
				<path d="M680.1,378.3c0,0-14.7-0.6-13.3,11.8l4.2,25.2l-1.4,0.3c0,0-4.6-19.7-4.4-19.9c0,0-1.9-9.2,1.9-14.8s13-4.8,13-4.8
					L680.1,378.3z"/>
				<path d="M701.6,377.9c0,0,8.3,1.5,10.4,5.6s2.4,3.4-2.4,8.8s-6.9,8.1-7.6,9.5s-7.8,11.7-7.8,11.7l-2.6,2.8l1.2,1.1l8.9-10.4
					c0,0,8.4-7.4,11.2-13.3s4-9,3-10.7s-3.6-6.7-13.9-7.1L701.6,377.9z"/>
				<path fill="none" stroke="#000000" stroke-miterlimit="10" d="M690.9,422.7c0,0-13.3,10.6-7.1,21.5s5.1-1.2,11,21.8"/>
				<path fill="#3A3A3A" d="M706.8,317c0,0,8.3-7.4-0.3-16.5s-24.8-2.6-24.8-2.6s-8.6,5.1-11,9.4c0,0,0.4,2.4-1.6,5.9s-0.8,10.2-1,10.7
					s2.7,7.1,2.7,7.1l1.4,0.3c0,0-2-6.2,3.8-11.8c0,0,1.4-1.6,13.1-1.4c0,0,5-0.9,6.8-3.3c0,0,3.8-3.3,8-2.3L706.8,317z"/>
				<path fill="#3A3A3A" d="M710.3,306.7c0,0,2.8-2.7,3.3,0c0,0,1.8-0.1,2.6,4s-0.8,4.4,0.3,8.3s1.6,10.9,0.5,11.3l-3.1,5.9l-1.8-0.8
					c0,0-0.2-5.9-0.7-8s-4.8-8.3-4.8-9.3s4.6-4.2,3-5.7s-0.3-5.4-0.3-5.4L710.3,306.7z"/>
				<g>
					<path d="M709.5,341.6c-4.4,0-11.9-0.3-13.2-2.3c-1.2-1.2-1.3-1.7-1.4-2.9c0-0.6-0.1-1.4-0.4-2.7c-0.2-0.3-0.9-1.3-2.2-1.3
						c-0.7,0-1.4,0.3-2.1,0.9c0,0.8-0.1,3.3-1.9,5.4c-1.1,1.2-7.2,2.1-10.8,2.1c-3.6,0-4.3-0.8-4.5-1c-2.2-2.6-2.4-6.4-2.4-6.5l0-0.3
						l0.3-0.1c0.2-0.1,5-2.6,11.5-2.6c2.4,0,4.7,0.3,6.9,1c0.4-0.1,1.6-0.5,2.9-0.5c1.7,0,2.6,0.6,3,1.3c1.1-0.4,4.3-1.4,8-1.4
						c3.8,0,6.9,1,9.4,3l0.2,0.1l0,0.2c0.7,5.8-2.1,7.5-2.2,7.6l-0.1,0.1l-0.1,0C710.4,341.6,710.1,341.6,709.5,341.6z M695.3,333
						c0.1,0.1,0.1,0.2,0.1,0.2l0.1,0.1c0.3,1.4,0.4,2.3,0.4,2.9c0.1,1.1,0.1,1.3,1.1,2.3l0.1,0.1c0.7,1.1,5.6,1.9,12.4,1.9
						c0.3,0,0.5,0,0.6,0c0.4-0.3,2.2-1.9,1.7-6.3c-2.2-1.8-5.1-2.6-8.6-2.6C699.4,331.6,695.9,332.8,695.3,333z M671.7,333.5
						c0.1,0.9,0.5,3.7,2.1,5.6c0.3,0.3,1.4,0.7,3.7,0.7c4.2,0,9.4-1,10-1.8c1.9-2.2,1.7-4.9,1.7-5l0-0.3l0.2-0.2
						c0.3-0.2,0.5-0.4,0.8-0.6c-0.4,0.1-0.7,0.2-0.7,0.2l-0.2,0.1l-0.2-0.1c-2.2-0.7-4.4-1-6.8-1C677.1,331.2,672.8,333,671.7,333.5z"
						/>
				</g>
				<path fill="#353535" d="M980.3,876.9c0,0,2.7,15.8-17.4,16.6c-6,0.2-13.9-0.2-13.3-13.4c0,0,1.7,9.2,12.6,9.7
					C972.6,888.1,977.7,883.8,980.3,876.9z"/>
				<path fill="#353535" d="M1000.6,868.1c0,0,7.2,2.1,12.5,14.4c5.3,8.8,12.8,9.8,16.6,8.9c2.3-0.8,4.2,0.4,9.1-5.2
					c0,0,3.8,13.8-10.7,11.1c-14.5-2.7-17-8.4-17.4-9.2c-0.3-0.9-0.2-3.6-4-10.6c0,0-2.2-4.6-5.3-6.2
					C1001.4,871.3,1000.3,869.5,1000.6,868.1z"/>
				<path fill="#353535" d="M1208.8,887.1c0,0,14.1,5.2,24.7-6.9c0,0,17-8.2,18.2-10c1.2-1.8-0.1,10.8-14.7,9.3l-3.4,2.3
					c0,0-5.5,16.7-20.3,10.2l-2.8-1.2L1208.8,887.1z"/>
				<path fill="#353535" d="M1297.1,881.6l16.6,4.1c0,0,15.5,11.3,28.8,3.7c0,0-0.4,9.6-16.6,7.8c0,0-2.2-1-4.8-3.2
					c-2.6-2.3-6.2-8.6-8-7c-1.8,1.5-10,3.1-16-4.8"/>
				<path fill="#605B1F" d="M1197.5,880.2c0,0,6.4-2.3,10.6,6.7c0,0,13.7,5.4,26.9-7.5c0,0,10.5-3.5,17.1-9.9c0,0,3-9.7-3.4-21.9
					c0,0-4.6,6.7-19.2,1.5c0,0-10.7,1-12.9,2.6s5.8,9.5-8.5,17.8C1208,869.4,1200.4,872.2,1197.5,880.2z"/>
				<path d="M1196.6,883.5c0,0,4-9.5,11.5,4.5c0,0,2,2.9,5.2,4C1216.6,893.2,1195.7,891.2,1196.6,883.5z"/>
				<path d="M1338.1,895.6c0,0,3.7-0.8,3.4-3.2c-0.3-2.4,8.4-16.4,11-9.1c0,0,5.1,4.3-5.5,9.1S1338.1,895.6,1338.1,895.6z"/>
				<path fill="#605B1F" d="M1303.1,849.6c0,0-11,29.7-6.2,30.7c0,0,4.5,3.2,17.3,6.1c0,0,14.1,7.8,16.3,6.1c0,0,4.2,0.4,11.2-2.7
					c0,0,4.1-8.6,6.9-8c2.8,0.6,2-0.4,4.4,0.7c0,0-0.6-7.5-16.9-11.4c-6.5-4.6-5-6.8-6.5-9.3l-1.3-5c0,0-4-0.7-6-2.9
					c-2-2.2-9.5-3.7-13.3-4.4S1303.1,849.6,1303.1,849.6z"/>
				<path d="M654.5,885.5c0,0-0.2-5.4,6.2-11.3l-0.9-2.1c0,0-2.9,1.6-5.5,7.3v1.7c0,0-14.1-13.9-21.2-8.5l-4.4,5c0,0,15.8-6.7,25,4.4
					l-0.1,3.4H654.5z"/>
				<path d="M692.6,880.6l0.5-3.7c0,0,8.7-8,23-1l-3.8-5.8c0,0-5.2-4.9-19.3,4.9l-1.3-0.3c0,0-2.7-6.8-4.6-6.6l-0.5,2.4
					c0,0,1.4,0.4,5,6.4l0.1,4.1L692.6,880.6z"/>
				<path fill="#B75925" d="M704.8,475.1v-2c0,0-5.3-6.4-7.2,6.1c0,0.1,0,0.1,0,0.2c0.6,0.4,1.2,0.5,2.1,0.5
					C701.4,471.3,702.4,474,704.8,475.1z"/>
				<path fill="#B75925" d="M699.7,489.5c-0.8,0.1-1.7,0-2.3,0.3c0.1,0.4,0.3,0.7,0.4,1c0,0,2.5,5.2,8.3,4.7l-0.2-1.9
					C705.9,493.6,701.5,493.2,699.7,489.5z"/>
				<polyline points="683,369.3 688.8,370.3 696.3,368.5 696.3,370 694.1,371.5 690.4,372.6 689.1,373.6 685.4,372.8 684.4,371.5 	"/>
				<polygon points="679,353.5 689.7,351.5 699.3,354.9 689.7,353.2 687.5,353.2 	"/>
				<polygon points="1258.7,400.1 1263.6,401.4 1267.9,400.1 1272.2,398.9 1272.2,400.2 1267,402.5 1262.2,403.3 1260,402.5 
					1258.7,401.1 	"/>
				<polygon fill="#3A3A3A" points="1290,384.9 1283.7,392.9 1277,397.6 1282.7,395.2 1287.8,391.8 1289.5,387.6 	"/>
				<polygon fill="#3A3A3A" points="1245.1,382 1248.5,388.4 1250.6,394.1 1252.3,396.3 1248.7,393.5 1247,390.1 1245.1,384.9 	"/>
				<path d="M1252.3,364.2l5,0.3l5.2,1.3c0,0,1.5,1-0.4,1.7l-4.7-1.1l-3.7-0.6l-1.8,0.6l-0.9-1.2L1252.3,364.2z"/>
				<polygon points="1274.5,366.7 1277.4,364.9 1280.3,364.6 1282.4,365.1 1285.3,366.7 1286.4,368.6 1285.9,370.5 1283.7,369.7 
					1282.4,368 1281.6,367.4 1280.3,366.7 1278,366.7 1276.2,367.6 1275,367.6 	"/>
				<path d="M1251.8,369.6c0,0-0.6,1.2,0.6,1.2c0,0,3.6-1.8,7.7-1.7c0,0,1.2-1.1-0.6-1.3C1257.8,367.7,1253.8,368.2,1251.8,369.6z"/>
				<path d="M1275.6,371.6c0,0,0-0.5,0.6-0.4s2.5-0.4,6.4,1.7c0,0,0.7,0.8-0.6,1.2c0,0-3.8-1.8-5.8-1.4
					C1276.2,372.6,1275.3,372.6,1275.6,371.6z"/>
				<path d="M974,366.6c0,0-0.8,2,1,1.9c0,0,4.7-3,8.9,0.3c0,0,1.8-0.3,0.7-2.2C983.5,364.7,976.6,365,974,366.6z"/>
				<path d="M994.9,366.9c0,0-0.6,1.9,1.1,1.8c0,0,5-3.5,9-0.1c0,0,3,0.6,1.7-1.3C1003.8,362.7,996.9,365,994.9,366.9z"/>
				<path d="M977.3,368.8c-1.8,0.6-5.4,5.5,0.3,8.5c3,1.6,5.6-1.6,6-3.3c0.3-1.4,0.1-5-3-5.5C979.7,368.3,978.2,368.5,977.3,368.8z"/>
				<path d="M998.4,369.1c-1.9,0.6-5.7,5.3,0.3,8.2c3.2,1.5,5.9-1.6,6.3-3.2c0.4-1.4,0.1-4.9-3.1-5.3
					C1000.8,368.7,999.3,368.9,998.4,369.1z"/>
				<path d="M986.8,372c0,0-4.2-3.8-7.3-4c-3-0.2-7.4,4.8-7.8,5.8s-0.4,2.6-0.4,2.6s11,2.9,15.3-0.4C986.5,376,987.4,372.6,986.8,372z
					 M985.5,375.5c-0.4,0.5-12.7,1.2-12.7,0c0.1-1.2,1.3-2.8,1.3-2.8c1.3-3.4,5.4-3.5,5.4-3.5c1.6,0.4,6.1,2.7,6.2,3.5
					C985.8,373.5,985.9,375,985.5,375.5z"/>
				<path d="M993.5,375.7c4,3.6,15.2,1.5,15.2,1.5s0.2-1.6-0.2-2.6c-0.4-1-4.4-6.3-7.4-6.3c-3,0-7.5,3.5-7.5,3.5
					C992.9,372.3,993.5,375.7,993.5,375.7z M994.5,372.5c0.2-0.8,4.8-2.7,6.5-3c0,0,4.1,0.4,5.2,3.9c0,0,1.1,1.7,1.1,2.9
					c0,1.2-12.3-0.3-12.6-0.9C994.2,374.8,994.3,373.3,994.5,372.5z"/>
				<path d="M674.4,326.5c0,0,6-3.4,8.3-3l0.3,1.8c0,0-7,2.2-8.4,3.8l-0.9-1L674.4,326.5z"/>
				<path d="M701.3,325.1c0,0,5.7,0.1,7.3,2.8c0,0,0.3,2.3-1.5,1.6s-2.8-2.2-5.3-1.8l-0.8-1L701.3,325.1z"/>
				<path d="M679.1,332.9c0,0,4.3-2.1,6,0.8c0,0,0.5,1.1-1.1,1c0,0-1.2-2.1-4.5-0.6C679.5,334.2,678.3,334.3,679.1,332.9z"/>
				<path d="M699.6,334c0,0,5.4-1.1,6.2,2.2c0,0-0.2,1.2-1.3,0.5s-0.4-1.9-4.6-1.3C699.9,335.4,698.8,334.9,699.6,334z"/>
			</g>
</svg>
