<?xml version="1.0" encoding="utf-8"?>
<!-- Generator: Adobe Illustrator 16.0.0, SVG Export Plug-In . SVG Version: 6.00 Build 0)  -->
<!DOCTYPE svg PUBLIC "-//W3C//DTD SVG 1.1//EN" "http://www.w3.org/Graphics/SVG/1.1/DTD/svg11.dtd">
<svg version="1.1" id="Layer_1" xmlns="http://www.w3.org/2000/svg" xmlns:xlink="http://www.w3.org/1999/xlink" x="0px" y="0px"
	  viewBox="0 0 300 300" enable-background="new 0 0 300 300" xml:space="preserve">
<path fill-rule="evenodd" clip-rule="evenodd" d="M40.4,219.9c-0.1,0.3-0.3,0.5-0.4,0.8c5.2,2.7,10.3,5.7,15.6,8.1
	c15.9,7.2,32.6,10.9,50.1,11.3c22.8,0.5,44.5-3.9,64.7-14.8c20.7-11.1,37-27.1,48.9-47.2c12.9-21.7,19.3-45.3,19-70.6
	c0-2.1,0.7-3.3,2.2-4.6c5.6-5.3,11.1-10.8,16.5-16.3c1.2-1.2,2-2.8,3-4.3c-8,2.1-15.7,4.2-23.3,6.2c3.5-4.1,7.2-7.4,10.5-11.2
	c3.3-3.8,5.8-8.2,7.3-13.9c-1.5,0.8-2.4,1.2-3.2,1.6c-7.2,3.9-14.8,6.6-22.8,8.6c-1.9,0.5-3.2,0.2-4.7-1.2
	c-5.2-5.2-11.4-8.7-18.4-10.7c-32.4-9.2-62.8,17.6-57.8,51c0.1,0.9,0.2,1.8,0.4,3.1c-38.1-2.6-68.9-18.8-93.8-47.8
	c-11,24-6.4,43.8,13.1,60.6c-7,0.2-13-2.4-19.6-5.1c1.8,23.4,13.4,38,35.1,45.1c-6.1,1.8-12.3,1.7-19,0.8
	c7.6,19.4,21.4,29.7,42.3,31.8C86,215.9,64.4,222,40.4,219.9z"/>
</svg>
