<?xml version="1.0" encoding="utf-8"?>
<!-- Generator: Adobe Illustrator 16.0.0, SVG Export Plug-In . SVG Version: 6.00 Build 0)  -->
<!DOCTYPE svg PUBLIC "-//W3C//DTD SVG 1.1//EN" "http://www.w3.org/Graphics/SVG/1.1/DTD/svg11.dtd">
<svg version="1.1" id="Layer_1" xmlns="http://www.w3.org/2000/svg" xmlns:xlink="http://www.w3.org/1999/xlink" x="0px" y="0px"
	 width="100%" height="100%" viewBox="0 0 200 314" enable-background="new 0 0 200 314" xml:space="preserve" preserveAspectRatio="xMidYMid meet">
<g id="wall_x5F_fill">
	<rect id="wall_x5F_colour" fill="#D1CEB2" width="1920" height="1080"/>
</g>
<g id="wall_x5F_texture">
	<g id="etchy_x5F_background">
		<g id="_x31_x1_x5F_sketchy" opacity="0.2">
			<g>
				<path fill="none" stroke="#323600" stroke-width="3" stroke-linecap="round" stroke-linejoin="round" d="M5,3.9
					c0,0,188.7-9.1,188.7,0C193.7,20.7,5,10.4,5,10.4c0,10.8,188.7-10.7,188.7,0C193.7,22,5,4.5,5,15.5c0,10.2,188.7,0,188.7,0
					L5,21.4c0,3.7,188.7,0,188.7,0S5,20.9,5,27.1c0,9.2,188.7-4.8,188.7,0c0,0-188.7,0.8-188.7,6.8h188.7L5,40.9
					c0,9.6,188.7,0,188.7,0C193.7,48.3,5,46.8,5,46.8s188.7-3.6,188.7,0C193.7,46.8,5,43,5,53.5c0,0,188.7-14.6,188.7,0
					C193.7,59,5,49.7,5,59.6h188.7c0,0-188.7-1.1-188.7,6.9c0,0,188.7-2.7,188.7,0C193.7,75,5,71.7,5,71.7c0,0.3,188.7,0,188.7,0
					C193.7,83.5,5,77.3,5,77.3c0,6.8,188.7-2.3,188.7,0C193.7,77.3,5,77.1,5,83c0,11.4,188.7,0,188.7,0L5,89.7
					c0,0,188.7-6.5,188.7,0C193.7,90.4,5,87,5,96.1c0,15.5,188.7-11.4,188.7,0c0,8.4-188.7,6.1-188.7,6.1h188.7
					c0,0-188.7,4.5-188.7,5.6c0,0,188.7-16.4,188.7,0c0,11.8-188.7,5.1-188.7,5.1c0,16.4,188.7-10.7,188.7,0
					c0,8-188.7,6.7-188.7,6.7c0,11,188.7-10.7,188.7,0c0,4.6-188.7,5.6-188.7,5.6c0,3.2,188.7-15.4,188.7,0c0,8.9-188.7-5.1-188.7,6
					c0,0,188.7-5.1,188.7,0c0,0-188.7-6.1-188.7,5.5c0,0.7,188.7,0,188.7,0S5,129.2,5,143.3h188.7c0,16-188.7,6.5-188.7,6.5
					c0,1,188.7-11.9,188.7,0c0,7-188.7,6-188.7,6c0,2.1,188.7-15.7,188.7,0c0,3.5-188.7-7.4-188.7,5.9c0,0,188.7-6.7,188.7,0L5,168
					c0,14.7,188.7-13.4,188.7,0c0,0-188.7-1.5-188.7,5.4h188.7c0,14.3-188.7,6.1-188.7,6.1h188.7c0,0-188.7,2.8-188.7,6.1
					c0,0,188.7-3.4,188.7,0c0,6.7-188.7,2.5-188.7,5.9c0,8.8,188.7-6.9,188.7,0c0,3-188.7-9.3-188.7,5.6c0,0,188.7-16.5,188.7,0
					c0,0-188.7,5.2-188.7,6.4c0,0,188.7-1.8,188.7,0c0,0-188.7,5.6-188.7,6.5c0,13.8,188.7,0,188.7,0L5,215.4c0,6,188.7-5.3,188.7,0
					c0,6.4-188.7,5.5-188.7,5.5s188.7-5.4,188.7,0c0,12.8-188.7,5-188.7,5c0,11.9,188.7,0,188.7,0S5,221,5,232.5h188.7
					c0,6.1-188.7-7-188.7,5.7h188.7c0,13.9-188.7,6.2-188.7,6.5c0,0,188.7-3.6,188.7,0c0,7.7-188.7-6-188.7,6.9
					c0,13.1,188.7-10.4,188.7,0c0,0-188.7-7.4-188.7,6.9h188.7L5,264.2c0,7,188.7,0,188.7,0c0,8.3-188.7,7-188.7,7
					c0,13.3,188.7-12.2,188.7,0c0,0-188.7,1.2-188.7,6.5h188.7c0,2.5-188.7-5.4-188.7,6.6c0,5.2,188.7-12.8,188.7,0
					C193.7,294.4,5,274,5,289.4c0,0,188.7-1.8,188.7,0c0,14.3-188.7,6.1-188.7,6.1c0,8.8,188.7,0,188.7,0C193.7,299.1,5,302,5,302
					c0,16.4,188.7,0,188.7,0"/>
			</g>
		</g>
	</g>
	<g id="panel_x5F_textures">
		<g id="Biege_x5F_texture">
			<g id="_x31_x1" opacity="0.4">
				<g>
					<path fill="none" stroke="#FFFFFF" stroke-linecap="round" stroke-linejoin="round" d="M8.6,312.1C29.3,312.1-9.9,2,8.6,2
						C23,2-7.3,307.6,16.8,307.6c20.3,0,0-310.8,0-310.8C29.5-3.2,3.3,305,24.7,305c15.5,0-9.4-303.5,0-303.5
						c20.4,0-5.1,304.3,8.5,304.3c12.2,0-11.8-303,0-303c11.3,0,0.2,304.9,8.9,304.9c0,0-16.3-311.5,0-311.5
						c3.8,0,7.8,316.5,7.8,316.5c8,0-1.2-311.2,0-311.2c1.1,0-13.1,306.6,8.7,306.6c21.6,0-6.6-309.7,0-309.7L66.5,307
						C77,307,55.2-4.5,66.5-4.5c17.1,0,7.5,315.8,7.5,315.8C94,311.4,60-3,74.1-3c0,0-16.3,308.5,8,308.5c21.5,0-14.9-304.1,0-304.1
						c15.1,0,8.4,305,8.4,305c0.8,0-6.6-308.5,0-308.5c1.1,0,7.4,307.3,7.4,307.3c26.5,0-16.1-303.8,0-303.8
						c2.2,0,5.3,309.6,8,309.6c0,0-26.9-308.2,0-308.2c11.2,0,6.5,310.2,7.6,310.2c14.5,0-8.9-315.2,0-315.2c25.3,0-18,312,7.9,312
						c0.9,0-3.8-312.3,0-312.3c7.5,0,8.9,309.6,8.9,309.6c20.9,0,0-311,0-311c3,0,4.8,317.2,8.7,317.2c8.4,0-5.1-311.9,0-311.9
						c14.8,0,7.2,305.8,7.2,305.8c8,0,0-302.4,0-302.4s-2.1,308.8,7.3,308.8c13.4,0-25.6-315.6,0-315.6c8.2,0,7.4,308.4,7.4,308.4
						c11.6,0-21.8-306.1,0-306.1c12.5,0,5.9,310.8,8.7,310.8c7.5,0-21.2-312.7,0-312.7c10.3,0,2,311.8,7,311.8
						c26.4,0-10.7-307.2,0-307.2c16.6,0-17.7,301.9,7.4,301.9c17.3,0-8.5-309,0-309c23.8,0,7,314.6,7,314.6
						c14.4,0-19.3-311.2,0-311.2"/>
				</g>
			</g>
		</g>
		<g id="colour_x5F_texture">
			<g id="_x31_x1yellow_x5F_a">
				<g>
					<path fill="none" stroke="#DDC04A" stroke-linecap="round" stroke-linejoin="round" d="M143.3,294.1c12.7,0-14.7-281.5,0-281.5
						c12.4,0-2.7,282,10.1,282c13.8,0-14-265.6,0-265.6c11.9,0-3.5,261.6,8.6,261.6c15,0-14.1-275.1,0-275.1c12.6,0-4,285.4,8,285.4
						c13.7,0-13.1-287.8,0-287.8c13.5,0,1,282.1,15.1,282.1c15.1,0-14.6-283.3,0-283.3"/>
				</g>
			</g>
		</g>
	</g>
	<g id="round_x5F_patches">
		<g id="_x31_x1a" opacity="0.4">
			<g>
				<path fill="none" stroke="#FAFFCD" stroke-linecap="round" stroke-linejoin="round" d="M5,7.3L5.5,7c0,0.1,2.6,5.5,2.6,5.5
					c0,0.1,5.9-3.7,6-3.5C14.2,9.1,0.4,28,0.6,28.3C0.6,28.5,29,12,29,12c0.4,0.7-29.3,22.9-29.3,22.9c0.4,0.7,38.1-22,38.1-22
					S11.4,30.2,11.7,30.7c0.1,0.2,44.9-25.9,44.9-25.9C57,5.5-1,49.9-0.8,50.2c0.3,0.5,62.4-37,62.8-36.3c0.6,1-48.3,31.4-48.1,31.8
					c0.3,0.6,61.2-36.9,61.9-35.8c0.7,1.3-60.9,48.5-60.6,49c0.3,0.4,86.1-52.5,87.3-50.4c1.1,2-100.2,65.6-100.2,65.6
					C3,75.4,112.7,8.8,113.4,10C114.1,11.2,5.1,77.4,5.2,77.6c1.2,2,110.5-63.8,110.5-63.8C117.4,16.7,4,88.3,4.3,88.9
					c1.2,2,121.1-71.7,121.9-70.4C126.4,19,13.6,97.9,14.5,99.4c1.5,2.5,127.4-74.6,127.8-73.8C142.4,25.7-3.3,114.8-3,115.4
					c1.3,2.3,145.6-85.8,146.3-84.5C144.5,33-5.4,118.4-4.4,120.2c0,0,155-91.7,155.9-90c0.3,0.6-153.8,90.9-152.7,92.7
					c0.9,1.5,157.3-90.8,157.3-90.8C157.8,34.8,4.4,133.2,5.4,134.9c0.7,1.2,156-94.3,157.8-91.1c2.1,3.6-156,98.1-154.9,100
					c1.1,1.9,154.6-91.9,155.7-89.9c1.2,2.1-151.9,97.5-149.7,101.3c0.4,0.7,155.9-92,156.8-90.5c1,1.7-168.9,96.2-168,97.8
					c2,3.4,165.3-97.6,166.3-96c0.3,0.6-161.4,100-159.2,103.8c1.3,2.3,160.6-97.6,162.7-93.9C174.4,79,9.4,175.5,9.8,176.2
					C11.5,179.1,164.2,87,164.2,87C165.5,89.3,6.1,190.3,7,191.8C8.4,194.2,177.7,88.1,180,92C180.7,93.2-6.1,210.6-5,212.5
					c1.9,3.3,178.2-108.3,180.5-104.2c0,0-161.1,112.1-160.4,113.3c1.4,2.5,159.6-96.4,161.5-93.2c1.9,3.3-172.9,101.4-171.8,103.3
					c0,0,156.1-93.1,157.4-90.9C162.3,141,2,239,2.5,239.8c1.9,3.3,163.1-94.4,163.2-94.2c1.2,2.1-151.6,96.6-151.2,97.3
					c2,3.5,152.8-91.5,154.2-89c0,0-155.8,90.3-154.3,93c2.2,3.9,149.3-86.2,149.3-86.2S14.4,252.2,15.1,253.5
					c1.2,2,148.4-90.3,150.4-86.8c1.3,2.2-155.5,103.6-153.8,106.5c2,3.4,147.6-86,147.9-85.4c1.9,3.3-164.8,99.4-164,100.7
					c1.7,3,160.7-95.9,162.1-93.6c0.8,1.4-120.5,88-120.5,88c1,1.7,116.2-68.7,116.9-67.5c1.4,2.4-96.5,63.5-95.9,64.4
					c1,1.8,89.7-51.8,89.7-51.8S53,283.5,53.8,284.8c0,0,93.7-55.9,94.5-54.5c0,0-41.5,38.3-41.3,38.8c0,0.1,23.2-13.4,23.2-13.4"/>
			</g>
		</g>
	</g>
</g>
<g id="wall_frames">
	<path id="vert_x5F_frame1" fill="#061300" d="M221.6,784.2c-3.6-0.2-7.6,1.8-11.9,0.7c-0.4,0-0.9,0-1.4,0c-8.2,0-22.3,0-22.3,0
		s0-16.4,0-44.6c0-0.6,0-1.3,0-1.9c0-7.5,0-14.5,0-21.3c0-0.8,0-1.5,0-2.3c0-6.6,0-13.6,0-20.9c0-0.5,0-1.1,0-1.6
		c1-6.4-1-12.4,0-18.6c0-0.5,0-0.9,0-1.4s0-0.9,0-1.4s0-1,0-1.4c0-25.5-2-49.5,3-74.5c1-4-3-7-3-10.7c0-0.6,0-1.1,0-1.7
		c0-2.3,0-4.6,0-6.9c0-0.6,0-1.2,0-1.8c0-22.9,0-46.9,0-70.4c-0.1-0.7-0.1-1.3-0.1-1.9C186,276.7,186,0,186,0h28.1
		c0,0,0,331.3,0,563.5c0,0.6,0,1.2,0,1.8C213,571,207,574,205,579c4,0,9,0,9,5.3c0,0.6,0.1,1.2,0.1,1.8c0,35.3,0,67.9,0,96
		c0,0.5,0,0.9,0,1.4c-1.1,6.6-0.1,14.6,0,21.9c0,0.8,0,1.6,0,2.5c0,11.3,0,21.6,0,30.7c0,0.7,0,1.3,0,2c-1,4.6,0,10.6,2,15.6
		c2,11-1,21,9,28c-1,0-1,0-1.7,0.1C222.4,784.1,221.6,784.2,221.6,784.2z"/>
	<g id="vert_x5F_frame1_x5F_tex">
		<g>
			<path fill="none" stroke="#282828" stroke-width="2" stroke-linecap="round" stroke-linejoin="round" d="M186.2,794.7
				c10.7,0-5.1-798.7,0-798.7c11.8,0,7.7,793.9,13,793.9c8.3,0-6.1-787.7,0-787.7c10.8,0,6.6,789.7,13,789.7
				c1.5,0-2.5-204.7,0-204.7"/>
		</g>
	</g>
	<path id="hor_x5F_frame3" fill="#061300" d="M1920,300v28c0,0-19.2,0-53.8,0c-0.5,0-0.9,0-1.4,0c-75.8-4-150.8,2-226.9,0
		c-0.6,0-1.2,0-2,0c-368.7,0-1007.2,0-1367.8,0c-0.8,0-1.7,0-2.6,0.1C262,330,259,333,258,333c-19,1-37-6-56,0c-3,1-8-1-11-1
		c-12-1-23,0-35-1c-4,0-8-1-12-1c-16-1-33,1-49-4c-3-1-7,1-11.3,2c-0.5,0-1.1,0.1-1.6,0.1c-52.2,0-82,0-82,0V300
		c0,0,119.3,0,298.3,0c0.8,0.1,1.5,0.2,2.2,0.2C305,301,309,302,314,301c15-3,29-6,43-6c52,0,104,0,156,3c19,2,38,1,56.8,2
		c0.6,0,1.6,0,2.2,0c102.8,0,212.8,0,323.9,0c1.7-0.4,2.5-0.5,3.4-0.6C992,294,1084,296,1176.7,300c0.8,0,1.7,0,2.5,0
		C1576,300,1920,300,1920,300z"/>
	<g id="hor_x5F_frame3_x5F_tex">
		<g>
			<path fill="none" stroke="#282828" stroke-width="2" stroke-linecap="round" stroke-linejoin="round" d="M348,295.5
				c0,0.9,91-0.9,91,0c0,4.4-440.1,10.6-440.1,15c0,19.2,1922-19.2,1922,0S-1.5,306.3-1.5,325.5s1921.4-19.2,1921.4,0"/>
		</g>
	</g>
</g>
</svg>
