<?xml version="1.0" encoding="utf-8"?>
<!-- Generator: Adobe Illustrator 16.0.0, SVG Export Plug-In . SVG Version: 6.00 Build 0)  -->
<!DOCTYPE svg PUBLIC "-//W3C//DTD SVG 1.1//EN" "http://www.w3.org/Graphics/SVG/1.1/DTD/svg11.dtd">
<svg version="1.1" id="Layer_1" xmlns="http://www.w3.org/2000/svg" xmlns:xlink="http://www.w3.org/1999/xlink" x="0px" y="0px"
	 width="100%" height="100%" viewBox="0 0 652 314" enable-background="new 0 0 652 314" xml:space="preserve" preserveAspectRatio="xMidYMid meet">
<g id="wall_x5F_fill">
	<rect id="wall_x5F_colour" x="-200" fill="#D1CEB2" width="1920" height="1080"/>
</g>
<g id="wall_x5F_texture">
	<g id="etchy_x5F_background">
		<g id="_x31_x2_x5F_sketchy" opacity="0.2">
			<g>
				<path fill="none" stroke="#323600" stroke-width="3" stroke-linecap="round" stroke-linejoin="round" d="M4.6,1.1
					c0,0,640.4-30.8,640.4,0c0,57-640.4,6.6-640.4,6.6c0,36.7,640.4-36.3,640.4,0c0,39.2-640.4-32.2-640.4,5c0,34.7,640.4,0,640.4,0
					L4.6,18.6c0,12.5,640.4,0,640.4,0S4.6,3.4,4.6,24.3c0,31.1,640.4-16.4,640.4,0c0,0-640.4-13.7-640.4,6.8H645l-640.4,7
					c0,32.5,640.4,0,640.4,0C645,63.1,4.6,44,4.6,44S645,31.8,645,44c0,0-640.4-29.1-640.4,6.8c0,0,640.4-49.7,640.4,0
					c0,18.6-640.4-27.6-640.4,6H645c0,0-640.4-20.4-640.4,6.9c0,0,640.4-9.1,640.4,0C645,92.6,4.6,69,4.6,69c0,1.2,640.4,0,640.4,0
					c0,39.8-640.4,5.6-640.4,5.6c0,22.9,640.4-7.7,640.4,0c0,0-640.4-14.4-640.4,5.7c0,38.5,640.4,0,640.4,0L4.6,87
					c0,0,640.4-22,640.4,0c0,2.2-640.4-24.3-640.4,6.3c0,52.5,640.4-38.7,640.4,0c0,28.6-640.4,6.1-640.4,6.1H645
					c0,0-640.4,2-640.4,5.6c0,0,640.4-55.5,640.4,0c0,40.1-640.4,5.1-640.4,5.1c0,55.7,640.4-36.3,640.4,0c0,27-640.4,6.7-640.4,6.7
					c0,37.3,640.4-36.3,640.4,0c0,15.6-640.4,5.6-640.4,5.6c0,10.8,640.4-52.4,640.4,0c0,30.3-640.4-31.6-640.4,6
					c0,0,640.4-17.3,640.4,0c0,0-640.4-34-640.4,5.5c0,2.3,640.4,0,640.4,0S4.6,92.7,4.6,140.5H645C645,194.9,4.6,147,4.6,147
					c0,3.5,640.4-40.4,640.4,0c0,23.7-640.4,6-640.4,6c0,7,640.4-53.3,640.4,0c0,12-640.4-39.2-640.4,5.9c0,0,640.4-22.9,640.4,0
					L4.6,165.2c0,49.8,640.4-45.5,640.4,0c0,0-640.4-18-640.4,5.4H645c0,48.4-640.4,6.1-640.4,6.1H645c0,0-640.4-5.1-640.4,6.1
					c0,0,640.4-11.6,640.4,0c0,22.9-640.4-5.5-640.4,5.9c0,30,640.4-23.4,640.4,0c0,10.2-640.4-44.8-640.4,5.6c0,0,640.4-56,640.4,0
					c0,0-640.4,2.2-640.4,6.4c0,0,640.4-6,640.4,0c0,0-640.4,3.4-640.4,6.5c0,46.8,640.4,0,640.4,0L4.6,212.6
					c0,20.4,640.4-18.1,640.4,0c0,21.9-640.4,5.5-640.4,5.5s640.4-18.3,640.4,0c0,43.4-640.4,5-640.4,5c0,40.3,640.4,0,640.4,0
					S4.6,190.8,4.6,229.7H645c0,20.6-640.4-37.3-640.4,5.7H645c0,47.1-640.4,5.5-640.4,6.5c0,0,640.4-12.1,640.4,0
					c0,26.3-640.4-37-640.4,6.9c0,44.6,640.4-35.3,640.4,0c0,0-640.4-41.6-640.4,6.9H645L4.6,261.4c0,23.9,640.4,0,640.4,0
					c0,28.3-640.4,7-640.4,7c0,45.2,640.4-41.3,640.4,0c0,0-640.4-11.5-640.4,6.5H645c0,8.6-640.4-33.9-640.4,6.6
					c0,17.6,640.4-43.3,640.4,0c0,34.3-640.4-47.2-640.4,5.1c0,0,640.4-6.2,640.4,0c0,48.4-640.4,6.1-640.4,6.1
					c0,30,640.4,0,640.4,0c0,12.2-640.4,6.5-640.4,6.5c0,55.6,640.4,0,640.4,0s-640.4-12-640.4,6.2c0,0,640.4-18,640.4,0"/>
			</g>
		</g>
	</g>
	<g id="panel_x5F_textures">
		<g id="Biege_x5F_texture">
			<g id="_x31_x2" opacity="0.4">
				<g>
					<path fill="none" stroke="#FFFFFF" stroke-linecap="round" stroke-linejoin="round" d="M7.3,312.1c20.8,0-18.6-311.3,0-311.3
						c14.5,0-16,306.8,8.2,306.8c20.4,0,0-312,0-312c12.8,0-13.6,309.5,7.9,309.5c15.5,0-9.4-304.7,0-304.7
						c20.5,0-5.2,305.6,8.5,305.6c12.2,0-11.8-304.3,0-304.3c11.3,0,0.1,306.2,8.9,306.2c0,0-16.4-312.7,0-312.7
						c3.8,0,7.8,317.8,7.8,317.8c8,0-1.2-312.4,0-312.4c1.1,0-13.2,307.8,8.7,307.8c21.7,0-6.7-311,0-311l7.9,309.8
						c10.5,0-11.3-312.7,0-312.7c17.2,0,7.5,317.1,7.5,317.1c20,0-14.1-315.7,0-315.7c0,0-16.4,309.7,8,309.7
						c21.6,0-14.9-305.3,0-305.3c15.1,0,8.4,306.3,8.4,306.3c0.8,0-6.7-309.8,0-309.8c1.1,0,7.4,308.6,7.4,308.6
						c26.6,0-16.2-305,0-305c2.2,0,5.3,310.8,8,310.8c0,0-27-309.4,0-309.4c11.3,0,6.5,311.5,7.6,311.5c14.6,0-9-316.4,0-316.4
						c25.4,0-18.1,313.3,7.9,313.3c0.9,0-3.8-313.5,0-313.5c7.6,0,8.9,310.8,8.9,310.8c21,0,0-312.3,0-312.3
						c3,0,4.8,318.4,8.7,318.4c8.5,0-5.1-313.1,0-313.1c14.9,0,7.2,307.1,7.2,307.1c8,0,0-303.7,0-303.7s-2.2,310,7.3,310
						c13.5,0-25.8-316.8,0-316.8c8.3,0,7.4,309.6,7.4,309.6c11.6,0-21.9-307.3,0-307.3c12.5,0,5.9,312.1,8.7,312.1
						c7.5,0-21.3-313.9,0-313.9c10.4,0,2,313,7,313c26.5,0-10.8-308.4,0-308.4c16.7,0-17.8,303.1,7.4,303.1
						c17.4,0-8.5-310.3,0-310.3c23.9,0,7,315.9,7,315.9c14.4,0-19.4-312.5,0-312.5c5.8,0,3.7,308.3,8.6,308.3
						c1.2,0-26.5-308.7,0-308.7c0,0-11.2,310.2,8.3,310.2c0,0-10.6-306.3,0-306.3c13.1,0-5.8,304,7.2,304c8.4,0-5.8-305.4,0-305.4
						c13.1,0-5,306.4,7.5,306.4c6.1,0-17.6-309.7,0-309.7c22.1,0-20.1,310.4,7.4,310.4c10.4,0-18-310.4,0-310.4
						C253.9-2.8,237,308,237,308c20.9,0-6.4-311.5,0-311.5c19.1,0,8,312.1,8,312.1c5.8,0,0-305.4,0-305.4c0.2,0-8.5,309.8,9,309.8
						c21.7,0-8.1-312.1,0-312.1c15.2,0-15.8,311.4,8,311.4c5.7,0-14.7-310,0-310c24,0-6.3,310.1,8.5,310.1
						c11.7,0-23.5-317.9,0-317.9c2,0-2.1,318.3,8.1,318.3c4.7,0-20.3-318,0-318c5.8,0,7.2,315,7.2,315c3.1,0-4.5-314.7,0-314.7
						c21.3,0-3.8,309.9,8.6,309.9c15.8,0-4.5-304.1,0-304.1c19.4,0-18.6,310,8.9,310c0.5,0-21.7-308.4,0-308.4
						c16.2,0-3.6,306,7.4,306c1.3,0-11.9-305.9,0-305.9c1.7,0-12.4,306.6,8.3,306.6c23.4,0,0-312.4,0-312.4
						c12.1,0,5,310.3,7.3,310.3c14.1,0-8.2-309,0-309c20.8,0,7.8,307.3,7.8,307.3S327-3.1,334.1-3.1c9.1,0,1.9,316.3,7.4,316.3
						c25.5,0-3.6-309.5,0-309.5l7.1,302c25.2,0-25.2-303.3,0-303.3c14.5,0,4.7,310,8.2,310c23.3,0-15.2-312.3,0-312.3
						c14.5,0,7.6,312.9,7.6,312.9c21.1,0-25.6-314.5,0-314.5c22.4,0-15.3,314.2,8.4,314.2c0.8,0-12.1-309.4,0-309.4
						c1.1,0,8.7,303.3,8.7,303.3c5.5,0-4.3-305.5,0-305.5c4.6,0-15.7,304.1,8.5,304.1c8.5,0-2.9-301.7,0-301.7
						c0,0-4.6,303.3,7.9,303.3c24.2,0-21.4-310.8,0-310.8c21.4,0-2.9,313.3,8.4,313.3c16,0-18.1-312.8,0-312.8
						c23.8,0-17.4,310,7.2,310c23.9,0-1.6-306.3,0-306.3c19.1,0,2.3,310.8,7.3,310.8c0,0-1.9-312.7,0-312.7
						c16.7,0,7.2,312.6,7.2,312.6c8.6,0,0-309.4,0-309.4c17.6,0-5.7,304.9,8.2,304.9c7,0-12-309.2,0-309.2
						c3.9,0,1.3,315.8,8.8,315.8c10.7,0-20.7-309.6,0-309.6c24.6,0-17.3,309,7.5,309c12.1,0-7.6-314.9,0-314.9
						c5.8,0-8.9,315.1,8,315.1c19.3,0-16.6-314.5,0-314.5c23.9,0,4.8,308.9,8.2,308.9c14.7,0-6.1-313.1,0-313.1
						c23.6,0,6.6,314.4,8,314.4c14.9,0,0-313.5,0-313.5c26.8,0-20.5,319.3,7.1,319.3c4.3,0-6.9-318.4,0-318.4
						c26.7,0,8,317.8,8,317.8c16.8,0-5.6-315.2,0-315.2c0,0,6.7,313.4,7.4,313.4c17.9,0,0-316.5,0-316.5
						c11.5,0-12.9,317.9,7.2,317.9c15,0-26.7-311.7,0-311.7c18.1,0,3,311.6,7.2,311.6c17.9,0-26.7-310.5,0-310.5
						c0,0,8,301.7,8.4,301.7c12.1,0-22-309.3,0-309.3c23.2,0-6,310,8.7,310c0,0-15.4-309.1,0-309.1c23.4,0,2,313.7,8.6,313.7
						c2.5,0,0-310.6,0-310.6c24.7,0-18.4,309.5,8.6,309.5c23.8,0-24-312.1,0-312.1c22.9,0-4.9,311.5,7.9,311.5c2,0,0-312.4,0-312.4
						s-0.7,311.4,7,311.4c27.8,0-10.4-310.9,0-310.9l8.1,312.3c4.3,0,0-308,0-308c3.4,0,3.3,305.1,7.6,305.1c0,0-5.6-307.8,0-307.8
						c7.2,0-5,313.7,8.6,313.7c13.5,0-5.3-313.8,0-313.8c0,0-7.9,307.9,8.8,307.9c23.5,0-10-302,0-302c0,0,6.6,301.9,7.8,301.9
						c4.4,0-23-302.8,0-302.8c23.1,0-9.8,304.7,8.7,304.7c19.2,0-26.6-305.9,0-305.9c0.3,0,6.2,311.1,7.6,311.1
						c3.6,0-23.7-313.7,0-313.7l7.8,310.6c8.3,0,0-307.7,0-307.7c5.2,0-6,304,8.1,304c13,0-27.2-302.3,0-302.3
						c22.9,0-0.2,307.6,8,307.6c27.3,0-9.5-312.8,0-312.8"/>
				</g>
			</g>
		</g>
		<g id="colour_x5F_texture">
			<g id="_x31_x2blue_x5F_a">
				<g>
					<path fill="none" stroke="#8EB0BC" stroke-linecap="round" stroke-linejoin="round" d="M543.7,294.1c12.7,0-14.7-281.5,0-281.5
						c12.4,0-2.7,282,10.1,282c13.8,0-14-265.6,0-265.6c11.9,0-3.5,261.6,8.6,261.6c15,0-14.1-275.1,0-275.1c12.6,0-4,285.4,8,285.4
						c13.7,0-13.1-287.8,0-287.8c13.5,0,1,282.1,15.1,282.1c15.1,0-14.6-283.3,0-283.3c12.7,0,2.5,274,15.1,274
						c13.5,0-12.5-257,0-257c11.6,0,3.7,251.4,15.5,251.4c14.1,0-15-260.2,0-260.2"/>
				</g>
			</g>
			<g id="_x31_x2yellow_x5F_a">
				<g>
					<path fill="none" stroke="#DDC04A" stroke-linecap="round" stroke-linejoin="round" d="M22.6,213.5c0,26.5,614.3-30.7,614.3,0
						c0,27.1-614.7-17.8-614.7,10.1c0,28.9,598.4-29.2,598.4,0c0,27.1-594.4-18.8-594.4,8.6c0,31.2,607.8-29.3,607.8,0
						c0,27.2-618.2-18.1-618.2,8c0,28.6,620.6-27.4,620.6,0c0,29.5-614.9-15.5-614.9,15.1c0,31.4,616-30.4,616,0
						c0,28-606.7-15-606.7,12.9c0,28.1,589.7-26,589.7,0"/>
				</g>
			</g>
		</g>
	</g>
	<g id="round_x5F_patches">
		<path id="_x31_x2b_1_" opacity="0.2" fill="#FAFFCD" enable-background="new    " d="M619.5,54.2c0-33.4,4-27.1-49-45.8
			c-37-13.1-180.9,2.1-231,2.1c-45.7,0-197.1,7.6-232.3,18.7c-58.7,18.5-42,182.3-42,217.7c0,80.1,175.1,40.6,231.7,45.3
			c32,2.6,22.4-22,83.3-22c35.3,0,167.4-6.6,197-13.5C649.7,240,619.5,94.5,619.5,54.2z"/>
		<g id="_x31_x2a_1_" opacity="0.4">
			<g>
				<path fill="none" stroke="#FAFFCD" stroke-linecap="round" stroke-linejoin="round" d="M85.6,42.8C97.2,74.6,151.1,19,151.1,19
					S80.9,31,88,50.5c4.6,12.7,75.2-63.3,86.8-31.6c6.4,17.5-105.9,23-98.1,44.2c12.9,35.4,125.2-45.6,125.2-45.6
					c2.7,7.7-139.6,13.6-124.9,54l145.2-52.8c6.1,16.7-147,45.3-141.6,60.1C100.9,134.5,244.7,19,244.7,19S80,42,94.6,82.1
					c0.7,2,167.7-103.1,181.2-66c1.7,4.7-210.7,38.4-195.6,79.7c13,35.6,212.9-77.5,212.9-77.5S79.2,68.6,90.8,100.5
					c0.5,1.3,193.6-164.1,223.7-81.4c0.5,1.4-214.8,86.7-214.8,86.7C112.3,140.6,298.4-72.9,332.6,21
					c19.4,53.3-225.5,90.6-225.5,90.6c31.3,85.9,264.2-96.1,264.2-96.1C372.7,19.4,96,124.2,96,124.2
					c21.1,58,297.9-108.4,297.9-108.4S106.5,117.4,110.2,127.5c29.9,82.2,262.6-213.2,300.4-109.3C436.5,89.4,115.4,123.8,118.7,133
					C141.4,195.3,422.3-45,444,14.6c0,0-372.8,16.1-331.6,129.2c30.9,85,337.9-123,337.9-123C456.2,36.9,110.4,153,110.4,153
					C154.6,274.5,489.8,14.9,489.8,14.9L122.5,157.1c16.2,44.4,358.3-169.8,371-135c24.2,66.5-380.1,72.5-356.2,138.2
					c51.4,141.1,344.6-215.8,373.6-136c23.8,65.5-379.4,146.6-379.4,146.6c2.3,6.4,361.4-230,393.1-143.1L147.3,173.6
					c41.2,113.1,360.4-241.9,396-144.1c1.4,3.8-454,22.4-405.3,156L543.4,37.9c0,0-441.2,52.8-403.8,155.5L552.4,43.2
					c0,0-412.2,134-404.3,155.7L574.6,43.6C591,88.5,169,199.8,169,199.8C213.4,322,562.9,56.4,562.9,56.4
					c43.6,119.8-396.3,152.7-396.3,152.7S556.1-10.5,581.2,58.3c0.5,1.3-435.5,86.4-409.6,157.6L578.7,67.7
					c26.4,72.6-437.3,46.2-398.2,153.5c18.8,51.6,404.8-147.3,404.8-147.3s-425.6,44.6-387.4,149.5C247.5,359.6,536-49.7,584.2,82.7
					C592.7,106,197.4,188.8,211.3,227c0,0,335.4-187.2,356.4-129.7c0,0-360.6,129.4-357.2,138.5c15.3,42,360.1-131.1,360.1-131.1
					L232.9,236.1c27.4,75.2,312.7-185.9,335.9-122.3c0,0-342,87-327.2,127.6c0,0,289.4-191.8,317.2-115.5
					c0,0-304.4,97.2-297.3,116.7c4.8,13.1,275.4-138,287.5-104.7c13,35.8-293.6,48.5-272.1,107.5c0,0,254.8-95,255.5-93
					c11.5,31.7-244,97.3-244,97.3s207-172.3,238.2-86.7c0,0-222.5,72.8-217.1,87.5c25,68.6,203.8-74.2,203.8-74.2
					S337.7,207,351.2,244.1c18.3,50.2,145.6-83.4,155.3-56.5c0,0-154.2,9.3-136.4,58.2c0,0,127.1-55.9,130.2-47.4
					c9.5,26.1-102.6,13.6-92.2,42.1c13.8,37.9,75-27.3,75-27.3c4.5,12.3-40.3,17-38.3,22.5c8.2,22.6,12.9-18.3,17.3-6.3"/>
			</g>
		</g>
	</g>
</g>
<g id="wall_x5F_shadow" opacity="0.7">
	<rect id="_x31_x2b" x="6.2" y="3.1" opacity="0.15" enable-background="new    " width="29.3" height="306.6"/>
	<rect id="_x31_x2a" x="4.6" y="3.1" opacity="0.3" enable-background="new    " width="18.4" height="306.6"/>
</g>
<g id="wall_frames">
	<path id="vert_x5F_frame1" fill="#061300" d="M21.6,784.2C18,784,14,786,9.7,784.9c-0.4,0-0.9,0-1.4,0c-8.2,0-22.3,0-22.3,0
		s0-16.4,0-44.6c0-0.6,0-1.3,0-1.9c0-7.5,0-14.5,0-21.3c0-0.8,0-1.5,0-2.3c0-6.6,0-13.6,0-20.9c0-0.5,0-1.1,0-1.6
		c1-6.4-1-12.4,0-18.6c0-0.5,0-0.9,0-1.4s0-0.9,0-1.4s0-1,0-1.4c0-25.5-2-49.5,3-74.5c1-4-3-7-3-10.7c0-0.6,0-1.1,0-1.7
		c0-2.3,0-4.6,0-6.9c0-0.6,0-1.2,0-1.8c0-22.9,0-46.9,0-70.4c-0.1-0.7-0.1-1.3-0.1-1.9C-14,276.7-14,0-14,0h28.1
		c0,0,0,331.3,0,563.5c0,0.6,0,1.2,0,1.8C13,571,7,574,5,579c4,0,9,0,9,5.3c0,0.6,0.1,1.2,0.1,1.8c0,35.3,0,67.9,0,96
		c0,0.5,0,0.9,0,1.4C13,690,14,698,14,705.3c0,0.8,0,1.6,0,2.5c0,11.3,0,21.6,0,30.7c0,0.7,0,1.3,0,2c-1,4.6,0,10.6,2,15.6
		c2,11-1,21,9,28c-1,0-1,0-1.7,0.1C22.4,784.1,21.6,784.2,21.6,784.2z"/>
	<g id="vert_x5F_frame1_x5F_tex">
		<g>
			<path fill="none" stroke="#282828" stroke-width="2" stroke-linecap="round" stroke-linejoin="round" d="M5.5,592.8
				c7,0-8.7-588.6,0-588.6"/>
			<path fill="none" stroke="#282828" stroke-width="2" stroke-linecap="round" stroke-linejoin="round" d="M-13.8,794.7
				C-3.2,794.7-19-4-13.8-4C-2-4-6.1,789.9-0.8,789.9c8.3,0-6.1-787.7,0-787.7c10.8,0,6.6,789.7,13,789.7c1.5,0-2.5-204.7,0-204.7"
				/>
		</g>
	</g>
	<path id="hor_x5F_frame3" fill="#061300" d="M1720,300v28c0,0-19.2,0-53.8,0c-0.5,0-0.9,0-1.4,0c-75.8-4-150.8,2-226.9,0
		c-0.6,0-1.2,0-2,0c-368.7,0-1007.2,0-1367.8,0c-0.8,0-1.7,0-2.6,0.1C62,330,59,333,58,333c-19,1-37-6-56,0c-3,1-8-1-11-1
		c-12-1-23,0-35-1c-4,0-8-1-12-1c-16-1-33,1-49-4c-3-1-7,1-11.3,2c-0.5,0-1.1,0.1-1.6,0.1c-52.2,0-82,0-82,0V300
		c0,0,119.3,0,298.3,0c0.8,0.1,1.5,0.2,2.2,0.2C105,301,109,302,114,301c15-3,29-6,43-6c52,0,104,0,156,3c19,2,38,1,56.8,2
		c0.6,0,1.6,0,2.2,0c102.8,0,212.8,0,323.9,0c1.7-0.4,2.5-0.5,3.4-0.6C792,294,884,296,976.7,300c0.8,0,1.7,0,2.5,0
		C1376,300,1720,300,1720,300z"/>
	<g id="hor_x5F_frame3_x5F_tex">
		<g>
			<path fill="none" stroke="#282828" stroke-width="2" stroke-linecap="round" stroke-linejoin="round" d="M148,295.5
				c0,0.9,91-0.9,91,0c0,4.4-440.1,10.6-440.1,15c0,19.2,1922-19.2,1922,0s-1922.4-4.2-1922.4,15s1921.4-19.2,1921.4,0"/>
		</g>
	</g>
	<path id="vert_x5F_frame2" fill="#061300" d="M638,0v1.5v0.9c0,0,0,3,0,8.7c0,0.5,0,1.1,0,1.6c9,33.3-7,68.3,1,104.3
		c1,7,1,13-1,20.1c0,0.4,0,1,0,1.5c0,107.9,0,266,0,422c0,0.6,0,1.2,0,1.7c0,3.7,6,5.7,5,7.7c-9,22-3,51-5.1,74.6
		c0.1,0.6,0.1,1.2,0.1,1.8c0,0.6,0,1.1,0,1.7c0,2,0,5,0,6.8c0,0.6,0,1.1,0,1.7c0,28.2,0,56,0,83c0,0.5,0,1.1,0,1.6
		c-2,13.9,3,27.9,0,41.4c0,0.5,0,1,0,1.6c0,21.7,0,42.8,0,63c0,0.5,0.1,0.9,0.1,1.4c0,2.6,0,6.6,0,9.3c0,0.4,0,0.9,0,1.3
		c0,5.3,0,10.5,0,15.7c0,0.6,0,1.3,0,1.9c0,10.3,0,20.3,0,30.1c0,0.6,0,1.2,0,1.8c0,0.6,0,1.2,0,1.8c3,45.6-1,90.6-5,136.6
		c0,1,3,5,4.9,7.6c0.1,0.7,0.1,1.2,0.1,1.7c0,15.6,0,24.2,0,24.2H666c0,0,0-49.1,0-126.3c0-0.6,0-1.2,0-2.2c5-45-9-95,6.7-136.7
		c-0.4-0.6-0.9-1.2-1.3-1.8c-5.2-7.3-9.7-15.8-5.6-24c0-0.6,0.1-1.2,0.2-1.8c0-319.3,0-785.3,0-785.3v-1V0H638z"/>
	<g id="vert_x5F_frame2_x5F_tex">
		<g>
			<path fill="none" stroke="#282828" stroke-width="2" stroke-linecap="round" stroke-linejoin="round" d="M638.5,11.7
				c0.2,0-0.1-9.9,0-9.9c0.3,0,1.7,25.8,1.9,25.8c0.2,0-0.3-29.4,0-29.4"/>
			<path fill="none" stroke="#282828" stroke-width="2" stroke-linecap="round" stroke-linejoin="round" d="M637.2,103.6
				c0.3,0-0.2-24,0-24c0.5,0,1.7,37.1,2,37.1c0.6,0-0.4-58.9,0-58.9"/>
			<path fill="none" stroke="#282828" stroke-width="2" stroke-linecap="round" stroke-linejoin="round" d="M638.5,555.4
				c5.8,0-3.7-420.2,0-420.2c3.4,0,0.5,424.7,4.1,424.7c7.9,0-6.4-557.3,0-557.3"/>
			<path fill="none" stroke="#282828" stroke-width="2" stroke-linecap="round" stroke-linejoin="round" d="M633.5,1038.5
				c0,0-0.1-10.5,0-10.5c0.4,0,18.9,42.5,19.4,42.5c10.9,0-11.4-1068.7,0-1068.7c11.3,0-1.7,1067.6,10.1,1067.6
				c14.8,0-11.6-1071.2,0-1071.2c9.7,0-5.2,1074.1,2.5,1074.1c1.9,0-1.5-196.5,0-196.5"/>
		</g>
	</g>
</g>
<g id="text" display="none">
	<rect x="187.8" y="198" display="inline" fill="none" width="421.9" height="274.2"/>
	
		<text transform="matrix(1 0 0 1 403.1563 252.6289)" display="inline" opacity="0.7" enable-background="new    " font-family="'BradyBunchRemastered'" font-size="88">works</text>
</g>
</svg>
