<?xml version="1.0" encoding="utf-8"?>
<!-- Generator: Adobe Illustrator 16.0.0, SVG Export Plug-In . SVG Version: 6.00 Build 0)  -->
<!DOCTYPE svg PUBLIC "-//W3C//DTD SVG 1.1//EN" "http://www.w3.org/Graphics/SVG/1.1/DTD/svg11.dtd">
<svg version="1.1" id="Layer_1" xmlns="http://www.w3.org/2000/svg" xmlns:xlink="http://www.w3.org/1999/xlink" x="0px" y="0px"
	 width="100%" height="100%" viewBox="0 0 468 156.1" enable-background="new 0 0 468 156.1" xml:space="preserve" preserveAspectRatio="none">
<g id="wall_x5F_fill">
	<rect id="wall_x5F_colour" x="-1392" y="-64.5" fill="#D1CEB2" width="1920" height="1080"/>
</g>
<g id="ventilation">
	<g id="Social_x5F_network_x5F_logo">
		<g id="fb_x5F_logo_2_">
			<rect id="fb_x5F_glass_x5F_panel_2_" x="37.7" y="31.5" fill="#424954" width="116.4" height="94.5"/>
			
				<rect id="fb_x5F_light_x5F_panel3_2_" x="44.3" y="32.8" opacity="0.2" fill="#979CA5" enable-background="new    " width="102" height="52.6"/>
			
				<rect id="fb_x5F_light_x5F_panel2_2_" x="44.3" y="37" opacity="0.15" fill="#B4B8BF" enable-background="new    " width="102" height="27.8"/>
			
				<rect id="fb_x5F_light_x5F_panel1_2_" x="44.3" y="39.1" opacity="0.24" fill="#B4B8BF" enable-background="new    " width="102" height="11.8"/>
			<defs>
				<filter id="Adobe_OpacityMaskFilter" filterUnits="userSpaceOnUse" x="85" y="48.4" width="41" height="78.3">
					<feFlood  style="flood-color:white;flood-opacity:1" result="back"/>
					<feBlend  in="SourceGraphic" in2="back" mode="normal"/>
				</filter>
			</defs>
			<mask maskUnits="userSpaceOnUse" x="85" y="48.4" width="41" height="78.3" id="fb_x5F_path_1_">
				<g filter="url(#Adobe_OpacityMaskFilter)">
					<g>
						<g>
							<g>
								<g>
									<defs>
										<rect id="SVGID_1_" x="40.4" y="2.2" width="132.7" height="185.7"/>
									</defs>
									<clipPath id="SVGID_2_">
										<use xlink:href="#SVGID_1_"  overflow="visible"/>
									</clipPath>
								</g>
								<g>
									<defs>
										<rect id="SVGID_3_" x="40.4" y="2.2" width="132.7" height="185.7"/>
									</defs>
									<defs>
										<rect id="SVGID_4_" x="-30.4" y="-82.5" width="248.4" height="381.1"/>
									</defs>
									<clipPath id="SVGID_5_">
										<use xlink:href="#SVGID_3_"  overflow="visible"/>
									</clipPath>
									<clipPath id="SVGID_6_" clip-path="url(#SVGID_5_)">
										<use xlink:href="#SVGID_4_"  overflow="visible"/>
									</clipPath>
									
										<path clip-path="url(#SVGID_6_)" fill="none" stroke="#061300" stroke-width="2" stroke-linecap="round" stroke-linejoin="round" d="
										M42.6,4.6c0,4.6,127.1-5.4,127.1,0c0,4.6-128.8,1.5-128.8,6.1c0,5.3,128.5-3.9,128.5,0c0,5-125.8,0.6-125.8,5.5
										c0,4.5,125-4.8,125,0c0,4.6-126.8,0.6-126.8,6.1c0,3.9,125.2-4.1,125.2,0c0,5.4-125.4,1.2-125.4,5.6c0,4,126-5.1,126,0
										c0,5.4-124,2.2-124,6.5c0,4.1,124.7-5.5,124.7,0c0,4.5-126.9,1.4-126.9,6.8c0,4.4,125.3-4.9,125.3,0
										c0,4.2-120.5,1.6-120.5,5.5c0,5.1,120.3-5.2,120.3,0c0,5.5-119.1,0.8-119.1,5.6c0,5.4,125.2-5.1,125.2,0
										c0,5.4-130.9,2.4-130.9,6.7c0,5.5,125.7-4.7,125.7,0c0,5.1-120.7,0.8-120.7,5.7c0,5.2,123.5-5.1,123.5,0
										C170.2,69.8,43,65,43,70.1c0,5.2,129.6-4.4,129.6,0c0,4.2-129.9,1-129.9,5.4c0,4.7,123.4-4,123.4,0
										c0,5.1-119.8,1.1-119.8,6.5c0,5.6,120.1-4.6,120.1,0c0,4.3-120.8,1.1-120.8,6.4c0,4.2,124-4.3,124,0
										c0,5.2-123.2,1.5-123.2,6.3c0,4.8,122.2-5.2,122.2,0c0,4.7-123.3,0.3-123.3,5.5c0,5,121.8-4,121.8,0
										c0,5.2-122.5,2.1-122.5,6.8c0,5.5,125.7-5,125.7,0c0,4.9-125.8,1-125.8,6.5c0,5.4,123.8-5.6,123.8,0
										c0,4.7-125.7,2-125.7,6.4c0,5.6,124.8-4.3,124.8,0c0,4.2-122.3,1.1-122.3,5.8c0,4.7,125.2-4.9,125.2,0
										c0,5.2-124,1.7-124,6.3c0,5.1,120-4,120,0c0,4.3-124.8,0.6-124.8,5.5c0,4.8,130.1-5,130.1,0c0,4.7-128.9,1.4-128.9,5.8
										c0,3.9,126.4-5.2,126.4,0c0,5.1-122.6,1.1-122.6,5.5c0,4,121.4-5.5,121.4,0c0,4.2-125.2,1.3-125.2,5.9
										c0,5.5,124.5-5.7,124.5,0c0,4.9-123.1,0.4-123.1,5.8c0,4,122.5-5.3,122.5,0s-120.2,2.9-120.2,6.9c0,4.5,119.5-5.2,119.5,0
										c0,5.4-119.3,2.6-119.3,6.7c0,4.8,125.3-4.2,125.3,0c0,5.1-127.4,0.7-127.4,5.4s122.4-3.9,122.4,0c0,4.3-125,2.6-125,6.6
										c0,4.2,130-4.7,130,0"/>
								</g>
							</g>
						</g>
					</g>
				</g>
			</mask>
			<path id="fb_x5F_path" mask="url(#fb_x5F_path_1_)" fill="#F7ED77" d="M112,126.5c0-11.9,0-23,0-36c4,0,7.7,0,11.7,0
				c0.6-5,1.2-8,1.8-14c-4.6,0-9.1,0-13.6,0c0-2-0.1-6.8,0-10.3c0.1-3,1.8-4,4.7-4.3c2.7-0.2,5.4,0.6,8.2,0.6c0.4,0,0.8,0,1.2,0
				c0-6,0-9.4,0-13.6c-5.6-0.3-10.9-1.1-16.3,0.3c-5.5,1.4-9.3,4.8-11.2,10.3c-0.6,1.7-1.2,3.4-1.2,5.2C97.1,68.5,97,72.3,97,76
				c0,0.4,0,0.7,0,0.7c-4,0-7,0-12,0c0,6,0,9,0,14c5,0,8,0,12,0c0,13,0,24.4,0,36h15V126.5z"/>
		</g>
		<g id="twitter_x5F_logo_2_">
			<rect id="twt_x5F_glass_x5F_panel_2_" x="175.9" y="31.5" fill="#35443C" width="116.3" height="94.5"/>
			
				<rect id="twt_x5F_light_x5F_panel3_2_" x="181.7" y="33.5" opacity="0.2" fill="#979CA5" enable-background="new    " width="104.3" height="51"/>
			
				<rect id="twt_x5F_light_x5F_panel2_2_" x="181.7" y="37" opacity="0.15" fill="#B4B8BF" enable-background="new    " width="104.3" height="27.8"/>
			
				<rect id="twt_x5F_light_x5F_panel1_4_" x="181.7" y="39.1" opacity="0.23" fill="#B4B8BF" enable-background="new    " width="104.3" height="11.8"/>
			<defs>
				<filter id="Adobe_OpacityMaskFilter_1_" filterUnits="userSpaceOnUse" x="194.3" y="45.9" width="83.9" height="69.5">
					<feFlood  style="flood-color:white;flood-opacity:1" result="back"/>
					<feBlend  in="SourceGraphic" in2="back" mode="normal"/>
				</filter>
			</defs>
			<mask maskUnits="userSpaceOnUse" x="194.3" y="45.9" width="83.9" height="69.5" id="twitter_x5F_path_1_">
				<g filter="url(#Adobe_OpacityMaskFilter_1_)">
					<g>
						<g>
							<g>
								<g>
									<defs>
										<rect id="SVGID_7_" x="121.8" y="-31.4" width="219.7" height="216.6"/>
									</defs>
									<clipPath id="SVGID_8_">
										<use xlink:href="#SVGID_7_"  overflow="visible"/>
									</clipPath>
								</g>
								<g>
									<defs>
										<rect id="SVGID_9_" x="121.8" y="-31.4" width="219.7" height="216.6"/>
									</defs>
									<defs>
										<rect id="SVGID_10_" x="-7.6" y="-120.8" width="437.4" height="422.2"/>
									</defs>
									<clipPath id="SVGID_11_">
										<use xlink:href="#SVGID_9_"  overflow="visible"/>
									</clipPath>
									<clipPath id="SVGID_12_" clip-path="url(#SVGID_11_)">
										<use xlink:href="#SVGID_10_"  overflow="visible"/>
									</clipPath>
									
										<path clip-path="url(#SVGID_12_)" fill="none" stroke="#061300" stroke-width="2" stroke-linecap="round" stroke-linejoin="round" d="
										M124.5,181.5c5.1,0-6-207.1,0-207.1c5,0,1.9,209.9,7,209.9c5.9,0-4.2-209.4,0-209.4c5.5,0,0.9,204.8,6.3,204.8
										c4.9,0-5.3-203.4,0-203.4c5,0,0.9,206.5,7.1,206.5c4.3,0-4.5-203.8,0-203.8c5.9,0,1.6,204.1,6.4,204.1
										c4.4,0-5.6-205.2,0-205.2c6,0,2.8,201.8,7.5,201.8c4.5,0-6-202.9,0-202.9c5,0,1.8,206.7,7.9,206.7c4.8,0-5.4-203.9,0-203.9
										c4.6,0,2,195.8,6.3,195.8c5.6,0-5.7-195.5,0-195.5c6,0,1.1,193.5,6.4,193.5c5.9,0-5.6-203.7,0-203.7
										c5.9,0,3,213.5,7.7,213.5c6.1,0-5.2-204.7,0-204.7c5.6,0,1.1,196.2,6.6,196.2c5.7,0-5.6-201,0-201
										c5.6,0,0.6,207.2,6.1,207.2c5.8,0-4.9-211.4,0-211.4c4.7,0,1.3,211.7,6.1,211.7c5.2,0-4.3-200.8,0-200.8
										c5.6,0,1.5,194.6,7.5,194.6c6.2,0-5.1-195.2,0-195.2c4.8,0,1.5,196.4,7.4,196.4c4.7,0-4.7-201.8,0-201.8
										c5.7,0,2,200.4,7.2,200.4s-5.7-198.7,0-198.7c5.1,0,0.6,200.6,6.3,200.6c5.5,0-4.4-198,0-198c5.7,0,2.6,199.3,7.8,199.3
										c6.1,0-5.5-204.7,0-204.7c5.4,0,1.4,204.9,7.5,204.9c5.9,0-6.1-201.5,0-201.5c5.2,0,2.6,204.6,7.3,204.6
										c6.1,0-4.7-203.1,0-203.1c4.6,0,1.5,198.8,6.6,198.8c5.2,0-5.4-203.7,0-203.7c5.7,0,2.1,201.9,7.2,201.9
										c5.6,0-4.4-195,0-195c4.7,0,0.9,203.2,6.3,203.2c5.3,0-5.5-212.2,0-212.2c5.1,0,1.8,210.1,6.7,210.1
										c4.3,0-5.7-205.9,0-205.9c5.6,0,1.4,199.5,6.3,199.5c4.3,0-6-197.4,0-197.4c4.6,0,1.7,203.8,6.8,203.8
										c6.1,0-6.3-202.6,0-202.6c5.4,0,0.7,200.2,6.7,200.2c4.4,0-5.8-199.3,0-199.3c5.9,0,3.5,195.3,7.9,195.3
										c4.9,0-5.7-194.2,0-194.2c5.9,0,3.2,193.8,7.7,193.8c5.3,0-4.7-204,0-204c5.6,0,1,207.6,6.2,207.6c5.1,0-4.3-199.1,0-199.1
										c4.8,0,3.2,203.5,7.6,203.5c4.6,0-5.2-211.9,0-211.9c5.3,0,0.4,204.8,6.1,204.8c6.2,0-5.2-198.4,0-198.4"/>
								</g>
							</g>
						</g>
					</g>
				</g>
			</mask>
			<path id="twitter_x5F_path" mask="url(#twitter_x5F_path_1_)" fill="#94B1E0" d="M273.4,52.8c1.3-1.5,2.2-3.1,2.8-5.3
				c-0.6,0.3-0.9,0.5-1.3,0.6c-0.7,0.4-1.4,0.7-2.1,1s-1.4,0.6-2.2,0.9c-0.7,0.8-1.5,1.3-2.2,0.7c-0.7,0.3-1.5-0.6-2.2,0.6
				c-0.4,0.9-0.7,1.1-1,0c-0.3-1.3-0.5-1.4-0.8-0.5c-0.5-0.7-1-2.2-1.6-1.4c-0.5-1.6-1.1-0.8-1.7-1.1c-0.6,0.1-1.2-0.2-1.8-0.9
				c-0.6,0.9-1.3,0.1-1.9-0.7c-0.9-1.4-1.8-0.2-2.6-0.5c-0.9-0.8-1.7,0.2-2.6-0.1c-0.9,0.3-1.7-0.5-2.5,0.2
				c-0.8-0.1-1.6,0.4-2.4,0.6c-0.8,0-1.5,0.8-2.3,0.9c-0.7,0.9-1.4,0-2.1,1.2c-0.7,0.5-1.3-0.1-1.9,1.5c-0.6,1.3-1.2,2.1-1.7,1.7
				c-0.5,0.8-1,1.3-1.4,1.9c-0.4-0.1-0.8,2.1-1.2,2.1c-0.3-0.7-0.6,2.1-0.9,2.3c-0.2,1.1-0.4,1.6-0.5,2.5c-0.1,0.9-0.2,2-0.2,2.6
				c0,2.6,0.1-0.6,0.2,2.7c0,1.3,0.1,0.2,0.1,1.2c-0.9,0.4-1.8-0.9-2.7-0.3c-0.9,0.8-1.8-0.1-2.6-0.4c-0.9-0.8-1.7,0-2.6-0.5
				c-0.8-0.9-1.7,0-2.5-0.6c-0.8-0.4-1.6-0.3-2.4-0.7c-0.8,0.9-1.6-0.2-2.4-0.9c-0.8,1-1.6-3.6-2.3-1c-0.8,0.4-1.5,0.9-2.3-1.1
				c-0.7,0.1-1.5-0.2-2.2-1.2c-0.7-1.1-1.4-0.3-2.1-1.3c-0.7,0.5-1.4-1.2-2.1-1.4c-0.7-0.4-1.4-3.3-2-1.6c-0.7,0.4-1.3-1.5-2-1.7
				c-0.6,0.2-1.3-0.2-1.9-1.8c-0.6-0.2-1.2-1.3-1.9-1.9c-0.6,0.5-1.2-2.1-1.8-2c-0.4,1.9-0.8,1.4-1.1,2.7c-0.3,1.4-0.5,1.2-0.7,2.6
				c-0.2-0.4-0.3,2.5-0.4,2.5c-0.1,0.8-0.1,0.4,0,2.4c0.1,1.2,0.2,1.3,0.3,2.3c0.2,0.6,0.4,1.3,0.7,2.3c0.3,0.4,0.6,1.6,1,2.2
				c0.4,0.9,0.9,1.5,1.4,2.1c0.5,1.2,1.1,1.7,1.7,2c0.6,0.4,1.3,1.2,2.1,2c-0.7,0.3-1.3-0.2-1.9-0.1c-0.6-0.1-1.2-0.4-1.9-0.4
				c-0.6-0.4-1.2-0.7-1.8-0.6c-0.6-0.3-1.2-0.6-1.9-0.8c0.1,1,0.2,1.5,0.3,2.6c0.1,0.9,0.3,0.9,0.5,2.4c0.2-0.2,0.5,2.3,0.8,2.2
				c0.3,0.8,0.6,1.5,1,2c0.4,0.5,0.8,1.4,1.2,1.8c0.4,1.2,0.9,2,1.5,1.6c0.5,0.5,1.1,1.2,1.7,1.4c0.6,1.1,1.2,0.5,1.9,1.3
				c0.7,0.3,1.4,0.8,2.1,1.1c0.8,0.7,1.5,0.2,2.4,0.9c-0.6,0.3-1.2,0.4-1.8,0.4c-0.6-0.1-1.2,0.2-1.8,0.1c-0.6-0.4-1.2,0.7-1.8,0
				s-1.3,0.5-1.9-0.2c0.3,1.2,0.7,2,1.1,2.3c0.4,1.1,0.8,1.1,1.2,2.1c0.4,0.1,0.9,1.8,1.4,1.8c0.5,0.6,1,1.1,1.6,1.6
				s1.2,0.9,1.8,1.3c0.6-0.3,1.3,1.6,2,1.1c0.7-1.9,1.4-0.6,2.2,0.9c0.8-0.5,1.5,0.7,2.4,0.6c0.8-1.3,1.7,0.9,2.6,0.4
				c-0.7,0.4-1.4,1.1-2.1,1.4c-0.7,0-1.4,0.7-2.1,1.3c-0.7,1.7-1.4,0.5-2.2,1.1c-0.7-0.2-1.5,0.9-2.2,1c-0.7,0.8-1.5,1.4-2.2,0.8
				c-0.8,0.8-1.5-0.8-2.3,0.6c-0.8,0.2-1.5,0.1-2.3,0.5c-0.8,0.8-1.6,2-2.4,0.3c-0.8,1.3-1.6,1.4-2.4,0.2c-0.8,0.5-1.6,0-2.4,0
				c-0.8,0-1.6-0.1-2.5-0.1c0,0.1-0.1,0.2-0.1,0.3c0.7,0.3,1.3,0.7,2,1.1c0.7,0.4,1.3,0.7,2,1c0.7-0.9,1.3-0.1,2,1
				c0.8,0.6,1.5,0.5,2.3,1c0.8,0.8,1.5,0.9,2.3,0.8c0.8,0.7,1.6,0.1,2.3,0.7c0.8,0.1,1.6-1.1,2.4,0.6c0.8,0.5,1.6-0.5,2.4,0.5
				c0.8-0.5,1.6-0.8,2.4,0.4c0.8-0.7,1.6-0.2,2.5,0.2c0.8,0.4,1.7-0.5,2.5,0.1c0.9-0.1,1.7-0.7,2.6,0c0.9,1,1.7-0.4,2.6-0.1
				c0.9-0.5,1.7,1.9,2.5-0.2c0.8-0.7,1.7,1,2.5-0.4c0.8,0.3,1.7-0.6,2.5-0.5c0.8-0.3,1.6-0.7,2.5-0.6c0.8-1,1.6-0.9,2.4-0.7
				c0.8-0.1,1.6,0.3,2.4-0.9c0.8-0.3,1.6-0.9,2.4-1c0.8-1,1.6-0.4,2.3-1.2c0.7-1.1,1.4-0.9,2.1-1.2c0.7-1.8,1.4-0.7,2-1.3
				c0.7,0.8,1.3-1.2,1.9-1.4c0.6-0.9,1.3-1.1,1.9-1.5s1.2-0.5,1.8-1.6c0.6,0,1.1-0.3,1.7-1.6c0.6-0.5,1.1,0.4,1.6-1.7
				c0.5-1.1,1-1.6,1.5-1.8c0.5-0.5,1-0.9,1.4-1.9c0.5-1.5,0.9-1.2,1.4-2c0.4-0.5,0.9-1.3,1.3-2.1c0.4-1.7,0.9-2.6,1.3-2.3
				c0.4-1.2,0.8-2.7,1.2-2.3c0.4,0.9,0.7-2.9,1-2.4c0.3-1.7,0.6-1.6,0.9-2.4c0.3-0.2,0.5-1.4,0.8-2.4c0.2,0.5,0.5-2,0.7-2.5
				c0.2-0.5,0.4-1.4,0.5-2.5c0.2-1.7,0.3-1.7,0.4-2.5c0.1-0.9,0.2-0.9,0.3-2.6c0.1-2.1,0.1-1.6,0.2-2.6c0-1.3,0-2,0-2.6
				c0-0.9,0.1-1.9,0.2-1c0.1-0.2,0.3,0.3,0.6-0.8c0.5-1.8,1.1-0.7,1.6-1.5c0.5-1.1,1.1-1,1.6-1.6c1-1,2.1-2.1,3.1-3.1
				c0.5-0.5,0.8-1.1,1.1-1.6c-0.8,0.2-1.5,0.4-2.3,0.6c-0.8,0.2-1.5,0.4-2.2,0.6c-0.7-0.1-1.5,1.5-2.2,0.6c-0.7-0.1-1.5,0.2-2.2,0.6
				c0.5-1.2,0.9-1.7,1.4-1.5c0.5,0,0.9-2,1.4-1.4C272.6,53.7,273,53.3,273.4,52.8z"/>
		</g>
		<g id="insta_x5F_logo">
			<rect id="insta_x5F_panel" x="313.9" y="31.2" fill="#2D3638" width="116.4" height="95"/>
			
				<rect id="insta_x5F_light_x5F_panel1_1_" x="317" y="34.2" opacity="0.2" fill="#B4B8BF" enable-background="new    " width="108.4" height="50.3"/>
			
				<rect id="insta_x5F_light_x5F_panel1" x="317" y="37" opacity="0.15" fill="#B4B8BF" enable-background="new    " width="108.3" height="27.8"/>
			
				<rect id="inst_x5F_light_x5F_panel1" x="316.7" y="39.1" opacity="0.23" fill="#B4B8BF" enable-background="new    " width="108.7" height="11.8"/>
			<defs>
				<filter id="Adobe_OpacityMaskFilter_2_" filterUnits="userSpaceOnUse" x="334.7" y="42" width="74.1" height="74.2">
					<feFlood  style="flood-color:white;flood-opacity:1" result="back"/>
					<feBlend  in="SourceGraphic" in2="back" mode="normal"/>
				</filter>
			</defs>
			<mask maskUnits="userSpaceOnUse" x="334.7" y="42" width="74.1" height="74.2" id="insta_x5F_path_1_">
				<g filter="url(#Adobe_OpacityMaskFilter_2_)">
					<g>
						<g>
							<g>
								<g>
									<defs>
										<rect id="SVGID_13_" x="261.9" y="-36.2" width="219.9" height="224.3"/>
									</defs>
									<clipPath id="SVGID_14_">
										<use xlink:href="#SVGID_13_"  overflow="visible"/>
									</clipPath>
								</g>
								<g>
									<defs>
										<rect id="SVGID_15_" x="261.9" y="-36.2" width="219.9" height="224.3"/>
									</defs>
									<defs>
										<rect id="SVGID_16_" x="144.4" y="-140.7" width="411.7" height="460.2"/>
									</defs>
									<clipPath id="SVGID_17_">
										<use xlink:href="#SVGID_15_"  overflow="visible"/>
									</clipPath>
									<clipPath id="SVGID_18_" clip-path="url(#SVGID_17_)">
										<use xlink:href="#SVGID_16_"  overflow="visible"/>
									</clipPath>
									
										<path clip-path="url(#SVGID_18_)" fill="none" stroke="#061300" stroke-width="2" stroke-linecap="round" stroke-linejoin="round" d="
										M478.2,185.1c0-5.6-210.7,6.6-210.7,0c0-5.5,213.5-1.8,213.5-7.4c0-6.4-213,4.7-213,0c0-6.1,208.4-0.7,208.4-6.6
										c0-5.4-207.2,5.8-207.2,0c0-5.5,210.2-0.7,210.2-7.4c0-4.7-207.5,5-207.5,0c0-6.5,207.8-1.4,207.8-6.7
										c0-4.9-208.9,6.2-208.9,0c0-6.6,205.6-2.7,205.6-7.9c0-4.9-206.7,6.6-206.7,0c0-5.5,210.4-1.6,210.4-8.3
										c0-5.3-207.7,5.9-207.7,0c0-5.1,199.7-1.9,199.7-6.6c0-6.1-199.5,6.3-199.5,0c0-6.6,197.5-0.9,197.5-6.7
										c0-6.5-207.5,6.2-207.5,0c0-6.5,216.9-2.9,216.9-8.1c0-6.7-208.4,5.7-208.4,0c0-6.2,200.1-0.9,200.1-6.9
										c0-6.3-204.8,6.1-204.8,0c0-6.2,210.9-0.4,210.9-6.5c0-6.3-214.9,5.3-214.9,0c0-5.1,215.2-1.2,215.2-6.5
										c0-5.7-204.6,4.8-204.6,0c0-6.1,198.6-1.3,198.6-7.9c0-6.8-199.2,5.6-199.2,0c0-5.2,200.3-1.3,200.3-7.8
										c0-5.1-205.6,5.1-205.6,0c0-6.2,204.2-1.8,204.2-7.6c0-5.7-202.5,6.3-202.5,0c0-5.7,204.4-0.3,204.4-6.6
										c0-6-201.8,4.9-201.8,0c0-6.3,203.1-2.5,203.1-8.2c0-6.7-208.4,6-208.4,0c0-5.9,208.6-1.2,208.6-7.9
										c0-6.5-205.2,6.7-205.2,0c0-5.7,208.3-2.5,208.3-7.7c0-6.7-206.8,5.2-206.8,0c0-5,202.7-1.3,202.7-7s-207.5,5.9-207.5,0
										c0-6.3,205.6-2,205.6-7.5c0-6.1-198.9,4.9-198.9,0c0-5.2,206.9-0.7,206.9-6.6c0-5.8-215.7,6-215.7,0
										c0-5.6,213.6-1.7,213.6-7c0-4.7-209.5,6.2-209.5,0c0-6.2,203.3-1.3,203.3-6.6c0-4.8-201.3,6.6-201.3,0
										c0-5,207.5-1.5,207.5-7.2c0-6.7-206.4,6.9-206.4,0c0-5.9,204-0.4,204-7.1c0-4.8-203.1,6.4-203.1,0
										c0-6.5,199.2-3.4,199.2-8.3c0-5.4-198.1,6.3-198.1,0c0-6.5,197.7-3.2,197.7-8.1c0-5.8-207.7,5.1-207.7,0
										c0-6.1,211.2-0.8,211.2-6.5c0-5.6-202.9,4.7-202.9,0c0-5.2,207.3-3.1,207.3-7.9c0-5.1-215.5,5.7-215.5,0"/>
								</g>
							</g>
						</g>
					</g>
				</g>
			</mask>
			<g id="insta_x5F_path" mask="url(#insta_x5F_path_1_)">
				<path fill="#AD9C73" d="M335,64.5h12.9h10.2l50.1,1h0.6c0,0-0.2,18.9-0.2,33.7c0,15.6-15.3,16.5-15.3,16.5s-28,1.2-43.2,0
					C334.9,114.5,335,99,335,99V64.5"/>
				<path fill="#563120" d="M334.8,65.1l73.9,0.3l0,0c-0.4-11.8-1.6-22.9-17.7-22.9h-36.7c0,0-19.7-1.6-19.6,22.7h0.2"/>
				<path fill="#061300" d="M402,56.6c0,4.1-0.5,4.9-3.9,4.9H394c-3.6,0-5.6-0.2-5.4-4.9l0.1-3.8c-0.1-4.1,1-4.6,5.2-4.3l4,0.1
					c4.1,0,4,1,4,4.2L402,56.6L402,56.6z"/>
				<ellipse fill="#1C0123" stroke="#054C31" stroke-miterlimit="10" cx="395.3" cy="55.1" rx="4.9" ry="5"/>
				<circle fill="none" stroke="#061300" stroke-miterlimit="10" cx="395.3" cy="55.1" r="2.9"/>
				<circle fill="#575956" cx="396.9" cy="53.7" r="0.8"/>
				<path fill="#DD002B" d="M339,49.6v14.9h3V45.8C342,45.8,341,47,339,49.6z"/>
				<path fill="#DAAB00" d="M342,45.8v18.7h5V43.6C347,43.6,345,44.2,342,45.8z"/>
				<path fill="#11BF68" d="M347,43.6v20.9h3V42.6C350,42.6,349,42.8,347,43.6z"/>
				<path fill="#3C65FF" d="M350,42.6v21.9h4.2L354.1,42C354.1,42,353,42.1,350,42.6z"/>
				<path fill="#282624" d="M355,64.2c0,1.8-1.5,3.3-3.3,3.3h-9.3c-1.8,0-3.3-1.5-3.3-3.3v-0.3c0-1.8,1.5-3.3,3.3-3.3h9.3
					c1.8,0,3.3,1.5,3.3,3.3V64.2z"/>
				<circle fill="#BFC1BF" cx="372" cy="78.9" r="19.8"/>
				<circle fill="#061300" cx="372" cy="78.9" r="18"/>
				<circle fill="#364C89" cx="372" cy="78.9" r="14.8"/>
				<circle fill="#427A52" cx="372" cy="78.9" r="12.4"/>
				<circle fill="#291935" stroke="#061300" stroke-miterlimit="10" cx="372" cy="78.9" r="10.3"/>
				<circle fill="#061300" cx="372" cy="78.9" r="1.5"/>
				<circle fill="#91968F" cx="379.7" cy="72.8" r="2.6"/>
			</g>
		</g>
	</g>
	<rect id="fulcrum_x5F_L" x="3.1" y="76.5" width="23.8" height="4.5"/>
	<rect id="fulcrum_x5F_R" x="441.1" y="76.3" width="23.8" height="4.5"/>
	<rect id="bar_x5F_vert1" x="16" y="15" fill="#140D0D" width="21.7" height="127.4"/>
	<rect id="bar_x5F_vert2" x="154.1" y="15" fill="#140D0D" width="21.7" height="127.4"/>
	<rect id="bar_x5F_vert3" x="292.1" y="15" fill="#140D0D" width="21.7" height="127.4"/>
	<rect id="bar_x5F_vert4" x="430.3" y="15" fill="#140D0D" width="21.7" height="127.4"/>
	<rect id="bar_x5F_hor1" x="16" y="15" fill="#140D0D" width="436" height="16.4"/>
	<rect id="bar_x5F_hor2" x="16" y="126" fill="#140D0D" width="436" height="16.4"/>
</g>
<g id="wall_frames">
	<rect id="hor_x5F_frame2" x="8.4" y="143.5" fill="#061300" width="454.7" height="28.1"/>
	<g id="hor_x5F_frame2_x5F_tex">
		<g>
			<path fill="none" stroke="#282828" stroke-width="2" stroke-linecap="round" stroke-linejoin="round" d="M11,149.4
				c0,5.8,445.2-3.9,445.2,0c0,3.2-457.9,7.9-457.9,13c0,6.8,464.7-3.2,464.7,0"/>
		</g>
	</g>
	<rect id="hor_x5F_frame1" x="8.3" y="-14" fill="#061300" width="455.2" height="28.1"/>
	<g id="hor_x5F_frame1_x5F_tex">
		<g>
			<path fill="none" stroke="#282828" stroke-width="2" stroke-linecap="round" stroke-linejoin="round" d="M11.7-13.5
				c0,2.8,454.8-5.4,454.8,0c0,5.2-459.3,6.3-459.3,13c0,6,458.8-4.8,458.8,0"/>
		</g>
	</g>
	<path id="vert_x5F_frame4" fill="#061300" d="M482,1015.5c0,0-4.9,0-10.6,0c-0.6,0-1.1,0-1.7,0c-5.8,0-12.8,5-14.8-3
		c-6-21,1-43-4-65c-1-4,5-13,3-21.5c-0.1-0.8-0.1-1.6-0.1-2.3c0-25.3,0-54.9,0-87.9c0-0.4,0-0.9,0-1.4c2-13,1-25-1-38
		c-4-28-7-59,0.4-84.6c0.5-1.4,0.6-2,0.6-2.6c0-113.4,0-243.8,0-364.8c0.1-0.7,0.2-1.3,0.2-1.9c0.8-3.1,2.8-7.1,2.8-10.1
		c-7-28-5-57,0-84c0-2-2-5-2.9-6.6c-0.1-0.6-0.1-1.1-0.1-1.7c0-172.2,0-304.8,0-304.8H482c0,0,0,627,0,925.5c0,0.5,0,0.9,0,1.4
		c-1,12,0,27-5,38c-3,7,4,14,4.8,20.7c0.1,0.8,0.2,1.6,0.2,2.4C482,980.7,482,1015.5,482,1015.5z"/>
	<g id="vert_x5F_frame4_x5F_tex">
		<g>
			<path fill="none" stroke="#282828" stroke-width="2" stroke-linecap="round" stroke-linejoin="round" d="M449.4,767.5
				c0.2,0-0.4-35.2,0-35.2c3.9,0,10.5,276.4,13,276.4c16.2,0-13.7-1076.4,0-1076.4c5.5,0,6.5,1086.1,13,1086.1
				c12.4,0-15.9-1078.8,0-1078.8"/>
		</g>
	</g>
	<path id="vert_x5F_frame3" d="M14,733.5h-28c0,0,0-140.7,0-303.9c0-0.8,0-1.5,0-2.3c0-18.8,0-38.8,0-57.9c0-0.6,0-1.6,0-3.3
		c0-52.3,0-105.2,0-155.3c0-0.8,0-1.6,0-2.4c-2-17.9-1.8-179.6,0-240.7c0-0.7,0-1.4,0-3c0-18.6,0-29.2,0-29.2h28
		c0,0,0,311.7,0,545.5c0,1.7,0,2.6,0,3.2c0,31.1,0,61.9,0,92.6c0,1.1,0,2.1,0,3.2c-1,40.6,0,81.6,0,123c0.1,0.6,0,2.3,0,3.2
		C14,723.7,14,733.5,14,733.5z"/>
	<g id="vert_x5F_frame3_x5F_tex">
		<g>
			<path fill="none" stroke="#282828" stroke-width="2" stroke-linecap="round" stroke-linejoin="round" d="M-13.8,742.8
				c9.7,0-7.6-804.3,0-804.3c10.3,0,16.2,801.1,20.7,801.1c9.5,0-6.5-805.1,0-805.1c5.2,0-7.1,809.2,1,809.2S0.8-66.1,7.9-66.1"/>
		</g>
	</g>
</g>
</svg>
