<?xml version="1.0" encoding="utf-8"?>
<!-- Generator: Adobe Illustrator 16.0.0, SVG Export Plug-In . SVG Version: 6.00 Build 0)  -->
<!DOCTYPE svg PUBLIC "-//W3C//DTD SVG 1.1//EN" "http://www.w3.org/Graphics/SVG/1.1/DTD/svg11.dtd">
<svg version="1.1" xmlns="http://www.w3.org/2000/svg" xmlns:xlink="http://www.w3.org/1999/xlink" x="0px" y="0px" width="100%"
	 height="100%" viewBox="0 0 468 64.5" enable-background="new 0 0 468 64.5" xml:space="preserve" preserveAspectRatio="none">

<g id="wall_x5F_fill">
	<rect id="wall_x5F_colour" x="-1392" fill="#D1CEB2" width="1920" height="1080"/>
</g>
<g id="wall_x5F_texture">
	<g id="etchy_x5F_background">
		<g id="_x31_x4a_x5F_sketchy" opacity="0.2">
			<g>
				<path fill="none" stroke="#323600" stroke-width="3" stroke-linecap="round" stroke-linejoin="round" d="M8.3,0.8
					c0,0,449.6-21.7,449.6,0c0,40-449.6,6.6-449.6,6.6c0,25.8,449.6-25.5,449.6,0c0,27.6-449.6-21.1-449.6,5c0,24.4,449.6,0,449.6,0
					L8.3,18.3c0,8.8,449.6,0,449.6,0S8.3,9.3,8.3,24C8.3,45.8,458,12.5,458,24c0,0-449.6-7.6-449.6,6.8H458l-449.6,7
					c0,22.8,449.6,0,449.6,0c0,17.5-449.6,5.9-449.6,5.9s449.6-8.6,449.6,0c0,0-449.6-18.4-449.6,6.8c0,0,449.6-34.9,449.6,0
					C458,63.5,8.4,32.9,8.4,56.5H458"/>
			</g>
		</g>
	</g>
	<g id="panel_x5F_textures">
		<g id="Biege_x5F_texture">
			<g id="_x31_x4a_1_" opacity="0.4">
				<g>
					<path fill="none" stroke="#FFFFFF" stroke-linecap="round" stroke-linejoin="round" d="M4.3,60.8c3.6,0-3.2-54.1,0-54.1
						c2.4,0,4.2,49.6,8.2,49.6c3.5,0,0-54.8,0-54.8c2.2,0,4.2,52.3,7.9,52.3c2.7,0-1.6-47.5,0-47.5c3.3,0,6.3,48.4,8.5,48.4
						c2.1,0-2-47.1,0-47.1c1.8,0,7.5,49,8.9,49c0,0-2.8-55.5,0-55.5c0.7,0,7.8,60.6,7.8,60.6c1.4,0-0.2-55.2,0-55.2
						c0.2,0,5,50.6,8.7,50.6c3.7,0-1.1-53.8,0-53.8l7.9,52.6c1.8,0-1.9-55.5,0-55.5c3.3,0,7.5,59.9,7.5,59.9c3.4,0-2.4-58.5,0-58.5
						c0,0,3.8,52.5,8,52.5c3.7,0-2.6-48.1,0-48.1C80.1,6,86.1,55,86.1,55c0.1,0-1.1-52.5,0-52.5c0.2,0,7.4,51.4,7.4,51.4
						c4.6,0-2.8-47.8,0-47.8c0.4,0,7.6,53.6,8,53.6c0,0-4.6-52.2,0-52.2c2,0,7.4,54.3,7.6,54.3c2.5,0-1.5-59.2,0-59.2
						c4.6,0,3.2,56.1,7.9,56.1c0.1,0-0.7-56.3,0-56.3c1.3,0,8.9,53.6,8.9,53.6c3.6,0,0-55.1,0-55.1c0.6,0,7.9,61.2,8.7,61.2
						c1.5,0-0.9-55.9,0-55.9c2.4,0,7.2,49.9,7.2,49.9c1.4,0,0-46.5,0-46.5s5.6,52.8,7.3,52.8c2.3,0-4.4-59.6,0-59.6
						c1.4,0,7.4,52.4,7.4,52.4c2,0-3.8-50.1,0-50.1c2.2,0,8.2,54.9,8.7,54.9c1.3,0-3.7-56.7,0-56.7c1.9,0,6.1,55.8,7,55.8
						c4.6,0-1.8-51.2,0-51.2c2.6,0,3.5,45.9,7.4,45.9c3,0-1.5-53.1,0-53.1c4.5,0,7,58.7,7,58.7c2.5,0-3.3-55.3,0-55.3
						c1,0,7.8,51.1,8.6,51.1c0.2,0-4.6-51.5,0-51.5c0,0,5,52.9,8.3,52.9c0,0-1.8-49.1,0-49.1c2,0,5.2,46.8,7.2,46.8
						c1.4,0-1-48.1,0-48.1c2.1,0,5.5,49.2,7.5,49.2c1,0-3-52.5,0-52.5c3.8,0,2.6,53.2,7.4,53.2c1.8,0-3.1-53.2,0-53.2
						c4.4,0,8.3,53.6,8.3,53.6c3.6,0-1.1-54.3,0-54.3c3.4,0,8,54.9,8,54.9c1,0,0-48.1,0-48.1c0,0,6,52.6,9,52.6
						c3.7,0-1.4-54.9,0-54.9c2.7,0,3.8,54.2,8,54.2c1,0-2.5-52.8,0-52.8c4.1,0,5.9,52.8,8.5,52.8c2,0-4-60.7,0-60.7
						c0.4,0,6.1,61.1,8.1,61.1c0.8,0-3.5-60.8,0-60.8c1.1,0,7.2,57.8,7.2,57.8c0.5,0-0.8-57.5,0-57.5c3.7,0,6.5,52.6,8.6,52.6
						c2.7,0-0.8-46.8,0-46.8c3.3,0,4.1,52.8,8.9,52.8c0.1,0-3.7-51.2,0-51.2c2.6,0,5.6,48.8,7.4,48.8c0.2,0-2-48.7,0-48.7
						c0.3,0,4.9,49.4,8.3,49.4c4,0,0-55.2,0-55.2c2.1,0,6.9,53.1,7.3,53.1c2.4,0-1.4-51.8,0-51.8c3.4,0,7.8,50.1,7.8,50.1
						S329.5,3,330.7,3c1.7,0,6.4,59,7.4,59c4.4,0-0.6-52.3,0-52.3l7.1,44.8c4.3,0-4.3-46.1,0-46.1c2.5,0,7.6,52.8,8.2,52.8
						c4,0-2.6-55.1,0-55.1C356,6.3,361,62,361,62c3.6,0-4.4-57.3,0-57.3c4.1,0,4.1,57,8.4,57c0.1,0-2.1-52.2,0-52.2
						c0.2,0,8.7,46.1,8.7,46.1c0.9,0-0.7-48.3,0-48.3c0.7,0,4.7,46.9,8.5,46.9c1.5,0-0.5-44.5,0-44.5c0,0,6,46.1,7.9,46.1
						c4.2,0-3.7-53.6,0-53.6c3.9,0,6.4,56.1,8.4,56.1c2.8,0-3.1-55.6,0-55.6c4.1,0,2.9,52.8,7.2,52.8c4.1,0-0.3-49,0-49
						c3.3,0,6.4,53.6,7.3,53.6c0,0-0.3-55.5,0-55.5c3,0,7.2,55.4,7.2,55.4c1.5,0,0-52.2,0-52.2c2.8,0,6,47.7,8.2,47.7
						c1.2,0-2.1-52,0-52c0.7,0,7.4,58.6,8.8,58.6c1.8,0-3.6-52.4,0-52.4c4.2,0,3.3,51.7,7.5,51.7c2.1,0-1.3-57.7,0-57.7
						c1.1,0,4.9,57.9,8,57.9c3.3,0-2.9-57.3,0-57.3c4,0,7.2,51.7,7.8,51.7c2.5,0-1-55.9,0-55.9"/>
				</g>
			</g>
		</g>
		<g id="colour_x5F_texture">
		</g>
	</g>
	<g id="round_x5F_patches">
	</g>
</g>
<g id="wall_x5F_shadow" opacity="0.7">
</g>

<g id="ventilation">
	<g id="Social_x5F_network_x5F_logo">
		<g id="insta_x5F_logo">
		</g>
	</g>
	<g id="guides" display="none">
	</g>
</g>
<g id="wall_frames">
	<rect id="hor_x5F_frame1" x="8.3" y="50.5" fill="#061300" width="455.2" height="28.1"/>
	<g id="hor_x5F_frame1_x5F_tex">
		<g>
			<path fill="none" stroke="#282828" stroke-width="2" stroke-linecap="round" stroke-linejoin="round" d="M11.7,51
				c0,2.8,454.8-5.4,454.8,0c0,5.2-459.3,6.3-459.3,13c0,6,458.8-4.8,458.8,0"/>
		</g>
	</g>
	<path id="vert_x5F_frame4" fill="#061300" d="M482,1080c0,0-4.9,0-10.6,0c-0.6,0-1.1,0-1.7,0c-5.8,0-12.8,5-14.8-3c-6-21,1-43-4-65
		c-1-4,5-13,3-21.5c-0.1-0.8-0.1-1.6-0.1-2.3c0-25.3,0-54.9,0-87.9c0-0.4,0-0.9,0-1.4c2-13,1-25-1-38c-4-28-7-59,0.4-84.6
		c0.5-1.4,0.6-2,0.6-2.6c0-113.4,0-243.8,0-364.8c0.1-0.7,0.2-1.3,0.2-1.9C455,404,457,400,457,397c-7-28-5-57,0-84c0-2-2-5-2.9-6.6
		c-0.1-0.6-0.1-1.1-0.1-1.7C454,132.5,454,0,454,0H482c0,0,0,627,0,925.5c0,0.5,0,0.9,0,1.4c-1,12,0,27-5,38c-3,7,4,14,4.8,20.7
		c0.1,0.8,0.2,1.6,0.2,2.4C482,1045.2,482,1080,482,1080z"/>
	<g id="vert_x5F_frame4_x5F_tex">
		<g>
			<path fill="none" stroke="#282828" stroke-width="2" stroke-linecap="round" stroke-linejoin="round" d="M449.4,832
				c0.2,0-0.4-35.2,0-35.2c3.9,0,10.5,276.4,13,276.4c16.2,0-13.7-1076.4,0-1076.4c5.5,0,6.5,1086.1,13,1086.1
				c12.4,0-15.9-1078.8,0-1078.8"/>
		</g>
	</g>
	<path id="vert_x5F_frame3" d="M14,798H-14c0,0,0-140.7,0-303.9c0-0.8,0-1.5,0-2.3c0-18.8,0-38.8,0-57.9c0-0.6,0-1.6,0-3.3
		c0-52.3,0-105.2,0-155.3c0-0.8,0-1.6,0-2.4c-2-17.9-1.8-179.6,0-240.7c0-0.7,0-1.4,0-3C-14,10.5-14,0-14,0H14c0,0,0,311.7,0,545.5
		c0,1.7,0,2.6,0,3.2c0,31.1,0,61.9,0,92.6c0,1.1,0,2.1,0,3.2c-1,40.6,0,81.6,0,123c0.1,0.6,0,2.3,0,3.2C14,788.2,14,798,14,798z"/>
	<g id="vert_x5F_frame3_x5F_tex">
		<g>
			<path fill="none" stroke="#282828" stroke-width="2" stroke-linecap="round" stroke-linejoin="round" d="M-13.8,807.3
				c9.7,0-7.6-804.3,0-804.3C-3.5,2.9,2.4,804,6.9,804c9.5,0-6.5-805.1,0-805.1c5.2,0-7.1,809.2,1,809.2c8.1,0-7.1-809.8,0-809.8"/>
		</g>
	</g>
</g>
<g id="text" display="none">
</g>
</svg>
