<?xml version="1.0" encoding="utf-8"?>
<!-- Generator: Adobe Illustrator 16.0.0, SVG Export Plug-In . SVG Version: 6.00 Build 0)  -->
<!DOCTYPE svg PUBLIC "-//W3C//DTD SVG 1.1//EN" "http://www.w3.org/Graphics/SVG/1.1/DTD/svg11.dtd">
<svg version="1.1" xmlns="http://www.w3.org/2000/svg" xmlns:xlink="http://www.w3.org/1999/xlink" x="0px" y="0px" width="100%"
	 height="100%" viewBox="0 0 468 93.4" enable-background="new 0 0 468 93.4" xml:space="preserve" preserveAspectRatio="none">

<g id="wall_x5F_fill">
	<rect id="wall_x5F_colour" x="-1392" y="-220.6" fill="#D1CEB2" width="1920" height="1080"/>
</g>
<g id="wall_x5F_texture">
	<g id="etchy_x5F_background">
		<g id="_x32_x4_x5F_sketchy" opacity="0.2">
			<g>
				<path fill="none" stroke="#323600" stroke-width="3" stroke-linecap="round" stroke-linejoin="round" d="M8.3,101.8
					c0,0,454-21.9,454,0c0,40.4-454,6.6-454,6.6c0,26,454-25.7,454,0c0,27.8-454-21.4-454,5c0,24.6,454,0,454,0l-454,5.9
					c0,8.9,454,0,454,0s-454-9.1-454,5.7c0,22.1,454-11.6,454,0c0,0-454-7.8-454,6.8h454l-454,7c0,23,454,0,454,0
					c0,17.7-454,5.9-454,5.9s454-8.6,454,0c0,0-454-18.7-454,6.8c0,0,454-35.2,454,0c0,13.2-454-17.8-454,6.1h454
					c0,0-454-12.4-454,6.9c0,0,454-6.4,454,0c0,20.4-454,5.2-454,5.2c0,0.8,454,0,454,0c0,28.2-454,5.6-454,5.6
					c0,16.2,454-5.4,454,0c0,0-454-8.6-454,5.7c0,27.3,454,0,454,0l-454,6.7c0,0,454-15.6,454,0c0,1.6-454-15.3-454,6.3
					c0,37.2,454-27.4,454,0c0,20.3-454,6.1-454,6.1h454c0,0-454,3.1-454,5.6c0,0,454-39.4,454,0c0,28.4-454,5.1-454,5.1
					c0,39.5,454-25.7,454,0c0,19.2-454,6.7-454,6.7c0,26.5,454-25.8,454,0c0,11-454,5.6-454,5.6c0,7.6,454-37.1,454,0
					c0,21.5-454-20.6-454,6c0,0,454-12.3,454,0c0,0-454-22.5-454,5.5c0,1.6,454,0,454,0s-454-27.4-454,6.6h454
					c0,38.6-454,6.5-454,6.5c0,2.5,454-28.7,454,0c0,16.8-454,6-454,6c0,5,454-37.8,454,0c0,8.5-454-26.1-454,5.9
					c0,0,454-16.2,454,0l-454,6.2c0,35.3,454-32.3,454,0c0,0-454-11.2-454,5.4h454c0,34.3-454,6.1-454,6.1h454c0,0-454-1.8-454,6.1
					c0,0,454-8.2,454,0c0,16.2-454-2.2-454,5.9c0,21.3,454-16.6,454,0c0,7.3-454-30.1-454,5.6c0,0,454-39.7,454,0
					c0,0-454,3.4-454,6.4c0,0,454-4.3,454,0c0,0-454,4.3-454,6.5c0,33.2,454,0,454,0l-454,5.4c0,14.4,454-12.8,454,0
					c0,15.5-454,5.5-454,5.5s454-13,454,0c0,30.7-454,5-454,5c0,28.6,454,0,454,0s-454-21.1-454,6.5h454c0,14.6-454-24.8-454,5.7
					h454c0,33.4-454,5.8-454,6.5c0,0,454-8.6,454,0c0,18.6-454-24.2-454,6.9c0,31.6,454-25,454,0c0,0-454-27.5-454,6.9h454l-454,5.6
					c0,16.9,454,0,454,0c0,20.1-454,7-454,7c0,32.1,454-29.3,454,0c0,0-454-6.2-454,6.5h454c0,6.1-454-22.1-454,6.6
					c0,12.5,454-30.7,454,0c0,24.3-454-31.9-454,5.1c0,0,454-4.4,454,0c0,34.3-454,6.1-454,6.1c0,21.2,454,0,454,0
					c0,8.6-454,6.5-454,6.5c0,39.4,454,0,454,0s-454-6.7-454,6.2c0,0,454-12.7,454,0l-454,5.3c0,16.6,454-6.6,454,0
					c0,1.5-454,5.9-454,5.9c0,6.2,454,0,454,0c0,17.6-454,5.7-454,5.7h454c0,25.3-454-30.6-454,6.7c0,0,454-5.9,454,0l-454,6h454
					l-454,6.1c0,28.8,454,0,454,0c0,30.8-454,6.7-454,6.7h454c0,16.3-454-30.9-454,6.6c0,14.8,454-9.3,454,0c0,0.2-454-0.1-454,6.9
					c0,0,454-35.4,454,0c0,0-454-25-454,7h454c0,5.5-454,5.6-454,5.6c0,37.6,454-40.3,454,0l-454,5.9c0,5.1,454-27.1,454,0
					c0,0-454-5.3-454,5.8c0,4.2,454-29.8,454,0l-454,6.5c0,0,454-25,454,0c0,17.8-454-11.6-454,5.7c0,34.9,454,0,454,0
					s-454,3.2-454,5.1c0,16.9,454,0,454,0s-454-28.5-454,5.6c0,34.3,454,0,454,0c0,26.5-454,5.5-454,5.5c0,14.2,454,0,454,0L8.4,521
					c0,0,454-33.5,454,0c0,4.3-454,6.5-454,6.5s454-23,454,0c0,16.6-454-28.5-454,6.6c0,12.3,454,0,454,0s-454-15.1-454,6.6h454
					c0,0-454-34.6-454,5.6c0,0,454-28,454,0c0,1.1-454,6.6-454,6.6c0,35.9,454-16.6,454,0c0,0-454-20.6-454,6.1c0,33.1,454-28,454,0
					c0,0-454-13-454,6.4c0,0,454-32.3,454,0c0,9.6-454-24.6-454,6.1c0,0,454-2.5,454,0"/>
			</g>
		</g>
		<g id="_x31_x4b_x5F_sketchy" opacity="0.2">
			<g>
				<path fill="none" stroke="#323600" stroke-width="3" stroke-linecap="round" stroke-linejoin="round" d="M8.3,4.8
					c0,0,449.6-21.7,449.6,0c0,40-449.6,6.6-449.6,6.6c0,25.8,449.6-25.5,449.6,0C458,39,8.3-9.7,8.3,16.4c0,24.4,449.6,0,449.6,0
					L8.3,22.3c0,8.8,449.6,0,449.6,0S8.3,13.4,8.3,28C8.3,49.9,458,16.5,458,28c0,0-449.6-7.6-449.6,6.8H458l-449.6,7
					c0,22.8,449.6,0,449.6,0c0,17.5-449.6,5.9-449.6,5.9s449.6-8.6,449.6,0c0,0-449.6-18.4-449.6,6.8c0,0,449.6-34.9,449.6,0
					C458,67.6,8.4,37,8.4,60.6H458c0,0-449.6-12.2-449.6,6.9c0,0,449.6-6.4,449.6,0c0,20.2-449.6,5.2-449.6,5.2
					c0,0.8,449.6,0,449.6,0c0,28-449.6,5.6-449.6,5.6c0,16.1,449.6-5.4,449.6,0c0,0-449.6-8.4-449.6,5.7C8.4,111,458,84,458,84"/>
			</g>
		</g>
	</g>
	<g id="panel_x5F_textures">
		<g id="Biege_x5F_texture">
			<g id="_x31_x4b_1_" opacity="0.4">
				<g>
					<path fill="none" stroke="#FFFFFF" stroke-linecap="round" stroke-linejoin="round" d="M4.2,89.6c5.6,0-5-83.8,0-83.8
						c3.8,0,1.9,79.3,8.2,79.3c5.5,0,0-84.6,0-84.6c3.4,0,2.2,82,7.9,82c4.2,0-2.5-77.2,0-77.2c5.3,0,5,78.1,8.5,78.1
						c3.3,0-3.2-76.8,0-76.8c2.9,0,6.7,78.7,8.9,78.7c0,0-4.4-85.2,0-85.2c1.1,0,7.8,90.3,7.8,90.3c2.1,0-0.3-85,0-85
						c0.3,0,2.9,80.3,8.7,80.3c5.8,0-1.8-83.5,0-83.5l7.9,82.3c2.8,0-3-85.3,0-85.3c4.9,0,7.5,89.6,7.5,89.6c5.3,0-3.8-88.2,0-88.2
						c0,0,1.5,82.2,8,82.2c5.8,0-4-77.9,0-77.9C81.5,5,86,83.8,86,83.8c0.2,0-1.8-82.3,0-82.3c0.3,0,7.4,81.1,7.4,81.1
						c7.1,0-4.3-77.6,0-77.6c0.6,0,7.3,83.3,8,83.3c0,0-7.2-81.9,0-81.9c3.1,0,7.3,84,7.6,84c3.9,0-2.4-88.9,0-88.9
						c7,0,0.8,85.8,7.9,85.8c0.2,0-1-86,0-86c2,0,8.9,83.3,8.9,83.3c5.6,0,0-84.8,0-84.8c0.9,0,7.6,90.9,8.7,90.9
						c2.3,0-1.4-85.6,0-85.6c3.9,0,7.2,79.6,7.2,79.6c2.1,0,0-76.2,0-76.2s4.7,82.5,7.3,82.5c3.6,0-6.9-89.3,0-89.3
						c2.2,0,7.4,82.1,7.4,82.1c3.1,0-5.8-79.9,0-79.9c3.4,0,7.9,84.6,8.7,84.6c2,0-5.7-86.4,0-86.4c2.8,0,5.7,85.6,7,85.6
						c7.1,0-2.9-80.9,0-80.9c4.2,0,1.1,75.7,7.4,75.7c4.6,0-2.3-82.8,0-82.8c6.7,0,7,88.4,7,88.4c3.9,0-5.2-85,0-85
						c1.5,0,7.3,80.8,8.6,80.8c0.3,0-7.1-81.2,0-81.2c0,0,3.1,82.7,8.3,82.7c0,0-2.8-78.8,0-78.8c3.3,0,3.9,76.6,7.2,76.6
						c2.3,0-1.5-77.9,0-77.9c3.4,0,4.3,79,7.5,79c1.6,0-4.7-82.2,0-82.2c5.9,0,0,82.9,7.4,82.9c2.8,0-4.8-82.9,0-82.9
						c6.8,0,8.3,83.4,8.3,83.4c5.6,0-1.7-84.1,0-84.1c5.2,0,8,84.7,8,84.7c1.5,0,0-77.9,0-77.9c0.1,0,4.3,82.3,9,82.3
						c5.8,0-2.2-84.6,0-84.6c4.1,0,1.5,83.9,8,83.9c1.5,0-3.9-82.5,0-82.5c6.4,0,4.5,82.6,8.5,82.6c3.1,0-6.3-90.4,0-90.4
						c0.6,0,5.2,90.9,8.1,90.9c1.3,0-5.4-90.6,0-90.6c1.6,0,7.2,87.5,7.2,87.5c0.8,0-1.2-87.2,0-87.2c5.7,0,5.3,82.4,8.6,82.4
						c4.2,0-1.2-76.6,0-76.6c5.2,0,1.5,82.5,8.9,82.5c0.1,0-5.8-80.9,0-80.9c4.2,0,4.5,78.6,7.4,78.6c0.3,0-3.2-78.4,0-78.4
						c0.4,0,2.9,79.2,8.3,79.2c6.3,0,0-84.9,0-84.9c3.2,0,6.6,82.9,7.3,82.9c3.8,0-2.2-81.5,0-81.5c5.4,0,7.8,79.8,7.8,79.8
						s-1.9-81,0-81c2.6,0,5.9,88.8,7.4,88.8c6.8,0-1-82,0-82l7.1,74.6c6.7,0-6.7-75.8,0-75.8c3.9,0,7.2,82.6,8.2,82.6
						c6.2,0-4.1-84.9,0-84.9c4,0,7.6,85.4,7.6,85.4c5.6,0-6.9-87,0-87c6.2,0,1.9,86.7,8.4,86.7c0.2,0-3.2-82,0-82
						c0.3,0,8.7,75.9,8.7,75.9c1.5,0-1.2-78.1,0-78.1c1.2,0,2.4,76.7,8.5,76.7c2.3,0-0.8-74.3,0-74.3c0,0,4.8,75.8,7.9,75.8
						c6.5,0-5.7-83.3,0-83.3c5.9,0,5.3,85.9,8.4,85.9c4.3,0-4.8-85.3,0-85.3c6.4,0,0.6,82.6,7.2,82.6c6.4,0-0.4-78.8,0-78.8
						c5.2,0,5.9,83.3,7.3,83.3c0,0-0.5-85.2,0-85.2c4.6,0,7.2,85.1,7.2,85.1c2.3,0,0-81.9,0-81.9c4.5,0,4.7,77.5,8.2,77.5
						c1.9,0-3.2-81.7,0-81.7c1.1,0,6.7,88.4,8.8,88.4c2.9,0-5.5-82.2,0-82.2c6.5,0,0.9,81.5,7.5,81.5c3.2,0-2-87.4,0-87.4
						c1.6,0,3.3,87.6,8,87.6c5.2,0-4.4-87.1,0-87.1"/>
				</g>
			</g>
		</g>
		<g id="colour_x5F_texture">
			<g id="_x31_x4yellow_x5F_a">
				<g>
					<path fill="none" stroke="#DDC04A" stroke-linecap="round" stroke-linejoin="round" d="M73,71.5c3.3,0-3.8-54.4,0-54.4
						c2.5,0,7.5,54.8,10.1,54.8c3.6,0-3.6-38.4,0-38.4c1.6,0,7,34.5,8.6,34.5c3.9,0-3.6-47.9,0-47.9c2.6,0,5.5,58.2,8,58.2
						c3.6,0-3.4-60.7,0-60.7c2.7,0,12.2,55,15.1,55c3.9,0-3.8-56.1,0-56.1c2.3,0,12.8,46.8,15.1,46.8c3.5,0-3.2-29.8,0-29.8
						c1.2,0,8.3,24.3,9.5,24.3c3.7,0-3.9-33,0-33"/>
				</g>
			</g>
		</g>
	</g>
	<g id="round_x5F_patches">
	</g>
</g>
<g id="wall_x5F_shadow" opacity="0.7">
	<rect id="_x31_x4b" x="8.3" y="5.4" opacity="0.3" width="29.4" height="81.7"/>
	<rect id="_x31_x4a" x="8.3" y="10.5" opacity="0.4" width="454.8" height="24.3"/>
</g>

<g id="ventilation">
	<g id="Social_x5F_network_x5F_logo">
		<g id="insta_x5F_logo">
		</g>
	</g>
	<g id="guides" display="none">
	</g>
</g>
<g id="wall_frames">
	<rect id="hor_x5F_frame2" x="8.4" y="-12.7" fill="#061300" width="454.7" height="28.1"/>
	<g id="hor_x5F_frame2_x5F_tex">
		<g>
			<path fill="none" stroke="#282828" stroke-width="2" stroke-linecap="round" stroke-linejoin="round" d="M11-6.8
				c0,5.8,445.2-3.9,445.2,0c0,3.2-457.9,7.9-457.9,13c0,6.8,464.7-3.2,464.7,0"/>
		</g>
	</g>
	<path id="hor_x5F_frame3" fill="#061300" d="M528,79.3v28.1c0,0-19.2,0-53.8,0c-0.5,0-0.9,0-1.4,0c-75.8-4-150.8,2-226.9,0
		c-0.6,0-1.2,0-2,0c-368.7,0-1007.2,0-1367.8,0c-0.8,0-1.7,0-2.6,0.1c-3.5,1.8-6.5,4.8-7.5,4.8c-19,1-37-6-56,0c-3,1-8-1-11-1
		c-12-1-23,0-35-1c-4,0-8-1-12-1c-16-1-33,1-49-4c-3-1-7,1-11.3,2c-0.5,0-1.1,0.1-1.6,0.1c-52.2,0-82,0-82,0V79.3
		c0,0,119.3,0,298.3,0c0.8,0.1,1.5,0.2,2.2,0.2c4.5,0.8,8.5,1.8,13.5,0.8c15-3,29-6,43-6c52,0,104,0,156,3c19,2,38,1,56.8,2
		c0.6,0,1.6,0,2.2,0c102.8,0,212.8,0,323.9,0c1.7-0.4,2.5-0.5,3.4-0.6c92.7-5.4,184.7-3.4,277.3,0.6c0.8,0,1.7,0,2.5,0
		C184,79.3,528,79.3,528,79.3z"/>
	<g id="hor_x5F_frame3_x5F_tex">
		<g>
			<path fill="none" stroke="#282828" stroke-width="2" stroke-linecap="round" stroke-linejoin="round" d="M-1044,74.9
				c0,0.9,91-0.9,91,0c0,4.4-440.1,10.6-440.1,15c0,19.2,1922-19.2,1922,0c0,19.2-1922.4-4.2-1922.4,15c0,19.2,1921.4-19.2,1921.4,0
				"/>
		</g>
	</g>
	<path id="vert_x5F_frame4" fill="#061300" d="M482,859.4c0,0-4.9,0-10.6,0c-0.6,0-1.1,0-1.7,0c-5.8,0-12.8,5-14.8-3
		c-6-21,1-43-4-65c-1-4,5-13,3-21.5c-0.1-0.8-0.1-1.6-0.1-2.3c0-25.3,0-54.9,0-87.9c0-0.4,0-0.9,0-1.4c2-13,1-25-1-38
		c-4-28-7-59,0.4-84.6c0.5-1.4,0.6-2,0.6-2.6c0-113.4,0-243.8,0-364.8c0.1-0.7,0.2-1.3,0.2-1.9c0.8-3.1,2.8-7.1,2.8-10.1
		c-7-28-5-57,0-84c0-2-2-5-2.9-6.6c-0.1-0.6-0.1-1.1-0.1-1.7c0-172.2,0-304.8,0-304.8H482c0,0,0,627,0,925.5c0,0.5,0,0.9,0,1.4
		c-1,12,0,27-5,38c-3,7,4,14,4.8,20.7c0.1,0.8,0.2,1.6,0.2,2.4C482,824.6,482,859.4,482,859.4z"/>
	<g id="vert_x5F_frame4_x5F_tex">
		<g>
			<path fill="none" stroke="#282828" stroke-width="2" stroke-linecap="round" stroke-linejoin="round" d="M449.4,611.4
				c0.2,0-0.4-35.2,0-35.2c3.9,0,10.5,276.4,13,276.4c16.2,0-13.7-1076.4,0-1076.4c5.5,0,6.5,1086.1,13,1086.1
				c12.4,0-15.9-1078.8,0-1078.8"/>
		</g>
	</g>
	<path id="vert_x5F_frame3" d="M14,577.4H-14c0,0,0-140.7,0-303.9c0-0.8,0-1.5,0-2.3c0-18.8,0-38.8,0-57.9c0-0.6,0-1.6,0-3.3
		c0-52.3,0-105.2,0-155.3c0-0.8,0-1.6,0-2.4c-2-17.9-1.8-179.6,0-240.7c0-0.7,0-1.4,0-3c0-18.6,0-29.2,0-29.2H14
		c0,0,0,311.7,0,545.5c0,1.7,0,2.6,0,3.2c0,31.1,0,61.9,0,92.6c0,1.1,0,2.1,0,3.2c-1,40.6,0,81.6,0,123c0.1,0.6,0,2.3,0,3.2
		C14,567.5,14,577.4,14,577.4z"/>
	<g id="vert_x5F_frame3_x5F_tex">
		<g>
			<path fill="none" stroke="#282828" stroke-width="2" stroke-linecap="round" stroke-linejoin="round" d="M-13.8,586.6
				c9.7,0-7.6-804.3,0-804.3c10.3,0,16.2,801.1,20.7,801.1c9.5,0-6.5-805.1,0-805.1c5.2,0-7.1,809.2,1,809.2
				c8.1,0-7.1-809.8,0-809.8"/>
		</g>
	</g>
</g>
<g id="text" display="none">
</g>
</svg>
