<?xml version="1.0" encoding="utf-8"?>
<!-- Generator: Adobe Illustrator 16.0.0, SVG Export Plug-In . SVG Version: 6.00 Build 0)  -->
<!DOCTYPE svg PUBLIC "-//W3C//DTD SVG 1.1//EN" "http://www.w3.org/Graphics/SVG/1.1/DTD/svg11.dtd">
<svg version="1.1" xmlns="http://www.w3.org/2000/svg" xmlns:xlink="http://www.w3.org/1999/xlink" x="0px" y="0px" width="100%"
	 height="100%" viewBox="0 0 60 314" enable-background="new 0 0 60 314" xml:space="preserve" preserveAspectRatio="xMidYMid meet">

<g id="wall_x5F_fill">
	<rect id="wall_x5F_colour" x="-1860" fill="#D1CEB2" width="1920" height="1080"/>
</g>
<g id="wall_x5F_texture">
	<g id="etchy_x5F_background">
		<g id="_x31_x5_x5F_sketchy" opacity="0.2">
			<g>
				<path fill="none" stroke="#323600" stroke-width="3" stroke-linecap="round" stroke-linejoin="round" d="M9.7,5.2
					c0,0,46.6-2.2,46.6,0c0,4.2-46.6,6.6-46.6,6.6c0,2.7,46.6-2.6,46.6,0c0,2.9-46.6,2.3-46.6,5c0,2.5,46.6,0,46.6,0L9.7,22.7
					c0,0.9,46.6,0,46.6,0S9.7,26.9,9.7,28.4c0,2.3,46.6-1.2,46.6,0c0,0-46.6,5.3-46.6,6.8h46.6l-46.6,7c0,2.4,46.6,0,46.6,0
					c0,1.8-46.6,5.9-46.6,5.9s46.6-0.9,46.6,0c0,0-46.6,4.1-46.6,6.8c0,0,46.6-3.6,46.6,0c0,1.4-46.6,3.6-46.6,6.1h46.6
					c0,0-46.6,4.9-46.6,6.9c0,0,46.6-0.7,46.6,0c0,2.1-46.6,5.2-46.6,5.2c0,0.1,46.6,0,46.6,0c0,2.9-46.6,5.6-46.6,5.6
					c0,1.7,46.6-0.6,46.6,0c0,0-46.6,4.2-46.6,5.7c0,2.8,46.6,0,46.6,0L9.7,91.1c0,0,46.6-1.6,46.6,0c0,0.2-46.6,4.1-46.6,6.3
					c0,3.8,46.6-2.8,46.6,0c0,2.1-46.6,6.1-46.6,6.1h46.6c0,0-46.6,5.3-46.6,5.6c0,0,46.6-4,46.6,0c0,2.9-46.6,5.1-46.6,5.1
					c0,4.1,46.6-2.6,46.6,0c0,2-46.6,6.7-46.6,6.7c0,2.7,46.6-2.6,46.6,0c0,1.1-46.6,5.6-46.6,5.6c0,0.8,46.6-3.8,46.6,0
					c0,2.2-46.6,3.3-46.6,6c0,0,46.6-1.3,46.6,0c0,0-46.6,2.6-46.6,5.5c0,0.2,46.6,0,46.6,0s-46.6,3-46.6,6.6h46.6
					c0,4-46.6,6.5-46.6,6.5c0,0.3,46.6-2.9,46.6,0c0,1.7-46.6,6-46.6,6c0,0.5,46.6-3.9,46.6,0c0,0.9-46.6,2.6-46.6,5.9
					c0,0,46.6-1.7,46.6,0l-46.6,6.2c0,3.6,46.6-3.3,46.6,0c0,0-46.6,3.7-46.6,5.4h46.6c0,3.6-46.6,6.1-46.6,6.1h46.6
					c0,0-46.6,5.3-46.6,6.1c0,0,46.6-0.8,46.6,0c0,1.7-46.6,5-46.6,5.9c0,2.2,46.6-1.7,46.6,0c0,0.8-46.6,1.9-46.6,5.6
					c0,0,46.6-4.1,46.6,0c0,0-46.6,6.1-46.6,6.4c0,0,46.6-0.4,46.6,0c0,0-46.6,6.3-46.6,6.5c0,3.4,46.6,0,46.6,0l-46.6,5.4
					c0,1.5,46.6-1.3,46.6,0c0,1.6-46.6,5.5-46.6,5.5s46.6-1.3,46.6,0c0,3.2-46.6,5-46.6,5c0,2.9,46.6,0,46.6,0S9.7,231,9.7,233.8
					h46.6c0,1.5-46.6,2.6-46.6,5.7h46.6c0,3.5-46.6,6.5-46.6,6.5c0,0,46.6-0.9,46.6,0c0,1.9-46.6,3.7-46.6,6.9
					c0,3.2,46.6-2.6,46.6,0c0,0-46.6,3.3-46.6,6.9h46.6l-46.6,5.6c0,1.7,46.6,0,46.6,0c0,2.1-46.6,7-46.6,7c0,3.3,46.6-3,46.6,0
					c0,0-46.6,5.2-46.6,6.5h46.6c0,0.6-46.6,3.6-46.6,6.6c0,1.3,46.6-3.2,46.6,0c0,2.5-46.6,1.3-46.6,5.1c0,0,46.6-0.5,46.6,0
					c0,3.6-46.6,6.1-46.6,6.1c0,2.2,46.6,0,46.6,0c0,0.9-46.6,6.5-46.6,6.5c0,4,46.6,0,46.6,0"/>
			</g>
		</g>
	</g>
	<g id="panel_x5F_textures">
		<g id="Biege_x5F_texture">
			<g id="_x31_x5" opacity="0.4">
				<g>
					<path fill="none" stroke="#FFFFFF" stroke-linecap="round" stroke-linejoin="round" d="M5.9,310.2c20.3,0-18.1-303.5,0-303.5
						c14.1,0-15.4,299,8.2,299c19.9,0,0-304.2,0-304.2C26.5,1.5,1,303.2,22,303.2c15.2,0-9.2-296.9,0-296.9
						c20,0-4.8,297.8,8.5,297.8C42.4,304,19,7.5,30.5,7.5c11,0,0.4,298.4,8.9,298.4c0,0-15.9-304.9,0-304.9c3.7,0,7.8,310,7.8,310
						c7.8,0-1.2-304.7,0-304.7c1.1,0-12.7,300,8.7,300c21.2,0-6.5-303.2,0-303.2"/>
				</g>
			</g>
		</g>
		<g id="colour_x5F_texture">
		</g>
	</g>
	<g id="round_x5F_patches">
	</g>
</g>
<g id="wall_x5F_shadow" opacity="0.7">
	<rect id="_x31_x5a" x="5.7" opacity="0.2" width="26.9" height="307.7"/>
</g>

<g id="wall_frames">
	<path id="hor_x5F_frame3" fill="#061300" d="M60,300V328c0,0-19.2,0-53.8,0c-0.5,0-0.9,0-1.4,0c-75.8-4-150.8,2-226.9,0
		c-0.6,0-1.2,0-2,0c-368.7,0-1007.2,0-1367.8,0c-0.8,0-1.7,0-2.6,0.1c-3.5,1.8-6.5,4.8-7.5,4.8c-19,1-37-6-56,0c-3,1-8-1-11-1
		c-12-1-23,0-35-1c-4,0-8-1-12-1c-16-1-33,1-49-4c-3-1-7,1-11.3,2c-0.5,0-1.1,0.1-1.6,0.1c-52.2,0-82,0-82,0V300
		c0,0,119.3,0,298.3,0c0.8,0.1,1.5,0.2,2.2,0.2c4.5,0.8,8.5,1.8,13.5,0.8c15-3,29-6,43-6c52,0,104,0,156,3c19,2,38,1,56.8,2
		c0.6,0,1.6,0,2.2,0c102.8,0,212.8,0,323.9,0c1.7-0.4,2.5-0.5,3.4-0.6C-868,294-776,296-683.3,300c0.8,0,1.7,0,2.5,0
		C-284,300,60,300,60,300z"/>
	<g id="hor_x5F_frame3_x5F_tex">
		<g>
			<path fill="none" stroke="#282828" stroke-width="2" stroke-linecap="round" stroke-linejoin="round" d="M-1512,295.5
				c0,0.9,91-0.9,91,0c0,4.4-440.1,10.6-440.1,15c0,19.2,1922-19.2,1922,0c0,19.2-1922.4-4.2-1922.4,15c0,19.2,1921.4-19.2,1921.4,0
				"/>
		</g>
	</g>
	<path id="vert_x5F_frame4" fill="#061300" d="M14,1080c0,0-4.9,0-10.6,0c-0.6,0-1.1,0-1.7,0c-5.8,0-12.8,5-14.8-3c-6-21,1-43-4-65
		c-1-4,5-13,3-21.5c-0.1-0.8-0.1-1.6-0.1-2.3c0-25.3,0-54.9,0-87.9c0-0.4,0-0.9,0-1.4c2-13,1-25-1-38c-4-28-7-59,0.4-84.6
		c0.5-1.4,0.6-2,0.6-2.6c0-113.4,0-243.8,0-364.8c0.1-0.7,0.2-1.3,0.2-1.9C-13,404-11,400-11,397c-7-28-5-57,0-84c0-2-2-5-2.9-6.6
		c-0.1-0.6-0.1-1.1-0.1-1.7C-14,132.5-14,0-14,0H14c0,0,0,627,0,925.5c0,0.5,0,0.9,0,1.4c-1,12,0,27-5,38c-3,7,4,14,4.8,20.7
		c0.1,0.8,0.2,1.6,0.2,2.4C14,1045.2,14,1080,14,1080z"/>
	<g id="vert_x5F_frame4_x5F_tex">
		<g>
			<path fill="none" stroke="#282828" stroke-width="2" stroke-linecap="round" stroke-linejoin="round" d="M-18.6,832
				c0.2,0-0.4-35.2,0-35.2c3.9,0,10.5,276.4,13,276.4c16.2,0-13.7-1076.4,0-1076.4C0-3.2,0.9,1083,7.4,1083
				C19.9,1083-8.4,4.2,7.4,4.2"/>
		</g>
	</g>
</g>
<g id="text" display="none">
</g>
</svg>
