<?xml version="1.0" encoding="utf-8"?>
<!-- Generator: Adobe Illustrator 16.0.0, SVG Export Plug-In . SVG Version: 6.00 Build 0)  -->
<!DOCTYPE svg PUBLIC "-//W3C//DTD SVG 1.1//EN" "http://www.w3.org/Graphics/SVG/1.1/DTD/svg11.dtd">
<svg version="1.1" xmlns="http://www.w3.org/2000/svg" xmlns:xlink="http://www.w3.org/1999/xlink" x="0px" y="0px" width="100%"
	 height="100%" viewBox="0 0 200 483.9" enable-background="new 0 0 200 483.9" xml:space="preserve" preserveAspectRatio="xMidYMid meet">

<g id="wall_x5F_fill">
	<rect id="wall_x5F_colour" y="-314.1" fill="#D1CEB2" width="1920" height="1080"/>
</g>
<g id="wall_x5F_texture">
	<g id="etchy_x5F_background">
		
		<g id="_x32_x1_x5F_sketchy" opacity="0.2">
			<g>
				<path fill="none" stroke="#323600" stroke-width="3" stroke-linecap="round" stroke-linejoin="round" d="M4,6.3
					c0,0,187.5-9,187.5,0C191.5,23,4,12.9,4,12.9c0,10.7,187.5-10.6,187.5,0C191.5,24.4,4,7,4,17.9c0,10.2,187.5,0,187.5,0L4,23.8
					c0,3.7,187.5,0,187.5,0S4,23.4,4,29.5c0,9.1,187.5-4.8,187.5,0c0,0-187.5,0.8-187.5,6.8h187.5L4,43.3c0,9.5,187.5,0,187.5,0
					C191.5,50.6,4,49.2,4,49.2s187.5-3.6,187.5,0C191.5,49.2,4,45.5,4,56c0,0,187.5-14.6,187.5,0C191.5,61.4,4,52.2,4,62h187.5
					C191.5,62,4,61,4,69c0,0,187.5-2.7,187.5,0C191.5,77.4,4,74.2,4,74.2c0,0.3,187.5,0,187.5,0C191.5,85.8,4,79.8,4,79.8
					c0,6.7,187.5-2.2,187.5,0c0,0-187.5-0.2-187.5,5.7c0,11.3,187.5,0,187.5,0L4,92.2c0,0,187.5-6.4,187.5,0
					C191.5,92.8,4,89.5,4,98.5c0,15.4,187.5-11.3,187.5,0c0,8.4-187.5,6.1-187.5,6.1h187.5c0,0-187.5,4.5-187.5,5.6
					c0,0,187.5-16.3,187.5,0c0,11.8-187.5,5.1-187.5,5.1c0,16.3,187.5-10.6,187.5,0C191.5,123.2,4,122,4,122
					c0,10.9,187.5-10.6,187.5,0c0,4.6-187.5,5.6-187.5,5.6c0,3.1,187.5-15.3,187.5,0c0,8.9-187.5-5-187.5,6c0,0,187.5-5.1,187.5,0
					c0,0-187.5-6-187.5,5.5c0,0.7,187.5,0,187.5,0S4,131.7,4,145.7h187.5c0,15.9-187.5,6.5-187.5,6.5c0,1,187.5-11.8,187.5,0
					c0,7-187.5,6-187.5,6c0,2.1,187.5-15.6,187.5,0c0,3.5-187.5-7.3-187.5,5.9c0,0,187.5-6.7,187.5,0L4,170.4
					c0,14.6,187.5-13.3,187.5,0c0,0-187.5-1.5-187.5,5.4h187.5C191.5,190,4,181.9,4,181.9h187.5c0,0-187.5,2.9-187.5,6.1
					c0,0,187.5-3.4,187.5,0c0,6.7-187.5,2.5-187.5,5.9c0,8.8,187.5-6.8,187.5,0c0,3-187.5-9.2-187.5,5.6c0,0,187.5-16.4,187.5,0
					c0,0-187.5,5.2-187.5,6.4c0,0,187.5-1.8,187.5,0c0,0-187.5,5.6-187.5,6.5c0,13.7,187.5,0,187.5,0L4,217.8c0,6,187.5-5.3,187.5,0
					c0,6.4-187.5,5.5-187.5,5.5s187.5-5.4,187.5,0c0,12.7-187.5,5-187.5,5c0,11.8,187.5,0,187.5,0S4,223.5,4,234.9h187.5
					c0,6-187.5-6.9-187.5,5.7h187.5c0,13.8-187.5,6.2-187.5,6.5c0,0,187.5-3.5,187.5,0c0,7.7-187.5-5.9-187.5,6.9
					c0,13.1,187.5-10.3,187.5,0c0,0-187.5-7.3-187.5,6.9h187.5L4,266.7c0,7,187.5,0,187.5,0c0,8.3-187.5,7-187.5,7
					c0,13.2,187.5-12.1,187.5,0c0,0-187.5,1.3-187.5,6.5h187.5c0,2.5-187.5-5.3-187.5,6.6c0,5.2,187.5-12.7,187.5,0
					c0,10-187.5-10.2-187.5,5.1c0,0,187.5-1.8,187.5,0C191.5,306.1,4,298,4,298c0,8.8,187.5,0,187.5,0c0,3.6-187.5,6.5-187.5,6.5
					c0,16.3,187.5,0,187.5,0S4,305.3,4,310.6c0,0,187.5-5.3,187.5,0L4,316c0,6.8,187.5-2.7,187.5,0c0,0.6-187.5,5.9-187.5,5.9
					c0,2.6,187.5,0,187.5,0c0,7.3-187.5,5.7-187.5,5.7h187.5C191.5,338,4,318.8,4,334.2c0,0,187.5-2.4,187.5,0L4,340.2h187.5
					L4,346.3c0,11.9,187.5,0,187.5,0C191.5,359.1,4,353,4,353h187.5c0,6.8-187.5-8.9-187.5,6.6c0,6.1,187.5-3.8,187.5,0
					c0,0.1-187.5,4-187.5,6.9c0,0,187.5-14.6,187.5,0c0,0-187.5-6.2-187.5,7h187.5c0,2.3-187.5,5.6-187.5,5.6
					c0,15.5,187.5-16.7,187.5,0L4,385c0,2.1,187.5-11.2,187.5,0c0,0-187.5,1.2-187.5,5.8c0,1.8,187.5-12.3,187.5,0L4,397.4
					c0,0,187.5-10.3,187.5,0c0,7.4-187.5-1.4-187.5,5.7c0,14.4,187.5,0,187.5,0S4,407.4,4,408.2c0,7,187.5,0,187.5,0
					S4,399.7,4,413.7c0,14.2,187.5,0,187.5,0c0,10.9-187.5,5.5-187.5,5.5c0,5.8,187.5,0,187.5,0L4,425.4c0,0,187.5-13.8,187.5,0
					c0,1.8-187.5,6.5-187.5,6.5s187.5-9.5,187.5,0c0,6.9-187.5-7.9-187.5,6.6c0,5.1,187.5,0,187.5,0S4,436.2,4,445.2h187.5
					c0,0-187.5-11-187.5,5.6c0,0,187.5-11.6,187.5,0c0,0.4-187.5,6.6-187.5,6.6c0,14.8,187.5-6.8,187.5,0c0,0-187.5-4.9-187.5,6.1
					c0,13.7,187.5-11.5,187.5,0c0,0-187.5-1.7-187.5,6.4c0,0,187.5-13.3,187.5,0c0,4-187.5-6.6-187.5,6.1c0,0,187.5-1,187.5,0"/>
			</g>
		</g>
	</g>
	<g id="panel_x5F_textures">
		<g id="Biege_x5F_texture">
			
			<g id="_x32_x1" opacity="0.4">
				<g>
					<path fill="none" stroke="#FFFFFF" stroke-linecap="round" stroke-linejoin="round" d="M8.6,478c31.5,0-28.1-470.7,0-470.7
						c22,0-28.5,466.3,8.2,466.3c30.9,0,0-471.5,0-471.5c19.4,0-24.7,468.9,7.9,468.9c23.5,0-14.2-464.2,0-464.2
						c31.2,0-12.3,465,8.5,465c18.5,0-17.9-463.7,0-463.7c17.2,0-4.4,465.6,8.9,465.6c0,0-24.7-472.2,0-472.2
						c5.7,0,7.8,477.2,7.8,477.2c12.1,0-1.8-471.9,0-471.9c1.6,0-24.6,467.2,8.7,467.2c32.8,0-10.1-470.4,0-470.4l7.9,469.3
						c15.9,0-17.2-472.2,0-472.2c25.9,0,7.5,476.5,7.5,476.5c30.3,0-21.3-475.1,0-475.1c0,0-28.9,469.2,8,469.2
						c32.6,0-22.6-464.8,0-464.8c23,0,8.4,465.7,8.4,465.7c1.3,0-10.1-469.2,0-469.2c1.6,0,7.4,468,7.4,468
						c40.2,0-24.5-464.5,0-464.5c3.3,0,4,470.3,8,470.3c0,0-40.9-468.9,0-468.9c17,0,6,470.9,7.6,470.9c22.1,0-13.6-475.9,0-475.9
						c38.3,0-31.3,472.7,7.9,472.7c1.3,0-5.8-473,0-473c11.4,0,8.9,470.3,8.9,470.3c31.8,0,0-471.7,0-471.7
						c4.6,0,2.8,477.9,8.7,477.9c12.8,0-7.7-472.6,0-472.6c22.6,0,7.2,466.6,7.2,466.6c12.1,0,0-463.1,0-463.1s-7.1,469.5,7.3,469.5
						c20.4,0-39-476.3,0-476.3c12.5,0,7.4,469.1,7.4,469.1c17.6,0-33.1-466.8,0-466.8c19,0,4.5,471.5,8.7,471.5
						c11.4,0-32.2-473.4,0-473.4c15.6,0-0.6,472.5,7,472.5c40.2,0-16.3-467.9,0-467.9c25.4,0-31.1,462.6,7.4,462.6
						c26.3,0-12.9-469.7,0-469.7c35.9,0,7,475.3,7,475.3c21.8,0-29.3-471.9,0-471.9"/>
				</g>
			</g>
			
		</g>
		<g id="colour_x5F_texture">
			<g id="_x32_x1blue_x5F_a">
				<g>
					<path fill="none" stroke="#8EB0BC" stroke-linecap="round" stroke-linejoin="round" d="M23.9,5.8c0,7.7,160.3-8.9,160.3,0
						c0,7.1-160.8,2.8-160.8,10.1c0,8.4,144.4-8.5,144.4,0c0,6.4-140.4,2.1-140.4,8.6c0,9.1,153.9-8.5,153.9,0
						c0,7.2-164.2,1.1-164.2,8c0,8.3,166.6-7.9,166.6,0c0,7.7-160.9,7-160.9,15.1c0,9.1,162.1-8.8,162.1,0c0,7.1-152.8,8-152.8,15.1
						c0,8.1,135.8-7.5,135.8,0c0,6-130.2,9.4-130.2,15.5c0,8.6,139-9,139,0c0,5.8-139.9,2.6-139.9,9.2c0,7.5,136.1-8.8,136.1,0
						c0,6-141,7.6-141,14c0,8.8,149.9-8.2,149.9,0"/>
				</g>
			</g>
			<g id="_x32_x1yellow_x5F_a">
				<g>
					<path fill="none" stroke="#DDC04A" stroke-linecap="round" stroke-linejoin="round" d="M25.9,115.3c0,7.5,156.2-8.7,156.2,0
						c0,6.9-156.6,3-156.6,10.1c0,8.2,140.2-8.3,140.2,0c0,6.2-136.3,2.3-136.3,8.6c0,8.8,149.7-8.3,149.7,0c0,7.1-160,1.2-160,8
						c0,8.1,162.5-7.8,162.5,0c0,7.5-156.8,7.2-156.8,15.1c0,8.9,157.9-8.6,157.9,0c0,6.9-148.6,8.2-148.6,15.1
						c0,8,131.6-7.4,131.6,0"/>
				</g>
			</g>
		</g>
	</g>
	<g id="round_x5F_patches">
		<g id="_x32_x1a_1_" opacity="0.4">
			<g>
				<path fill="none" stroke="#FAFFCD" stroke-linecap="round" stroke-linejoin="round" d="M3.8,73.1c0,0,9.6-8.1,9.6-8.1
					c0.1,0.1-9.6,16.8-9.6,16.8c0.2,0.2,20.1-17.2,20.3-17c0.3,0.4-20.5,26.1-20.3,26.3c0,0,31.1-26.1,31.1-26.1
					c0.5,0.5-18.6,23.6-18.6,23.6c0.3,0.3,18.3-16.4,18.8-15.8c0,0-8.4,13.2-8.2,13.5c0.1,0.1,16.2-15.1,16.9-14.2
					c0,0-6.8,19.4-6.5,19.7c0.3,0.3,13.5-11.3,13.5-11.3c0.3,0.3-47.5,47.3-46.9,48.1C4.5,129.2,67.8,75,67.8,75
					c1.2,1.4-64.5,63-63.3,64.4c1.5,1.8,50-42.5,50.2-42.2c0.6,0.7-25.5,31.2-24.9,31.9c0.2,0.2,39.6-33.2,39.6-33.2
					c1.1,1.4-66.2,63.8-65.4,64.7c0.5,0.6,91.5-77.1,91.7-76.9c0.6,0.7-62.5,64.4-62.4,64.5c0,0,52.8-48,54.6-45.8
					c0.3,0.3-66.7,63.6-66.4,64c1.8,2.2,62.8-52.7,62.8-52.7L4.6,190c0,0,73.2-62.7,73.8-61.9c1,1.2-53.3,56.1-52.2,57.4
					c0.1,0.1,67.1-56.3,67.1-56.3c0.1,0.1-71.3,67-71.1,67.3c1.1,1.3,67.4-56.5,67.4-56.5c0.6,0.8-46.2,47.4-45.5,48.3
					c0,0,69.3-59.5,69.9-58.7c1.4,1.6-86.3,79.7-84.8,81.5c0.3,0.4,99.8-86.2,101-84.7c1.4,1.6-111.9,99.5-109.8,102
					c0.5,0.5,87.2-76.6,88.8-74.6c0,0-92.7,83.9-92.5,84.2c0.2,0.2,82.5-74.3,85-71.3c0.3,0.3-66.2,66-66.2,66s76.5-68.1,78.4-65.8
					c0.1,0.1-72.9,69.8-71.4,71.5c1.1,1.3,91.5-78.8,92.5-77.6c1,1.2-124,114.9-122.6,116.6c0,0,96.4-83,97.4-81.8
					c0.8,1-77.5,76.3-76.1,77.9c0.3,0.4,98.3-85.5,99.8-83.8C135.1,191.5,24.3,294,24.3,294c2.6,3.1,91.1-77,91.3-76.6
					c1.5,1.8-91.6,84.5-90.3,86c0,0,120.4-102.4,121.1-101.6C147.2,202.7,7.5,327,7.5,327c1,1.2,122.9-106.4,124.6-104.5
					c0.4,0.5-90.9,83.6-89.2,85.5c1.1,1.3,86.7-78.6,89.6-75.2c0.4,0.5-113.8,105.5-113.2,106.2c1.9,2.3,119.8-105.2,122.1-102.4
					c1.6,2-130.3,121.1-130.1,121.4c2.7,3.2,132.8-116.3,135.2-113.4c0.9,1.1-134.9,116.4-132.5,119.3c2.2,2.6,114.4-97,114.9-96.4
					c2,2.4-95.7,93.1-95.7,93.1c2.1,2.5,103-92.1,105.8-88.8c2,2.4-102.4,95.7-101.2,97.2c3.2,3.8,89.4-79.3,91.5-76.8
					c0.9,1.1-110.6,99.3-109.8,100.3c0.4,0.5,111.1-93.3,111.1-93.3c1.1,1.4-92.8,88.4-92.6,88.6c0.7,0.8,115.7-100.9,117.6-98.6
					c0.3,0.4-101.1,92.6-100.5,93.3c1,1.1,88.4-75,88.8-74.5c1.8,2.2-121.4,109.4-121.4,109.4c2.2,2.6,128-110.6,129.5-108.7
					c0,0-103.3,97.2-102.8,97.9c1.7,2,100.8-88.4,102.7-86.2c1.5,1.8-84.5,77.2-84.2,77.6c0,0,75.6-66.2,77-64.6
					c1.8,2.1-103.3,95.3-101.2,97.7c1.9,2.3,101.6-85.4,101.7-85.3c0.5,0.6-91.8,86.6-90.7,87.9c1.4,1.7,50-45.4,51.7-43.4
					c0,0-33,38.8-32.6,39.3c0.5,0.6,40.2-35.3,41-34.4c0,0-5,17-4.8,17.2c0.2,0.2,7.4-6.4,7.5-6.3c0.1,0.2-22.3,29.6-21.8,30.1
					c0,0,15.1-12.7,15.1-12.7"/>
			</g>
		</g>
	</g>
</g>
<g id="wall_x5F_shadow" opacity="0.7">
	<rect id="_x32_x1a" x="1.6" y="9.3" opacity="0.4" width="192.1" height="27.7"/>
</g>

<g id="wall_frames">
	<path id="vert_x5F_frame1" fill="#061300" d="M221.6,470.1c-3.6-0.2-7.6,1.8-11.9,0.7c-0.4,0-0.9,0-1.4,0c-8.2,0-22.3,0-22.3,0
		s0-16.4,0-44.6c0-0.6,0-1.3,0-1.9c0-7.5,0-14.5,0-21.3c0-0.8,0-1.5,0-2.3c0-6.6,0-13.6,0-20.9c0-0.5,0-1.1,0-1.6
		c1-6.4-1-12.4,0-18.6c0-0.5,0-0.9,0-1.4s0-0.9,0-1.4c0-0.5,0-1,0-1.4c0-25.5-2-49.5,3-74.5c1-4-3-7-3-10.7c0-0.6,0-1.1,0-1.7
		c0-2.3,0-4.6,0-6.9c0-0.6,0-1.2,0-1.8c0-22.9,0-46.9,0-70.4c-0.1-0.7-0.1-1.3-0.1-1.9c0-224.8,0-501.6,0-501.6h28.1
		c0,0,0,331.3,0,563.5c0,0.6,0,1.2,0,1.8c-1.1,5.8-7.1,8.8-9.1,13.8c4,0,9,0,9,5.3c0,0.6,0.1,1.2,0.1,1.8c0,35.3,0,67.9,0,96
		c0,0.5,0,0.9,0,1.4c-1.1,6.6-0.1,14.6,0,21.9c0,0.8,0,1.6,0,2.5c0,11.3,0,21.6,0,30.7c0,0.7,0,1.3,0,2c-1,4.6,0,10.6,2,15.6
		c2,11-1,21,9,28c-1,0-1,0-1.7,0.1C222.4,470,221.6,470.1,221.6,470.1z"/>
	<g id="vert_x5F_frame1_x5F_tex">
		<g>
			<path fill="none" stroke="#282828" stroke-width="2" stroke-linecap="round" stroke-linejoin="round" d="M186.2,480.6
				c10.7,0-5.1-798.7,0-798.7c11.8,0,7.7,793.9,13,793.9c8.3,0-6.1-787.7,0-787.7c10.8,0,6.6,789.7,13,789.7
				c1.5,0-2.5-204.7,0-204.7"/>
		</g>
	</g>
	<path id="hor_x5F_frame3" fill="#061300" d="M1920-14.2v28.1c0,0-19.2,0-53.8,0c-0.5,0-0.9,0-1.4,0c-75.8-4-150.8,2-226.9,0
		c-0.6,0-1.2,0-2,0c-368.7,0-1007.2,0-1367.8,0c-0.8,0-1.7,0-2.6,0.1c-3.5,1.8-6.5,4.8-7.5,4.8c-19,1-37-6-56,0c-3,1-8-1-11-1
		c-12-1-23,0-35-1c-4,0-8-1-12-1c-16-1-33,1-49-4c-3-1-7,1-11.3,2c-0.5,0-1.1,0.1-1.6,0.1c-52.2,0-82,0-82,0v-28.1
		c0,0,119.3,0,298.3,0c0.8,0.1,1.5,0.2,2.2,0.2c4.5,0.8,8.5,1.8,13.5,0.8c15-3,29-6,43-6c52,0,104,0,156,3c19,2,38,1,56.8,2
		c0.6,0,1.6,0,2.2,0c102.8,0,212.8,0,323.9,0c1.7-0.4,2.5-0.5,3.4-0.6c92.7-5.4,184.7-3.4,277.3,0.6c0.8,0,1.7,0,2.5,0
		C1576-14.2,1920-14.2,1920-14.2z"/>
	<g id="hor_x5F_frame3_x5F_tex">
		<g>
			<path fill="none" stroke="#282828" stroke-width="2" stroke-linecap="round" stroke-linejoin="round" d="M348-18.6
				c0,0.9,91-0.9,91,0C439-14.2-1.1-8-1.1-3.6c0,19.2,1922-19.2,1922,0c0,19.2-1922.4-4.2-1922.4,15c0,19.2,1921.4-19.2,1921.4,0"/>
		</g>
	</g>
	<path id="hor_x5F_frame4" fill="#061300" d="M1916,469.9C1916,469.9,1916,469.8,1916,469.9c0,0-31.4,0-86.2,0c-0.5,0-1.1,0-1.6,0
		c-39.2-1-77.2,3-116.2-1c-25-2-51,0-76,0c-24,0-49,0-72.8,1c-0.5,0-0.9,0-1.4,0c-40,0-82.3,0-126.4,0c-0.5,0-1,0-1.6,0
		c-9.8,0-16.8-3-26.8,0c-6,2-13-4-19-3c-139,8-280,0-420.3,3c-0.4,0-1,0-1.5,0c-132.5,0-265.3,0-388.1,0c-0.6,0-1.2,0-1.8,0
		c-6.3,0-12.3,0-17.9,0c-0.6,0-1.2,0-1.8,0c-0.6,0-1.2,0-1.8,0c-0.6,0-1.2,0-1.8,0c-1,0-3,0-3.6,0c-0.6,0-1.2,0-1.8,0
		c-0.6,0-1.2,0-1.8,0c-0.6,0-1.2,0-1.8,0c-2.1,0-5.1,0-7.1,0c-0.6,0-1.2,0-1.8,0c-0.6,0-1.2,0-1.8,0c-37.5,1-75.5,1-112.7,0
		c-0.5,0-1.1,0-1.7,0c-8.2,0-16.3,0-24.4,0c-0.5,0-1.1,0-1.6,0c-14.1,3-28.1,1-42.6,0c-0.5,0-1,0-1.5,0c-5.1,0-10.3,0-15.3,0
		c-0.5,0-1,0-1.5,0c-13.1,2-27.1-1-40,0c-0.5,0-1,0-1.4,0c-174.8,0-290.7,0-290.7,0v28.1c0,0,172.5,0,413.8,0
		c0.8,0.2,1.4,0.3,2.2,0.5c31,3.4,62-0.6,92-0.6c42,0,84,4,127-1c3,0,6-2,9-2c37,0,76,6,111-4c0,4,3,6,6,7c0.6,0,1.2,0,1.8,0
		c100.2,0,203.4,0,304.9,0c0.6,0,1.2,0,1.8,0c21.5-1,43.5,1,65.3,0c0.6,0,1.2,0,1.8,0s1.2,0,1.8,0s1.2,0,1.8,0c6.8,0,12.8,0,19.8,0
		c0.6,0,1.2,0,1.8,0s1.2,0,1.8,0c2.4,0,5.4,0,7.2,0c0.6,0,1.2,0,1.8,0s1.2,0,1.8,0c27.6,1,54.6-1,81.6-4c3,0,7,1,10,1
		c15-1,31,2,46,2c27,0,55,0,82,1c0.6,0,1.1,0,1.6,0c83.7,0,161.7,0,230.4,0c1.1,0,1.6,0,2.1,0c29.9,0,60.9-4,88.9,7
		c-4-10,11-3,15.3-7c0.5,0,1,0,1.5,0c110.5,0,178.5,0,178.5,0h5.4h2.2v-28H1916z"/>
	<g id="hor_x5F_frame4_x5F_tex">
		<g>
			<path fill="none" stroke="#282828" stroke-width="2" stroke-linecap="round" stroke-linejoin="round" d="M352.2,471
				c0-5.1-354.8,4.6-354.8,0c0-2.8,351.8,4.3,351.8-0.6c0-0.4-18.5,0.4-18.5,0"/>
			<path fill="none" stroke="#282828" stroke-width="2" stroke-linecap="round" stroke-linejoin="round" d="M1736.6,498.7
				c0-0.4-38.9,0.4-38.9,0c0-1.3,210.8-14.7,210.8-16.4c0-10.3-1915.8,22.1-1915.8,0c0-10.4,1938.2,4.6,1938.2-11.9
				c0-1.9-166,2-166,0"/>
		</g>
	</g>
</g>
<g id="text" display="none">
	<rect x="-19.3" y="319.7" display="inline" fill="none" width="569.2" height="274.2"/>
	
		<text transform="matrix(1 0 0 1 253.6499 419.02)" display="inline" opacity="0.8" font-family="'BradyBunchRemastered'" font-size="160">ikora</text>
</g>
</svg>
