<?xml version="1.0" encoding="utf-8"?>
<!-- Generator: Adobe Illustrator 16.0.0, SVG Export Plug-In . SVG Version: 6.00 Build 0)  -->
<!DOCTYPE svg PUBLIC "-//W3C//DTD SVG 1.1//EN" "http://www.w3.org/Graphics/SVG/1.1/DTD/svg11.dtd">
<svg version="1.1" xmlns="http://www.w3.org/2000/svg" xmlns:xlink="http://www.w3.org/1999/xlink" x="0px" y="0px" width="100%"
	 height="100%" viewBox="0 0 652 483.9" enable-background="new 0 0 652 483.9" xml:space="preserve" preserveAspectRatio="xMidYMid meet">

<g id="wall_x5F_fill">
	<rect id="wall_x5F_colour" x="-200" y="-314.1" fill="#D1CEB2" width="1920" height="1080"/>
</g>
<g id="wall_x5F_texture">
	<g id="etchy_x5F_background">
		
		<g id="_x32_x2_x5F_sketchy" opacity="0.2">
			<g>
				<path fill="none" stroke="#323600" stroke-width="3" stroke-linecap="round" stroke-linejoin="round" d="M7,6.3
					c0,0,639.2-30.8,639.2,0C646.2,63.2,7,12.9,7,12.9c0,36.6,639.2-36.2,639.2,0C646.2,52,7-19.2,7,17.9c0,34.7,639.2,0,639.2,0
					L7,23.8c0,12.5,639.2,0,639.2,0S7,8.7,7,29.5c0,31.1,639.2-16.3,639.2,0c0,0-639.2-13.7-639.2,6.8h639.2L7,43.3
					c0,32.4,639.2,0,639.2,0C646.2,68.2,7,49.2,7,49.2s639.2-12.2,639.2,0C646.2,49.2,7,20.2,7,56c0,0,639.2-49.6,639.2,0
					C646.2,74.6,7,28.5,7,62h639.2C646.2,62,7,41.7,7,69c0,0,639.2-9.1,639.2,0C646.2,97.7,7,74.2,7,74.2c0,1.2,639.2,0,639.2,0
					C646.2,113.9,7,79.8,7,79.8c0,22.9,639.2-7.6,639.2,0c0,0-639.2-14.4-639.2,5.7c0,38.5,639.2,0,639.2,0L7,92.2
					c0,0,639.2-21.9,639.2,0C646.2,94.4,7,68,7,98.5c0,52.4,639.2-38.6,639.2,0c0,28.6-639.2,6.1-639.2,6.1h639.2
					c0,0-639.2,2-639.2,5.6c0,0,639.2-55.4,639.2,0c0,40-639.2,5.1-639.2,5.1c0,55.6,639.2-36.2,639.2,0C646.2,142.2,7,122,7,122
					c0,37.3,639.2-36.3,639.2,0c0,15.6-639.2,5.6-639.2,5.6c0,10.7,639.2-52.3,639.2,0C646.2,157.8,7,96,7,133.6
					c0,0,639.2-17.3,639.2,0c0,0-639.2-33.9-639.2,5.5c0,2.3,639.2,0,639.2,0S7,98,7,145.7h639.2C646.2,200,7,152.3,7,152.3
					c0,3.5,639.2-40.4,639.2,0c0,23.7-639.2,6-639.2,6c0,7,639.2-53.2,639.2,0c0,11.9-639.2-39.1-639.2,5.9c0,0,639.2-22.9,639.2,0
					L7,170.4c0,49.7,639.2-45.4,639.2,0c0,0-639.2-18-639.2,5.4h639.2c0,48.3-639.2,6.1-639.2,6.1h639.2c0,0-639.2-5-639.2,6.1
					c0,0,639.2-11.6,639.2,0c0,22.8-639.2-5.5-639.2,5.9c0,29.9,639.2-23.3,639.2,0c0,10.2-639.2-44.7-639.2,5.6
					c0,0,639.2-55.9,639.2,0c0,0-639.2,2.2-639.2,6.4c0,0,639.2-6,639.2,0c0,0-639.2,3.4-639.2,6.5c0,46.7,639.2,0,639.2,0L7,217.8
					c0,20.3,639.2-18.1,639.2,0c0,21.8-639.2,5.5-639.2,5.5s639.2-18.3,639.2,0c0,43.3-639.2,5-639.2,5c0,40.2,639.2,0,639.2,0
					S7,196,7,234.9h639.2c0,20.6-639.2-37.2-639.2,5.7h639.2c0,47-639.2,5.5-639.2,6.5c0,0,639.2-12,639.2,0
					c0,26.2-639.2-36.9-639.2,6.9c0,44.5,639.2-35.2,639.2,0c0,0-639.2-41.5-639.2,6.9h639.2L7,266.7c0,23.8,639.2,0,639.2,0
					c0,28.3-639.2,7-639.2,7c0,45.2,639.2-41.2,639.2,0c0,0-639.2-11.4-639.2,6.5h639.2c0,8.6-639.2-33.8-639.2,6.6
					c0,17.6,639.2-43.2,639.2,0C646.2,321,7,239.7,7,291.9c0,0,639.2-6.2,639.2,0C646.2,340.2,7,298,7,298c0,29.9,639.2,0,639.2,0
					c0,12.2-639.2,6.5-639.2,6.5c0,55.5,639.2,0,639.2,0S7,292.5,7,310.6c0,0,639.2-17.9,639.2,0L7,316c0,23.3,639.2-9.3,639.2,0
					c0,2.1-639.2,5.9-639.2,5.9c0,8.7,639.2,0,639.2,0c0,24.8-639.2,5.7-639.2,5.7h639.2c0,35.6-639.2-45.8-639.2,6.7
					c0,0,639.2-8.3,639.2,0L7,340.2h639.2L7,346.3c0,40.6,639.2,0,639.2,0C646.2,389.7,7,353,7,353h639.2c0,23-639.2-46.2-639.2,6.6
					c0,20.9,639.2-13.1,639.2,0c0,0.3-639.2-3-639.2,6.9c0,0,639.2-49.8,639.2,0c0,0-639.2-38.1-639.2,7h639.2
					c0,7.7-639.2,5.6-639.2,5.6c0,52.9,639.2-56.8,639.2,0L7,385c0,7.2,639.2-38.2,639.2,0c0,0-639.2-9.8-639.2,5.8
					c0,6,639.2-42,639.2,0L7,397.4c0,0,639.2-35.2,639.2,0c0,25.1-639.2-18.7-639.2,5.7c0,49.2,639.2,0,639.2,0S7,405.6,7,408.2
					c0,23.8,639.2,0,639.2,0S7,365.9,7,413.7c0,48.3,639.2,0,639.2,0C646.2,451,7,419.3,7,419.3c0,19.9,639.2,0,639.2,0L7,425.4
					c0,0,639.2-47.2,639.2,0c0,6.1-639.2,6.5-639.2,6.5s639.2-32.5,639.2,0c0,23.4-639.2-42.8-639.2,6.6c0,17.4,639.2,0,639.2,0
					S7,414.6,7,445.2h639.2c0,0-639.2-51-639.2,5.6c0,0,639.2-39.4,639.2,0c0,1.5-639.2,6.6-639.2,6.6c0,50.6,639.2-23.3,639.2,0
					c0,0-639.2-31.4-639.2,6.1c0,46.6,639.2-39.4,639.2,0c0,0-639.2-20.9-639.2,6.4c0,0,639.2-45.4,639.2,0
					c0,13.6-639.2-37.1-639.2,6.1c0,0,639.2-3.5,639.2,0"/>
			</g>
		</g>
		
	</g>
	<g id="panel_x5F_textures">
		<g id="Biege_x5F_texture">
			<g id="_x32_x2" opacity="0.4">
				<g>
					<path fill="none" stroke="#FFFFFF" stroke-linecap="round" stroke-linejoin="round" d="M7.3,478c31.5,0-28.1-470.8,0-470.8
						c22,0-28.5,466.3,8.2,466.3c30.9,0,0-471.5,0-471.5C34.8,2-9.2,471,23.3,471c23.5,0-14.2-464.2,0-464.2
						c31.2,0-12.3,465,8.5,465c18.5,0-17.9-463.7,0-463.7c17.2,0-4.4,465.6,8.9,465.6c0,0-24.7-472.2,0-472.2
						c5.7,0,7.8,477.2,7.8,477.2c12.1,0-1.8-471.9,0-471.9c1.6,0-24.6,467.3,8.7,467.3c32.8,0-10.1-470.4,0-470.4l7.9,469.3
						c15.9,0-17.2-472.2,0-472.2c25.9,0,7.5,476.6,7.5,476.6c30.3,0-21.3-475.2,0-475.2c0,0-28.9,469.2,8,469.2
						c32.6,0-22.6-464.8,0-464.8c23,0,8.4,465.7,8.4,465.7C90.4,472.2,79,3,89.1,3c1.6,0,7.4,468,7.4,468c40.2,0-24.5-464.5,0-464.5
						c3.3,0,4,470.3,8,470.3c0,0-40.9-468.9,0-468.9c17,0,6,470.9,7.6,470.9c22.1,0-13.6-475.9,0-475.9c38.3,0-31.3,472.7,7.9,472.7
						c1.3,0-5.8-473,0-473c11.4,0,8.9,470.3,8.9,470.3c31.8,0,0-471.7,0-471.7c4.6,0,2.8,477.9,8.7,477.9c12.8,0-7.7-472.6,0-472.6
						c22.6,0,7.2,466.6,7.2,466.6c12.1,0,0-463.1,0-463.1s-7.1,469.5,7.3,469.5c20.4,0-39-476.3,0-476.3c12.5,0,7.4,469.1,7.4,469.1
						c17.6,0-33.1-466.8,0-466.8c19,0,4.5,471.5,8.7,471.5c11.4,0-32.2-473.4,0-473.4c15.6,0-0.6,472.5,7,472.5
						c40.2,0-16.3-467.9,0-467.9c25.4,0-31.1,462.6,7.4,462.6c26.3,0-12.9-469.7,0-469.7c35.9,0,7,475.4,7,475.4
						c21.8,0-29.3-471.9,0-471.9c8.8,0,1.1,467.8,8.6,467.8c1.8,0-40.2-468.1,0-468.1c0,0-21.2,469.6,8.3,469.6
						c0,0-16.1-465.7,0-465.7c20,0-12.7,463.5,7.2,463.5c12.8,0-8.7-464.8,0-464.8c19.8,0-11.4,465.9,7.5,465.9
						c9.2,0-26.7-469.1,0-469.1c33.4,0-34.2,469.9,7.4,469.9c15.7,0-27.3-469.8,0-469.8c38.2,0,8.3,470.3,8.3,470.3
						c31.6,0-9.8-471,0-471c28.8,0,8,471.6,8,471.6c8.8,0,0-464.8,0-464.8c0.3,0-17.4,469.3,9,469.3c32.8,0-12.3-471.5,0-471.5
						c23,0-27.9,470.8,8,470.8c8.6,0-22.3-469.4,0-469.4c36.3,0-13.9,469.5,8.5,469.5c17.7,0-35.5-477.3,0-477.3
						c2.9,0-7.1,477.8,8.1,477.8c7.2,0-30.8-477.5,0-477.5c8.7,0,7.2,474.4,7.2,474.4c4.7,0-6.8-474.1,0-474.1
						c32.2,0-10.1,469.3,8.6,469.3c23.9,0-6.8-463.5,0-463.5c29.4,0-32.7,469.4,8.9,469.4c0.8,0-32.9-467.8,0-467.8
						c24.7,0-9.4,465.5,7.4,465.5c2,0-18.1-465.3,0-465.3c2.5,0-23.1,466.1,8.3,466.1c35.4,0,0-471.9,0-471.9
						c18.3,0,3.8,469.8,7.3,469.8c21.4,0-12.5-468.5,0-468.5c31.6,0,7.8,466.7,7.8,466.7s-10.7-468,0-468
						c13.7,0-0.8,475.7,7.4,475.7c38.5,0-5.5-468.9,0-468.9l7.1,461.5c38.1,0-38.2-462.7,0-462.7c22,0,2.9,469.5,8.2,469.5
						c35.3,0-22.9-471.8,0-471.8c21.8,0,7.6,472.4,7.6,472.4c31.9,0-38.8-473.9,0-473.9c33.7,0-27.4,473.6,8.4,473.6
						c1.2,0-18.3-468.9,0-468.9c1.7,0,8.7,462.8,8.7,462.8c8.3,0-6.6-465,0-465c7,0-28.3,463.6,8.5,463.6c12.8,0-4.5-461.2,0-461.2
						c0,0-11.2,462.8,7.9,462.8c36.6,0-32.3-470.2,0-470.2c32.2,0-8.6,472.8,8.4,472.8c24.3,0-27.3-472.2,0-472.2
						c36.1,0-30.1,469.5,7.2,469.5c36.2,0-2.4-465.7,0-465.7c29,0-0.2,470.3,7.3,470.3c0,0-2.9-472.1,0-472.1
						c25.3,0,7.2,472,7.2,472c13,0,0-468.9,0-468.9c26.8,0-12.9,464.4,8.2,464.4c10.6,0-18.1-468.6,0-468.6
						c5.9,0-2.6,475.3,8.8,475.3c16.3,0-31.4-469.1,0-469.1c37.3,0-30,468.4,7.5,468.4c18.3,0-11.4-474.3,0-474.3
						c8.7,0-17.5,474.6,8,474.6c29.2,0-25.1-474,0-474c36.2,0,3,468.4,8.2,468.4c22.3,0-9.2-472.5,0-472.5c35.6,0,5.9,473.9,8,473.9
						c22.5,0,0-473,0-473c40.2,0-34.3,478.7,7.1,478.7c6.5,0-10.5-477.9,0-477.9c40.2,0,8,477.3,8,477.3c25.4,0-8.5-474.6,0-474.6
						c0,0,6.4,472.8,7.4,472.8c27.1,0,0-475.9,0-475.9c17.3,0-23,477.4,7.2,477.4c22.8,0-40.5-471.1,0-471.1c27.4,0,0.9,471,7.2,471
						c27.1,0-40.5-469.9,0-469.9c0,0,7.8,461.2,8.4,461.2c18.3,0-33.3-468.7,0-468.7c35.2,0-13.5,469.5,8.7,469.5
						c0,0-23.3-468.6,0-468.6C565.6,2.8,529,476,539,476c3.9,0,0-470,0-470c37.5,0-32.3,469,8.6,469c36,0-36.4-471.6,0-471.6
						c34.5,0-11.4,471,7.9,471c3,0,0-471.9,0-471.9s-4.7,470.8,7,470.8c42.1,0-15.8-470.3,0-470.3l8.1,471.7c6.5,0,0-467.5,0-467.5
						c5.2,0,1.1,464.6,7.6,464.6c0,0-8.5-467.2,0-467.2c10.9,0-11.9,473.2,8.6,473.2c20.5,0-8-473.3,0-473.3
						c0,0-16.5,467.3,8.8,467.3c35.6,0-15.1-461.5,0-461.5c0,0,6,461.4,7.8,461.4c6.7,0-34.8-462.3,0-462.3
						c35.2,0-19.5,464.1,8.7,464.1c29,0-40.3-465.4,0-465.4c0.5,0,5.5,470.6,7.6,470.6c5.5,0-35.9-473.1,0-473.1l7.8,470
						c12.6,0,0-467.2,0-467.2c7.9,0-13.3,463.5,8.1,463.5c19.7,0-41.2-461.8,0-461.8c34.8,0-4.5,467.1,8,467.1
						c41.3,0-14.4-472.3,0-472.3"/>
				</g>
			</g>
			
		</g>
		<g id="colour_x5F_texture">
			<g id="_x32_x2blue_x5F_a">
				<g>
					<path fill="none" stroke="#8EB0BC" stroke-linecap="round" stroke-linejoin="round" d="M22.6,402.8c0,26.4,613-30.7,613,0
						c0,27-613.4-17.7-613.4,10.1c0,28.8,597-29.1,597,0c0,27-593.1-18.7-593.1,8.6c0,31.2,606.5-29.3,606.5,0
						c0,27.2-616.8-18-616.8,8c0,28.6,619.3-27.3,619.3,0c0,29.4-613.6-15.4-613.6,15.1c0,31.4,614.7-30.3,614.7,0
						c0,28-605.4-12.8-605.4,15.1c0,28,588.4-26,588.4,0c0,26.8-582.8-11.8-582.8,15.5c0,29.4,591.6-31.1,591.6,0"/>
				</g>
			</g>
			<g id="_x32_x2yellow_x5F_a">
				<g>
					<path fill="none" stroke="#DDC04A" stroke-linecap="round" stroke-linejoin="round" d="M576.3,459.9c19.5,0-22.6-444.9,0-444.9
						c19.6,0-10.1,445.4,10.1,445.4c21.2,0-21.5-429,0-429c19.4,0-11,425,8.6,425c23,0-21.6-438.5,0-438.5
						c19.8,0-10.9,448.8,8,448.8c21,0-20.1-451.2,0-451.2c21.4,0-7.1,445.6,15.1,445.6c23.1,0-22.3-446.7,0-446.7
						c20.2,0-5,437.4,15.1,437.4c20.6,0-19.1-420.4,0-420.4c19.1,0-7.8,414.8,11.7,414.8c21.7,0-22.9-423.6,0-423.6"/>
				</g>
			</g>
		</g>
	</g>
	<g id="round_x5F_patches">
		<path id="_x32_x2b_1_" opacity="0.2" fill="#FAFFCD" d="M619.5,162.4c0-33.9,20.5-59.7-32.5-78.7c-37-13.3-140.9-25.2-191-25.2
			c-45.7,0-233.8-24.7-269-13.4c-58.7,18.7-61.8,277-61.8,313c0,81.3,175.1,41.3,231.7,46c32,2.7,22.4-22.3,83.3-22.3
			c35.3,0,167.4-6.7,197-13.7C649.7,351,619.5,203.3,619.5,162.4z"/>
		<g id="_x32_x2a_2_" opacity="0.4">
			<g>
				<path fill="none" stroke="#FAFFCD" stroke-linecap="round" stroke-linejoin="round" d="M144.6,405.1c0.1-0.2-19.5-7-19.4-7.1
					c0,0,18.8,0.9,18.9,0.5c0.2-0.4-4.2-0.5-3.9-1.4c0,0-0.2-6.2-0.2-6.2c0.4-1.2-0.8,0.3-0.6-0.2c0.2-0.5,21.5,0.7,21.5,0.5
					c0.6-1.8-47.2-17.2-47.2-17.2c0.2-0.5,74.2,19.5,74.4,18.8c1-2.7-41.5-13-40.8-14.9c0.4-1.2,83,21.3,83.6,19.8
					c0.4-1.1-89.7-28.3-88.3-32.1c0.7-1.9,151.8,49.4,153.1,45.7c0,0-167.3-59.1-166.7-60.7c1.2-3.2,167.6,57.4,168.7,54.2
					c0.1-0.2-201.7-67.6-199.9-72.7c0.5-1.4,231.5,82.8,233.2,78.1c0,0-240.9-81.6-238.9-87c0.4-1.1,268.8,87.2,269.1,86.5
					c2.2-6.1-262.9-95.7-262.9-95.7c1.7-4.6,274.5,93.2,276,89.2c1.3-3.7-258.8-93.5-258.6-94.1c2-5.4,249.3,84.7,249.3,84.7
					S111.7,310,114.4,302.6c2.5-6.8,279.4,96.4,279.5,96.1c2-5.4-286.2-102.6-285.7-104c0.1-0.3,317.4,104,317.4,104
					c2.4-6.6-320.1-116-319.9-116.4c0.4-1.1,319.7,108.2,319.9,107.7c1.2-3.3-334-114.6-331.8-120.8c0.7-1.9,316,113.8,317.8,108.9
					c0.9-2.4-296.8-102.9-295.2-107.4c2.4-6.5,322.3,116.3,324.4,110.3c0,0-340.5-118.6-338.8-123.3
					c1.4-3.9,347.3,120.7,347.3,120.7c1.9-5.1-358.2-121.9-355.5-129.4c1.9-5.2,347.5,124.5,350.4,116.7
					c0.9-2.5-336.7-120.1-335.9-122.3c2.4-6.6,360.8,124.8,362,121.5c0.9-2.4-335.1-114-332.5-121c0.5-1.4,331,117,332.6,112.7
					c1.8-5-326.2-116.2-325.4-118.4c0.3-0.7,318.9,110.5,320.5,106.1c2.5-7-363.3-128.2-362-131.8c0,0,373.1,128.4,374.1,125.8
					c1.4-3.9-348-117-344.9-125.5c2.2-5.9,333,119.8,336,111.5c1.1-3.1-319-110.9-317.3-115.5c0,0,350.1,121.1,351.7,116.8
					c1.9-5.3-376.4-137-376.4-137c2.3-6.4,359.7,119.9,359.7,119.9S147.3,195,150.5,186.3c1.8-5,355.8,132.9,358.8,124.7
					c3.5-9.6-375.3-135.6-375-136.5c2.5-6.9,387.4,140.2,388.9,136c2.7-7.3-416.2-149.2-415.4-151.2c0,0,393.6,133.7,393.6,133.5
					c0,0-357.1-125.1-355.5-129.4c2.5-6.9,379.7,139.1,382.4,131.6c3.8-10.5-408.8-140-405.9-147.8c2.2-6,410.3,150.1,412.9,143
					c3.5-9.6-401.7-138.5-399.2-145.3c0,0,416.4,147.1,418.1,142.4c1.5-4.1-422.3-152-421.8-153.5c0.7-2,405.3,139.8,406.5,136.6
					c2.9-8-390-141.3-389.8-141.9c1.3-3.5,358.8,130.9,361.6,123.2c1.2-3.3-354-128.8-354-128.8c3-8.3,370.7,129.2,371.7,126.4
					c1.1-3.1-344.9-125.2-344.7-125.5c0.7-2,324.5,111.7,325,110.2c0.3-0.8-324.2-109.6-321.5-117c0.9-2.4,346.6,125.5,348.6,120.1
					c2.8-7.6-333.4-116.7-331.9-120.8c0.6-1.8,335.7,118.1,337.2,113.8c1.1-2.9-317-109.5-315.1-114.7
					c2.5-6.8,296.8,101.8,297,101.2c0,0-262.6-91.2-261.2-95.1c1.1-2.9,266.9,93.1,267.5,91.5c0.6-1.7-289.1-101.4-287.9-104.8
					c0.7-1.9,267.4,87.9,267.5,87.8c0,0-239.8-81.3-237.9-86.6c2-5.5,232.6,81.3,233.7,78.3c2.1-5.8-229-78.6-227.5-82.8
					c1.6-4.5,205.6,68.6,205.9,67.6c0.8-2.1-194.8-70.9-194.8-70.9s212.4,74.5,214.3,69.3c1.2-3.2-187.5-68.3-187.5-68.3
					c1-2.8,162.7,52.3,163.5,50.1c0.1-0.2-110.7-40.3-110.7-40.3s128.6,40.1,128.9,39.2c0.5-1.3-132.4-43.9-131-47.7
					c0.4-1.1,93.6,28.9,94.1,27.6c0.8-2.1-97.5-35.5-97.5-35.5c0.6-1.6,103.1,33.7,103.7,32.1c0.8-2.1-72.8-26.5-72.8-26.5
					c0.3-0.7,64.7,17.6,65.2,16.2c0.2-0.5-11.1-3.8-11-4"/>
			</g>
		</g>
	</g>
</g>
<g id="wall_x5F_shadow" opacity="0.7">
	<rect id="_x32_x2a_1_" x="6.2" y="5.5" opacity="0.4" width="638.8" height="31.5"/>
	<rect id="_x32_x2b" x="6.2" y="13.9" opacity="0.2" width="38.8" height="459.4"/>
	<rect id="_x32_x2a" x="6.2" y="13.9" opacity="0.4" width="24" height="457"/>
</g>

<g id="wall_frames">
	<path id="vert_x5F_frame1" fill="#061300" d="M21.6,470.1c-3.6-0.2-7.6,1.8-11.9,0.7c-0.4,0-0.9,0-1.4,0c-8.2,0-22.3,0-22.3,0
		s0-16.4,0-44.6c0-0.6,0-1.3,0-1.9c0-7.5,0-14.5,0-21.3c0-0.8,0-1.5,0-2.3c0-6.6,0-13.6,0-20.9c0-0.5,0-1.1,0-1.6
		c1-6.4-1-12.4,0-18.6c0-0.5,0-0.9,0-1.4s0-0.9,0-1.4c0-0.5,0-1,0-1.4c0-25.5-2-49.5,3-74.5c1-4-3-7-3-10.7c0-0.6,0-1.1,0-1.7
		c0-2.3,0-4.6,0-6.9c0-0.6,0-1.2,0-1.8c0-22.9,0-46.9,0-70.4c-0.1-0.7-0.1-1.3-0.1-1.9c0-224.8,0-501.6,0-501.6h28.1
		c0,0,0,331.3,0,563.5c0,0.6,0,1.2,0,1.8C13,256.9,7,259.9,5,264.9c4,0,9,0,9,5.3c0,0.6,0.1,1.2,0.1,1.8c0,35.3,0,67.9,0,96
		c0,0.5,0,0.9,0,1.4c-1.1,6.6-0.1,14.6,0,21.9c0,0.8,0,1.6,0,2.5c0,11.3,0,21.6,0,30.7c0,0.7,0,1.3,0,2c-1,4.6,0,10.6,2,15.6
		c2,11-1,21,9,28c-1,0-1,0-1.7,0.1C22.4,470,21.6,470.1,21.6,470.1z"/>
	<g id="vert_x5F_frame1_x5F_tex">
		<g>
			<path fill="none" stroke="#282828" stroke-width="2" stroke-linecap="round" stroke-linejoin="round" d="M5.5,278.7
				c7,0-8.7-588.6,0-588.6"/>
			<path fill="none" stroke="#282828" stroke-width="2" stroke-linecap="round" stroke-linejoin="round" d="M-13.8,480.6
				c10.7,0-5.1-798.7,0-798.7c11.8,0,7.7,793.9,13,793.9c8.3,0-6.1-787.7,0-787.7c10.8,0,6.6,789.7,13,789.7
				c1.5,0-2.5-204.7,0-204.7"/>
		</g>
	</g>
	<path id="hor_x5F_frame3" fill="#061300" d="M1720-14.2v28.1c0,0-19.2,0-53.8,0c-0.5,0-0.9,0-1.4,0c-75.8-4-150.8,2-226.9,0
		c-0.6,0-1.2,0-2,0c-368.7,0-1007.2,0-1367.8,0c-0.8,0-1.7,0-2.6,0.1C62,15.9,59,18.9,58,18.9c-19,1-37-6-56,0c-3,1-8-1-11-1
		c-12-1-23,0-35-1c-4,0-8-1-12-1c-16-1-33,1-49-4c-3-1-7,1-11.3,2c-0.5,0-1.1,0.1-1.6,0.1c-52.2,0-82,0-82,0v-28.1
		c0,0,119.3,0,298.3,0c0.8,0.1,1.5,0.2,2.2,0.2c4.5,0.8,8.5,1.8,13.5,0.8c15-3,29-6,43-6c52,0,104,0,156,3c19,2,38,1,56.8,2
		c0.6,0,1.6,0,2.2,0c102.8,0,212.8,0,323.9,0c1.7-0.4,2.5-0.5,3.4-0.6c92.7-5.4,184.7-3.4,277.3,0.6c0.8,0,1.7,0,2.5,0
		C1376-14.2,1720-14.2,1720-14.2z"/>
	<g id="hor_x5F_frame3_x5F_tex">
		<g>
			<path fill="none" stroke="#282828" stroke-width="2" stroke-linecap="round" stroke-linejoin="round" d="M148-18.6
				c0,0.9,91-0.9,91,0c0,4.4-440.1,10.6-440.1,15c0,19.2,1922-19.2,1922,0c0,19.2-1922.4-4.2-1922.4,15c0,19.2,1921.4-19.2,1921.4,0
				"/>
		</g>
	</g>
	<path id="hor_x5F_frame4" fill="#061300" d="M1716,469.9C1716,469.9,1716,469.8,1716,469.9c0,0-31.4,0-86.2,0c-0.5,0-1.1,0-1.6,0
		c-39.2-1-77.2,3-116.2-1c-25-2-51,0-76,0c-24,0-49,0-72.8,1c-0.5,0-0.9,0-1.4,0c-40,0-82.3,0-126.4,0c-0.5,0-1,0-1.6,0
		c-9.8,0-16.8-3-26.8,0c-6,2-13-4-19-3c-139,8-280,0-420.3,3c-0.4,0-1,0-1.5,0c-132.5,0-265.3,0-388.1,0c-0.6,0-1.2,0-1.8,0
		c-6.3,0-12.3,0-17.9,0c-0.6,0-1.2,0-1.8,0c-0.6,0-1.2,0-1.8,0c-0.6,0-1.2,0-1.8,0c-1,0-3,0-3.6,0c-0.6,0-1.2,0-1.8,0
		c-0.6,0-1.2,0-1.8,0c-0.6,0-1.2,0-1.8,0c-2.1,0-5.1,0-7.1,0c-0.6,0-1.2,0-1.8,0c-0.6,0-1.2,0-1.8,0c-37.5,1-75.5,1-112.7,0
		c-0.5,0-1.1,0-1.7,0c-8.2,0-16.3,0-24.4,0c-0.5,0-1.1,0-1.6,0c-14.1,3-28.1,1-42.6,0c-0.5,0-1,0-1.5,0c-5.1,0-10.3,0-15.3,0
		c-0.5,0-1,0-1.5,0c-13.1,2-27.1-1-40,0c-0.5,0-1,0-1.4,0c-174.8,0-290.7,0-290.7,0v28.1c0,0,172.5,0,413.8,0
		c0.8,0.2,1.4,0.3,2.2,0.5c31,3.4,62-0.6,92-0.6c42,0,84,4,127-1c3,0,6-2,9-2c37,0,76,6,111-4c0,4,3,6,6,7c0.6,0,1.2,0,1.8,0
		c100.2,0,203.4,0,304.9,0c0.6,0,1.2,0,1.8,0c21.5-1,43.5,1,65.3,0c0.6,0,1.2,0,1.8,0s1.2,0,1.8,0s1.2,0,1.8,0c6.8,0,12.8,0,19.8,0
		c0.6,0,1.2,0,1.8,0s1.2,0,1.8,0c2.4,0,5.4,0,7.2,0c0.6,0,1.2,0,1.8,0s1.2,0,1.8,0c27.6,1,54.6-1,81.6-4c3,0,7,1,10,1
		c15-1,31,2,46,2c27,0,55,0,82,1c0.6,0,1.1,0,1.6,0c83.7,0,161.7,0,230.4,0c1.1,0,1.6,0,2.1,0c29.9,0,60.9-4,88.9,7
		c-4-10,11-3,15.3-7c0.5,0,1,0,1.5,0c110.5,0,178.5,0,178.5,0h5.4h2.2v-28H1716z"/>
	<g id="hor_x5F_frame4_x5F_tex">
		<g>
			<path fill="none" stroke="#282828" stroke-width="2" stroke-linecap="round" stroke-linejoin="round" d="M944,470.1
				c0-5.3-620.3,4-620.3,0c0-8.6,603,4.8,603-0.4c0-1.7-156.9,0.9-156.9,0"/>
			<path fill="none" stroke="#282828" stroke-width="2" stroke-linecap="round" stroke-linejoin="round" d="M152.2,471
				c0-5.1-354.8,4.6-354.8,0c0-2.8,351.8,4.3,351.8-0.6c0-0.4-18.5,0.4-18.5,0"/>
			<path fill="none" stroke="#282828" stroke-width="2" stroke-linecap="round" stroke-linejoin="round" d="M1536.6,498.7
				c0-0.4-38.9,0.4-38.9,0c0-1.3,210.8-14.7,210.8-16.4c0-10.3-1915.8,22.1-1915.8,0c0-10.4,1938.2,4.6,1938.2-11.9
				c0-1.9-166,2-166,0"/>
		</g>
	</g>
	<path id="vert_x5F_frame2" fill="#061300" d="M638-314.1v1.5v0.9c0,0,0,3,0,8.7c0,0.5,0,1.1,0,1.6c9,33.3-7,68.3,1,104.3
		c1,7,1,13-1,20.1c0,0.4,0,1,0,1.5c0,107.9,0,266,0,422c0,0.6,0,1.2,0,1.7c0,3.7,6,5.7,5,7.7c-9,22-3,51-5.1,74.6
		c0.1,0.6,0.1,1.2,0.1,1.8c0,0.6,0,1.1,0,1.7c0,2,0,5,0,6.8c0,0.6,0,1.1,0,1.7c0,28.2,0,56,0,83c0,0.5,0,1.1,0,1.6
		c-2,13.9,3,27.9,0,41.4c0,0.5,0,1,0,1.6c0,21.7,0,42.8,0,63c0,0.5,0.1,0.9,0.1,1.4c0,2.6,0,6.6,0,9.3c0,0.4,0,0.9,0,1.3
		c0,5.3,0,10.5,0,15.7c0,0.6,0,1.3,0,1.9c0,10.3,0,20.3,0,30.1c0,0.6,0,1.2,0,1.8c0,0.6,0,1.2,0,1.8c3,45.6-1,90.6-5,136.6
		c0,1,3,5,4.9,7.6c0.1,0.7,0.1,1.2,0.1,1.7c0,15.6,0,24.2,0,24.2H666c0,0,0-49.1,0-126.3c0-0.6,0-1.2,0-2.2c5-45-9-95,6.7-136.7
		c-0.4-0.6-0.9-1.2-1.3-1.8c-5.2-7.3-9.7-15.8-5.6-24c0-0.6,0.1-1.2,0.2-1.8c0-319.3,0-785.3,0-785.3v-1v-1.3H638z"/>
	<g id="vert_x5F_frame2_x5F_tex">
		<g>
			<path fill="none" stroke="#282828" stroke-width="2" stroke-linecap="round" stroke-linejoin="round" d="M638.5,241.3
				c5.8,0-3.7-420.2,0-420.2c3.4,0,0.5,424.7,4.1,424.7c7.9,0-6.4-557.3,0-557.3"/>
			<path fill="none" stroke="#282828" stroke-width="2" stroke-linecap="round" stroke-linejoin="round" d="M638.1,433.7
				c1.1,0-0.6-111,0-111c1.4,0-1.2,118.9,0.4,118.9c1,0-1.5-172,0-172"/>
			<path fill="none" stroke="#282828" stroke-width="2" stroke-linecap="round" stroke-linejoin="round" d="M638.5,594.7
				c2.1,0-1.6-137,0-137c0.8,0-1.2,138.1,0.1,138.1c1,0-0.9-136.5,0-136.5"/>
			<path fill="none" stroke="#282828" stroke-width="2" stroke-linecap="round" stroke-linejoin="round" d="M633.5,724.3
				c0,0-0.1-10.5,0-10.5c0.4,0,18.9,42.5,19.4,42.5c10.9,0-11.4-1068.7,0-1068.7c11.3,0-1.7,1067.6,10.1,1067.6
				c14.8,0-11.6-1071.2,0-1071.2c9.7,0-5.2,1074.1,2.5,1074.1c1.9,0-1.5-196.5,0-196.5"/>
		</g>
	</g>
</g>
<g id="text" display="none">
	<rect x="-219.3" y="319.7" display="inline" fill="none" width="569.2" height="274.2"/>
	
		<text transform="matrix(1 0 0 1 53.6499 419.02)" display="inline" opacity="0.8" font-family="'BradyBunchRemastered'" font-size="160">ikora</text>
	<rect x="187.8" y="-116.2" display="inline" fill="none" width="421.9" height="274.2"/>
	
		<text transform="matrix(1 0 0 1 403.1563 -61.5112)" display="inline" opacity="0.7" font-family="'BradyBunchRemastered'" font-size="88">works</text>
</g>
</svg>
