<?xml version="1.0" encoding="utf-8"?>
<!-- Generator: Adobe Illustrator 16.0.0, SVG Export Plug-In . SVG Version: 6.00 Build 0)  -->
<!DOCTYPE svg PUBLIC "-//W3C//DTD SVG 1.1//EN" "http://www.w3.org/Graphics/SVG/1.1/DTD/svg11.dtd">
<svg version="1.1" xmlns="http://www.w3.org/2000/svg" xmlns:xlink="http://www.w3.org/1999/xlink" x="0px" y="0px"  viewBox="0 0 540 484" enable-background="new 0 0 540 484" xml:space="preserve" preserveAspectRatio="xMinYMid meet">

<g id="wall_x5F_fill">
	<rect id="wall_x5F_colour" x="-852" y="-314" fill="#D1CEB2" width="1920" height="1080"/>
</g>

<g id="window">
	<rect id="Window_x5F_grey_x5F_back4" x="6.8" y="5.7" fill="#686565" width="133.2" height="470"/>
	<rect id="Window_x5F_grey_x5F_back3" x="420.1" y="5.7" fill="#686565" width="113.1" height="470"/>
	<rect id="Window_x5F_grey_x5F_back2" x="140" y="5.7" fill="#827C7C" width="117.7" height="470"/>
	<rect id="Window_x5F_grey_x5F_back1" x="280.9" y="5.7" fill="#969090" width="116.1" height="470"/>
	<g id="Window_x5F_black_x5F_etchy">
		<g>
			<path fill="none" stroke="#16130B" stroke-width="4" stroke-linecap="round" stroke-linejoin="round" d="M3.8,478.2
				c16.8,0-15.7-469.5,0-469.5c12.6,0-15,476.3,5.4,476.3C27.6,485-6.2,0.2,9.1,0.2C26,0.2-2,486.4,13.8,486.4
				c18.7,0-19.3-482.6,0-482.6c18.4,0-9,476.4,5.1,476.4c18.4,0-20.8-479.6,0-479.6c12.6,0-8.9,477.7,5.3,477.7
				c13.1,0-20.8-481.5,0-481.5c17.7,0-7.7,478.9,4.7,478.9c21,0-20.8-475.5,0-475.5c14.7,0-12.9,481.6,4.8,481.6
				c16.9,0-13.7-473.6,0-473.6c14.8,0-8.3,476,4.8,476c19.1,0-13.2-487.3,0-487.3c12.6,0-16.2,480.9,4.6,480.9
				c19.3,0-16.4-471.1,0-471.1c15,0-10.2,479.1,5,479.1c20.9,0-17.7-478.1,0-478.1c19.7,0-9.2,469.7,5.1,469.7
				c13.7,0-16.1-479.6,0-479.6c12.7,0-15.4,484.3,5.5,484.3c16.3,0-16.4-481.5,0-481.5c21.3,0-8.4,480.7,4.7,480.7
				c19.3,0-16.2-472.1,0-472.1c19.6,0-12.2,472.6,5.3,472.6c18.8,0-13.1-473.6,0-473.6c16.3,0-12.6,474.5,5.5,474.5
				c13.6,0-19.8-472.5,0-472.5c14.2,0-11.2,469.4,4.6,469.4c19.2,0-18-476,0-476c14,0-13,481,4.8,481c13.8,0-14.2-488.2,0-488.2
				c21.1,0-13.2,488.8,4.7,488.8c17.7,0-17.4-486.1,0-486.1c14.8,0-9.8,485.8,5.3,485.8c13.2,0-12-475.3,0-475.3
				c12,0-7.1,474.7,5.4,474.7c19.2,0-14.9-487,0-487c17.3,0-7.8,481.2,5.4,481.2c15.6,0-12.9-479.1,0-479.1
				c17,0-10.7,478.3,5.4,478.3c16.8,0-17.9-480.3,0-480.3c18.7,0-16.3,488.6,4.7,488.6c13.7,0-12.1-483.9,0-483.9
				c18.8,0-8.8,480.2,5.4,480.2c17.7,0-21-482,0-482c20.7,0-10.9,480.1,4.7,480.1c13.2,0-14.7-471.2,0-471.2
				c17.8,0-11.2,473.4,5.2,473.4c19.7,0-14.2-476.5,0-476.5c19.6,0-13.8,472.3,4.6,472.3c18.9,0-14.5-477.9,0-477.9
				c20.1,0-12.7,482.2,5.1,482.2c12.3,0-13.8-479.5,0-479.5c18,0-9.3,479.9,5.3,479.9c17.3,0-20.9-479.4,0-479.4
				c20.7,0-13.2,481.5,5.3,481.5c12.7,0-16.9-477.6,0-477.6c21,0-7.3,477,4.7,477c12.4,0-20.4-479.6,0-479.6
				c17.6,0-10.3,482.5,4.9,482.5c21,0-15.5-480.8,0-480.8c16.5,0-10.8,471,5.3,471c16.1,0-17.7-471.6,0-471.6
				c17.9,0-12,468.5,5,468.5c17.2,0-20.9-469.5,0-469.5c13,0-16.1,470.8,5,470.8c19.6,0-13.1-478.6,0-478.6
				c16,0-15.7,483.9,5.4,483.9c13,0-20.7-475.3,0-475.3c14.8,0-10.4,478.6,5.4,478.6c19.9,0-14.5-482,0-482
				c21.2,0-11.1,478.8,4.6,478.8c16.1,0-16.4-479,0-479c16.9,0-16.8,480,4.6,480c17,0-13.5-476.7,0-476.7
				c15.9,0-14.6,478.4,4.7,478.4c16,0-13.7-484,0-484c13.5,0-13.3,483.8,5.4,483.8c14.9,0-17.2-475,0-475c14,0-16,465.5,4.5,465.5
				c21.5,0-20.4-477.1,0-477.1c18.5,0-14.9,485.5,4.6,485.5c16.1,0-12.6-484.5,0-484.5c15.2,0-7.5,480.6,5.2,480.6
				c12.3,0-16.9-475.6,0-475.6c16.7,0-15.1,480.6,4.9,480.6c13.1,0-19.1-485.7,0-485.7c15.8,0-14.6,479.8,5.1,479.8
				c17.8,0-20.2-473.8,0-473.8c19.5,0-15.2,479.1,4.9,479.1c16.3,0-13-484.8,0-484.8c13.7,0-11.6,483,5.2,483
				c16,0-12.2-482.4,0-482.4c20.4,0-12.7,483.5,5.1,483.5c18,0-20.9-484,0-484c19.2,0-13.8,484.7,5.2,484.7c18.2,0-21.4-481,0-481
				c18.9,0-10.1,472.7,4.9,472.7c20.6,0-16.4-477.2,0-477.2c15.9,0-15.6,483,4.8,483c20.9,0-20.5-472.2,0-472.2
				c15.6,0-13.9,466.2,4.8,466.2c19.4,0-14.3-476.2,0-476.2c19,0-14.1,484.2,4.8,484.2c15,0-15.8-480.2,0-480.2
				c16.5,0-9.5,478.3,5.4,478.3c19.8,0-14-476.5,0-476.5c15.6,0-9.6,470.8,5.3,470.8c20.4,0-18.9-470.5,0-470.5
				c15.3,0-10.6,480,5.1,480c16.4,0-19.9-485,0-485c20.7,0-13,484.6,4.6,484.6c16.4,0-13.4-476.5,0-476.5
				c18.1,0-10.4,472.8,4.6,472.8c12.3,0-19.3-481,0-481c16.9,0-13.7,488.6,4.6,488.6c18,0-19-490.1,0-490.1
				c21.3,0-14.5,484.3,4.8,484.3c19.5,0-18-475.1,0-475.1c20,0-10.8,476.3,5.1,476.3c15.9,0-12-482.8,0-482.8
				c16.9,0-8.2,478.2,5.4,478.2c15.5,0-19.8-482,0-482c19.7,0-10.2,480.1,5.1,480.1c19.8,0-15.3-466.9,0-466.9
				c19.5,0-13.4,474.5,5.2,474.5c12.9,0-14.6-481.4,0-481.4c19.3,0-16.3,483.7,5.2,483.7c19.1,0-19.7-485.9,0-485.9
				c15.6,0-7.6,480.3,4.8,480.3c20.4,0-17.4-472.1,0-472.1c19,0-9.6,475.4,4.7,475.4c13.6,0-20.1-488,0-488
				c18.6,0-15.8,481.1,4.9,481.1c17.1,0-16.4-473.3,0-473.3c13.5,0-8.3,479.3,4.5,479.3c14.7,0-12.8-478.7,0-478.7
				c19.7,0-13.6,479.9,5.2,479.9c16.3,0-18.5-482.6,0-482.6c12.9,0-12.6,481.8,4.8,481.8c20.3,0-19.7-475.6,0-475.6
				c16.8,0-10.2,479.1,5.3,479.1c15.8,0-20.7-481.3,0-481.3c19,0-12.1,476.9,5,476.9c21.4,0-21.4-483.1,0-483.1
				c14.9,0-13.9,485.9,5.1,485.9c19.8,0-17.3-481.5,0-481.5c14.7,0-13.2,482.8,5.2,482.8c14.5,0-20.5-478.7,0-478.7
				c12.9,0-7.6,468.5,4.8,468.5c19.2,0-16.7-473.3,0-473.3c18.3,0-9.1,472.8,5,472.8c13.4,0-14.8-478.3,0-478.3
				c20.3,0-15.4,479.5,4.8,479.5c14.6,0-15-469.9,0-469.9c15.7,0-7.2,477.3,5.4,477.3c17.5,0-18.7-485.9,0-485.9
				c15.2,0-15.7,483.7,5.4,483.7c17.5,0-15.9-482.3,0-482.3c13.7,0-16.6,480.6,4.5,480.6c17.4,0-17.9-484.1,0-484.1
				c20.5,0-13.1,478.4,5.3,478.4c12.2,0-14.8-469.8,0-469.8c12.4,0-11.1,472.5,5.1,472.5c17.2,0-16-477.5,0-477.5
				c17.7,0-15.3,485.8,4.6,485.8c12.5,0-13.1-485.6,0-485.6c21.1,0-15.3,482.1,5.3,482.1c13.1,0-16.6-473.8,0-473.8
				c15.5,0-10.2,465.7,5,465.7c17.7,0-14.2-472.9,0-472.9c19.9,0-12.6,472.2,4.9,472.2c18.2,0-18-468.1,0-468.1
				c12.9,0-7.1,468.8,5.3,468.8c14.3,0-20.3-466.2,0-466.2c13.4,0-7.3,469.9,5,469.9c14.8,0-15-478.7,0-478.7
				c13.7,0-12.4,480,4.6,480c14.5,0-21.3-478.9,0-478.9c15.3,0-9.9,473.1,5.1,473.1c19.3,0-15.6-476.2,0-476.2
				c21.2,0-8.7,481.4,5.4,481.4c18.1,0-17.7-480.2,0-480.2c21,0-16,488.7,4.6,488.7c14.3,0-14-489.2,0-489.2
				c19.3,0-14,477.3,5.3,477.3c18.8,0-12.8-469.5,0-469.5c18.4,0-9.2,469,5,469c12.4,0-19.3-478.6,0-478.6
				c21.4,0-16.2,477.2,5.2,477.2c21,0-21.4-474.1,0-474.1c21.1,0-12.7,486.5,5,486.5c20.2,0-16.3-485.8,0-485.8
				c12.3,0-15.4,485.9,4.8,485.9c13.3,0-20.8-485.9,0-485.9c16.1,0-10.9,475.5,4.5,475.5c19.4,0-20.8-468.7,0-468.7
				c16.4,0-14.3,477,5,477c17.1,0-14.9-487.7,0-487.7c17.5,0-12.8,484.5,5.3,484.5c15.6,0-16.8-472.1,0-472.1
				c12.5,0-7.4,467.6,5.4,467.6c20.1,0-18.6-477.1,0-477.1c18.7,0-15.1,476.1,5.4,476.1c21.1,0-21.1-466.7,0-466.7
				c15.3,0-11.8,466.2,4.7,466.2c12,0-13.8-468.5,0-468.5c14.8,0-15.2,471.1,5.3,471.1c13.5,0-18.4-478.2,0-478.2
				c15.4,0-7.7,477.8,4.9,477.8c18.1,0-12.7-477.4,0-477.4"/>
		</g>
	</g>
	<g id="Grey_x5F_bars">
		<rect id="stripe1" x="46.4" y="4.3" fill="#231E1B" width="6.7" height="475.9"/>
		<rect id="stripe2" x="85" y="4.3" fill="#42403F" width="6.7" height="474.9"/>
		<rect id="stripe3" x="104.7" y="4.3" fill="#42403F" width="6.7" height="475.6"/>
		<rect id="stripe4" x="472" y="5.7" fill="#42403F" width="6.7" height="473.6"/>
		<rect id="stripe5" x="133.7" y="4.3" fill="#2B2826" width="6.7" height="475.2"/>
		<rect id="stripe6" x="81.7" y="4.3" fill="#2B2826" width="6.7" height="474.9"/>
		<rect id="stripe7" x="164.3" y="4.3" fill="#2B2826" width="6.7" height="475.6"/>
		<rect id="stripe8" x="199" y="4.3" fill="#2B2826" width="6.7" height="474.9"/>
		<rect id="stripe9" x="254.3" y="5.2" fill="#2B2826" width="6.7" height="474"/>
		<rect id="stripe10" x="303.7" y="5.2" fill="#2B2826" width="6.7" height="474"/>
		<rect id="stripe11" x="353.7" y="5.2" fill="#2B2826" width="6.7" height="474"/>
		<rect id="stripe12" x="412.3" y="5.2" fill="#2B2826" width="6.7" height="474"/>
		<rect id="stripe13" x="459.3" y="7.4" fill="#2B2826" width="6.7" height="471.9"/>
		<rect id="stripe14" x="439" y="5.2" fill="#2B2826" width="6.7" height="474"/>
		<rect id="stripe15" x="489.3" y="6.5" fill="#2B2826" width="6.7" height="472.7"/>
		<rect id="stripe16" x="56.7" y="4.3" opacity="0.3" width="8.8" height="474.9"/>
	</g>
	<g id="shadows">
		<rect id="W6" x="17.5" y="378.3" opacity="0.2" width="506.5" height="60.2"/>
		<rect id="W5" x="16.4" y="380.3" opacity="0.4" width="507.6" height="20"/>
		<polygon id="W4" opacity="0.2" points="524.5,191 270.1,191 16.4,191 16.4,134.8 524.5,134.8 		"/>
		<rect id="W3" x="16.4" y="137.8" opacity="0.4" width="508.2" height="16.2"/>
		<rect id="W2" x="16.4" y="13.8" opacity="0.25" width="509.3" height="23.3"/>
		<rect id="W1" x="16.4" y="13.8" opacity="0.25" width="509.3" height="13.5"/>
		<polygon id="WL4" opacity="0.3" points="174,378.3 17.5,441 17.5,376.5 		"/>
		<polygon id="WL3" opacity="0.2" points="123.5,246.4 62.2,209.5 17.5,274.8 20.6,128 		"/>
		<polygon id="WL2" opacity="0.25" points="62.6,182 17.5,214.3 17.5,131 		"/>
		<polygon id="WR_x5F_1" opacity="0.35" points="523.3,133.1 522.3,180 412.3,277 329.5,348 		"/>
		<rect id="WL_x5F_1" x="16.4" y="135.6" opacity="0.4" width="33.3" height="225.1"/>
	</g>
	<g id="Bars">
		<rect id="opening_x5F_slit_x5F_shade" x="262.1" y="6.4" width="15.9" height="472.8"/>
		<polygon id="vent_x5F_bar2" points="523.3,134.9 523.6,145.1 324.8,358 275.5,358 483.3,134.8 		"/>
		<polygon id="vent_x5F_bar3" points="16.4,145.8 216.2,357.6 265.5,357.4 56.5,135.2 16.4,135.2 		"/>
		<rect id="vent_x5F_bar4" x="16.4" y="355" width="509" height="33"/>
		<g id="bar_x5F_texture_x5F_3">
			<g>
				<path fill="none" stroke="#211F1A" stroke-width="2" stroke-linecap="round" stroke-linejoin="round" d="M41.1,130
					c-3.2,3,218.1,228,215.2,230.7C254.4,362.5,37,131.6,34.4,134c-2,1.8,217,229.2,215.3,230.9C247.2,367.1,25.8,141,24.2,142.4
					c-2,1.9,209.8,219,206.9,221.8"/>
			</g>
		</g>
		<g id="bar_x5F_texture_x5F_2">
			<g>
				<path fill="none" stroke="#211F1A" stroke-width="2" stroke-linecap="round" stroke-linejoin="round" d="M281.9,362.8
					c1.7,1.6,112.9-124.2,114.5-122.8c0.9,0.9-106.5,122.7-105.2,123.9c2,1.9,220.2-239.7,222-238c2.4,2.3-204.7,237.2-203.1,238.6
					c2.1,1.9,209.4-230.7,212.5-227.8"/>
			</g>
		</g>
		<rect id="vent_x5F_bar1" x="15.5" y="110" width="509.9" height="33"/>
		<g id="bar_x5F_texture_x5F_1">
			<g>
				<path fill="none" stroke="#26241D" stroke-width="2" stroke-linecap="round" stroke-linejoin="round" d="M15.9,116.3
					c0,7,506.6-6.5,506.6,0c0,4-508.2,1.9-508.2,7.6c0,4.4,513.5-3.9,513.5,0c0,5.5-514.3,9.7-514.3,13.2c0,4.6,512.7-6.9,512.7,0"
					/>
			</g>
		</g>
		<g id="bar_x5F_texture_x5F_4">
			<g>
				<path fill="none" stroke="#211F1A" stroke-width="2" stroke-linecap="round" stroke-linejoin="round" d="M16.7,366
					c0,7,505.7-6.5,505.7,0c0,4-507.4,2-507.4,7.6c0,4.4,512.6-3.9,512.6,0c0,5.4-513.4,8.7-513.4,12.1c0,4.6,511.8-6.9,511.8,0"/>
			</g>
		</g>
	</g>
	<g id="lights">
		<rect id="vent_x5F_light_x5F_1" x="15.5" y="37.1" opacity="5.000000e-002" fill="#E5E18C" width="509.9" height="16.2"/>
		<rect id="vent_x5F_light_x5F_2" x="16.4" y="53.3" opacity="2.000000e-002" fill="#E5E18C" width="509" height="10.7"/>
		<path opacity="0.2" fill="#E5E18C" d="M16.4,111.8v2.6h251.4c0-0.9,0-1.6,0-2.6H16.4z"/>
		<path opacity="0.2" fill="#E5E18C" d="M526,111.8H272.3c0,1,0,1.7,0,2.6H526V111.8z"/>
		<polygon id="vent_x5F_light_x5F_4" opacity="0.17" fill="#E5E18C" points="469.6,158.6 276.6,363.3 274.1,363.3 470.3,154.3 		"/>
		<polygon id="vent_x5F_light_x5F_5" opacity="0.17" fill="#E5E18C" points="264.6,363.3 115.2,203.9 106.5,191 267.1,363.3 		"/>
		<rect id="vent_x5F_light_x5F_6" x="36.5" y="357.6" opacity="0.1" fill="#E5E18C" width="22.3" height="6.2"/>
		<path id="vent_x5F_light_x5F_7" opacity="0.15" fill="#E5E18C" d="M58.8,357.4v6.4h162.5c-2.2-2.6-3.4-4-5.1-6.2L58.8,357.4z"/>
		<path id="vent_x5F_light_x5F_8" opacity="0.1" fill="#E5E18C" d="M524,357.4H325.3c-1.7,1.9-2.8,3.6-5.3,6.4h204V357.4z"/>
		<path id="vent_x5F_light_x5F_9" opacity="7.000000e-002" fill="#E5E18C" d="M524.5,357.4h-135c0,1.9-8.6,4.3-8.6,6.4h143.7V357.4z
			"/>
	</g>
	<rect id="opening_x5F_slit" x="267.8" y="14" width="4.4" height="455.8"/>
	<g id="Guides_1_" display="none">
	</g>
</g>

<g id="wall_frames">
	<path id="hor_x5F_frame3" fill="#061300" d="M1068-14V14c0,0-19.2,0-53.8,0c-0.5,0-0.9,0-1.4,0C937,10,862,16,785.9,14
		c-0.6,0-1.2,0-2,0c-368.7,0-1007.2,0-1367.8,0c-0.8,0-1.7,0-2.6,0.1C-590,16-593,19-594,19c-19,1-37-6-56,0c-3,1-8-1-11-1
		c-12-1-23,0-35-1c-4,0-8-1-12-1c-16-1-33,1-49-4c-3-1-7,1-11.3,2c-0.5,0-1.1,0.1-1.6,0.1c-52.2,0-82,0-82,0V-14
		c0,0,119.3,0,298.3,0c0.8,0.1,1.5,0.2,2.2,0.2C-547-13-543-12-538-13c15-3,29-6,43-6c52,0,104,0,156,3c19,2,38,1,56.8,2
		c0.6,0,1.6,0,2.2,0c102.8,0,212.8,0,323.9,0c1.7-0.4,2.5-0.5,3.4-0.6C140-20,232-18,324.7-14c0.8,0,1.7,0,2.5,0
		C724-14,1068-14,1068-14z"/>
	<g id="hor_x5F_frame3_x5F_tex">
		<g>
			<path fill="none" stroke="#282828" stroke-width="2" stroke-linecap="round" stroke-linejoin="round" d="M-504-18.5
				c0,0.9,91-0.9,91,0c0,4.4-440.1,10.6-440.1,15c0,19.2,1922-19.2,1922,0c0,19.2-1922.4-4.2-1922.4,15c0,19.2,1921.4-19.2,1921.4,0
				"/>
		</g>
	</g>
	<path id="hor_x5F_frame4" fill="#061300" d="M1064,470C1064,470,1064,470,1064,470c0,0-31.4,0-86.2,0c-0.5,0-1.1,0-1.6,0
		c-39.2-1-77.2,3-116.2-1c-25-2-51,0-76,0c-24,0-49,0-72.8,1c-0.5,0-0.9,0-1.4,0c-40,0-82.3,0-126.4,0c-0.5,0-1,0-1.6,0
		c-9.8,0-16.8-3-26.8,0c-6,2-13-4-19-3c-139,8-280,0-420.3,3c-0.4,0-1,0-1.5,0c-132.5,0-265.3,0-388.1,0c-0.6,0-1.2,0-1.8,0
		c-6.3,0-12.3,0-17.9,0c-0.6,0-1.2,0-1.8,0c-0.6,0-1.2,0-1.8,0c-0.6,0-1.2,0-1.8,0c-1,0-3,0-3.6,0c-0.6,0-1.2,0-1.8,0
		c-0.6,0-1.2,0-1.8,0c-0.6,0-1.2,0-1.8,0c-2.1,0-5.1,0-7.1,0c-0.6,0-1.2,0-1.8,0c-0.6,0-1.2,0-1.8,0c-37.5,1-75.5,1-112.7,0
		c-0.5,0-1.1,0-1.7,0c-8.2,0-16.3,0-24.4,0c-0.5,0-1.1,0-1.6,0c-14.1,3-28.1,1-42.6,0c-0.5,0-1,0-1.5,0c-5.1,0-10.3,0-15.3,0
		c-0.5,0-1,0-1.5,0c-13.1,2-27.1-1-40,0c-0.5,0-1,0-1.4,0c-174.8,0-290.7,0-290.7,0V498c0,0,172.5,0,413.8,0
		c0.8,0.2,1.4,0.3,2.2,0.5c31,3.4,62-0.6,92-0.6c42,0,84,4,127-1c3,0,6-2,9-2c37,0,76,6,111-4c0,4,3,6,6,7c0.6,0,1.2,0,1.8,0
		c100.2,0,203.4,0,304.9,0c0.6,0,1.2,0,1.8,0c21.5-1,43.5,1,65.3,0c0.6,0,1.2,0,1.8,0s1.2,0,1.8,0s1.2,0,1.8,0c6.8,0,12.8,0,19.8,0
		c0.6,0,1.2,0,1.8,0s1.2,0,1.8,0c2.4,0,5.4,0,7.2,0c0.6,0,1.2,0,1.8,0s1.2,0,1.8,0c27.6,1,54.6-1,81.6-4c3,0,7,1,10,1
		c15-1,31,2,46,2c27,0,55,0,82,1c0.6,0,1.1,0,1.6,0c83.7,0,161.7,0,230.4,0c1.1,0,1.6,0,2.1,0c29.9,0,60.9-4,88.9,7
		c-4-10,11-3,15.3-7c0.5,0,1,0,1.5,0c110.5,0,178.5,0,178.5,0h5.4h2.2v-28H1064z"/>
	<g id="hor_x5F_frame4_x5F_tex">
		<g>
			<path fill="none" stroke="#282828" stroke-width="2" stroke-linecap="round" stroke-linejoin="round" d="M561.4,469.9
				c0-1.1-99.3,0.9-99.3,0c0-0.7,71.4-1.5,71.4-2.5c0-0.1-3.2,0.1-3.2,0"/>
			<path fill="none" stroke="#282828" stroke-width="2" stroke-linecap="round" stroke-linejoin="round" d="M292,470.2
				c0-5.3-620.3,4-620.3,0c0-8.6,603,4.8,603-0.4c0-1.7-156.9,0.9-156.9,0"/>
			<path fill="none" stroke="#282828" stroke-width="2" stroke-linecap="round" stroke-linejoin="round" d="M884.6,498.9
				c0-0.4-38.9,0.4-38.9,0c0-1.3,210.8-14.7,210.8-16.4c0-10.3-1915.8,22.1-1915.8,0c0-10.4,1938.2,4.6,1938.2-11.9
				c0-1.9-166,2-166,0"/>
		</g>
	</g>
	<path id="vert_x5F_frame3" d="M554,484H526c0,0,0-140.7,0-303.9c0-0.8,0-1.5,0-2.3c0-18.8,0-38.8,0-57.9c0-0.6,0-1.6,0-3.3
		c0-52.3,0-105.2,0-155.3c0-0.8,0-1.6,0-2.4c-2-17.9-1.8-179.6,0-240.7c0-0.7,0-1.4,0-3c0-18.6,0-29.2,0-29.2H554
		c0,0,0,311.7,0,545.5c0,1.7,0,2.6,0,3.2c0,31.1,0,61.9,0,92.6c0,1.1,0,2.1,0,3.2c-1,40.6,0,81.6,0,123c0.1,0.6,0,2.3,0,3.2
		C554,474.2,554,484,554,484z"/>
	<g id="vert_x5F_frame3_x5F_tex">
		<g>
			<path fill="none" stroke="#282828" stroke-width="2" stroke-linecap="round" stroke-linejoin="round" d="M526.2,493.3
				c9.7,0-7.6-804.3,0-804.3c10.3,0,16.2,801.1,20.7,801.1c9.5,0-6.5-805.1,0-805.1c5.2,0-7.1,809.2,1,809.2
				c8.1,0-7.1-809.8,0-809.8"/>
		</g>
	</g>
	<path id="vert_x5F_frame2" fill="#061300" d="M-14-314v1.5v0.9c0,0,0,3,0,8.7c0,0.5,0,1.1,0,1.6C-5-268-21-233-13-197
		c1,7,1,13-1,20.1c0,0.4,0,1,0,1.5c0,107.9,0,266,0,422c0,0.6,0,1.2,0,1.7c0,3.7,6,5.7,5,7.7c-9,22-3,51-5.1,74.6
		c0.1,0.6,0.1,1.2,0.1,1.8c0,0.6,0,1.1,0,1.7c0,2,0,5,0,6.8c0,0.6,0,1.1,0,1.7c0,28.2,0,56,0,83c0,0.5,0,1.1,0,1.6
		c-2,13.9,3,27.9,0,41.4c0,0.5,0,1,0,1.6c0,21.7,0,42.8,0,63c0,0.5,0.1,0.9,0.1,1.4c0,2.6,0,6.6,0,9.3c0,0.4,0,0.9,0,1.3
		c0,5.3,0,10.5,0,15.7c0,0.6,0,1.3,0,1.9c0,10.3,0,20.3,0,30.1c0,0.6,0,1.2,0,1.8c0,0.6,0,1.2,0,1.8c3,45.6-1,90.6-5,136.6
		c0,1,3,5,4.9,7.6c0.1,0.7,0.1,1.2,0.1,1.7c0,15.6,0,24.2,0,24.2H14c0,0,0-49.1,0-126.3c0-0.6,0-1.2,0-2.2c5-45-9-95,6.7-136.7
		c-0.4-0.6-0.9-1.2-1.3-1.8c-5.2-7.3-9.7-15.8-5.6-24c0-0.6,0.1-1.2,0.2-1.8c0-319.3,0-785.3,0-785.3v-1v-1.3H-14z"/>
	<g id="vert_x5F_frame2_x5F_tex">
		<g>
			<path fill="none" stroke="#282828" stroke-width="2" stroke-linecap="round" stroke-linejoin="round" d="M13.5,531.8
				c0.4,0-0.6-49.1,0-49.1c0.5,0,1,33.3,1.4,33.3c0.4,0-0.4-32.4,0-32.4c0.2,0,3.3,13.7,3.5,13.7c0.1,0-0.1-5.1,0-5.1
				c0,0,1.8,0.8,1.8,0.8c0,0,0-3.2,0-3.2"/>
			<path fill="none" stroke="#282828" stroke-width="2" stroke-linecap="round" stroke-linejoin="round" d="M12.7,470.1
				c7.5,0-11-785.2,0-785.2c6,0-10.6,781.5,0.8,781.5c4.2,0-6.5-781.5,0-781.5"/>
			<path fill="none" stroke="#282828" stroke-width="2" stroke-linecap="round" stroke-linejoin="round" d="M-18.5,724.5
				c0,0-0.1-10.5,0-10.5c0.4,0,18.9,42.5,19.4,42.5c10.9,0-11.4-1068.7,0-1068.7c11.3,0-1.7,1067.6,10.1,1067.6
				c14.8,0-11.6-1071.2,0-1071.2c9.7,0-5.2,1074.1,2.5,1074.1c1.9,0-1.5-196.5,0-196.5"/>
		</g>
	</g>
</g>
<g id="text" display="none">
	<rect x="395.1" y="45.6" display="inline" fill="none" width="421.9" height="274.2"/>
	
		<text transform="matrix(1 0 0 1 608.293 106.5063)" display="inline" opacity="0.7" font-family="'BradyBunchRemastered'" font-size="98">vision</text>
</g>
</svg>
