<?xml version="1.0" encoding="utf-8"?>
<!-- Generator: Adobe Illustrator 16.0.0, SVG Export Plug-In . SVG Version: 6.00 Build 0)  -->
<!DOCTYPE svg PUBLIC "-//W3C//DTD SVG 1.1//EN" "http://www.w3.org/Graphics/SVG/1.1/DTD/svg11.dtd">
<svg version="1.1" xmlns="http://www.w3.org/2000/svg" xmlns:xlink="http://www.w3.org/1999/xlink" x="0px" y="0px" width="100%"
	 height="100%" viewBox="0 0 468 483.9" enable-background="new 0 0 468 483.9" xml:space="preserve" preserveAspectRatio="xMidYMid meet">

<g id="wall_x5F_fill">
	<rect id="wall_x5F_colour" x="-1392" y="-314.1" fill="#D1CEB2" width="1920" height="1080"/>
</g>
<g id="wall_x5F_texture">
	<g id="etchy_x5F_background">
		
		<g id="_x32_x4_x5F_sketchy" opacity="0.2">
			<g>
				<path fill="none" stroke="#323600" stroke-width="3" stroke-linecap="round" stroke-linejoin="round" d="M8.3,8.3
					c0,0,454-21.9,454,0c0,40.4-454,6.6-454,6.6c0,26,454-25.7,454,0c0,27.8-454-21.4-454,5c0,24.6,454,0,454,0l-454,5.9
					c0,8.9,454,0,454,0s-454-9.1-454,5.7c0,22.1,454-11.6,454,0c0,0-454-7.8-454,6.8h454l-454,7c0,23,454,0,454,0
					c0,17.7-454,5.9-454,5.9s454-8.6,454,0c0,0-454-18.7-454,6.8c0,0,454-35.2,454,0c0,13.2-454-17.8-454,6.1h454
					c0,0-454-12.4-454,6.9c0,0,454-6.4,454,0c0,20.4-454,5.2-454,5.2c0,0.8,454,0,454,0c0,28.2-454,5.6-454,5.6
					c0,16.2,454-5.4,454,0c0,0-454-8.6-454,5.7c0,27.3,454,0,454,0l-454,6.7c0,0,454-15.6,454,0c0,1.6-454-15.3-454,6.3
					c0,37.2,454-27.4,454,0c0,20.3-454,6.1-454,6.1h454c0,0-454,3.1-454,5.6c0,0,454-39.4,454,0c0,28.4-454,5.1-454,5.1
					c0,39.5,454-25.7,454,0c0,19.2-454,6.7-454,6.7c0,26.5,454-25.8,454,0c0,11-454,5.6-454,5.6c0,7.6,454-37.1,454,0
					c0,21.5-454-20.6-454,6c0,0,454-12.3,454,0c0,0-454-22.5-454,5.5c0,1.6,454,0,454,0s-454-27.4-454,6.6h454
					c0,38.6-454,6.5-454,6.5c0,2.5,454-28.7,454,0c0,16.8-454,6-454,6c0,5,454-37.8,454,0c0,8.5-454-26.1-454,5.9
					c0,0,454-16.2,454,0l-454,6.2c0,35.3,454-32.3,454,0c0,0-454-11.2-454,5.4h454c0,34.3-454,6.1-454,6.1h454c0,0-454-1.8-454,6.1
					c0,0,454-8.2,454,0c0,16.2-454-2.2-454,5.9c0,21.3,454-16.6,454,0c0,7.3-454-30.1-454,5.6c0,0,454-39.7,454,0
					c0,0-454,3.4-454,6.4c0,0,454-4.3,454,0c0,0-454,4.3-454,6.5c0,33.2,454,0,454,0l-454,5.4c0,14.4,454-12.8,454,0
					c0,15.5-454,5.5-454,5.5s454-13,454,0c0,30.7-454,5-454,5c0,28.6,454,0,454,0s-454-21.1-454,6.5h454c0,14.6-454-24.8-454,5.7
					h454c0,33.4-454,5.8-454,6.5c0,0,454-8.6,454,0c0,18.6-454-24.2-454,6.9c0,31.6,454-25,454,0c0,0-454-27.5-454,6.9h454l-454,5.6
					c0,16.9,454,0,454,0c0,20.1-454,7-454,7c0,32.1,454-29.3,454,0c0,0-454-6.2-454,6.5h454c0,6.1-454-22.1-454,6.6
					c0,12.5,454-30.7,454,0c0,24.3-454-31.9-454,5.1c0,0,454-4.4,454,0c0,34.3-454,6.1-454,6.1c0,21.2,454,0,454,0
					c0,8.6-454,6.5-454,6.5c0,39.4,454,0,454,0s-454-6.7-454,6.2c0,0,454-12.7,454,0L8.4,318c0,16.6,454-6.6,454,0
					c0,1.5-454,5.9-454,5.9c0,6.2,454,0,454,0c0,17.6-454,5.7-454,5.7h454c0,25.3-454-30.6-454,6.7c0,0,454-5.9,454,0l-454,6h454
					l-454,6.1c0,28.8,454,0,454,0c0,30.8-454,6.7-454,6.7h454c0,16.3-454-30.9-454,6.6c0,14.8,454-9.3,454,0c0,0.2-454-0.1-454,6.9
					c0,0,454-35.4,454,0c0,0-454-25-454,7h454c0,5.5-454,5.6-454,5.6c0,37.6,454-40.3,454,0L8.4,387c0,5.1,454-27.1,454,0
					c0,0-454-5.3-454,5.8c0,4.2,454-29.8,454,0l-454,6.5c0,0,454-25,454,0c0,17.8-454-11.6-454,5.7c0,34.9,454,0,454,0
					s-454,3.2-454,5.1c0,16.9,454,0,454,0s-454-28.5-454,5.6c0,34.3,454,0,454,0c0,26.5-454,5.5-454,5.5c0,14.2,454,0,454,0
					l-454,6.2c0,0,454-33.5,454,0c0,4.3-454,6.5-454,6.5s454-23,454,0c0,16.6-454-28.5-454,6.6c0,12.3,454,0,454,0
					s-454-15.1-454,6.6h454c0,0-454-34.6-454,5.6c0,0,454-28,454,0c0,1.1-454,6.6-454,6.6c0,35.9,454-16.6,454,0
					c0,0-454-20.6-454,6.1c0,33.1,454-28,454,0c0,0-454-13-454,6.4c0,0,454-32.3,454,0c0,9.6-454-24.6-454,6.1c0,0,454-2.5,454,0"/>
			</g>
		</g>
		
	</g>
	<g id="panel_x5F_textures">
		<g id="Biege_x5F_texture">
			
			<g id="_x32_x4" opacity="0.4">
				<g>
					<path fill="none" stroke="#FFFFFF" stroke-linecap="round" stroke-linejoin="round" d="M8.6,478c31.4,0-28-469.4,0-469.4
						c22,0-28.4,465,8.2,465c30.8,0,0-470.2,0-470.2C36.1,3.4-7.8,471,24.7,471c23.5,0-14.2-462.9,0-462.9
						c31.1,0-12.2,463.7,8.5,463.7c18.5,0-17.8-462.4,0-462.4c17.1,0-4.4,464.3,8.9,464.3c0,0-24.7-470.9,0-470.9
						c5.7,0,7.8,475.9,7.8,475.9c12,0-1.8-470.6,0-470.6c1.6,0-24.5,465.9,8.7,465.9C91.4,474.1,48.6,5,58.6,5l7.9,467.9
						c15.9,0-17.1-470.9,0-470.9c25.8,0,7.5,475.2,7.5,475.2c30.2,0-21.3-473.8,0-473.8c0,0-28.8,467.9,8,467.9
						c32.5,0-22.6-463.5,0-463.5c22.9,0,8.4,464.4,8.4,464.4c1.3,0-10.1-467.9,0-467.9C92,4.3,97.8,471,97.8,471
						c40.1,0-24.4-463.2,0-463.2c3.3,0,4,469,8,469c0,0-40.8-467.5,0-467.5c17,0,6,469.6,7.6,469.6c22,0-13.6-474.5,0-474.5
						c38.2,0-31.2,471.4,7.9,471.4c1.3,0-5.8-471.6,0-471.6c11.4,0,8.9,469,8.9,469c31.7,0,0-470.4,0-470.4
						c4.5,0,2.9,476.6,8.7,476.6c12.8,0-7.7-471.2,0-471.2c22.5,0,7.2,465.2,7.2,465.2c12.1,0,0-461.8,0-461.8s-7,468.2,7.3,468.2
						c20.4,0-38.9-474.9,0-474.9c12.5,0,7.4,467.7,7.4,467.7c17.6,0-33-465.5,0-465.5c18.9,0,4.5,470.2,8.7,470.2
						c11.4,0-32.1-472.1,0-472.1c15.6,0-0.6,471.2,7,471.2c40,0-16.2-466.5,0-466.5c25.4,0-31,461.3,7.4,461.3
						c26.2,0-12.8-468.4,0-468.4c35.8,0,7,474,7,474c21.8,0-29.2-470.6,0-470.6c8.8,0,1.2,466.4,8.6,466.4c1.8,0-40.1-466.8,0-466.8
						c0,0-21.2,468.3,8.3,468.3c0,0-16.1-464.4,0-464.4c20,0-12.6,462.2,7.2,462.2c12.7,0-8.7-463.5,0-463.5
						c19.8,0-11.4,464.6,7.5,464.6c9.2,0-26.6-467.8,0-467.8c33.3,0-34.1,468.5,7.4,468.5c15.7,0-27.2-468.5,0-468.5
						c38.1,0,8.3,469,8.3,469c31.5,0-9.7-469.7,0-469.7c28.7,0,8,470.3,8,470.3c8.7,0,0-463.5,0-463.5c0.3,0-17.4,467.9,9,467.9
						c32.7,0-12.3-470.2,0-470.2c22.9,0-27.8,469.5,8,469.5c8.6,0-22.2-468.1,0-468.1c36.2,0-13.9,468.2,8.5,468.2
						c17.6,0-35.4-476,0-476c2.9,0-7.1,476.5,8.1,476.5c7.2,0-30.7-476.1,0-476.1c8.7,0,7.2,473.1,7.2,473.1
						c4.7,0-6.8-472.8,0-472.8c32.1,0-10.1,468,8.6,468c23.9,0-6.7-462.2,0-462.2c29.3,0-32.6,468.1,8.9,468.1
						c0.8,0-32.8-466.5,0-466.5c24.6,0-9.3,464.1,7.4,464.1c2,0-18-464,0-464c2.5,0-23.1,464.8,8.3,464.8c35.3,0,0-470.5,0-470.5
						c18.3,0,3.8,468.5,7.3,468.5c21.4,0-12.4-467.1,0-467.1c31.5,0,7.8,465.4,7.8,465.4s-10.7-466.6,0-466.6
						c13.7,0-0.8,474.4,7.4,474.4c38.4,0-5.4-467.6,0-467.6l7.1,460.2c38,0-38.1-461.4,0-461.4c21.9,0,2.9,468.2,8.2,468.2
						c35.2,0-22.9-470.5,0-470.5c21.8,0,7.6,471,7.6,471c31.8,0-38.7-472.6,0-472.6c33.6,0-27.3,472.3,8.4,472.3
						c1.2,0-18.2-467.6,0-467.6c1.7,0,8.7,461.5,8.7,461.5c8.3,0-6.5-463.7,0-463.7c7,0-28.2,462.2,8.5,462.2
						c12.8,0-4.4-459.9,0-459.9c0,0-11.2,461.4,7.9,461.4c36.5,0-32.2-468.9,0-468.9c32.1,0-8.6,471.5,8.4,471.5
						c24.2,0-27.2-470.9,0-470.9c36,0-30,468.1,7.2,468.1c36.1,0-2.4-464.4,0-464.4c28.9,0-0.2,468.9,7.3,468.9
						c0,0-2.9-470.8,0-470.8c25.2,0,7.2,470.7,7.2,470.7c13,0,0-467.5,0-467.5c26.8,0-12.8,463.1,8.2,463.1
						c10.6,0-18.1-467.3,0-467.3c5.9,0-2.5,474,8.8,474c16.2,0-31.3-467.8,0-467.8c37.2,0-29.9,467.1,7.5,467.1
						c18.2,0-11.4-473,0-473"/>
				</g>
			</g>
		</g>
		<g id="colour_x5F_texture">
			<g id="_x32_x4blue_x5F_a">
				<g>
					<path fill="none" stroke="#8EB0BC" stroke-linecap="round" stroke-linejoin="round" d="M86.3,459.9c19.4,0-22.5-443.3,0-443.3
						c19.5,0-10,443.7,10.1,443.7c21.2,0-21.4-427.3,0-427.3c19.3,0-10.9,423.4,8.6,423.4c22.9,0-21.5-436.8,0-436.8
						c19.7,0-10.9,447.1,8,447.1c21,0-20.1-449.6,0-449.6c21.3,0-7,443.9,15.1,443.9c23,0-22.3-445,0-445
						c20.1,0-8.7,435.7,11.3,435.7c20.5,0-19.1-418.7,0-418.7"/>
				</g>
			</g>
			<g id="_x32_x4yellow_x5F_a">
				<g>
					<path fill="none" stroke="#DDC04A" stroke-linecap="round" stroke-linejoin="round" d="M24,398.6c0,18.6,424.6-21.6,424.6,0
						c0,18.7-425-9.2-425,10.1c0,20.3,408.6-20.5,408.6,0c0,18.4-404.7-10-404.7,8.6c0,22,418.1-20.6,418.1,0
						c0,18.9-428.4-10.1-428.4,8c0,20.1,430.9-19.3,430.9,0c0,20.4-425.2-6.1-425.2,15.1c0,22.1,426.3-21.4,426.3,0
						c0,19.3-417-4.1-417,15.1c0,19.7,400-18.3,400,0c0,18.2-394.5-3-394.5,15.5c0,20.7,403.2-21.9,403.2,0"/>
				</g>
			</g>
		</g>
	</g>
	<g id="round_x5F_patches">
		<path id="_x32_x4b_1_" opacity="0.2" fill="#FAFFCD" d="M398,154.1c0-33.9,13.1-96.8-37-96.8c-45.7,0-128.8-11.2-164,0
			c-58.7,18.7-87,306.8-87,342.8c0,81.3,200.4,25.2,257,30c32,2.7,32-9.3,58-54.4c17.6-30.6,20.9-86.8,18-117.1
			C439,217.2,398,195,398,154.1z"/>
		<g id="_x32_x4a_1_" opacity="0.3">
			<g>
				<path fill="none" stroke="#FAFFCD" stroke-width="2" stroke-linecap="round" stroke-linejoin="round" d="M366.8,96.7
					c0,0,9.8,7.4,9.4,7.9c-0.5,0.6-36.4-23.8-37.3-22.7c-0.1,0.1,66.3,49.5,63.3,53.1c-0.4,0.4-108-85.5-109.7-83.4
					C287,58,402.4,143.1,402,143.5c-7.1,8.5-124.8-102.7-129.2-97.4c-3.3,4,126.6,103.4,125.2,105.1
					c-3.4,4.1-121.4-106.2-127.3-99.2c-6.1,7.2,155.1,123.3,151.7,127.3c-1.7,2-169.5-141.6-174-136.2
					c-3.8,4.6,167.5,126.4,160.5,134.7c-4.7,5.5-168.9-143.5-174-137.5c-9.3,11,196.5,144.9,186.7,156.6
					C421.4,197.2,234.3,29,224.1,41.1c-2.2,2.7,188.7,152.7,185.9,156c-9.8,11.7-182.8-154.6-186.9-149.7
					c-4.2,5,201.9,159.4,196.9,165.2c-2,2.4-187.9-170.5-198.5-157.9c-3.4,4,202.1,168.6,201.6,169.1
					c-12.6,15-230.7-188.2-232-186.6C180.6,49.9,417.5,226.2,417,226.8c-0.3,0.4-225.7-202.2-235.6-190.3
					c-5.7,6.8,247.6,183.5,235.7,197.8c-9.3,11.1-217.9-187.7-226-178.2c-5.7,6.8,234.5,177.1,224.8,188.6
					c-8.8,10.5-249.6-209-253.3-204.5c-6,7.1,252.5,206.1,249.7,209.5C398.8,265.9,155.5,38.9,152,43.1
					c-2.8,3.3,262.6,202.4,253.8,212.9C404.9,257,178,51.2,168.4,62.7c-2.2,2.6,256.7,205.1,251.6,211.1
					C409.3,286.7,153.6,25.9,139,43.3c-9.1,10.8,269,216.8,264.6,222C390.8,280.6,136.7,28.5,124.4,43.2
					c-3.8,4.5,306.4,226,291.1,244.2c-2.7,3.2-267-240-278.3-226.6C126.4,73.6,407.7,269,398.4,280.1C382.5,299,131.6,44.5,122.9,55
					c-14.4,17.2,297.5,217,281.4,236.1c-2,2.4-262.8-227.6-271.6-217.1C129.9,77.3,422.3,294,411,307.5
					C395.8,325.6,122,63.6,117,69.6c-7.4,8.8,294,245.4,293.3,246.1C400.6,327.4,100.8,62.1,99.2,64c-5.1,6.1,301,249.5,299.5,251.3
					c-1.9,2.3-286.5-237.1-290-232.9C102.4,90,421.9,329.2,414,338.5C398.3,357.4,114.1,57.8,96.9,78.3
					c-2.6,3,318.6,242.1,306.2,256.9C387.6,353.7,97.6,75.5,92.7,81.4C87.9,87.1,411.4,322,398.2,337.8
					C384.2,354.4,105,86.9,98,95.2c-8.5,10.1,319.4,241.5,306.4,257.1c-13.4,16-306.3-254.9-310.5-250
					c-12.3,14.7,314.5,251,308.1,258.5c-13,15.5-299-268-313.3-250.9c-0.6,0.7,317.2,247.3,307.9,258.4
					C379,389.4,93,89.1,75.6,109.8c-11.5,13.7,317.2,265.6,316.9,265.9c-0.8,1-312.1-279.8-324.9-264.5
					c-8.3,9.9,333.8,262.8,325.3,273C382.5,396.6,94.8,108.4,78.6,127.7c-10.5,12.5,309.8,238,299,250.9
					C364.3,394.5,69.1,97.3,53.9,115.4c-0.1,0.1,343.3,261.9,330.4,277.3C382.5,394.9,79.2,123,67,137.6
					c-0.3,0.4,314.7,262.3,313.8,263.3C378.4,403.8,79.9,129.7,65,147.5c-7.7,9.2,319.2,252.2,311.5,261.3
					C358.9,429.8,62.5,129.5,48.3,146.4c-2.5,3,322.9,236.7,306,256.8C348.7,410,66.1,141.6,52.3,158
					c-14.8,17.6,306.7,253.7,304.9,255.9C353.2,418.8,46.5,157.5,46.1,158C29,178.4,344.4,393.9,337.3,402.4
					C330,411,65.7,175.5,61.8,180.3c-16.2,19.3,295.1,235,288.9,242.4C334.6,441.8,53.4,178.3,52.4,179.5
					C37.7,197,346,418.4,342.3,422.8c-6.4,7.6-279-230.4-282-226.8C44.4,214.8,343.1,402.6,328,420.6
					c-0.8,0.9-262-223.3-268.9-215.1c-5.2,6.2,261.4,211.2,257.4,216C308.3,431.4,63,200,53.8,211c-0.6,0.8,247.5,207,247.1,207.4
					c-8.8,10.5-249.6-220.1-257.5-210.6c-3.5,4.2,271.7,201,258.4,216.9c-10,11.9-232.7-208.7-243.1-196.2
					c-11.3,13.4,231.8,194.3,231.7,194.4C284.9,429.3,70.5,239.6,68,242.6c-5.3,6.3,224.5,165.2,213.1,178.8
					c-10.6,12.6-231-183-232.1-181.7c-6.8,8.1,204.6,149.1,193.5,162.3c-8.7,10.3-176.8-139.4-177.6-138.5
					c-10,12,178.9,129.7,168.8,141.6c-3.5,4.2-169.5-151.5-176.8-142.8C47.1,274,230.1,400.6,226.6,404.8
					c-6.8,8.1-167.8-144.1-173.8-137c-4.5,5.3,179.7,136.5,172.7,144.9c-7.7,9.2-147.6-127-152.5-121
					c-5.5,6.6,124.2,102.1,123.1,103.3c-4.7,5.6-120.7-90.3-121-90c-2.1,2.6,119.1,93.1,115.8,97.1c-0.8,1-122.5-100.8-125.8-96.9
					c-3.6,4.3,105.1,78.4,100.3,84.1c-0.6,0.7-93-65.2-93.1-65.1c-0.9,1.1,83,66.2,81.4,68.3c-0.2,0.3-70.8-51.1-72-49.6
					c-4.2,5,62.6,45.2,59,49.5c-0.3,0.4-48.4-29.4-49.2-28.4c-0.7,0.8,49,36.5,46.7,39.2c0,0.1-48.1-34.7-48.3-34.5
					c-0.2,0.2,46.6,38.4,46.3,38.8c-1.7,2-32.3-19.9-33.5-18.4c-0.7,0.8,2.6,1.8,2.4,2"/>
			</g>
		</g>
	</g>
</g>
<g id="wall_x5F_shadow" opacity="0.7">
	<rect id="_x32_x4c" x="8.3" y="4.2" opacity="0.3" width="38.2" height="474.9"/>
	<rect id="_x32_x4b" x="8.3" y="4.2" opacity="0.6" width="18.3" height="474.7"/>
	<rect id="_x32_x4a" x="7.2" y="5.5" opacity="0.4" width="455.9" height="31.5"/>
</g>

<g id="wall_frames">
	<path id="hor_x5F_frame3" fill="#061300" d="M528-14.2v28.1c0,0-19.2,0-53.8,0c-0.5,0-0.9,0-1.4,0c-75.8-4-150.8,2-226.9,0
		c-0.6,0-1.2,0-2,0c-368.7,0-1007.2,0-1367.8,0c-0.8,0-1.7,0-2.6,0.1c-3.5,1.8-6.5,4.8-7.5,4.8c-19,1-37-6-56,0c-3,1-8-1-11-1
		c-12-1-23,0-35-1c-4,0-8-1-12-1c-16-1-33,1-49-4c-3-1-7,1-11.3,2c-0.5,0-1.1,0.1-1.6,0.1c-52.2,0-82,0-82,0v-28.1
		c0,0,119.3,0,298.3,0c0.8,0.1,1.5,0.2,2.2,0.2c4.5,0.8,8.5,1.8,13.5,0.8c15-3,29-6,43-6c52,0,104,0,156,3c19,2,38,1,56.8,2
		c0.6,0,1.6,0,2.2,0c102.8,0,212.8,0,323.9,0c1.7-0.4,2.5-0.5,3.4-0.6c92.7-5.4,184.7-3.4,277.3,0.6c0.8,0,1.7,0,2.5,0
		C184-14.2,528-14.2,528-14.2z"/>
	<g id="hor_x5F_frame3_x5F_tex">
		<g>
			<path fill="none" stroke="#282828" stroke-width="2" stroke-linecap="round" stroke-linejoin="round" d="M-1044-18.6
				c0,0.9,91-0.9,91,0c0,4.4-440.1,10.6-440.1,15c0,19.2,1922-19.2,1922,0c0,19.2-1922.4-4.2-1922.4,15c0,19.2,1921.4-19.2,1921.4,0
				"/>
		</g>
	</g>
	<path id="hor_x5F_frame4" fill="#061300" d="M524,469.9C524,469.9,524,469.8,524,469.9c0,0-31.4,0-86.2,0c-0.5,0-1.1,0-1.6,0
		c-39.2-1-77.2,3-116.2-1c-25-2-51,0-76,0c-24,0-49,0-72.8,1c-0.5,0-0.9,0-1.4,0c-40,0-82.3,0-126.4,0c-0.5,0-1,0-1.6,0
		c-9.8,0-16.8-3-26.8,0c-6,2-13-4-19-3c-139,8-280,0-420.3,3c-0.4,0-1,0-1.5,0c-132.5,0-265.3,0-388.1,0c-0.6,0-1.2,0-1.8,0
		c-6.3,0-12.3,0-17.9,0c-0.6,0-1.2,0-1.8,0c-0.6,0-1.2,0-1.8,0c-0.6,0-1.2,0-1.8,0c-1,0-3,0-3.6,0c-0.6,0-1.2,0-1.8,0
		c-0.6,0-1.2,0-1.8,0c-0.6,0-1.2,0-1.8,0c-2.1,0-5.1,0-7.1,0c-0.6,0-1.2,0-1.8,0c-0.6,0-1.2,0-1.8,0c-37.5,1-75.5,1-112.7,0
		c-0.5,0-1.1,0-1.7,0c-8.2,0-16.3,0-24.4,0c-0.5,0-1.1,0-1.6,0c-14.1,3-28.1,1-42.6,0c-0.5,0-1,0-1.5,0c-5.1,0-10.3,0-15.3,0
		c-0.5,0-1,0-1.5,0c-13.1,2-27.1-1-40,0c-0.5,0-1,0-1.4,0c-174.8,0-290.7,0-290.7,0v28.1c0,0,172.5,0,413.8,0
		c0.8,0.2,1.4,0.3,2.2,0.5c31,3.4,62-0.6,92-0.6c42,0,84,4,127-1c3,0,6-2,9-2c37,0,76,6,111-4c0,4,3,6,6,7c0.6,0,1.2,0,1.8,0
		c100.2,0,203.4,0,304.9,0c0.6,0,1.2,0,1.8,0c21.5-1,43.5,1,65.3,0c0.6,0,1.2,0,1.8,0s1.2,0,1.8,0s1.2,0,1.8,0c6.8,0,12.8,0,19.8,0
		c0.6,0,1.2,0,1.8,0s1.2,0,1.8,0c2.4,0,5.4,0,7.2,0c0.6,0,1.2,0,1.8,0s1.2,0,1.8,0c27.6,1,54.6-1,81.6-4c3,0,7,1,10,1
		c15-1,31,2,46,2c27,0,55,0,82,1c0.6,0,1.1,0,1.6,0c83.7,0,161.7,0,230.4,0c1.1,0,1.6,0,2.1,0c29.9,0,60.9-4,88.9,7
		c-4-10,11-3,15.3-7c0.5,0,1,0,1.5,0c110.5,0,178.5,0,178.5,0h5.4h2.2v-28H524z"/>
	<g id="hor_x5F_frame4_x5F_tex">
		<g>
			<path fill="none" stroke="#282828" stroke-width="2" stroke-linecap="round" stroke-linejoin="round" d="M32.1,469.4
				c0-0.2-26.3,0.1-26.3,0c0-0.2,28.7,0.1,28.7-0.3c0-0.1-9.5,0.2-9.5,0"/>
			<path fill="none" stroke="#282828" stroke-width="2" stroke-linecap="round" stroke-linejoin="round" d="M21.4,469.8
				c0-1.1-99.3,0.9-99.3,0c0-0.7,71.4-1.5,71.4-2.5c0-0.1-3.2,0.1-3.2,0"/>
			<path fill="none" stroke="#282828" stroke-width="2" stroke-linecap="round" stroke-linejoin="round" d="M325.5,470.2
				c0-3.6-313.7,3.1-313.7,0c0-3.5,314.6,1.8,314.6-1.7c0-0.4-49.2,0.7-49.2,0"/>
			<path fill="none" stroke="#282828" stroke-width="2" stroke-linecap="round" stroke-linejoin="round" d="M344.6,498.7
				c0-0.4-38.9,0.4-38.9,0c0-1.3,210.8-14.7,210.8-16.4c0-10.3-1915.8,22.1-1915.8,0c0-10.4,1938.2,4.6,1938.2-11.9
				c0-1.9-166,2-166,0"/>
		</g>
	</g>
	<path id="vert_x5F_frame4" fill="#061300" d="M482,765.9c0,0-4.9,0-10.6,0c-0.6,0-1.1,0-1.7,0c-5.8,0-12.8,5-14.8-3
		c-6-21,1-43-4-65c-1-4,5-13,3-21.5c-0.1-0.8-0.1-1.6-0.1-2.3c0-25.3,0-54.9,0-87.9c0-0.4,0-0.9,0-1.4c2-13,1-25-1-38
		c-4-28-7-59,0.4-84.6c0.5-1.4,0.6-2,0.6-2.6c0-113.4,0-243.8,0-364.8c0.1-0.7,0.2-1.3,0.2-1.9c0.8-3.1,2.8-7.1,2.8-10.1
		c-7-28-5-57,0-84c0-2-2-5-2.9-6.6C454-8.3,454-8.9,454-9.4c0-172.2,0-304.8,0-304.8H482c0,0,0,627,0,925.5c0,0.5,0,0.9,0,1.4
		c-1,12,0,27-5,38c-3,7,4,14,4.8,20.7c0.1,0.8,0.2,1.6,0.2,2.4C482,731.1,482,765.9,482,765.9z"/>
	<g id="vert_x5F_frame4_x5F_tex">
		<g>
			<path fill="none" stroke="#282828" stroke-width="2" stroke-linecap="round" stroke-linejoin="round" d="M449.4,517.9
				c0.2,0-0.4-35.2,0-35.2c3.9,0,10.5,276.4,13,276.4c16.2,0-13.7-1076.4,0-1076.4c5.5,0,6.5,1086.1,13,1086.1
				c12.4,0-15.9-1078.8,0-1078.8"/>
		</g>
	</g>
	<path id="vert_x5F_frame3" d="M14,483.9H-14c0,0,0-140.7,0-303.9c0-0.8,0-1.5,0-2.3c0-18.8,0-38.8,0-57.9c0-0.6,0-1.6,0-3.3
		c0-52.3,0-105.2,0-155.3c0-0.8,0-1.6,0-2.4c-2-17.9-1.8-179.6,0-240.7c0-0.7,0-1.4,0-3c0-18.6,0-29.2,0-29.2H14
		c0,0,0,311.7,0,545.5c0,1.7,0,2.6,0,3.2c0,31.1,0,61.9,0,92.6c0,1.1,0,2.1,0,3.2c-1,40.6,0,81.6,0,123c0.1,0.6,0,2.3,0,3.2
		C14,474,14,483.9,14,483.9z"/>
	<g id="vert_x5F_frame3_x5F_tex">
		<g>
			<path fill="none" stroke="#282828" stroke-width="2" stroke-linecap="round" stroke-linejoin="round" d="M-13.8,493.1
				c9.7,0-7.6-804.3,0-804.3c10.3,0,16.2,801.1,20.7,801.1c9.5,0-6.5-805.1,0-805.1c5.2,0-7.1,809.2,1,809.2
				c8.1,0-7.1-809.8,0-809.8"/>
		</g>
	</g>
</g>
<g id="text" display="none">
	<rect x="-144.9" y="45.5" display="inline" fill="none" width="421.9" height="274.2"/>
	
		<text transform="matrix(1 0 0 1 68.293 106.3662)" display="inline" opacity="0.7" font-family="'BradyBunchRemastered'" font-size="98">vision</text>
</g>
</svg>
