<?xml version="1.0" encoding="utf-8"?>
<!-- Generator: Adobe Illustrator 16.0.0, SVG Export Plug-In . SVG Version: 6.00 Build 0)  -->
<!DOCTYPE svg PUBLIC "-//W3C//DTD SVG 1.1//EN" "http://www.w3.org/Graphics/SVG/1.1/DTD/svg11.dtd">
<svg version="1.1" xmlns="http://www.w3.org/2000/svg" xmlns:xlink="http://www.w3.org/1999/xlink" x="0px" y="0px" width="100%"
	 height="100%" viewBox="0 0 60 483.9" enable-background="new 0 0 60 483.9" xml:space="preserve" preserveAspectRatio="xMidYMid meet">

<g id="wall_x5F_fill">
	<rect id="wall_x5F_colour" x="-1860" y="-314.1" fill="#D1CEB2" width="1920" height="1080"/>
</g>
<g id="wall_x5F_texture">
	<g id="etchy_x5F_background">
		<g id="_x32_x5_x5F_sketchy" opacity="0.2">
			<g>
				<path fill="none" stroke="#323600" stroke-width="3" stroke-linecap="round" stroke-linejoin="round" d="M9.7,7.6
					c0,0,46.3-2.2,46.3,0c0,4.2-46.3,6.6-46.3,6.6c0,2.7,46.3-2.6,46.3,0c0,2.9-46.3,2.3-46.3,5c0,2.5,46.3,0,46.3,0L9.7,25.1
					c0,0.9,46.3,0,46.3,0S9.7,29.3,9.7,30.8c0,2.3,46.3-1.2,46.3,0c0,0-46.3,5.3-46.3,6.8H56l-46.3,7c0,2.3,46.3,0,46.3,0
					c0,1.8-46.3,5.9-46.3,5.9s46.3-0.9,46.3,0c0,0-46.3,4.1-46.3,6.8c0,0,46.3-3.6,46.3,0c0,1.4-46.3,3.6-46.3,6.1H56
					c0,0-46.3,4.9-46.3,6.9c0,0,46.3-0.7,46.3,0c0,2.1-46.3,5.2-46.3,5.2c0,0.1,46.3,0,46.3,0c0,2.9-46.3,5.6-46.3,5.6
					c0,1.7,46.3-0.6,46.3,0c0,0-46.3,4.2-46.3,5.7c0,2.8,46.3,0,46.3,0L9.7,93.5c0,0,46.3-1.6,46.3,0c0,0.2-46.3,4.1-46.3,6.3
					c0,3.8,46.3-2.8,46.3,0c0,2.1-46.3,6.1-46.3,6.1H56c0,0-46.3,5.3-46.3,5.6c0,0,46.3-4,46.3,0c0,2.9-46.3,5.1-46.3,5.1
					c0,4,46.3-2.6,46.3,0c0,2-46.3,6.7-46.3,6.7c0,2.7,46.3-2.6,46.3,0c0,1.1-46.3,5.6-46.3,5.6c0,0.8,46.3-3.8,46.3,0
					c0,2.2-46.3,3.3-46.3,6c0,0,46.3-1.3,46.3,0c0,0-46.3,2.7-46.3,5.5c0,0.2,46.3,0,46.3,0s-46.3,3.1-46.3,6.6H56
					c0,4-46.3,6.5-46.3,6.5c0,0.3,46.3-2.9,46.3,0c0,1.7-46.3,6-46.3,6c0,0.5,46.3-3.9,46.3,0c0,0.9-46.3,2.6-46.3,5.9
					c0,0,46.3-1.7,46.3,0l-46.3,6.2c0,3.6,46.3-3.3,46.3,0c0,0-46.3,3.7-46.3,5.4H56c0,3.5-46.3,6.1-46.3,6.1H56
					c0,0-46.3,5.3-46.3,6.1c0,0,46.3-0.8,46.3,0c0,1.7-46.3,5-46.3,5.9c0,2.2,46.3-1.7,46.3,0c0,0.7-46.3,1.9-46.3,5.6
					c0,0,46.3-4.1,46.3,0c0,0-46.3,6.1-46.3,6.4c0,0,46.3-0.4,46.3,0c0,0-46.3,6.3-46.3,6.5c0,3.4,46.3,0,46.3,0l-46.3,5.4
					c0,1.5,46.3-1.3,46.3,0c0,1.6-46.3,5.5-46.3,5.5s46.3-1.3,46.3,0c0,3.2-46.3,5-46.3,5c0,2.9,46.3,0,46.3,0s-46.3,3.7-46.3,6.6
					H56c0,1.5-46.3,2.6-46.3,5.7H56c0,3.4-46.3,6.5-46.3,6.5c0,0,46.3-0.9,46.3,0c0,1.9-46.3,3.7-46.3,6.9c0,3.2,46.3-2.5,46.3,0
					c0,0-46.3,3.3-46.3,6.9H56L9.7,268c0,1.7,46.3,0,46.3,0c0,2.1-46.3,7-46.3,7c0,3.3,46.3-3,46.3,0c0,0-46.3,5.2-46.3,6.5H56
					c0,0.6-46.3,3.6-46.3,6.6c0,1.3,46.3-3.1,46.3,0c0,2.5-46.3,1.3-46.3,5.1c0,0,46.3-0.4,46.3,0c0,3.5-46.3,6.1-46.3,6.1
					c0,2.2,46.3,0,46.3,0c0,0.9-46.3,6.5-46.3,6.5c0,4,46.3,0,46.3,0S9.7,310.6,9.7,312c0,0,46.3-1.3,46.3,0l-46.3,5.3
					c0,1.7,46.3-0.7,46.3,0c0,0.2-46.3,5.9-46.3,5.9c0,0.6,46.3,0,46.3,0c0,1.8-46.3,5.7-46.3,5.7H56c0,2.6-46.3,2.8-46.3,6.7
					c0,0,46.3-0.6,46.3,0l-46.3,6H56l-46.3,6.1c0,2.9,46.3,0,46.3,0c0,3.2-46.3,6.7-46.3,6.7H56c0,1.7-46.3,2.7-46.3,6.6
					c0,1.5,46.3-0.9,46.3,0c0,0-46.3,6.2-46.3,6.9c0,0,46.3-3.6,46.3,0c0,0-46.3,3.7-46.3,7H56c0,0.6-46.3,5.6-46.3,5.6
					c0,3.8,46.3-4.1,46.3,0l-46.3,5.9c0,0.5,46.3-2.8,46.3,0c0,0-46.3,4.7-46.3,5.8c0,0.4,46.3-3,46.3,0l-46.3,6.5
					c0,0,46.3-2.6,46.3,0c0,1.8-46.3,4-46.3,5.7c0,3.6,46.3,0,46.3,0s-46.3,4.9-46.3,5.1c0,1.7,46.3,0,46.3,0s-46.3,2.1-46.3,5.6
					c0,3.5,46.3,0,46.3,0c0,2.7-46.3,5.5-46.3,5.5c0,1.4,46.3,0,46.3,0l-46.3,6.2c0,0,46.3-3.4,46.3,0c0,0.4-46.3,6.5-46.3,6.5
					s46.3-2.4,46.3,0c0,1.7-46.3,3-46.3,6.6c0,1.3,46.3,0,46.3,0s-46.3,4.4-46.3,6.6H56c0,0-46.3,1.5-46.3,5.6c0,0,46.3-2.9,46.3,0
					c0,0.1-46.3,6.6-46.3,6.6c0,3.7,46.3-1.7,46.3,0c0,0-46.3,3.3-46.3,6.1c0,3.4,46.3-2.9,46.3,0c0,0-46.3,4.4-46.3,6.4
					c0,0,46.3-3.3,46.3,0c0,1-46.3,2.9-46.3,6.1c0,0,46.3-0.3,46.3,0"/>
			</g>
		</g>
	</g>
	<g id="panel_x5F_textures">
		<g id="Biege_x5F_texture">
			<g id="_x32_x5" opacity="0.4">
				<g>
					<path fill="none" stroke="#FFFFFF" stroke-linecap="round" stroke-linejoin="round" d="M5.9,481.5c31.7,0-28.2-473,0-473
						c22.1,0-28.7,468.5,8.2,468.5c31,0,0-473.7,0-473.7c19.5,0-24.8,471.2,7.9,471.2c23.6,0-14.3-466.4,0-466.4
						c31.4,0-12.4,467.2,8.5,467.2c18.6,0-18-466,0-466c17.3,0-4.5,467.8,8.9,467.8c0,0-24.9-474.4,0-474.4
						c5.8,0,7.8,479.5,7.8,479.5c12.1,0-1.8-474.1,0-474.1c1.7,0-25,469.5,8.5,469.5c33,0-10.2-472.7,0-472.7"/>
				</g>
			</g>
		</g>
		<g id="colour_x5F_texture">
		</g>
	</g>
	<g id="round_x5F_patches">
	</g>
</g>
<g id="wall_x5F_shadow" opacity="0.7">
	<rect id="_x32_x5b" x="5.7" y="6.9" opacity="0.3" width="26.9" height="472.2"/>
	<rect id="_x32_x5a" x="5.7" y="6.9" opacity="0.4" width="54.3" height="30.1"/>
</g>

<g id="wall_frames">
	<path id="hor_x5F_frame3" fill="#061300" d="M60-14.2v28.1c0,0-19.2,0-53.8,0c-0.5,0-0.9,0-1.4,0c-75.8-4-150.8,2-226.9,0
		c-0.6,0-1.2,0-2,0c-368.7,0-1007.2,0-1367.8,0c-0.8,0-1.7,0-2.6,0.1c-3.5,1.8-6.5,4.8-7.5,4.8c-19,1-37-6-56,0c-3,1-8-1-11-1
		c-12-1-23,0-35-1c-4,0-8-1-12-1c-16-1-33,1-49-4c-3-1-7,1-11.3,2c-0.5,0-1.1,0.1-1.6,0.1c-52.2,0-82,0-82,0v-28.1
		c0,0,119.3,0,298.3,0c0.8,0.1,1.5,0.2,2.2,0.2c4.5,0.8,8.5,1.8,13.5,0.8c15-3,29-6,43-6c52,0,104,0,156,3c19,2,38,1,56.8,2
		c0.6,0,1.6,0,2.2,0c102.8,0,212.8,0,323.9,0c1.7-0.4,2.5-0.5,3.4-0.6c92.7-5.4,184.7-3.4,277.3,0.6c0.8,0,1.7,0,2.5,0
		C-284-14.2,60-14.2,60-14.2z"/>
	<g id="hor_x5F_frame3_x5F_tex">
		<g>
			<path fill="none" stroke="#282828" stroke-width="2" stroke-linecap="round" stroke-linejoin="round" d="M-1512-18.6
				c0,0.9,91-0.9,91,0c0,4.4-440.1,10.6-440.1,15c0,19.2,1922-19.2,1922,0c0,19.2-1922.4-4.2-1922.4,15c0,19.2,1921.4-19.2,1921.4,0
				"/>
		</g>
	</g>
	<path id="hor_x5F_frame4" fill="#061300" d="M56,469.9C56,469.9,56,469.8,56,469.9c0,0-31.4,0-86.2,0c-0.5,0-1.1,0-1.6,0
		c-39.2-1-77.2,3-116.2-1c-25-2-51,0-76,0c-24,0-49,0-72.8,1c-0.5,0-0.9,0-1.4,0c-40,0-82.3,0-126.4,0c-0.5,0-1,0-1.6,0
		c-9.8,0-16.8-3-26.8,0c-6,2-13-4-19-3c-139,8-280,0-420.3,3c-0.4,0-1,0-1.5,0c-132.5,0-265.3,0-388.1,0c-0.6,0-1.2,0-1.8,0
		c-6.3,0-12.3,0-17.9,0c-0.6,0-1.2,0-1.8,0c-0.6,0-1.2,0-1.8,0c-0.6,0-1.2,0-1.8,0c-1,0-3,0-3.6,0c-0.6,0-1.2,0-1.8,0
		c-0.6,0-1.2,0-1.8,0c-0.6,0-1.2,0-1.8,0c-2.1,0-5.1,0-7.1,0c-0.6,0-1.2,0-1.8,0c-0.6,0-1.2,0-1.8,0c-37.5,1-75.5,1-112.7,0
		c-0.5,0-1.1,0-1.7,0c-8.2,0-16.3,0-24.4,0c-0.5,0-1.1,0-1.6,0c-14.1,3-28.1,1-42.6,0c-0.5,0-1,0-1.5,0c-5.1,0-10.3,0-15.3,0
		c-0.5,0-1,0-1.5,0c-13.1,2-27.1-1-40,0c-0.5,0-1,0-1.4,0c-174.8,0-290.7,0-290.7,0v28.1c0,0,172.5,0,413.8,0
		c0.8,0.2,1.4,0.3,2.2,0.5c31,3.4,62-0.6,92-0.6c42,0,84,4,127-1c3,0,6-2,9-2c37,0,76,6,111-4c0,4,3,6,6,7c0.6,0,1.2,0,1.8,0
		c100.2,0,203.4,0,304.9,0c0.6,0,1.2,0,1.8,0c21.5-1,43.5,1,65.3,0c0.6,0,1.2,0,1.8,0s1.2,0,1.8,0s1.2,0,1.8,0c6.8,0,12.8,0,19.8,0
		c0.6,0,1.2,0,1.8,0s1.2,0,1.8,0c2.4,0,5.4,0,7.2,0c0.6,0,1.2,0,1.8,0s1.2,0,1.8,0c27.6,1,54.6-1,81.6-4c3,0,7,1,10,1
		c15-1,31,2,46,2c27,0,55,0,82,1c0.6,0,1.1,0,1.6,0c83.7,0,161.7,0,230.4,0c1.1,0,1.6,0,2.1,0c29.9,0,60.9-4,88.9,7
		c-4-10,11-3,15.3-7c0.5,0,1,0,1.5,0c110.5,0,178.5,0,178.5,0h5.4H60v-28H56z"/>
	<g id="hor_x5F_frame4_x5F_tex">
		<g>
			<path fill="none" stroke="#282828" stroke-width="2" stroke-linecap="round" stroke-linejoin="round" d="M-123.4,498.7
				c0-0.4-38.9,0.4-38.9,0c0-1.3,210.8-14.7,210.8-16.4c0-10.3-1915.8,22.1-1915.8,0c0-10.4,1938.2,4.6,1938.2-11.9
				c0-1.9-166,2-166,0"/>
		</g>
	</g>
	<path id="vert_x5F_frame4" fill="#061300" d="M14,765.9c0,0-4.9,0-10.6,0c-0.6,0-1.1,0-1.7,0c-5.8,0-12.8,5-14.8-3c-6-21,1-43-4-65
		c-1-4,5-13,3-21.5c-0.1-0.8-0.1-1.6-0.1-2.3c0-25.3,0-54.9,0-87.9c0-0.4,0-0.9,0-1.4c2-13,1-25-1-38c-4-28-7-59,0.4-84.6
		c0.5-1.4,0.6-2,0.6-2.6c0-113.4,0-243.8,0-364.8c0.1-0.7,0.2-1.3,0.2-1.9c0.8-3.1,2.8-7.1,2.8-10.1c-7-28-5-57,0-84
		c0-2-2-5-2.9-6.6C-14-8.3-14-8.9-14-9.4c0-172.2,0-304.8,0-304.8H14c0,0,0,627,0,925.5c0,0.5,0,0.9,0,1.4c-1,12,0,27-5,38
		c-3,7,4,14,4.8,20.7c0.1,0.8,0.2,1.6,0.2,2.4C14,731.1,14,765.9,14,765.9z"/>
	<g id="vert_x5F_frame4_x5F_tex">
		<g>
			<path fill="none" stroke="#282828" stroke-width="2" stroke-linecap="round" stroke-linejoin="round" d="M-18.6,517.9
				c0.2,0-0.4-35.2,0-35.2c3.9,0,10.5,276.4,13,276.4c16.2,0-13.7-1076.4,0-1076.4c5.5,0,6.5,1086.1,13,1086.1
				c12.4,0-15.9-1078.8,0-1078.8"/>
		</g>
	</g>
</g>
<g id="text" display="none">
</g>
</svg>
