<?xml version="1.0" encoding="utf-8"?>
<!-- Generator: Adobe Illustrator 16.0.0, SVG Export Plug-In . SVG Version: 6.00 Build 0)  -->
<!DOCTYPE svg PUBLIC "-//W3C//DTD SVG 1.1//EN" "http://www.w3.org/Graphics/SVG/1.1/DTD/svg11.dtd">
<svg version="1.1" xmlns="http://www.w3.org/2000/svg" xmlns:xlink="http://www.w3.org/1999/xlink" x="0px" y="0px" width="100%"
	 height="100%" viewBox="0 0 852 282" enable-background="new 0 0 852 282" xml:space="preserve" preserveAspectRatio="xMidYMid meet">

<g id="wall_x5F_fill">
	<rect id="wall_x5F_colour" y="-798" fill="#D1CEB2" width="1920" height="1080"/>
</g>
<g id="wall_x5F_texture">
	<g id="etchy_x5F_background">
		<g id="_x33_x1_x5F_sketchy" opacity="0.2">
			<g>
				<path fill="none" stroke="#323600" stroke-width="3" stroke-linecap="round" stroke-linejoin="round" d="M3.5,6.4
					c0,0,841.5-40.5,841.5,0C845,81.3,3.5,13,3.5,13C3.5,61.2,845-34.6,845,13C845,64.6,3.5-30.9,3.5,18c0,45.6,841.5,0,841.5,0
					L3.5,23.9c0,16.5,841.5,0,841.5,0S3.5,2.2,3.5,29.6c0,40.9,841.5-21.5,841.5,0c0,0-841.5-20.2-841.5,6.8H845l-841.5,7
					c0,42.7,841.5,0,841.5,0c0,32.8-841.5,5.9-841.5,5.9s841.5-16,841.5,0C845,49.4,3.5,9,3.5,56.1c0,0,841.5-65.3,841.5,0
					C845,80.6,3.5,18,3.5,62.2H845c0,0-841.5-28.9-841.5,6.9c0,0,841.5-11.9,841.5,0C845,107,3.5,74.3,3.5,74.3
					c0,1.5,841.5,0,841.5,0c0,52.3-841.5,5.6-841.5,5.6c0,30.1,841.5-10.1,841.5,0c0,0-841.5-20.7-841.5,5.7c0,50.6,841.5,0,841.5,0
					L3.5,92.3c0,0,841.5-28.8,841.5,0c0,3-841.5-33.9-841.5,6.3c0,69,841.5-50.8,841.5,0c0,37.6-841.5,6-841.5,6H845
					c0,0-841.5,0.9-841.5,5.6c0,0,841.5-73,841.5,0c0,52.7-841.5,5.1-841.5,5.1c0,73.2,841.5-47.7,841.5,0
					c0,35.5-841.5,6.7-841.5,6.7c0,49.1,841.5-47.8,841.5,0c0,20.5-841.5,5.6-841.5,5.6c0,14.1,841.5-68.8,841.5,0
					c0,39.8-841.5-43.4-841.5,6c0,0,841.5-22.7,841.5,0c0,0-841.5-46.4-841.5,5.5c0,3,841.5,0,841.5,0S3.5,83,3.5,145.9H845
					c0,71.5-841.5,6.5-841.5,6.5c0,4.6,841.5-53.2,841.5,0c0,31.2-841.5,6-841.5,6c0,9.2,841.5-70,841.5,0
					c0,15.7-841.5-53.4-841.5,5.9c0,0,841.5-30.1,841.5,0L3.5,170.5c0,65.4,841.5-59.8,841.5,0c0,0-841.5-25.4-841.5,5.4H845
					C845,239.6,3.5,182,3.5,182H845c0,0-841.5-8.6-841.5,6.1c0,0,841.5-15.2,841.5,0c0,30.1-841.5-9.1-841.5,5.9
					c0,39.4,841.5-30.7,841.5,0c0,13.4-841.5-60.6-841.5,5.6c0,0,841.5-73.6,841.5,0c0,0-841.5,0.9-841.5,6.4c0,0,841.5-7.9,841.5,0
					c0,0-841.5,2.4-841.5,6.5c0,61.5,841.5,0,841.5,0L3.5,218c0,26.8,841.5-23.8,841.5,0c0,28.7-841.5,5.5-841.5,5.5
					s841.5-24.1,841.5,0c0,57-841.5,5-841.5,5c0,52.9,841.5,0,841.5,0S3.5,183.9,3.5,235.1H845c0,27.1-841.5-50.8-841.5,5.7H845
					c0,61.9-841.5,5.1-841.5,6.5c0,0,841.5-15.9,841.5,0c0,34.5-841.5-50.8-841.5,6.9c0,58.6,841.5-46.3,841.5,0
					c0,0-841.5-56.8-841.5,6.9H845L3.5,266.8c0,31.4,841.5,0,841.5,0c0,37.2-841.5,7-841.5,7c0,59.4,841.5-54.3,841.5,0
					c0,0-841.5-17.1-841.5,6.5H845"/>
			</g>
		</g>
	</g>
	<g id="panel_x5F_textures">
		<g id="Biege_x5F_texture">
			<g id="_x33_x1" opacity="0.4">
				<g>
					<path fill="none" stroke="#FFFFFF" stroke-linecap="round" stroke-linejoin="round" d="M8.6,282.1C27,282.1-7.8,7.4,8.6,7.4
						c12.8,0-13.1,270.3,8.2,270.3c18,0,0-275.5,0-275.5c11.3,0-11.1,272.9,7.9,272.9c13.7,0-8.3-268.2,0-268.2
						c18.1,0-3.5,269,8.5,269c10.8,0-10.4-267.7,0-267.7c10,0,1.2,269.6,8.9,269.6c0,0-14.4-276.2,0-276.2
						c3.4,0,7.8,281.2,7.8,281.2C57,282.9,48.9,7,50,7c1,0-10.6,271.3,8.7,271.3c19.1,0-5.9-274.4,0-274.4l7.9,273.3
						c9.3,0-10-276.2,0-276.2c15.2,0,7.5,280.6,7.5,280.6c17.6,0-12.4-279.2,0-279.2c0,0-13.5,273.2,8,273.2
						c19,0-13.2-268.8,0-268.8c13.3,0,8.4,269.7,8.4,269.7c0.7,0-5.9-273.2,0-273.2c0.9,0,7.4,272,7.4,272
						c23.4,0-14.3-268.5,0-268.5c1.9,0,5.7,274.3,8,274.3c0,0-23.9-272.9,0-272.9c10,0,6.7,274.9,7.6,274.9
						c12.9,0-7.9-279.9,0-279.9c22.4,0-15.1,276.7,7.9,276.7c0.8,0-3.4-277,0-277c6.7,0,8.9,274.3,8.9,274.3c18.5,0,0-275.7,0-275.7
						c2.7,0,5.2,281.9,8.7,281.9c7.5,0-4.5-276.6,0-276.6c13.1,0,7.2,270.6,7.2,270.6c7.1,0,0-267.1,0-267.1s-1.1,273.5,7.3,273.5
						c11.9,0-22.7-280.3,0-280.3c7.3,0,7.4,273.1,7.4,273.1c10.3,0-19.3-270.8,0-270.8c11.1,0,6.2,275.5,8.7,275.5
						c6.7,0-18.8-277.4,0-277.4c9.1,0,2.6,276.5,7,276.5c23.4,0-9.5-271.9,0-271.9c14.7,0-14.8,266.6,7.4,266.6
						c15.3,0-7.5-273.7,0-273.7c21.1,0,7,279.3,7,279.3c12.7,0-17.1-275.9,0-275.9c5.1,0,4.3,271.8,8.6,271.8
						c1,0-23.4-272.1,0-272.1c0,0-8.9,273.6,8.3,273.6c0,0-9.4-269.7,0-269.7c11.6,0-4.3,267.5,7.2,267.5c7.4,0-5.1-268.8,0-268.8
						c11.5,0-3.5,269.9,7.5,269.9c5.4,0-15.6-273.1,0-273.1c19.5,0-16.9,273.9,7.4,273.9c9.2,0-15.9-273.8,0-273.8
						c22.3,0,8.3,274.3,8.3,274.3c18.4,0-5.7-275,0-275c16.8,0,8,275.6,8,275.6c5.1,0,0-268.8,0-268.8c0.2,0-6.4,273.3,9,273.3
						c19.1,0-7.2-275.5,0-275.5c13.4,0-13,274.8,8,274.8c5,0-13-273.4,0-273.4c21.2,0-4.6,273.5,8.5,273.5
						c10.3,0-20.7-281.3,0-281.3c1.7,0-0.9,281.8,8.1,281.8c4.2,0-18-281.5,0-281.5c5.1,0,7.2,278.4,7.2,278.4
						c2.7,0-4-278.1,0-278.1c18.8,0-2.3,273.3,8.6,273.3c14,0-3.9-267.5,0-267.5c17.1,0-15.4,273.4,8.9,273.4
						c0.4,0-19.2-271.8,0-271.8c14.3,0-2.3,269.5,7.4,269.5c1.1,0-10.5-269.3,0-269.3c1.5,0-9.9,270.1,8.3,270.1
						c20.6,0,0-275.9,0-275.9c10.7,0,5.2,273.8,7.3,273.8c12.5,0-7.3-272.5,0-272.5c18.3,0,7.8,270.7,7.8,270.7s-6.2-272,0-272
						c8.1,0,2.6,279.7,7.4,279.7c22.5,0-3.2-272.9,0-272.9l7.1,265.5c22.2,0-22.3-266.7,0-266.7c12.8,0,5.1,273.5,8.2,273.5
						c20.6,0-13.4-275.8,0-275.8c12.8,0,7.6,276.4,7.6,276.4c18.6,0-22.6-277.9,0-277.9c19.8,0-12.6,277.6,8.4,277.6
						c0.7,0-10.7-272.9,0-272.9c1,0,8.7,266.8,8.7,266.8c4.8,0-3.8-269,0-269c4,0-12.8,267.6,8.5,267.6c7.5,0-2.6-265.2,0-265.2
						c0,0-3.1,266.8,7.9,266.8c21.3,0-18.9-274.2,0-274.2c18.9,0-1.6,276.8,8.4,276.8c14.1,0-15.9-276.2,0-276.2
						c21,0-14.5,273.5,7.2,273.5c21.1,0-1.4-269.7,0-269.7c16.9,0,2.9,274.3,7.3,274.3c0,0-1.7-276.1,0-276.1
						c14.8,0,7.2,276,7.2,276c7.6,0,0-272.9,0-272.9c15.5,0-4,268.4,8.2,268.4c6.2,0-10.6-272.6,0-272.6c3.5,0,2.1,279.3,8.8,279.3
						c9.5,0-18.3-273.1,0-273.1c21.7,0-14.3,272.4,7.5,272.4c10.6,0-6.7-278.3,0-278.3c5.1,0-7,278.6,8,278.6c17,0-14.7-278,0-278
						c21,0,5.2,272.4,8.2,272.4c13,0-5.4-276.5,0-276.5c20.9,0,6.8,277.9,8,277.9c13.1,0,0-277,0-277c23.7,0-17.4,282.7,7.1,282.7
						c3.8,0-6.1-281.9,0-281.9c23.7,0,8,281.3,8,281.3c14.8,0-4.9-278.6,0-278.6c0,0,6.8,276.8,7.4,276.8c15.8,0,0-279.9,0-279.9
						c10.2,0-10.6,281.4,7.2,281.4c13.3,0-23.6-275.1,0-275.1c16,0,3.5,275,7.2,275c15.8,0-23.6-273.9,0-273.9
						c0,0,8.1,265.2,8.4,265.2c10.7,0-19.4-272.7,0-272.7c20.5,0-4.2,273.5,8.7,273.5c0,0-13.6-272.6,0-272.6
						c20.6,0,2.8,277.2,8.6,277.2c2.2,0,0-274,0-274c21.8,0-15.2,273,8.6,273c21,0-21.2-275.6,0-275.6c20.2,0-3.4,275,7.9,275
						c1.7,0,0-275.9,0-275.9s0.2,274.8,7,274.8c24.5,0-9.2-274.3,0-274.3l8.1,275.7c3.8,0,0-271.5,0-271.5c3,0,3.8,268.6,7.6,268.6
						c0,0-5-271.2,0-271.2c6.4,0-3.4,277.2,8.6,277.2c12,0-4.7-277.3,0-277.3c0,0-5.9,271.3,8.8,271.3c20.8,0-8.8-265.5,0-265.5
						c0,0,6.8,265.4,7.8,265.4c3.9,0-20.3-266.3,0-266.3c20.3,0-7.6,268.1,8.7,268.1c16.9,0-23.5-269.4,0-269.4
						c0.3,0,6.4,274.6,7.6,274.6c3.2,0-20.9-277.1,0-277.1l7.8,274c7.3,0,0-271.2,0-271.2c4.5,0-4.3,267.5,8.1,267.5
						c11.5,0-24-265.8,0-265.8c20.2,0,0.7,271.1,8,271.1c24.1,0-8.4-276.3,0-276.3c0,0,3.2,278.3,8.1,278.3c19.9,0-16.7-277,0-277
						c0,0,4.8,270.5,8.6,270.5c0,0-16.7-274.9,0-274.9c2.6,0,4.1,276.7,8.7,276.7c1.5,0-12.5-270.6,0-270.6c0,0,3.6,274.9,7.3,274.9
						c21,0-22.5-273.5,0-273.5c11.1,0,4.6,265,7.5,265c11.7,0-11.9-268.1,0-268.1c16.2,0,0,270.8,7.6,270.8
						c3.2,0-17.9-266.9,0-266.9c4.8,0,3.2,270.7,7.9,270.7c19.5,0-21.4-274.1,0-274.1c17.3,0-0.1,276,7.2,276
						c10.5,0-20.3-278.7,0-278.7c3.7,0-15.9,280,7.8,280c0,0-14.9-278.8,0-278.8c9.9,0,2.5,270,7.2,270c0.1,0-6.3-273.1,0-273.1
						c6.3,0-4.8,273.4,8.1,273.4c20.3,0,0-274.5,0-274.5c0.9,0,5.4,280.8,8.9,280.8c12.1,0-17.5-271.8,0-271.8
						c0,0-15.1,264.6,7.5,264.6c8.5,0-8.6-266,0-266c5.2,0,9,274.2,9,274.2c0.2,0-19.4-281.1,0-281.1c19.5,0-10.9,276.7,7.7,276.7
						c20.2,0-21.2-268.2,0-268.2c13.8,0,8.8,266.1,8.8,266.1c8.1,0-16.5-266.1,0-266.1c10.6,0,8.6,268,8.6,268
						c14.8,0-22.9-273,0-273c15.9,0-9.3,277.6,8.5,277.6c14.7,0-13.6-276.2,0-276.2c20.5,0,7.9,275,8.7,275
						c15.9,0-17.1-272.6,0-272.6c7.9,0-7.9,273.7,7.7,273.7c0,0-10.9-275.2,0-275.2c5.6,0,2.2,272.5,8.9,272.5
						c21.4,0-19-275.8,0-275.8c16.4,0-4.2,276.2,7.8,276.2c12,0-1.4-277.1,0-277.1c17,0-4.9,275.6,9,275.6c7.6,0-0.5-275.6,0-275.6
						c18.4,0,4.1,278.6,8.8,278.6c13.8,0-18.9-276.4,0-276.4"/>
				</g>
			</g>
		</g>
		<g id="colour_x5F_texture">
			<g id="_x33_x1blue_x5F_a">
				<g>
					<path fill="none" stroke="#8EB0BC" stroke-linecap="round" stroke-linejoin="round" d="M559,264.1c11.2,0-13-246.3,0-246.3
						c10.9,0-1.1,246.7,10.1,246.7c12.3,0-12.4-230.3,0-230.3c10.3,0-1.8,226.4,8.6,226.4c13.2,0-12.4-239.8,0-239.8
						c11,0-2.6,250.1,8,250.1c12.1,0-11.6-252.6,0-252.6c11.8,0,2.8,246.9,15.1,246.9c13.3,0-12.9-248,0-248
						c11,0,4.1,238.7,15.1,238.7c11.9,0-11-221.7,0-221.7c10,0,5.3,216.1,15.5,216.1c12.5,0-13.2-224.9,0-224.9
						c9.3,0-3.6,225.8,7.1,225.8c11,0-12.9-222,0-222"/>
				</g>
			</g>
			
			<g id="_x33_x1yellow_x5F_a">
				<g>
					<path fill="none" stroke="#DDC04A" stroke-linecap="round" stroke-linejoin="round" d="M679,261.4c11.2,0-13-245.5,0-245.5
						c10.8,0-1.1,245.9,10.1,245.9c12.2,0-12.4-229.5,0-229.5c10.3,0-1.8,225.6,8.6,225.6c13.2,0-12.4-239,0-239
						c11,0-2.5,249.3,8,249.3c12.1,0-11.6-251.8,0-251.8c11.8,0,2.8,246.1,15.1,246.1c13.3,0-12.9-247.2,0-247.2
						c11,0,4.1,237.9,15.1,237.9c11.9,0-11-220.9,0-220.9c9.9,0,5.4,215.4,15.5,215.4c12.5,0-13.2-224.1,0-224.1
						c9.3,0-3.5,225,7.1,225c10.9,0-12.8-221.2,0-221.2"/>
				</g>
			</g>
		</g>
	</g>
	<g id="round_x5F_patches">
		<path id="_x33_x1b_1_" opacity="0.2" fill="#FAFFCD" d="M734,112.4c-32.9-7.7-205.2-10.9-277-29.1C406.8,70.5,257.9,66,190,66
			c-61.9,0-73.4,34.2-116.1,59.1C4.3,165.8,53.7,274.3,53.7,274.3l737,0C790.7,274.4,802,128.2,734,112.4z"/>
		<g id="_x33_x1a_1_" opacity="0.3">
			<g>
				<path fill="none" stroke="#FAFFCD" stroke-width="2" stroke-linecap="round" stroke-linejoin="round" d="M12.6,159
					c0.3,0.6,50.8-29.8,51-29.4c0.1,0.2-7.9,13.5-7.6,14.1c0.9,1.6,23.9-14,24-13.8c0.9,1.5-29.2,21.1-28.7,22
					c0.8,1.4,35.1-24,36.7-21.2c0.1,0.1-37.8,24.1-36.8,25.9c1.5,2.6,0.2-2.6,1.3-0.7c0.3,0.6,15.5-0.1,15.7,0.3
					c0,0.1,65.4-42.8,67.6-39c3.1,5.4-95,57.3-91.3,63.8c1.3,2.3,79.6-53.8,83-47.9c0.2,0.3-51.8,35.9-51,37.4
					c0.9,1.5,86.6-56.7,89.5-51.7c0.8,1.4-123.6,72.4-119.5,79.5c0.7,1.2,141.1-89.4,144.6-83.5c1.5,2.6-90.9,58.4-90.4,59.2
					c4.4,7.6,80.9-50.2,82.4-47.6C186,131.2,70,196,70.9,197.6c3,5.3,143.9-92.8,148.1-85.5c4.1,7.1-144.3,90.8-143,93
					c2.5,4.3,95.7-63.8,99.4-57.4c2.8,4.8-70.8,44.9-69.9,46.5c4.1,7.1,117.2-75.5,120.6-69.6c0.2,0.3-135.2,76.1-130.2,84.8
					c0.4,0.8,108.8-65.1,109.8-63.4c1.9,3.3-63.2,38.3-60.8,42.5c2.6,4.4,88.3-57.1,91-52.5c3,5.2-91.4,56.1-88.9,60.3
					c6.3,10.8,123.4-85.3,129.5-74.7c0.4,0.7-116.4,67.5-112.4,74.4c2,3.4,89.1-57.3,91.7-52.9c0.5,0.8-111.5,70.6-109.4,74.2
					c5.1,8.8,141.6-91,145.6-84.1c3.6,6.3-121,75.3-120.3,76.7c0.7,1.2,162.6-98.9,164.8-95.1c1.9,3.4-121.2,74.6-118.6,79.2
					c4.7,8.1,106.1-63.3,107-61.8c0.3,0.5-100.3,60.2-99.1,62.2c4,7,83.8-53.3,85.9-49.6c2.8,4.8-148.2,89.3-144.9,95.1
					c3.4,5.8,208.1-130.9,212.8-122.8c3.7,6.4-166.5,95.9-161.8,104c6.5,11.3,171.2-108.6,175.4-101.3
					c4.2,7.2-173.6,96.5-169.1,104.2c6.7,11.6,142.5-83.3,142.9-82.5c3.3,5.8-116.1,75.4-115.6,76.3
					c7.7,13.4,181.8-122.7,189.5-109.4c7.5,13-200.1,110.7-194.6,120.2c2,3.5,175.1-105.4,176.9-102.2c3.7,6.4-173.5,93-167,104.2
					c3.2,5.6,161.6-104.2,166.3-96c3.5,6.1-166.4,102.5-165.4,104.3c6.2,10.7,199.6-125.8,204.2-117.9
					c5.6,9.7-178.3,112.5-177.9,113.2c6.1,10.6,205.9-125.8,208.9-120.6c5.1,8.8-193.2,110.5-190.1,115.8
					c7.4,12.8,167.9-104,170.9-98.7c0.9,1.6-209.4,119.6-206.3,124.9c6.2,10.7,171.8-101.1,172.6-99.7c4.7,8.2-127.3,69.8-123,77.2
					c6.5,11.2,131.1-83.4,134.4-77.6c7,12.1-182.7,100.3-177.2,109.9c6.9,12,206.7-128,210.4-121.5c2,3.5-154.3,94.1-154,94.6
					c7.7,13.4,133.9-80.3,135.2-78.1c2.1,3.6-113.1,68.5-110.9,72.3c1.8,3.1,156.4-92,157.2-90.7c5.7,9.8-202.2,117.3-199.8,121.5
					c7.4,12.9,227-133.9,228.3-131.8c3.3,5.8-170.2,101-168.8,103.5c7.6,13.1,181.3-120.4,188.2-108.6
					c7,12.1-197.4,118.3-194.6,123.2c6.3,10.9,199.4-127.6,204.8-118.2C578,146.2,351,257,355.6,265c6.2,10.8,210-123.2,210.8-121.7
					c2.4,4.2-175.2,105.4-173.5,108.4c1,1.8,121.5-89.6,129.9-75c1.7,3-164.8,88.3-159.5,97.5c7.2,12.5,197.5-117.9,199.2-115
					c5.5,9.5-147.2,82.3-141.8,91.7c0.6,1,157.1-105,163.3-94.3c5.6,9.7-158.6,90.1-153.8,98.4c0.7,1.2,163.2-102.3,166.7-96.2
					c4.5,7.8-172.4,107.4-172,108.2c2,3.4,169.3-115.5,177-102.2c4.1,7.1-162.3,92.5-157.5,100.7c5.2,9.1,188.7-119.3,193.1-111.5
					c3.7,6.4-197.9,111.6-194.1,118.1c4.5,7.8,177-104.5,178-102.8c2.8,4.8-135.3,77.7-133.1,81.6c0.9,1.6,171.2-101.7,172.4-99.5
					c5.4,9.3-177.1,96.5-170.7,107.6c1.3,2.2,112.3-69.5,114.3-66c0.3,0.5-106.6,66.5-104.7,69.9c5.3,9.1,171.8-104.2,174-100.5
					c0,0.1-213.2,112.6-205.5,126c4.8,8.3,191.8-123.2,197.2-113.8c4.1,7.2-123.8,73.2-121.6,77c0.3,0.6,148.3-94.8,152.2-87.9
					c4.6,8-174.5,107.8-172.9,110.5c6.6,11.4,137.7-94.7,144.3-83.3c0.4,0.6-150.5,90.8-149.4,92.6c1,1.8,129.4-82.4,132.7-76.6
					c1.9,3.3-49.7,33.7-48,36.6c1.5,2.6,53.9-34,55.1-31.8c1.5,2.5-40.7,28.5-39.1,31.3c1,1.7,93.8-66.9,99.4-57.4
					c1.3,2.3-116,75-115.6,75.7c4.8,8.4,124.2-73.2,124.9-72.1c2.7,4.7-145.7,89.3-145.5,89.7c0.6,1.1,94.3-62.6,97.8-56.5
					c3,5.2-74,46.1-72.6,48.5c0.2,0.3,77.7-51.5,80.6-46.5c0.2,0.4-29.3,27.2-28.9,27.9c3.2,5.5,106-64.7,107.5-62.1
					c1.1,2-52.4,38.3-51.3,40.1c1.7,2.9,16.9-11.5,17.6-10.2c0.7,1.2-25.6,18.9-24.8,20.2c2.5,4.4,31.3-18.2,31.4-18.1
					c0.1,0.1-24.4,21.6-23.8,22.6c0.4,0.7,2.8-2.8,3.3-1.9c0.5,0.9,24.1-5.5,24.5-4.8c1.2,2,28.2-17.7,28.8-16.6"/>
			</g>
		</g>
	</g>
</g>
<g id="wall_x5F_shadow" opacity="0.7">
	<path id="_x33_x1b" opacity="0.4" d="M847.1,7c0,0,0,37.4,0,39.9C843.1,46.8,0,46,0,46V7H847.1z"/>
	<rect id="_x33_x1a" y="7" opacity="0.6" width="847.1" height="19.9"/>
</g>

<g id="wall_frames">
	<path id="hor_x5F_frame4" fill="#061300" d="M1916-14C1916-14,1916-14,1916-14c0,0-31.4,0-86.2,0c-0.5,0-1.1,0-1.6,0
		c-39.2-1-77.2,3-116.2-1c-25-2-51,0-76,0c-24,0-49,0-72.8,1c-0.5,0-0.9,0-1.4,0c-40,0-82.3,0-126.4,0c-0.5,0-1,0-1.6,0
		c-9.8,0-16.8-3-26.8,0c-6,2-13-4-19-3c-139,8-280,0-420.3,3c-0.4,0-1,0-1.5,0c-132.5,0-265.3,0-388.1,0c-0.6,0-1.2,0-1.8,0
		c-6.3,0-12.3,0-17.9,0c-0.6,0-1.2,0-1.8,0c-0.6,0-1.2,0-1.8,0c-0.6,0-1.2,0-1.8,0c-1,0-3,0-3.6,0c-0.6,0-1.2,0-1.8,0
		c-0.6,0-1.2,0-1.8,0c-0.6,0-1.2,0-1.8,0c-2.1,0-5.1,0-7.1,0c-0.6,0-1.2,0-1.8,0c-0.6,0-1.2,0-1.8,0c-37.5,1-75.5,1-112.7,0
		c-0.5,0-1.1,0-1.7,0c-8.2,0-16.3,0-24.4,0c-0.5,0-1.1,0-1.6,0c-14.1,3-28.1,1-42.6,0c-0.5,0-1,0-1.5,0c-5.1,0-10.3,0-15.3,0
		c-0.5,0-1,0-1.5,0c-13.1,2-27.1-1-40,0c-0.5,0-1,0-1.4,0C115.9-14,0-14,0-14V14c0,0,172.5,0,413.8,0c0.8,0.2,1.4,0.3,2.2,0.5
		c31,3.4,62-0.6,92-0.6c42,0,84,4,127-1c3,0,6-2,9-2c37,0,76,6,111-4c0,4,3,6,6,7c0.6,0,1.2,0,1.8,0c100.2,0,203.4,0,304.9,0
		c0.6,0,1.2,0,1.8,0c21.5-1,43.5,1,65.3,0c0.6,0,1.2,0,1.8,0s1.2,0,1.8,0s1.2,0,1.8,0c6.8,0,12.8,0,19.8,0c0.6,0,1.2,0,1.8,0
		s1.2,0,1.8,0c2.4,0,5.4,0,7.2,0c0.6,0,1.2,0,1.8,0s1.2,0,1.8,0c27.6,1,54.6-1,81.6-4c3,0,7,1,10,1c15-1,31,2,46,2c27,0,55,0,82,1
		c0.6,0,1.1,0,1.6,0c83.7,0,161.7,0,230.4,0c1.1,0,1.6,0,2.1,0c29.9,0,60.9-4,88.9,7c-4-10,11-3,15.3-7c0.5,0,1,0,1.5,0
		c110.5,0,178.5,0,178.5,0h5.4h2.2v-28H1916z"/>
	<g id="hor_x5F_frame4_x5F_tex">
		<g>
			<path fill="none" stroke="#282828" stroke-width="2" stroke-linecap="round" stroke-linejoin="round" d="M454.1,15.4
				c0-0.3-31.5,0.2-31.5,0c0-1,64-0.5,64-0.9c0-0.7-74.7,0.9-74.7,0"/>
			<path fill="none" stroke="#282828" stroke-width="2" stroke-linecap="round" stroke-linejoin="round" d="M612.1,15
				c0-0.4-47.6,0.4-47.6,0c0-0.5,65.4-3,65.4-3.5c0-7.8-637.2,4.2-637.2,0"/>
			<path fill="none" stroke="#282828" stroke-width="2" stroke-linecap="round" stroke-linejoin="round" d="M711.2,12.2
				c0-0.4-32.7,0.3-32.7,0c0-1,80.7-4,80.7-4.8c0-3.8-770,8.3-770,0"/>
			<path fill="none" stroke="#282828" stroke-width="2" stroke-linecap="round" stroke-linejoin="round" d="M1200.2,13.7
				c0-0.6-120.8,0.7-120.8,0c0-0.9,163.8-0.9,163.8-3.3c0-3.3-484,4.2-484,0"/>
			<path fill="none" stroke="#282828" stroke-width="2" stroke-linecap="round" stroke-linejoin="round" d="M1736.6,14.9
				c0-0.4-38.9,0.4-38.9,0c0-1.3,210.8-14.7,210.8-16.4c0-10.3-1915.8,22.1-1915.8,0C-7.3-12,1930.9,3,1930.9-13.5
				c0-1.9-166,2-166,0"/>
		</g>
	</g>
	<path id="vert_x5F_frame2" fill="#061300" d="M838-798v1.5v0.9c0,0,0,3,0,8.7c0,0.5,0,1.1,0,1.6c9,33.3-7,68.3,1,104.3
		c1,7,1,13-1,20.1c0,0.4,0,1,0,1.5c0,107.9,0,266,0,422c0,0.6,0,1.2,0,1.7c0,3.7,6,5.7,5,7.7c-9,22-3,51-5.1,74.6
		c0.1,0.6,0.1,1.2,0.1,1.8c0,0.6,0,1.1,0,1.7c0,2,0,5,0,6.8c0,0.6,0,1.1,0,1.7c0,28.2,0,56,0,83c0,0.5,0,1.1,0,1.6
		c-2,13.9,3,27.9,0,41.4c0,0.5,0,1,0,1.6c0,21.7,0,42.8,0,63c0,0.5,0.1,0.9,0.1,1.4c0,2.6,0,6.6,0,9.3c0,0.4,0,0.9,0,1.3
		c0,5.3,0,10.5,0,15.7c0,0.6,0,1.3,0,1.9c0,10.3,0,20.3,0,30.1c0,0.6,0,1.2,0,1.8c0,0.6,0,1.2,0,1.8c3,45.6-1,90.6-5,136.6
		c0,1,3,5,4.9,7.6c0.1,0.7,0.1,1.2,0.1,1.7c0,15.6,0,24.2,0,24.2H866c0,0,0-49.1,0-126.3c0-0.6,0-1.2,0-2.2c5-45-9-95,6.7-136.7
		c-0.4-0.6-0.9-1.2-1.3-1.8c-5.2-7.3-9.7-15.8-5.6-24c0-0.6,0.1-1.2,0.2-1.8c0-319.3,0-785.3,0-785.3v-1v-1.3H838z"/>
	<g id="vert_x5F_frame2_x5F_tex">
		<g>
			<path fill="none" stroke="#282828" stroke-width="2" stroke-linecap="round" stroke-linejoin="round" d="M838.5,110.8
				c2.1,0-1.6-137,0-137c0.8,0-1.2,138.1,0.1,138.1c1,0-0.9-136.5,0-136.5"/>
			<path fill="none" stroke="#282828" stroke-width="2" stroke-linecap="round" stroke-linejoin="round" d="M833.5,240.5
				c0,0-0.1-10.5,0-10.5c0.4,0,18.9,42.5,19.4,42.5c10.9,0-11.4-1068.7,0-1068.7c11.3,0-1.7,1067.6,10.1,1067.6
				c14.8,0-11.6-1071.2,0-1071.2c9.7,0-5.2,1074.1,2.5,1074.1c1.9,0-1.5-196.5,0-196.5"/>
		</g>
	</g>
</g>
<g id="text" display="none">
	<rect x="-19.3" y="-164.2" display="inline" fill="none" width="569.2" height="274.2"/>
	
		<text transform="matrix(1 0 0 1 253.6499 -64.8398)" display="inline" opacity="0.8" font-family="'BradyBunchRemastered'" font-size="160">ikora</text>
	<rect x="377.8" y="167.3" display="inline" fill="none" width="421.9" height="274.2"/>
	
		<text transform="matrix(1 0 0 1 583.2593 210.7383)" display="inline" opacity="0.7" font-family="'BradyBunchRemastered'" font-size="70">about us</text>
</g>
</svg>
