<?xml version="1.0" encoding="utf-8"?>
<!-- Generator: Adobe Illustrator 16.0.0, SVG Export Plug-In . SVG Version: 6.00 Build 0)  -->
<!DOCTYPE svg PUBLIC "-//W3C//DTD SVG 1.1//EN" "http://www.w3.org/Graphics/SVG/1.1/DTD/svg11.dtd">
<svg version="1.1" xmlns="http://www.w3.org/2000/svg" xmlns:xlink="http://www.w3.org/1999/xlink" x="0px" y="0px" width="100%"
	 height="100%" viewBox="0 0 1008 282" enable-background="new 0 0 1008 282" xml:space="preserve" preserveAspectRatio="xMidYMid meet">

<g id="wall_x5F_fill">
	<rect id="wall_x5F_colour" x="-852" y="-798" fill="#D1CEB2" width="1920" height="1080"/>
</g>
<g id="wall_x5F_texture">
	<g id="etchy_x5F_background">
		<g id="_x33_x2_x5F_sketchy" opacity="0.2">
			<g>
				<path fill="none" stroke="#323600" stroke-width="3" stroke-linecap="round" stroke-linejoin="round" d="M11.5,9.2
					c0,0,990.8-47.7,990.8,0c0,88.2-990.8,6.6-990.8,6.6c0,56.8,990.8-56.1,990.8,0c0,60.7-990.8-52.5-990.8,5
					c0,53.7,990.8,0,990.8,0L11.5,26.7c0,19.4,990.8,0,990.8,0S11.5,0.1,11.5,32.4c0,48.2,990.8-25.3,990.8,0
					c0,0-990.8-25-990.8,6.8h990.8l-990.8,7c0,50.2,990.8,0,990.8,0c0,38.6-990.8,5.9-990.8,5.9s990.8-18.9,990.8,0
					c0,0-990.8-48.7-990.8,6.8c0,0,990.8-76.9,990.8,0c0,28.8-990.8-45.9-990.8,6.1h990.8c0,0-990.8-35.3-990.8,6.9
					c0,0,990.8-14.1,990.8,0c0,44.6-990.8,5.2-990.8,5.2c0,1.8,990.8,0,990.8,0c0,61.6-990.8,5.6-990.8,5.6
					c0,35.4,990.8-11.9,990.8,0c0,0-990.8-25.4-990.8,5.7c0,59.6,990.8,0,990.8,0L11.5,95c0,0,990.8-33.9,990.8,0
					c0,3.5-990.8-41-990.8,6.3c0,81.3,990.8-59.8,990.8,0c0,44.3-990.8,6-990.8,6h990.8c0,0-990.8,0-990.8,5.6
					c0,0,990.8-85.9,990.8,0c0,62.1-990.8,5.1-990.8,5.1c0,86.2,990.8-56.2,990.8,0c0,41.8-990.8,6.7-990.8,6.7
					c0,57.8,990.8-56.2,990.8,0c0,24.1-990.8,5.6-990.8,5.6c0,16.6,990.8-81,990.8,0c0,46.9-990.8-52.2-990.8,6
					c0,0,990.8-26.8,990.8,0c0,0-990.8-55.6-990.8,5.5c0,3.6,990.8,0,990.8,0S11.5,74.6,11.5,148.6h990.8
					c0,84.1-990.8,6.5-990.8,6.5c0,5.4,990.8-62.6,990.8,0c0,36.7-990.8,6-990.8,6c0,10.9,990.8-82.4,990.8,0
					c0,18.5-990.8-63.9-990.8,5.9c0,0,990.8-35.4,990.8,0l-990.8,6.2c0,77.1,990.8-70.4,990.8,0c0,0-990.8-30.9-990.8,5.4h990.8
					c0,74.9-990.8,6.1-990.8,6.1h990.8c0,0-990.8-11.2-990.8,6.1c0,0,990.8-17.9,990.8,0c0,35.4-990.8-11.8-990.8,5.9
					c0,46.4,990.8-36.1,990.8,0c0,15.8-990.8-72.3-990.8,5.6c0,0,990.8-86.7,990.8,0c0,0-990.8-0.1-990.8,6.4c0,0,990.8-9.3,990.8,0
					c0,0-990.8,1.6-990.8,6.5c0,72.4,990.8,0,990.8,0l-990.8,5.4c0,31.5,990.8-28,990.8,0c0,33.8-990.8,5.5-990.8,5.5
					s990.8-28.4,990.8,0c0,67.1-990.8,5-990.8,5c0,62.3,990.8,0,990.8,0s-990.8-53.7-990.8,6.6h990.8c0,31.9-990.8-60.8-990.8,5.7
					h990.8c0,72.9-990.8,4.9-990.8,6.5c0,0,990.8-18.7,990.8,0c0,40.7-990.8-61-990.8,6.9c0,69,990.8-54.5,990.8,0
					c0,0-990.8-68.1-990.8,6.9h990.8l-990.8,5.6c0,36.9,990.8,0,990.8,0c0,43.8-990.8,7-990.8,7c0,70,990.8-63.9,990.8,0"/>
			</g>
		</g>
	</g>
	<g id="panel_x5F_textures">
		<g id="Biege_x5F_texture">
			<g id="_x33_x2" opacity="0.4">
				<g>
					<path fill="none" stroke="#FFFFFF" stroke-linecap="round" stroke-linejoin="round" d="M7,278.1C25.1,278.1-9.1,7.4,7,7.4
						c12.6,0-12.8,266.3,8.2,266.3c17.7,0,0-271.5,0-271.5c11.1,0-10.8,268.9,7.9,268.9c13.5,0-8.2-264.2,0-264.2
						c17.8,0-3.4,265,8.5,265c10.6,0-10.3-263.7,0-263.7c9.8,0,1.3,265.6,8.9,265.6c0,0-14.2-272.2,0-272.2
						c3.3,0,7.8,277.2,7.8,277.2c6.9,0-1.1-271.9,0-271.9C49.3,7,38,274.2,57,274.2c18.9,0-5.8-270.4,0-270.4L65,273.1
						c9.1,0-9.9-272.2,0-272.2c15,0,7.5,276.6,7.5,276.6c17.4,0-12.2-275.2,0-275.2c0,0-13.2,269.2,8,269.2c18.7,0-13-264.8,0-264.8
						c13.1,0,8.4,265.7,8.4,265.7c0.7,0-5.8-269.2,0-269.2c0.9,0,7.4,268,7.4,268c23.1,0-14.1-264.5,0-264.5
						c1.9,0,5.7,270.3,8,270.3c0,0-23.5-268.9,0-268.9c9.8,0,6.7,270.9,7.6,270.9c12.7,0-7.8-275.9,0-275.9
						c22.1,0-14.7,272.7,7.9,272.7c0.7,0-3.3-273,0-273c6.6,0,8.9,270.3,8.9,270.3c18.2,0,0-271.7,0-271.7
						c2.7,0,5.3,277.9,8.7,277.9c7.4,0-4.4-272.6,0-272.6c12.9,0,7.2,266.6,7.2,266.6c7,0,0-263.1,0-263.1s-0.9,269.5,7.3,269.5
						c11.7,0-22.4-276.3,0-276.3c7.2,0,7.4,269.1,7.4,269.1c10.1,0-19-266.8,0-266.8c10.9,0,6.3,271.5,8.7,271.5
						c6.6,0-18.5-273.4,0-273.4c9,0,2.6,272.5,7,272.5c23.1,0-9.4-267.9,0-267.9c14.4,0-14.5,262.6,7.4,262.6
						c15.1,0-7.4-269.7,0-269.7c20.8,0,7,275.3,7,275.3c12.5,0-16.8-271.9,0-271.9c5,0,4.3,267.8,8.6,267.8c1,0-23.1-268.1,0-268.1
						c0,0-8.6,269.6,8.3,269.6c0,0-9.3-265.7,0-265.7c11.4,0-4.1,263.5,7.2,263.5c7.3,0-5-264.8,0-264.8c11.3,0-3.3,265.9,7.5,265.9
						c5.3,0-15.3-269.1,0-269.1c19.2,0-16.5,269.9,7.4,269.9c9,0-15.7-269.8,0-269.8c22,0,8.3,270.3,8.3,270.3c18.1,0-5.6-271,0-271
						c16.6,0,8,271.6,8,271.6c5,0,0-264.8,0-264.8c0.2,0-6.2,269.3,9,269.3c18.9,0-7.1-271.5,0-271.5c13.2,0-12.7,270.8,8,270.8
						c4.9,0-12.8-269.4,0-269.4c20.9,0-4.4,269.5,8.5,269.5c10.1,0-20.4-277.3,0-277.3c1.7,0-0.8,277.8,8.1,277.8
						c4.1,0-17.7-277.5,0-277.5c5,0,7.2,274.4,7.2,274.4c2.7,0-3.9-274.1,0-274.1c18.5,0-2.1,269.3,8.6,269.3
						c13.8,0-3.9-263.5,0-263.5c16.9,0-15,269.4,8.9,269.4c0.4,0-18.9-267.8,0-267.8c14.1,0-2.2,265.5,7.4,265.5
						c1.1,0-10.4-265.3,0-265.3c1.4,0-9.7,266.1,8.3,266.1c20.3,0,0-271.9,0-271.9c10.5,0,5.3,269.8,7.3,269.8
						c12.3,0-7.2-268.5,0-268.5c18.1,0,7.8,266.7,7.8,266.7s-6.2-268,0-268c8,0,2.6,275.7,7.4,275.7c22.1,0-3.1-268.9,0-268.9
						L348,272c21.9,0-21.9-262.7,0-262.7c12.6,0,5.1,269.5,8.2,269.5c20.3,0-13.2-271.8,0-271.8c12.6,0,7.6,272.4,7.6,272.4
						c18.3,0-22.3-273.9,0-273.9c19.5,0-12.3,273.6,8.4,273.6c0.7,0-10.5-268.9,0-268.9c1,0,8.7,262.8,8.7,262.8
						c4.8,0-3.8-265,0-265c4,0-12.4,263.6,8.5,263.6c7.4,0-2.6-261.2,0-261.2c0,0-2.9,262.8,7.9,262.8c21,0-18.6-270.2,0-270.2
						c18.6,0-1.4,272.8,8.4,272.8c13.9,0-15.7-272.2,0-272.2c20.7,0-14.2,269.5,7.2,269.5c20.8,0-1.4-265.7,0-265.7
						c16.6,0,3,270.3,7.3,270.3c0,0-1.7-272.1,0-272.1c14.6,0,7.2,272,7.2,272c7.5,0,0-268.9,0-268.9c15.3,0-3.8,264.4,8.2,264.4
						c6.1,0-10.4-268.6,0-268.6c3.4,0,2.2,275.3,8.8,275.3c9.3,0-18-269.1,0-269.1c21.4,0-14,268.4,7.5,268.4
						c10.5,0-6.6-274.3,0-274.3c5.1,0-6.7,274.6,8,274.6c16.8,0-14.4-274,0-274c20.7,0,5.2,268.4,8.2,268.4
						c12.8,0-5.3-272.5,0-272.5c20.6,0,6.8,273.9,8,273.9c12.9,0,0-273,0-273c23.4,0-17,278.7,7.1,278.7c3.8,0-6-277.9,0-277.9
						c23.3,0,8,277.3,8,277.3c14.6,0-4.9-274.6,0-274.6c0,0,6.8,272.8,7.4,272.8c15.5,0,0-275.9,0-275.9c10,0-10.4,277.4,7.2,277.4
						c13.1,0-23.3-271.1,0-271.1c15.7,0,3.6,271,7.2,271c15.6,0-23.2-269.9,0-269.9c0,0,8.1,261.2,8.4,261.2
						c10.5,0-19.1-268.7,0-268.7c20.2,0-4,269.5,8.7,269.5c0,0-13.4-268.6,0-268.6c20.3,0,2.9,273.2,8.6,273.2c2.2,0,0-270,0-270
						c21.5,0-14.8,269,8.6,269c20.7,0-20.9-271.6,0-271.6c19.9,0-3.2,271,7.9,271c1.7,0,0-271.9,0-271.9s0.3,270.8,7,270.8
						c24.2,0-9.1-270.3,0-270.3l8.1,271.7c3.7,0,0-267.5,0-267.5c3,0,3.9,264.6,7.6,264.6c0,0-4.9-267.2,0-267.2
						c6.3,0-3.3,273.2,8.6,273.2c11.8,0-4.6-273.3,0-273.3c0,0-5.7,267.3,8.8,267.3c20.5,0-8.7-261.5,0-261.5
						c0,0,6.8,261.4,7.8,261.4c3.8,0-20-262.3,0-262.3c20,0-7.4,264.1,8.7,264.1c16.7,0-23.1-265.3,0-265.3
						c0.3,0,6.4,270.6,7.6,270.6c3.1,0-20.6-273.1,0-273.1l7.8,270c7.2,0,0-267.2,0-267.2c4.5,0-4.1,263.5,8.1,263.5
						c11.3,0-23.7-261.8,0-261.8c19.9,0,0.8,267.1,8,267.1c23.7,0-8.3-272.3,0-272.3c0,0,3.3,274.3,8.1,274.3c19.7,0-16.5-273,0-273
						c0,0,4.8,266.5,8.6,266.5c0,0-16.4-270.9,0-270.9c2.5,0,4.2,272.7,8.7,272.7c1.5,0-12.3-266.6,0-266.6c0,0,3.7,270.9,7.3,270.9
						c20.7,0-22.2-269.5,0-269.5c10.9,0,4.6,261,7.5,261c11.5,0-11.8-264.1,0-264.1c15.9,0,0.1,266.8,7.6,266.8
						c3.2,0-17.6-262.9,0-262.9c4.7,0,3.3,266.7,7.9,266.7c19.2,0-21.1-270.1,0-270.1c17.1,0,0,272,7.2,272c10.3,0-20-274.7,0-274.7
						c3.6,0-15.6,276,7.8,276c0,0-14.7-274.8,0-274.8c9.8,0,2.5,266,7.2,266c0.1,0-6.2-269.1,0-269.1c6.2,0-4.6,269.4,8.1,269.4
						c20,0,0-270.5,0-270.5c0.8,0,5.4,276.8,8.9,276.8c12,0-17.3-267.8,0-267.8c0,0-14.8,260.6,7.5,260.6c8.4,0-8.5-262,0-262
						c5.1,0,9,270.2,9,270.2c0.2,0-19.1-277.1,0-277.1c19.2,0-10.7,272.7,7.7,272.7c19.9,0-20.9-264.2,0-264.2
						c13.6,0,8.8,262.1,8.8,262.1c8,0-16.3-262.1,0-262.1c10.5,0,8.6,264,8.6,264c14.6,0-22.6-269,0-269c15.6,0-9,273.6,8.5,273.6
						c14.5,0-13.4-272.2,0-272.2c20.2,0,7.9,271,8.7,271c15.7,0-16.9-268.6,0-268.6c7.7,0-7.7,269.7,7.7,269.7
						c0,0-10.7-271.2,0-271.2c5.6,0,2.3,268.5,8.9,268.5c21.1,0-18.7-271.8,0-271.8c16.1,0-4,272.2,7.8,272.2
						c11.9,0-1.3-273.1,0-273.1c16.7,0-4.7,271.6,9,271.6c7.5,0-0.5-271.6,0-271.6c18.2,0,4.2,274.6,8.8,274.6
						c13.6,0-18.6-272.4,0-272.4c21.2,0,8.3,267.6,8.3,267.6c15.7,0-20.1-269.4,0-269.4c19.4,0-10.6,272.4,7.9,272.4
						c17.4,0-19.9-268.8,0-268.8c2.2,0-13.4,267.5,7,267.5c1.2,0-16.3-267.1,0-267.1c15.6,0-1.4,269.9,8.3,269.9
						c5.4,0-17.2-268,0-268c4.5,0,7,266,7,266s-5.6-269.2,0-269.2c6.3,0,8,270.2,8,270.2c15.5,0-7.9-275.5,0-275.5
						c12.2,0,2.9,275.5,7.1,275.5c0,0-17.9-273.6,0-273.6c22.3,0,8.9,270.3,8.9,270.3c4.6,0,0-272.9,0-272.9
						c10.2,0,6.7,271.7,7.4,271.7c9.2,0,0-270.7,0-270.7c19.8,0-11.9,269.3,8.5,269.3c18.1,0-8.9-266.7,0-266.7
						c18.4,0-6.5,273.9,8.2,273.9c17.6,0-23.5-275.1,0-275.1c12.1,0,5.3,275,7.8,275c16.8,0-10.2-272.4,0-272.4
						c16.6,0,7.7,268.8,7.7,268.8c4.2,0-5-272.3,0-272.3c0,0,6.4,272.6,8.5,272.6c20.7,0-2-264.8,0-264.8c21.5,0-14,265.3,8.8,265.3
						c8.3,0-0.8-270.8,0-270.8c5.5,0,3.3,273.8,8.9,273.8c14.4,0-9.2-277.3,0-277.3c0,0-11.7,270.9,7.8,270.9
						c1.4,0-12-262.7,0-262.7c0.9,0,3,267.1,8.7,267.1c0,0-15.8-266.4,0-266.4l7.1,267.6c13.6,0-21.9-274,0-274
						c0,0-0.1,276.4,8.9,276.4c5.1,0-12.8-270.1,0-270.1"/>
				</g>
			</g>
		</g>
		<g id="colour_x5F_texture">
			<g id="_x33_x2blue_x5F_b">
				<g>
					<path fill="none" stroke="#8EB0BC" stroke-linecap="round" stroke-linejoin="round" d="M915.7,262c11.3,0-13.1-246.9,0-246.9
						c10.9,0-1.2,247.4,10.1,247.4c12.3,0-12.4-231,0-231c10.4,0-1.9,227,8.6,227c13.3,0-12.5-240.5,0-240.5
						c11.1,0-2.6,250.8,8,250.8c12.2,0-11.7-253.2,0-253.2c11.9,0,2.7,247.6,15.1,247.6c13.4,0-12.9-248.7,0-248.7
						c11.1,0,0.3,239.4,11.3,239.4c11.9,0-11.1-222.4,0-222.4"/>
				</g>
			</g>
			<g id="_x33_x2blue_x5F_a">
				<g>
					<path fill="none" stroke="#8EB0BC" stroke-linecap="round" stroke-linejoin="round" d="M48.6,264.1c11.3,0-13.2-249,0-249
						c11,0-1.2,249.4,10.1,249.4c12.4,0-12.5-233,0-233c10.4,0-2,229.1,8.6,229.1c13.4,0-12.6-242.5,0-242.5
						c11.1,0-2.7,252.8,8,252.8c12.3,0-11.7-255.3,0-255.3c12,0,2.6,249.6,15.1,249.6c13.5,0-13-250.7,0-250.7
						c11.2,0,4,241.4,15.1,241.4c12,0-11.2-224.4,0-224.4c10.1,0,5.2,218.8,15.5,218.8c12.6,0-13.4-227.6,0-227.6
						c9.4,0-3.7,228.5,7.1,228.5c11.1,0-13-224.7,0-224.7"/>
				</g>
			</g>
			<g id="_x33_x2yellow_x5F_a">
				<g>
					<path fill="none" stroke="#DDC04A" stroke-linecap="round" stroke-linejoin="round" d="M22.3,66.3c0,41.2,970.6-47.9,970.6,0
						c0,42.8-971-33.9-971,10.1c0,45,954.6-45.5,954.6,0c0,43.3-950.6-35.2-950.6,8.6c0,48.6,964.1-45.7,964.1,0
						c0,42.9-974.4-33.1-974.4,8c0,44.6,976.8-42.7,976.8,0c0,46.5-971.1-33.2-971.1,15.1c0,49,972.3-47.3,972.3,0
						c0,44.5-963-29.2-963,15.1c0,43.7,946-40.5,946,0"/>
				</g>
			</g>
		</g>
	</g>
	<g id="round_x5F_patches">
		<path id="_x33_x2b_1_" opacity="0.2" fill="#FAFFCD" d="M867,197.3c-19.8-27.1-129.2-84.7-201-103.4c-50.2-13.1-204.1,3.9-272,3.9
			c-61.9,0-200.3,47.2-243,72.9c-69.7,41.9-10.4,110-10.4,110l737,0C877.7,280.7,895,235.7,867,197.3z"/>
		<g id="_x33_x2a_1_" opacity="0.3">
			<g>
				<path fill="none" stroke="#FAFFCD" stroke-width="2" stroke-linecap="round" stroke-linejoin="round" d="M949,141.5
					c-0.4,0.3,3.6,2.2,2.6,3.1c-0.5,0.4-48.9-42.3-49.2-42c-5.2,4.4,65.2,73,62.9,74.9C963.5,179,875,79,872.9,80.8
					c-8.4,7.1,95,101,89,106.1c-3,2.5-75.6-95-79.7-91.6c-0.2,0.2,86.5,102,85.9,102.4c-5,4.2-92-114.7-99.9-108.1
					c-2.9,2.4,109.3,127.9,108.1,128.9c-5.8,4.9-125.3-141.8-125.5-141.7c-8.5,7.2,108,126.1,106.7,127.2
					c-5.1,4.3-98.7-118.7-99.8-117.7c-9.3,7.8,113.5,118.4,105.2,125.4c-0.9,0.8-105.6-130.4-110.8-126
					c-2.3,1.9,120.6,143,120.3,143.3c-3.9,3.3-132.6-142.7-135-140.7c-6.1,5.2,121.4,142.9,120.5,143.7
					c-7,5.8-138.4-155.1-143.8-150.6c-3.9,3.3,122.6,134.6,117,139.4C926.8,224.3,797,79.5,795.8,80.5
					c-6.5,5.5,145.3,163.3,140.5,167.4C935.8,248.3,793.7,74.6,783,83.6c-1.1,0.9,132,153.6,130.2,155.1
					c-3,2.5-118.1-146.3-127.9-138.1c-0.9,0.7,113.8,123.8,108,128.7c-5.3,4.4-122.6-142.9-124.8-141
					c-2.1,1.8,133.5,152.5,130.2,155.2c-10.9,9.1-129.5-164.8-137.4-158.2c-9.7,8.2,134.9,154.1,131.6,156.8
					c-7.4,6.2-108-142.1-115-136.2c-9.7,8.2,130,135,120.2,143.2c-7.8,6.6-144.6-163.8-148.3-160.7c-4,3.3,127.9,151.9,127.7,152.1
					c-8.4,7-126.4-160.3-132.1-155.5c-10.1,8.4,145,159.4,138.4,164.9c-8.5,7.1-128.8-152-135.8-146.1
					c-1.6,1.4,129.1,146.5,125.5,149.5c-4.2,3.5-144.8-168.6-147-166.8c-7.9,6.6,133.9,144.9,126.7,151
					c-1.1,0.9-132.4-137.7-132.6-137.5c-4.5,3.8,125.1,126.5,114,135.8c-9,7.5-134.9-148.3-135.7-147.6
					C687.2,97.9,831.5,230,823.2,237c-0.7,0.6-103.6-132.7-110.9-126.7c-4.9,4.1,116.2,121,107.6,128.2
					c-7.1,5.9-123.1-145.9-130.4-139.8c-11.3,9.5,134.9,160.4,134.7,160.5c-7.3,6.1-122.9-158.8-132.9-150.4
					c-7.7,6.5,135.5,148.9,129.3,154.1c-9.1,7.6-134.3-153.3-138.6-149.7c-10.7,9,119.1,131.4,113.9,135.8
					c-4.4,3.7-128.9-142-130.1-141c-8.5,7.1,130.4,136,120.8,144c-6.6,5.6-143.1-157.6-145.1-155.9
					c-4.4,3.7,139.3,149.7,131.3,156.4c-5.1,4.3-138-169.7-149.1-160.4c-9.1,7.6,132.1,141.9,124.5,148.3
					c-6.7,5.6-108.3-133.3-116.7-126.2c-7.6,6.4,116.2,119.5,106.9,127.3c-0.6,0.5-129.2-152.4-136.2-146.5
					c-10.4,8.7,148.1,153.9,137,163.2c-7.3,6.1-146.6-160.1-147.5-159.4c-1,0.8,148.4,162.8,141.5,168.6
					c-4.6,3.9-137.7-164-140-162.2c-8,6.7,142.3,146.9,131.1,156.3c-4.4,3.7-129.9-161.2-134.7-157.3
					c-2.7,2.3,119,141.5,118.8,141.6c-3,2.5-120.1-140.7-128.8-133.4c-4.3,3.6,115.8,136.4,115,137.1
					c-0.8,0.7-108.5-129.2-114.1-124.5c-10.5,8.8,125.2,134.5,118,140.6C692.2,271.3,557,97,552,101.2
					c-8.4,7,138.8,147.1,129.8,154.7c-0.1,0.1-130.6-143.8-131.2-143.2c-6.7,5.6,129,152.5,128.4,153.1
					c-8.3,6.9-137.9-164-147.2-156.1c-2.4,2,127,135.6,119.2,142.1c-0.5,0.4-135.3-148.9-139.2-145.6
					c-10.6,8.9,141.1,158.7,136.4,162.6c-8.2,6.9-139.6-161.9-140.6-161.1c-7.6,6.3,139.1,144,128.4,153
					c-0.1,0.1-128.6-155.8-133.1-152c-0.8,0.7,140.8,151.4,132.7,158.2c-4.6,3.8-126.7-157.1-134.4-150.6
					c-10.6,8.9,125.3,145.1,123.2,146.8c-7.4,6.2-116.4-141-126-133C492.2,135.4,623,268,618,272.2c-2.3,2-129.9-138.8-132.3-136.9
					c-9.1,7.6,108.7,129.2,108.5,129.3c-3.8,3.1-121.2-143.3-130.9-135.2c-5.2,4.3,132.8,139.6,123.6,147.3
					c-1.9,1.6-130.4-162.9-138.1-156.5c-6,5,128.4,151,127.4,151.9c-6.1,5.1-125-146.1-134.3-138.4c-5.1,4.3,104.7,121.7,103.2,123
					c-8,6.7-102.6-124.6-108-120C432.6,140.7,549,267,547.5,268.3c-1.3,1.1-110.9-132.4-115.5-128.6c-5.9,5,126,132.8,117.4,140
					c-8.4,7-129.7-163.8-138.1-156.8c-8.1,6.8,142.6,150.4,133,158.5c-7.2,6-137.3-163.5-142.2-159.4
					c-1.4,1.2,136.7,143.4,127.1,151.5c-4.2,3.5-128.6-151.7-132-148.9c-5,4.2,128,140.2,121.9,145.3c-1,0.8-120-147-126.8-141.3
					c-6.2,5.2,126.5,130.7,116.6,139c-1.2,1-117.9-128.8-118.1-128.6c-6.7,5.6,103.2,120,101.7,121.2
					c-8.2,6.9-102.5-118.7-102.7-118.5c-0.8,0.7,116.4,135.1,114.6,136.6c-3.1,2.6-125-156.1-134.7-147.9
					c-1.5,1.3,115.6,119.3,106.5,127c-4.6,3.8-101.7-112-104.2-110c-8.6,7.2,121.5,132.8,115.6,137.8
					c-0.2,0.1-111.8-137.5-115.3-134.6c-2.5,2.1,106.8,111.4,99,118c-0.8,0.6-97.5-118.1-100-116c-9.6,8,109.5,129.8,109.2,130.1
					C476.7,286,366.7,146,358.9,152.6c-9.1,7.6,101.7,108.8,95.6,113.9c-0.6,0.5-102-113.2-107.8-108.4c-8.6,7.2,95,94,85.5,102
					c-1.8,1.5-103.5-121.8-105.3-120.3c-1.4,1.2,117.6,122.7,109,129.9c-2.5,2.1-109.5-130.7-115.6-125.6
					c-2.4,2,119.7,128.6,112.8,134.4c-3.3,2.8-110.4-150-120.2-141.8c-6.1,5.1,132.2,138.7,122.9,146.5
					c-0.7,0.6-113.7-132.4-118.3-128.5c-1,0.8,105.1,117.9,101.5,120.9c-4,3.3-106.4-125.3-114.6-118.4
					C302.9,158.5,407.1,275,404.8,277c-2.2,1.9-102.2-116.1-109.2-110.3c-8.5,7.1,103.6,109.3,96.6,115.1
					c-4.1,3.4-109.9-133.5-118-126.7c-5.5,4.6,112.3,115.4,103.2,123c-2.1,1.7-104.7-115.1-107.2-113.1
					c-7.9,6.6,90.3,100,86.6,103.2C356.3,268.7,254.7,154,251.1,157c-4.4,3.7,92.5,101.8,88.3,105.3c-4,3.3-91.4-106.6-93.8-104.6
					c-7.1,6,95.2,108.4,92.7,110.5c-0.7,0.6-100.9-120.2-106.7-115.4c-7.4,6.2,109.2,116,102.2,121.8
					c-5.1,4.3-92.9-111.4-98.5-106.7c-3.5,2.9,90,95.4,84.1,100.3c-2,1.7-91.3-94.2-94.3-91.6c-1.1,1,94.6,99.3,88,104.9
					c-6.1,5.1-86-105.8-87.8-104.3c-0.6,0.5,82.8,94.4,80.7,96.2c-4.3,3.6-88.8-102.2-91.3-100c-7.5,6.3,79.2,89.5,76.8,91.5
					c-3.2,2.7-101.1-104-101.2-103.9c-4.8,4,90.8,106.1,89.7,107c-2.3,1.9-77.8-104-83.5-99.2c-1.9,1.6,91.6,107,90.5,107.9
					c-6.4,5.4-98.9-102.8-101.2-100.9c-1.3,1.1,68.2,73.9,64.6,76.9c-0.9,0.8-79.3-81.3-80.9-80c0,0,74.2,88.4,74.2,88.4
					c-6.1,5.1-83.3-96.8-89.4-91.7c-3.8,3.2,86.2,92.2,81,96.6c-1.4,1.2-76.1-81-76.1-81c-3.9,3.3,59.7,60.4,54.4,64.8
					c-1.2,1-50.1-51.9-51.5-50.8c-1.8,1.5,47.2,51.2,44.7,53.2c-3.5,3-46.7-52.6-48.3-51.3c-3.1,2.6,31.6,32,28.8,34.3
					c-1.2,1-40.9-50.3-43.4-48.3c-2.1,1.8,48.3,56.8,47.9,57.1c-2.3,1.9-47.4-56.8-48.6-55.8c-2.7,2.3,45.7,53.5,45.2,53.9
					c-2.6,2.2-54.1-48.2-56.3-46.3c-1.2,1,30.7,33,28.9,34.5c-2.1,1.8-37.6-37.4-40.2-35.3c-1.4,1.1,19.1,21.1,18.3,21.8
					c-1,0.8-15.8-13.2-16.7-12.4c0,0,21.2,24.1,20.6,24.5"/>
			</g>
		</g>
	</g>
</g>
<g id="wall_x5F_shadow" opacity="0.7">
	<rect id="_x33_x2d" x="6.8" y="2.8" opacity="0.3" width="52.9" height="280.7"/>
	<rect id="_x33_x2c" x="6.8" y="2.8" opacity="0.6" width="23.2" height="279.2"/>
	<path id="_x33_x2b" opacity="0.4" d="M1004.4,8.4c0,0,0,36.5,0,38.9c-4.7,0-1001.7-0.8-1001.7-0.8V8.4H1004.4z"/>
	<rect id="_x33_x2a" x="2.8" y="8.4" opacity="0.6" width="1001.7" height="18.5"/>
</g>

<g id="wall_frames">
	<path id="hor_x5F_frame4" fill="#061300" d="M1064-14C1064-14,1064-14,1064-14c0,0-31.4,0-86.2,0c-0.5,0-1.1,0-1.6,0
		C937-15,899-11,860-15c-25-2-51,0-76,0c-24,0-49,0-72.8,1c-0.5,0-0.9,0-1.4,0c-40,0-82.3,0-126.4,0c-0.5,0-1,0-1.6,0
		c-9.8,0-16.8-3-26.8,0c-6,2-13-4-19-3c-139,8-280,0-420.3,3c-0.4,0-1,0-1.5,0c-132.5,0-265.3,0-388.1,0c-0.6,0-1.2,0-1.8,0
		c-6.3,0-12.3,0-17.9,0c-0.6,0-1.2,0-1.8,0c-0.6,0-1.2,0-1.8,0c-0.6,0-1.2,0-1.8,0c-1,0-3,0-3.6,0c-0.6,0-1.2,0-1.8,0
		c-0.6,0-1.2,0-1.8,0c-0.6,0-1.2,0-1.8,0c-2.1,0-5.1,0-7.1,0c-0.6,0-1.2,0-1.8,0c-0.6,0-1.2,0-1.8,0c-37.5,1-75.5,1-112.7,0
		c-0.5,0-1.1,0-1.7,0c-8.2,0-16.3,0-24.4,0c-0.5,0-1.1,0-1.6,0c-14.1,3-28.1,1-42.6,0c-0.5,0-1,0-1.5,0c-5.1,0-10.3,0-15.3,0
		c-0.5,0-1,0-1.5,0c-13.1,2-27.1-1-40,0c-0.5,0-1,0-1.4,0C-736.1-14-852-14-852-14V14c0,0,172.5,0,413.8,0c0.8,0.2,1.4,0.3,2.2,0.5
		c31,3.4,62-0.6,92-0.6c42,0,84,4,127-1c3,0,6-2,9-2c37,0,76,6,111-4c0,4,3,6,6,7c0.6,0,1.2,0,1.8,0c100.2,0,203.4,0,304.9,0
		c0.6,0,1.2,0,1.8,0c21.5-1,43.5,1,65.3,0c0.6,0,1.2,0,1.8,0s1.2,0,1.8,0s1.2,0,1.8,0c6.8,0,12.8,0,19.8,0c0.6,0,1.2,0,1.8,0
		s1.2,0,1.8,0c2.4,0,5.4,0,7.2,0c0.6,0,1.2,0,1.8,0s1.2,0,1.8,0c27.6,1,54.6-1,81.6-4c3,0,7,1,10,1c15-1,31,2,46,2c27,0,55,0,82,1
		c0.6,0,1.1,0,1.6,0c83.7,0,161.7,0,230.4,0c1.1,0,1.6,0,2.1,0c29.9,0,60.9-4,88.9,7c-4-10,11-3,15.3-7c0.5,0,1,0,1.5,0
		c110.5,0,178.5,0,178.5,0h5.4h2.2v-28H1064z"/>
	<g id="hor_x5F_frame4_x5F_tex">
		<g>
			<path fill="none" stroke="#282828" stroke-width="2" stroke-linecap="round" stroke-linejoin="round" d="M348.2,13.7
				c0-0.6-120.8,0.7-120.8,0c0-0.9,163.8-0.9,163.8-3.3c0-3.3-484,4.2-484,0"/>
			<path fill="none" stroke="#282828" stroke-width="2" stroke-linecap="round" stroke-linejoin="round" d="M884.6,14.9
				c0-0.4-38.9,0.4-38.9,0c0-1.3,210.8-14.7,210.8-16.4c0-10.3-1915.8,22.1-1915.8,0c0-10.4,1938.2,4.6,1938.2-11.9
				c0-1.9-166,2-166,0"/>
			<path fill="none" stroke="#282828" stroke-width="2" stroke-linecap="round" stroke-linejoin="round" d="M857,20.5c0,0-3,0-3,0
				c0-0.2,16.7-3.5,16.7-3.7c0-0.1-30.1,0.1-30.1,0c0-0.3,17.9-0.9,17.9-1c0-0.3-16.3,0.2-16.3,0"/>
		</g>
	</g>
	<path id="vert_x5F_frame4" fill="#061300" d="M1022,282c0,0-4.9,0-10.6,0c-0.6,0-1.1,0-1.7,0c-5.8,0-12.8,5-14.8-3c-6-21,1-43-4-65
		c-1-4,5-13,3-21.5c-0.1-0.8-0.1-1.6-0.1-2.3c0-25.3,0-54.9,0-87.9c0-0.4,0-0.9,0-1.4c2-13,1-25-1-38c-4-28-7-59,0.4-84.6
		c0.5-1.4,0.6-2,0.6-2.6c0-113.4,0-243.8,0-364.8c0.1-0.7,0.2-1.3,0.2-1.9C995-394,997-398,997-401c-7-28-5-57,0-84c0-2-2-5-2.9-6.6
		c-0.1-0.6-0.1-1.1-0.1-1.7c0-172.2,0-304.8,0-304.8h28.1c0,0,0,627,0,925.5c0,0.5,0,0.9,0,1.4c-1,12,0,27-5,38c-3,7,4,14,4.8,20.7
		c0.1,0.8,0.2,1.6,0.2,2.4C1022,247.2,1022,282,1022,282z"/>
	<g id="vert_x5F_frame4_x5F_tex">
		<g>
			<path fill="none" stroke="#282828" stroke-width="2" stroke-linecap="round" stroke-linejoin="round" d="M989.4,34
				c0.2,0-0.4-35.2,0-35.2c3.9,0,10.5,276.4,13,276.4c16.2,0-13.7-1076.4,0-1076.4c5.5,0,6.5,1086.1,13,1086.1
				c12.4,0-15.9-1078.8,0-1078.8"/>
		</g>
	</g>
	<path id="vert_x5F_frame3" d="M554,0H526c0,0,0-140.7,0-303.9c0-0.8,0-1.5,0-2.3c0-18.8,0-38.8,0-57.9c0-0.6,0-1.6,0-3.3
		c0-52.3,0-105.2,0-155.3c0-0.8,0-1.6,0-2.4c-2-17.9-1.8-179.6,0-240.7c0-0.7,0-1.4,0-3c0-18.6,0-29.2,0-29.2H554
		c0,0,0,311.7,0,545.5c0,1.7,0,2.6,0,3.2c0,31.1,0,61.9,0,92.6c0,1.1,0,2.1,0,3.2c-1,40.6,0,81.6,0,123c0.1,0.6,0,2.3,0,3.2
		C554-9.8,554,0,554,0z"/>
	<g id="vert_x5F_frame3_x5F_tex">
		<g>
			<path fill="none" stroke="#282828" stroke-width="2" stroke-linecap="round" stroke-linejoin="round" d="M526.2,9.3
				c9.7,0-7.6-804.3,0-804.3C536.5-795.1,542.4,6,546.9,6c9.5,0-6.5-805.1,0-805.1c5.2,0-7.1,809.2,1,809.2c8.1,0-7.1-809.8,0-809.8
				"/>
		</g>
	</g>
	<path id="vert_x5F_frame2" fill="#061300" d="M-14-798v1.5v0.9c0,0,0,3,0,8.7c0,0.5,0,1.1,0,1.6C-5-752-21-717-13-681
		c1,7,1,13-1,20.1c0,0.4,0,1,0,1.5c0,107.9,0,266,0,422c0,0.6,0,1.2,0,1.7c0,3.7,6,5.7,5,7.7c-9,22-3,51-5.1,74.6
		c0.1,0.6,0.1,1.2,0.1,1.8c0,0.6,0,1.1,0,1.7c0,2,0,5,0,6.8c0,0.6,0,1.1,0,1.7c0,28.2,0,56,0,83c0,0.5,0,1.1,0,1.6
		C-16-43-11-29-14-15.5c0,0.5,0,1,0,1.6c0,21.7,0,42.8,0,63c0,0.5,0.1,0.9,0.1,1.4c0,2.6,0,6.6,0,9.3c0,0.4,0,0.9,0,1.3
		c0,5.3,0,10.5,0,15.7c0,0.6,0,1.3,0,1.9c0,10.3,0,20.3,0,30.1c0,0.6,0,1.2,0,1.8c0,0.6,0,1.2,0,1.8c3,45.6-1,90.6-5,136.6
		c0,1,3,5,4.9,7.6c0.1,0.7,0.1,1.2,0.1,1.7c0,15.6,0,24.2,0,24.2H14c0,0,0-49.1,0-126.3c0-0.6,0-1.2,0-2.2c5-45-9-95,6.7-136.7
		c-0.4-0.6-0.9-1.2-1.3-1.8c-5.2-7.3-9.7-15.8-5.6-24c0-0.6,0.1-1.2,0.2-1.8c0-319.3,0-785.3,0-785.3v-1v-1.3H-14z"/>
	<g id="vert_x5F_frame2_x5F_tex">
		<g>
			<path fill="none" stroke="#282828" stroke-width="2" stroke-linecap="round" stroke-linejoin="round" d="M14.5,138
				c0.3,0-0.4-38.9,0-38.9c0.4,0-0.4,40.5,0.1,40.5c0.3,0-0.3-36.9,0-36.9"/>
			<path fill="none" stroke="#282828" stroke-width="2" stroke-linecap="round" stroke-linejoin="round" d="M13.5,47.8
				c0.4,0-0.6-49.1,0-49.1c0.5,0,1,33.3,1.4,33.3c0.4,0-0.4-32.4,0-32.4c0.2,0,3.3,13.7,3.5,13.7c0.1,0-0.1-5.1,0-5.1
				c0,0,1.8,0.8,1.8,0.8c0,0,0-3.2,0-3.2"/>
			<path fill="none" stroke="#282828" stroke-width="2" stroke-linecap="round" stroke-linejoin="round" d="M-18.5,240.5
				c0,0-0.1-10.5,0-10.5c0.4,0,18.9,42.5,19.4,42.5c10.9,0-11.4-1068.7,0-1068.7c11.3,0-1.7,1067.6,10.1,1067.6
				c14.8,0-11.6-1071.2,0-1071.2c9.7,0-5.2,1074.1,2.5,1074.1c1.9,0-1.5-196.5,0-196.5"/>
		</g>
	</g>
</g>
<g id="text" display="none">
	<rect x="544.1" y="66.6" display="inline" fill="none" width="421.9" height="274.2"/>
	
		<text transform="matrix(1 0 0 1 786.4238 103.8594)" display="inline" opacity="0.7" font-family="'BradyBunchRemastered'" font-size="60">contact</text>
</g>
</svg>
