<?xml version="1.0" encoding="utf-8"?>
<!-- Generator: Adobe Illustrator 16.0.0, SVG Export Plug-In . SVG Version: 6.00 Build 0)  -->
<!DOCTYPE svg PUBLIC "-//W3C//DTD SVG 1.1//EN" "http://www.w3.org/Graphics/SVG/1.1/DTD/svg11.dtd">
<svg version="1.1" xmlns="http://www.w3.org/2000/svg" xmlns:xlink="http://www.w3.org/1999/xlink" x="0px" y="0px" width="100%"
	 height="100%" viewBox="0 0 60 282" enable-background="new 0 0 60 282" xml:space="preserve" preserveAspectRatio="xMidYMid meet">

<g id="wall_x5F_fill">
	<rect id="wall_x5F_colour" x="-1860" y="-798" fill="#D1CEB2" width="1920" height="1080"/>
</g>
<g id="wall_x5F_texture">
	<g id="etchy_x5F_background">
		<g id="_x33_x3_x5F_sketchy" opacity="0.2">
			<g>
				<path fill="none" stroke="#323600" stroke-width="3" stroke-linecap="round" stroke-linejoin="round" d="M5.7,4.1
					c0,0,50.3-2.4,50.3,0c0,4.5-50.3,6.6-50.3,6.6c0,2.9,50.3-2.8,50.3,0c0,3.1-50.3,2.1-50.3,5c0,2.7,50.3,0,50.3,0L5.7,21.6
					c0,1,50.3,0,50.3,0S5.7,25.7,5.7,27.3c0,2.4,50.3-1.3,50.3,0c0,0-50.3,5.2-50.3,6.8H56l-50.3,7c0,2.6,50.3,0,50.3,0
					c0,2-50.3,5.9-50.3,5.9s50.3-1,50.3,0c0,0-50.3,3.9-50.3,6.8c0,0,50.3-3.9,50.3,0c0,1.5-50.3,3.4-50.3,6.1H56
					c0,0-50.3,4.8-50.3,6.9c0,0,50.3-0.7,50.3,0C56,69.1,5.7,72,5.7,72c0,0.1,50.3,0,50.3,0c0,3.1-50.3,5.6-50.3,5.6
					c0,1.8,50.3-0.6,50.3,0c0,0-50.3,4.1-50.3,5.7c0,3,50.3,0,50.3,0L5.7,90c0,0,50.3-1.7,50.3,0c0,0.2-50.3,3.9-50.3,6.3
					c0,4.1,50.3-3,50.3,0c0,2.3-50.3,6.1-50.3,6.1H56c0,0-50.3,5.3-50.3,5.6c0,0,50.3-4.4,50.3,0c0,3.2-50.3,5.1-50.3,5.1
					c0,4.4,50.3-2.9,50.3,0c0,2.1-50.3,6.7-50.3,6.7c0,2.9,50.3-2.9,50.3,0c0,1.2-50.3,5.6-50.3,5.6c0,0.8,50.3-4.1,50.3,0
					c0,2.4-50.3,3.1-50.3,6c0,0,50.3-1.4,50.3,0c0,0-50.3,2.4-50.3,5.5c0,0.2,50.3,0,50.3,0s-50.3,2.8-50.3,6.6H56
					c0,4.3-50.3,6.5-50.3,6.5c0,0.3,50.3-3.2,50.3,0c0,1.9-50.3,6-50.3,6c0,0.6,50.3-4.2,50.3,0c0,0.9-50.3,2.4-50.3,5.9
					c0,0,50.3-1.8,50.3,0l-50.3,6.2c0,3.9,50.3-3.6,50.3,0c0,0-50.3,3.6-50.3,5.4H56c0,3.8-50.3,6.1-50.3,6.1H56
					c0,0-50.3,5.3-50.3,6.1c0,0,50.3-0.9,50.3,0c0,1.8-50.3,5-50.3,5.9c0,2.4,50.3-1.8,50.3,0c0,0.8-50.3,1.6-50.3,5.6
					c0,0,50.3-4.4,50.3,0c0,0-50.3,6.1-50.3,6.4c0,0,50.3-0.5,50.3,0c0,0-50.3,6.3-50.3,6.5c0,3.7,50.3,0,50.3,0l-50.3,5.4
					c0,1.6,50.3-1.4,50.3,0c0,1.7-50.3,5.5-50.3,5.5s50.3-1.4,50.3,0c0,3.4-50.3,5-50.3,5c0,3.2,50.3,0,50.3,0s-50.3,3.5-50.3,6.6
					H56c0,1.6-50.3,2.3-50.3,5.7H56c0,3.7-50.3,6.5-50.3,6.5c0,0,50.3-0.9,50.3,0c0,2.1-50.3,3.5-50.3,6.9c0,3.5,50.3-2.8,50.3,0
					c0,0-50.3,3-50.3,6.9H56l-50.3,5.6c0,1.9,50.3,0,50.3,0c0,2.2-50.3,7-50.3,7c0,3.6,50.3-3.2,50.3,0c0,0-50.3,5.1-50.3,6.5H56"/>
			</g>
		</g>
	</g>
	<g id="panel_x5F_textures">
		<g id="Biege_x5F_texture">
			<g id="_x33_x3" opacity="0.4">
				<g>
					<path fill="none" stroke="#FFFFFF" stroke-linecap="round" stroke-linejoin="round" d="M5.9,280.1c18.2,0-16.3-272.8,0-272.8
						c12.7,0-12.9,268.3,8.2,268.3c17.9,0,0-273.5,0-273.5c11.2,0-10.9,270.9,7.9,270.9c13.6,0-8.2-266.2,0-266.2
						c17.9,0-3.4,267,8.5,267c10.7,0-10.3-265.7,0-265.7c9.9,0,1.2,267.6,8.9,267.6c0,0-14.3-274.2,0-274.2
						c3.4,0,7.8,279.2,7.8,279.2c7,0-1.1-273.9,0-273.9c0.9,0-11.7,269.3,7.5,269.3c19,0-5.8-272.4,0-272.4"/>
				</g>
			</g>
		</g>
		<g id="colour_x5F_texture">
		</g>
	</g>
	<g id="round_x5F_patches">
	</g>
</g>
<g id="wall_x5F_shadow" opacity="0.7">
	<rect id="_x33_x3c" x="5.7" y="9" opacity="0.3" width="26.9" height="273"/>
	<rect id="_x33_x3b" x="5.7" y="8.4" opacity="0.4" width="54.3" height="38.9"/>
	<rect id="_x33_x3a" x="5.7" y="5.7" opacity="0.6" width="54.3" height="21.2"/>
</g>

<g id="wall_frames">
	<path id="hor_x5F_frame4" fill="#061300" d="M56-14C56-14,56-14,56-14c0,0-31.4,0-86.2,0c-0.5,0-1.1,0-1.6,0C-71-15-109-11-148-15
		c-25-2-51,0-76,0c-24,0-49,0-72.8,1c-0.5,0-0.9,0-1.4,0c-40,0-82.3,0-126.4,0c-0.5,0-1,0-1.6,0c-9.8,0-16.8-3-26.8,0
		c-6,2-13-4-19-3c-139,8-280,0-420.3,3c-0.4,0-1,0-1.5,0c-132.5,0-265.3,0-388.1,0c-0.6,0-1.2,0-1.8,0c-6.3,0-12.3,0-17.9,0
		c-0.6,0-1.2,0-1.8,0c-0.6,0-1.2,0-1.8,0c-0.6,0-1.2,0-1.8,0c-1,0-3,0-3.6,0c-0.6,0-1.2,0-1.8,0c-0.6,0-1.2,0-1.8,0
		c-0.6,0-1.2,0-1.8,0c-2.1,0-5.1,0-7.1,0c-0.6,0-1.2,0-1.8,0c-0.6,0-1.2,0-1.8,0c-37.5,1-75.5,1-112.7,0c-0.5,0-1.1,0-1.7,0
		c-8.2,0-16.3,0-24.4,0c-0.5,0-1.1,0-1.6,0c-14.1,3-28.1,1-42.6,0c-0.5,0-1,0-1.5,0c-5.1,0-10.3,0-15.3,0c-0.5,0-1,0-1.5,0
		c-13.1,2-27.1-1-40,0c-0.5,0-1,0-1.4,0c-174.8,0-290.7,0-290.7,0V14c0,0,172.5,0,413.8,0c0.8,0.2,1.4,0.3,2.2,0.5
		c31,3.4,62-0.6,92-0.6c42,0,84,4,127-1c3,0,6-2,9-2c37,0,76,6,111-4c0,4,3,6,6,7c0.6,0,1.2,0,1.8,0c100.2,0,203.4,0,304.9,0
		c0.6,0,1.2,0,1.8,0c21.5-1,43.5,1,65.3,0c0.6,0,1.2,0,1.8,0s1.2,0,1.8,0s1.2,0,1.8,0c6.8,0,12.8,0,19.8,0c0.6,0,1.2,0,1.8,0
		s1.2,0,1.8,0c2.4,0,5.4,0,7.2,0c0.6,0,1.2,0,1.8,0s1.2,0,1.8,0c27.6,1,54.6-1,81.6-4c3,0,7,1,10,1c15-1,31,2,46,2c27,0,55,0,82,1
		c0.6,0,1.1,0,1.6,0c83.7,0,161.7,0,230.4,0c1.1,0,1.6,0,2.1,0c29.9,0,60.9-4,88.9,7c-4-10,11-3,15.3-7c0.5,0,1,0,1.5,0
		c110.5,0,178.5,0,178.5,0h5.4H60v-28H56z"/>
	<g id="hor_x5F_frame4_x5F_tex">
		<g>
			<path fill="none" stroke="#282828" stroke-width="2" stroke-linecap="round" stroke-linejoin="round" d="M-123.4,14.9
				c0-0.4-38.9,0.4-38.9,0c0-1.3,210.8-14.7,210.8-16.4c0-10.3-1915.8,22.1-1915.8,0C-1867.3-12,70.9,3,70.9-13.5c0-1.9-166,2-166,0
				"/>
		</g>
	</g>
	<path id="vert_x5F_frame4" fill="#061300" d="M14,282c0,0-4.9,0-10.6,0c-0.6,0-1.1,0-1.7,0c-5.8,0-12.8,5-14.8-3c-6-21,1-43-4-65
		c-1-4,5-13,3-21.5c-0.1-0.8-0.1-1.6-0.1-2.3c0-25.3,0-54.9,0-87.9c0-0.4,0-0.9,0-1.4c2-13,1-25-1-38c-4-28-7-59,0.4-84.6
		c0.5-1.4,0.6-2,0.6-2.6c0-113.4,0-243.8,0-364.8c0.1-0.7,0.2-1.3,0.2-1.9C-13-394-11-398-11-401c-7-28-5-57,0-84c0-2-2-5-2.9-6.6
		c-0.1-0.6-0.1-1.1-0.1-1.7c0-172.2,0-304.8,0-304.8H14c0,0,0,627,0,925.5c0,0.5,0,0.9,0,1.4c-1,12,0,27-5,38c-3,7,4,14,4.8,20.7
		c0.1,0.8,0.2,1.6,0.2,2.4C14,247.2,14,282,14,282z"/>
	<g id="vert_x5F_frame4_x5F_tex">
		<g>
			<path fill="none" stroke="#282828" stroke-width="2" stroke-linecap="round" stroke-linejoin="round" d="M-18.6,34
				c0.2,0-0.4-35.2,0-35.2c3.9,0,10.5,276.4,13,276.4c16.2,0-13.7-1076.4,0-1076.4C0-801.2,0.9,285,7.4,285
				c12.4,0-15.9-1078.8,0-1078.8"/>
		</g>
	</g>
</g>
<g id="text" display="none">
</g>
</svg>
