<?xml version="1.0" encoding="utf-8"?>
<!-- Generator: Adobe Illustrator 16.0.0, SVG Export Plug-In . SVG Version: 6.00 Build 0)  -->
<!DOCTYPE svg PUBLIC "-//W3C//DTD SVG 1.1//EN" "http://www.w3.org/Graphics/SVG/1.1/DTD/svg11.dtd">
<svg version="1.1" id="Layer_1" xmlns="http://www.w3.org/2000/svg" xmlns:xlink="http://www.w3.org/1999/xlink" x="0px" y="0px"
	 width="188.8px" height="38px" viewBox="0 0 188.8 38" enable-background="new 0 0 188.8 38" xml:space="preserve">
<g id="about_us">
	<g id="O_3_">
		<g>
			<path d="M57.7,15.4c1.8,0.4,3.8-0.5,5.5-1c0.8-0.2,1.4-0.5,1.9-1.1c1-1.2,0.1-1.4-0.9-1.7c-1.2-0.3-2.3,0.1-3.4,0.4
				c-1.6,0.4-3.2,0.7-4.7,1.5c-5.3,2.8-8,10.9-7.2,16.5c1.1,8.5,10.7,6.5,16.4,4.3C74.2,31,78.8,20,76.9,11.1
				c-0.6-2.9-2.4-5-5.6-4.7C68.2,6.8,64,7.9,62,10.3c0.8-1,3.6-0.2,4.4-1.2c0.8-0.9,1.5-1.5,2.5-2c2.1-1.1-3.5,0.6-1.5,0.4
				c0.4-0.1,0.8,0,1.2,0.1c1.5,0.2,2.5,1.3,3.2,2.5c1.6,2.8,1.3,6.7,0.9,9.8c-0.6,4.3-2.6,8-5.5,11.3c-0.9,1-1.9,1.8-2.9,2.6
				c-0.6,0.5-1.3,0.9-1.9,1.2c-0.9,0.5-2.8,0.8,0.3,0.3c-1.7,0.3-3.6,0.1-5.2-0.5c-5.8-2.3-4.4-10.4-2.6-14.9c1.1-2.6,2.7-5.1,5-6.9
				c0.4-0.3,0.9-0.6,1.4-0.8c1.7-0.8-4.6,1-2.7,0.7c0.3-0.1,0.6,0,0.9,0c0.6,0,1.2,0.3,1.7,0.5c1,0.5-1,2-1.5,2.2
				c1.5-0.4,2.9-0.8,4.4-1.2c-0.7,0.1-1.1,0.1-1.8-0.1C60.7,14,59,15.7,57.7,15.4L57.7,15.4z"/>
		</g>
	</g>
	<g id="A_x5F_alt">
		<g>
			<g>
				<path d="M10.2,1.2C7.8,13,2.8,24,0,35.6c0.2-0.7,4.2-0.5,4.4-1.2C7.2,22.8,12.3,11.8,14.6,0C14.5,0.6,10.3,0.5,10.2,1.2
					L10.2,1.2z"/>
			</g>
		</g>
		<g>
			<g>
				<path d="M10.2,2c3,6.3,4.3,13.3,5.4,20.1c0.5,3,0.9,6.1,1.4,9c0.4,2,1.2,5.2-0.4,6.8c0.9-0.9,3.5-0.3,4.4-1.2
					c1.6-1.7,0.8-4.8,0.4-6.8c-0.6-3-1-6-1.4-9C19,14.1,17.7,7.1,14.6,0.9C14.5,0.6,10.3,2.2,10.2,2L10.2,2z"/>
			</g>
		</g>
		<g>
			<g>
				<path d="M1.5,20.3c0.9,3.1,9.2,1.5,11.4,1.2c2.4-0.3,4.7-0.6,7.2-0.9c0.4,0,1.2,0,1.5-0.1c1.4-0.5,3-0.7,4.4-1.2
					c-0.3,0.1-0.9,0.1-1.2,0.1c-2.4,0.3-4.7,0.6-7.1,0.9c-2.3,0.3-10.8,2.1-11.8-1.1C5.9,19.1,1.5,20.3,1.5,20.3L1.5,20.3z"/>
			</g>
		</g>
	</g>
	<g id="S_2_">
		<g>
			<path d="M181.3,9.5c2.5-0.7,4.6-3,5.5-5.4c1.2-3.3-4.4-1.4-5.7-1.1c-3.7,1-6.5,3-8.5,6.4c-2.2,3.5-2,7.3,2.3,8.6
				c3.7,1.1,6.8,1.6,8.7,5.4c2,3.8,0.3,8.4-2.7,11.1c-0.6,0.5-1.2,0.9-1.9,1.3c-0.4,0.2-0.7,0.4-1.1,0.5c0.7-0.2,1.3-0.3,1.9-0.5
				c-0.6,0.1-1.2,0.2-1.8,0.3c-2,0.2-4.1-0.2-5.8-1.2c-3.3-2-3.9-7.9-0.3-9.7c-1.3,0.7-3.1,0.5-4.4,1.2c-3.6,1.9-2.9,7-0.2,9.4
				c2.6,2.3,6.8,1.6,9.9,0.8c3.3-0.9,6.5-1.6,8.9-4.1c2.7-2.9,3.3-7.3,1.5-10.7c-1.9-3.6-5.5-4-8.9-5c-4.2-1.2-3.5-5.3-1.8-8.4
				c1-1.8,2.5-3.4,4.2-4.6c0.4-0.3,0.7-0.5,1.1-0.7c2-1.2-3.1,0.4-1.1,0.3c0.6,0,1.1,0.3,1.3,0.8c1.2,2.1-3.3,6-4.9,6.5
				c-0.8,0.3,0.7-0.2,0.8-0.2C179.3,10.1,180.3,9.8,181.3,9.5L181.3,9.5z"/>
		</g>
	</g>
	<g id="b">
		<g>
			<g>
				<path d="M29.8,2.2c0,7.8-0.8,15.5-1.5,23.2C27.9,29,29,35.4,25,37.5c1.3-0.7,3.1-0.5,4.4-1.2c3.8-1.9,3.1-8.2,3.2-11.7
					C33,16.7,34.2,8.9,34.2,1C34.2,1.4,29.8,1.7,29.8,2.2L29.8,2.2z"/>
			</g>
		</g>
		<g>
			<g>
				<path d="M28,33.2c2.7,2.6,5.2,3.6,8.8,2.6c3.6-1,5.9-1.9,7.6-5.6c1.6-3.5,1.7-8.7-2.8-10c-2.5-0.7-6.7,0.9-8.9,2
					c1.3-0.7,3-0.5,4.4-1.2c0.6-0.3,1.2-0.6,1.8-0.7c-1.4,0.4-2.7,0.7-4.1,1.1c9-1.6,7.1,12.2,0.9,14.6c0.2-0.1,0.4-0.1,0.7-0.2
					c-0.2,0.1-0.3,0.1-0.5,0.2c1.3-0.4,2.5-0.7,3.7-1c-2.9,0.5-5.2-1.2-7.2-3C31.8,31.5,28.6,33.8,28,33.2L28,33.2z"/>
			</g>
		</g>
	</g>
	<g id="u">
		<g>
			<path d="M84.2,13.1c-4,5.3-6.4,24.7,4.1,24.4c1.8,0,3.9-0.8,5.5-1.4c2.2-0.8,3.4-2.8,4.3-4.9c1.9-4.4,2.4-9.7,2.4-14.6
				c0,0.4-4.4,0.8-4.4,1.2c0,3.6-0.4,7.2-1.2,10.7c-0.8,3.3-2.1,7.5-5.5,8.7c0.2-0.1,0.4-0.1,0.7-0.2c4.6-1.3,1.9-0.6,0.1-1.2
				c-1-0.4-1.9-1.2-2.5-2c-1.6-2-2-4.8-2.2-7.2c-0.4-4.7,0.3-10.9,3.2-14.8C87.9,12.9,84.9,12.1,84.2,13.1L84.2,13.1z"/>
		</g>
	</g>
	<g id="u_1_">
		<g>
			<path d="M146.7,13.1c-4,5.3-6.4,24.7,4.1,24.4c1.8,0,3.9-0.8,5.5-1.4c2.2-0.8,3.4-2.8,4.3-4.9c1.9-4.4,2.4-9.7,2.4-14.6
				c0,0.4-4.4,0.8-4.4,1.2c0,3.6-0.4,7.2-1.2,10.7c-0.8,3.3-2.1,7.5-5.5,8.7c0.2-0.1,0.4-0.1,0.7-0.2c4.6-1.3,1.9-0.6,0.1-1.2
				c-1-0.4-1.9-1.2-2.5-2c-1.6-2-2-4.8-2.2-7.2c-0.4-4.7,0.3-10.9,3.2-14.8C150.4,12.9,147.5,12.1,146.7,13.1L146.7,13.1z"/>
		</g>
	</g>
	<g id="t">
		<g>
			<g>
				<path d="M106.5,1.7c0,6.2,0,12.3,0,18.5c0,5.9-0.7,12.1,0.4,17.9c0-0.1,4.4-1,4.4-1.2c-1.1-5.8-0.4-12-0.4-17.9
					c0-6.2,0-12.3,0-18.5C110.9,0.8,106.5,1.2,106.5,1.7L106.5,1.7z"/>
			</g>
		</g>
		<g>
			<g>
				<path d="M96.3,9.7c1.7,0.4,3.9-0.7,5.4-1.1c2.4-0.7,4.6-1.4,7-2.2c1.6-0.6,3.2-1.2,4.8-1.7c0.7-0.2,1.3-0.5,2-0.7
					c0.8-0.3,0.7-0.2-0.5,0.1c0.5-0.1,1.1-0.2,1.6-0.3c1.6-0.3,4.1-0.5,4.8,1.5c0,0.1,4.4-1.2,4.4-1.2c-1.3-3.8-10.1-0.2-12.5,0.4
					c-2.9,0.8-5.6,1.8-8.4,2.8c-1.4,0.5-2.9,1-4.3,1.5c-2.6,0.9,3.7-0.7,1.1-0.3c-0.3,0-0.7,0-1,0C99.3,8.3,97.6,10,96.3,9.7
					L96.3,9.7z"/>
			</g>
		</g>
	</g>
</g>
</svg>
