<?xml version="1.0" encoding="utf-8"?>
<!-- Generator: Adobe Illustrator 16.0.0, SVG Export Plug-In . SVG Version: 6.00 Build 0)  -->
<!DOCTYPE svg PUBLIC "-//W3C//DTD SVG 1.1//EN" "http://www.w3.org/Graphics/SVG/1.1/DTD/svg11.dtd">
<svg version="1.1" id="Layer_1" xmlns="http://www.w3.org/2000/svg" xmlns:xlink="http://www.w3.org/1999/xlink" x="0px" y="0px"
	 width="208.9px" height="64.6px" viewBox="0 0 208.9 64.6" enable-background="new 0 0 208.9 64.6" xml:space="preserve">
<g id="vision">
	<g id="i_1_">
		<g>
			<g>
				<path d="M43.9,29.4c0,7.5,0,15,0,22.6c0-0.5,6.4-1.1,6.4-1.7c0-7.5,0-15,0-22.6C50.4,28.2,43.9,28.7,43.9,29.4L43.9,29.4z"/>
			</g>
		</g>
		<g>
			<g>
				<path d="M38.5,21.1c4.9-2.7,22.7-6.5,20-14.8c0-0.1-5.8,1.5-6.4,1.7c-3.9,1.5-7.4,4.5-8.9,8.5c0.4-1.2,6-0.4,6.4-1.7
					c1.5-4,5-7,8.9-8.5c-2.1,0.6-4.3,1.2-6.4,1.7c2.7,8.3-15.1,12.1-20,14.8C34,21.7,36.7,22.1,38.5,21.1L38.5,21.1z"/>
			</g>
		</g>
	</g>
	<g id="i_2_">
		<g>
			<g>
				<path d="M103.1,29.5c0,7.5,0,15,0,22.6c0-0.5,6.4-1.1,6.4-1.7c0-7.5,0-15,0-22.6C109.6,28.3,103.1,28.9,103.1,29.5L103.1,29.5z"
					/>
			</g>
		</g>
		<g>
			<g>
				<path d="M97.7,21.1c4.9-2.7,22.7-6.5,20-14.8c0-0.1-5.8,1.5-6.4,1.7c-3.9,1.5-7.4,4.5-8.9,8.5c0.4-1.2,6-0.4,6.4-1.7
					c1.5-4,5-7,8.9-8.5c-2.1,0.6-4.3,1.2-6.4,1.7c2.7,8.3-15.1,12.1-20,14.8C93.2,21.8,95.9,22.2,97.7,21.1L97.7,21.1z"/>
			</g>
		</g>
	</g>
	<g id="O_2_">
		<g>
			<path d="M131.8,20.5c2.7,0.5,5.5-0.7,8.1-1.4c1.2-0.3,2-0.7,2.8-1.6c1.4-1.7,0.1-2.1-1.3-2.4c-1.7-0.4-3.3,0.1-5,0.5
				c-2.3,0.6-4.7,1-6.9,2.1c-7.8,4.1-11.7,16-10.6,24.2c1.6,12.5,15.7,9.5,24.1,6.3c12.9-4.9,19.7-21,17-34
				c-0.9-4.3-3.5-7.4-8.2-6.9C147.2,7.8,141,9.5,138,13c1.1-1.4,5.3-0.3,6.4-1.7c1.1-1.3,2.2-2.1,3.7-3c3-1.6-5.1,0.9-2.1,0.5
				c0.6-0.1,1.2,0,1.8,0.1c2.1,0.2,3.7,1.8,4.7,3.6c2.3,4.1,1.8,9.8,1.3,14.4c-0.9,6.3-3.8,11.8-8.1,16.5c-1.3,1.4-2.7,2.6-4.2,3.8
				c-0.9,0.7-1.8,1.3-2.8,1.8c-1.3,0.7-4.1,1.2,0.4,0.4c-2.5,0.4-5.3,0.1-7.7-0.7c-8.4-3.3-6.4-15.3-3.8-21.8
				c1.6-3.8,3.9-7.5,7.3-10.1c0.6-0.4,1.3-0.8,2-1.1c2.5-1.2-6.7,1.4-4,1c0.4-0.1,0.8,0,1.3,0c0.9,0.1,1.7,0.4,2.5,0.7
				c1.5,0.7-1.5,3-2.1,3.3c2.1-0.6,4.3-1.2,6.4-1.7c-1,0.1-1.6,0.1-2.6-0.1C136.2,18.4,133.7,20.9,131.8,20.5L131.8,20.5z"/>
		</g>
	</g>
	<g id="S_1_">
		<g>
			<path d="M81.4,10.7c3.6-1,6.8-4.4,8.1-7.9C91.2-2,83,0.7,81.1,1.2c-5.5,1.5-9.5,4.4-12.5,9.4c-3.2,5.1-2.9,10.7,3.4,12.6
				c5.4,1.6,10,2.4,12.8,7.9c2.9,5.6,0.4,12.3-3.9,16.3c-0.8,0.7-1.8,1.3-2.8,1.8c-0.5,0.3-1,0.5-1.6,0.7c1-0.2,1.9-0.4,2.8-0.7
				c-0.9,0.1-1.8,0.3-2.7,0.4c-3,0.3-6-0.2-8.5-1.7c-4.9-2.9-5.7-11.5-0.4-14.2c-1.9,1-4.5,0.7-6.4,1.7c-5.3,2.7-4.2,10.3-0.3,13.8
				c3.8,3.4,10,2.4,14.5,1.2c4.9-1.3,9.5-2.3,13.1-6.1c4-4.2,4.8-10.6,2.1-15.8c-2.7-5.2-8.1-5.8-13.1-7.4
				c-6.1-1.8-5.2-7.8-2.7-12.3c1.5-2.7,3.7-5,6.1-6.7c0.5-0.4,1-0.7,1.6-1c3-1.7-4.6,0.5-1.6,0.4c0.8,0,1.6,0.4,1.9,1.1
				c1.7,3-4.9,8.8-7.2,9.5c-1.2,0.4,1-0.2,1.2-0.3C78.5,11.5,79.9,11.2,81.4,10.7L81.4,10.7z"/>
		</g>
	</g>
	<g id="v">
		<g>
			<path d="M6.5,16.5c0-0.2-0.1-0.4-0.1-0.7c-2,0.5-4,1.1-6,1.6c0.1,0,2.5,7.1,2.7,7.8c0.9,3,1.5,6.2,2,9.3c1.1,6.2,2,12.4,4.5,18.2
				c0-0.1,6.3-1.3,6.4-1.7c4.6-16.9,10.5-35.6,26.1-45.3c-1.8,1.1-4.6,0.6-6.4,1.7C20.1,17.1,14.3,35.9,9.7,52.7
				c2.1-0.6,4.3-1.2,6.4-1.7c-4.9-11.3-3.8-24.3-9.6-35.3c-0.1,0-0.3,0.1-0.4,0.1H6c-0.5,0.1-6,1.5-6,1.6c0,0.2,0.1,0.4,0.1,0.7
				C0,18,6.5,16.8,6.5,16.5L6.5,16.5z"/>
		</g>
	</g>
	<g id="n">
		<g>
			<path d="M167.9,18c2.8,10.3,3,21.6,0.7,32c2.1-0.6,4.3-1.2,6.4-1.7c1.1-6.9,4.9-13.3,8.7-19c3.5-5.2,7.8-11.2,14-13.5
				c-1,0.3-2.1,0.6-3.2,0.9c0.3-0.1,0.6-0.1,1-0.2c-1.1,0.3-2.1,0.5-3.3,0.8c10.7-1.6,10.4,12.8,9.6,19.7c-1,9.8-4.1,18.6-8,27.5
				c0.5-1.3,5.8-0.4,6.4-1.7c3-7,5.5-13.7,7-21.3c1.4-7,3.1-16.7-1.1-23.1c-1.8-2.6-5-3.5-7.9-2.7c-4.5,1.1-8.6,2.1-12.2,5
				c-4.2,3.4-7.5,8.4-10.4,13c-3.1,5-5.9,10.5-6.9,16.3c0.1-0.9,6.2-0.7,6.4-1.7c2.3-10.4,2.1-21.7-0.7-32
				C174.3,16.2,167.9,18,167.9,18L167.9,18z"/>
		</g>
	</g>
</g>
</svg>
