<?xml version="1.0" encoding="utf-8"?>
<!-- Generator: Adobe Illustrator 16.0.0, SVG Export Plug-In . SVG Version: 6.00 Build 0)  -->
<!DOCTYPE svg PUBLIC "-//W3C//DTD SVG 1.1//EN" "http://www.w3.org/Graphics/SVG/1.1/DTD/svg11.dtd">
<svg version="1.1" id="Layer_1" xmlns="http://www.w3.org/2000/svg" xmlns:xlink="http://www.w3.org/1999/xlink" x="0px" y="0px"
	 width="202.4px" height="52.1px" viewBox="0 0 202.4 52.1" enable-background="new 0 0 202.4 52.1" xml:space="preserve">
<g id="contact">
	<g id="O_4_">
		<g>
			<path d="M38.6,17.5c2.1,0.4,4.3-0.5,6.2-1.1c0.9-0.2,1.5-0.6,2.2-1.3c1.1-1.3,0.1-1.6-1-1.9c-1.3-0.3-2.6,0.1-3.8,0.4
				c-1.8,0.5-3.7,0.8-5.3,1.7c-6,3.1-9,12.4-8.2,18.7c1.3,9.6,12.2,7.3,18.6,4.9c10-3.8,15.2-16.2,13.1-26.3
				c-0.7-3.3-2.7-5.7-6.3-5.3c-3.5,0.4-8.3,1.7-10.6,4.5c0.9-1.1,4.1-0.2,5-1.3c0.9-1,1.7-1.7,2.9-2.3c2.3-1.3-3.9,0.7-1.7,0.4
				c0.5-0.1,0.9,0,1.4,0.1c1.7,0.2,2.9,1.4,3.6,2.8c1.8,3.2,1.4,7.6,1,11.1c-0.7,4.9-3,9.1-6.3,12.7c-1,1.1-2.1,2-3.3,2.9
				c-0.7,0.5-1.4,1-2.2,1.4c-1,0.6-3.2,0.9,0.3,0.3c-1.9,0.3-4.1,0.1-5.9-0.6c-6.5-2.6-5-11.8-2.9-16.8c1.2-3,3-5.8,5.7-7.8
				c0.5-0.3,1-0.6,1.5-0.9c1.9-0.9-5.2,1.1-3.1,0.8c0.3-0.1,0.6,0,1,0c0.7,0.1,1.3,0.3,1.9,0.5c1.1,0.5-1.1,2.3-1.7,2.5
				c1.7-0.5,3.3-0.9,5-1.3c-0.7,0.1-1.3,0.1-2-0.1C42.1,15.8,40.1,17.8,38.6,17.5L38.6,17.5z"/>
		</g>
	</g>
	<g id="A_x5F_alt_1_">
		<g>
			<g>
				<path d="M132.3,1.8c-2.7,13.4-8.4,25.8-11.6,39c0.2-0.7,4.7-0.5,5-1.3c3.1-13.2,8.9-25.7,11.6-39C137.1,1.2,132.4,1,132.3,1.8
					L132.3,1.8z"/>
			</g>
		</g>
		<g>
			<g>
				<path d="M132.3,2.8c3.4,7.1,4.9,15.1,6.1,22.8c0.6,3.4,1,6.9,1.6,10.2c0.5,2.2,1.3,5.9-0.5,7.7c1-1,3.9-0.3,5-1.3
					c1.8-1.9,0.9-5.4,0.5-7.7c-0.6-3.4-1.1-6.8-1.6-10.2c-1.2-7.8-2.6-15.7-6.1-22.8C137.1,1.1,132.4,3,132.3,2.8L132.3,2.8z"/>
			</g>
		</g>
		<g>
			<g>
				<path d="M122.4,23.5c1,3.5,10.4,1.7,12.9,1.3c2.7-0.3,5.4-0.7,8.1-1c0.5-0.1,1.3,0,1.7-0.1c1.6-0.6,3.4-0.7,5-1.3
					c-0.3,0.1-1,0.1-1.4,0.1c-2.7,0.3-5.4,0.6-8,1c-2.6,0.3-12.3,2.3-13.3-1.3C127.3,22.1,122.4,23.5,122.4,23.5L122.4,23.5z"/>
			</g>
		</g>
	</g>
	<g id="n_1_">
		<g>
			<path d="M64.9,16.2c2.2,7.9,2.3,16.7,0.6,24.7c1.7-0.5,3.3-0.9,5-1.3c0.9-5.3,3.8-10.3,6.7-14.7c2.7-4.1,6.1-8.6,10.8-10.4
				c-0.8,0.2-1.7,0.5-2.5,0.7c0.2-0.1,0.5-0.1,0.7-0.2c-0.9,0.2-1.7,0.4-2.5,0.6c8.3-1.3,8,9.9,7.4,15.2c-0.8,7.6-3.2,14.4-6.2,21.2
				c0.4-1,4.5-0.3,5-1.3c2.3-5.4,4.3-10.6,5.4-16.4c1.1-5.4,2.4-12.9-0.9-17.8c-1.4-2-3.8-2.7-6.1-2.1c-3.5,0.9-6.6,1.6-9.4,3.9
				c-3.3,2.6-5.8,6.5-8.1,10c-2.4,3.8-4.6,8.1-5.3,12.6c0.1-0.7,4.8-0.6,5-1.3c1.8-8,1.6-16.8-0.6-24.7
				C69.9,14.7,64.9,16.1,64.9,16.2L64.9,16.2z"/>
		</g>
	</g>
	<g id="t_1_">
		<g>
			<g>
				<path d="M105.1,1.3c0,7,0,13.9,0,20.9c0,6.6-0.8,13.7,0.4,20.2c0-0.1,5-1.1,5-1.3c-1.2-6.5-0.4-13.6-0.4-20.2c0-7,0-13.9,0-20.9
					C110,0.3,105.1,0.8,105.1,1.3L105.1,1.3z"/>
			</g>
		</g>
		<g>
			<g>
				<path d="M93.4,10.4c1.9,0.4,4.5-0.7,6.2-1.3c2.7-0.7,5.3-1.6,7.9-2.5c1.8-0.6,3.6-1.3,5.4-1.9c0.7-0.2,1.5-0.5,2.2-0.7
					c0.9-0.3,0.7-0.2-0.6,0.1c0.6-0.1,1.2-0.2,1.8-0.3c1.8-0.3,4.7-0.5,5.4,1.7c0.1,0.1,5-1.4,5-1.3c-1.4-4.3-11.5-0.2-14.2,0.5
					c-3.3,0.9-6.4,2.1-9.5,3.1c-1.6,0.6-3.3,1.1-4.9,1.7c-3,1,4.2-0.8,1.3-0.3c-0.3,0.1-0.7,0.1-1.1,0C96.9,8.8,94.9,10.7,93.4,10.4
					L93.4,10.4z"/>
			</g>
		</g>
	</g>
	<g id="t_2_">
		<g>
			<g>
				<path d="M180.6,1.3c0,7,0,13.9,0,20.9c0,6.6-0.8,13.7,0.4,20.2c0-0.1,5-1.1,5-1.3c-1.2-6.5-0.4-13.6-0.4-20.2c0-7,0-13.9,0-20.9
					C185.6,0.3,180.6,0.8,180.6,1.3L180.6,1.3z"/>
			</g>
		</g>
		<g>
			<g>
				<path d="M169,10.4c1.9,0.4,4.5-0.7,6.2-1.3c2.7-0.7,5.3-1.6,7.9-2.5c1.8-0.6,3.6-1.3,5.4-1.9c0.7-0.2,1.5-0.5,2.2-0.7
					c0.9-0.3,0.7-0.2-0.6,0.1c0.6-0.1,1.2-0.2,1.8-0.3c1.8-0.3,4.7-0.5,5.4,1.7c0.1,0.1,5-1.4,5-1.3c-1.4-4.3-11.5-0.2-14.2,0.5
					c-3.3,0.9-6.4,2.1-9.5,3.1c-1.6,0.6-3.3,1.1-4.9,1.7c-3,1,4.2-0.8,1.3-0.3c-0.3,0.1-0.7,0.1-1.1,0
					C172.5,8.8,170.5,10.7,169,10.4L169,10.4z"/>
			</g>
		</g>
	</g>
	<g id="c">
		<g>
			<path d="M16.1,16.5c1.7-3-0.5-3-2.9-2.5c-2.3,0.6-4.8,1.1-6.9,2.3C1,19.4-1,28.1,0.5,33.6c1.5,5.7,7.2,7.9,12.6,7
				c4.8-0.9,9.8-2.3,13.1-6.1c-0.9,1-4,0.2-5,1.3c-1.4,1.5-3,2.7-4.8,3.7c-0.3,0.2-0.7,0.3-1.1,0.5c3.2-1.3,2.4-0.6,1-0.5
				c-0.9,0.1-1.9,0-2.8-0.1c-4-0.5-6.9-3.4-8-7.1c-1.4-4.3,0.1-9.5,2.3-13.4c1.1-1.9,2.7-3.5,4.7-4.4c1.4-0.6,0.6-0.5-2.3,0.5
				c0.5-0.1,0.9,0,1.3,0.1c1.1,0.3,0.1,2.2-0.2,2.7C11.7,16.8,15.5,17.6,16.1,16.5L16.1,16.5z"/>
		</g>
	</g>
	<g id="c_1_">
		<g>
			<path d="M167.4,16.3c1.7-3-0.5-3-2.9-2.5c-2.3,0.6-4.8,1.1-6.9,2.3c-5.4,3-7.3,11.7-5.9,17.2c1.5,5.7,7.2,7.9,12.6,7
				c4.8-0.9,9.8-2.3,13.1-6.1c-0.9,1-4,0.2-5,1.3c-1.4,1.5-3,2.7-4.8,3.7c-0.3,0.2-0.7,0.3-1.1,0.5c3.2-1.3,2.4-0.6,1-0.5
				c-0.9,0.1-1.9,0-2.8-0.1c-4-0.5-6.9-3.4-8-7.1c-1.4-4.3,0.1-9.5,2.3-13.4c1.1-1.9,2.7-3.5,4.7-4.4c1.4-0.6,0.6-0.5-2.3,0.5
				c0.5-0.1,0.9,0,1.3,0.1c1.1,0.3,0.1,2.2-0.2,2.7C163,16.6,166.8,17.3,167.4,16.3L167.4,16.3z"/>
		</g>
	</g>
</g>
</svg>
