<?xml version="1.0" encoding="utf-8"?>
<!-- Generator: Adobe Illustrator 16.0.0, SVG Export Plug-In . SVG Version: 6.00 Build 0)  -->
<!DOCTYPE svg PUBLIC "-//W3C//DTD SVG 1.1//EN" "http://www.w3.org/Graphics/SVG/1.1/DTD/svg11.dtd">
<svg version="1.1" id="Layer_1" xmlns="http://www.w3.org/2000/svg" xmlns:xlink="http://www.w3.org/1999/xlink" x="0px" y="0px"
	 width="340px" height="112.8px" viewBox="0 0 340 112.8" enable-background="new 0 0 340 112.8" xml:space="preserve">
<g id="ikora">
	<g id="i">
		<g>
			<g>
				<path d="M20.6,52.7c0,13,0,25.9,0,38.9c0-0.9,11.1-1.9,11.1-2.9c0-13,0-25.9,0-38.9C31.5,50.6,20.6,51.6,20.6,52.7L20.6,52.7z"
					/>
			</g>
		</g>
		<g>
			<g>
				<path d="M11.1,38.2c8.4-4.7,39.2-11.2,34.5-25.5c0-0.1-10.1,2.6-11.1,2.9c-6.8,2.6-12.8,7.8-15.3,14.7c0.8-2,10.3-0.8,11.1-2.9
					c2.6-6.9,8.6-12.1,15.3-14.7c-3.7,1-7.4,2-11.1,2.9C39.2,29.9,8.4,36.4,0,41.1C3.3,39.4,7.9,40.1,11.1,38.2L11.1,38.2z"/>
			</g>
		</g>
	</g>
	<g id="k">
		<g>
			<g>
				<path d="M60.1,2.9c-1.8,15.3-2.2,30.8-5.1,46c-2.8,14.4-5.5,29.4-3.2,44c0-0.3,11.2-2.6,11.1-2.9c-2.4-14.8,0.6-29.5,3.2-44
					c2.7-15.2,3.3-30.6,5.1-46C71,1.3,60.3,1.4,60.1,2.9L60.1,2.9z"/>
			</g>
		</g>
		<g>
			<g>
				<path d="M81.8,31.7c-3.2,13-15.3,21.2-25.5,28.7c2.8-2.2,8.2-0.8,11.1-2.9c10.2-7.5,22.3-15.7,25.5-28.7
					C92.4,30.4,82.2,29.7,81.8,31.7L81.8,31.7z"/>
			</g>
		</g>
		<g>
			<g>
				<path d="M55,54.6C59.2,66.8,65.7,78.3,72.8,89c6,8.9,15.1,22.5,26.9,23.7c3.6,0.4,7.5-3.3,11.1-2.9C98.9,108.4,90,95,83.9,86
					c-7.1-10.6-13.7-22.2-17.7-34.3C66,51.3,55,54.8,55,54.6L55,54.6z"/>
			</g>
		</g>
	</g>
	<g id="O">
		<g>
			<path d="M121.4,37.4c4.6,0.9,9.6-1.2,13.9-2.4c2-0.5,3.4-1.3,4.9-2.8c2.4-2.9,0.3-3.6-2.3-4.2c-2.9-0.6-5.7,0.1-8.6,0.9
				c-4,1-8.2,1.8-11.9,3.7c-13.4,7-20.2,27.7-18.3,41.7c2.8,21.6,27.2,16.3,41.6,10.9c22.3-8.4,34-36.3,29.4-58.7
				C168.6,19,164,13.7,156,14.6c-7.9,0.9-18.6,3.8-23.7,10c1.9-2.4,9.1-0.5,11.1-2.9c1.9-2.3,3.8-3.7,6.4-5.1
				c5.2-2.8-8.8,1.5-3.7,0.9c1-0.1,2,0,3.1,0.1c3.7,0.4,6.4,3.2,8,6.3c4,7.1,3.2,17,2.2,24.9c-1.5,10.9-6.6,20.3-14,28.5
				c-2.2,2.4-4.7,4.5-7.3,6.5c-1.5,1.1-3.2,2.2-4.9,3.1c-2.3,1.3-7.1,2,0.6,0.6c-4.3,0.8-9.1,0.3-13.3-1.3
				c-14.6-5.7-11.1-26.4-6.5-37.7c2.7-6.6,6.8-13,12.6-17.4c1-0.8,2.2-1.4,3.4-1.9c4.3-2-11.6,2.4-6.9,1.8c0.8-0.1,1.4,0,2.2,0
				c1.5,0.1,2.9,0.6,4.3,1.2c2.6,1.1-2.6,5.1-3.7,5.6c3.7-1,7.4-2,11.1-2.9c-1.7,0.3-2.8,0.3-4.5-0.1
				C129.1,33.7,124.7,38,121.4,37.4L121.4,37.4z"/>
		</g>
	</g>
	<g id="r">
		<g>
			<g>
				<path d="M187.3,55.4c1.5-1.9,3.3-3.4,5.1-5.1c-3.7,1-7.4,2-11.1,2.9c2,13.3,3.2,26.9,0.6,40.2c0.3-1.5,10.7-1.3,11.1-2.9
					c2.6-13.3,1.4-26.9-0.6-40.2c0.1,0.5-10.2,2.2-11.1,2.9c-1.8,1.7-3.6,3.2-5.1,5.1C178.2,56,185.4,58,187.3,55.4L187.3,55.4z"/>
			</g>
		</g>
		<g>
			<g>
				<path d="M196.2,63.7c0.8-2.9,3.2-5.5,5.2-7.5c1.3-1.3,2.6-2.4,4-3.6c3.2-2.4,9.3-3.8-2.7-0.8c-0.9,0.3-1.8,0.5-2.8,0.6
					c2.8-0.5,4.1,1.3,4.3,4c0-0.5,11.1-2.3,11.1-2.9c-0.3-2.7-1.4-4.5-4.3-4c-4.2,0.8-8.7,1.9-12.6,3.4c-5.1,2-11.7,8.2-13.3,13.7
					c0.1-0.4,5.1-1.3,5.6-1.4C191.2,65.1,196.1,64.3,196.2,63.7L196.2,63.7z"/>
			</g>
		</g>
	</g>
	<g id="A">
		<g>
			<g>
				<path d="M244.1,4.9C238,34.7,225.2,62.6,218.2,92c0.4-1.7,10.7-1.1,11.1-2.9c7-29.6,19.9-57.4,25.9-87.2
					C254.9,3.4,244.5,3.1,244.1,4.9L244.1,4.9z"/>
			</g>
		</g>
		<g>
			<g>
				<path d="M244.1,6.9c7.7,16,10.9,33.7,13.7,50.9c1.3,7.7,2.2,15.3,3.6,22.9c1,5,2.9,13.2-1,17.2c2.3-2.3,8.8-0.6,11.1-2.9
					c4.1-4.2,2-12.1,1-17.2c-1.4-7.5-2.4-15.2-3.6-22.8C266.2,37.5,263,19.8,255.2,4C254.8,3.2,244.3,7.5,244.1,6.9L244.1,6.9z"/>
			</g>
		</g>
		<g>
			<g>
				<path d="M222,53.4c2.4,8.2,24.6,3.4,30.5,2.8c21.3-2.6,42.8-9.4,64.3-4.9c3.3,0.8,7.8-3.7,11.1-2.9c-21.4-4.6-42.4,2.4-63.6,4.9
					c-6.1,0.6-28.9,5.6-31.3-2.7C233,50.2,222,53.4,222,53.4L222,53.4z"/>
			</g>
		</g>
		<g>
			<g>
				<path d="M329,49.7c-1,1.7-2,3.4-4,4.2c0.1,0,0.1,0,0.3-0.1c-0.1,0-0.1,0-0.3,0.1c-0.8,0.3,0.9-0.3,0.5-0.1
					c1.1-0.3,2.2-0.5,3.3-0.9c2.3-0.6,4.6-1.1,6.8-1.9c2.2-0.8,3.2-2.6,4.3-4.3c0,0.1-1.7,0.4-1.7,0.4c-1.3,0.4-2.7,0.6-4,1
					c-1.3,0.4-2.6,0.8-4,1C330.5,49.1,329.1,49.5,329,49.7L329,49.7z"/>
			</g>
		</g>
	</g>
</g>
</svg>
